<svg xmlns="http://www.w3.org/2000/svg" xmlns:xlink="http://www.w3.org/1999/xlink" width="500" zoomAndPan="magnify" viewBox="0 0 375 374.999991" height="500" preserveAspectRatio="xMidYMid meet" version="1.0"><defs><clipPath id="44f0735cb0"><path d="M 0 37.5 L 273 37.5 L 273 375 L 0 375 Z M 0 37.5 " clip-rule="nonzero"/></clipPath><clipPath id="60bd763f26"><path d="M 314 37.5 L 350 37.5 L 350 73 L 314 73 Z M 314 37.5 " clip-rule="nonzero"/></clipPath></defs><g clip-path="url(#44f0735cb0)"><path fill="#ffcebf" d="M 147.253906 37.464844 C 216.457031 37.464844 272.542969 89.285156 272.542969 153.214844 C 272.542969 175.476562 265.730469 196.691406 253.292969 214.910156 C 222.523438 272.6875 220.652344 326.488281 252.144531 375.710938 L 90.761719 375.710938 L 88.867188 329.210938 L 44.429688 324.464844 C 31.671875 323.105469 22.050781 312.589844 21.816406 299.78125 L 21.472656 281.773438 L 34.761719 270.519531 L 18.621094 262.324219 L 20.984375 240.511719 L 6.207031 232.976562 C 3.652344 231.660156 1.925781 229.617188 1.097656 226.871094 C 0.265625 224.125 0.5625 221.464844 1.96875 218.976562 L 24.902344 178.285156 C 22.964844 170.21875 21.941406 161.835938 21.941406 153.214844 C 21.945312 89.285156 78.050781 37.464844 147.253906 37.464844 Z M 147.253906 37.464844 " fill-opacity="1" fill-rule="evenodd"/></g><path fill="#99a8e5" d="M 320.109375 55.257812 C 320.109375 52.355469 317.753906 50 314.851562 50 L 258.53125 50 C 257.136719 50 255.796875 50.554688 254.8125 51.539062 L 207.648438 98.675781 C 205.59375 100.730469 205.59375 104.058594 207.648438 106.113281 C 208.675781 107.136719 210.019531 107.652344 211.367188 107.652344 C 212.710938 107.652344 214.058594 107.136719 215.085938 106.113281 L 260.710938 60.511719 L 314.851562 60.511719 C 317.757812 60.515625 320.109375 58.160156 320.109375 55.257812 Z M 215.085938 231.855469 L 260.710938 277.453125 L 314.851562 277.453125 C 317.757812 277.453125 320.113281 279.808594 320.113281 282.710938 C 320.113281 285.613281 317.757812 287.96875 314.851562 287.96875 L 258.53125 287.96875 C 257.136719 287.96875 255.796875 287.414062 254.8125 286.429688 L 207.648438 239.292969 C 205.59375 237.238281 205.59375 233.910156 207.648438 231.855469 C 209.703125 229.804688 213.03125 229.804688 215.085938 231.855469 Z M 213.078125 134.28125 L 232.667969 114.703125 C 233.65625 113.714844 234.992188 113.164062 236.386719 113.164062 L 307.933594 113.164062 C 310.835938 113.164062 313.191406 115.515625 313.191406 118.417969 C 313.191406 121.324219 310.835938 123.675781 307.933594 123.675781 L 238.566406 123.675781 L 220.515625 141.714844 C 219.488281 142.742188 218.144531 143.253906 216.796875 143.253906 C 215.453125 143.253906 214.105469 142.742188 213.078125 141.714844 C 211.023438 139.664062 211.023438 136.335938 213.078125 134.28125 Z M 220.515625 196.273438 L 238.566406 214.3125 L 307.933594 214.3125 C 310.835938 214.3125 313.191406 216.667969 313.191406 219.570312 C 313.191406 222.472656 310.835938 224.828125 307.933594 224.828125 L 236.386719 224.828125 C 234.992188 224.828125 233.65625 224.273438 232.667969 223.289062 L 213.078125 203.710938 C 211.023438 201.65625 211.023438 198.328125 213.078125 196.273438 C 215.132812 194.222656 218.460938 194.222656 220.515625 196.273438 Z M 233.128906 168.984375 C 233.128906 166.082031 235.484375 163.726562 238.386719 163.726562 L 340.019531 163.726562 C 342.925781 163.726562 345.28125 166.082031 345.28125 168.984375 C 345.28125 171.886719 342.925781 174.242188 340.019531 174.242188 L 238.386719 174.242188 C 235.484375 174.242188 233.128906 171.886719 233.128906 168.984375 Z M 233.128906 168.984375 " fill-opacity="1" fill-rule="nonzero"/><path fill="#31a7fb" d="M 126.046875 74.792969 L 126.046875 90.433594 C 116.207031 92.5 107.03125 96.371094 98.875 101.691406 L 87.800781 90.625 C 78.667969 97.03125 70.703125 105.011719 64.273438 114.140625 L 75.347656 125.207031 C 70.042969 133.359375 66.167969 142.53125 64.082031 152.363281 L 48.433594 152.363281 C 47.496094 157.769531 46.984375 163.324219 46.984375 168.984375 C 46.984375 174.667969 47.496094 180.21875 48.433594 185.625 L 64.082031 185.625 C 66.167969 195.457031 70.042969 204.628906 75.347656 212.761719 L 64.273438 223.828125 C 70.703125 232.976562 78.667969 240.9375 87.800781 247.34375 L 98.875 236.296875 C 107.03125 241.597656 116.207031 245.46875 126.046875 247.535156 L 126.046875 263.195312 C 131.453125 264.132812 137.011719 264.621094 142.675781 264.621094 C 148.359375 264.621094 153.917969 264.132812 159.328125 263.195312 L 159.328125 247.535156 C 169.164062 245.46875 178.339844 241.597656 186.496094 236.296875 L 197.546875 247.34375 C 206.703125 240.9375 214.667969 232.976562 221.097656 223.828125 L 210.023438 212.761719 C 215.328125 204.628906 219.203125 195.457031 221.289062 185.625 L 236.941406 185.625 C 237.875 180.21875 238.386719 174.667969 238.386719 168.984375 C 238.386719 163.324219 237.875 157.769531 236.941406 152.363281 L 221.289062 152.363281 C 219.203125 142.53125 215.328125 133.359375 210.023438 125.207031 L 221.097656 114.140625 C 214.667969 105.011719 206.703125 97.03125 197.546875 90.625 L 186.496094 101.691406 C 178.339844 96.371094 169.164062 92.5 159.328125 90.433594 L 159.328125 74.792969 C 153.917969 73.835938 148.359375 73.347656 142.675781 73.347656 C 137.011719 73.347656 131.453125 73.835938 126.046875 74.792969 Z M 126.046875 74.792969 " fill-opacity="1" fill-rule="evenodd"/><path fill="#f1f1f9" d="M 142.675781 111.738281 C 111.054688 111.738281 85.398438 137.359375 85.398438 168.984375 C 85.398438 200.609375 111.054688 226.253906 142.675781 226.253906 C 174.316406 226.253906 199.976562 200.609375 199.976562 168.984375 C 199.976562 137.359375 174.316406 111.738281 142.675781 111.738281 Z M 142.675781 111.738281 " fill-opacity="1" fill-rule="evenodd"/><path fill="#05e39c" d="M 153.769531 198.734375 L 155.75 224.742188 C 151.554688 225.71875 147.1875 226.253906 142.675781 226.253906 C 138.183594 226.253906 133.796875 225.71875 129.578125 224.742188 L 131.539062 198.777344 C 116.972656 194.097656 106.433594 180.433594 106.433594 164.300781 C 106.433594 149.53125 115.25 136.847656 127.917969 131.1875 L 127.917969 167.878906 L 135.308594 173.984375 L 142.675781 180.113281 L 150.066406 173.984375 L 157.453125 167.878906 L 157.453125 131.1875 C 170.121094 136.847656 178.9375 148.851562 178.9375 164.300781 C 178.9375 179.753906 168.355469 194.054688 153.769531 198.734375 Z M 153.769531 198.734375 " fill-opacity="1" fill-rule="evenodd"/><path fill="#0ed290" d="M 142.675781 226.253906 C 138.183594 226.253906 133.796875 225.722656 129.578125 224.742188 L 131.539062 198.777344 C 116.972656 194.097656 106.433594 180.433594 106.433594 164.300781 C 106.433594 149.53125 115.25 136.847656 127.917969 131.1875 L 127.917969 167.878906 L 135.308594 173.984375 L 142.675781 180.113281 Z M 142.675781 226.253906 " fill-opacity="1" fill-rule="evenodd"/><g clip-path="url(#60bd763f26)"><path fill="#fd4755" d="M 332.207031 37.914062 C 322.625 37.914062 314.851562 45.679688 314.851562 55.257812 C 314.851562 64.832031 322.625 72.601562 332.207031 72.601562 C 341.789062 72.601562 349.558594 64.832031 349.558594 55.257812 C 349.558594 45.679688 341.789062 37.914062 332.207031 37.914062 Z M 332.207031 37.914062 " fill-opacity="1" fill-rule="evenodd"/></g><path fill="#fd4755" d="M 332.207031 265.367188 C 322.625 265.367188 314.851562 273.136719 314.851562 282.710938 C 314.851562 292.289062 322.625 300.054688 332.207031 300.054688 C 341.789062 300.054688 349.558594 292.289062 349.558594 282.710938 C 349.558594 273.136719 341.789062 265.367188 332.207031 265.367188 Z M 332.207031 265.367188 " fill-opacity="1" fill-rule="evenodd"/><path fill="#05e39c" d="M 325.285156 101.074219 C 315.703125 101.074219 307.929688 108.84375 307.929688 118.417969 C 307.929688 127.996094 315.703125 135.765625 325.285156 135.765625 C 334.867188 135.765625 342.640625 127.996094 342.640625 118.417969 C 342.640625 108.84375 334.867188 101.074219 325.285156 101.074219 Z M 325.285156 101.074219 " fill-opacity="1" fill-rule="evenodd"/><path fill="#05e39c" d="M 325.285156 236.914062 C 315.703125 236.914062 307.929688 229.144531 307.929688 219.570312 C 307.929688 209.992188 315.703125 202.226562 325.285156 202.226562 C 334.867188 202.226562 342.640625 209.992188 342.640625 219.570312 C 342.640625 229.144531 334.867188 236.914062 325.285156 236.914062 Z M 325.285156 236.914062 " fill-opacity="1" fill-rule="evenodd"/><path fill="#fd4755" d="M 357.375 151.640625 C 347.792969 151.640625 340.019531 159.40625 340.019531 168.984375 C 340.019531 178.5625 347.792969 186.328125 357.375 186.328125 C 366.957031 186.328125 374.726562 178.5625 374.726562 168.984375 C 374.726562 159.40625 366.957031 151.640625 357.375 151.640625 Z M 357.375 151.640625 " fill-opacity="1" fill-rule="evenodd"/></svg>