<svg xmlns="http://www.w3.org/2000/svg" xmlns:xlink="http://www.w3.org/1999/xlink" width="500" zoomAndPan="magnify" viewBox="0 0 375 374.999991" height="500" preserveAspectRatio="xMidYMid meet" version="1.0"><defs><clipPath id="4553cbd773"><path d="M 202 0 L 346.855469 0 L 346.855469 154 L 202 154 Z M 202 0 " clip-rule="nonzero"/></clipPath><clipPath id="04e9785ca1"><path d="M 58.105469 132 L 172 132 L 172 254 L 58.105469 254 Z M 58.105469 132 " clip-rule="nonzero"/></clipPath><clipPath id="1b43145b5a"><path d="M 175 290 L 207 290 L 207 321 L 175 321 Z M 175 290 " clip-rule="nonzero"/></clipPath><clipPath id="4c070949d6"><path d="M 77 290 L 109 290 L 109 321 L 77 321 Z M 77 290 " clip-rule="nonzero"/></clipPath><clipPath id="f280fc5213"><path d="M 273 290 L 305 290 L 305 321 L 273 321 Z M 273 290 " clip-rule="nonzero"/></clipPath></defs><path fill="#76bedd" d="M 187.550781 273.84375 C 187.550781 271.890625 189.132812 270.308594 191.085938 270.308594 C 193.039062 270.308594 194.617188 271.890625 194.617188 273.84375 L 194.617188 293.589844 C 194.617188 295.542969 193.039062 297.125 191.085938 297.125 C 189.132812 297.125 187.550781 295.542969 187.550781 293.589844 Z M 187.550781 273.84375 " fill-opacity="1" fill-rule="evenodd"/><g clip-path="url(#4553cbd773)"><path fill="#99b4cd" d="M 293.652344 30.738281 C 295.550781 31.542969 297.386719 32.457031 299.144531 33.476562 C 300.925781 34.507812 302.640625 35.652344 304.28125 36.894531 L 322.007812 26.644531 L 322 26.636719 C 324.441406 25.226562 327.21875 24.945312 329.734375 25.621094 C 332.253906 26.296875 334.523438 27.929688 335.925781 30.367188 L 335.933594 30.375 L 345.117188 46.292969 C 346.527344 48.738281 346.808594 51.515625 346.132812 54.035156 C 345.457031 56.546875 343.816406 58.820312 341.375 60.230469 L 323.648438 70.472656 C 323.707031 70.953125 323.761719 71.453125 323.804688 71.949219 C 323.960938 73.605469 324.042969 75.167969 324.042969 76.632812 C 324.042969 78.085938 323.960938 79.648438 323.804688 81.304688 C 323.761719 81.804688 323.699219 82.300781 323.640625 82.792969 L 341.367188 93.039062 L 341.382812 93.046875 C 343.816406 94.457031 345.457031 96.722656 346.125 99.226562 C 346.792969 101.738281 346.511719 104.519531 345.109375 106.957031 L 345.101562 106.96875 L 345.109375 106.976562 L 336.089844 122.617188 C 335.976562 122.84375 335.851562 123.058594 335.710938 123.265625 C 334.292969 125.503906 332.132812 127.019531 329.734375 127.65625 C 327.351562 128.296875 324.730469 128.074219 322.394531 126.855469 C 322.125 126.734375 321.875 126.585938 321.644531 126.421875 L 304.28125 116.390625 C 302.640625 117.640625 300.925781 118.777344 299.144531 119.808594 C 297.386719 120.828125 295.542969 121.75 293.652344 122.550781 L 293.652344 143.046875 C 293.652344 145.847656 292.5 148.394531 290.660156 150.246094 L 290.644531 150.261719 C 288.796875 152.109375 286.25 153.253906 283.453125 153.253906 L 265.070312 153.253906 C 262.257812 153.253906 259.710938 152.109375 257.863281 150.261719 C 256.015625 148.410156 254.871094 145.855469 254.871094 143.046875 L 254.871094 122.53125 C 252.972656 121.726562 251.140625 120.8125 249.378906 119.796875 C 247.597656 118.761719 245.882812 117.617188 244.242188 116.378906 L 226.5 126.632812 L 226.488281 126.640625 C 224.050781 128.035156 221.28125 128.324219 218.78125 127.648438 C 216.265625 126.972656 213.992188 125.339844 212.589844 122.902344 L 212.582031 122.894531 L 203.402344 106.976562 C 203.332031 106.867188 203.28125 106.753906 203.222656 106.644531 C 201.96875 104.28125 201.738281 101.636719 202.375 99.234375 C 203.050781 96.714844 204.683594 94.441406 207.121094 93.039062 C 207.203125 92.984375 207.28125 92.941406 207.371094 92.902344 L 224.859375 82.796875 C 224.800781 82.316406 224.75 81.816406 224.703125 81.320312 C 224.550781 79.664062 224.46875 78.101562 224.46875 76.644531 C 224.46875 75.191406 224.550781 73.621094 224.703125 71.964844 C 224.75 71.46875 224.800781 70.96875 224.859375 70.484375 L 207.503906 60.453125 C 207.203125 60.3125 206.910156 60.144531 206.652344 59.941406 C 204.476562 58.523438 203.007812 56.390625 202.382812 54.050781 C 201.746094 51.664062 201.96875 49.042969 203.183594 46.699219 C 203.289062 46.472656 203.414062 46.246094 203.554688 46.039062 L 212.589844 30.382812 L 212.597656 30.375 C 212.640625 30.292969 212.695312 30.21875 212.738281 30.136719 L 212.730469 30.136719 L 212.796875 30.042969 C 214.207031 27.796875 216.382812 26.28125 218.78125 25.644531 C 221.289062 24.964844 224.066406 25.257812 226.5 26.660156 L 226.507812 26.660156 L 226.761719 26.808594 L 226.769531 26.800781 L 226.871094 26.875 L 244.242188 36.914062 C 245.882812 35.667969 247.597656 34.53125 249.378906 33.496094 C 251.140625 32.480469 252.972656 31.566406 254.871094 30.761719 L 254.871094 10.238281 C 254.871094 7.445312 256.015625 4.898438 257.863281 3.039062 L 257.886719 3.015625 C 259.742188 1.175781 262.28125 0.03125 265.066406 0.03125 L 283.445312 0.03125 C 286.234375 0.03125 288.78125 1.175781 290.636719 3.023438 L 290.660156 3.046875 C 292.5 4.902344 293.644531 7.445312 293.644531 10.230469 L 293.644531 30.738281 Z M 293.652344 30.738281 " fill-opacity="1" fill-rule="nonzero"/></g><path fill="#8aa2b9" d="M 275.09375 153.242188 L 265.070312 153.242188 C 262.257812 153.242188 259.710938 152.089844 257.863281 150.246094 C 256.015625 148.394531 254.871094 145.839844 254.871094 143.03125 L 254.871094 122.53125 C 252.972656 121.726562 251.140625 120.8125 249.378906 119.796875 C 247.597656 118.761719 245.882812 117.617188 244.242188 116.378906 L 226.5 126.632812 L 226.488281 126.640625 C 224.050781 128.035156 221.28125 128.324219 218.78125 127.648438 C 216.265625 126.972656 213.992188 125.339844 212.589844 122.902344 L 212.582031 122.894531 L 203.402344 106.976562 C 203.332031 106.867188 203.28125 106.753906 203.222656 106.644531 C 201.96875 104.28125 201.738281 101.636719 202.375 99.234375 C 203.050781 96.714844 204.683594 94.441406 207.121094 93.039062 C 207.203125 92.984375 207.28125 92.941406 207.371094 92.902344 L 224.859375 82.796875 C 224.800781 82.316406 224.75 81.816406 224.703125 81.320312 C 224.550781 79.664062 224.46875 78.101562 224.46875 76.644531 C 224.46875 75.191406 224.550781 73.621094 224.703125 71.964844 C 224.75 71.46875 224.800781 70.96875 224.859375 70.484375 L 207.503906 60.453125 C 207.203125 60.3125 206.910156 60.144531 206.652344 59.941406 C 204.476562 58.523438 203.007812 56.390625 202.382812 54.050781 C 201.746094 51.664062 201.96875 49.042969 203.183594 46.699219 C 203.289062 46.472656 203.414062 46.246094 203.554688 46.039062 L 212.589844 30.382812 L 212.597656 30.375 C 212.640625 30.292969 212.695312 30.21875 212.738281 30.136719 L 212.730469 30.136719 L 212.796875 30.042969 C 214.207031 27.796875 216.382812 26.28125 218.78125 25.644531 C 221.289062 24.964844 224.066406 25.257812 226.5 26.660156 L 226.507812 26.660156 L 226.761719 26.808594 L 226.769531 26.800781 L 226.871094 26.875 L 244.242188 36.914062 C 245.882812 35.667969 247.597656 34.53125 249.378906 33.496094 C 249.765625 33.273438 250.152344 33.058594 250.539062 32.851562 C 253.34375 35.085938 256.039062 37.496094 258.597656 40.066406 C 276.554688 58.039062 286.5625 82.21875 286.5625 107.644531 C 286.5625 120.226562 285.105469 133.15625 279.851562 144.71875 C 278.441406 147.800781 276.84375 150.601562 275.09375 153.242188 Z M 275.09375 153.242188 " fill-opacity="1" fill-rule="nonzero"/><path fill="#ffffff" d="M 274.261719 44.539062 C 283.117188 44.539062 291.136719 48.136719 296.941406 53.9375 C 302.746094 59.75 306.332031 67.773438 306.332031 76.632812 C 306.332031 85.496094 302.746094 93.519531 296.941406 99.324219 C 291.136719 105.136719 283.117188 108.722656 274.261719 108.722656 C 265.40625 108.722656 257.390625 105.128906 251.589844 99.324219 C 245.785156 93.511719 242.203125 85.488281 242.203125 76.632812 C 242.203125 67.765625 245.792969 59.742188 251.589844 53.9375 C 257.390625 48.128906 265.40625 44.539062 274.261719 44.539062 Z M 274.261719 44.539062 " fill-opacity="1" fill-rule="nonzero"/><path fill="#e6e6e6" d="M 286.554688 106.285156 C 282.769531 107.863281 278.621094 108.730469 274.261719 108.730469 C 265.40625 108.730469 257.390625 105.136719 251.589844 99.332031 C 245.785156 93.519531 242.203125 85.496094 242.203125 76.640625 C 242.203125 67.773438 245.792969 59.75 251.589844 53.945312 C 255.09375 50.4375 259.402344 47.75 264.203125 46.160156 C 278.34375 62.980469 286.25 84.121094 286.554688 106.285156 Z M 286.554688 106.285156 " fill-opacity="1" fill-rule="nonzero"/><path fill="#ffc107" d="M 191.09375 19.117188 C 215.507812 19.117188 237.605469 29.023438 253.601562 45.035156 C 269.601562 61.050781 279.496094 83.175781 279.496094 107.609375 C 279.496094 138.742188 269.839844 149.710938 259.882812 161.003906 C 250.714844 171.414062 241.257812 182.152344 241.257812 214.980469 C 241.257812 217.988281 238.824219 220.425781 235.816406 220.425781 L 146.359375 220.425781 C 143.355469 220.425781 140.917969 217.988281 140.917969 214.980469 C 140.917969 182.152344 131.460938 171.414062 122.296875 161.003906 C 112.347656 149.703125 102.683594 138.742188 102.683594 107.609375 C 102.683594 83.171875 112.578125 61.050781 128.574219 45.035156 C 144.578125 29.023438 166.679688 19.117188 191.09375 19.117188 Z M 191.09375 19.117188 " fill-opacity="1" fill-rule="evenodd"/><path fill="#ffae06" d="M 176.839844 220.433594 L 146.359375 220.433594 C 143.355469 220.433594 140.917969 217.996094 140.917969 214.988281 C 140.917969 182.160156 131.460938 171.421875 122.296875 161.011719 C 114.625 152.3125 107.136719 143.796875 104.101562 126.113281 C 105.339844 125.777344 106.632812 125.605469 107.9375 125.605469 L 122.375 125.605469 C 126.378906 125.605469 130.1875 127.203125 133.015625 130.019531 C 133.042969 130.050781 133.066406 130.070312 133.09375 130.101562 L 133.101562 130.109375 C 135.871094 132.949219 137.453125 136.722656 137.453125 140.699219 L 137.453125 152.378906 C 137.710938 152.527344 137.980469 152.667969 138.238281 152.824219 C 138.507812 152.980469 138.773438 153.136719 139.035156 153.292969 L 148.863281 147.617188 C 148.953125 147.5625 149.039062 147.503906 149.128906 147.453125 C 152.582031 145.453125 156.722656 144.910156 160.570312 145.945312 C 164.4375 146.984375 167.726562 149.496094 169.722656 152.972656 C 169.730469 152.988281 169.738281 152.996094 169.742188 153.011719 L 176.945312 165.484375 C 178.941406 168.941406 179.484375 173.085938 178.453125 176.9375 C 177.410156 180.808594 174.886719 184.097656 171.421875 186.097656 L 161.332031 191.929688 C 161.339844 192.234375 161.339844 192.546875 161.339844 192.851562 C 161.339844 193.15625 161.332031 193.46875 161.332031 193.773438 L 171.421875 199.605469 C 171.429688 199.613281 171.4375 199.613281 171.453125 199.621094 C 174.902344 201.628906 177.425781 204.90625 178.457031 208.769531 C 179.453125 212.484375 178.976562 216.472656 177.152344 219.847656 C 177.09375 219.972656 177.027344 220.101562 176.953125 220.21875 Z M 176.839844 220.433594 " fill-opacity="1" fill-rule="evenodd"/><path fill="#4d4d4d" d="M 214.410156 238.03125 C 217.414062 238.03125 219.851562 240.46875 219.851562 243.476562 L 219.851562 257.722656 C 219.851562 263.144531 217.636719 268.066406 214.074219 271.632812 C 210.511719 275.199219 205.589844 277.414062 200.179688 277.414062 L 182 277.414062 C 176.582031 277.414062 171.667969 275.199219 168.101562 271.632812 C 164.539062 268.066406 162.328125 263.136719 162.328125 257.722656 L 162.328125 243.476562 C 162.328125 240.46875 164.761719 238.03125 167.769531 238.03125 C 170.769531 238.03125 211.410156 238.03125 214.410156 238.03125 Z M 214.410156 238.03125 " fill-opacity="1" fill-rule="evenodd"/><path fill="#f9eab0" d="M 196.535156 214.988281 C 196.535156 217.996094 194.097656 220.433594 191.09375 220.433594 C 188.085938 220.433594 185.652344 217.996094 185.652344 214.988281 L 185.652344 153.328125 C 185.652344 150.320312 188.085938 147.882812 191.09375 147.882812 C 194.097656 147.882812 196.535156 150.320312 196.535156 153.328125 Z M 196.535156 214.988281 " fill-opacity="1" fill-rule="evenodd"/><path fill="#f9eab0" d="M 191.09375 92.710938 C 199.972656 92.710938 208.011719 96.316406 213.832031 102.140625 C 219.648438 107.964844 223.25 116.011719 223.25 124.898438 C 223.25 133.789062 219.648438 141.835938 213.832031 147.660156 C 208.011719 153.484375 199.972656 157.089844 191.09375 157.089844 C 182.214844 157.089844 174.175781 153.484375 168.355469 147.660156 C 162.535156 141.835938 158.9375 133.789062 158.9375 124.898438 C 158.9375 116.011719 162.535156 107.964844 168.355469 102.140625 C 174.175781 96.316406 182.214844 92.710938 191.09375 92.710938 Z M 191.09375 92.710938 " fill-opacity="1" fill-rule="evenodd"/><path fill="#808080" d="M 235.824219 209.542969 C 238.832031 209.542969 241.265625 211.980469 241.265625 214.988281 L 241.265625 229.234375 C 241.265625 234.65625 239.054688 239.574219 235.492188 243.144531 C 231.929688 246.710938 227.007812 248.921875 221.59375 248.921875 L 160.589844 248.921875 C 155.171875 248.921875 150.257812 246.710938 146.695312 243.144531 C 143.132812 239.574219 140.917969 234.648438 140.917969 229.234375 L 140.917969 214.988281 C 140.917969 211.980469 143.355469 209.542969 146.359375 209.542969 C 149.359375 209.542969 232.820312 209.542969 235.824219 209.542969 Z M 235.824219 209.542969 " fill-opacity="1" fill-rule="evenodd"/><path fill="#737373" d="M 141.460938 233.832031 C 141.105469 232.351562 140.917969 230.816406 140.917969 229.226562 L 140.917969 214.980469 C 140.917969 211.972656 143.355469 209.535156 146.359375 209.535156 L 178.636719 209.535156 C 179.386719 213.035156 178.851562 216.710938 177.152344 219.871094 C 177.09375 219.996094 177.027344 220.121094 176.953125 220.242188 L 169.960938 232.367188 C 169.765625 232.734375 169.558594 233.082031 169.328125 233.421875 C 167.300781 236.558594 164.183594 238.816406 160.582031 239.785156 C 157 240.742188 153.175781 240.347656 149.871094 238.667969 C 149.449219 238.46875 149.039062 238.238281 148.648438 237.976562 Z M 141.460938 233.832031 " fill-opacity="1" fill-rule="evenodd"/><g clip-path="url(#04e9785ca1)"><path fill="#99b4cd" d="M 130.394531 156.808594 C 131.886719 157.4375 133.324219 158.160156 134.707031 158.960938 C 136.109375 159.773438 137.453125 160.671875 138.746094 161.652344 L 152.671875 153.605469 L 152.671875 153.597656 C 154.585938 152.488281 156.777344 152.265625 158.75 152.792969 C 160.730469 153.320312 162.507812 154.613281 163.613281 156.523438 L 163.621094 156.53125 L 170.835938 169.039062 C 171.941406 170.953125 172.164062 173.148438 171.636719 175.125 C 171.109375 177.101562 169.816406 178.882812 167.894531 179.992188 L 153.96875 188.039062 C 154.015625 188.417969 154.058594 188.808594 154.097656 189.195312 C 154.214844 190.496094 154.28125 191.722656 154.28125 192.875 C 154.28125 194.019531 154.222656 195.246094 154.097656 196.546875 C 154.058594 196.9375 154.015625 197.324219 153.96875 197.710938 L 167.894531 205.757812 L 167.910156 205.765625 C 169.824219 206.882812 171.109375 208.65625 171.636719 210.625 C 172.164062 212.59375 171.941406 214.78125 170.835938 216.699219 L 170.828125 216.703125 L 170.835938 216.703125 L 163.746094 228.996094 C 163.65625 229.171875 163.558594 229.34375 163.449219 229.5 C 162.335938 231.261719 160.636719 232.441406 158.757812 232.949219 C 156.886719 233.453125 154.832031 233.273438 152.988281 232.316406 C 152.78125 232.21875 152.582031 232.109375 152.402344 231.972656 L 138.757812 224.089844 C 137.46875 225.070312 136.125 225.964844 134.722656 226.773438 C 133.332031 227.574219 131.894531 228.296875 130.402344 228.929688 L 130.402344 245.03125 C 130.402344 247.230469 129.503906 249.234375 128.046875 250.683594 L 128.03125 250.699219 C 126.578125 252.148438 124.582031 253.054688 122.382812 253.054688 L 107.945312 253.054688 C 105.742188 253.054688 103.730469 252.15625 102.28125 250.699219 C 100.835938 249.25 99.929688 247.238281 99.929688 245.03125 L 99.929688 228.929688 C 98.4375 228.296875 96.996094 227.574219 95.617188 226.773438 C 94.214844 225.964844 92.871094 225.0625 91.578125 224.082031 L 77.636719 232.136719 L 77.621094 232.144531 C 75.714844 233.246094 73.539062 233.46875 71.574219 232.941406 C 69.589844 232.414062 67.816406 231.128906 66.710938 229.210938 L 66.703125 229.203125 L 59.488281 216.699219 C 59.433594 216.609375 59.390625 216.527344 59.347656 216.4375 C 58.359375 214.578125 58.179688 212.507812 58.6875 210.617188 C 59.210938 208.636719 60.496094 206.859375 62.414062 205.753906 C 62.480469 205.714844 62.546875 205.679688 62.613281 205.648438 L 76.351562 197.703125 C 76.308594 197.324219 76.265625 196.933594 76.226562 196.546875 C 76.109375 195.246094 76.042969 194.019531 76.042969 192.867188 C 76.042969 191.722656 76.101562 190.488281 76.226562 189.1875 C 76.265625 188.796875 76.308594 188.410156 76.351562 188.03125 L 62.714844 180.144531 C 62.480469 180.035156 62.257812 179.902344 62.046875 179.746094 C 60.339844 178.628906 59.183594 176.953125 58.691406 175.117188 C 58.1875 173.242188 58.367188 171.183594 59.324219 169.34375 C 59.40625 169.15625 59.503906 168.984375 59.613281 168.820312 L 66.710938 156.515625 L 66.710938 156.511719 C 66.746094 156.449219 66.785156 156.382812 66.820312 156.324219 L 66.875 156.25 C 67.988281 154.488281 69.6875 153.300781 71.574219 152.792969 C 73.539062 152.265625 75.722656 152.488281 77.636719 153.597656 L 77.644531 153.597656 L 77.84375 153.707031 L 77.851562 153.699219 L 77.933594 153.761719 L 91.585938 161.644531 C 92.875 160.664062 94.21875 159.765625 95.625 158.953125 C 97.003906 158.152344 98.445312 157.429688 99.9375 156.808594 L 99.9375 140.703125 C 99.9375 138.511719 100.835938 136.507812 102.289062 135.050781 L 102.3125 135.027344 C 103.765625 133.578125 105.761719 132.679688 107.953125 132.679688 L 122.390625 132.679688 C 124.582031 132.679688 126.585938 133.578125 128.039062 135.035156 L 128.0625 135.058594 C 129.511719 136.515625 130.410156 138.511719 130.410156 140.703125 L 130.410156 156.808594 Z M 130.394531 156.808594 " fill-opacity="1" fill-rule="nonzero"/></g><path fill="#ffffff" d="M 115.152344 167.65625 C 122.109375 167.65625 128.410156 170.480469 132.96875 175.042969 C 137.527344 179.605469 140.347656 185.914062 140.347656 192.875 C 140.347656 199.835938 137.527344 206.144531 132.96875 210.707031 C 128.410156 215.269531 122.109375 218.09375 115.152344 218.09375 C 108.199219 218.09375 101.894531 215.269531 97.339844 210.707031 C 92.78125 206.144531 89.960938 199.835938 89.960938 192.875 C 89.960938 185.914062 92.78125 179.605469 97.339844 175.042969 C 101.902344 170.472656 108.199219 167.65625 115.152344 167.65625 Z M 115.152344 167.65625 " fill-opacity="1" fill-rule="nonzero"/><path fill="#76bedd" d="M 104.84375 309.082031 C 102.890625 309.082031 101.308594 307.5 101.308594 305.542969 C 101.308594 303.589844 102.890625 302.007812 104.84375 302.007812 L 179.148438 302.007812 C 181.101562 302.007812 182.683594 303.589844 182.683594 305.542969 C 182.683594 307.5 181.101562 309.082031 179.148438 309.082031 Z M 203.03125 309.082031 C 201.078125 309.082031 199.496094 307.5 199.496094 305.542969 C 199.496094 303.589844 201.078125 302.007812 203.03125 302.007812 L 277.335938 302.007812 C 279.289062 302.007812 280.867188 303.589844 280.867188 305.542969 C 280.867188 307.5 279.289062 309.082031 277.335938 309.082031 Z M 203.03125 309.082031 " fill-opacity="1" fill-rule="evenodd"/><g clip-path="url(#1b43145b5a)"><path fill="#b08cd2" d="M 191.09375 290.050781 C 195.367188 290.050781 199.234375 291.78125 202.035156 294.589844 C 204.832031 297.394531 206.570312 301.265625 206.570312 305.542969 C 206.570312 309.824219 204.839844 313.695312 202.035156 316.496094 C 199.234375 319.296875 195.367188 321.035156 191.09375 321.035156 C 186.816406 321.035156 182.949219 319.304688 180.152344 316.496094 C 177.351562 313.695312 175.617188 309.824219 175.617188 305.542969 C 175.617188 301.265625 177.34375 297.394531 180.152344 294.589844 C 182.949219 291.78125 186.816406 290.050781 191.09375 290.050781 Z M 191.09375 290.050781 " fill-opacity="1" fill-rule="evenodd"/></g><g clip-path="url(#4c070949d6)"><path fill="#5c9cee" d="M 92.898438 290.050781 C 97.175781 290.050781 101.042969 291.78125 103.839844 294.589844 C 106.640625 297.394531 108.375 301.265625 108.375 305.542969 C 108.375 309.824219 106.648438 313.695312 103.839844 316.496094 C 101.042969 319.296875 97.175781 321.035156 92.898438 321.035156 C 88.625 321.035156 84.757812 319.304688 81.957031 316.496094 C 79.160156 313.695312 77.421875 309.824219 77.421875 305.542969 C 77.421875 301.265625 79.152344 297.394531 81.957031 294.589844 C 84.761719 291.78125 88.628906 290.050781 92.898438 290.050781 Z M 92.898438 290.050781 " fill-opacity="1" fill-rule="evenodd"/></g><g clip-path="url(#f280fc5213)"><path fill="#98db7c" d="M 289.277344 290.050781 C 293.554688 290.050781 297.421875 291.78125 300.222656 294.589844 C 303.019531 297.394531 304.757812 301.265625 304.757812 305.542969 C 304.757812 309.824219 303.027344 313.695312 300.222656 316.496094 C 297.421875 319.296875 293.554688 321.035156 289.277344 321.035156 C 285.003906 321.035156 281.136719 319.304688 278.335938 316.496094 C 275.539062 313.695312 273.800781 309.824219 273.800781 305.542969 C 273.800781 301.265625 275.53125 297.394531 278.335938 294.589844 C 281.136719 291.78125 285.003906 290.050781 289.277344 290.050781 Z M 289.277344 290.050781 " fill-opacity="1" fill-rule="evenodd"/></g></svg>