<svg xmlns="http://www.w3.org/2000/svg" xmlns:xlink="http://www.w3.org/1999/xlink" width="500" zoomAndPan="magnify" viewBox="0 0 375 374.999991" height="500" preserveAspectRatio="xMidYMid meet" version="1.0"><defs><clipPath id="abc2d05294"><path d="M 280 6 L 350.90625 6 L 350.90625 153 L 280 153 Z M 280 6 " clip-rule="nonzero"/></clipPath><clipPath id="5a7f9e5c32"><path d="M 23.90625 149 L 51 149 L 51 162 L 23.90625 162 Z M 23.90625 149 " clip-rule="nonzero"/></clipPath></defs><path fill="#eaf6ff" d="M 277.761719 161.429688 C 277.761719 121.023438 256.390625 116.847656 248.992188 107.984375 C 239.960938 97.15625 243.371094 71.320312 230.839844 64.628906 C 215.496094 56.433594 197.972656 51.785156 179.363281 51.777344 C 118.894531 51.75 69.722656 100.929688 69.722656 161.433594 C 69.722656 204.335938 94.351562 241.484375 130.234375 259.5 C 131.984375 260.378906 133.082031 262.175781 133.082031 264.132812 L 133.082031 294.234375 L 214.402344 294.234375 L 214.402344 264.132812 C 214.402344 262.167969 215.511719 260.375 217.265625 259.492188 C 253.140625 241.476562 277.761719 204.332031 277.761719 161.429688 Z M 277.761719 161.429688 " fill-opacity="1" fill-rule="nonzero"/><path fill="#d7ecfe" d="M 281.222656 121.023438 C 277.960938 112.792969 265.492188 114.601562 256.382812 112.183594 C 256.980469 114.996094 257.714844 117.929688 258.941406 121.023438 C 263.898438 133.527344 266.621094 147.160156 266.621094 161.429688 C 266.621094 204.328125 242 241.476562 206.125 259.492188 C 204.371094 260.375 203.261719 262.167969 203.261719 264.132812 L 203.261719 294.234375 L 225.546875 294.234375 L 225.546875 264.132812 C 225.546875 262.167969 226.65625 260.375 228.410156 259.492188 C 264.285156 241.476562 288.90625 204.328125 288.90625 161.429688 C 288.90625 147.160156 286.179688 133.527344 281.222656 121.023438 Z M 281.222656 121.023438 " fill-opacity="1" fill-rule="nonzero"/><path fill="#4f6d8f" d="M 283.863281 23.972656 L 280.722656 22.332031 C 279.675781 22.277344 278.617188 22.246094 277.554688 22.246094 C 275.761719 22.246094 273.984375 22.328125 272.230469 22.492188 C 270.351562 22.664062 268.523438 21.828125 267.46875 20.261719 L 259.679688 8.722656 C 258.414062 6.847656 256.058594 6 253.902344 6.699219 C 250.09375 7.9375 246.414062 9.46875 242.894531 11.265625 C 240.878906 12.296875 239.816406 14.558594 240.246094 16.78125 L 242.894531 30.449219 C 243.253906 32.304688 242.550781 34.191406 241.097656 35.398438 C 238.363281 37.667969 235.84375 40.1875 233.574219 42.925781 C 232.367188 44.378906 230.484375 45.082031 228.628906 44.722656 L 214.96875 42.074219 C 212.75 41.640625 210.484375 42.707031 209.460938 44.722656 C 207.664062 48.246094 206.132812 51.925781 204.894531 55.738281 C 204.191406 57.890625 205.042969 60.25 206.917969 61.515625 L 218.449219 69.308594 C 220.015625 70.363281 220.851562 72.195312 220.675781 74.074219 C 219.730469 84.320312 222.210938 86.957031 218.449219 89.496094 L 206.917969 97.289062 C 205.042969 98.554688 204.195312 100.914062 204.894531 103.066406 C 206.132812 106.878906 207.664062 110.558594 209.460938 114.082031 C 210.488281 116.097656 212.75 117.164062 214.96875 116.730469 L 228.628906 114.082031 C 230.484375 113.722656 232.367188 114.425781 233.574219 115.878906 C 235.84375 118.617188 238.363281 121.136719 241.097656 123.410156 C 242.550781 124.617188 243.253906 126.5 242.894531 128.355469 L 240.246094 142.023438 C 239.816406 144.246094 240.878906 146.511719 242.894531 147.539062 C 246.414062 149.335938 250.09375 150.867188 253.902344 152.105469 C 256.054688 152.808594 258.414062 151.957031 259.679688 150.082031 L 267.464844 138.542969 C 268.523438 136.976562 270.351562 136.140625 272.230469 136.3125 C 273.984375 136.476562 275.761719 136.558594 277.554688 136.558594 C 278.617188 136.558594 279.671875 136.53125 280.71875 136.472656 L 289.507812 130.710938 C 306.238281 119.738281 317.609375 102.164062 320.480469 82.355469 C 320.714844 80.742188 320.351562 77.3125 319.625 73.027344 C 316.058594 51.980469 302.785156 33.839844 283.863281 23.972656 Z M 277.554688 107.984375 C 261.78125 107.984375 248.992188 95.1875 248.992188 79.402344 C 248.992188 63.621094 261.78125 50.824219 277.554688 50.824219 C 293.328125 50.824219 306.117188 63.621094 306.117188 79.402344 C 306.117188 95.1875 293.328125 107.984375 277.554688 107.984375 Z M 277.554688 107.984375 " fill-opacity="1" fill-rule="nonzero"/><g clip-path="url(#abc2d05294)"><path fill="#334f6d" d="M 334.433594 74.078125 C 334.261719 72.195312 335.097656 70.367188 336.660156 69.308594 L 348.195312 61.519531 C 350.070312 60.25 350.917969 57.894531 350.21875 55.738281 C 348.980469 51.925781 347.449219 48.246094 345.652344 44.722656 C 344.625 42.707031 342.363281 41.644531 340.140625 42.074219 L 326.480469 44.722656 C 324.628906 45.085938 322.742188 44.382812 321.535156 42.925781 C 319.265625 40.191406 316.746094 37.667969 314.011719 35.398438 C 312.5625 34.191406 311.855469 32.304688 312.214844 30.453125 L 314.863281 16.785156 C 315.292969 14.5625 314.230469 12.296875 312.21875 11.269531 C 308.695312 9.472656 305.019531 7.941406 301.207031 6.699219 C 299.054688 6 296.699219 6.847656 295.429688 8.726562 L 287.644531 20.265625 C 285.6875 23.160156 282.671875 22.441406 280.71875 22.332031 C 307.625 46.582031 306.015625 78.960938 306.117188 79.402344 C 306.011719 79.875 307.671875 112.183594 280.71875 136.476562 C 282.855469 136.359375 285.707031 135.671875 287.644531 138.542969 L 295.433594 150.082031 C 296.699219 151.960938 299.054688 152.808594 301.207031 152.109375 C 305.019531 150.867188 308.695312 149.335938 312.21875 147.539062 C 314.230469 146.511719 315.296875 144.246094 314.863281 142.027344 L 312.21875 128.359375 C 311.859375 126.503906 312.5625 124.617188 314.015625 123.410156 C 316.75 121.140625 319.269531 118.617188 321.539062 115.882812 C 322.742188 114.429688 324.628906 113.726562 326.480469 114.085938 L 340.144531 116.734375 C 342.363281 117.164062 344.625 116.101562 345.652344 114.085938 C 347.449219 110.5625 348.980469 106.882812 350.21875 103.070312 C 350.917969 100.914062 350.070312 98.558594 348.195312 97.289062 L 336.664062 89.5 C 335.097656 88.441406 334.261719 86.613281 334.4375 84.730469 C 334.75 81.304688 334.769531 77.714844 334.433594 74.078125 Z M 334.433594 74.078125 " fill-opacity="1" fill-rule="nonzero"/></g><path fill="#7ee4fa" d="M 179.226562 138.476562 C 176.148438 138.476562 173.65625 140.972656 173.65625 144.050781 L 173.65625 294.238281 C 173.65625 297.316406 176.148438 299.8125 179.226562 299.8125 C 182.304688 299.8125 184.796875 297.316406 184.796875 294.238281 L 184.796875 144.046875 C 184.796875 140.96875 182.304688 138.476562 179.226562 138.476562 Z M 179.226562 138.476562 " fill-opacity="1" fill-rule="nonzero"/><path fill="#7ee4fa" d="M 225.289062 175.414062 C 222.238281 175.507812 219.886719 178.167969 219.886719 181.21875 L 219.886719 209.535156 C 219.886719 210.894531 219.347656 212.199219 218.386719 213.160156 L 198.449219 233.109375 C 197.402344 234.15625 196.816406 235.574219 196.816406 237.050781 L 196.816406 294.003906 C 196.816406 297.054688 199.167969 299.714844 202.214844 299.808594 C 205.371094 299.902344 207.957031 297.371094 207.957031 294.234375 L 207.957031 239.359375 L 229.398438 217.910156 C 230.441406 216.863281 231.03125 215.445312 231.03125 213.96875 L 231.03125 180.988281 C 231.027344 177.851562 228.441406 175.320312 225.289062 175.414062 Z M 225.289062 175.414062 " fill-opacity="1" fill-rule="nonzero"/><path fill="#7ee4fa" d="M 138.742188 162.855469 L 138.742188 111.371094 C 138.742188 108.320312 136.390625 105.65625 133.34375 105.566406 C 130.1875 105.472656 127.601562 108.003906 127.601562 111.136719 L 127.601562 167.210938 C 127.601562 168.664062 128.167969 170.058594 129.183594 171.101562 L 150.671875 193.148438 L 150.671875 294.003906 C 150.671875 297.054688 153.023438 299.714844 156.070312 299.808594 C 159.226562 299.902344 161.8125 297.371094 161.8125 294.238281 L 161.8125 190.882812 C 161.8125 189.425781 161.246094 188.03125 160.230469 186.992188 L 140.195312 166.433594 C 139.265625 165.476562 138.742188 164.191406 138.742188 162.855469 Z M 138.742188 162.855469 " fill-opacity="1" fill-rule="nonzero"/><path fill="#fee97d" d="M 179.3125 0.0351562 C 176.238281 0.0351562 173.742188 2.527344 173.742188 5.609375 L 173.742188 20.816406 C 173.742188 23.898438 176.238281 26.390625 179.3125 26.390625 C 182.390625 26.390625 184.886719 23.898438 184.886719 20.816406 L 184.886719 5.609375 C 184.886719 2.527344 182.390625 0.0351562 179.3125 0.0351562 Z M 179.3125 0.0351562 " fill-opacity="1" fill-rule="nonzero"/><g clip-path="url(#5a7f9e5c32)"><path fill="#fee97d" d="M 50.253906 155.523438 C 50.253906 152.445312 47.761719 149.949219 44.683594 149.949219 L 29.480469 149.949219 C 26.40625 149.949219 23.910156 152.445312 23.910156 155.523438 C 23.910156 158.605469 26.40625 161.097656 29.480469 161.097656 L 44.683594 161.097656 C 47.761719 161.097656 50.253906 158.601562 50.253906 155.523438 Z M 50.253906 155.523438 " fill-opacity="1" fill-rule="nonzero"/></g><path fill="#fee97d" d="M 65.507812 83.34375 L 52.339844 75.738281 C 49.675781 74.199219 46.269531 75.113281 44.730469 77.777344 C 43.191406 80.445312 44.105469 83.855469 46.769531 85.394531 L 59.933594 93 C 62.585938 94.53125 66 93.636719 67.542969 90.957031 C 69.082031 88.292969 68.171875 84.882812 65.507812 83.34375 Z M 65.507812 83.34375 " fill-opacity="1" fill-rule="nonzero"/><path fill="#fee97d" d="M 59.933594 218.050781 L 46.769531 225.65625 C 44.105469 227.195312 43.191406 230.605469 44.730469 233.269531 C 46.273438 235.945312 49.683594 236.847656 52.339844 235.3125 L 65.507812 227.707031 C 68.171875 226.167969 69.082031 222.757812 67.546875 220.089844 C 66.007812 217.425781 62.597656 216.511719 59.933594 218.050781 Z M 59.933594 218.050781 " fill-opacity="1" fill-rule="nonzero"/><path fill="#fee97d" d="M 109.222656 22.90625 C 107.683594 20.238281 104.277344 19.324219 101.613281 20.867188 C 98.949219 22.40625 98.035156 25.8125 99.574219 28.480469 L 107.175781 41.652344 C 108.71875 44.328125 112.128906 45.226562 114.785156 43.695312 C 117.449219 42.152344 118.363281 38.746094 116.824219 36.078125 Z M 109.222656 22.90625 " fill-opacity="1" fill-rule="nonzero"/><path fill="#ff7e8e" d="M 190.835938 142.410156 C 190.835938 143.164062 190.761719 143.914062 190.613281 144.660156 C 190.464844 145.402344 190.246094 146.121094 189.957031 146.824219 C 189.667969 147.523438 189.3125 148.1875 188.890625 148.816406 C 188.472656 149.445312 187.992188 150.03125 187.457031 150.566406 C 186.921875 151.101562 186.339844 151.578125 185.710938 152 C 185.082031 152.421875 184.417969 152.777344 183.71875 153.066406 C 183.019531 153.355469 182.296875 153.574219 181.554688 153.722656 C 180.8125 153.871094 180.0625 153.945312 179.304688 153.945312 C 178.550781 153.945312 177.800781 153.871094 177.058594 153.722656 C 176.316406 153.574219 175.59375 153.355469 174.894531 153.066406 C 174.195312 152.777344 173.53125 152.421875 172.902344 152 C 172.273438 151.578125 171.691406 151.101562 171.15625 150.566406 C 170.621094 150.03125 170.140625 149.445312 169.722656 148.816406 C 169.300781 148.1875 168.945312 147.523438 168.65625 146.824219 C 168.367188 146.121094 168.148438 145.402344 168 144.660156 C 167.851562 143.914062 167.777344 143.164062 167.777344 142.410156 C 167.777344 141.652344 167.851562 140.902344 168 140.15625 C 168.148438 139.414062 168.367188 138.695312 168.65625 137.996094 C 168.945312 137.292969 169.300781 136.628906 169.722656 136 C 170.140625 135.371094 170.621094 134.789062 171.15625 134.25 C 171.691406 133.714844 172.273438 133.238281 172.902344 132.816406 C 173.53125 132.398438 174.195312 132.042969 174.894531 131.75 C 175.59375 131.460938 176.316406 131.242188 177.058594 131.09375 C 177.800781 130.949219 178.550781 130.875 179.304688 130.875 C 180.0625 130.875 180.8125 130.949219 181.554688 131.09375 C 182.296875 131.242188 183.019531 131.460938 183.71875 131.75 C 184.417969 132.042969 185.082031 132.398438 185.710938 132.816406 C 186.339844 133.238281 186.921875 133.714844 187.457031 134.25 C 187.992188 134.789062 188.472656 135.371094 188.890625 136 C 189.3125 136.628906 189.667969 137.292969 189.957031 137.996094 C 190.246094 138.695312 190.464844 139.414062 190.613281 140.15625 C 190.761719 140.902344 190.835938 141.652344 190.835938 142.410156 Z M 190.835938 142.410156 " fill-opacity="1" fill-rule="nonzero"/><path fill="#ff7e8e" d="M 144.699219 109.488281 C 144.699219 110.246094 144.625 110.996094 144.476562 111.738281 C 144.332031 112.484375 144.113281 113.203125 143.820312 113.902344 C 143.53125 114.605469 143.175781 115.269531 142.757812 115.898438 C 142.335938 116.527344 141.859375 117.109375 141.324219 117.644531 C 140.789062 118.183594 140.207031 118.660156 139.574219 119.082031 C 138.945312 119.5 138.28125 119.855469 137.582031 120.148438 C 136.882812 120.4375 136.164062 120.65625 135.421875 120.804688 C 134.675781 120.949219 133.929688 121.023438 133.171875 121.023438 C 132.414062 121.023438 131.664062 120.949219 130.921875 120.804688 C 130.179688 120.65625 129.457031 120.4375 128.757812 120.148438 C 128.058594 119.855469 127.394531 119.5 126.765625 119.082031 C 126.136719 118.660156 125.554688 118.183594 125.019531 117.644531 C 124.484375 117.109375 124.007812 116.527344 123.585938 115.898438 C 123.164062 115.269531 122.808594 114.605469 122.519531 113.902344 C 122.230469 113.203125 122.011719 112.484375 121.863281 111.738281 C 121.714844 110.996094 121.640625 110.246094 121.640625 109.488281 C 121.640625 108.730469 121.714844 107.980469 121.863281 107.238281 C 122.011719 106.496094 122.230469 105.773438 122.519531 105.074219 C 122.808594 104.375 123.164062 103.710938 123.585938 103.082031 C 124.007812 102.453125 124.484375 101.867188 125.019531 101.332031 C 125.554688 100.796875 126.136719 100.320312 126.765625 99.898438 C 127.394531 99.476562 128.058594 99.121094 128.757812 98.832031 C 129.457031 98.542969 130.179688 98.324219 130.921875 98.175781 C 131.664062 98.027344 132.414062 97.953125 133.171875 97.953125 C 133.929688 97.953125 134.675781 98.027344 135.421875 98.175781 C 136.164062 98.324219 136.882812 98.542969 137.582031 98.832031 C 138.28125 99.121094 138.945312 99.476562 139.574219 99.898438 C 140.207031 100.320312 140.789062 100.796875 141.324219 101.332031 C 141.859375 101.867188 142.335938 102.453125 142.757812 103.082031 C 143.175781 103.710938 143.53125 104.375 143.820312 105.074219 C 144.113281 105.773438 144.332031 106.496094 144.476562 107.238281 C 144.625 107.980469 144.699219 108.730469 144.699219 109.488281 Z M 144.699219 109.488281 " fill-opacity="1" fill-rule="nonzero"/><path fill="#ff7e8e" d="M 236.984375 178.746094 C 236.984375 179.503906 236.914062 180.253906 236.765625 180.996094 C 236.617188 181.738281 236.398438 182.460938 236.109375 183.160156 C 235.820312 183.859375 235.464844 184.523438 235.042969 185.152344 C 234.621094 185.78125 234.144531 186.367188 233.609375 186.902344 C 233.074219 187.4375 232.492188 187.914062 231.863281 188.335938 C 231.234375 188.757812 230.570312 189.113281 229.871094 189.402344 C 229.171875 189.691406 228.449219 189.910156 227.707031 190.058594 C 226.964844 190.207031 226.214844 190.28125 225.457031 190.28125 C 224.699219 190.28125 223.949219 190.207031 223.207031 190.058594 C 222.464844 189.910156 221.746094 189.691406 221.046875 189.402344 C 220.347656 189.113281 219.683594 188.757812 219.054688 188.335938 C 218.421875 187.914062 217.839844 187.4375 217.304688 186.902344 C 216.769531 186.367188 216.292969 185.78125 215.871094 185.152344 C 215.453125 184.523438 215.097656 183.859375 214.808594 183.160156 C 214.515625 182.460938 214.296875 181.738281 214.152344 180.996094 C 214.003906 180.253906 213.929688 179.503906 213.929688 178.746094 C 213.929688 177.988281 214.003906 177.238281 214.152344 176.496094 C 214.296875 175.75 214.515625 175.03125 214.808594 174.332031 C 215.097656 173.628906 215.453125 172.964844 215.871094 172.335938 C 216.292969 171.707031 216.769531 171.125 217.304688 170.589844 C 217.839844 170.050781 218.421875 169.574219 219.054688 169.152344 C 219.683594 168.734375 220.347656 168.378906 221.046875 168.085938 C 221.746094 167.796875 222.464844 167.578125 223.207031 167.429688 C 223.949219 167.285156 224.699219 167.210938 225.457031 167.210938 C 226.214844 167.210938 226.964844 167.285156 227.707031 167.429688 C 228.449219 167.578125 229.171875 167.796875 229.871094 168.085938 C 230.570312 168.378906 231.234375 168.734375 231.863281 169.152344 C 232.492188 169.574219 233.074219 170.050781 233.609375 170.589844 C 234.144531 171.125 234.621094 171.707031 235.042969 172.335938 C 235.464844 172.964844 235.820312 173.628906 236.109375 174.332031 C 236.398438 175.03125 236.617188 175.75 236.765625 176.496094 C 236.914062 177.238281 236.984375 177.988281 236.984375 178.746094 Z M 236.984375 178.746094 " fill-opacity="1" fill-rule="nonzero"/><path fill="#7ee4fa" d="M 197.859375 374.964844 L 144.792969 374.964844 C 138.230469 374.964844 132.910156 369.644531 132.910156 363.074219 L 132.910156 344.96875 L 196.679688 344.96875 C 203.894531 344.96875 209.742188 350.820312 209.742188 358.039062 L 209.742188 363.074219 C 209.742188 369.644531 204.421875 374.964844 197.859375 374.964844 Z M 197.859375 374.964844 " fill-opacity="1" fill-rule="nonzero"/><path fill="#45cae5" d="M 203.261719 344.96875 L 203.261719 363.074219 C 203.261719 369.644531 197.941406 374.964844 191.378906 374.964844 L 213.660156 374.964844 C 220.222656 374.964844 225.542969 369.644531 225.542969 363.074219 L 225.542969 344.96875 Z M 203.261719 344.96875 " fill-opacity="1" fill-rule="nonzero"/><path fill="#4f6d8f" d="M 219.609375 293.992188 C 219.609375 287.714844 214.523438 282.625 208.25 282.625 L 132.90625 282.625 C 126.632812 282.625 121.546875 287.714844 121.546875 293.992188 C 121.546875 297.046875 122.75 299.816406 124.703125 301.859375 C 126.574219 303.808594 126.574219 306.914062 124.703125 308.867188 C 122.75 310.90625 121.546875 313.675781 121.546875 316.730469 C 121.546875 319.78125 122.75 322.550781 124.703125 324.59375 C 126.574219 326.546875 126.574219 329.648438 124.703125 331.601562 C 122.75 333.640625 121.546875 336.410156 121.546875 339.464844 C 121.546875 345.742188 126.632812 350.832031 132.90625 350.832031 L 208.25 350.832031 C 214.523438 350.832031 219.609375 345.742188 219.609375 339.464844 C 219.609375 333.1875 214.523438 328.097656 208.25 328.097656 C 214.523438 328.097656 219.609375 323.007812 219.609375 316.730469 C 219.609375 310.449219 214.523438 305.363281 208.25 305.363281 C 214.523438 305.363281 219.609375 300.273438 219.609375 293.992188 Z M 219.609375 293.992188 " fill-opacity="1" fill-rule="nonzero"/><path fill="#334f6d" d="M 233.742188 301.863281 C 235.820312 299.699219 237.046875 296.714844 236.890625 293.445312 C 236.605469 287.332031 231.339844 282.628906 225.222656 282.628906 L 203.261719 282.628906 C 209.535156 282.628906 214.621094 287.71875 214.621094 293.996094 C 214.621094 297.046875 213.421875 299.816406 211.464844 301.859375 C 209.597656 303.8125 209.597656 306.914062 211.464844 308.867188 C 213.421875 310.90625 214.621094 313.679688 214.621094 316.730469 C 214.621094 319.78125 213.421875 322.550781 211.464844 324.59375 C 209.597656 326.546875 209.597656 329.648438 211.464844 331.601562 C 213.421875 333.640625 214.621094 336.414062 214.621094 339.464844 C 214.621094 345.742188 209.535156 350.832031 203.261719 350.832031 L 225.542969 350.832031 C 231.820312 350.832031 236.90625 345.742188 236.90625 339.464844 C 236.90625 336.414062 235.703125 333.640625 233.75 331.601562 C 231.878906 329.648438 231.878906 326.546875 233.75 324.59375 C 235.703125 322.550781 236.90625 319.78125 236.90625 316.730469 C 236.90625 313.714844 235.730469 310.972656 233.816406 308.9375 C 231.953125 306.957031 231.863281 303.824219 233.742188 301.863281 Z M 233.742188 301.863281 " fill-opacity="1" fill-rule="nonzero"/></svg>