<svg xmlns="http://www.w3.org/2000/svg" xmlns:xlink="http://www.w3.org/1999/xlink" width="500" zoomAndPan="magnify" viewBox="0 0 375 374.999991" height="500" preserveAspectRatio="xMidYMid meet" version="1.0"><defs><clipPath id="a25e33802b"><path d="M 25 17 L 333 17 L 333 374.929688 L 25 374.929688 Z M 25 17 " clip-rule="nonzero"/></clipPath><clipPath id="bbd75a4be0"><path d="M 109 0.679688 L 352 0.679688 L 352 237 L 109 237 Z M 109 0.679688 " clip-rule="nonzero"/></clipPath></defs><g clip-path="url(#a25e33802b)"><path fill="#f4bfa8" d="M 307.289062 374.929688 L 129.921875 374.929688 C 128.605469 374.929688 127.070312 374.050781 126.414062 372.953125 C 125.539062 371.859375 125.316406 370.324219 125.757812 369.007812 C 131.019531 354.539062 133.648438 334.367188 126.414062 324.28125 C 123.34375 319.898438 118.742188 317.703125 111.945312 317.703125 C 111.066406 317.703125 110.191406 317.703125 109.09375 317.703125 C 102.734375 318.363281 97.035156 318.582031 91.773438 318.582031 C 71.601562 318.582031 59.105469 314.417969 53.625 306.085938 C 49.898438 300.382812 49.898438 292.929688 53.625 284.820312 C 54.722656 282.1875 51.652344 277.800781 48.800781 273.417969 C 44.199219 266.839844 37.183594 256.535156 46.828125 247.984375 C 50.335938 244.695312 50.554688 239.214844 49.460938 235.269531 C 48.582031 231.761719 46.609375 229.789062 45.292969 229.570312 C 34.769531 227.375 27.972656 222.332031 26.21875 215.316406 C 24.246094 208.519531 27.535156 200.847656 35.429688 194.050781 C 52.308594 178.921875 56.914062 152.613281 58.667969 134.199219 C 59.324219 128.9375 59.765625 123.894531 60.203125 118.851562 C 60.203125 116.878906 60.421875 114.902344 60.640625 112.929688 C 63.492188 79.824219 82.347656 52.199219 113.917969 34.878906 C 115.015625 34.441406 116.328125 34.222656 117.425781 34.660156 C 118.742188 35.097656 119.617188 35.757812 120.054688 37.074219 C 122.46875 42.113281 127.730469 45.621094 133.429688 45.621094 C 141.542969 45.621094 148.121094 39.046875 148.121094 30.933594 C 148.121094 29.398438 147.898438 28.082031 147.460938 26.769531 C 147.242188 25.671875 147.242188 24.355469 147.898438 23.261719 C 148.558594 22.164062 149.65625 21.507812 150.75 21.285156 C 162.589844 18.65625 174.867188 17.121094 187.144531 17.121094 C 190.652344 17.121094 194.160156 17.339844 197.449219 17.558594 C 198.765625 17.558594 199.859375 18.21875 200.519531 19.09375 C 201.394531 19.972656 201.613281 21.285156 201.613281 22.382812 C 201.394531 23.039062 201.394531 23.480469 201.394531 24.136719 C 201.394531 32.25 207.972656 38.828125 216.085938 38.828125 C 222.882812 38.828125 228.800781 34.222656 230.335938 27.644531 C 230.554688 26.328125 231.433594 25.453125 232.527344 24.792969 C 233.40625 24.136719 234.722656 24.136719 235.816406 24.355469 C 252.261719 29.398438 266.949219 36.851562 280.105469 46.5 C 280.980469 47.15625 281.640625 48.253906 281.640625 49.570312 C 281.859375 50.664062 281.421875 51.980469 280.761719 52.859375 C 278.351562 55.488281 277.253906 58.996094 277.253906 62.503906 C 277.253906 70.617188 283.613281 77.195312 291.726562 77.195312 C 295.234375 77.195312 298.742188 75.878906 301.371094 73.6875 C 302.25 72.808594 303.5625 72.371094 304.660156 72.589844 C 305.976562 72.808594 307.070312 73.46875 307.730469 74.34375 C 317.15625 87.28125 324.171875 102.1875 328.777344 118.410156 C 329.214844 119.507812 328.996094 120.824219 328.339844 121.917969 C 327.679688 123.015625 326.585938 123.675781 325.269531 123.894531 C 318.472656 125.207031 313.429688 131.128906 313.429688 138.363281 C 313.429688 146.257812 319.789062 152.832031 327.679688 153.050781 C 328.996094 153.050781 330.09375 153.492188 330.96875 154.367188 C 331.847656 155.246094 332.285156 156.558594 332.066406 157.875 C 330.96875 169.277344 328.121094 181.773438 323.734375 196.023438 C 323.515625 197.339844 322.636719 198.21875 321.542969 198.65625 C 320.445312 199.3125 319.347656 199.3125 318.253906 198.875 C 316.71875 198.4375 314.964844 198.21875 313.429688 198.21875 C 305.316406 198.21875 298.742188 204.792969 298.742188 212.90625 C 298.742188 218.824219 302.46875 224.308594 308.167969 226.5 C 309.265625 226.9375 310.140625 227.816406 310.578125 228.910156 C 311.019531 230.007812 311.019531 231.105469 310.578125 232.199219 C 308.605469 237.023438 306.632812 241.847656 304.878906 246.449219 C 300.273438 257.632812 295.890625 268.15625 292.382812 278.023438 C 283.832031 302.359375 294.792969 345.328125 310.578125 367.691406 C 311.238281 368.351562 311.675781 369.445312 311.675781 370.542969 C 311.675781 372.953125 309.703125 374.929688 307.289062 374.929688 Z M 307.289062 374.929688 " fill-opacity="1" fill-rule="evenodd"/></g><path fill="#003333" d="M 295.890625 209.835938 C 295.453125 209.835938 294.792969 209.617188 294.136719 209.398438 L 260.371094 194.929688 C 258.179688 194.050781 257.085938 191.421875 258.179688 189.226562 C 259.058594 187.035156 261.6875 185.9375 263.878906 186.816406 L 297.644531 201.285156 C 299.835938 202.382812 300.933594 204.792969 300.054688 206.988281 C 299.179688 208.742188 297.644531 209.835938 295.890625 209.835938 Z M 266.730469 149.542969 C 264.539062 149.542969 262.785156 147.789062 262.566406 145.597656 C 262.125 143.1875 263.878906 140.996094 266.292969 140.773438 L 308.605469 135.953125 C 311.019531 135.730469 313.210938 137.484375 313.429688 139.898438 C 313.648438 142.308594 311.894531 144.503906 309.484375 144.722656 L 267.386719 149.542969 C 267.167969 149.542969 266.949219 149.542969 266.730469 149.542969 Z M 239.324219 101.3125 C 238.011719 101.3125 236.695312 100.652344 235.816406 99.335938 C 234.5 97.363281 234.941406 94.734375 236.914062 93.417969 L 273.527344 69.300781 C 275.5 67.984375 278.132812 68.425781 279.667969 70.617188 C 280.980469 72.589844 280.324219 75.222656 278.351562 76.535156 L 241.738281 100.652344 C 241.078125 101.089844 240.203125 101.3125 239.324219 101.3125 Z M 159.957031 87.9375 C 158.203125 87.9375 156.671875 87.058594 156.011719 85.523438 L 138.035156 49.789062 C 136.9375 47.816406 137.816406 45.183594 140.007812 44.089844 C 142.199219 42.992188 144.832031 43.867188 145.925781 45.84375 L 163.90625 81.578125 C 165 83.550781 164.125 86.183594 161.933594 87.28125 C 161.273438 87.71875 160.617188 87.9375 159.957031 87.9375 Z M 209.507812 85.523438 C 209.289062 85.523438 209.070312 85.523438 208.851562 85.523438 C 206.4375 85.304688 204.683594 83.113281 205.125 80.703125 L 209.507812 42.554688 C 209.726562 40.140625 211.917969 38.386719 214.332031 38.605469 C 216.742188 39.046875 218.496094 41.019531 218.277344 43.429688 L 213.671875 81.796875 C 213.453125 83.992188 211.699219 85.523438 209.507812 85.523438 Z M 209.507812 85.523438 " fill-opacity="1" fill-rule="evenodd"/><g clip-path="url(#bbd75a4be0)"><path fill="#f05540" d="M 313.429688 236.367188 C 300.496094 236.367188 289.96875 225.839844 289.96875 212.90625 C 289.96875 199.972656 300.496094 189.445312 313.429688 189.445312 C 326.363281 189.445312 336.890625 199.972656 336.890625 212.90625 C 336.890625 225.839844 326.363281 236.367188 313.429688 236.367188 Z M 133.429688 54.394531 C 120.496094 54.394531 109.972656 43.867188 109.972656 30.933594 C 109.972656 18 120.496094 7.472656 133.429688 7.472656 C 146.367188 7.472656 156.890625 18 156.890625 30.933594 C 156.890625 43.867188 146.367188 54.394531 133.429688 54.394531 Z M 216.085938 47.597656 C 203.148438 47.597656 192.625 37.074219 192.625 24.136719 C 192.625 11.203125 203.148438 0.679688 216.085938 0.679688 C 229.019531 0.679688 239.542969 11.203125 239.542969 24.136719 C 239.542969 37.074219 229.019531 47.597656 216.085938 47.597656 Z M 291.726562 85.964844 C 278.789062 85.964844 268.484375 75.441406 268.484375 62.503906 C 268.484375 49.570312 278.789062 39.046875 291.726562 39.046875 C 304.660156 39.046875 315.183594 49.570312 315.183594 62.503906 C 315.183594 75.441406 304.660156 85.964844 291.726562 85.964844 Z M 328.121094 161.824219 C 315.183594 161.824219 304.660156 151.296875 304.660156 138.363281 C 304.660156 125.429688 315.183594 114.902344 328.121094 114.902344 C 340.835938 114.902344 351.359375 125.429688 351.359375 138.363281 C 351.359375 151.296875 340.835938 161.824219 328.121094 161.824219 Z M 328.121094 161.824219 " fill-opacity="1" fill-rule="evenodd"/></g><path fill="#ffd166" d="M 223.101562 267.5 L 153.164062 267.5 C 150.75 267.5 148.777344 265.523438 148.777344 263.113281 C 148.777344 232.636719 138.691406 223.867188 128.167969 214.660156 C 116.769531 204.792969 104.050781 193.613281 104.050781 158.09375 C 104.050781 111.617188 141.761719 73.90625 188.023438 73.90625 C 234.5 73.90625 272.210938 111.617188 272.210938 158.09375 C 272.210938 193.613281 259.496094 204.792969 248.09375 214.660156 C 237.570312 223.867188 227.484375 232.636719 227.484375 263.113281 C 227.484375 265.523438 225.511719 267.5 223.101562 267.5 Z M 223.101562 267.5 " fill-opacity="1" fill-rule="evenodd"/><path fill="#c2a35e" d="M 188.023438 267.5 C 185.609375 267.5 183.636719 265.523438 183.636719 263.113281 L 183.636719 203.480469 C 183.636719 201.066406 185.609375 199.09375 188.023438 199.09375 C 190.652344 199.09375 192.40625 201.066406 192.40625 203.480469 L 192.40625 263.113281 C 192.40625 265.523438 190.652344 267.5 188.023438 267.5 Z M 188.023438 267.5 " fill-opacity="1" fill-rule="evenodd"/><path fill="#c2a35e" d="M 188.023438 207.863281 C 186.488281 207.863281 185.171875 206.988281 184.296875 205.671875 L 173.550781 187.035156 C 172.457031 185.0625 173.113281 182.210938 175.085938 181.117188 C 177.277344 179.800781 179.910156 180.675781 181.226562 182.652344 L 188.023438 194.710938 L 195.039062 182.652344 C 196.351562 180.675781 198.984375 179.800781 201.175781 181.117188 C 203.148438 182.210938 203.808594 185.0625 202.710938 187.035156 L 191.96875 205.671875 C 191.089844 206.988281 189.777344 207.863281 188.023438 207.863281 Z M 188.023438 207.863281 " fill-opacity="1" fill-rule="evenodd"/><path fill="#f52626" d="M 223.757812 284.820312 L 152.503906 284.820312 C 148.777344 284.820312 145.707031 281.75 145.707031 277.800781 L 145.707031 265.746094 C 145.707031 261.796875 148.777344 258.726562 152.503906 258.726562 L 223.757812 258.726562 C 227.484375 258.726562 230.554688 261.796875 230.554688 265.746094 L 230.554688 277.800781 C 230.554688 281.75 227.484375 284.820312 223.757812 284.820312 Z M 223.757812 284.820312 " fill-opacity="1" fill-rule="evenodd"/></svg>