<svg xmlns="http://www.w3.org/2000/svg" xmlns:xlink="http://www.w3.org/1999/xlink" width="500" zoomAndPan="magnify" viewBox="0 0 375 374.999991" height="500" preserveAspectRatio="xMidYMid meet" version="1.0"><path fill="#004aad" d="M 187.492188 233.167969 C 170.640625 233.167969 151.101562 236.226562 136.058594 244.25 C 117.335938 254.222656 117.335938 262.832031 136.058594 272.828125 C 151.101562 280.84375 170.640625 283.886719 187.492188 283.886719 C 204.34375 283.886719 223.878906 280.851562 238.925781 272.828125 C 257.648438 262.832031 257.648438 254.230469 238.925781 244.25 C 223.871094 236.226562 204.34375 233.167969 187.492188 233.167969 Z M 187.492188 211.4375 C 156.179688 211.4375 119.910156 217.117188 91.988281 232.007812 C 57.214844 250.5625 57.214844 266.523438 91.988281 285.070312 C 119.910156 299.960938 156.179688 305.632812 187.492188 305.632812 C 218.800781 305.632812 255.074219 299.953125 282.996094 285.070312 C 317.769531 266.515625 317.769531 250.554688 282.996094 232.007812 C 255.074219 217.117188 218.800781 211.4375 187.492188 211.4375 Z M 187.492188 172.808594 C 276.292969 172.808594 348.261719 211.175781 348.261719 258.519531 C 348.261719 305.863281 276.285156 344.253906 187.492188 344.253906 C 98.6875 344.253906 26.71875 305.863281 26.71875 258.519531 C 26.71875 211.175781 98.6875 172.808594 187.492188 172.808594 Z M 187.492188 172.808594 " fill-opacity="1" fill-rule="evenodd"/><path fill="#00305c" d="M 187.492188 233.167969 C 184.992188 233.167969 182.445312 233.234375 179.875 233.382812 C 194.777344 234.199219 210.863281 237.421875 223.664062 244.25 C 242.386719 254.222656 242.386719 262.832031 223.664062 272.828125 C 210.863281 279.65625 194.777344 282.878906 179.875 283.695312 C 182.445312 283.835938 184.992188 283.886719 187.492188 283.886719 C 204.34375 283.886719 223.878906 280.851562 238.925781 272.828125 C 257.648438 262.832031 257.648438 254.230469 238.925781 244.25 C 223.871094 236.226562 204.34375 233.167969 187.492188 233.167969 Z M 179.875 211.554688 C 150.410156 212.417969 117.667969 218.304688 91.988281 232 C 57.214844 250.554688 57.214844 266.515625 91.988281 285.0625 C 117.667969 298.757812 150.410156 304.644531 179.875 305.507812 C 177.300781 305.574219 174.753906 305.625 172.230469 305.625 C 140.921875 305.625 104.648438 299.945312 76.726562 285.0625 C 41.953125 266.507812 41.953125 250.546875 76.726562 232 C 104.648438 217.109375 140.921875 211.429688 172.230469 211.429688 C 174.753906 211.4375 177.300781 211.480469 179.875 211.554688 Z M 187.492188 172.808594 C 276.292969 172.808594 348.261719 211.175781 348.261719 258.519531 C 348.261719 305.863281 276.285156 344.253906 187.492188 344.253906 C 184.945312 344.253906 182.398438 344.203125 179.875 344.164062 C 265.125 342.046875 333.003906 304.511719 333.003906 258.527344 C 333.003906 212.558594 265.117188 175.035156 179.875 172.90625 C 182.398438 172.832031 184.945312 172.808594 187.492188 172.808594 Z M 187.492188 172.808594 " fill-opacity="1" fill-rule="evenodd"/><path fill="#fdd44f" d="M 21.691406 241.4375 L 74.320312 247.183594 C 90 248.445312 90 268.609375 74.320312 269.855469 L 21.691406 275.601562 C 0.0273438 275.609375 0.0273438 241.4375 21.691406 241.4375 Z M 21.691406 241.4375 " fill-opacity="1" fill-rule="evenodd"/><path fill="#5ea5da" d="M 21.691406 241.4375 L 74.320312 247.183594 C 84.980469 248.050781 88.382812 257.628906 84.558594 264.074219 C 82.761719 261.03125 79.347656 258.699219 74.320312 258.304688 L 21.691406 252.558594 C 13.257812 252.558594 8.113281 257.742188 6.242188 264.074219 C 3.324219 254.175781 8.492188 241.4375 21.691406 241.4375 Z M 21.691406 241.4375 " fill-opacity="1" fill-rule="evenodd"/><path fill="#fdd44f" d="M 353.265625 241.4375 L 300.664062 247.183594 C 284.984375 248.445312 284.984375 268.609375 300.664062 269.855469 L 353.265625 275.601562 C 374.949219 275.609375 374.949219 241.4375 353.265625 241.4375 Z M 353.265625 241.4375 " fill-opacity="1" fill-rule="evenodd"/><path fill="#5ea5da" d="M 290.308594 253.167969 C 286.664062 259.613281 290.121094 269.011719 300.664062 269.855469 L 353.265625 275.601562 C 366.398438 275.601562 371.585938 263.050781 368.78125 253.167969 C 366.984375 259.597656 361.816406 264.898438 353.265625 264.898438 L 300.664062 259.152344 C 295.519531 258.734375 292.089844 256.300781 290.308594 253.167969 Z M 290.308594 253.167969 " fill-opacity="1" fill-rule="evenodd"/><path fill="#fdd44f" d="M 204.574219 350.429688 L 198.828125 302.613281 C 197.589844 288.410156 177.402344 288.410156 176.15625 302.613281 L 170.410156 350.429688 C 170.410156 370.105469 204.574219 370.105469 204.574219 350.429688 Z M 204.574219 350.429688 " fill-opacity="1" fill-rule="evenodd"/><path fill="#5ea5da" d="M 193.054688 293.339844 C 186.609375 289.863281 177.003906 292.945312 176.164062 302.613281 L 170.417969 350.429688 C 170.417969 362.441406 183.15625 367.113281 193.066406 364.476562 C 186.734375 362.769531 181.539062 358.097656 181.539062 350.429688 L 187.285156 302.613281 C 187.679688 298.089844 190.015625 294.980469 193.054688 293.339844 Z M 193.054688 293.339844 " fill-opacity="1" fill-rule="evenodd"/><path fill="#fdd44f" d="M 187.492188 -0.0234375 C 248.859375 -0.0234375 298.609375 49.726562 298.609375 111.09375 C 298.609375 160.351562 266.550781 202.113281 222.171875 216.671875 C 213.082031 235.625 202.007812 251.230469 191.375 262.640625 C 188.875 265.304688 186.113281 265.304688 183.617188 262.640625 C 172.984375 251.238281 161.910156 235.625 152.816406 216.671875 C 108.441406 202.113281 76.382812 160.359375 76.382812 111.09375 C 76.371094 49.726562 126.125 -0.0234375 187.492188 -0.0234375 Z M 187.492188 63.890625 C 213.550781 63.890625 234.695312 85.019531 234.695312 111.09375 C 234.695312 137.152344 213.550781 158.296875 187.492188 158.296875 C 161.417969 158.296875 140.289062 137.152344 140.289062 111.09375 C 140.289062 85.011719 161.410156 63.890625 187.492188 63.890625 Z M 187.492188 63.890625 " fill-opacity="1" fill-rule="evenodd"/><path fill="#fdd44f" d="M 187.492188 -0.0234375 C 248.859375 -0.0234375 298.609375 49.726562 298.609375 111.09375 C 298.609375 160.351562 266.550781 202.113281 222.171875 216.671875 C 213.082031 235.625 202.007812 251.230469 191.375 262.640625 C 188.875 265.304688 186.113281 265.304688 183.617188 262.640625 C 172.984375 251.238281 161.910156 235.625 152.816406 216.671875 C 108.441406 202.113281 76.382812 160.359375 76.382812 111.09375 C 76.371094 49.726562 126.125 -0.0234375 187.492188 -0.0234375 Z M 187.492188 63.890625 C 213.550781 63.890625 234.695312 85.019531 234.695312 111.09375 C 234.695312 137.152344 213.550781 158.296875 187.492188 158.296875 C 161.417969 158.296875 140.289062 137.152344 140.289062 111.09375 C 140.289062 85.011719 161.410156 63.890625 187.492188 63.890625 Z M 187.492188 63.890625 " fill-opacity="1" fill-rule="evenodd"/><path fill="#5ea5da" d="M 187.492188 -0.0234375 C 248.859375 -0.0234375 298.609375 49.726562 298.609375 111.09375 C 298.609375 160.351562 266.550781 202.113281 222.171875 216.671875 C 213.082031 235.625 202.007812 251.230469 191.375 262.640625 C 188.875 265.304688 186.113281 265.304688 183.617188 262.640625 C 182.378906 261.304688 181.121094 259.902344 179.875 258.460938 C 189.3125 247.546875 198.894531 233.40625 206.914062 216.679688 C 251.289062 202.121094 283.351562 160.367188 283.351562 111.101562 C 283.351562 52.308594 237.664062 4.171875 179.875 0.238281 C 182.398438 0.0664062 184.917969 -0.0234375 187.492188 -0.0234375 Z M 187.492188 -0.0234375 " fill-opacity="1" fill-rule="evenodd"/><path fill="#ffffff" d="M 142.644531 42.109375 C 149.332031 37.574219 142.4375 27.386719 135.730469 31.921875 C 118.484375 39.167969 103.246094 60.335938 99.949219 78.5625 C 97.3125 86.253906 108.992188 90.246094 111.632812 82.5625 C 115.144531 65.035156 128.085938 47.550781 142.644531 42.109375 Z M 142.644531 42.109375 " fill-opacity="1" fill-rule="nonzero"/></svg>