<svg xmlns="http://www.w3.org/2000/svg" xmlns:xlink="http://www.w3.org/1999/xlink" width="500" zoomAndPan="magnify" viewBox="0 0 375 374.999991" height="500" preserveAspectRatio="xMidYMid meet" version="1.0"><path fill="#004aad" d="M 184.324219 109.019531 L 104.925781 157.878906 C 104.339844 158.207031 103.820312 158.621094 103.371094 159.121094 C 102.921875 159.621094 102.5625 160.183594 102.296875 160.800781 C 102.035156 161.417969 101.875 162.0625 101.824219 162.734375 C 101.769531 163.40625 101.828125 164.066406 101.996094 164.71875 C 102.179688 165.378906 102.46875 165.992188 102.859375 166.554688 C 103.25 167.117188 103.722656 167.601562 104.277344 168.007812 C 104.828125 168.410156 105.433594 168.714844 106.089844 168.914062 C 106.746094 169.113281 107.417969 169.203125 108.101562 169.175781 L 126.425781 169.175781 L 126.425781 230.253906 L 114.210938 230.253906 C 113.808594 230.253906 113.410156 230.292969 113.019531 230.371094 C 112.625 230.449219 112.242188 230.5625 111.871094 230.71875 C 111.503906 230.871094 111.148438 231.058594 110.816406 231.28125 C 110.484375 231.503906 110.175781 231.757812 109.890625 232.042969 C 109.609375 232.324219 109.355469 232.632812 109.132812 232.964844 C 108.910156 233.300781 108.722656 233.652344 108.566406 234.023438 C 108.414062 234.394531 108.296875 234.773438 108.21875 235.167969 C 108.140625 235.5625 108.101562 235.957031 108.101562 236.359375 L 108.101562 260.789062 C 108.101562 261.191406 108.140625 261.589844 108.21875 261.980469 C 108.296875 262.375 108.414062 262.757812 108.566406 263.128906 C 108.722656 263.496094 108.910156 263.847656 109.132812 264.183594 C 109.355469 264.515625 109.609375 264.824219 109.890625 265.109375 C 110.175781 265.390625 110.484375 265.644531 110.816406 265.867188 C 111.148438 266.089844 111.503906 266.277344 111.871094 266.433594 C 112.242188 266.585938 112.625 266.703125 113.019531 266.78125 C 113.410156 266.859375 113.808594 266.898438 114.210938 266.898438 L 260.789062 266.898438 C 261.191406 266.898438 261.589844 266.859375 261.980469 266.78125 C 262.375 266.703125 262.757812 266.585938 263.128906 266.433594 C 263.496094 266.277344 263.847656 266.089844 264.183594 265.867188 C 264.515625 265.644531 264.824219 265.390625 265.109375 265.109375 C 265.390625 264.824219 265.644531 264.515625 265.867188 264.183594 C 266.089844 263.847656 266.277344 263.496094 266.433594 263.128906 C 266.585938 262.757812 266.703125 262.375 266.78125 261.980469 C 266.859375 261.589844 266.898438 261.191406 266.898438 260.789062 L 266.898438 236.359375 C 266.898438 235.957031 266.859375 235.5625 266.78125 235.167969 C 266.703125 234.773438 266.585938 234.394531 266.433594 234.023438 C 266.277344 233.652344 266.089844 233.300781 265.867188 232.964844 C 265.644531 232.632812 265.390625 232.324219 265.109375 232.042969 C 264.824219 231.757812 264.515625 231.503906 264.183594 231.28125 C 263.847656 231.058594 263.496094 230.871094 263.128906 230.71875 C 262.757812 230.5625 262.375 230.449219 261.980469 230.371094 C 261.589844 230.292969 261.191406 230.253906 260.789062 230.253906 L 248.574219 230.253906 L 248.574219 169.175781 L 266.898438 169.175781 C 267.582031 169.203125 268.253906 169.113281 268.910156 168.914062 C 269.566406 168.714844 270.171875 168.410156 270.722656 168.007812 C 271.277344 167.601562 271.75 167.117188 272.140625 166.554688 C 272.53125 165.992188 272.820312 165.378906 273.003906 164.71875 C 273.183594 164.082031 273.253906 163.429688 273.21875 162.769531 C 273.1875 162.105469 273.046875 161.464844 272.804688 160.847656 C 272.5625 160.230469 272.230469 159.667969 271.804688 159.160156 C 271.378906 158.652344 270.882812 158.226562 270.316406 157.878906 L 190.921875 109.019531 C 190.429688 108.703125 189.902344 108.464844 189.339844 108.296875 C 188.78125 108.132812 188.207031 108.050781 187.621094 108.050781 C 187.039062 108.050781 186.464844 108.132812 185.902344 108.296875 C 185.34375 108.464844 184.816406 108.703125 184.324219 109.019531 Z M 138.640625 169.175781 L 163.070312 169.175781 L 163.070312 230.253906 L 138.640625 230.253906 Z M 175.285156 230.253906 L 175.285156 169.175781 L 199.714844 169.175781 L 199.714844 230.253906 Z M 254.683594 254.683594 L 120.316406 254.683594 L 120.316406 242.46875 L 254.683594 242.46875 Z M 236.359375 230.253906 L 211.929688 230.253906 L 211.929688 169.175781 L 236.359375 169.175781 Z M 129.660156 156.960938 L 187.5 121.355469 L 245.339844 156.960938 Z M 129.660156 156.960938 " fill-opacity="1" fill-rule="nonzero"/><path fill="#004aad" d="M 327.972656 4.273438 C 326.003906 4.28125 324.042969 4.417969 322.089844 4.695312 C 320.140625 4.96875 318.214844 5.378906 316.320312 5.917969 C 314.425781 6.460938 312.578125 7.128906 310.777344 7.925781 C 308.976562 8.722656 307.238281 9.640625 305.5625 10.675781 C 303.886719 11.714844 302.289062 12.859375 300.773438 14.117188 C 299.257812 15.375 297.832031 16.730469 296.503906 18.1875 C 295.175781 19.640625 293.953125 21.179688 292.835938 22.804688 C 291.71875 24.425781 290.71875 26.117188 289.839844 27.878906 C 288.957031 29.640625 288.199219 31.457031 287.566406 33.324219 C 286.9375 35.1875 286.433594 37.089844 286.066406 39.023438 C 285.699219 40.960938 285.464844 42.914062 285.363281 44.878906 C 285.265625 46.847656 285.304688 48.8125 285.476562 50.777344 C 285.648438 52.738281 285.957031 54.679688 286.398438 56.601562 C 286.835938 58.519531 287.410156 60.402344 288.109375 62.242188 C 288.8125 64.082031 289.636719 65.867188 290.582031 67.59375 C 291.53125 69.324219 292.59375 70.976562 293.769531 72.558594 L 273.617188 92.710938 C 272.164062 91.382812 270.679688 90.085938 269.167969 88.824219 C 267.652344 87.5625 266.113281 86.335938 264.542969 85.144531 C 262.972656 83.957031 261.375 82.804688 259.753906 81.6875 C 258.128906 80.570312 256.480469 79.492188 254.808594 78.453125 C 253.136719 77.414062 251.4375 76.414062 249.71875 75.453125 C 248 74.492188 246.257812 73.570312 244.496094 72.691406 C 242.734375 71.808594 240.953125 70.96875 239.152344 70.171875 C 237.351562 69.375 235.53125 68.617188 233.695312 67.90625 C 231.859375 67.191406 230.007812 66.519531 228.140625 65.894531 C 226.273438 65.265625 224.390625 64.679688 222.496094 64.140625 C 220.605469 63.597656 218.699219 63.101562 216.78125 62.652344 C 214.863281 62.199219 212.9375 61.789062 211 61.425781 C 209.0625 61.066406 207.121094 60.746094 205.167969 60.472656 C 203.21875 60.199219 201.261719 59.972656 199.300781 59.789062 C 197.339844 59.609375 195.375 59.472656 193.40625 59.378906 C 191.4375 59.289062 189.46875 59.242188 187.5 59.242188 C 185.53125 59.242188 183.5625 59.289062 181.59375 59.378906 C 179.625 59.472656 177.660156 59.609375 175.699219 59.789062 C 173.738281 59.972656 171.78125 60.199219 169.832031 60.472656 C 167.878906 60.746094 165.9375 61.066406 164 61.425781 C 162.0625 61.789062 160.136719 62.199219 158.21875 62.652344 C 156.300781 63.101562 154.394531 63.597656 152.503906 64.140625 C 150.609375 64.679688 148.726562 65.265625 146.859375 65.894531 C 144.992188 66.519531 143.140625 67.191406 141.304688 67.90625 C 139.46875 68.617188 137.648438 69.375 135.847656 70.171875 C 134.046875 70.96875 132.265625 71.808594 130.503906 72.691406 C 128.742188 73.570312 127 74.492188 125.28125 75.453125 C 123.5625 76.414062 121.863281 77.414062 120.191406 78.453125 C 118.519531 79.492188 116.871094 80.570312 115.246094 81.6875 C 113.625 82.804688 112.027344 83.957031 110.457031 85.144531 C 108.886719 86.335938 107.347656 87.5625 105.832031 88.824219 C 104.320312 90.085938 102.835938 91.382812 101.382812 92.710938 L 81.230469 72.558594 C 81.761719 71.84375 82.273438 71.113281 82.757812 70.371094 C 83.246094 69.625 83.710938 68.863281 84.148438 68.089844 C 84.589844 67.316406 85.003906 66.527344 85.394531 65.730469 C 85.785156 64.929688 86.152344 64.117188 86.492188 63.292969 C 86.832031 62.472656 87.144531 61.640625 87.433594 60.796875 C 87.71875 59.953125 87.980469 59.105469 88.214844 58.246094 C 88.449219 57.386719 88.65625 56.519531 88.839844 55.648438 C 89.019531 54.777344 89.171875 53.902344 89.296875 53.019531 C 89.425781 52.136719 89.523438 51.253906 89.59375 50.367188 C 89.664062 49.480469 89.707031 48.589844 89.722656 47.699219 C 89.738281 46.808594 89.722656 45.921875 89.683594 45.03125 C 89.644531 44.140625 89.574219 43.253906 89.480469 42.367188 C 89.382812 41.484375 89.257812 40.601562 89.109375 39.726562 C 88.957031 38.847656 88.78125 37.976562 88.574219 37.109375 C 88.367188 36.242188 88.136719 35.382812 87.878906 34.53125 C 87.617188 33.679688 87.332031 32.839844 87.019531 32.003906 C 86.710938 31.171875 86.371094 30.347656 86.007812 29.535156 C 85.644531 28.722656 85.257812 27.921875 84.84375 27.132812 C 84.429688 26.34375 83.992188 25.570312 83.53125 24.808594 C 83.070312 24.046875 82.585938 23.300781 82.078125 22.570312 C 81.570312 21.839844 81.039062 21.125 80.484375 20.425781 C 79.933594 19.726562 79.359375 19.046875 78.761719 18.386719 C 78.167969 17.726562 77.550781 17.082031 76.917969 16.457031 C 76.28125 15.835938 75.628906 15.230469 74.953125 14.648438 C 74.28125 14.066406 73.589844 13.503906 72.882812 12.964844 C 72.171875 12.425781 71.449219 11.910156 70.707031 11.414062 C 69.96875 10.921875 69.214844 10.449219 68.441406 10.003906 C 67.671875 9.558594 66.890625 9.132812 66.09375 8.734375 C 65.296875 8.339844 64.488281 7.964844 63.671875 7.617188 C 62.851562 7.269531 62.019531 6.949219 61.179688 6.652344 C 60.339844 6.355469 59.492188 6.085938 58.636719 5.84375 C 57.78125 5.601562 56.917969 5.386719 56.046875 5.195312 C 55.175781 5.007812 54.300781 4.847656 53.421875 4.710938 C 52.542969 4.578125 51.660156 4.472656 50.773438 4.390625 C 49.886719 4.3125 48.996094 4.261719 48.105469 4.238281 C 47.21875 4.214844 46.328125 4.21875 45.4375 4.25 C 44.546875 4.28125 43.660156 4.34375 42.773438 4.429688 C 41.886719 4.515625 41.003906 4.632812 40.125 4.773438 C 39.246094 4.917969 38.375 5.085938 37.507812 5.285156 C 36.636719 5.480469 35.777344 5.707031 34.921875 5.957031 C 34.070312 6.207031 33.222656 6.484375 32.386719 6.789062 C 31.550781 7.09375 30.722656 7.421875 29.90625 7.777344 C 29.089844 8.132812 28.285156 8.515625 27.492188 8.917969 C 26.703125 9.324219 25.921875 9.753906 25.15625 10.210938 C 24.390625 10.664062 23.640625 11.140625 22.90625 11.644531 C 22.167969 12.144531 21.449219 12.667969 20.746094 13.214844 C 20.042969 13.761719 19.359375 14.328125 18.691406 14.917969 C 18.023438 15.507812 17.375 16.117188 16.746094 16.746094 C 16.117188 17.375 15.507812 18.023438 14.917969 18.691406 C 14.328125 19.359375 13.761719 20.042969 13.214844 20.746094 C 12.667969 21.449219 12.144531 22.167969 11.644531 22.90625 C 11.140625 23.640625 10.664062 24.390625 10.210938 25.15625 C 9.753906 25.921875 9.324219 26.703125 8.917969 27.492188 C 8.515625 28.285156 8.132812 29.089844 7.777344 29.90625 C 7.421875 30.722656 7.09375 31.550781 6.789062 32.386719 C 6.484375 33.222656 6.207031 34.070312 5.957031 34.921875 C 5.707031 35.777344 5.480469 36.636719 5.285156 37.507812 C 5.085938 38.375 4.917969 39.246094 4.773438 40.125 C 4.632812 41.003906 4.515625 41.886719 4.429688 42.773438 C 4.34375 43.660156 4.28125 44.546875 4.25 45.4375 C 4.21875 46.328125 4.214844 47.21875 4.238281 48.105469 C 4.261719 48.996094 4.3125 49.886719 4.390625 50.773438 C 4.472656 51.660156 4.578125 52.542969 4.710938 53.421875 C 4.847656 54.300781 5.007812 55.175781 5.195312 56.046875 C 5.386719 56.917969 5.601562 57.78125 5.84375 58.636719 C 6.085938 59.492188 6.355469 60.339844 6.652344 61.179688 C 6.949219 62.019531 7.269531 62.851562 7.617188 63.671875 C 7.964844 64.488281 8.339844 65.296875 8.734375 66.09375 C 9.132812 66.890625 9.558594 67.671875 10.003906 68.441406 C 10.449219 69.214844 10.921875 69.96875 11.414062 70.707031 C 11.910156 71.449219 12.425781 72.171875 12.964844 72.882812 C 13.503906 73.589844 14.066406 74.28125 14.648438 74.953125 C 15.230469 75.628906 15.835938 76.28125 16.457031 76.917969 C 17.082031 77.550781 17.726562 78.167969 18.386719 78.761719 C 19.046875 79.359375 19.726562 79.933594 20.425781 80.484375 C 21.125 81.039062 21.839844 81.570312 22.570312 82.078125 C 23.300781 82.585938 24.046875 83.070312 24.808594 83.53125 C 25.570312 83.992188 26.34375 84.429688 27.132812 84.84375 C 27.921875 85.257812 28.722656 85.644531 29.535156 86.007812 C 30.347656 86.371094 31.171875 86.710938 32.003906 87.019531 C 32.839844 87.332031 33.679688 87.617188 34.53125 87.878906 C 35.382812 88.136719 36.242188 88.367188 37.109375 88.574219 C 37.976562 88.78125 38.847656 88.957031 39.726562 89.109375 C 40.601562 89.257812 41.484375 89.382812 42.367188 89.480469 C 43.253906 89.574219 44.140625 89.644531 45.03125 89.683594 C 45.921875 89.722656 46.808594 89.738281 47.699219 89.722656 C 48.589844 89.707031 49.480469 89.664062 50.367188 89.59375 C 51.253906 89.523438 52.136719 89.425781 53.019531 89.296875 C 53.902344 89.171875 54.777344 89.019531 55.648438 88.839844 C 56.519531 88.65625 57.386719 88.449219 58.246094 88.214844 C 59.105469 87.980469 59.953125 87.71875 60.796875 87.433594 C 61.640625 87.144531 62.472656 86.832031 63.292969 86.492188 C 64.117188 86.152344 64.929688 85.785156 65.730469 85.394531 C 66.527344 85.003906 67.316406 84.589844 68.089844 84.148438 C 68.863281 83.710938 69.625 83.246094 70.371094 82.757812 C 71.113281 82.273438 71.84375 81.761719 72.558594 81.230469 L 92.710938 101.382812 C 91.382812 102.835938 90.085938 104.320312 88.824219 105.832031 C 87.5625 107.347656 86.335938 108.886719 85.144531 110.457031 C 83.957031 112.027344 82.804688 113.625 81.6875 115.246094 C 80.570312 116.871094 79.492188 118.519531 78.453125 120.191406 C 77.414062 121.863281 76.414062 123.5625 75.453125 125.28125 C 74.492188 127 73.570312 128.742188 72.691406 130.503906 C 71.808594 132.265625 70.96875 134.046875 70.171875 135.847656 C 69.375 137.648438 68.617188 139.46875 67.90625 141.304688 C 67.191406 143.140625 66.519531 144.992188 65.894531 146.859375 C 65.265625 148.726562 64.679688 150.609375 64.140625 152.503906 C 63.597656 154.394531 63.101562 156.300781 62.652344 158.21875 C 62.199219 160.136719 61.789062 162.0625 61.425781 164 C 61.066406 165.9375 60.746094 167.878906 60.472656 169.832031 C 60.199219 171.78125 59.972656 173.738281 59.789062 175.699219 C 59.609375 177.660156 59.472656 179.625 59.378906 181.59375 C 59.289062 183.5625 59.242188 185.53125 59.242188 187.5 C 59.242188 189.46875 59.289062 191.4375 59.378906 193.40625 C 59.472656 195.375 59.609375 197.339844 59.789062 199.300781 C 59.972656 201.261719 60.199219 203.21875 60.472656 205.167969 C 60.746094 207.121094 61.066406 209.0625 61.425781 211 C 61.789062 212.9375 62.199219 214.863281 62.652344 216.78125 C 63.101562 218.699219 63.597656 220.601562 64.140625 222.496094 C 64.679688 224.390625 65.265625 226.273438 65.894531 228.140625 C 66.519531 230.007812 67.191406 231.859375 67.90625 233.695312 C 68.617188 235.53125 69.375 237.351562 70.171875 239.152344 C 70.96875 240.953125 71.808594 242.734375 72.691406 244.496094 C 73.570312 246.257812 74.492188 248 75.453125 249.71875 C 76.414062 251.4375 77.414062 253.136719 78.453125 254.808594 C 79.492188 256.480469 80.570312 258.128906 81.6875 259.753906 C 82.804688 261.375 83.957031 262.972656 85.144531 264.542969 C 86.335938 266.113281 87.5625 267.652344 88.824219 269.167969 C 90.085938 270.679688 91.382812 272.164062 92.710938 273.617188 L 72.558594 293.769531 C 71.84375 293.238281 71.113281 292.726562 70.371094 292.242188 C 69.625 291.753906 68.863281 291.289062 68.089844 290.851562 C 67.316406 290.410156 66.527344 289.996094 65.730469 289.605469 C 64.929688 289.214844 64.117188 288.847656 63.292969 288.507812 C 62.472656 288.167969 61.640625 287.855469 60.796875 287.566406 C 59.953125 287.28125 59.105469 287.019531 58.246094 286.785156 C 57.386719 286.550781 56.519531 286.34375 55.648438 286.160156 C 54.777344 285.980469 53.902344 285.828125 53.019531 285.703125 C 52.136719 285.574219 51.253906 285.476562 50.367188 285.40625 C 49.480469 285.335938 48.589844 285.292969 47.699219 285.277344 C 46.808594 285.261719 45.921875 285.277344 45.03125 285.316406 C 44.140625 285.355469 43.253906 285.425781 42.367188 285.519531 C 41.484375 285.617188 40.601562 285.742188 39.726562 285.890625 C 38.847656 286.042969 37.976562 286.21875 37.109375 286.425781 C 36.242188 286.632812 35.382812 286.863281 34.53125 287.121094 C 33.679688 287.382812 32.839844 287.667969 32.003906 287.980469 C 31.171875 288.289062 30.347656 288.628906 29.535156 288.992188 C 28.722656 289.355469 27.921875 289.742188 27.132812 290.15625 C 26.34375 290.570312 25.570312 291.007812 24.808594 291.46875 C 24.046875 291.929688 23.300781 292.414062 22.570312 292.921875 C 21.839844 293.429688 21.125 293.960938 20.425781 294.515625 C 19.726562 295.066406 19.046875 295.640625 18.386719 296.238281 C 17.726562 296.832031 17.082031 297.449219 16.457031 298.082031 C 15.835938 298.71875 15.230469 299.371094 14.648438 300.046875 C 14.066406 300.71875 13.503906 301.410156 12.964844 302.117188 C 12.425781 302.828125 11.910156 303.550781 11.414062 304.292969 C 10.921875 305.03125 10.449219 305.785156 10.003906 306.554688 C 9.558594 307.328125 9.132812 308.109375 8.734375 308.90625 C 8.339844 309.703125 7.964844 310.511719 7.617188 311.328125 C 7.269531 312.148438 6.949219 312.980469 6.652344 313.820312 C 6.355469 314.660156 6.085938 315.507812 5.84375 316.363281 C 5.601562 317.21875 5.386719 318.082031 5.195312 318.953125 C 5.007812 319.824219 4.847656 320.699219 4.710938 321.578125 C 4.578125 322.457031 4.472656 323.339844 4.390625 324.226562 C 4.3125 325.113281 4.261719 326.003906 4.238281 326.894531 C 4.214844 327.78125 4.21875 328.671875 4.25 329.5625 C 4.28125 330.453125 4.34375 331.339844 4.429688 332.226562 C 4.515625 333.113281 4.632812 333.996094 4.773438 334.875 C 4.917969 335.75 5.085938 336.625 5.285156 337.492188 C 5.480469 338.363281 5.707031 339.222656 5.957031 340.078125 C 6.207031 340.929688 6.484375 341.777344 6.789062 342.613281 C 7.09375 343.449219 7.421875 344.277344 7.777344 345.09375 C 8.132812 345.910156 8.515625 346.714844 8.917969 347.507812 C 9.324219 348.296875 9.753906 349.078125 10.210938 349.84375 C 10.664062 350.609375 11.140625 351.359375 11.644531 352.09375 C 12.144531 352.832031 12.667969 353.550781 13.214844 354.253906 C 13.761719 354.957031 14.328125 355.640625 14.917969 356.308594 C 15.507812 356.976562 16.117188 357.625 16.746094 358.253906 C 17.375 358.882812 18.023438 359.492188 18.691406 360.082031 C 19.359375 360.671875 20.042969 361.238281 20.746094 361.785156 C 21.449219 362.332031 22.167969 362.855469 22.90625 363.355469 C 23.640625 363.859375 24.390625 364.335938 25.15625 364.789062 C 25.921875 365.246094 26.703125 365.675781 27.492188 366.082031 C 28.285156 366.484375 29.089844 366.867188 29.90625 367.222656 C 30.722656 367.578125 31.550781 367.90625 32.386719 368.210938 C 33.222656 368.515625 34.070312 368.792969 34.921875 369.042969 C 35.777344 369.292969 36.636719 369.519531 37.507812 369.714844 C 38.375 369.914062 39.246094 370.082031 40.125 370.226562 C 41.003906 370.367188 41.886719 370.484375 42.773438 370.570312 C 43.660156 370.65625 44.546875 370.71875 45.4375 370.75 C 46.328125 370.78125 47.214844 370.785156 48.105469 370.761719 C 48.996094 370.738281 49.886719 370.6875 50.773438 370.609375 C 51.660156 370.527344 52.542969 370.421875 53.421875 370.289062 C 54.300781 370.152344 55.175781 369.992188 56.046875 369.804688 C 56.917969 369.613281 57.78125 369.398438 58.636719 369.15625 C 59.492188 368.914062 60.339844 368.644531 61.179688 368.347656 C 62.019531 368.050781 62.851562 367.730469 63.671875 367.382812 C 64.488281 367.035156 65.296875 366.660156 66.09375 366.265625 C 66.890625 365.867188 67.671875 365.441406 68.441406 364.996094 C 69.214844 364.550781 69.96875 364.078125 70.707031 363.585938 C 71.449219 363.089844 72.171875 362.574219 72.882812 362.035156 C 73.589844 361.496094 74.28125 360.933594 74.953125 360.351562 C 75.628906 359.769531 76.28125 359.164062 76.917969 358.542969 C 77.550781 357.917969 78.167969 357.273438 78.761719 356.613281 C 79.359375 355.953125 79.933594 355.269531 80.484375 354.574219 C 81.039062 353.875 81.570312 353.160156 82.078125 352.429688 C 82.585938 351.699219 83.070312 350.953125 83.53125 350.191406 C 83.992188 349.429688 84.429688 348.65625 84.84375 347.867188 C 85.257812 347.078125 85.644531 346.277344 86.007812 345.464844 C 86.371094 344.652344 86.710938 343.828125 87.019531 342.996094 C 87.332031 342.160156 87.617188 341.320312 87.878906 340.46875 C 88.136719 339.613281 88.367188 338.757812 88.574219 337.890625 C 88.78125 337.023438 88.957031 336.152344 89.109375 335.273438 C 89.257812 334.398438 89.382812 333.515625 89.480469 332.628906 C 89.574219 331.746094 89.644531 330.859375 89.683594 329.96875 C 89.722656 329.078125 89.738281 328.191406 89.722656 327.300781 C 89.707031 326.410156 89.664062 325.519531 89.59375 324.632812 C 89.523438 323.746094 89.425781 322.863281 89.296875 321.980469 C 89.171875 321.097656 89.019531 320.222656 88.839844 319.351562 C 88.65625 318.480469 88.449219 317.613281 88.214844 316.753906 C 87.980469 315.894531 87.71875 315.046875 87.433594 314.203125 C 87.144531 313.359375 86.832031 312.527344 86.492188 311.707031 C 86.152344 310.882812 85.785156 310.070312 85.394531 309.269531 C 85.003906 308.472656 84.589844 307.683594 84.148438 306.910156 C 83.710938 306.136719 83.246094 305.375 82.757812 304.628906 C 82.273438 303.886719 81.761719 303.15625 81.230469 302.441406 L 101.382812 282.289062 C 102.835938 283.617188 104.320312 284.914062 105.832031 286.175781 C 107.347656 287.4375 108.886719 288.664062 110.457031 289.851562 C 112.027344 291.042969 113.625 292.195312 115.246094 293.3125 C 116.871094 294.429688 118.519531 295.507812 120.191406 296.546875 C 121.863281 297.585938 123.5625 298.585938 125.28125 299.546875 C 127 300.507812 128.742188 301.429688 130.503906 302.308594 C 132.265625 303.191406 134.046875 304.03125 135.847656 304.828125 C 137.648438 305.625 139.46875 306.382812 141.304688 307.09375 C 143.140625 307.808594 144.992188 308.480469 146.859375 309.105469 C 148.726562 309.734375 150.609375 310.320312 152.503906 310.859375 C 154.394531 311.402344 156.300781 311.898438 158.21875 312.347656 C 160.136719 312.800781 162.0625 313.210938 164 313.574219 C 165.9375 313.933594 167.878906 314.253906 169.832031 314.527344 C 171.78125 314.800781 173.738281 315.027344 175.699219 315.210938 C 177.660156 315.390625 179.625 315.527344 181.59375 315.621094 C 183.5625 315.710938 185.53125 315.757812 187.5 315.757812 C 189.46875 315.757812 191.4375 315.710938 193.40625 315.621094 C 195.375 315.527344 197.339844 315.390625 199.300781 315.210938 C 201.261719 315.027344 203.21875 314.800781 205.167969 314.527344 C 207.121094 314.253906 209.0625 313.933594 211 313.574219 C 212.9375 313.210938 214.863281 312.800781 216.78125 312.347656 C 218.699219 311.898438 220.605469 311.402344 222.496094 310.859375 C 224.390625 310.320312 226.273438 309.734375 228.140625 309.105469 C 230.007812 308.480469 231.859375 307.808594 233.695312 307.09375 C 235.53125 306.382812 237.351562 305.625 239.152344 304.828125 C 240.953125 304.03125 242.734375 303.191406 244.496094 302.308594 C 246.257812 301.429688 248 300.507812 249.71875 299.546875 C 251.4375 298.585938 253.136719 297.585938 254.808594 296.546875 C 256.480469 295.507812 258.128906 294.429688 259.753906 293.3125 C 261.375 292.195312 262.972656 291.042969 264.542969 289.851562 C 266.113281 288.664062 267.652344 287.4375 269.167969 286.175781 C 270.679688 284.914062 272.164062 283.617188 273.617188 282.289062 L 293.769531 302.441406 C 293.238281 303.15625 292.726562 303.886719 292.242188 304.628906 C 291.753906 305.375 291.289062 306.136719 290.851562 306.910156 C 290.410156 307.683594 289.996094 308.472656 289.605469 309.269531 C 289.214844 310.070312 288.847656 310.882812 288.507812 311.707031 C 288.167969 312.527344 287.855469 313.359375 287.566406 314.203125 C 287.28125 315.046875 287.019531 315.894531 286.785156 316.753906 C 286.550781 317.613281 286.34375 318.480469 286.160156 319.351562 C 285.980469 320.222656 285.828125 321.097656 285.703125 321.980469 C 285.574219 322.863281 285.476562 323.746094 285.40625 324.632812 C 285.335938 325.519531 285.292969 326.410156 285.277344 327.300781 C 285.261719 328.191406 285.277344 329.078125 285.316406 329.96875 C 285.355469 330.859375 285.425781 331.746094 285.519531 332.628906 C 285.617188 333.515625 285.742188 334.398438 285.890625 335.273438 C 286.042969 336.152344 286.21875 337.023438 286.425781 337.890625 C 286.632812 338.757812 286.863281 339.613281 287.121094 340.46875 C 287.382812 341.320312 287.667969 342.160156 287.980469 342.996094 C 288.289062 343.828125 288.628906 344.652344 288.992188 345.464844 C 289.355469 346.277344 289.742188 347.078125 290.15625 347.867188 C 290.570312 348.65625 291.007812 349.429688 291.46875 350.191406 C 291.929688 350.953125 292.414062 351.699219 292.921875 352.429688 C 293.429688 353.160156 293.960938 353.875 294.515625 354.574219 C 295.066406 355.269531 295.640625 355.953125 296.238281 356.613281 C 296.832031 357.273438 297.449219 357.917969 298.082031 358.542969 C 298.71875 359.164062 299.371094 359.769531 300.046875 360.351562 C 300.71875 360.933594 301.410156 361.496094 302.117188 362.035156 C 302.828125 362.574219 303.550781 363.089844 304.292969 363.585938 C 305.03125 364.078125 305.785156 364.550781 306.558594 364.996094 C 307.328125 365.441406 308.109375 365.867188 308.90625 366.265625 C 309.703125 366.660156 310.511719 367.035156 311.328125 367.382812 C 312.148438 367.730469 312.980469 368.050781 313.820312 368.347656 C 314.660156 368.644531 315.507812 368.914062 316.363281 369.15625 C 317.21875 369.398438 318.082031 369.613281 318.953125 369.804688 C 319.824219 369.992188 320.699219 370.152344 321.578125 370.289062 C 322.457031 370.421875 323.339844 370.527344 324.226562 370.609375 C 325.113281 370.6875 326.003906 370.738281 326.894531 370.761719 C 327.78125 370.785156 328.671875 370.78125 329.5625 370.75 C 330.453125 370.71875 331.339844 370.65625 332.226562 370.570312 C 333.113281 370.484375 333.996094 370.367188 334.875 370.226562 C 335.753906 370.082031 336.625 369.914062 337.492188 369.714844 C 338.363281 369.519531 339.222656 369.292969 340.078125 369.042969 C 340.929688 368.792969 341.777344 368.515625 342.613281 368.210938 C 343.449219 367.90625 344.277344 367.578125 345.09375 367.222656 C 345.910156 366.867188 346.714844 366.484375 347.507812 366.082031 C 348.296875 365.675781 349.078125 365.246094 349.84375 364.789062 C 350.609375 364.335938 351.359375 363.859375 352.09375 363.355469 C 352.832031 362.855469 353.550781 362.332031 354.253906 361.785156 C 354.957031 361.238281 355.640625 360.671875 356.308594 360.082031 C 356.976562 359.492188 357.625 358.882812 358.253906 358.253906 C 358.882812 357.625 359.492188 356.976562 360.082031 356.308594 C 360.671875 355.640625 361.238281 354.957031 361.785156 354.253906 C 362.332031 353.550781 362.855469 352.832031 363.355469 352.09375 C 363.859375 351.359375 364.335938 350.609375 364.789062 349.84375 C 365.246094 349.078125 365.675781 348.296875 366.082031 347.507812 C 366.484375 346.714844 366.867188 345.910156 367.222656 345.09375 C 367.578125 344.277344 367.90625 343.449219 368.210938 342.613281 C 368.515625 341.777344 368.792969 340.929688 369.042969 340.078125 C 369.292969 339.222656 369.519531 338.363281 369.714844 337.492188 C 369.914062 336.625 370.082031 335.753906 370.226562 334.875 C 370.367188 333.996094 370.484375 333.113281 370.570312 332.226562 C 370.65625 331.339844 370.71875 330.453125 370.75 329.5625 C 370.78125 328.671875 370.785156 327.78125 370.761719 326.894531 C 370.738281 326.003906 370.6875 325.113281 370.609375 324.226562 C 370.527344 323.339844 370.421875 322.457031 370.289062 321.578125 C 370.152344 320.699219 369.992188 319.824219 369.804688 318.953125 C 369.613281 318.082031 369.398438 317.21875 369.15625 316.363281 C 368.914062 315.507812 368.644531 314.660156 368.347656 313.820312 C 368.050781 312.980469 367.730469 312.148438 367.382812 311.328125 C 367.035156 310.511719 366.660156 309.703125 366.265625 308.90625 C 365.867188 308.109375 365.441406 307.328125 364.996094 306.558594 C 364.550781 305.785156 364.078125 305.03125 363.585938 304.292969 C 363.089844 303.550781 362.574219 302.828125 362.035156 302.117188 C 361.496094 301.410156 360.933594 300.71875 360.351562 300.046875 C 359.769531 299.371094 359.164062 298.71875 358.542969 298.082031 C 357.917969 297.449219 357.273438 296.832031 356.613281 296.238281 C 355.953125 295.640625 355.269531 295.066406 354.574219 294.515625 C 353.875 293.960938 353.160156 293.429688 352.429688 292.921875 C 351.699219 292.414062 350.953125 291.929688 350.191406 291.46875 C 349.429688 291.007812 348.65625 290.570312 347.867188 290.15625 C 347.078125 289.742188 346.277344 289.355469 345.464844 288.992188 C 344.652344 288.628906 343.828125 288.289062 342.996094 287.980469 C 342.160156 287.667969 341.320312 287.382812 340.46875 287.121094 C 339.613281 286.863281 338.757812 286.632812 337.890625 286.425781 C 337.023438 286.21875 336.152344 286.042969 335.273438 285.890625 C 334.398438 285.742188 333.515625 285.617188 332.632812 285.519531 C 331.746094 285.425781 330.859375 285.355469 329.96875 285.316406 C 329.078125 285.277344 328.191406 285.261719 327.300781 285.277344 C 326.410156 285.292969 325.519531 285.335938 324.632812 285.40625 C 323.746094 285.476562 322.863281 285.574219 321.980469 285.703125 C 321.097656 285.828125 320.222656 285.980469 319.351562 286.160156 C 318.480469 286.34375 317.613281 286.550781 316.753906 286.785156 C 315.894531 287.019531 315.046875 287.28125 314.203125 287.566406 C 313.359375 287.855469 312.527344 288.167969 311.707031 288.507812 C 310.882812 288.847656 310.070312 289.214844 309.269531 289.605469 C 308.472656 289.996094 307.683594 290.410156 306.910156 290.851562 C 306.136719 291.289062 305.375 291.753906 304.628906 292.242188 C 303.886719 292.726562 303.15625 293.238281 302.441406 293.769531 L 282.289062 273.617188 C 283.617188 272.164062 284.914062 270.679688 286.175781 269.167969 C 287.4375 267.652344 288.664062 266.113281 289.855469 264.542969 C 291.042969 262.972656 292.195312 261.375 293.3125 259.753906 C 294.429688 258.128906 295.507812 256.480469 296.546875 254.808594 C 297.585938 253.136719 298.585938 251.4375 299.546875 249.71875 C 300.507812 248 301.429688 246.257812 302.308594 244.496094 C 303.191406 242.734375 304.03125 240.953125 304.828125 239.152344 C 305.625 237.351562 306.382812 235.53125 307.09375 233.695312 C 307.808594 231.859375 308.480469 230.007812 309.105469 228.140625 C 309.734375 226.273438 310.320312 224.390625 310.859375 222.496094 C 311.402344 220.605469 311.898438 218.699219 312.347656 216.78125 C 312.800781 214.863281 313.210938 212.9375 313.574219 211 C 313.933594 209.0625 314.253906 207.121094 314.527344 205.167969 C 314.800781 203.21875 315.027344 201.261719 315.210938 199.300781 C 315.390625 197.339844 315.527344 195.375 315.621094 193.40625 C 315.710938 191.4375 315.757812 189.46875 315.757812 187.5 C 315.757812 185.53125 315.710938 183.5625 315.621094 181.59375 C 315.527344 179.625 315.390625 177.660156 315.210938 175.699219 C 315.027344 173.738281 314.800781 171.78125 314.527344 169.832031 C 314.253906 167.878906 313.933594 165.9375 313.574219 164 C 313.210938 162.0625 312.800781 160.136719 312.347656 158.21875 C 311.898438 156.300781 311.402344 154.394531 310.859375 152.503906 C 310.320312 150.609375 309.734375 148.726562 309.105469 146.859375 C 308.480469 144.992188 307.808594 143.140625 307.09375 141.304688 C 306.382812 139.46875 305.625 137.648438 304.828125 135.847656 C 304.03125 134.046875 303.191406 132.265625 302.308594 130.503906 C 301.429688 128.742188 300.507812 127 299.546875 125.28125 C 298.585938 123.5625 297.585938 121.863281 296.546875 120.191406 C 295.507812 118.519531 294.429688 116.871094 293.3125 115.246094 C 292.195312 113.625 291.042969 112.027344 289.855469 110.457031 C 288.664062 108.886719 287.4375 107.347656 286.175781 105.832031 C 284.914062 104.320312 283.617188 102.835938 282.289062 101.382812 L 302.441406 81.230469 C 303.117188 81.734375 303.808594 82.222656 304.511719 82.6875 C 305.214844 83.152344 305.929688 83.597656 306.660156 84.019531 C 307.390625 84.441406 308.132812 84.84375 308.886719 85.222656 C 309.640625 85.601562 310.40625 85.957031 311.179688 86.292969 C 311.957031 86.625 312.738281 86.9375 313.53125 87.222656 C 314.324219 87.511719 315.125 87.773438 315.9375 88.015625 C 316.746094 88.253906 317.558594 88.46875 318.382812 88.660156 C 319.203125 88.855469 320.03125 89.019531 320.859375 89.164062 C 321.691406 89.304688 322.527344 89.425781 323.367188 89.519531 C 324.203125 89.609375 325.046875 89.679688 325.886719 89.722656 C 326.730469 89.765625 327.574219 89.785156 328.417969 89.777344 C 329.261719 89.773438 330.105469 89.742188 330.945312 89.683594 C 331.789062 89.628906 332.625 89.546875 333.464844 89.441406 C 334.300781 89.335938 335.132812 89.203125 335.964844 89.050781 C 336.792969 88.894531 337.617188 88.714844 338.433594 88.511719 C 339.253906 88.304688 340.066406 88.078125 340.871094 87.824219 C 341.675781 87.574219 342.472656 87.296875 343.261719 87 C 344.050781 86.699219 344.828125 86.378906 345.601562 86.03125 C 346.371094 85.6875 347.128906 85.316406 347.875 84.929688 C 348.625 84.539062 349.359375 84.125 350.082031 83.691406 C 350.808594 83.257812 351.515625 82.800781 352.214844 82.328125 C 352.910156 81.851562 353.59375 81.355469 354.257812 80.839844 C 354.925781 80.320312 355.578125 79.785156 356.214844 79.230469 C 356.847656 78.675781 357.46875 78.101562 358.070312 77.511719 C 358.671875 76.917969 359.253906 76.3125 359.820312 75.683594 C 360.386719 75.058594 360.933594 74.417969 361.460938 73.757812 C 361.988281 73.101562 362.496094 72.425781 362.980469 71.738281 C 363.46875 71.050781 363.9375 70.347656 364.382812 69.628906 C 364.828125 68.914062 365.253906 68.1875 365.65625 67.445312 C 366.058594 66.703125 366.441406 65.949219 366.796875 65.1875 C 367.15625 64.421875 367.492188 63.648438 367.804688 62.867188 C 368.117188 62.082031 368.40625 61.289062 368.671875 60.488281 C 368.9375 59.6875 369.179688 58.878906 369.398438 58.066406 C 369.613281 57.25 369.808594 56.429688 369.976562 55.601562 C 370.148438 54.777344 370.292969 53.945312 370.410156 53.109375 C 370.53125 52.273438 370.628906 51.4375 370.699219 50.597656 C 370.769531 49.753906 370.8125 48.914062 370.832031 48.070312 C 370.855469 47.226562 370.851562 46.382812 370.820312 45.539062 C 370.792969 44.695312 370.738281 43.855469 370.65625 43.015625 C 370.578125 42.175781 370.476562 41.339844 370.347656 40.503906 C 370.21875 39.671875 370.0625 38.839844 369.886719 38.015625 C 369.707031 37.191406 369.507812 36.375 369.28125 35.558594 C 369.054688 34.746094 368.804688 33.941406 368.53125 33.144531 C 368.253906 32.347656 367.957031 31.558594 367.636719 30.777344 C 367.316406 29.996094 366.972656 29.226562 366.605469 28.464844 C 366.242188 27.707031 365.851562 26.957031 365.441406 26.21875 C 365.03125 25.484375 364.597656 24.757812 364.144531 24.046875 C 363.691406 23.335938 363.21875 22.640625 362.722656 21.957031 C 362.226562 21.273438 361.714844 20.605469 361.179688 19.949219 C 360.644531 19.296875 360.09375 18.660156 359.519531 18.042969 C 358.949219 17.421875 358.359375 16.820312 357.75 16.234375 C 357.144531 15.648438 356.519531 15.082031 355.875 14.53125 C 355.234375 13.984375 354.578125 13.457031 353.90625 12.945312 C 353.234375 12.4375 352.546875 11.949219 351.84375 11.480469 C 351.144531 11.011719 350.429688 10.5625 349.699219 10.136719 C 348.972656 9.710938 348.234375 9.304688 347.480469 8.921875 C 346.730469 8.539062 345.964844 8.179688 345.191406 7.84375 C 344.417969 7.503906 343.636719 7.191406 342.84375 6.898438 C 342.054688 6.609375 341.253906 6.34375 340.445312 6.097656 C 339.636719 5.855469 338.824219 5.632812 338.003906 5.4375 C 337.183594 5.242188 336.355469 5.074219 335.527344 4.925781 C 334.695312 4.777344 333.859375 4.65625 333.023438 4.558594 C 332.183594 4.460938 331.34375 4.390625 330.5 4.34375 C 329.660156 4.296875 328.816406 4.273438 327.972656 4.273438 Z M 16.488281 47.027344 C 16.488281 46.027344 16.539062 45.03125 16.636719 44.035156 C 16.734375 43.039062 16.882812 42.050781 17.078125 41.070312 C 17.273438 40.089844 17.515625 39.121094 17.804688 38.164062 C 18.09375 37.207031 18.433594 36.265625 18.816406 35.339844 C 19.199219 34.417969 19.625 33.515625 20.097656 32.632812 C 20.566406 31.75 21.082031 30.894531 21.636719 30.0625 C 22.191406 29.230469 22.789062 28.429688 23.421875 27.65625 C 24.054688 26.882812 24.726562 26.140625 25.433594 25.433594 C 26.140625 24.726562 26.882812 24.054688 27.65625 23.421875 C 28.429688 22.789062 29.230469 22.191406 30.0625 21.636719 C 30.894531 21.082031 31.75 20.566406 32.632812 20.097656 C 33.515625 19.625 34.417969 19.199219 35.339844 18.816406 C 36.265625 18.433594 37.207031 18.09375 38.164062 17.804688 C 39.121094 17.515625 40.089844 17.273438 41.070312 17.078125 C 42.050781 16.882812 43.039062 16.734375 44.035156 16.636719 C 45.03125 16.539062 46.027344 16.488281 47.027344 16.488281 C 48.027344 16.488281 49.027344 16.539062 50.019531 16.636719 C 51.015625 16.734375 52.003906 16.882812 52.984375 17.078125 C 53.964844 17.273438 54.933594 17.515625 55.890625 17.804688 C 56.847656 18.09375 57.789062 18.433594 58.714844 18.816406 C 59.636719 19.199219 60.539062 19.625 61.421875 20.097656 C 62.304688 20.566406 63.160156 21.082031 63.992188 21.636719 C 64.824219 22.191406 65.628906 22.789062 66.402344 23.421875 C 67.171875 24.054688 67.914062 24.726562 68.621094 25.433594 C 69.328125 26.140625 70 26.882812 70.632812 27.65625 C 71.269531 28.429688 71.863281 29.230469 72.417969 30.0625 C 72.972656 30.894531 73.488281 31.75 73.960938 32.632812 C 74.429688 33.515625 74.859375 34.417969 75.242188 35.339844 C 75.625 36.265625 75.960938 37.207031 76.25 38.164062 C 76.539062 39.121094 76.785156 40.089844 76.976562 41.070312 C 77.171875 42.050781 77.320312 43.039062 77.417969 44.035156 C 77.515625 45.03125 77.566406 46.027344 77.566406 47.027344 C 77.566406 48.027344 77.515625 49.027344 77.417969 50.019531 C 77.320312 51.015625 77.171875 52.003906 76.976562 52.984375 C 76.785156 53.964844 76.539062 54.933594 76.25 55.890625 C 75.960938 56.847656 75.625 57.789062 75.242188 58.714844 C 74.859375 59.636719 74.429688 60.539062 73.960938 61.421875 C 73.488281 62.304688 72.972656 63.160156 72.417969 63.992188 C 71.863281 64.824219 71.269531 65.628906 70.632812 66.402344 C 70 67.171875 69.328125 67.914062 68.621094 68.621094 C 67.914062 69.328125 67.171875 70 66.402344 70.632812 C 65.628906 71.269531 64.824219 71.863281 63.992188 72.417969 C 63.160156 72.972656 62.304688 73.488281 61.421875 73.960938 C 60.539062 74.429688 59.636719 74.859375 58.714844 75.242188 C 57.789062 75.625 56.847656 75.960938 55.890625 76.25 C 54.933594 76.539062 53.964844 76.785156 52.984375 76.976562 C 52.003906 77.171875 51.015625 77.320312 50.019531 77.417969 C 49.027344 77.515625 48.027344 77.566406 47.027344 77.566406 C 46.027344 77.566406 45.03125 77.515625 44.035156 77.417969 C 43.039062 77.320312 42.050781 77.171875 41.070312 76.976562 C 40.089844 76.785156 39.121094 76.539062 38.164062 76.25 C 37.207031 75.960938 36.265625 75.625 35.339844 75.242188 C 34.417969 74.859375 33.515625 74.429688 32.632812 73.960938 C 31.75 73.488281 30.894531 72.972656 30.0625 72.417969 C 29.230469 71.863281 28.429688 71.269531 27.65625 70.632812 C 26.882812 70 26.140625 69.328125 25.433594 68.621094 C 24.726562 67.914062 24.054688 67.171875 23.421875 66.402344 C 22.789062 65.628906 22.191406 64.824219 21.636719 63.992188 C 21.082031 63.160156 20.566406 62.304688 20.097656 61.421875 C 19.625 60.539062 19.199219 59.636719 18.816406 58.714844 C 18.433594 57.789062 18.09375 56.847656 17.804688 55.890625 C 17.515625 54.933594 17.273438 53.964844 17.078125 52.984375 C 16.882812 52.003906 16.734375 51.015625 16.636719 50.019531 C 16.539062 49.027344 16.488281 48.027344 16.488281 47.027344 Z M 47.027344 358.507812 C 46.027344 358.507812 45.03125 358.460938 44.035156 358.363281 C 43.039062 358.265625 42.050781 358.117188 41.070312 357.921875 C 40.089844 357.726562 39.121094 357.484375 38.164062 357.195312 C 37.207031 356.90625 36.265625 356.566406 35.339844 356.183594 C 34.417969 355.800781 33.515625 355.375 32.632812 354.902344 C 31.75 354.433594 30.894531 353.917969 30.0625 353.363281 C 29.230469 352.808594 28.429688 352.210938 27.65625 351.578125 C 26.882812 350.945312 26.140625 350.273438 25.433594 349.566406 C 24.726562 348.859375 24.054688 348.117188 23.421875 347.34375 C 22.789062 346.570312 22.191406 345.769531 21.636719 344.9375 C 21.082031 344.105469 20.566406 343.25 20.097656 342.367188 C 19.625 341.484375 19.199219 340.582031 18.816406 339.660156 C 18.433594 338.734375 18.09375 337.792969 17.804688 336.835938 C 17.515625 335.878906 17.273438 334.910156 17.078125 333.929688 C 16.882812 332.949219 16.734375 331.960938 16.636719 330.964844 C 16.539062 329.96875 16.488281 328.972656 16.488281 327.972656 C 16.488281 326.972656 16.539062 325.972656 16.636719 324.980469 C 16.734375 323.984375 16.882812 322.996094 17.078125 322.015625 C 17.273438 321.035156 17.515625 320.066406 17.804688 319.109375 C 18.09375 318.152344 18.433594 317.210938 18.816406 316.285156 C 19.199219 315.363281 19.625 314.460938 20.097656 313.578125 C 20.566406 312.695312 21.082031 311.839844 21.636719 311.007812 C 22.191406 310.175781 22.789062 309.371094 23.421875 308.597656 C 24.054688 307.828125 24.726562 307.085938 25.433594 306.378906 C 26.140625 305.671875 26.882812 305 27.65625 304.367188 C 28.429688 303.730469 29.230469 303.136719 30.0625 302.582031 C 30.894531 302.027344 31.75 301.511719 32.632812 301.039062 C 33.515625 300.570312 34.417969 300.140625 35.339844 299.757812 C 36.265625 299.375 37.207031 299.039062 38.164062 298.75 C 39.121094 298.460938 40.089844 298.214844 41.070312 298.023438 C 42.050781 297.828125 43.039062 297.679688 44.035156 297.582031 C 45.03125 297.484375 46.027344 297.433594 47.027344 297.433594 C 48.027344 297.433594 49.027344 297.484375 50.019531 297.582031 C 51.015625 297.679688 52.003906 297.828125 52.984375 298.023438 C 53.964844 298.214844 54.933594 298.460938 55.890625 298.75 C 56.847656 299.039062 57.789062 299.375 58.714844 299.757812 C 59.636719 300.140625 60.539062 300.570312 61.421875 301.039062 C 62.304688 301.511719 63.160156 302.027344 63.992188 302.582031 C 64.824219 303.136719 65.628906 303.730469 66.402344 304.367188 C 67.171875 305 67.914062 305.671875 68.621094 306.378906 C 69.328125 307.085938 70 307.828125 70.632812 308.597656 C 71.269531 309.371094 71.863281 310.175781 72.417969 311.007812 C 72.972656 311.839844 73.488281 312.695312 73.960938 313.578125 C 74.429688 314.460938 74.859375 315.363281 75.242188 316.285156 C 75.625 317.210938 75.960938 318.152344 76.25 319.109375 C 76.539062 320.066406 76.785156 321.035156 76.976562 322.015625 C 77.171875 322.996094 77.320312 323.984375 77.417969 324.980469 C 77.515625 325.972656 77.566406 326.972656 77.566406 327.972656 C 77.566406 328.972656 77.515625 329.96875 77.417969 330.964844 C 77.320312 331.960938 77.171875 332.949219 76.976562 333.929688 C 76.785156 334.910156 76.539062 335.878906 76.25 336.835938 C 75.960938 337.792969 75.625 338.734375 75.242188 339.660156 C 74.859375 340.582031 74.429688 341.484375 73.960938 342.367188 C 73.488281 343.25 72.972656 344.105469 72.417969 344.9375 C 71.863281 345.769531 71.269531 346.570312 70.632812 347.34375 C 70 348.117188 69.328125 348.859375 68.621094 349.566406 C 67.914062 350.273438 67.171875 350.945312 66.402344 351.578125 C 65.628906 352.210938 64.824219 352.808594 63.992188 353.363281 C 63.160156 353.917969 62.304688 354.433594 61.421875 354.902344 C 60.539062 355.375 59.636719 355.800781 58.714844 356.183594 C 57.789062 356.566406 56.847656 356.90625 55.890625 357.195312 C 54.933594 357.484375 53.964844 357.726562 52.984375 357.921875 C 52.003906 358.117188 51.015625 358.265625 50.019531 358.363281 C 49.027344 358.460938 48.027344 358.507812 47.027344 358.507812 Z M 358.507812 327.972656 C 358.507812 328.972656 358.460938 329.96875 358.363281 330.964844 C 358.265625 331.960938 358.117188 332.949219 357.921875 333.929688 C 357.726562 334.910156 357.484375 335.878906 357.195312 336.835938 C 356.90625 337.792969 356.566406 338.734375 356.183594 339.660156 C 355.800781 340.582031 355.375 341.484375 354.902344 342.367188 C 354.433594 343.25 353.917969 344.105469 353.363281 344.9375 C 352.808594 345.769531 352.210938 346.570312 351.578125 347.34375 C 350.945312 348.117188 350.273438 348.859375 349.566406 349.566406 C 348.859375 350.273438 348.117188 350.945312 347.34375 351.578125 C 346.570312 352.210938 345.769531 352.808594 344.9375 353.363281 C 344.105469 353.917969 343.25 354.433594 342.367188 354.902344 C 341.484375 355.375 340.582031 355.800781 339.660156 356.183594 C 338.734375 356.566406 337.792969 356.90625 336.835938 357.195312 C 335.878906 357.484375 334.910156 357.726562 333.929688 357.921875 C 332.949219 358.117188 331.960938 358.265625 330.964844 358.363281 C 329.96875 358.460938 328.972656 358.507812 327.972656 358.507812 C 326.972656 358.507812 325.972656 358.460938 324.980469 358.363281 C 323.984375 358.265625 322.996094 358.117188 322.015625 357.921875 C 321.035156 357.726562 320.066406 357.484375 319.109375 357.195312 C 318.152344 356.90625 317.210938 356.566406 316.285156 356.183594 C 315.363281 355.800781 314.460938 355.375 313.578125 354.902344 C 312.695312 354.433594 311.839844 353.917969 311.007812 353.363281 C 310.175781 352.808594 309.371094 352.210938 308.597656 351.578125 C 307.828125 350.945312 307.085938 350.273438 306.378906 349.566406 C 305.671875 348.859375 305 348.117188 304.367188 347.34375 C 303.730469 346.570312 303.136719 345.769531 302.582031 344.9375 C 302.027344 344.105469 301.511719 343.25 301.039062 342.367188 C 300.570312 341.484375 300.140625 340.582031 299.757812 339.660156 C 299.375 338.734375 299.039062 337.792969 298.75 336.835938 C 298.460938 335.878906 298.214844 334.910156 298.023438 333.929688 C 297.828125 332.949219 297.679688 331.960938 297.582031 330.964844 C 297.484375 329.96875 297.433594 328.972656 297.433594 327.972656 C 297.433594 326.972656 297.484375 325.972656 297.582031 324.980469 C 297.679688 323.984375 297.828125 322.996094 298.023438 322.015625 C 298.214844 321.035156 298.460938 320.066406 298.75 319.109375 C 299.039062 318.152344 299.375 317.210938 299.757812 316.285156 C 300.140625 315.363281 300.570312 314.460938 301.039062 313.578125 C 301.511719 312.695312 302.027344 311.839844 302.582031 311.007812 C 303.136719 310.175781 303.730469 309.371094 304.367188 308.597656 C 305 307.828125 305.671875 307.085938 306.378906 306.378906 C 307.085938 305.671875 307.828125 305 308.597656 304.367188 C 309.371094 303.730469 310.175781 303.136719 311.007812 302.582031 C 311.839844 302.027344 312.695312 301.511719 313.578125 301.039062 C 314.460938 300.570312 315.363281 300.140625 316.285156 299.757812 C 317.210938 299.375 318.152344 299.039062 319.109375 298.75 C 320.066406 298.460938 321.035156 298.214844 322.015625 298.023438 C 322.996094 297.828125 323.984375 297.679688 324.980469 297.582031 C 325.972656 297.484375 326.972656 297.433594 327.972656 297.433594 C 328.972656 297.433594 329.96875 297.484375 330.964844 297.582031 C 331.960938 297.679688 332.949219 297.828125 333.929688 298.023438 C 334.910156 298.214844 335.878906 298.460938 336.835938 298.75 C 337.792969 299.039062 338.734375 299.375 339.660156 299.757812 C 340.582031 300.140625 341.484375 300.570312 342.367188 301.039062 C 343.25 301.511719 344.105469 302.027344 344.9375 302.582031 C 345.769531 303.136719 346.570312 303.730469 347.34375 304.367188 C 348.117188 305 348.859375 305.671875 349.566406 306.378906 C 350.273438 307.085938 350.945312 307.828125 351.578125 308.597656 C 352.210938 309.371094 352.808594 310.175781 353.363281 311.007812 C 353.917969 311.839844 354.433594 312.695312 354.902344 313.578125 C 355.375 314.460938 355.800781 315.363281 356.183594 316.285156 C 356.566406 317.210938 356.90625 318.152344 357.195312 319.109375 C 357.484375 320.066406 357.726562 321.035156 357.921875 322.015625 C 358.117188 322.996094 358.265625 323.984375 358.363281 324.980469 C 358.460938 325.972656 358.507812 326.972656 358.507812 327.972656 Z M 187.5 303.542969 C 185.601562 303.542969 183.703125 303.496094 181.804688 303.402344 C 179.910156 303.308594 178.015625 303.167969 176.125 302.984375 C 174.234375 302.796875 172.351562 302.566406 170.472656 302.285156 C 168.59375 302.007812 166.722656 301.683594 164.859375 301.3125 C 163 300.941406 161.144531 300.527344 159.304688 300.066406 C 157.460938 299.601562 155.632812 299.097656 153.816406 298.546875 C 151.996094 297.996094 150.195312 297.398438 148.40625 296.757812 C 146.617188 296.117188 144.847656 295.4375 143.09375 294.710938 C 141.339844 293.980469 139.601562 293.214844 137.886719 292.402344 C 136.167969 291.589844 134.472656 290.734375 132.796875 289.839844 C 131.125 288.945312 129.472656 288.007812 127.84375 287.03125 C 126.214844 286.054688 124.609375 285.039062 123.03125 283.984375 C 121.453125 282.929688 119.898438 281.835938 118.375 280.707031 C 116.847656 279.574219 115.351562 278.40625 113.882812 277.203125 C 112.414062 275.996094 110.976562 274.757812 109.570312 273.480469 C 108.164062 272.207031 106.789062 270.898438 105.445312 269.554688 C 104.101562 268.210938 102.792969 266.835938 101.519531 265.429688 C 100.242188 264.023438 99.003906 262.585938 97.796875 261.117188 C 96.59375 259.648438 95.425781 258.152344 94.292969 256.625 C 93.164062 255.101562 92.070312 253.546875 91.015625 251.96875 C 89.960938 250.390625 88.945312 248.785156 87.96875 247.15625 C 86.992188 245.527344 86.054688 243.875 85.160156 242.203125 C 84.265625 240.527344 83.410156 238.832031 82.597656 237.113281 C 81.785156 235.398438 81.019531 233.660156 80.289062 231.90625 C 79.5625 230.152344 78.878906 228.382812 78.242188 226.59375 C 77.601562 224.804688 77.003906 223.003906 76.453125 221.183594 C 75.902344 219.367188 75.398438 217.539062 74.933594 215.695312 C 74.472656 213.855469 74.058594 212 73.6875 210.140625 C 73.316406 208.277344 72.992188 206.40625 72.714844 204.527344 C 72.433594 202.648438 72.203125 200.765625 72.015625 198.875 C 71.832031 196.984375 71.691406 195.089844 71.597656 193.195312 C 71.503906 191.296875 71.457031 189.398438 71.457031 187.5 C 71.457031 185.601562 71.503906 183.703125 71.597656 181.804688 C 71.691406 179.910156 71.832031 178.015625 72.015625 176.125 C 72.203125 174.234375 72.433594 172.351562 72.714844 170.472656 C 72.992188 168.59375 73.316406 166.722656 73.6875 164.859375 C 74.058594 163 74.472656 161.144531 74.933594 159.304688 C 75.398438 157.460938 75.902344 155.632812 76.453125 153.816406 C 77.003906 151.996094 77.601562 150.195312 78.242188 148.40625 C 78.878906 146.617188 79.5625 144.847656 80.289062 143.09375 C 81.019531 141.339844 81.785156 139.601562 82.597656 137.886719 C 83.410156 136.167969 84.265625 134.472656 85.160156 132.796875 C 86.054688 131.125 86.992188 129.472656 87.96875 127.84375 C 88.945312 126.214844 89.960938 124.609375 91.015625 123.03125 C 92.070312 121.453125 93.164062 119.898438 94.292969 118.375 C 95.425781 116.847656 96.59375 115.351562 97.796875 113.882812 C 99.003906 112.414062 100.242188 110.976562 101.519531 109.570312 C 102.792969 108.164062 104.101562 106.789062 105.445312 105.445312 C 106.789062 104.101562 108.164062 102.792969 109.570312 101.519531 C 110.976562 100.242188 112.414062 99.003906 113.882812 97.796875 C 115.351562 96.59375 116.847656 95.425781 118.375 94.292969 C 119.898438 93.164062 121.453125 92.070312 123.03125 91.015625 C 124.609375 89.960938 126.214844 88.945312 127.84375 87.96875 C 129.472656 86.992188 131.125 86.054688 132.796875 85.160156 C 134.472656 84.265625 136.167969 83.410156 137.886719 82.597656 C 139.601562 81.785156 141.339844 81.019531 143.09375 80.289062 C 144.847656 79.5625 146.617188 78.878906 148.40625 78.242188 C 150.195312 77.601562 151.996094 77.003906 153.816406 76.453125 C 155.632812 75.902344 157.460938 75.398438 159.304688 74.933594 C 161.144531 74.472656 163 74.058594 164.859375 73.6875 C 166.722656 73.316406 168.59375 72.992188 170.472656 72.714844 C 172.351562 72.433594 174.234375 72.203125 176.125 72.015625 C 178.015625 71.832031 179.910156 71.691406 181.804688 71.597656 C 183.703125 71.503906 185.601562 71.457031 187.5 71.457031 C 189.398438 71.457031 191.296875 71.503906 193.195312 71.597656 C 195.089844 71.691406 196.984375 71.832031 198.875 72.015625 C 200.765625 72.203125 202.648438 72.433594 204.527344 72.714844 C 206.40625 72.992188 208.277344 73.316406 210.140625 73.6875 C 212 74.058594 213.855469 74.472656 215.695312 74.933594 C 217.539062 75.398438 219.367188 75.902344 221.183594 76.453125 C 223.003906 77.003906 224.804688 77.601562 226.59375 78.242188 C 228.382812 78.878906 230.152344 79.5625 231.90625 80.289062 C 233.660156 81.019531 235.398438 81.785156 237.113281 82.597656 C 238.832031 83.410156 240.527344 84.265625 242.203125 85.160156 C 243.875 86.054688 245.527344 86.992188 247.15625 87.96875 C 248.785156 88.945312 250.390625 89.960938 251.96875 91.015625 C 253.546875 92.070312 255.101562 93.164062 256.625 94.292969 C 258.152344 95.425781 259.648438 96.59375 261.117188 97.796875 C 262.585938 99.003906 264.023438 100.242188 265.429688 101.519531 C 266.835938 102.792969 268.210938 104.101562 269.554688 105.445312 C 270.898438 106.789062 272.207031 108.164062 273.480469 109.570312 C 274.757812 110.976562 275.996094 112.414062 277.203125 113.882812 C 278.40625 115.351562 279.574219 116.847656 280.707031 118.375 C 281.835938 119.898438 282.929688 121.453125 283.984375 123.03125 C 285.039062 124.609375 286.054688 126.214844 287.03125 127.84375 C 288.007812 129.472656 288.945312 131.125 289.839844 132.796875 C 290.734375 134.472656 291.589844 136.167969 292.402344 137.886719 C 293.214844 139.601562 293.980469 141.339844 294.710938 143.09375 C 295.4375 144.847656 296.117188 146.617188 296.757812 148.40625 C 297.398438 150.195312 297.996094 151.996094 298.546875 153.816406 C 299.097656 155.632812 299.601562 157.460938 300.066406 159.304688 C 300.527344 161.144531 300.941406 163 301.3125 164.859375 C 301.683594 166.722656 302.007812 168.59375 302.285156 170.472656 C 302.566406 172.351562 302.796875 174.234375 302.984375 176.125 C 303.167969 178.015625 303.308594 179.910156 303.402344 181.804688 C 303.496094 183.703125 303.542969 185.601562 303.542969 187.5 C 303.542969 189.398438 303.496094 191.296875 303.402344 193.195312 C 303.308594 195.089844 303.167969 196.984375 302.984375 198.875 C 302.796875 200.765625 302.566406 202.648438 302.285156 204.527344 C 302.007812 206.40625 301.683594 208.277344 301.3125 210.140625 C 300.941406 212 300.527344 213.855469 300.066406 215.695312 C 299.601562 217.539062 299.097656 219.367188 298.546875 221.183594 C 297.996094 223.003906 297.398438 224.804688 296.757812 226.59375 C 296.117188 228.382812 295.4375 230.152344 294.710938 231.90625 C 293.980469 233.660156 293.214844 235.398438 292.402344 237.113281 C 291.589844 238.832031 290.734375 240.527344 289.839844 242.203125 C 288.945312 243.875 288.007812 245.527344 287.03125 247.15625 C 286.054688 248.785156 285.039062 250.390625 283.984375 251.96875 C 282.929688 253.546875 281.835938 255.101562 280.707031 256.625 C 279.574219 258.152344 278.40625 259.648438 277.203125 261.117188 C 275.996094 262.585938 274.757812 264.023438 273.480469 265.429688 C 272.207031 266.835938 270.898438 268.210938 269.554688 269.554688 C 268.210938 270.898438 266.835938 272.207031 265.429688 273.480469 C 264.023438 274.757812 262.585938 275.996094 261.117188 277.203125 C 259.648438 278.40625 258.152344 279.574219 256.625 280.707031 C 255.101562 281.835938 253.546875 282.929688 251.96875 283.984375 C 250.390625 285.039062 248.785156 286.054688 247.15625 287.03125 C 245.527344 288.007812 243.875 288.945312 242.203125 289.839844 C 240.527344 290.734375 238.832031 291.589844 237.113281 292.402344 C 235.398438 293.214844 233.660156 293.980469 231.90625 294.710938 C 230.152344 295.4375 228.382812 296.117188 226.59375 296.757812 C 224.804688 297.398438 223.003906 297.996094 221.183594 298.546875 C 219.367188 299.097656 217.539062 299.601562 215.695312 300.066406 C 213.855469 300.527344 212 300.941406 210.140625 301.3125 C 208.277344 301.683594 206.40625 302.007812 204.527344 302.285156 C 202.648438 302.566406 200.765625 302.796875 198.875 302.984375 C 196.984375 303.167969 195.089844 303.308594 193.195312 303.402344 C 191.296875 303.496094 189.398438 303.542969 187.5 303.542969 Z M 327.972656 77.566406 C 326.972656 77.566406 325.972656 77.515625 324.980469 77.417969 C 323.984375 77.320312 322.996094 77.171875 322.015625 76.976562 C 321.035156 76.785156 320.066406 76.539062 319.109375 76.25 C 318.152344 75.960938 317.210938 75.625 316.285156 75.242188 C 315.363281 74.859375 314.460938 74.429688 313.578125 73.960938 C 312.695312 73.488281 311.839844 72.972656 311.007812 72.417969 C 310.175781 71.863281 309.371094 71.269531 308.597656 70.632812 C 307.828125 70 307.085938 69.328125 306.378906 68.621094 C 305.671875 67.914062 305 67.171875 304.367188 66.402344 C 303.730469 65.628906 303.136719 64.824219 302.582031 63.992188 C 302.027344 63.160156 301.511719 62.304688 301.039062 61.421875 C 300.570312 60.539062 300.140625 59.636719 299.757812 58.714844 C 299.375 57.789062 299.039062 56.847656 298.75 55.890625 C 298.460938 54.933594 298.214844 53.964844 298.023438 52.984375 C 297.828125 52.003906 297.679688 51.015625 297.582031 50.019531 C 297.484375 49.027344 297.433594 48.027344 297.433594 47.027344 C 297.433594 46.027344 297.484375 45.03125 297.582031 44.035156 C 297.679688 43.039062 297.828125 42.050781 298.023438 41.070312 C 298.214844 40.089844 298.460938 39.121094 298.75 38.164062 C 299.039062 37.207031 299.375 36.265625 299.757812 35.339844 C 300.140625 34.417969 300.570312 33.515625 301.039062 32.632812 C 301.511719 31.75 302.027344 30.894531 302.582031 30.0625 C 303.136719 29.230469 303.730469 28.429688 304.367188 27.65625 C 305 26.882812 305.671875 26.140625 306.378906 25.433594 C 307.085938 24.726562 307.828125 24.054688 308.597656 23.421875 C 309.371094 22.789062 310.175781 22.191406 311.007812 21.636719 C 311.839844 21.082031 312.695312 20.566406 313.578125 20.097656 C 314.460938 19.625 315.363281 19.199219 316.285156 18.816406 C 317.210938 18.433594 318.152344 18.09375 319.109375 17.804688 C 320.066406 17.515625 321.035156 17.273438 322.015625 17.078125 C 322.996094 16.882812 323.984375 16.734375 324.980469 16.636719 C 325.972656 16.539062 326.972656 16.488281 327.972656 16.488281 C 328.972656 16.488281 329.96875 16.539062 330.964844 16.636719 C 331.960938 16.734375 332.949219 16.882812 333.929688 17.078125 C 334.910156 17.273438 335.878906 17.515625 336.835938 17.804688 C 337.792969 18.09375 338.734375 18.433594 339.660156 18.816406 C 340.582031 19.199219 341.484375 19.625 342.367188 20.097656 C 343.25 20.566406 344.105469 21.082031 344.9375 21.636719 C 345.769531 22.191406 346.570312 22.789062 347.34375 23.421875 C 348.117188 24.054688 348.859375 24.726562 349.566406 25.433594 C 350.273438 26.140625 350.945312 26.882812 351.578125 27.65625 C 352.210938 28.429688 352.808594 29.230469 353.363281 30.0625 C 353.917969 30.894531 354.433594 31.75 354.902344 32.632812 C 355.375 33.515625 355.800781 34.417969 356.183594 35.339844 C 356.566406 36.265625 356.90625 37.207031 357.195312 38.164062 C 357.484375 39.121094 357.726562 40.089844 357.921875 41.070312 C 358.117188 42.050781 358.265625 43.039062 358.363281 44.035156 C 358.460938 45.03125 358.507812 46.027344 358.507812 47.027344 C 358.507812 48.027344 358.460938 49.027344 358.363281 50.019531 C 358.265625 51.015625 358.117188 52.003906 357.921875 52.984375 C 357.726562 53.964844 357.484375 54.933594 357.195312 55.890625 C 356.90625 56.847656 356.566406 57.789062 356.183594 58.714844 C 355.800781 59.636719 355.375 60.539062 354.902344 61.421875 C 354.433594 62.304688 353.917969 63.160156 353.363281 63.992188 C 352.808594 64.824219 352.210938 65.628906 351.578125 66.402344 C 350.945312 67.171875 350.273438 67.914062 349.566406 68.621094 C 348.859375 69.328125 348.117188 70 347.34375 70.632812 C 346.570312 71.269531 345.769531 71.863281 344.9375 72.417969 C 344.105469 72.972656 343.25 73.488281 342.367188 73.960938 C 341.484375 74.429688 340.582031 74.859375 339.660156 75.242188 C 338.734375 75.625 337.792969 75.960938 336.835938 76.25 C 335.878906 76.539062 334.910156 76.785156 333.929688 76.976562 C 332.949219 77.171875 331.960938 77.320312 330.964844 77.417969 C 329.96875 77.515625 328.972656 77.566406 327.972656 77.566406 Z M 327.972656 77.566406 " fill-opacity="1" fill-rule="nonzero"/><path fill="#004aad" d="M 53.136719 28.707031 L 40.921875 28.707031 L 40.921875 40.921875 L 28.707031 40.921875 L 28.707031 53.136719 L 40.921875 53.136719 L 40.921875 65.351562 L 53.136719 65.351562 L 53.136719 53.136719 L 65.351562 53.136719 L 65.351562 40.921875 L 53.136719 40.921875 Z M 53.136719 28.707031 " fill-opacity="1" fill-rule="nonzero"/><path fill="#004aad" d="M 334.078125 28.707031 L 321.863281 28.707031 L 321.863281 40.921875 L 309.648438 40.921875 L 309.648438 53.136719 L 321.863281 53.136719 L 321.863281 65.351562 L 334.078125 65.351562 L 334.078125 53.136719 L 346.292969 53.136719 L 346.292969 40.921875 L 334.078125 40.921875 Z M 334.078125 28.707031 " fill-opacity="1" fill-rule="nonzero"/><path fill="#004aad" d="M 53.136719 309.648438 L 40.921875 309.648438 L 40.921875 321.863281 L 28.707031 321.863281 L 28.707031 334.078125 L 40.921875 334.078125 L 40.921875 346.292969 L 53.136719 346.292969 L 53.136719 334.078125 L 65.351562 334.078125 L 65.351562 321.863281 L 53.136719 321.863281 Z M 53.136719 309.648438 " fill-opacity="1" fill-rule="nonzero"/><path fill="#004aad" d="M 321.863281 346.292969 L 334.078125 346.292969 L 334.078125 334.078125 L 346.292969 334.078125 L 346.292969 321.863281 L 334.078125 321.863281 L 334.078125 309.648438 L 321.863281 309.648438 L 321.863281 321.863281 L 309.648438 321.863281 L 309.648438 334.078125 L 321.863281 334.078125 Z M 321.863281 346.292969 " fill-opacity="1" fill-rule="nonzero"/><path fill="#004aad" d="M 327.972656 144.746094 L 340.1875 144.746094 L 340.1875 156.960938 L 327.972656 156.960938 Z M 327.972656 144.746094 " fill-opacity="1" fill-rule="nonzero"/><path fill="#004aad" d="M 327.972656 169.175781 L 340.1875 169.175781 L 340.1875 181.390625 L 327.972656 181.390625 Z M 327.972656 169.175781 " fill-opacity="1" fill-rule="nonzero"/><path fill="#004aad" d="M 327.972656 193.609375 L 340.1875 193.609375 L 340.1875 205.824219 L 327.972656 205.824219 Z M 327.972656 193.609375 " fill-opacity="1" fill-rule="nonzero"/><path fill="#004aad" d="M 327.972656 218.039062 L 340.1875 218.039062 L 340.1875 230.253906 L 327.972656 230.253906 Z M 327.972656 218.039062 " fill-opacity="1" fill-rule="nonzero"/><path fill="#004aad" d="M 352.402344 156.960938 L 364.617188 156.960938 L 364.617188 169.175781 L 352.402344 169.175781 Z M 352.402344 156.960938 " fill-opacity="1" fill-rule="nonzero"/><path fill="#004aad" d="M 352.402344 181.390625 L 364.617188 181.390625 L 364.617188 193.609375 L 352.402344 193.609375 Z M 352.402344 181.390625 " fill-opacity="1" fill-rule="nonzero"/><path fill="#004aad" d="M 352.402344 205.824219 L 364.617188 205.824219 L 364.617188 218.039062 L 352.402344 218.039062 Z M 352.402344 205.824219 " fill-opacity="1" fill-rule="nonzero"/><path fill="#004aad" d="M 34.8125 144.746094 L 47.027344 144.746094 L 47.027344 156.960938 L 34.8125 156.960938 Z M 34.8125 144.746094 " fill-opacity="1" fill-rule="nonzero"/><path fill="#004aad" d="M 34.8125 169.175781 L 47.027344 169.175781 L 47.027344 181.390625 L 34.8125 181.390625 Z M 34.8125 169.175781 " fill-opacity="1" fill-rule="nonzero"/><path fill="#004aad" d="M 34.8125 193.609375 L 47.027344 193.609375 L 47.027344 205.824219 L 34.8125 205.824219 Z M 34.8125 193.609375 " fill-opacity="1" fill-rule="nonzero"/><path fill="#004aad" d="M 34.8125 218.039062 L 47.027344 218.039062 L 47.027344 230.253906 L 34.8125 230.253906 Z M 34.8125 218.039062 " fill-opacity="1" fill-rule="nonzero"/><path fill="#004aad" d="M 10.382812 156.960938 L 22.597656 156.960938 L 22.597656 169.175781 L 10.382812 169.175781 Z M 10.382812 156.960938 " fill-opacity="1" fill-rule="nonzero"/><path fill="#004aad" d="M 10.382812 181.390625 L 22.597656 181.390625 L 22.597656 193.609375 L 10.382812 193.609375 Z M 10.382812 181.390625 " fill-opacity="1" fill-rule="nonzero"/><path fill="#004aad" d="M 10.382812 205.824219 L 22.597656 205.824219 L 22.597656 218.039062 L 10.382812 218.039062 Z M 10.382812 205.824219 " fill-opacity="1" fill-rule="nonzero"/><path fill="#004aad" d="M 144.746094 34.8125 L 156.960938 34.8125 L 156.960938 47.027344 L 144.746094 47.027344 Z M 144.746094 34.8125 " fill-opacity="1" fill-rule="nonzero"/><path fill="#004aad" d="M 169.175781 34.8125 L 181.390625 34.8125 L 181.390625 47.027344 L 169.175781 47.027344 Z M 169.175781 34.8125 " fill-opacity="1" fill-rule="nonzero"/><path fill="#004aad" d="M 193.609375 34.8125 L 205.824219 34.8125 L 205.824219 47.027344 L 193.609375 47.027344 Z M 193.609375 34.8125 " fill-opacity="1" fill-rule="nonzero"/><path fill="#004aad" d="M 218.039062 34.8125 L 230.253906 34.8125 L 230.253906 47.027344 L 218.039062 47.027344 Z M 218.039062 34.8125 " fill-opacity="1" fill-rule="nonzero"/><path fill="#004aad" d="M 156.960938 10.382812 L 169.175781 10.382812 L 169.175781 22.597656 L 156.960938 22.597656 Z M 156.960938 10.382812 " fill-opacity="1" fill-rule="nonzero"/><path fill="#004aad" d="M 181.390625 10.382812 L 193.609375 10.382812 L 193.609375 22.597656 L 181.390625 22.597656 Z M 181.390625 10.382812 " fill-opacity="1" fill-rule="nonzero"/><path fill="#004aad" d="M 205.824219 10.382812 L 218.039062 10.382812 L 218.039062 22.597656 L 205.824219 22.597656 Z M 205.824219 10.382812 " fill-opacity="1" fill-rule="nonzero"/><path fill="#004aad" d="M 144.746094 327.972656 L 156.960938 327.972656 L 156.960938 340.1875 L 144.746094 340.1875 Z M 144.746094 327.972656 " fill-opacity="1" fill-rule="nonzero"/><path fill="#004aad" d="M 169.175781 327.972656 L 181.390625 327.972656 L 181.390625 340.1875 L 169.175781 340.1875 Z M 169.175781 327.972656 " fill-opacity="1" fill-rule="nonzero"/><path fill="#004aad" d="M 193.609375 327.972656 L 205.824219 327.972656 L 205.824219 340.1875 L 193.609375 340.1875 Z M 193.609375 327.972656 " fill-opacity="1" fill-rule="nonzero"/><path fill="#004aad" d="M 218.039062 327.972656 L 230.253906 327.972656 L 230.253906 340.1875 L 218.039062 340.1875 Z M 218.039062 327.972656 " fill-opacity="1" fill-rule="nonzero"/><path fill="#004aad" d="M 156.960938 352.402344 L 169.175781 352.402344 L 169.175781 364.617188 L 156.960938 364.617188 Z M 156.960938 352.402344 " fill-opacity="1" fill-rule="nonzero"/><path fill="#004aad" d="M 181.390625 352.402344 L 193.609375 352.402344 L 193.609375 364.617188 L 181.390625 364.617188 Z M 181.390625 352.402344 " fill-opacity="1" fill-rule="nonzero"/><path fill="#004aad" d="M 205.824219 352.402344 L 218.039062 352.402344 L 218.039062 364.617188 L 205.824219 364.617188 Z M 205.824219 352.402344 " fill-opacity="1" fill-rule="nonzero"/></svg>