<svg xmlns="http://www.w3.org/2000/svg" xmlns:xlink="http://www.w3.org/1999/xlink" width="300" zoomAndPan="magnify" viewBox="0 0 224.87999 225" height="300" preserveAspectRatio="xMidYMid meet" version="1.0"><defs><clipPath id="5a182b843e"><path d="M 0 187 L 224.761719 187 L 224.761719 224.9375 L 0 224.9375 Z M 0 187 " clip-rule="nonzero"/></clipPath><clipPath id="8622ceecc4"><path d="M 78 11.585938 L 106 11.585938 L 106 32 L 78 32 Z M 78 11.585938 " clip-rule="nonzero"/></clipPath><clipPath id="6731dd3efa"><path d="M 119 11.585938 L 146 11.585938 L 146 32 L 119 32 Z M 119 11.585938 " clip-rule="nonzero"/></clipPath></defs><g clip-path="url(#5a182b843e)"><path fill="#0b7598" d="M 224.855469 187.699219 C 224.855469 208.421875 208.078125 225.222656 187.382812 225.222656 L 37.496094 225.222656 C 27.148438 225.222656 17.78125 221.023438 11 214.230469 C 4.21875 207.441406 0.0234375 198.0625 0.0234375 187.699219 L 77.464844 187.699219 L 82.460938 202.707031 L 142.417969 202.707031 L 147.414062 187.699219 Z M 224.855469 187.699219 " fill-opacity="1" fill-rule="nonzero"/></g><path fill="#cddbf9" d="M 161.152344 172.691406 L 161.152344 150.179688 L 63.726562 150.179688 L 63.726562 172.691406 Z M 11.265625 187.699219 L 11.265625 71.382812 L 74.96875 71.382812 L 74.96875 101.027344 C 74.96875 101.152344 74.96875 101.277344 74.972656 101.402344 C 75.023438 105.675781 75.953125 109.734375 77.59375 113.40625 C 82.328125 124.023438 92.960938 131.417969 105.320312 131.417969 L 119.558594 131.417969 C 131.917969 131.417969 142.550781 124.023438 147.289062 113.40625 C 148.925781 109.734375 149.855469 105.675781 149.910156 101.402344 C 149.910156 101.277344 149.910156 101.152344 149.910156 101.027344 L 149.910156 71.382812 L 213.613281 71.382812 L 213.613281 187.699219 L 147.414062 187.699219 L 142.417969 202.707031 L 82.460938 202.707031 L 77.464844 187.699219 Z M 11.265625 187.699219 " fill-opacity="1" fill-rule="nonzero"/><path fill="#79b85d" d="M 63.726562 150.179688 L 161.152344 150.179688 L 161.152344 172.691406 L 63.726562 172.691406 Z M 63.726562 150.179688 " fill-opacity="1" fill-rule="nonzero"/><g clip-path="url(#8622ceecc4)"><path fill="#09607d" d="M 101.890625 31.960938 C 100.421875 31.960938 99.050781 31.027344 98.558594 29.554688 L 94.917969 18.621094 L 82.460938 18.621094 C 80.523438 18.621094 78.949219 17.046875 78.949219 15.101562 C 78.949219 13.160156 80.523438 11.585938 82.460938 11.585938 L 97.453125 11.585938 C 98.964844 11.585938 100.304688 12.554688 100.785156 13.992188 L 105.226562 27.328125 C 105.839844 29.171875 104.84375 31.164062 103.003906 31.777344 C 102.632812 31.902344 102.261719 31.960938 101.890625 31.960938 Z M 101.890625 31.960938 " fill-opacity="1" fill-rule="nonzero"/></g><g clip-path="url(#6731dd3efa)"><path fill="#09607d" d="M 122.988281 31.960938 C 122.621094 31.960938 122.246094 31.902344 121.875 31.777344 C 120.035156 31.164062 119.042969 29.171875 119.65625 27.328125 L 124.097656 13.992188 C 124.574219 12.554688 125.917969 11.585938 127.429688 11.585938 L 142.417969 11.585938 C 144.359375 11.585938 145.929688 13.160156 145.929688 15.101562 C 145.929688 17.046875 144.359375 18.621094 142.417969 18.621094 L 129.960938 18.621094 L 126.320312 29.554688 C 125.828125 31.027344 124.457031 31.960938 122.988281 31.960938 Z M 122.988281 31.960938 " fill-opacity="1" fill-rule="nonzero"/></g><path fill="#09607d" d="M 78.585938 73.714844 C 77.925781 73.714844 77.253906 73.527344 76.660156 73.132812 L 76.53125 73.050781 C 76.527344 73.046875 76.519531 73.042969 76.515625 73.039062 L 54.285156 59.304688 C 53.632812 58.867188 53.148438 58.230469 52.898438 57.488281 L 49.152344 46.230469 C 48.539062 44.390625 49.535156 42.398438 51.375 41.78125 C 53.214844 41.167969 55.203125 42.164062 55.816406 44.007812 L 59.183594 54.117188 L 80.523438 67.257812 C 82.144531 68.324219 82.59375 70.507812 81.527344 72.128906 C 80.851562 73.15625 79.730469 73.714844 78.585938 73.714844 Z M 78.585938 73.714844 " fill-opacity="1" fill-rule="nonzero"/><path fill="#09607d" d="M 52.484375 142.441406 C 52.117188 142.441406 51.742188 142.382812 51.375 142.257812 C 49.535156 141.644531 48.539062 139.652344 49.152344 137.808594 L 52.898438 126.554688 C 53.148438 125.8125 53.632812 125.171875 54.285156 124.738281 L 76.203125 110.109375 C 77.816406 109.03125 79.996094 109.464844 81.074219 111.082031 C 82.152344 112.695312 81.714844 114.882812 80.101562 115.960938 L 79.542969 116.332031 L 59.183594 129.921875 L 55.816406 140.035156 C 55.328125 141.507812 53.957031 142.441406 52.484375 142.441406 Z M 52.484375 142.441406 " fill-opacity="1" fill-rule="nonzero"/><path fill="#09607d" d="M 74.96875 97.414062 L 48.738281 97.414062 C 48.042969 97.414062 47.367188 97.210938 46.789062 96.824219 L 35.546875 89.320312 C 33.933594 88.242188 33.496094 86.058594 34.574219 84.441406 C 35.648438 82.824219 37.832031 82.386719 39.445312 83.464844 L 49.800781 90.378906 L 74.96875 90.378906 C 76.910156 90.378906 78.480469 91.953125 78.480469 93.898438 C 78.480469 95.839844 76.910156 97.414062 74.96875 97.414062 Z M 74.96875 97.414062 " fill-opacity="1" fill-rule="nonzero"/><path fill="#09607d" d="M 145.78125 74.730469 C 144.640625 74.730469 143.519531 74.175781 142.84375 73.148438 C 141.777344 71.527344 142.226562 69.34375 143.847656 68.277344 L 143.964844 68.199219 L 165.695312 54.117188 L 169.0625 44.007812 C 169.675781 42.164062 171.664062 41.167969 173.503906 41.78125 C 175.347656 42.398438 176.339844 44.390625 175.726562 46.230469 L 171.980469 57.488281 C 171.734375 58.230469 171.246094 58.867188 170.597656 59.300781 L 147.855469 74.054688 C 147.851562 74.058594 147.84375 74.0625 147.839844 74.066406 L 147.710938 74.152344 C 147.117188 74.542969 146.445312 74.730469 145.78125 74.730469 Z M 145.78125 74.730469 " fill-opacity="1" fill-rule="nonzero"/><path fill="#09607d" d="M 172.394531 142.441406 C 170.921875 142.441406 169.554688 141.507812 169.0625 140.035156 L 165.695312 129.921875 L 144.777344 115.960938 C 143.164062 114.882812 142.730469 112.695312 143.808594 111.082031 C 144.882812 109.464844 147.066406 109.03125 148.679688 110.109375 L 149.238281 110.484375 L 170.597656 124.738281 C 171.246094 125.171875 171.734375 125.8125 171.980469 126.554688 L 175.726562 137.808594 C 176.339844 139.652344 175.347656 141.644531 173.503906 142.257812 C 173.136719 142.382812 172.761719 142.441406 172.394531 142.441406 Z M 172.394531 142.441406 " fill-opacity="1" fill-rule="nonzero"/><path fill="#09607d" d="M 176.140625 97.414062 L 149.910156 97.414062 C 147.972656 97.414062 146.398438 95.839844 146.398438 93.898438 C 146.398438 91.953125 147.972656 90.378906 149.910156 90.378906 L 175.078125 90.378906 L 185.433594 83.464844 C 187.050781 82.386719 189.230469 82.824219 190.304688 84.441406 C 191.382812 86.058594 190.945312 88.242188 189.332031 89.320312 L 178.089844 96.824219 C 177.511719 97.210938 176.835938 97.414062 176.140625 97.414062 Z M 176.140625 97.414062 " fill-opacity="1" fill-rule="nonzero"/><path fill="#4db8e5" d="M 48.738281 172.457031 L 26.253906 172.457031 C 24.316406 172.457031 22.742188 170.882812 22.742188 168.9375 C 22.742188 166.996094 24.316406 165.421875 26.253906 165.421875 L 48.738281 165.421875 C 50.679688 165.421875 52.25 166.996094 52.25 168.9375 C 52.25 170.882812 50.679688 172.457031 48.738281 172.457031 Z M 48.738281 172.457031 " fill-opacity="1" fill-rule="nonzero"/><path fill="#4db8e5" d="M 48.738281 157.449219 L 26.253906 157.449219 C 24.316406 157.449219 22.742188 155.875 22.742188 153.929688 C 22.742188 151.988281 24.316406 150.414062 26.253906 150.414062 L 48.738281 150.414062 C 50.679688 150.414062 52.25 151.988281 52.25 153.929688 C 52.25 155.875 50.679688 157.449219 48.738281 157.449219 Z M 48.738281 157.449219 " fill-opacity="1" fill-rule="nonzero"/><path fill="#4db8e5" d="M 198.625 172.457031 L 176.140625 172.457031 C 174.203125 172.457031 172.628906 170.882812 172.628906 168.9375 C 172.628906 166.996094 174.203125 165.421875 176.140625 165.421875 L 198.625 165.421875 C 200.566406 165.421875 202.136719 166.996094 202.136719 168.9375 C 202.136719 170.882812 200.566406 172.457031 198.625 172.457031 Z M 198.625 172.457031 " fill-opacity="1" fill-rule="nonzero"/><path fill="#4db8e5" d="M 198.625 157.449219 L 176.140625 157.449219 C 174.203125 157.449219 172.628906 155.875 172.628906 153.929688 C 172.628906 151.988281 174.203125 150.414062 176.140625 150.414062 L 198.625 150.414062 C 200.566406 150.414062 202.136719 151.988281 202.136719 153.929688 C 202.136719 155.875 200.566406 157.449219 198.625 157.449219 Z M 198.625 157.449219 " fill-opacity="1" fill-rule="nonzero"/><path fill="#4db8e5" d="M 198.625 123.679688 L 179.890625 123.679688 C 177.949219 123.679688 176.375 122.105469 176.375 120.160156 C 176.375 118.21875 177.949219 116.644531 179.890625 116.644531 L 198.625 116.644531 C 200.566406 116.644531 202.136719 118.21875 202.136719 120.160156 C 202.136719 122.105469 200.566406 123.679688 198.625 123.679688 Z M 198.625 123.679688 " fill-opacity="1" fill-rule="nonzero"/><path fill="#4db8e5" d="M 198.625 138.6875 L 187.382812 138.6875 C 185.441406 138.6875 183.871094 137.113281 183.871094 135.171875 C 183.871094 133.226562 185.441406 131.652344 187.382812 131.652344 L 198.625 131.652344 C 200.566406 131.652344 202.136719 133.226562 202.136719 135.171875 C 202.136719 137.113281 200.566406 138.6875 198.625 138.6875 Z M 198.625 138.6875 " fill-opacity="1" fill-rule="nonzero"/><path fill="#4db8e5" d="M 37.496094 138.6875 L 26.253906 138.6875 C 24.316406 138.6875 22.742188 137.113281 22.742188 135.171875 C 22.742188 133.226562 24.316406 131.652344 26.253906 131.652344 L 37.496094 131.652344 C 39.4375 131.652344 41.007812 133.226562 41.007812 135.171875 C 41.007812 137.113281 39.4375 138.6875 37.496094 138.6875 Z M 37.496094 138.6875 " fill-opacity="1" fill-rule="nonzero"/><path fill="#4db8e5" d="M 198.625 108.671875 L 176.140625 108.671875 C 174.203125 108.671875 172.628906 107.097656 172.628906 105.152344 C 172.628906 103.210938 174.203125 101.636719 176.140625 101.636719 L 198.625 101.636719 C 200.566406 101.636719 202.136719 103.210938 202.136719 105.152344 C 202.136719 107.097656 200.566406 108.671875 198.625 108.671875 Z M 198.625 108.671875 " fill-opacity="1" fill-rule="nonzero"/><path fill="#4db8e5" d="M 44.992188 123.679688 L 26.253906 123.679688 C 24.316406 123.679688 22.742188 122.105469 22.742188 120.160156 C 22.742188 118.21875 24.316406 116.644531 26.253906 116.644531 L 44.992188 116.644531 C 46.929688 116.644531 48.503906 118.21875 48.503906 120.160156 C 48.503906 122.105469 46.929688 123.679688 44.992188 123.679688 Z M 44.992188 123.679688 " fill-opacity="1" fill-rule="nonzero"/><path fill="#4db8e5" d="M 48.738281 108.671875 L 26.253906 108.671875 C 24.316406 108.671875 22.742188 107.097656 22.742188 105.152344 C 22.742188 103.210938 24.316406 101.636719 26.253906 101.636719 L 48.738281 101.636719 C 50.679688 101.636719 52.25 103.210938 52.25 105.152344 C 52.25 107.097656 50.679688 108.671875 48.738281 108.671875 Z M 48.738281 108.671875 " fill-opacity="1" fill-rule="nonzero"/><path fill="#fa5a72" d="M 134.921875 56.375 L 89.957031 56.375 L 89.957031 47.464844 C 89.957031 39.089844 94.828125 31.851562 101.890625 28.441406 C 104.65625 27.109375 107.757812 26.359375 111.035156 26.359375 L 113.84375 26.359375 C 117.121094 26.359375 120.222656 27.109375 122.988281 28.441406 C 130.050781 31.851562 134.921875 39.089844 134.921875 47.464844 Z M 134.921875 56.375 " fill-opacity="1" fill-rule="nonzero"/><path fill="#ea3f57" d="M 112.441406 56.375 L 112.441406 131.417969 L 105.320312 131.417969 C 101.054688 131.417969 96.992188 130.535156 93.308594 128.945312 C 91.164062 128.019531 89.148438 126.851562 87.292969 125.480469 C 84.046875 123.074219 81.292969 120.039062 79.21875 116.550781 C 78.617188 115.539062 78.074219 114.488281 77.59375 113.40625 C 77.105469 112.316406 76.679688 111.1875 76.324219 110.03125 C 75.8125 108.378906 75.4375 106.667969 75.214844 104.910156 C 75.066406 103.757812 74.984375 102.589844 74.972656 101.402344 C 74.96875 101.277344 74.96875 101.152344 74.96875 101.027344 L 74.96875 70.902344 C 74.96875 70.25 75.011719 69.601562 75.09375 68.96875 C 76.039062 61.859375 82.117188 56.375 89.476562 56.375 Z M 112.441406 56.375 " fill-opacity="1" fill-rule="nonzero"/><path fill="#c1191f" d="M 149.910156 70.902344 L 149.910156 101.027344 C 149.910156 101.152344 149.910156 101.277344 149.910156 101.402344 C 149.894531 102.589844 149.8125 103.757812 149.664062 104.910156 C 149.441406 106.667969 149.070312 108.378906 148.554688 110.03125 C 148.199219 111.1875 147.773438 112.316406 147.289062 113.40625 C 146.804688 114.488281 146.261719 115.539062 145.660156 116.550781 C 143.585938 120.039062 140.832031 123.074219 137.585938 125.480469 C 135.734375 126.851562 133.71875 128.019531 131.570312 128.945312 C 127.886719 130.535156 123.828125 131.417969 119.558594 131.417969 L 112.441406 131.417969 L 112.441406 56.375 L 135.40625 56.375 C 141.464844 56.375 146.65625 60.097656 148.824219 65.382812 C 149.292969 66.511719 149.617188 67.714844 149.785156 68.96875 C 149.867188 69.601562 149.910156 70.25 149.910156 70.902344 Z M 149.910156 70.902344 " fill-opacity="1" fill-rule="nonzero"/><path fill="#a5141f" d="M 100.59375 91.71875 L 96.847656 99.222656 C 96.359375 100.195312 95.457031 100.886719 94.394531 101.097656 L 75.660156 104.851562 C 75.511719 104.878906 75.363281 104.898438 75.214844 104.910156 C 75.066406 103.757812 74.984375 102.589844 74.972656 101.402344 C 74.96875 101.277344 74.96875 101.152344 74.96875 101.027344 L 74.96875 97.816406 L 91.328125 94.539062 L 94.308594 88.574219 C 95.175781 86.835938 97.289062 86.128906 99.023438 87 C 100.757812 87.867188 101.460938 89.980469 100.59375 91.71875 Z M 100.59375 91.71875 " fill-opacity="1" fill-rule="nonzero"/><path fill="#a5141f" d="M 100.59375 72.957031 L 96.847656 80.460938 C 96.359375 81.433594 95.457031 82.125 94.394531 82.335938 L 75.65625 86.089844 C 75.425781 86.136719 75.195312 86.160156 74.96875 86.160156 L 74.96875 79.054688 L 91.328125 75.777344 L 94.308594 69.8125 C 95.175781 68.074219 97.289062 67.371094 99.023438 68.238281 C 100.757812 69.105469 101.460938 71.21875 100.59375 72.957031 Z M 100.59375 72.957031 " fill-opacity="1" fill-rule="nonzero"/><path fill="#a5141f" d="M 100.964844 112.65625 L 100.964844 116.410156 C 100.964844 117.105469 100.757812 117.78125 100.375 118.359375 L 93.496094 128.6875 C 93.4375 128.777344 93.375 128.863281 93.308594 128.945312 C 91.164062 128.019531 89.148438 126.851562 87.292969 125.480469 C 87.386719 125.238281 87.503906 125.007812 87.652344 124.785156 L 93.9375 115.34375 L 93.9375 112.65625 C 93.9375 110.714844 95.511719 109.140625 97.453125 109.140625 C 99.390625 109.140625 100.964844 110.714844 100.964844 112.65625 Z M 100.964844 112.65625 " fill-opacity="1" fill-rule="nonzero"/><path fill="#a5141f" d="M 149.910156 97.816406 L 149.910156 101.027344 C 149.910156 101.152344 149.910156 101.277344 149.910156 101.402344 C 149.894531 102.589844 149.8125 103.757812 149.664062 104.910156 C 149.515625 104.898438 149.367188 104.878906 149.21875 104.851562 L 130.488281 101.097656 C 129.421875 100.886719 128.519531 100.195312 128.035156 99.222656 L 124.285156 91.71875 C 123.417969 89.980469 124.121094 87.867188 125.859375 87 C 127.59375 86.128906 129.703125 86.835938 130.570312 88.574219 L 133.550781 94.539062 Z M 149.910156 97.816406 " fill-opacity="1" fill-rule="nonzero"/><path fill="#a5141f" d="M 149.910156 79.054688 L 149.910156 86.160156 C 149.683594 86.160156 149.453125 86.136719 149.222656 86.089844 L 130.488281 82.335938 C 129.421875 82.125 128.519531 81.433594 128.035156 80.460938 L 124.285156 72.957031 C 123.417969 71.21875 124.121094 69.105469 125.859375 68.238281 C 127.59375 67.371094 129.703125 68.074219 130.570312 69.8125 L 133.550781 75.777344 Z M 149.910156 79.054688 " fill-opacity="1" fill-rule="nonzero"/><path fill="#a5141f" d="M 137.585938 125.480469 C 135.734375 126.851562 133.71875 128.019531 131.570312 128.945312 C 131.503906 128.863281 131.441406 128.777344 131.382812 128.6875 L 124.503906 118.359375 C 124.121094 117.78125 123.914062 117.105469 123.914062 116.410156 L 123.914062 112.65625 C 123.914062 110.714844 125.488281 109.140625 127.429688 109.140625 C 129.371094 109.140625 130.941406 110.714844 130.941406 112.65625 L 130.941406 115.34375 L 137.226562 124.785156 C 137.375 125.007812 137.496094 125.238281 137.585938 125.480469 Z M 137.585938 125.480469 " fill-opacity="1" fill-rule="nonzero"/></svg>