<svg width="300" height="300" viewBox="0 0 300 300" fill="none" xmlns="http://www.w3.org/2000/svg">
<mask id="mask0_329_9898" style="mask-type:luminance" maskUnits="userSpaceOnUse" x="202" y="166" width="98" height="95">
<path d="M202.138 166.339H300V260.166H202.138V166.339Z" fill="white"/>
</mask>
<g mask="url(#mask0_329_9898)">
<path fill-rule="evenodd" clip-rule="evenodd" d="M289.679 255.324H213.733C208.038 255.324 203.371 250.964 203.371 245.64V215.471C203.371 190.664 225.123 170.351 251.706 170.351C278.289 170.351 300.041 190.664 300.041 215.471V245.64C300.041 250.964 295.374 255.324 289.679 255.324Z" fill="#19CFBA"/>
</g>
<path fill-rule="evenodd" clip-rule="evenodd" d="M239.206 224.132L251.706 238.252L264.206 224.132L251.706 170.351L239.206 224.132Z" fill="#FFBF31"/>
<path fill-rule="evenodd" clip-rule="evenodd" d="M48.3774 170.351C61.1858 170.351 71.5477 160.667 71.5477 148.727C71.5477 136.767 61.1858 127.083 48.3774 127.083C35.5895 127.083 25.207 136.767 25.207 148.727C25.207 160.667 35.5895 170.351 48.3774 170.351Z" fill="#F0B16E"/>
<mask id="mask1_329_9898" style="mask-type:luminance" maskUnits="userSpaceOnUse" x="0" y="166" width="97" height="95">
<path d="M0 166.339H96.8754V260.166H0V166.339Z" fill="white"/>
</mask>
<g mask="url(#mask1_329_9898)">
<path fill-rule="evenodd" clip-rule="evenodd" d="M86.3489 255.324H10.4234C4.70792 255.324 0.0615234 250.964 0.0615234 245.64V215.471C0.0615234 190.664 21.7927 170.351 48.3759 170.351C74.959 170.351 96.7108 190.664 96.7108 215.471V245.64C96.7108 250.964 92.0644 255.324 86.3489 255.324Z" fill="#4187B5"/>
</g>
<path fill-rule="evenodd" clip-rule="evenodd" d="M35.877 224.132L48.377 238.252L60.8771 224.132L48.377 170.351L35.877 224.132Z" fill="#FFBF31"/>
<path fill-rule="evenodd" clip-rule="evenodd" d="M74.1369 17.9977H157.484C169.511 17.9977 179.38 26.0802 179.38 35.9568V69.8881C179.38 79.7647 169.511 87.8472 157.484 87.8472H91.9207C83.9231 87.8472 77.0563 90.2199 71.4847 94.9074L52.2412 111.034V35.9568C52.2412 26.0802 62.0891 17.9977 74.1369 17.9977Z" fill="#4187B5"/>
<mask id="mask2_329_9898" style="mask-type:luminance" maskUnits="userSpaceOnUse" x="123" y="0" width="132" height="113">
<path d="M123.189 0H254.769V112.018H123.189V0Z" fill="white"/>
</mask>
<g mask="url(#mask2_329_9898)">
<path fill-rule="evenodd" clip-rule="evenodd" d="M229.481 0.0193329H146.154C134.107 0.0193329 124.238 8.10189 124.238 17.9977V51.9098C124.238 61.7863 134.107 69.8689 146.154 69.8689H211.698C219.695 69.8689 228.494 70.8141 232.133 76.9291L251.377 109.163V17.9977C251.377 8.10189 241.529 0.0193329 229.481 0.0193329Z" fill="#19CFBA"/>
</g>
<path fill-rule="evenodd" clip-rule="evenodd" d="M181.168 100.096H198.664V201.447H181.271L181.168 201.37V100.096ZM142.702 122.396H160.198V191.127C154.462 189.931 148.52 189.757 142.702 190.625V122.396ZM104.235 144.695H121.711V199.151C120.724 199.884 119.758 200.637 118.832 201.447H104.235V144.695Z" fill="#60B7FE"/>
<mask id="mask3_329_9898" style="mask-type:luminance" maskUnits="userSpaceOnUse" x="81" y="161" width="143" height="139">
<path d="M81.0869 161.4H223.193V300H81.0869V161.4Z" fill="white"/>
</mask>
<g mask="url(#mask3_329_9898)">
<path fill-rule="evenodd" clip-rule="evenodd" d="M169.844 183.854C175.703 185.899 181.11 188.85 185.839 192.496L204.157 188.85C204.856 188.715 205.514 189.005 205.864 189.564L218.364 209.78C218.713 210.359 218.652 211.034 218.179 211.516L205.658 224.498C206.666 230.228 206.666 236.053 205.658 241.782L218.179 254.765C218.652 255.247 218.713 255.922 218.364 256.501L205.864 276.717C205.514 277.276 204.856 277.566 204.157 277.411L185.86 273.785C181.11 277.43 175.703 280.382 169.844 282.427L164.067 299.035C163.841 299.653 163.244 300.058 162.545 300.058H137.545C136.846 300.058 136.25 299.653 136.044 299.035L130.267 282.427C124.387 280.382 119.001 277.43 114.252 273.785L95.9332 277.411C95.2547 277.546 94.5763 277.276 94.2268 276.717L81.7267 256.501C81.3772 255.922 81.4595 255.247 81.9323 254.765L94.4529 241.782C93.425 236.053 93.425 230.228 94.4529 224.498L81.9323 211.516C81.4595 211.034 81.3772 210.359 81.7267 209.78L94.2268 189.564C94.5763 189.005 95.2547 188.715 95.9332 188.85L114.252 192.496C119.001 188.85 124.387 185.899 130.267 183.854L136.044 167.245C136.25 166.609 136.846 166.223 137.545 166.223C145.872 166.223 154.219 166.223 162.545 166.223C163.244 166.223 163.841 166.609 164.067 167.245L169.844 183.854ZM150.045 199.479C130.144 199.479 114.005 214.545 114.005 233.14C114.005 251.736 130.144 266.802 150.045 266.802C169.967 266.802 186.106 251.736 186.106 233.14C186.106 214.545 169.967 199.479 150.045 199.479Z" fill="#FFBF31"/>
</g>
<path fill-rule="evenodd" clip-rule="evenodd" d="M163.86 217.033C166.347 218.171 167.396 220.968 166.183 223.302C164.97 225.617 161.948 226.582 159.46 225.463C155.78 223.785 149.838 222.627 145.644 224.286V224.306C142.704 225.463 143.156 226.466 145.685 227.643V227.623C149.859 229.302 152.161 227.527 158.535 230.035C163.119 231.867 166.429 235.436 166.717 240.046C166.738 240.239 166.738 240.432 166.717 240.625C166.265 246.682 161.084 250.347 155.06 251.64C155.06 258.256 145.027 258.063 145.027 251.775C142.005 251.331 139.024 250.482 136.269 249.286C133.74 248.187 132.651 245.409 133.822 243.056C134.994 240.702 137.975 239.699 140.504 240.779C144.205 242.4 150.455 243.75 154.526 242.014C155.369 241.667 156.684 240.895 156.664 240.297C156.664 239.796 155.41 238.966 154.608 238.657C150.332 236.979 147.864 238.696 141.717 236.246L141.738 236.227C130.677 231.597 130.944 219.965 141.758 215.683V215.702C142.807 215.258 143.896 214.931 145.027 214.68C145.027 207.986 155.06 208.237 155.06 214.506C158.206 214.95 161.146 215.799 163.86 217.033Z" fill="#60B7FE"/>
<path fill-rule="evenodd" clip-rule="evenodd" d="M251.706 170.351C264.494 170.351 274.877 160.667 274.877 148.727C274.877 136.767 264.494 127.083 251.706 127.083C238.919 127.083 228.536 136.767 228.536 148.727C228.536 160.667 238.919 170.351 251.706 170.351Z" fill="#F0B16E"/>
</svg>
