<svg xmlns="http://www.w3.org/2000/svg" xmlns:xlink="http://www.w3.org/1999/xlink" width="500" zoomAndPan="magnify" viewBox="0 0 375 374.999991" height="500" preserveAspectRatio="xMidYMid meet" version="1.0"><defs><clipPath id="1f81483442"><path d="M 4 9.375 L 371 9.375 L 371 375 L 4 375 Z M 4 9.375 " clip-rule="nonzero"/></clipPath></defs><g clip-path="url(#1f81483442)"><path fill="#004aad" d="M 248.65625 313.828125 L 240.351562 313.828125 L 240.351562 313.804688 C 233.203125 313.804688 231.21875 320.792969 233.09375 325.507812 C 234.117188 328.097656 236.535156 330.109375 240.351562 330.109375 L 248.65625 330.109375 Z M 240.351562 302.820312 L 240.351562 302.796875 L 254.15625 302.796875 L 254.15625 302.820312 L 283.167969 302.820312 C 284.019531 299.914062 284.863281 296.539062 285.785156 293.019531 C 287.0625 287.953125 288.441406 282.585938 290.09375 277.335938 L 271.152344 201.304688 C 246.960938 201.304688 222.769531 201.304688 198.578125 201.304688 C 203.132812 213.03125 193.488281 227.640625 178.941406 223.753906 L 168.058594 220.832031 C 167.304688 220.625 166.609375 220.292969 166.050781 219.820312 C 165.671875 219.710938 143.980469 221.34375 129.039062 212.46875 C 123.585938 209.253906 120.152344 205.253906 118.433594 201.304688 L 97.347656 201.304688 L 81.066406 266.683594 C 84.730469 274.949219 87.140625 284.421875 89.332031 293.019531 C 90.222656 296.546875 91.074219 299.921875 91.925781 302.820312 L 123.871094 302.820312 L 123.871094 302.796875 L 137.699219 302.796875 L 137.699219 302.820312 C 153.003906 302.820312 159.808594 317.808594 155.144531 329.558594 C 152.578125 336.035156 146.746094 341.109375 137.699219 341.109375 L 82.257812 341.109375 L 82.257812 341.132812 L 62.582031 341 L 56.835938 363.984375 L 311.648438 363.984375 L 305.925781 341 L 292.835938 341.132812 L 292.835938 341.109375 L 240.351562 341.109375 C 225.023438 341.109375 218.214844 326.121094 222.878906 314.347656 C 225.449219 307.863281 231.28125 302.820312 240.351562 302.820312 Z M 259.648438 313.851562 L 259.648438 330.117188 L 292.835938 330.117188 L 292.835938 330.09375 C 302.664062 330.09375 298.9375 330.472656 302.089844 330.007812 C 304.011719 329.738281 305.949219 330.164062 308.519531 327.59375 L 325.609375 310.503906 C 327.777344 308.359375 331.261719 308.359375 333.402344 310.503906 C 335.570312 312.648438 335.570312 316.152344 333.402344 318.296875 L 321.742188 329.957031 L 356.027344 329.957031 L 356.027344 269.78125 C 356.027344 261.988281 349.613281 255.597656 341.820312 255.597656 L 322.472656 255.597656 C 306.171875 255.597656 300.605469 279.410156 296.054688 297.320312 L 310.015625 283.339844 C 312.183594 281.199219 315.664062 281.199219 317.832031 283.339844 C 319.976562 285.507812 319.976562 288.992188 317.832031 291.160156 L 300.75 308.25 C 297.171875 311.804688 292.152344 313.875 287.171875 313.851562 Z M 118.371094 330.117188 L 118.371094 313.851562 L 87.90625 313.851562 C 82.949219 313.875 77.921875 311.796875 74.367188 308.25 L 57.277344 291.160156 C 55.109375 288.992188 55.109375 285.507812 57.277344 283.339844 C 59.421875 281.199219 62.925781 281.199219 65.070312 283.339844 L 79.050781 297.320312 C 74.472656 279.410156 68.933594 255.597656 52.605469 255.597656 L 33.269531 255.597656 C 25.472656 255.597656 19.058594 261.988281 19.058594 269.78125 L 19.058594 329.957031 L 53.34375 329.957031 L 41.683594 318.296875 C 39.539062 316.152344 39.539062 312.648438 41.683594 310.503906 C 43.828125 308.359375 47.332031 308.359375 49.476562 310.503906 L 66.566406 327.59375 C 69.355469 330.382812 71.390625 329.628906 73.558594 330.117188 C 74.785156 330.382812 74.496094 330.09375 82.25 330.09375 L 82.25 330.117188 Z M 137.691406 313.804688 L 137.691406 313.828125 L 129.363281 313.828125 L 129.363281 330.109375 L 137.691406 330.109375 C 144.816406 330.109375 146.800781 323.117188 144.925781 318.40625 C 143.902344 315.824219 141.488281 313.804688 137.691406 313.804688 Z M 221.878906 43 C 218.824219 43 216.363281 40.515625 216.363281 37.480469 C 216.363281 34.449219 218.824219 31.964844 221.878906 31.964844 L 254.132812 31.964844 C 257.164062 31.964844 259.648438 34.449219 259.648438 37.480469 C 259.648438 40.523438 257.164062 43 254.132812 43 Z M 235.1875 72.082031 C 232.15625 72.082031 229.671875 69.601562 229.671875 66.566406 C 229.671875 63.53125 232.15625 61.050781 235.1875 61.050781 L 254.132812 61.050781 C 257.164062 61.050781 259.648438 63.53125 259.648438 66.566406 C 259.648438 69.601562 257.164062 72.082031 254.132812 72.082031 Z M 271.554688 72.082031 C 268.496094 72.082031 266.039062 69.601562 266.039062 66.566406 C 266.039062 63.53125 268.496094 61.050781 271.554688 61.050781 L 320.472656 61.050781 C 323.53125 61.050781 325.988281 63.53125 325.988281 66.566406 C 325.988281 69.601562 323.53125 72.082031 320.472656 72.082031 Z M 271.554688 43 C 268.496094 43 266.039062 40.515625 266.039062 37.480469 C 266.039062 34.449219 268.496094 31.964844 271.554688 31.964844 L 320.472656 31.964844 C 323.53125 31.964844 325.988281 34.449219 325.988281 37.480469 C 325.988281 40.523438 323.53125 43 320.472656 43 Z M 297.21875 260.425781 C 301.039062 253.925781 305.996094 248.742188 312.789062 246.242188 C 312.496094 241.847656 312.945312 238.851562 313.617188 235.117188 C 304.144531 234.847656 297.621094 229.554688 294.878906 220.445312 C 290.324219 205.277344 297.265625 181.179688 303.863281 169.761719 C 298.835938 157.476562 306.320312 144.925781 317.839844 143.742188 C 323.757812 143.121094 330.171875 145.640625 335.042969 152.789062 C 336.785156 155.378906 338.996094 156.988281 341.992188 157.878906 C 363.007812 164.160156 374.914062 191.46875 368.679688 212.335938 C 366.332031 220.261719 361.425781 227.347656 353.402344 232.265625 C 351.660156 233.421875 350.359375 233.785156 349.652344 236.441406 C 349.070312 238.558594 348.871094 241.53125 348.824219 245.558594 C 359.453125 248.640625 367.074219 258.464844 367.074219 269.796875 L 367.074219 335.492188 C 367.074219 338.546875 364.589844 341.007812 361.558594 341.007812 L 317.289062 341.007812 L 324.058594 368.191406 C 324.910156 371.652344 322.269531 375.007812 318.722656 375.007812 L 318.722656 375.03125 L 49.800781 375.03125 C 46.246094 375.03125 43.433594 371.722656 44.550781 367.796875 L 51.234375 341.015625 L 13.566406 341.015625 C 10.511719 341.015625 8.050781 338.554688 8.050781 335.5 L 8.050781 269.804688 C 8.050781 258.480469 15.671875 248.65625 26.277344 245.566406 C 26.253906 241.546875 26.058594 238.574219 25.472656 236.449219 C 24.757812 233.792969 23.464844 233.429688 21.699219 232.273438 C 13.703125 227.355469 8.792969 220.277344 6.421875 212.34375 C 0.1875 191.476562 12.09375 164.167969 33.109375 157.886719 C 36.105469 156.996094 38.335938 155.386719 40.074219 152.796875 C 48.765625 140 63.707031 141.496094 70.136719 152.039062 C 73.046875 156.824219 73.960938 163.164062 71.257812 169.777344 C 79.277344 183.714844 91.320312 225.332031 68.492188 233.839844 C 66.394531 234.621094 64.070312 235.070312 61.476562 235.132812 C 62.148438 238.859375 62.597656 241.855469 62.328125 246.257812 C 66.527344 247.804688 70.011719 250.371094 72.980469 253.648438 L 87.703125 194.503906 C 88.324219 191.984375 90.585938 190.304688 93.035156 190.304688 L 117.15625 190.304688 C 117.289062 173.890625 118.675781 160.390625 125.058594 150.371094 C 131.609375 140.070312 142.796875 134.019531 162.117188 133.167969 C 158.902344 130.171875 156.226562 126.605469 153.988281 122.695312 C 149.410156 114.5625 146.902344 104.894531 146.035156 95.871094 L 145.679688 87.738281 C 145.679688 87.25 145.746094 86.777344 145.878906 86.328125 C 146.523438 75.738281 150.726562 66.179688 157.140625 59.035156 C 167.328125 47.625 182.597656 42.816406 197.035156 47.601562 L 197.035156 30.335938 C 197.035156 18.320312 207.957031 9.382812 220.042969 9.382812 L 321.851562 9.382812 C 333.9375 9.382812 344.859375 18.320312 344.859375 30.335938 L 344.859375 75.660156 C 344.859375 87.675781 333.9375 96.613281 321.851562 96.613281 L 279.054688 96.613281 C 270.011719 107.351562 261.34375 119.195312 251.5625 128.265625 C 247.742188 131.796875 241.625 128.511719 242.40625 123.394531 C 243.953125 113.546875 242.808594 104.792969 236.488281 96.613281 L 225.410156 96.613281 C 224 110.503906 219.175781 125.453125 208.523438 134.429688 L 210.242188 134.492188 C 221.699219 134.894531 229.964844 138.910156 235.882812 144.097656 C 246.449219 153.347656 249.214844 166.765625 249.214844 169.445312 L 249.214844 190.289062 L 275.4375 190.289062 C 278.164062 190.289062 280.417969 192.25 280.890625 194.84375 Z M 323.734375 244.566406 L 337.847656 244.566406 C 337.957031 236.566406 338.589844 229.355469 344.664062 224.753906 C 344.261719 215.683594 342.179688 208.878906 339.078125 203.9375 C 335.277344 197.925781 329.847656 194.683594 324.246094 193.503906 C 323.820312 193.433594 323.394531 193.296875 322.992188 193.125 C 317.40625 190.691406 312.921875 187.363281 309.699219 183.054688 C 306.28125 192.039062 302.53125 207.671875 305.4375 217.300781 C 306.328125 220.320312 307.9375 222.597656 310.441406 223.535156 C 312.386719 224.25 314.996094 224.359375 318.4375 223.714844 C 321.09375 222.304688 323.332031 220.941406 325.160156 219.671875 C 326.972656 218.378906 328.3125 217.214844 329.179688 216.140625 C 331.101562 213.792969 334.5625 213.464844 336.910156 215.386719 C 339.257812 217.308594 339.589844 220.769531 337.667969 223.117188 C 334.632812 226.804688 329.898438 229.949219 325.269531 232.515625 C 324.539062 236.675781 323.640625 240.363281 323.734375 244.566406 Z M 314.824219 167.191406 C 316.210938 169.421875 315.382812 172.804688 319.132812 177.261719 C 320.984375 179.476562 323.578125 181.304688 326.902344 182.828125 C 335.082031 184.65625 342.898438 189.390625 348.367188 198.082031 C 351.386719 202.863281 353.664062 208.820312 354.820312 216.125 C 365.609375 200.515625 355.828125 173.488281 338.847656 168.4375 C 333.394531 166.804688 329.132812 163.679688 325.917969 158.941406 C 319.402344 149.34375 309.457031 157.699219 314.824219 167.191406 Z M 37.261719 244.566406 L 51.359375 244.566406 C 51.46875 240.363281 50.554688 236.675781 49.816406 232.5 C 45.191406 229.933594 40.453125 226.78125 37.421875 223.101562 C 35.496094 220.75 35.835938 217.292969 38.175781 215.371094 C 40.523438 213.449219 43.984375 213.785156 45.90625 216.125 C 46.796875 217.199219 48.136719 218.355469 49.949219 219.65625 C 51.761719 220.933594 53.992188 222.289062 56.671875 223.699219 C 60.089844 224.34375 62.722656 224.234375 64.644531 223.519531 C 71.210938 221.058594 71.058594 209.78125 70.34375 203.28125 C 69.5625 196.183594 67.617188 188.878906 65.386719 183.046875 C 62.171875 187.355469 57.703125 190.683594 52.117188 193.117188 C 51.691406 193.296875 51.265625 193.433594 50.839844 193.496094 C 45.238281 194.675781 39.832031 197.917969 36.035156 203.929688 C 32.90625 208.859375 30.832031 215.675781 30.445312 224.746094 C 36.507812 229.355469 37.128906 236.566406 37.261719 244.566406 Z M 59.492188 169.382812 C 59.601562 168.625 59.871094 167.863281 60.296875 167.191406 C 65.628906 158.234375 55.898438 149.054688 49.167969 158.949219 C 45.976562 163.6875 41.683594 166.8125 36.261719 168.445312 C 19.289062 173.496094 9.503906 200.523438 20.265625 216.132812 C 21.449219 208.828125 23.710938 202.863281 26.71875 198.089844 C 32.1875 189.398438 40.027344 184.664062 48.183594 182.835938 C 51.507812 181.3125 54.101562 179.484375 55.953125 177.269531 C 57.632812 175.277344 59.089844 172.28125 59.492188 169.382812 Z M 208.074219 53.359375 C 218.035156 60.847656 225.03125 72.707031 225.851562 85.574219 L 239.050781 85.574219 L 239.050781 85.597656 C 240.570312 85.597656 242.066406 86.21875 243.164062 87.449219 C 249.347656 94.4375 252.636719 102.011719 253.660156 110.140625 C 256.566406 106.769531 259.464844 103.191406 262.484375 99.464844 C 265.542969 95.691406 268.71875 91.78125 272.089844 87.828125 C 273.097656 86.464844 274.707031 85.574219 276.535156 85.574219 L 321.859375 85.574219 C 327.933594 85.574219 333.828125 81.507812 333.828125 75.652344 L 333.828125 30.335938 C 333.828125 24.480469 327.933594 20.414062 321.859375 20.414062 L 220.050781 20.414062 C 213.976562 20.414062 208.082031 24.480469 208.082031 30.335938 L 208.082031 53.359375 Z M 213.921875 99.695312 C 202.777344 98.132812 190.628906 95.46875 181.976562 90.441406 C 174.515625 95.15625 166.296875 98.347656 157.628906 99.757812 C 160.171875 114.632812 168.195312 131.183594 185.796875 131.316406 C 203.851562 131.472656 211.511719 115.144531 213.921875 99.695312 Z M 178.050781 79.851562 C 178.453125 79.472656 178.902344 79.136719 179.390625 78.890625 C 186.246094 73.886719 192.1875 67.253906 196.886719 59.347656 C 178.5 50.304688 157.125 65.828125 156.832031 88.726562 C 164.429688 87.339844 171.597656 84.304688 178.050781 79.851562 Z M 191.699219 83.027344 C 198.265625 85.777344 206.710938 87.542969 214.90625 88.703125 C 215.085938 80.105469 211.445312 72.019531 205.703125 65.984375 C 201.753906 72.460938 197.019531 78.207031 191.699219 83.027344 Z M 197.019531 140.722656 C 190.003906 142.890625 181.582031 142.867188 174.59375 140.566406 C 175.238281 151.441406 196.167969 151.488281 197.019531 140.722656 Z M 207.378906 145.390625 C 202.0625 164.953125 167.933594 164.488281 163.914062 144.074219 C 147.902344 144.5625 139.054688 148.855469 134.34375 156.269531 C 128.851562 164.867188 128.085938 178.34375 128.132812 195.09375 C 128.15625 197.617188 130.253906 200.390625 134.65625 203 C 141.828125 207.246094 152.726562 209.183594 165.570312 208.828125 L 168.941406 196.230469 C 161.953125 192.117188 152.457031 188.996094 144.328125 186.515625 C 141.417969 185.640625 139.796875 182.582031 140.664062 179.683594 C 141.550781 176.773438 144.617188 175.128906 147.519531 176.019531 C 153.664062 177.871094 159.558594 179.816406 164.804688 182.007812 C 169.96875 184.148438 174.679688 186.5625 178.675781 189.46875 L 181.753906 190.296875 L 208.734375 190.296875 L 208.734375 170.925781 C 208.734375 167.894531 211.21875 165.410156 214.253906 165.410156 C 217.308594 165.410156 219.769531 167.894531 219.769531 170.925781 L 219.769531 190.296875 L 238.175781 190.296875 L 238.175781 169.453125 C 238.175781 167.761719 236.191406 158.980469 228.640625 152.363281 C 224.394531 148.652344 218.367188 145.773438 209.832031 145.484375 Z M 184.640625 202.460938 L 179.078125 200.964844 L 176.214844 211.621094 L 181.777344 213.09375 C 186.515625 214.371094 189.058594 210.28125 188.632812 206.679688 C 188.414062 204.851562 187.167969 203.132812 184.640625 202.460938 Z M 184.640625 202.460938 " fill-opacity="1" fill-rule="nonzero"/></g></svg>