<svg width="50" height="50" viewBox="0 0 50 50" fill="none" xmlns="http://www.w3.org/2000/svg">
<mask id="mask0_433_130" style="mask-type:luminance" maskUnits="userSpaceOnUse" x="0" y="1" width="50" height="49">
<path d="M0.533203 1.25H49.4665V50H0.533203V1.25Z" fill="white"/>
</mask>
<g mask="url(#mask0_433_130)">
<path d="M33.1545 41.8438H32.0472V41.8407C31.094 41.8407 30.8295 42.7725 31.0795 43.4011C31.2159 43.7464 31.5383 44.0146 32.0472 44.0146H33.1545V41.8438ZM32.0472 40.3761V40.373H33.8878V40.3761H37.756C37.8696 39.9886 37.9821 39.5386 38.105 39.0693C38.2753 38.3938 38.4591 37.6782 38.6795 36.9782L36.1539 26.8407C32.9284 26.8407 29.7029 26.8407 26.4774 26.8407C27.0847 28.4042 25.7987 30.3521 23.8591 29.8339L22.4081 29.4443C22.3076 29.4167 22.2149 29.3725 22.1404 29.3094C22.0899 29.2948 19.1977 29.5126 17.2055 28.3292C16.4784 27.9006 16.0206 27.3672 15.7914 26.8407H12.98L10.8091 35.5579C11.2977 36.66 11.619 37.923 11.9112 39.0693C12.03 39.5396 12.1435 39.9896 12.2571 40.3761H16.5164V40.373H18.3602V40.3761C20.4008 40.3761 21.3081 42.3745 20.6862 43.9412C20.344 44.8047 19.5664 45.4813 18.3602 45.4813H10.968V45.4844L8.34456 45.4667L7.57841 48.5313H41.5534L40.7904 45.4667L39.0451 45.4844V45.4813H32.0472C30.0034 45.4813 29.0956 43.4829 29.7175 41.9131C30.0602 41.0485 30.8378 40.3761 32.0472 40.3761ZM34.6201 41.8469V44.0157H39.0451V44.0126C40.3555 44.0126 39.8586 44.0631 40.2789 44.0011C40.5352 43.9652 40.7935 44.0219 41.1362 43.6792L43.4149 41.4006C43.7039 41.1146 44.1685 41.1146 44.4539 41.4006C44.743 41.6865 44.743 42.1537 44.4539 42.4396L42.8992 43.9943H47.4706V35.9709C47.4706 34.9318 46.6154 34.0797 45.5763 34.0797H42.9966C40.8232 34.0797 40.081 37.2547 39.4742 39.6428L41.3357 37.7787C41.6248 37.4933 42.0888 37.4933 42.3779 37.7787C42.6638 38.0678 42.6638 38.5323 42.3779 38.8214L40.1003 41.1001C39.6232 41.574 38.9539 41.8501 38.2899 41.8469H34.6201ZM15.7831 44.0157V41.8469H11.7211C11.0602 41.8501 10.3899 41.573 9.91591 41.1001L7.63727 38.8214C7.3482 38.5323 7.3482 38.0678 7.63727 37.7787C7.9232 37.4933 8.39039 37.4933 8.67633 37.7787L10.5404 39.6428C9.92998 37.2547 9.19143 34.0797 7.01435 34.0797H4.43623C3.39664 34.0797 2.54143 34.9318 2.54143 35.9709V43.9943H7.11279L5.5581 42.4396C5.27216 42.1537 5.27216 41.6865 5.5581 41.4006C5.84404 41.1146 6.31123 41.1146 6.59716 41.4006L8.87581 43.6792C9.24768 44.0511 9.51904 43.9506 9.8081 44.0157C9.97164 44.0511 9.9331 44.0126 10.967 44.0126V44.0157H15.7831ZM18.3591 41.8407V41.8438H17.2487V44.0146H18.3591C19.3091 44.0146 19.5737 43.0823 19.3237 42.4542C19.1873 42.11 18.8654 41.8407 18.3591 41.8407ZM29.5841 5.73339C29.1769 5.73339 28.8487 5.40214 28.8487 4.99745C28.8487 4.59329 29.1769 4.26204 29.5841 4.26204H33.8847C34.2888 4.26204 34.6201 4.59329 34.6201 4.99745C34.6201 5.40318 34.2888 5.73339 33.8847 5.73339H29.5841ZM31.3586 9.61099C30.9545 9.61099 30.6232 9.28026 30.6232 8.87558C30.6232 8.47089 30.9545 8.14016 31.3586 8.14016H33.8847C34.2888 8.14016 34.6201 8.47089 34.6201 8.87558C34.6201 9.28026 34.2888 9.61099 33.8847 9.61099H31.3586ZM36.2076 9.61099C35.7998 9.61099 35.4722 9.28026 35.4722 8.87558C35.4722 8.47089 35.7998 8.14016 36.2076 8.14016H42.73C43.1378 8.14016 43.4654 8.47089 43.4654 8.87558C43.4654 9.28026 43.1378 9.61099 42.73 9.61099H36.2076ZM36.2076 5.73339C35.7998 5.73339 35.4722 5.40214 35.4722 4.99745C35.4722 4.59329 35.7998 4.26204 36.2076 4.26204H42.73C43.1378 4.26204 43.4654 4.59329 43.4654 4.99745C43.4654 5.40318 43.1378 5.73339 42.73 5.73339H36.2076ZM39.6295 34.7235C40.1388 33.8568 40.7998 33.1657 41.7055 32.8323C41.6664 32.2464 41.7263 31.8469 41.8159 31.349C40.5529 31.3131 39.6831 30.6073 39.3175 29.3928C38.7102 27.3704 39.6357 24.1573 40.5154 22.635C39.8451 20.9969 40.843 19.3235 42.3789 19.1657C43.168 19.0829 44.0232 19.4188 44.6727 20.3719C44.905 20.7172 45.1998 20.9318 45.5992 21.0506C48.4013 21.8881 49.9888 25.5292 49.1576 28.3115C48.8446 29.3683 48.1904 30.3131 47.1206 30.9688C46.8883 31.123 46.7149 31.1714 46.6206 31.5256C46.543 31.8079 46.5164 32.2042 46.5102 32.7412C47.9274 33.1521 48.9435 34.462 48.9435 35.973V44.7323C48.9435 45.1396 48.6123 45.4678 48.2081 45.4678H42.3055L43.2081 49.0922C43.3216 49.5537 42.9696 50.0011 42.4966 50.0011V50.0042H6.64039C6.16643 50.0042 5.79143 49.5631 5.94039 49.0396L6.83154 45.4688H1.80914C1.40185 45.4688 1.07372 45.1407 1.07372 44.7334V35.974C1.07372 34.4641 2.08987 33.1542 3.50393 32.7422C3.50081 32.2063 3.47477 31.81 3.39664 31.5266C3.30133 31.1725 3.12893 31.124 2.89352 30.9698C1.82737 30.3141 1.17268 29.3704 0.856537 28.3126C0.0252874 25.5303 1.61279 21.8891 4.41487 21.0516C4.81435 20.9329 5.11175 20.7183 5.34352 20.373C6.50237 18.6667 8.49456 18.8662 9.35185 20.2719C9.73987 20.91 9.86175 21.7553 9.50133 22.637C10.5706 24.4954 12.1763 30.0443 9.13258 31.1787C8.85289 31.2829 8.543 31.3428 8.19716 31.3511C8.28675 31.848 8.34664 32.2475 8.3107 32.8344C8.8706 33.0407 9.33518 33.3829 9.73102 33.8198L11.694 25.9339C11.7769 25.598 12.0784 25.374 12.405 25.374H15.6211C15.6388 23.1855 15.8237 21.3855 16.6748 20.0495C17.5482 18.6761 19.0399 17.8693 21.6159 17.7558C21.1873 17.3563 20.8305 16.8808 20.5321 16.3594C19.9216 15.2751 19.5873 13.986 19.4716 12.7829L19.4242 11.6985C19.4242 11.6334 19.4331 11.5704 19.4508 11.5105C19.5367 10.0985 20.0972 8.82401 20.9524 7.87141C22.3107 6.35006 24.3466 5.70891 26.2716 6.34693V4.04485C26.2716 2.44277 27.7279 1.2511 29.3394 1.2511H42.9138C44.5253 1.2511 45.9815 2.44277 45.9815 4.04485V10.0881C45.9815 11.6902 44.5253 12.8818 42.9138 12.8818H37.2076C36.0019 14.3136 34.8461 15.8928 33.542 17.1021C33.0326 17.573 32.217 17.135 32.3211 16.4527C32.5274 15.1396 32.3748 13.9725 31.5321 12.8818H30.055C29.867 14.7339 29.2237 16.7271 27.8034 17.924L28.0326 17.9323C29.5602 17.986 30.6623 18.5214 31.4513 19.2131C32.8602 20.4464 33.2289 22.2355 33.2289 22.5928V25.3719H36.7253C37.0888 25.3719 37.3894 25.6334 37.4524 25.9792L39.6295 34.7235ZM43.1649 32.6089H45.0466C45.0612 31.5422 45.1456 30.5808 45.9555 29.9672C45.9019 28.7579 45.6242 27.8506 45.2107 27.1917C44.7039 26.3902 43.98 25.9579 43.2331 25.8006C43.1763 25.7912 43.1196 25.773 43.0659 25.7501C42.3211 25.4256 41.7232 24.9818 41.2935 24.4073C40.8378 25.6053 40.3378 27.6896 40.7253 28.9735C40.844 29.3761 41.0586 29.6797 41.3925 29.8047C41.6519 29.9001 41.9998 29.9146 42.4586 29.8287C42.8128 29.6407 43.1112 29.4589 43.355 29.2896C43.5966 29.1172 43.7753 28.962 43.8909 28.8188C44.1472 28.5058 44.6086 28.462 44.9216 28.7183C45.2347 28.9745 45.2789 29.436 45.0227 29.749C44.618 30.2407 43.9867 30.66 43.3696 31.0021C43.2722 31.5568 43.1524 32.0485 43.1649 32.6089ZM41.9769 22.2922C42.1617 22.5896 42.0513 23.0407 42.5513 23.635C42.7982 23.9303 43.144 24.174 43.5873 24.3771C44.6779 24.6209 45.7201 25.2521 46.4492 26.411C46.8519 27.0485 47.1555 27.8428 47.3097 28.8167C48.7482 26.7355 47.444 23.1318 45.18 22.4584C44.4529 22.2407 43.8847 21.824 43.456 21.1922C42.5873 19.9126 41.2612 21.0266 41.9769 22.2922ZM4.96852 32.6089H6.8482C6.86279 32.0485 6.74091 31.5568 6.64248 31.0001C6.02581 30.6579 5.39404 30.2376 4.98987 29.7469C4.7331 29.4334 4.77841 28.9725 5.09039 28.7162C5.40341 28.46 5.86487 28.5047 6.12112 28.8167C6.23987 28.96 6.41852 29.1141 6.66018 29.2876C6.90185 29.4579 7.19925 29.6386 7.55654 29.8266C8.01227 29.9126 8.36331 29.898 8.61956 29.8027C9.49508 29.4745 9.47477 27.9709 9.37946 27.1042C9.27529 26.1579 9.01591 25.1839 8.71852 24.4063C8.28987 24.9808 7.69404 25.4245 6.94925 25.749C6.89248 25.773 6.8357 25.7912 6.77893 25.7995C6.03206 25.9568 5.31123 26.3891 4.80498 27.1907C4.38779 27.848 4.11123 28.7568 4.05966 29.9662C4.868 30.5808 4.95081 31.5422 4.96852 32.6089ZM7.93258 22.5844C7.94716 22.4834 7.9831 22.3818 8.03987 22.2922C8.75081 21.098 7.45341 19.874 6.55602 21.1933C6.1305 21.8251 5.5581 22.2417 4.83518 22.4594C2.57216 23.1329 1.26748 26.7365 2.70237 28.8178C2.86018 27.8438 3.16175 27.0485 3.56279 26.412C4.29195 25.2532 5.33727 24.6219 6.42477 24.3782C6.868 24.1751 7.21383 23.9313 7.4607 23.636C7.68466 23.3704 7.87893 22.9709 7.93258 22.5844ZM27.7435 7.11464C29.0716 8.11308 30.0045 9.69433 30.1138 11.41H31.8737V11.4131C32.0763 11.4131 32.2758 11.4959 32.4222 11.66C33.2466 12.5917 33.6852 13.6016 33.8216 14.6855C34.2091 14.236 34.5956 13.7589 34.9982 13.262C35.406 12.7589 35.8295 12.2376 36.2789 11.7105C36.4133 11.5287 36.6279 11.41 36.8716 11.41H42.9149C43.7248 11.41 44.5107 10.8678 44.5107 10.087V4.04485C44.5107 3.26412 43.7248 2.72193 42.9149 2.72193H29.3404C28.5305 2.72193 27.7446 3.26412 27.7446 4.04485V7.11464H27.7435ZM28.5232 13.2928C27.0373 13.0844 25.4175 12.7292 24.2638 12.0589C23.269 12.6876 22.1732 13.1131 21.0175 13.3011C21.3565 15.2844 22.4263 17.4912 24.7732 17.5089C27.1805 17.5297 28.2019 15.3527 28.5232 13.2928ZM23.7404 10.6469C23.794 10.5964 23.8539 10.5516 23.919 10.5188C24.8331 9.85162 25.6253 8.96724 26.2519 7.91308C23.8003 6.70735 20.9503 8.77714 20.9112 11.8303C21.9242 11.6454 22.88 11.2407 23.7404 10.6469ZM25.5602 11.0704C26.4357 11.437 27.5617 11.6725 28.6545 11.8271C28.6784 10.6808 28.193 9.60266 27.4274 8.79797C26.9008 9.66151 26.2696 10.4277 25.5602 11.0704ZM26.2696 18.7631C25.3341 19.0521 24.2112 19.049 23.2795 18.7422C23.3654 20.1922 26.156 20.1985 26.2696 18.7631ZM27.6508 19.3855C26.942 21.9938 22.3914 21.9318 21.8555 19.21C19.7206 19.2751 18.5409 19.8475 17.9128 20.836C17.1805 21.9823 17.0784 23.7792 17.0847 26.0126C17.0878 26.349 17.3675 26.7188 17.9545 27.0667C18.9107 27.6329 20.3638 27.8912 22.0763 27.8438L22.5258 26.1641C21.594 25.6157 20.3279 25.1995 19.244 24.8688C18.856 24.7521 18.6399 24.3443 18.7555 23.9579C18.8737 23.5698 19.2826 23.3506 19.6696 23.4693C20.4888 23.7162 21.2748 23.9756 21.9742 24.2678C22.6628 24.5532 23.2909 24.8751 23.8237 25.2626L24.2341 25.373H27.8315V22.7902C27.8315 22.386 28.1628 22.0547 28.5675 22.0547C28.9748 22.0547 29.3029 22.386 29.3029 22.7902V25.373H31.7571V22.5938C31.7571 22.3683 31.4925 21.1975 30.4857 20.3152C29.9196 19.8204 29.1159 19.4365 27.9779 19.398L27.6508 19.3855ZM24.619 26.9948L23.8774 26.7954L23.4956 28.2162L24.2373 28.4126C24.869 28.5829 25.2081 28.0376 25.1513 27.5573C25.1222 27.3136 24.956 27.0844 24.619 26.9948Z" fill="#004AAD"/>
</g>
</svg>
