<svg width="50" height="50" viewBox="0 0 50 50" fill="none" xmlns="http://www.w3.org/2000/svg">
<g clip-path="url(#clip0_433_179)">
<mask id="mask0_433_179" style="mask-type:luminance" maskUnits="userSpaceOnUse" x="0" y="3" width="50" height="47">
<path d="M0 3.02856H50V49.1286H0V3.02856Z" fill="white"/>
</mask>
<g mask="url(#mask0_433_179)">
<path d="M20.2424 40.4938C18.9174 39.2948 17.3606 38.4157 15.6846 37.899C17.4622 36.7292 18.6393 34.7172 18.6393 32.4344C18.6393 28.8292 15.7065 25.8964 12.1013 25.8964C8.49658 25.8964 5.56376 28.8292 5.56376 32.4344C5.56376 34.7167 6.74085 36.7292 8.51897 37.899C6.84241 38.4157 5.28564 39.2948 3.96064 40.4938C1.74189 42.4995 0.346056 45.2354 0.0288687 48.1969C0.00491034 48.424 0.0783479 48.6511 0.230952 48.8214C0.383556 48.9912 0.601785 49.0886 0.830431 49.0886H23.3726C23.6013 49.0886 23.819 48.9912 23.9721 48.8214C24.1247 48.6511 24.1981 48.424 24.1737 48.1969C23.857 45.2354 22.4606 42.4995 20.2424 40.4938ZM7.17574 32.4344C7.17574 29.7183 9.38564 27.5084 12.1018 27.5084C14.8179 27.5084 17.0273 29.7183 17.0273 32.4344C17.0273 35.15 14.8185 37.3594 12.1028 37.3599C12.1028 37.3599 12.1023 37.3599 12.1018 37.3599C12.1013 37.3599 12.1007 37.3599 12.1002 37.3599C9.3846 37.3594 7.17574 35.15 7.17574 32.4344ZM1.76533 47.4766C2.71481 42.5693 7.00908 38.9724 12.1007 38.9719H12.1013C12.1018 38.9719 12.1023 38.9719 12.1023 38.9719C17.194 38.9724 21.4882 42.5693 22.4377 47.4766H1.76533ZM45.7544 40.4938C44.4289 39.2948 42.8721 38.4157 41.1955 37.899C42.9737 36.7292 44.1507 34.7172 44.1507 32.4344C44.1507 28.8292 41.2179 25.8964 37.6127 25.8964C34.008 25.8964 31.0752 28.8292 31.0752 32.4344C31.0752 34.7172 32.2518 36.7292 34.0299 37.899C32.3539 38.4162 30.7971 39.2953 29.4721 40.4938C27.2533 42.5 25.8575 45.2354 25.5403 48.1969C25.5164 48.424 25.5898 48.6511 25.7424 48.8214C25.8955 48.9912 26.1132 49.0886 26.3419 49.0886H48.8841C49.1127 49.0886 49.3304 48.9912 49.4836 48.8214C49.6362 48.6511 49.7096 48.424 49.6851 48.1969C49.3685 45.2354 47.9721 42.4995 45.7544 40.4938ZM32.6872 32.4344C32.6872 29.7183 34.8966 27.5084 37.6127 27.5084C40.3289 27.5084 42.5388 29.7183 42.5388 32.4344C42.5388 35.15 40.3299 37.3594 37.6143 37.3599C37.6138 37.3599 37.6132 37.3599 37.6127 37.3599C37.6127 37.3599 37.6122 37.3599 37.6117 37.3599C34.8961 37.3594 32.6872 35.15 32.6872 32.4344ZM27.2768 47.4766C28.2263 42.5693 32.5205 38.9724 37.6117 38.9719C37.6122 38.9719 37.6127 38.9719 37.6127 38.9719C37.6132 38.9719 37.6138 38.9719 37.6138 38.9719C42.7049 38.9724 46.9997 42.5693 47.9487 47.4766H27.2768ZM47.0804 3.03076H26.0424C24.4346 3.03076 23.1268 4.3391 23.1268 5.94639V10.8761C23.0179 10.9631 22.9299 11.0771 22.8773 11.2136L22.4466 12.3328C21.8518 12.5068 21.2789 12.7443 20.7351 13.0427L20.5773 12.9724V6.58493C20.5773 4.97295 19.2653 3.66149 17.6533 3.66149H3.10335C1.49137 3.66149 0.17991 4.97295 0.17991 6.58493V16.9183C0.17991 18.5302 1.49137 19.8417 3.10335 19.8417H4.2122L7.76481 23.4396C7.91949 23.5959 8.12731 23.6792 8.33876 23.6792C8.44137 23.6792 8.54553 23.6594 8.64449 23.6188C8.9471 23.4943 9.14449 23.2 9.14449 22.8729V19.8417H14.9799V21.8021C14.9799 22.136 15.1851 22.4344 15.4961 22.5542L16.6153 22.9849C16.7888 23.5802 17.0268 24.1532 17.3247 24.6974L16.8382 25.7938C16.7028 26.0985 16.769 26.4552 17.0049 26.6907L18.7408 28.4271C18.9768 28.6631 19.333 28.7292 19.6377 28.5938L20.7351 28.1068C21.2789 28.4047 21.8518 28.6427 22.4466 28.8162L22.8773 29.9354C22.9971 30.2469 23.2961 30.4521 23.6294 30.4521H26.0851C26.4185 30.4521 26.7174 30.2464 26.8372 29.9354L27.2679 28.8167C27.8627 28.6427 28.4362 28.4052 28.9799 28.1068L30.0763 28.5938C30.3815 28.7292 30.7377 28.6631 30.9737 28.4271L32.7096 26.6907C32.9455 26.4552 33.0117 26.0985 32.8763 25.7938L32.3893 24.6969C32.6877 24.1526 32.9252 23.5797 33.0987 22.9854L34.2179 22.5542C34.5294 22.4344 34.7346 22.1354 34.7346 21.8021V19.3469C34.7346 19.2818 34.7247 19.2188 34.7096 19.1573H41.0586V22.174C41.0586 22.5011 41.256 22.7959 41.5586 22.9198C41.6575 22.9604 41.7617 22.9802 41.8643 22.9802C42.0757 22.9802 42.2836 22.8969 42.4382 22.7407L45.9768 19.1573H47.0804C48.6882 19.1573 49.9961 17.849 49.9961 16.2417V5.94639C49.9961 4.3391 48.6882 3.03076 47.0804 3.03076ZM8.33824 18.2297C7.89345 18.2297 7.53251 18.5907 7.53251 19.036V20.9099L5.12262 18.4693C4.97106 18.3162 4.76481 18.2297 4.54918 18.2297H3.10335C2.37991 18.2297 1.79189 17.6417 1.79189 16.9183V6.58493C1.79189 5.86149 2.37991 5.27347 3.10335 5.27347H17.6533C18.3768 5.27347 18.9653 5.86149 18.9653 6.58493V12.5657C18.8836 12.6042 18.8075 12.6558 18.7408 12.7219L17.0049 14.4584C16.769 14.6938 16.7028 15.0506 16.8382 15.3552L17.3252 16.4521C17.0268 16.9964 16.7893 17.5693 16.6153 18.1641L16.444 18.2297H8.33824ZM33.1226 21.249L32.1362 21.6287C31.8877 21.724 31.7028 21.9354 31.6414 22.1943C31.4705 22.912 31.1872 23.5953 30.7992 24.225C30.6601 24.4516 30.6414 24.7318 30.7492 24.975L31.1789 25.9422L30.2252 26.8959L29.258 26.4667C29.0153 26.3584 28.7346 26.3771 28.5086 26.5167C27.8789 26.9047 27.195 27.1881 26.4768 27.3589C26.2185 27.4209 26.0065 27.6058 25.9112 27.8537L25.5315 28.8401H24.183L23.8033 27.8532C23.708 27.6052 23.4961 27.4203 23.2377 27.3589C22.52 27.1881 21.8367 26.9047 21.2065 26.5167C20.9804 26.3776 20.6997 26.3584 20.457 26.4662L19.4898 26.8959L18.5362 25.9427L18.9653 24.9756C19.0731 24.7328 19.0544 24.4521 18.9148 24.2256C18.5268 23.5959 18.2435 22.9125 18.0726 22.1943C18.0112 21.936 17.8263 21.724 17.5783 21.6287L16.5919 21.249V19.9L17.5783 19.5203C17.8263 19.425 18.0117 19.2136 18.0731 18.9547C18.244 18.237 18.5273 17.5537 18.9153 16.924C19.0544 16.6974 19.0731 16.4167 18.9653 16.174L18.5356 15.2068L19.4893 14.2532L20.457 14.6828C20.6997 14.7907 20.9804 14.7719 21.2065 14.6323C21.8367 14.2443 22.52 13.9615 23.2377 13.7907C23.4961 13.7287 23.7075 13.5438 23.8028 13.2959L24.183 12.3089H25.5315L25.9112 13.2959C26.0065 13.5438 26.2185 13.7287 26.4768 13.7901C27.1945 13.961 27.8778 14.2443 28.508 14.6323C28.7341 14.7719 29.0148 14.7907 29.2575 14.6828L30.2252 14.2532L31.1783 15.2068L30.7492 16.1735C30.6414 16.4167 30.6601 16.6969 30.7997 16.9235C31.1877 17.5532 31.4711 18.237 31.6419 18.9547C31.7033 19.2136 31.8882 19.425 32.1362 19.5203L33.1226 19.9V21.249ZM48.3841 16.2417C48.3841 16.9604 47.7992 17.5453 47.0804 17.5453H45.6398C45.4247 17.5453 45.2179 17.6318 45.0664 17.7849L42.6711 20.211V18.3511C42.6711 17.9063 42.3101 17.5453 41.8648 17.5453H32.8919C32.7507 17.1698 32.583 16.8047 32.3893 16.4516L32.8763 15.3552C32.9294 15.236 32.9502 15.1094 32.9435 14.9849H45.7747C46.22 14.9849 46.5804 14.624 46.5804 14.1792C46.5804 13.7339 46.22 13.3729 45.7747 13.3729H31.6247L30.9737 12.7219C30.7377 12.4865 30.381 12.4198 30.0763 12.5552L28.9794 13.0427C28.4351 12.7443 27.8622 12.5063 27.2679 12.3328L27.0513 11.7709C27.1435 11.8073 27.2435 11.8282 27.3481 11.8282H45.7747C46.2195 11.8282 46.5804 11.4672 46.5804 11.0219C46.5804 10.5771 46.2195 10.2162 45.7747 10.2162H27.3481C26.9606 10.2162 26.6372 10.4896 26.5601 10.8537C26.4247 10.7547 26.2601 10.6969 26.0851 10.6969H24.7388V5.94639C24.7388 5.22764 25.3237 4.64274 26.0424 4.64274H47.0804C47.7992 4.64274 48.3841 5.22764 48.3841 5.94639V16.2417ZM46.581 7.86514C46.581 8.30993 46.22 8.67087 45.7747 8.67087H27.3481C26.9028 8.67087 26.5424 8.30993 26.5424 7.86514C26.5424 7.41982 26.9028 7.05889 27.3481 7.05889H45.7747C46.22 7.05889 46.581 7.41982 46.581 7.86514ZM13.756 9.7292C13.756 10.8646 12.9841 11.5604 12.3632 12.1193C11.7669 12.6573 11.3992 13.0146 11.3674 13.561C11.3419 13.9891 10.9867 14.3198 10.5632 14.3198C10.5476 14.3198 10.5315 14.3193 10.5153 14.3183C10.0711 14.2922 9.73199 13.9104 9.75803 13.4662C9.83043 12.2323 10.6367 11.5058 11.2841 10.9219C11.8174 10.4417 12.144 10.1271 12.144 9.7292C12.144 8.75524 11.3518 7.96305 10.3783 7.96305C9.40439 7.96305 8.6122 8.75524 8.6122 9.7292C8.6122 10.174 8.25126 10.5349 7.80647 10.5349C7.36116 10.5349 7.00022 10.174 7.00022 9.7292C7.00022 7.86618 8.51585 6.35107 10.3783 6.35107C12.2408 6.35107 13.756 7.8667 13.756 9.7292ZM11.3685 15.5131C11.3685 15.9584 11.0075 16.3193 10.5622 16.3193C10.1174 16.3193 9.75647 15.9584 9.75647 15.5131C9.75647 15.0683 10.1174 14.7073 10.5622 14.7073C11.0075 14.7073 11.3685 15.0677 11.3685 15.5131ZM24.8575 15.5224C22.0716 15.5224 19.8049 17.7886 19.8049 20.5745C19.8049 23.3604 22.0716 25.6266 24.8575 25.6266C27.6429 25.6266 29.9096 23.3604 29.9096 20.5745C29.9091 17.7886 27.6429 15.5224 24.8575 15.5224ZM24.8575 24.0146C22.9601 24.0146 21.4169 22.4714 21.4169 20.5745C21.4169 18.6776 22.9601 17.1344 24.8575 17.1344C26.7544 17.1344 28.2976 18.6776 28.2976 20.5745C28.2971 22.4714 26.7544 24.0146 24.8575 24.0146Z" fill="#004AAD"/>
</g>
</g>
<defs>
<clipPath id="clip0_433_179">
<rect width="50" height="50" fill="white"/>
</clipPath>
</defs>
</svg>
