<svg xmlns="http://www.w3.org/2000/svg" xmlns:xlink="http://www.w3.org/1999/xlink" width="500" zoomAndPan="magnify" viewBox="0 0 375 374.999991" height="500" preserveAspectRatio="xMidYMid meet" version="1.0"><defs><clipPath id="df5afddad3"><path d="M 0 22.714844 L 375 22.714844 L 375 368.464844 L 0 368.464844 Z M 0 22.714844 " clip-rule="nonzero"/></clipPath></defs><g clip-path="url(#df5afddad3)"><path fill="#004aad" d="M 151.816406 303.703125 C 141.878906 294.710938 130.203125 288.117188 117.632812 284.242188 C 130.964844 275.46875 139.792969 260.378906 139.792969 243.257812 C 139.792969 216.21875 117.796875 194.222656 90.757812 194.222656 C 63.722656 194.222656 41.726562 216.21875 41.726562 243.257812 C 41.726562 260.375 50.554688 275.46875 63.890625 284.242188 C 51.316406 288.117188 39.640625 294.710938 29.703125 303.703125 C 13.0625 318.746094 2.59375 339.265625 0.214844 361.476562 C 0.0351562 363.179688 0.585938 364.882812 1.730469 366.160156 C 2.875 367.433594 4.511719 368.164062 6.226562 368.164062 L 175.292969 368.164062 C 177.007812 368.164062 178.640625 367.433594 179.789062 366.160156 C 180.933594 364.882812 181.484375 363.179688 181.300781 361.476562 C 178.925781 339.265625 168.453125 318.746094 151.816406 303.703125 Z M 53.816406 243.257812 C 53.816406 222.886719 70.390625 206.3125 90.761719 206.3125 C 111.132812 206.3125 127.703125 222.886719 127.703125 243.257812 C 127.703125 263.625 111.136719 280.195312 90.769531 280.199219 C 90.769531 280.199219 90.765625 280.199219 90.761719 280.199219 C 90.757812 280.199219 90.753906 280.199219 90.75 280.199219 C 70.382812 280.195312 53.816406 263.625 53.816406 243.257812 Z M 13.238281 356.074219 C 20.359375 319.269531 52.566406 292.292969 90.753906 292.289062 C 90.753906 292.289062 90.757812 292.289062 90.757812 292.289062 C 90.761719 292.289062 90.765625 292.289062 90.765625 292.289062 C 128.953125 292.292969 161.160156 319.269531 168.28125 356.074219 Z M 343.15625 303.703125 C 333.214844 294.710938 321.539062 288.117188 308.964844 284.242188 C 322.300781 275.46875 331.128906 260.378906 331.128906 243.257812 C 331.128906 216.21875 309.132812 194.222656 282.09375 194.222656 C 255.058594 194.222656 233.0625 216.21875 233.0625 243.257812 C 233.0625 260.378906 241.886719 275.46875 255.222656 284.242188 C 242.652344 288.121094 230.976562 294.714844 221.039062 303.703125 C 204.398438 318.75 193.929688 339.265625 191.550781 361.476562 C 191.371094 363.179688 191.921875 364.882812 193.066406 366.160156 C 194.214844 367.433594 195.847656 368.164062 197.5625 368.164062 L 366.628906 368.164062 C 368.34375 368.164062 369.976562 367.433594 371.125 366.160156 C 372.269531 364.882812 372.820312 363.179688 372.636719 361.476562 C 370.261719 339.265625 359.789062 318.746094 343.15625 303.703125 Z M 245.152344 243.257812 C 245.152344 222.886719 261.722656 206.3125 282.09375 206.3125 C 302.464844 206.3125 319.039062 222.886719 319.039062 243.257812 C 319.039062 263.625 302.472656 280.195312 282.105469 280.199219 C 282.101562 280.199219 282.097656 280.199219 282.09375 280.199219 C 282.09375 280.199219 282.089844 280.199219 282.085938 280.199219 C 261.71875 280.195312 245.152344 263.625 245.152344 243.257812 Z M 204.574219 356.074219 C 211.695312 319.269531 243.902344 292.292969 282.085938 292.289062 C 282.089844 292.289062 282.09375 292.289062 282.09375 292.289062 C 282.097656 292.289062 282.101562 292.289062 282.101562 292.289062 C 320.285156 292.292969 352.496094 319.269531 359.613281 356.074219 Z M 353.101562 22.730469 L 195.316406 22.730469 C 183.257812 22.730469 173.449219 32.542969 173.449219 44.597656 L 173.449219 81.570312 C 172.632812 82.222656 171.972656 83.078125 171.578125 84.101562 L 168.347656 92.496094 C 163.886719 93.800781 159.589844 95.582031 155.511719 97.820312 L 154.328125 97.292969 L 154.328125 49.386719 C 154.328125 37.296875 144.488281 27.460938 132.398438 27.460938 L 23.273438 27.460938 C 11.183594 27.460938 1.347656 37.296875 1.347656 49.386719 L 1.347656 126.886719 C 1.347656 138.976562 11.183594 148.8125 23.273438 148.8125 L 31.589844 148.8125 L 58.234375 175.796875 C 59.394531 176.96875 60.953125 177.59375 62.539062 177.59375 C 63.308594 177.59375 64.089844 177.445312 64.832031 177.140625 C 67.101562 176.207031 68.582031 174 68.582031 171.546875 L 68.582031 148.8125 L 112.347656 148.8125 L 112.347656 163.515625 C 112.347656 166.019531 113.886719 168.257812 116.21875 169.15625 L 124.613281 172.386719 C 125.914062 176.851562 127.699219 181.148438 129.933594 185.230469 L 126.285156 193.453125 C 125.269531 195.738281 125.765625 198.414062 127.535156 200.179688 L 140.554688 213.203125 C 142.324219 214.972656 144.996094 215.46875 147.28125 214.453125 L 155.511719 210.800781 C 159.589844 213.035156 163.886719 214.820312 168.347656 216.121094 L 171.578125 224.515625 C 172.476562 226.851562 174.71875 228.390625 177.21875 228.390625 L 195.636719 228.390625 C 198.136719 228.390625 200.378906 226.847656 201.277344 224.515625 L 204.507812 216.125 C 208.96875 214.820312 213.269531 213.039062 217.347656 210.800781 L 225.570312 214.453125 C 227.859375 215.46875 230.53125 214.972656 232.300781 213.203125 L 245.320312 200.179688 C 247.089844 198.414062 247.585938 195.738281 246.570312 193.453125 L 242.917969 185.226562 C 245.15625 181.144531 246.9375 176.847656 248.238281 172.390625 L 256.632812 169.15625 C 258.96875 168.257812 260.507812 166.015625 260.507812 163.515625 L 260.507812 145.101562 C 260.507812 144.613281 260.433594 144.140625 260.320312 143.679688 L 307.9375 143.679688 L 307.9375 166.304688 C 307.9375 168.757812 309.417969 170.96875 311.6875 171.898438 C 312.429688 172.203125 313.210938 172.351562 313.980469 172.351562 C 315.566406 172.351562 317.125 171.726562 318.285156 170.554688 L 344.824219 143.679688 L 353.101562 143.679688 C 365.160156 143.679688 374.96875 133.867188 374.96875 121.8125 L 374.96875 44.597656 C 374.96875 32.542969 365.160156 22.730469 353.101562 22.730469 Z M 62.535156 136.722656 C 59.199219 136.722656 56.492188 139.429688 56.492188 142.769531 L 56.492188 156.824219 L 38.417969 138.519531 C 37.28125 137.371094 35.734375 136.722656 34.117188 136.722656 L 23.273438 136.722656 C 17.847656 136.722656 13.4375 132.3125 13.4375 126.886719 L 13.4375 49.386719 C 13.4375 43.960938 17.847656 39.550781 23.273438 39.550781 L 132.398438 39.550781 C 137.824219 39.550781 142.238281 43.960938 142.238281 49.386719 L 142.238281 94.242188 C 141.625 94.53125 141.054688 94.917969 140.554688 95.414062 L 127.535156 108.4375 C 125.765625 110.203125 125.269531 112.878906 126.285156 115.164062 L 129.9375 123.390625 C 127.699219 127.472656 125.917969 131.769531 124.613281 136.230469 L 123.328125 136.722656 Z M 248.417969 159.367188 L 241.019531 162.214844 C 239.15625 162.929688 237.769531 164.515625 237.308594 166.457031 C 236.027344 171.839844 233.902344 176.964844 230.992188 181.6875 C 229.949219 183.386719 229.808594 185.488281 230.617188 187.3125 L 233.839844 194.566406 L 226.6875 201.71875 L 219.433594 198.5 C 217.613281 197.6875 215.507812 197.828125 213.8125 198.875 C 209.089844 201.785156 203.960938 203.910156 198.574219 205.191406 C 196.636719 205.65625 195.046875 207.042969 194.332031 208.902344 L 191.484375 216.300781 L 181.371094 216.300781 L 178.523438 208.898438 C 177.808594 207.039062 176.21875 205.652344 174.28125 205.191406 C 168.898438 203.910156 163.773438 201.785156 159.046875 198.875 C 157.351562 197.832031 155.246094 197.6875 153.425781 198.496094 L 146.171875 201.71875 L 139.019531 194.570312 L 142.238281 187.316406 C 143.046875 185.496094 142.90625 183.390625 141.859375 181.691406 C 138.949219 176.96875 136.824219 171.84375 135.542969 166.457031 C 135.082031 164.519531 133.695312 162.929688 131.835938 162.214844 L 124.4375 159.367188 L 124.4375 149.25 L 131.835938 146.402344 C 133.695312 145.6875 135.085938 144.101562 135.546875 142.160156 C 136.828125 136.777344 138.953125 131.652344 141.863281 126.929688 C 142.90625 125.230469 143.046875 123.125 142.238281 121.304688 L 139.015625 114.050781 L 146.167969 106.898438 L 153.425781 110.121094 C 155.246094 110.929688 157.351562 110.789062 159.046875 109.742188 C 163.773438 106.832031 168.898438 104.710938 174.28125 103.429688 C 176.21875 102.964844 177.804688 101.578125 178.519531 99.71875 L 181.371094 92.316406 L 191.484375 92.316406 L 194.332031 99.71875 C 195.046875 101.578125 196.636719 102.964844 198.574219 103.425781 C 203.957031 104.707031 209.082031 106.832031 213.808594 109.742188 C 215.503906 110.789062 217.609375 110.929688 219.429688 110.121094 L 226.6875 106.898438 L 233.835938 114.050781 L 230.617188 121.300781 C 229.808594 123.125 229.949219 125.226562 230.996094 126.925781 C 233.90625 131.648438 236.03125 136.777344 237.3125 142.160156 C 237.773438 144.101562 239.160156 145.6875 241.019531 146.402344 L 248.417969 149.25 Z M 362.878906 121.8125 C 362.878906 127.203125 358.492188 131.589844 353.101562 131.589844 L 342.296875 131.589844 C 340.683594 131.589844 339.132812 132.238281 337.996094 133.386719 L 320.03125 151.582031 L 320.03125 137.632812 C 320.03125 134.296875 317.324219 131.589844 313.984375 131.589844 L 246.6875 131.589844 C 245.628906 128.773438 244.371094 126.035156 242.917969 123.386719 L 246.570312 115.164062 C 246.96875 114.269531 247.125 113.320312 247.074219 112.386719 L 343.308594 112.386719 C 346.648438 112.386719 349.351562 109.679688 349.351562 106.34375 C 349.351562 103.003906 346.648438 100.296875 343.308594 100.296875 L 237.183594 100.296875 L 232.300781 95.414062 C 230.53125 93.648438 227.855469 93.148438 225.570312 94.164062 L 217.34375 97.820312 C 213.261719 95.582031 208.964844 93.796875 204.507812 92.496094 L 202.882812 88.28125 C 203.574219 88.554688 204.324219 88.710938 205.109375 88.710938 L 343.308594 88.710938 C 346.644531 88.710938 349.351562 86.003906 349.351562 82.664062 C 349.351562 79.328125 346.644531 76.621094 343.308594 76.621094 L 205.109375 76.621094 C 202.203125 76.621094 199.777344 78.671875 199.199219 81.402344 C 198.183594 80.660156 196.949219 80.226562 195.636719 80.226562 L 185.539062 80.226562 L 185.539062 44.597656 C 185.539062 39.207031 189.925781 34.820312 195.316406 34.820312 L 353.101562 34.820312 C 358.492188 34.820312 362.878906 39.207031 362.878906 44.597656 Z M 349.355469 58.988281 C 349.355469 62.324219 346.648438 65.03125 343.308594 65.03125 L 205.109375 65.03125 C 201.769531 65.03125 199.066406 62.324219 199.066406 58.988281 C 199.066406 55.648438 201.769531 52.941406 205.109375 52.941406 L 343.308594 52.941406 C 346.648438 52.941406 349.355469 55.648438 349.355469 58.988281 Z M 103.167969 72.96875 C 103.167969 81.484375 97.378906 86.703125 92.722656 90.894531 C 88.25 94.929688 85.492188 97.609375 85.253906 101.707031 C 85.0625 104.917969 82.398438 107.398438 79.222656 107.398438 C 79.105469 107.398438 78.984375 107.394531 78.863281 107.386719 C 75.53125 107.191406 72.988281 104.328125 73.183594 100.996094 C 73.726562 91.742188 79.773438 86.292969 84.628906 81.914062 C 88.628906 78.3125 91.078125 75.953125 91.078125 72.96875 C 91.078125 65.664062 85.136719 59.722656 77.835938 59.722656 C 70.53125 59.722656 64.589844 65.664062 64.589844 72.96875 C 64.589844 76.304688 61.882812 79.011719 58.546875 79.011719 C 55.207031 79.011719 52.5 76.304688 52.5 72.96875 C 52.5 58.996094 63.867188 47.632812 77.835938 47.632812 C 91.804688 47.632812 103.167969 59 103.167969 72.96875 Z M 85.261719 116.347656 C 85.261719 119.6875 82.554688 122.394531 79.214844 122.394531 C 75.878906 122.394531 73.171875 119.6875 73.171875 116.347656 C 73.171875 113.011719 75.878906 110.304688 79.214844 110.304688 C 82.554688 110.304688 85.261719 113.007812 85.261719 116.347656 Z M 186.429688 116.417969 C 165.535156 116.417969 148.535156 133.414062 148.535156 154.308594 C 148.535156 175.203125 165.535156 192.199219 186.429688 192.199219 C 207.320312 192.199219 224.320312 175.203125 224.320312 154.308594 C 224.316406 133.414062 207.320312 116.417969 186.429688 116.417969 Z M 186.429688 180.109375 C 172.199219 180.109375 160.625 168.535156 160.625 154.308594 C 160.625 140.082031 172.199219 128.507812 186.429688 128.507812 C 200.65625 128.507812 212.230469 140.082031 212.230469 154.308594 C 212.226562 168.535156 200.65625 180.109375 186.429688 180.109375 Z M 186.429688 180.109375 " fill-opacity="1" fill-rule="nonzero"/></g></svg>