<svg width="50" height="50" viewBox="0 0 50 50" fill="none" xmlns="http://www.w3.org/2000/svg">
<path d="M30.2803 38.5216L41.5468 27.2551L44.0502 29.7586L32.7837 41.0251L30.2803 38.5216Z" fill="#004AAD"/>
<path d="M28.4397 39.1631L26.8989 37.6223L25.1289 42.8628C25.9084 43.1214 26.5872 43.5433 27.1645 44.1284C27.7313 44.7221 28.1385 45.4096 28.3859 46.1909L33.6263 44.4209L32.1306 42.9253L28.4397 39.1631Z" fill="#004AAD"/>
<path d="M24.5448 44.5625L23.4111 47.8906L26.7401 46.7578C26.6525 46.5035 26.537 46.2622 26.3946 46.0339C26.2523 45.8064 26.0856 45.5972 25.8955 45.4071C25.7054 45.2161 25.4962 45.0503 25.2679 44.908C25.0405 44.7648 24.7992 44.6502 24.5448 44.5625Z" fill="#004AAD"/>
<mask id="mask0_434_488" style="mask-type:luminance" maskUnits="userSpaceOnUse" x="40" y="21" width="10" height="11">
<path d="M40.2354 21.3333H49.9602V31.111H40.2354V21.3333Z" fill="white"/>
</mask>
<g mask="url(#mask0_434_488)">
<path d="M49.6835 27.8767L43.4344 21.6189C43.351 21.5364 43.2555 21.4731 43.1479 21.4279C43.0394 21.3837 42.9274 21.3611 42.8102 21.3611C42.693 21.3611 42.5811 21.3837 42.4725 21.4279C42.3649 21.4731 42.2694 21.5364 42.1861 21.6189L40.292 23.4948L42.1687 25.3802L47.7981 31.0104L49.6835 29.1337C49.7252 29.0929 49.7625 29.0477 49.7946 28.9991C49.8276 28.9505 49.8545 28.8993 49.8771 28.8455C49.8996 28.7916 49.917 28.7361 49.9283 28.6788C49.9396 28.6215 49.9456 28.5633 49.9456 28.5052C49.9456 28.447 49.9396 28.3889 49.9283 28.3316C49.917 28.2743 49.8996 28.2187 49.8771 28.1649C49.8545 28.1111 49.8276 28.0599 49.7946 28.0113C49.7625 27.9626 49.7252 27.9184 49.6835 27.8767Z" fill="#004AAD"/>
</g>
<path d="M34.0322 42.2726L45.2987 31.0061L46.5444 32.2518L35.2779 43.5183L34.0322 42.2726Z" fill="#004AAD"/>
<path d="M27.7754 36.0138L39.0419 24.7473L40.2945 25.9991L29.0271 37.2655L27.7754 36.0138Z" fill="#004AAD"/>
<mask id="mask1_434_488" style="mask-type:luminance" maskUnits="userSpaceOnUse" x="1" y="28" width="19" height="22">
<path d="M1.83008 28.4443H19.5688V49.986H1.83008V28.4443Z" fill="white"/>
</mask>
<g mask="url(#mask1_434_488)">
<path d="M18.6487 48.0147H3.60091V44.4739H11.5671C11.6252 44.4739 11.6834 44.4687 11.7398 44.4566C11.7971 44.4453 11.8526 44.4288 11.9065 44.4062C11.9603 44.3845 12.0106 44.3567 12.0592 44.3246C12.1079 44.2925 12.1521 44.2561 12.1938 44.2144C12.2346 44.1736 12.2711 44.1293 12.3032 44.0807C12.3362 44.0321 12.3631 43.9809 12.3856 43.9279C12.4073 43.8741 12.4247 43.8186 12.436 43.7613C12.4473 43.7048 12.4525 43.6467 12.4525 43.5885V38.2778C12.4525 38.2196 12.4473 38.1623 12.436 38.105C12.4247 38.0477 12.4073 37.993 12.3856 37.9392C12.3631 37.8854 12.3362 37.8342 12.3032 37.7856C12.2711 37.7378 12.2346 37.6927 12.1938 37.6519C12.1521 37.6111 12.1079 37.5738 12.0592 37.5416C12.0106 37.5095 11.9603 37.4817 11.9065 37.46C11.8526 37.4375 11.7971 37.421 11.7398 37.4097C11.6834 37.3984 11.6252 37.3923 11.5671 37.3923H3.60091V33.8515H16.8787C16.9368 33.8515 16.9941 33.8463 17.0514 33.835C17.1079 33.8238 17.1634 33.8064 17.2172 33.7847C17.2711 33.7621 17.3223 33.7352 17.37 33.7022C17.4186 33.6701 17.4638 33.6337 17.5046 33.5929C17.5454 33.5512 17.5827 33.5069 17.6148 33.4583C17.6469 33.4097 17.6738 33.3593 17.6964 33.3055C17.719 33.2517 17.7355 33.1962 17.7467 33.1397C17.758 33.0824 17.7641 33.0251 17.7641 32.967V29.4262C17.7641 29.368 17.758 29.3099 17.7467 29.2534C17.7355 29.1962 17.719 29.1406 17.6964 29.0868C17.6738 29.0338 17.6469 28.9826 17.6148 28.934C17.5827 28.8854 17.5454 28.8411 17.5046 28.8003C17.4638 28.7587 17.4186 28.7222 17.37 28.6901C17.3223 28.658 17.2711 28.6302 17.2172 28.6085C17.1634 28.5859 17.1079 28.5694 17.0514 28.5581C16.9941 28.546 16.9368 28.5408 16.8787 28.5408C16.8205 28.5408 16.7632 28.546 16.7059 28.5581C16.6487 28.5694 16.5931 28.5859 16.5401 28.6085C16.4863 28.6302 16.4351 28.658 16.3865 28.6901C16.3388 28.7222 16.2936 28.7587 16.2528 28.8003C16.2112 28.8411 16.1747 28.8854 16.1426 28.934C16.1105 28.9826 16.0827 29.0338 16.061 29.0868C16.0384 29.1406 16.0219 29.1962 16.0106 29.2534C15.9993 29.3099 15.9933 29.368 15.9933 29.4262V32.0816H2.71549C2.65734 32.0816 2.60004 32.0868 2.54275 32.0981C2.48633 32.1102 2.43077 32.1267 2.37695 32.1484C2.32313 32.171 2.27192 32.1988 2.22418 32.2309C2.17556 32.263 2.13043 32.2995 2.08963 32.3411C2.04883 32.3819 2.0115 32.4262 1.97938 32.4748C1.94727 32.5234 1.92036 32.5738 1.89779 32.6276C1.87522 32.6814 1.85872 32.737 1.84744 32.7942C1.83615 32.8507 1.83008 32.9088 1.83008 32.967V38.2778C1.83008 38.3359 1.83615 38.3932 1.84744 38.4505C1.85872 38.5078 1.87522 38.5625 1.89779 38.6163C1.92036 38.6701 1.94727 38.7213 1.97938 38.7691C2.0115 38.8177 2.04883 38.8628 2.08963 38.9036C2.13043 38.9444 2.17556 38.9817 2.22418 39.0139C2.27192 39.046 2.32313 39.0729 2.37695 39.0955C2.43077 39.118 2.48633 39.1345 2.54275 39.1458C2.60004 39.1571 2.65734 39.1632 2.71549 39.1632H10.6825V42.704H2.71549C2.65734 42.704 2.60004 42.7092 2.54275 42.7205C2.48633 42.7317 2.43077 42.7491 2.37695 42.7708C2.32313 42.7934 2.27192 42.8203 2.22418 42.8524C2.17556 42.8854 2.13043 42.9218 2.08963 42.9626C2.04883 43.0043 2.0115 43.0486 1.97938 43.0972C1.94727 43.1449 1.92036 43.1962 1.89779 43.25C1.87522 43.3038 1.85872 43.3593 1.84744 43.4158C1.83615 43.4731 1.83008 43.5304 1.83008 43.5885V48.9001C1.83008 48.9583 1.83615 49.0156 1.84744 49.0729C1.85872 49.1293 1.87522 49.1849 1.89779 49.2387C1.92036 49.2925 1.94727 49.3437 1.97938 49.3915C2.0115 49.4401 2.04883 49.4843 2.08963 49.526C2.13043 49.5668 2.17556 49.6033 2.22418 49.6363C2.27192 49.6684 2.32313 49.6953 2.37695 49.7179C2.43077 49.7396 2.48633 49.7569 2.54275 49.7682C2.60004 49.7795 2.65734 49.7847 2.71549 49.7847H18.6487C18.7068 49.7847 18.765 49.7795 18.8214 49.7682C18.8787 49.7569 18.9342 49.7396 18.9881 49.7179C19.041 49.6953 19.0922 49.6684 19.1408 49.6363C19.1895 49.6033 19.2337 49.5668 19.2745 49.526C19.3162 49.4843 19.3526 49.4401 19.3848 49.3915C19.4169 49.3437 19.4447 49.2925 19.4664 49.2387C19.4889 49.1849 19.5054 49.1293 19.5167 49.0729C19.5289 49.0156 19.5341 48.9583 19.5341 48.9001C19.5341 48.842 19.5289 48.7838 19.5167 48.7274C19.5054 48.6701 19.4889 48.6146 19.4664 48.5616C19.4447 48.5078 19.4169 48.4566 19.3848 48.408C19.3526 48.3602 19.3162 48.3151 19.2745 48.2743C19.2337 48.2326 19.1895 48.1962 19.1408 48.164C19.0922 48.1319 19.041 48.1041 18.9881 48.0824C18.9342 48.0599 18.8787 48.0434 18.8214 48.0321C18.765 48.0208 18.7068 48.0147 18.6487 48.0147Z" fill="#004AAD"/>
</g>
<path d="M20.2864 8.32292C19.8992 8.06685 19.4886 7.85678 19.0546 7.69271C18.6206 7.52865 18.1735 7.41494 17.7143 7.35157C17.2543 7.2882 16.7933 7.27605 16.3315 7.31598C15.8688 7.35591 15.4175 7.44705 14.9747 7.58855C14.6865 7.67796 14.4062 7.78907 14.1336 7.92014C13.861 8.05122 13.6006 8.20139 13.3497 8.37153C13.0997 8.5408 12.8636 8.7283 12.6414 8.93317C12.4192 9.13716 12.2126 9.35764 12.0225 9.59289C11.8324 9.82726 11.6605 10.0755 11.5077 10.3359C11.3541 10.5964 11.2204 10.8663 11.1067 11.1467C10.993 11.4262 10.901 11.7135 10.8298 12.007C10.7586 12.3012 10.7091 12.5981 10.6822 12.8993C10.6588 13.1615 10.6527 13.4245 10.6631 13.6875C10.6735 13.9505 10.7004 14.2118 10.7438 14.4714C10.7872 14.7309 10.8463 14.9861 10.9227 15.2387C10.9982 15.4905 11.0893 15.737 11.1961 15.9774C11.3029 16.2179 11.4244 16.4505 11.5607 16.6762C11.697 16.901 11.8463 17.1172 12.0095 17.3229C12.1735 17.5295 12.3489 17.7248 12.5372 17.9089C12.7256 18.0929 12.9244 18.2639 13.1336 18.4227C13.3029 18.5469 13.4556 18.6884 13.5911 18.8481C13.7265 19.0078 13.8419 19.1806 13.9365 19.3681C14.0312 19.5547 14.1023 19.75 14.151 19.954C14.1996 20.158 14.223 20.3646 14.223 20.5738V21.4592H19.5338V20.5738C19.5346 20.3689 19.5589 20.1658 19.6067 19.9662C19.6544 19.7665 19.7239 19.5747 19.8159 19.3915C19.9079 19.2075 20.0199 19.0373 20.1518 18.8793C20.2838 18.7222 20.4313 18.5816 20.5963 18.4583C20.6952 18.3846 20.7916 18.3073 20.8853 18.2274C20.98 18.1476 21.0711 18.0642 21.1605 17.9792C21.2499 17.8932 21.3367 17.8056 21.4209 17.7144C21.5043 17.6241 21.5859 17.5313 21.664 17.4349C21.743 17.3394 21.8176 17.2422 21.8905 17.1424C21.9635 17.0417 22.0329 16.9401 22.0989 16.8359C22.1657 16.7318 22.2291 16.625 22.289 16.5174C22.3489 16.4089 22.4062 16.2995 22.4591 16.1884C22.5129 16.0764 22.5633 15.9635 22.6102 15.8498C22.6562 15.7352 22.6996 15.6198 22.7395 15.5026C22.7794 15.3854 22.8159 15.2674 22.8489 15.1484C22.8819 15.0287 22.9105 14.9089 22.9365 14.7882C22.9617 14.6675 22.9834 14.546 23.0025 14.4236C23.0207 14.3012 23.0355 14.1788 23.0459 14.0556C23.0572 13.9323 23.0642 13.809 23.0676 13.6858C23.072 13.5616 23.072 13.4384 23.0676 13.3151C23.0642 13.191 23.0563 13.0677 23.0451 12.9453C23.0346 12.8221 23.019 12.6997 23.0008 12.5773C22.9826 12.4549 22.96 12.3333 22.9348 12.2127C22.9088 12.0912 22.8793 11.9714 22.8463 11.8524C22.8133 11.7335 22.7768 11.6155 22.7369 11.4983C22.697 11.3811 22.6536 11.2656 22.6067 11.1519C22.5598 11.0373 22.5095 10.9245 22.4556 10.8134C22.4018 10.7014 22.3454 10.592 22.2846 10.4844C22.2247 10.3759 22.1614 10.27 22.0945 10.1658C22.0277 10.0616 21.9582 9.96008 21.8853 9.86025C21.8133 9.76042 21.7378 9.66233 21.6588 9.56685C21.5806 9.47136 21.499 9.37848 21.4148 9.2882C21.3306 9.19705 21.2438 9.10938 21.1544 9.02431C21.065 8.93837 20.9739 8.85591 20.8793 8.77605C20.7846 8.69619 20.6883 8.61893 20.5893 8.54514C20.4904 8.47136 20.3897 8.40018 20.2864 8.3316V8.32292ZM20.4192 14.3776C20.361 14.3776 20.3037 14.3724 20.2464 14.3611C20.1892 14.3498 20.1336 14.3325 20.0806 14.3108C20.0268 14.2882 19.9756 14.2613 19.927 14.2283C19.8793 14.1962 19.8341 14.1597 19.7933 14.1189C19.7517 14.0773 19.7152 14.033 19.6831 13.9844C19.651 13.9358 19.6232 13.8854 19.6015 13.8316C19.5789 13.7778 19.5624 13.7222 19.5511 13.6649C19.5398 13.6085 19.5338 13.5504 19.5338 13.4922C19.5338 13.3186 19.5164 13.1458 19.4826 12.9748C19.4487 12.8038 19.3984 12.6372 19.3315 12.4766C19.2647 12.3151 19.1831 12.1623 19.0859 12.0174C18.9895 11.8724 18.8793 11.7379 18.756 11.6146C18.6327 11.4913 18.4982 11.3811 18.3532 11.2847C18.2082 11.1875 18.0555 11.1059 17.8949 11.0391C17.7334 10.9722 17.5676 10.9219 17.3966 10.888C17.2256 10.8542 17.0529 10.8368 16.8784 10.8368C16.8202 10.8368 16.7629 10.8316 16.7056 10.8203C16.6484 10.809 16.5928 10.7917 16.5398 10.77C16.486 10.7474 16.4348 10.7205 16.3862 10.6875C16.3385 10.6554 16.2933 10.6189 16.2525 10.5781C16.2109 10.5365 16.1744 10.4922 16.1423 10.4436C16.1102 10.395 16.0824 10.3446 16.0607 10.2908C16.0381 10.237 16.0216 10.1814 16.0103 10.125C15.999 10.0677 15.993 10.0104 15.993 9.95226C15.993 9.8941 15.999 9.83594 16.0103 9.77952C16.0216 9.72223 16.0381 9.66667 16.0607 9.61285C16.0824 9.55903 16.1102 9.50869 16.1423 9.46008C16.1744 9.41146 16.2109 9.36719 16.2525 9.32639C16.2933 9.28473 16.3385 9.24827 16.3862 9.21615C16.4348 9.18317 16.486 9.15626 16.5398 9.13369C16.5928 9.11199 16.6484 9.09462 16.7056 9.08334C16.7629 9.07205 16.8202 9.06685 16.8784 9.06685C17.0234 9.06685 17.1675 9.07379 17.3124 9.08768C17.4565 9.10244 17.5997 9.12327 17.7421 9.15192C17.8836 9.17969 18.0242 9.21528 18.1631 9.25695C18.302 9.29948 18.4383 9.3481 18.572 9.40365C18.7056 9.45921 18.8367 9.52084 18.9643 9.58942C19.0928 9.65799 19.2169 9.73178 19.3376 9.81251C19.4574 9.89324 19.5737 9.97917 19.6857 10.0712C19.7977 10.1632 19.9053 10.2604 20.0077 10.3629C20.1102 10.4653 20.2074 10.5729 20.2994 10.6849C20.3914 10.7969 20.4773 10.9132 20.5581 11.0339C20.6388 11.1545 20.7135 11.2787 20.7812 11.4063C20.8497 11.5339 20.9114 11.6649 20.9669 11.7986C21.0225 11.9332 21.0711 12.0695 21.1136 12.2075C21.1553 12.3464 21.1909 12.487 21.2195 12.6293C21.2473 12.7717 21.269 12.9149 21.2829 13.059C21.2968 13.2031 21.3046 13.3481 21.3046 13.4922C21.3046 13.5504 21.2985 13.6085 21.2872 13.6649C21.276 13.7222 21.2595 13.7778 21.2369 13.8316C21.2143 13.8854 21.1874 13.9358 21.1553 13.9844C21.1223 14.033 21.0859 14.0773 21.0451 14.1189C21.0034 14.1597 20.9591 14.1962 20.9105 14.2283C20.8628 14.2613 20.8115 14.2882 20.7577 14.3108C20.7039 14.3325 20.6484 14.3498 20.5919 14.3611C20.5346 14.3724 20.4773 14.3776 20.4192 14.3776Z" fill="#004AAD"/>
<path d="M14.2236 24.1145C14.2236 24.1727 14.2288 24.2308 14.2401 24.2873C14.2514 24.3446 14.2688 24.4001 14.2905 24.4531C14.313 24.5069 14.34 24.5581 14.3729 24.6067C14.4051 24.6545 14.4415 24.6996 14.4823 24.7404C14.524 24.7821 14.5683 24.8185 14.6169 24.8506C14.6655 24.8828 14.7158 24.9105 14.7696 24.9322C14.8235 24.9548 14.879 24.9713 14.9354 24.9826C14.9927 24.9939 15.05 24.9999 15.1082 24.9999H18.649C18.7071 24.9999 18.7653 24.9939 18.8217 24.9826C18.879 24.9713 18.9346 24.9548 18.9884 24.9322C19.0413 24.9105 19.0926 24.8828 19.1412 24.8506C19.1898 24.8185 19.234 24.7821 19.2748 24.7404C19.3165 24.6996 19.353 24.6545 19.3851 24.6067C19.4172 24.5581 19.445 24.5069 19.4667 24.4531C19.4893 24.4001 19.5058 24.3446 19.517 24.2873C19.5292 24.2308 19.5344 24.1727 19.5344 24.1145V23.23H14.2236V24.1145Z" fill="#004AAD"/>
<mask id="mask2_434_488" style="mask-type:luminance" maskUnits="userSpaceOnUse" x="15" y="0" width="3" height="4">
<path d="M15.791 0.0129395H17.791V3.7777H15.791V0.0129395Z" fill="white"/>
</mask>
<g mask="url(#mask2_434_488)">
<path d="M16.8786 3.75502C16.9367 3.75502 16.994 3.74981 17.0513 3.73853C17.1077 3.72724 17.1633 3.70988 17.2171 3.68818C17.2709 3.66561 17.3222 3.6387 17.3699 3.60658C17.4185 3.57359 17.4637 3.53714 17.5044 3.49634C17.5452 3.45467 17.5826 3.4104 17.6147 3.36179C17.6468 3.31405 17.6737 3.26283 17.6963 3.20901C17.7189 3.15519 17.7354 3.09964 17.7466 3.04321C17.7579 2.98592 17.764 2.92863 17.764 2.87047V1.09964C17.764 1.04148 17.7579 0.984185 17.7466 0.926893C17.7354 0.87047 17.7189 0.814914 17.6963 0.761095C17.6737 0.707275 17.6468 0.65606 17.6147 0.608317C17.5826 0.559706 17.5452 0.515435 17.5044 0.473768C17.4637 0.43297 17.4185 0.396511 17.3699 0.363525C17.3222 0.331407 17.2709 0.304498 17.2171 0.281928C17.1633 0.260227 17.1077 0.242866 17.0513 0.231581C16.994 0.220296 16.9367 0.215088 16.8786 0.215088C16.8204 0.215088 16.7631 0.220296 16.7058 0.231581C16.6485 0.242866 16.593 0.260227 16.54 0.281928C16.4862 0.304498 16.435 0.331407 16.3864 0.363525C16.3387 0.396511 16.2935 0.43297 16.2527 0.473768C16.211 0.515435 16.1746 0.559706 16.1425 0.608317C16.1104 0.65606 16.0826 0.707275 16.0609 0.761095C16.0383 0.814914 16.0218 0.87047 16.0105 0.926893C15.9992 0.984185 15.9932 1.04148 15.9932 1.09964V2.87047C15.9932 2.92863 15.9992 2.98592 16.0105 3.04321C16.0218 3.09964 16.0383 3.15519 16.0609 3.20901C16.0826 3.26283 16.1104 3.31405 16.1425 3.36179C16.1746 3.4104 16.211 3.45467 16.2527 3.49634C16.2935 3.53714 16.3387 3.57359 16.3864 3.60658C16.435 3.6387 16.4862 3.66561 16.54 3.68818C16.593 3.70988 16.6485 3.72724 16.7058 3.73853C16.7631 3.74981 16.8204 3.75502 16.8786 3.75502Z" fill="#004AAD"/>
</g>
<path d="M8.74392 6.60582C8.82639 6.68829 8.92188 6.75165 9.03038 6.79593C9.13802 6.84106 9.25087 6.86363 9.36719 6.86363C9.48438 6.86363 9.59722 6.84106 9.70486 6.79593C9.81337 6.75165 9.90885 6.68829 9.99132 6.60582C10.0738 6.52249 10.1372 6.427 10.1823 6.31936C10.2266 6.21086 10.2491 6.09888 10.2491 5.98169C10.2491 5.8645 10.2266 5.75252 10.1823 5.64402C10.1372 5.53638 10.0738 5.44089 9.99132 5.35756L8.74392 4.10061C8.70226 4.05981 8.65712 4.02249 8.60851 3.99037C8.5599 3.95825 8.50868 3.93047 8.45486 3.90877C8.40104 3.8862 8.34549 3.86884 8.28819 3.85756C8.2309 3.84627 8.17361 3.84106 8.11545 3.84106C8.05642 3.84106 7.99913 3.84627 7.94184 3.85843C7.88455 3.86971 7.82899 3.8862 7.77517 3.90877C7.72135 3.93134 7.67014 3.95825 7.62153 3.99037C7.57292 4.02336 7.52865 4.05981 7.48698 4.10148C7.44618 4.14228 7.40885 4.18742 7.37674 4.23603C7.34375 4.28464 7.31684 4.33586 7.29427 4.38968C7.2717 4.4435 7.25521 4.49905 7.24392 4.55634C7.23264 4.61363 7.22656 4.67093 7.22656 4.72909C7.22656 4.78811 7.23264 4.8454 7.24392 4.9027C7.25521 4.95999 7.2717 5.01554 7.29427 5.06936C7.31684 5.12318 7.34375 5.1744 7.37587 5.22301C7.40885 5.27162 7.44531 5.31676 7.48698 5.35756L8.74392 6.60582Z" fill="#004AAD"/>
<path d="M4.486 14.3776H6.25597C6.31413 14.3776 6.37142 14.3724 6.42871 14.3611C6.486 14.3499 6.54069 14.3325 6.59451 14.3108C6.64833 14.2882 6.69954 14.2613 6.74816 14.2283C6.7959 14.1962 6.84104 14.1597 6.88184 14.119C6.92263 14.0773 6.95996 14.033 6.99208 13.9844C7.0242 13.9358 7.05197 13.8854 7.07368 13.8316C7.09625 13.7778 7.11274 13.7222 7.12402 13.665C7.13531 13.6085 7.14138 13.5504 7.14138 13.4922C7.14138 13.4349 7.13531 13.3768 7.12402 13.3203C7.11274 13.263 7.09625 13.2075 7.07368 13.1537C7.05197 13.0999 7.0242 13.0495 6.99208 13.0009C6.95996 12.9523 6.92263 12.908 6.88184 12.8663C6.84104 12.8255 6.7959 12.7891 6.74816 12.757C6.69954 12.724 6.64833 12.6971 6.59451 12.6745C6.54069 12.6528 6.486 12.6354 6.42871 12.6242C6.37142 12.6129 6.31413 12.6077 6.25597 12.6077H4.486C4.42784 12.6077 4.36968 12.6129 4.31326 12.6242C4.25597 12.6354 4.20041 12.6528 4.14659 12.6745C4.09364 12.6971 4.04243 12.724 3.99382 12.757C3.9452 12.7891 3.90093 12.8255 3.86013 12.8663C3.81847 12.908 3.78201 12.9523 3.74989 13.0009C3.71777 13.0495 3.69 13.0999 3.66829 13.1537C3.64572 13.2075 3.62923 13.263 3.61708 13.3203C3.60579 13.3768 3.60059 13.4349 3.60059 13.4922C3.60059 13.5504 3.60579 13.6085 3.61708 13.665C3.62923 13.7222 3.64572 13.7778 3.66829 13.8316C3.69 13.8854 3.71777 13.9358 3.74989 13.9844C3.78201 14.033 3.81847 14.0773 3.86013 14.119C3.90093 14.1597 3.9452 14.1962 3.99382 14.2283C4.04243 14.2613 4.09364 14.2882 4.14659 14.3108C4.20041 14.3325 4.25597 14.3499 4.31326 14.3611C4.36968 14.3724 4.42784 14.3776 4.486 14.3776Z" fill="#004AAD"/>
<path d="M8.11621 23.1414C8.361 23.1423 8.5702 23.0572 8.74468 22.8845L9.99208 21.6275C10.039 21.5876 10.0806 21.5433 10.1179 21.4956C10.1553 21.447 10.1865 21.3958 10.2134 21.3402C10.2403 21.2855 10.2603 21.2282 10.2751 21.1692C10.2898 21.1102 10.2985 21.0503 10.3011 20.9895C10.3037 20.9279 10.2994 20.868 10.2898 20.8072C10.2794 20.7473 10.2629 20.6892 10.2412 20.6319C10.2186 20.5755 10.1909 20.5216 10.157 20.4704C10.124 20.4192 10.0858 20.3723 10.0424 20.3289C9.99902 20.2864 9.95215 20.2473 9.90093 20.2143C9.85059 20.1814 9.7959 20.1527 9.73948 20.131C9.68305 20.1084 9.62402 20.0928 9.56413 20.0824C9.50423 20.072 9.44347 20.0685 9.3827 20.0703C9.32107 20.0729 9.26118 20.0815 9.20215 20.0963C9.14312 20.111 9.08583 20.1319 9.03114 20.1579C8.97645 20.1848 8.92437 20.217 8.87663 20.2543C8.82802 20.2907 8.78375 20.3333 8.74468 20.3793L7.48774 21.6275C7.44607 21.6683 7.40875 21.7135 7.37576 21.7621C7.34364 21.8107 7.31586 21.8619 7.29329 21.9157C7.27072 21.9696 7.25423 22.0251 7.24295 22.0824C7.23079 22.1397 7.22559 22.1979 7.22559 22.256C7.22559 22.3142 7.23079 22.3723 7.24295 22.4296C7.25423 22.4869 7.27072 22.5425 7.29329 22.5963C7.31586 22.6501 7.34364 22.7013 7.37576 22.7499C7.40875 22.7985 7.44607 22.8428 7.48774 22.8845C7.66135 23.0572 7.87055 23.1423 8.11621 23.1414Z" fill="#004AAD"/>
<path d="M25.0133 22.8845C25.055 22.9262 25.0992 22.9626 25.1479 22.9956C25.1965 23.0277 25.2477 23.0555 25.3015 23.0781C25.3553 23.1006 25.4109 23.1171 25.4682 23.1293C25.5255 23.1406 25.5836 23.1458 25.6418 23.1458C25.7008 23.1458 25.7581 23.1406 25.8154 23.1293C25.8727 23.1171 25.9282 23.1006 25.9821 23.0781C26.0367 23.0555 26.0871 23.0277 26.1357 22.9956C26.1843 22.9626 26.2295 22.9262 26.2703 22.8845C26.3119 22.8428 26.3492 22.7985 26.3814 22.7499C26.4143 22.7013 26.4421 22.6501 26.4638 22.5963C26.4864 22.5425 26.5038 22.4869 26.515 22.4296C26.5263 22.3723 26.5324 22.3142 26.5324 22.256C26.5324 22.1979 26.5263 22.1397 26.515 22.0824C26.5038 22.0251 26.4864 21.9696 26.4638 21.9157C26.4421 21.8619 26.4143 21.8107 26.3814 21.7621C26.3492 21.7135 26.3119 21.6683 26.2703 21.6275L25.0133 20.3793C24.9734 20.3333 24.93 20.2907 24.8814 20.2543C24.8328 20.217 24.7815 20.1848 24.7268 20.1579C24.6722 20.1319 24.6149 20.111 24.5558 20.0963C24.4959 20.0815 24.4361 20.0729 24.3753 20.0703C24.3145 20.0685 24.2538 20.072 24.1939 20.0824C24.1331 20.0928 24.0749 20.1084 24.0185 20.131C23.9612 20.1527 23.9074 20.1814 23.8562 20.2143C23.8058 20.2473 23.7581 20.2864 23.7156 20.3289C23.6722 20.3723 23.634 20.4192 23.6001 20.4704C23.5671 20.5216 23.5393 20.5755 23.5168 20.6319C23.4951 20.6892 23.4786 20.7473 23.4682 20.8072C23.4578 20.868 23.4543 20.9279 23.4569 20.9895C23.4586 21.0503 23.4673 21.1102 23.4821 21.1692C23.4968 21.2282 23.5176 21.2855 23.5446 21.3402C23.5706 21.3958 23.6027 21.447 23.64 21.4956C23.6774 21.5433 23.719 21.5876 23.765 21.6275L25.0133 22.8845Z" fill="#004AAD"/>
<path d="M27.5016 14.3776H29.2716C29.3298 14.3776 29.387 14.3724 29.4443 14.3611C29.5016 14.3499 29.5563 14.3325 29.6101 14.3108C29.664 14.2882 29.7152 14.2613 29.7638 14.2283C29.8115 14.1962 29.8567 14.1597 29.8975 14.119C29.9391 14.0773 29.9756 14.033 30.0077 13.9844C30.0398 13.9358 30.0676 13.8854 30.0893 13.8316C30.1119 13.7778 30.1284 13.7222 30.1396 13.665C30.1509 13.6085 30.157 13.5504 30.157 13.4922C30.157 13.4349 30.1509 13.3768 30.1396 13.3203C30.1284 13.263 30.1119 13.2075 30.0893 13.1537C30.0676 13.0999 30.0398 13.0495 30.0077 13.0009C29.9756 12.9523 29.9391 12.908 29.8975 12.8663C29.8567 12.8255 29.8115 12.7891 29.7638 12.757C29.7152 12.724 29.664 12.6971 29.6101 12.6745C29.5563 12.6528 29.5016 12.6354 29.4443 12.6242C29.387 12.6129 29.3298 12.6077 29.2716 12.6077H27.5016C27.4435 12.6077 27.3853 12.6129 27.3289 12.6242C27.2716 12.6354 27.216 12.6528 27.1622 12.6745C27.1093 12.6971 27.0581 12.724 27.0094 12.757C26.9608 12.7891 26.9166 12.8255 26.8758 12.8663C26.8341 12.908 26.7976 12.9523 26.7655 13.0009C26.7334 13.0495 26.7056 13.0999 26.6839 13.1537C26.6613 13.2075 26.6449 13.263 26.6336 13.3203C26.6214 13.3768 26.6162 13.4349 26.6162 13.4922C26.6162 13.5504 26.6214 13.6085 26.6327 13.665C26.6449 13.7222 26.6613 13.7778 26.6839 13.8316C26.7056 13.8854 26.7334 13.9358 26.7655 13.9844C26.7976 14.033 26.8341 14.0773 26.8758 14.119C26.9166 14.1597 26.9608 14.1962 27.0094 14.2283C27.0581 14.2613 27.1093 14.2882 27.1622 14.3108C27.216 14.3325 27.2716 14.3499 27.3289 14.3611C27.3853 14.3724 27.4435 14.3776 27.5016 14.3776Z" fill="#004AAD"/>
<path d="M24.3932 6.86277C24.6354 6.8619 24.842 6.77596 25.013 6.60582L26.27 5.35756C26.3116 5.31676 26.3481 5.27162 26.3802 5.22301C26.4132 5.1744 26.4401 5.12318 26.4627 5.06936C26.4852 5.01554 26.5017 4.95999 26.513 4.9027C26.5243 4.8454 26.5304 4.78811 26.5304 4.72909C26.5304 4.67093 26.5243 4.61363 26.513 4.55634C26.5017 4.49905 26.4844 4.4435 26.4627 4.38968C26.4401 4.33586 26.4123 4.28464 26.3802 4.23603C26.3481 4.18742 26.3108 4.14228 26.27 4.10148C26.2283 4.05981 26.1832 4.02336 26.1354 3.99037C26.0868 3.95825 26.0356 3.93134 25.9818 3.90877C25.928 3.8862 25.8724 3.86971 25.8151 3.85843C25.7578 3.84627 25.6997 3.84106 25.6415 3.84106C25.5833 3.84106 25.5252 3.84627 25.4679 3.85756C25.4106 3.86884 25.355 3.8862 25.3012 3.90877C25.2474 3.93047 25.1962 3.95825 25.1476 3.99037C25.099 4.02249 25.0547 4.05981 25.013 4.10061L23.7648 5.35756C23.6823 5.44089 23.6189 5.53638 23.5747 5.64402C23.5304 5.75252 23.5078 5.8645 23.5078 5.98169C23.5078 6.09888 23.5304 6.21086 23.5747 6.31936C23.6189 6.427 23.6823 6.52249 23.7648 6.60582C23.9392 6.77856 24.1484 6.86363 24.3932 6.86277Z" fill="#004AAD"/>
</svg>
