<svg xmlns="http://www.w3.org/2000/svg" xmlns:xlink="http://www.w3.org/1999/xlink" width="500" zoomAndPan="magnify" viewBox="0 0 375 374.999991" height="500" preserveAspectRatio="xMidYMid meet" version="1.0"><defs><clipPath id="55624cd857"><path d="M 256 191 L 371.757812 191 L 371.757812 256 L 256 256 Z M 256 191 " clip-rule="nonzero"/></clipPath><clipPath id="d53a00bf05"><path d="M 7.015625 191 L 123 191 L 123 256 L 7.015625 256 Z M 7.015625 191 " clip-rule="nonzero"/></clipPath><clipPath id="04f5cf1b0d"><path d="M 7.015625 191 L 123 191 L 123 256 L 7.015625 256 Z M 7.015625 191 " clip-rule="nonzero"/></clipPath></defs><rect x="-37.5" width="450" fill="#ffffff" y="-37.499999" height="449.999989" fill-opacity="1"/><rect x="-37.5" width="450" fill="#ffffff" y="-37.499999" height="449.999989" fill-opacity="1"/><path fill="#38b6ff" d="M 112.296875 158.203125 C 106.699219 149.238281 107.679688 133.785156 103.464844 118.328125 C 98.910156 101.621094 80.378906 97.066406 69.238281 95.546875 C 59.582031 94.230469 50.015625 97.625 41.535156 106.734375 C 38.730469 109.75 36.53125 113.292969 35.097656 117.152344 C 29.878906 131.179688 30.714844 147.195312 24.164062 159.296875 C 22.308594 162.722656 21.113281 166.484375 20.90625 170.375 C 20.042969 186.644531 37.277344 182.316406 54.554688 181.515625 C 43.316406 173.921875 38.457031 148.707031 38.457031 148.707031 C 48.480469 142.632812 58.808594 125.621094 58.808594 125.621094 C 58.808594 125.621094 64.695312 141.511719 78.476562 142.679688 C 78.476562 142.679688 71.988281 141.097656 69.25 135.070312 C 82.367188 143.445312 96.78125 142.820312 96.78125 142.820312 C 100.429688 166.097656 82.503906 180 82.503906 180 C 82.503906 180 95.214844 186.226562 103.113281 183.191406 C 109.042969 180.910156 115.796875 176.0625 115.429688 167.667969 C 115.285156 164.289062 114.085938 161.070312 112.296875 158.203125 Z M 112.296875 158.203125 " fill-opacity="1" fill-rule="nonzero"/><path fill="#38b6ff" d="M 95.972656 217.605469 L 96.03125 217.308594 C 97.351562 210.449219 101.691406 204.75 107.632812 202.0625 L 118.960938 196.917969 L 107.972656 191.730469 C 106.402344 190.996094 104.578125 190.96875 102.980469 191.648438 L 79.511719 201.660156 C 73.265625 204.324219 66.203125 204.324219 59.957031 201.660156 L 36.488281 191.648438 C 34.886719 190.96875 33.082031 190.996094 31.507812 191.730469 L 16.9375 198.601562 C 12.222656 200.824219 8.957031 205.304688 8.289062 210.476562 L 4.066406 243.15625 C 3.585938 246.867188 6.125 250.300781 9.820312 250.90625 C 28.75 254.011719 57.730469 257.160156 91.152344 255.417969 Z M 95.972656 217.605469 " fill-opacity="1" fill-rule="nonzero"/><path fill="#38b6ff" d="M 347.976562 158.203125 C 342.375 149.238281 343.359375 133.785156 339.144531 118.328125 C 334.589844 101.621094 316.058594 97.066406 304.917969 95.546875 C 295.261719 94.230469 285.695312 97.625 277.214844 106.734375 C 274.410156 109.75 272.210938 113.292969 270.777344 117.152344 C 265.554688 131.179688 266.394531 147.195312 259.84375 159.296875 C 257.988281 162.722656 256.792969 166.484375 256.585938 170.375 C 255.722656 186.644531 272.957031 182.316406 290.234375 181.515625 C 278.996094 173.921875 274.132812 148.707031 274.132812 148.707031 C 284.160156 142.632812 294.488281 125.621094 294.488281 125.621094 C 294.488281 125.621094 300.375 141.511719 314.15625 142.679688 C 314.15625 142.679688 307.667969 141.097656 304.929688 135.070312 C 318.046875 143.445312 332.460938 142.820312 332.460938 142.820312 C 336.105469 166.097656 318.183594 180 318.183594 180 C 318.183594 180 330.894531 186.226562 338.792969 183.191406 C 344.722656 180.910156 351.476562 176.0625 351.109375 167.667969 C 350.960938 164.289062 349.765625 161.070312 347.976562 158.203125 Z M 347.976562 158.203125 " fill-opacity="1" fill-rule="nonzero"/><g clip-path="url(#55624cd857)"><path fill="#38b6ff" d="M 371.136719 243.488281 L 366.859375 210.476562 C 366.191406 205.304688 362.9375 200.824219 358.210938 198.601562 L 343.652344 191.730469 C 342.078125 190.996094 340.257812 190.96875 338.660156 191.648438 L 315.191406 201.660156 C 308.945312 204.324219 301.878906 204.324219 295.632812 201.660156 L 272.164062 191.648438 C 270.566406 190.96875 268.757812 190.996094 267.1875 191.730469 L 256.222656 196.902344 L 267.601562 202.066406 C 273.53125 204.769531 277.855469 210.464844 279.171875 217.308594 L 279.265625 217.902344 L 284.019531 255.195312 C 307.375 256.628906 335.539062 256.269531 365.398438 251.246094 C 369.082031 250.625 371.617188 247.191406 371.136719 243.488281 Z M 371.136719 243.488281 " fill-opacity="1" fill-rule="nonzero"/></g><path fill="#0a53bf" d="M 198.449219 196.515625 C 200.101562 194.785156 198.847656 191.953125 196.429688 191.953125 L 179.207031 191.953125 C 176.722656 191.953125 175.496094 194.910156 177.277344 196.605469 L 181.453125 200.59375 L 181.496094 200.59375 L 171.238281 231.488281 L 174.484375 267.550781 L 200.476562 267.550781 L 204 231.488281 L 194.5625 200.59375 Z M 198.449219 196.515625 " fill-opacity="1" fill-rule="nonzero"/><path fill="#0a53bf" d="M 105.3125 219.097656 C 105.3125 219.097656 101.566406 248.441406 99.90625 261.460938 C 99.492188 264.699219 102.070312 267.550781 105.398438 267.550781 L 164.691406 267.550781 L 161.132812 229.550781 L 168.253906 211.015625 L 168.253906 184.917969 L 111.527344 210.671875 C 108.375 212.097656 106.050781 215.265625 105.3125 219.097656 Z M 105.3125 219.097656 " fill-opacity="1" fill-rule="nonzero"/><path fill="#0a53bf" d="M 275.296875 261.460938 C 273.636719 248.441406 269.890625 219.097656 269.890625 219.097656 C 269.152344 215.265625 266.828125 212.097656 263.691406 210.671875 L 206.96875 184.917969 L 206.96875 209.730469 L 214.050781 229.949219 L 210.253906 267.550781 L 269.804688 267.550781 C 273.132812 267.550781 275.707031 264.699219 275.296875 261.460938 Z M 275.296875 261.460938 " fill-opacity="1" fill-rule="nonzero"/><path fill="#0a53bf" d="M 165.679688 152.765625 C 164.523438 152.765625 163.414062 152.308594 162.597656 151.488281 C 161.78125 150.671875 161.320312 149.5625 161.320312 148.40625 C 161.320312 142.65625 158.6875 137.242188 154.09375 133.550781 C 141.394531 123.351562 134.097656 108.171875 134.066406 91.910156 C 134.015625 63.027344 157.453125 38.976562 186.308594 38.292969 C 200.847656 37.957031 214.601562 43.355469 225.003906 53.511719 C 235.40625 63.671875 241.136719 77.273438 241.136719 91.8125 C 241.136719 108.117188 233.832031 123.335938 221.101562 133.558594 C 216.511719 137.242188 213.878906 142.65625 213.878906 148.40625 C 213.878906 150.8125 211.929688 152.765625 209.523438 152.765625 Z M 170.039062 148.40625 L 170.046875 148.40625 Z M 169.691406 144.050781 L 205.511719 144.050781 C 206.589844 137.3125 210.148438 131.171875 215.640625 126.761719 C 226.304688 118.199219 232.417969 105.460938 232.417969 91.8125 C 232.417969 79.640625 227.621094 68.253906 218.914062 59.75 C 210.207031 51.246094 198.703125 46.726562 186.511719 47.007812 C 162.359375 47.578125 142.742188 67.714844 142.785156 91.894531 C 142.808594 105.507812 148.921875 118.214844 159.554688 126.757812 C 165.050781 131.171875 168.613281 137.316406 169.691406 144.050781 Z M 169.691406 144.050781 " fill-opacity="1" fill-rule="nonzero"/><path fill="#0a53bf" d="M 167.195312 167.832031 C 167.585938 170.535156 169.902344 172.546875 172.636719 172.546875 L 174.988281 172.546875 L 174.988281 175.46875 C 174.988281 177.828125 176.898438 179.742188 179.257812 179.742188 L 195.941406 179.742188 C 198.300781 179.742188 200.214844 177.828125 200.214844 175.46875 L 200.214844 172.546875 L 202.566406 172.546875 C 205.300781 172.546875 207.617188 170.535156 208.007812 167.832031 L 209.390625 158.167969 L 165.8125 158.167969 Z M 167.195312 167.832031 " fill-opacity="1" fill-rule="nonzero"/><path fill="#0a53bf" d="M 141.097656 46.09375 C 140.15625 46.09375 139.214844 45.734375 138.5 45.015625 L 130.21875 36.734375 C 128.78125 35.300781 128.78125 32.976562 130.21875 31.542969 C 131.648438 30.105469 133.976562 30.105469 135.410156 31.542969 L 143.691406 39.824219 C 145.128906 41.257812 145.128906 43.582031 143.691406 45.015625 C 142.976562 45.734375 142.035156 46.09375 141.097656 46.09375 Z M 141.097656 46.09375 " fill-opacity="1" fill-rule="nonzero"/><path fill="#0a53bf" d="M 130.640625 59.714844 C 130.015625 59.714844 129.386719 59.558594 128.808594 59.222656 L 118.664062 53.367188 C 116.90625 52.351562 116.304688 50.105469 117.320312 48.347656 C 118.332031 46.597656 120.582031 45.988281 122.335938 47.003906 L 132.480469 52.859375 C 134.238281 53.875 134.839844 56.121094 133.824219 57.878906 C 133.144531 59.054688 131.910156 59.714844 130.640625 59.714844 Z M 130.640625 59.714844 " fill-opacity="1" fill-rule="nonzero"/><path fill="#0a53bf" d="M 124.074219 75.578125 C 123.761719 75.578125 123.441406 75.539062 123.121094 75.453125 L 111.808594 72.417969 C 109.851562 71.894531 108.6875 69.878906 109.210938 67.921875 C 109.738281 65.960938 111.753906 64.800781 113.710938 65.324219 L 125.023438 68.355469 C 126.984375 68.882812 128.144531 70.894531 127.621094 72.855469 C 127.179688 74.496094 125.695312 75.578125 124.074219 75.578125 Z M 124.074219 75.578125 " fill-opacity="1" fill-rule="nonzero"/><path fill="#0a53bf" d="M 121.832031 92.597656 L 110.121094 92.597656 C 108.089844 92.597656 106.445312 90.953125 106.445312 88.925781 C 106.445312 86.898438 108.089844 85.253906 110.121094 85.253906 L 121.832031 85.253906 C 123.859375 85.253906 125.503906 86.898438 125.503906 88.925781 C 125.503906 90.953125 123.859375 92.597656 121.832031 92.597656 Z M 121.832031 92.597656 " fill-opacity="1" fill-rule="nonzero"/><path fill="#0a53bf" d="M 265.082031 92.597656 L 253.371094 92.597656 C 251.339844 92.597656 249.695312 90.953125 249.695312 88.925781 C 249.695312 86.898438 251.339844 85.253906 253.371094 85.253906 L 265.082031 85.253906 C 267.109375 85.253906 268.753906 86.898438 268.753906 88.925781 C 268.753906 90.953125 267.109375 92.597656 265.082031 92.597656 Z M 265.082031 92.597656 " fill-opacity="1" fill-rule="nonzero"/><path fill="#0a53bf" d="M 251.125 75.578125 C 249.503906 75.578125 248.023438 74.496094 247.582031 72.855469 C 247.054688 70.894531 248.21875 68.882812 250.179688 68.355469 L 261.492188 65.324219 C 263.453125 64.800781 265.464844 65.960938 265.988281 67.921875 C 266.515625 69.878906 265.351562 71.894531 263.394531 72.417969 L 252.078125 75.453125 C 251.761719 75.539062 251.441406 75.578125 251.125 75.578125 Z M 251.125 75.578125 " fill-opacity="1" fill-rule="nonzero"/><path fill="#0a53bf" d="M 244.5625 59.714844 C 243.292969 59.714844 242.058594 59.058594 241.378906 57.878906 C 240.363281 56.121094 240.964844 53.875 242.722656 52.859375 L 252.867188 47.003906 C 254.625 45.988281 256.871094 46.59375 257.882812 48.347656 C 258.898438 50.105469 258.292969 52.351562 256.539062 53.367188 L 246.394531 59.222656 C 245.816406 59.558594 245.1875 59.714844 244.5625 59.714844 Z M 244.5625 59.714844 " fill-opacity="1" fill-rule="nonzero"/><path fill="#0a53bf" d="M 234.105469 46.09375 C 233.167969 46.09375 232.226562 45.734375 231.511719 45.015625 C 230.074219 43.582031 230.074219 41.257812 231.511719 39.824219 L 239.792969 31.542969 C 241.226562 30.105469 243.554688 30.105469 244.984375 31.542969 C 246.421875 32.976562 246.421875 35.300781 244.984375 36.734375 L 236.703125 45.015625 C 235.988281 45.734375 235.046875 46.09375 234.105469 46.09375 Z M 234.105469 46.09375 " fill-opacity="1" fill-rule="nonzero"/><path fill="#38b6ff" d="M 115.804688 158.203125 C 110.207031 149.238281 111.1875 133.785156 106.972656 118.328125 C 102.417969 101.621094 83.886719 97.066406 72.746094 95.546875 C 63.089844 94.230469 53.523438 97.625 45.046875 106.734375 C 42.238281 109.75 40.042969 113.292969 38.605469 117.152344 C 33.386719 131.179688 34.222656 147.195312 27.671875 159.296875 C 25.816406 162.722656 24.621094 166.484375 24.414062 170.375 C 23.550781 186.644531 40.785156 182.316406 58.0625 181.515625 C 46.824219 173.921875 41.964844 148.707031 41.964844 148.707031 C 51.988281 142.632812 62.316406 125.621094 62.316406 125.621094 C 62.316406 125.621094 68.203125 141.511719 81.984375 142.679688 C 81.984375 142.679688 75.5 141.097656 72.757812 135.070312 C 85.875 143.445312 100.289062 142.820312 100.289062 142.820312 C 103.9375 166.097656 86.011719 180 86.011719 180 C 86.011719 180 98.722656 186.226562 106.621094 183.191406 C 112.550781 180.910156 119.304688 176.0625 118.9375 167.667969 C 118.792969 164.289062 117.597656 161.070312 115.804688 158.203125 Z M 115.804688 158.203125 " fill-opacity="1" fill-rule="nonzero"/><g clip-path="url(#d53a00bf05)"><path fill="#38b6ff" d="M 99.484375 217.605469 L 99.539062 217.308594 C 100.859375 210.449219 105.199219 204.75 111.140625 202.0625 L 122.46875 196.917969 L 111.480469 191.730469 C 109.910156 190.996094 108.085938 190.96875 106.488281 191.648438 L 83.019531 201.660156 C 76.773438 204.324219 69.710938 204.324219 63.464844 201.660156 L 39.996094 191.648438 C 38.394531 190.96875 36.589844 190.996094 35.015625 191.730469 L 20.445312 198.601562 C 15.730469 200.824219 12.464844 205.304688 11.796875 210.476562 L 7.574219 243.15625 C 7.09375 246.867188 9.632812 250.300781 13.328125 250.90625 C 32.257812 254.011719 61.238281 257.160156 94.660156 255.417969 Z M 99.484375 217.605469 " fill-opacity="1" fill-rule="nonzero"/></g><path fill="#38b6ff" d="M 351.484375 158.203125 C 345.882812 149.238281 346.867188 133.785156 342.652344 118.328125 C 338.097656 101.621094 319.566406 97.066406 308.425781 95.546875 C 298.769531 94.230469 289.203125 97.625 280.722656 106.734375 C 277.917969 109.75 275.71875 113.292969 274.285156 117.152344 C 269.0625 131.179688 269.902344 147.195312 263.351562 159.296875 C 261.496094 162.722656 260.300781 166.484375 260.09375 170.375 C 259.230469 186.644531 276.464844 182.316406 293.742188 181.515625 C 282.503906 173.921875 277.644531 148.707031 277.644531 148.707031 C 287.667969 142.632812 297.996094 125.621094 297.996094 125.621094 C 297.996094 125.621094 303.882812 141.511719 317.664062 142.679688 C 317.664062 142.679688 311.175781 141.097656 308.4375 135.070312 C 321.554688 143.445312 335.96875 142.820312 335.96875 142.820312 C 339.613281 166.097656 321.691406 180 321.691406 180 C 321.691406 180 334.402344 186.226562 342.300781 183.191406 C 348.230469 180.910156 354.984375 176.0625 354.617188 167.667969 C 354.46875 164.289062 353.273438 161.070312 351.484375 158.203125 Z M 351.484375 158.203125 " fill-opacity="1" fill-rule="nonzero"/><path fill="#38b6ff" d="M 374.644531 243.488281 L 370.367188 210.476562 C 369.699219 205.304688 366.445312 200.824219 361.71875 198.601562 L 347.160156 191.730469 C 345.585938 190.996094 343.765625 190.96875 342.167969 191.648438 L 318.699219 201.660156 C 312.453125 204.324219 305.390625 204.324219 299.144531 201.660156 L 275.671875 191.648438 C 274.074219 190.96875 272.265625 190.996094 270.695312 191.730469 L 259.730469 196.902344 L 271.109375 202.066406 C 277.039062 204.769531 281.363281 210.464844 282.679688 217.308594 L 282.773438 217.902344 L 287.527344 255.195312 C 310.882812 256.628906 339.046875 256.269531 368.90625 251.246094 C 372.589844 250.625 375.125 247.191406 374.644531 243.488281 Z M 374.644531 243.488281 " fill-opacity="1" fill-rule="nonzero"/><path fill="#0a53bf" d="M 201.957031 196.515625 C 203.609375 194.785156 202.355469 191.953125 199.9375 191.953125 L 182.714844 191.953125 C 180.230469 191.953125 179.003906 194.910156 180.785156 196.605469 L 184.960938 200.59375 L 185.003906 200.59375 L 174.746094 231.488281 L 177.992188 267.550781 L 203.984375 267.550781 L 207.507812 231.488281 L 198.070312 200.59375 Z M 201.957031 196.515625 " fill-opacity="1" fill-rule="nonzero"/><path fill="#0a53bf" d="M 108.820312 219.097656 C 108.820312 219.097656 105.074219 248.441406 103.414062 261.460938 C 103.003906 264.699219 105.578125 267.550781 108.90625 267.550781 L 168.199219 267.550781 L 164.640625 229.550781 L 171.761719 211.015625 L 171.761719 184.917969 L 115.035156 210.671875 C 111.882812 212.097656 109.558594 215.265625 108.820312 219.097656 Z M 108.820312 219.097656 " fill-opacity="1" fill-rule="nonzero"/><path fill="#0a53bf" d="M 278.804688 261.460938 C 277.144531 248.441406 273.398438 219.097656 273.398438 219.097656 C 272.660156 215.265625 270.335938 212.097656 267.199219 210.671875 L 210.476562 184.917969 L 210.476562 209.730469 L 217.558594 229.949219 L 213.761719 267.550781 L 273.3125 267.550781 C 276.640625 267.550781 279.214844 264.699219 278.804688 261.460938 Z M 278.804688 261.460938 " fill-opacity="1" fill-rule="nonzero"/><path fill="#0a53bf" d="M 169.1875 152.765625 C 168.03125 152.765625 166.925781 152.308594 166.105469 151.488281 C 165.289062 150.671875 164.828125 149.5625 164.828125 148.40625 C 164.828125 142.65625 162.195312 137.242188 157.601562 133.550781 C 144.902344 123.351562 137.605469 108.171875 137.574219 91.910156 C 137.523438 63.027344 160.960938 38.976562 189.816406 38.292969 C 204.355469 37.957031 218.113281 43.355469 228.511719 53.511719 C 238.914062 63.671875 244.644531 77.273438 244.644531 91.8125 C 244.644531 108.117188 237.339844 123.335938 224.609375 133.558594 C 220.019531 137.242188 217.386719 142.65625 217.386719 148.40625 C 217.386719 150.8125 215.4375 152.765625 213.03125 152.765625 Z M 173.546875 148.40625 L 173.554688 148.40625 Z M 173.199219 144.050781 L 209.019531 144.050781 C 210.097656 137.3125 213.65625 131.171875 219.148438 126.761719 C 229.8125 118.199219 235.925781 105.460938 235.925781 91.8125 C 235.925781 79.640625 231.128906 68.253906 222.421875 59.75 C 213.714844 51.246094 202.214844 46.726562 190.023438 47.007812 C 165.867188 47.578125 146.25 67.714844 146.292969 91.894531 C 146.316406 105.507812 152.429688 118.214844 163.0625 126.757812 C 168.558594 131.171875 172.121094 137.316406 173.199219 144.050781 Z M 173.199219 144.050781 " fill-opacity="1" fill-rule="nonzero"/><path fill="#0a53bf" d="M 170.703125 167.832031 C 171.09375 170.535156 173.410156 172.546875 176.144531 172.546875 L 178.496094 172.546875 L 178.496094 175.46875 C 178.496094 177.828125 180.40625 179.742188 182.769531 179.742188 L 199.449219 179.742188 C 201.8125 179.742188 203.722656 177.828125 203.722656 175.46875 L 203.722656 172.546875 L 206.074219 172.546875 C 208.808594 172.546875 211.125 170.535156 211.515625 167.832031 L 212.898438 158.167969 L 169.320312 158.167969 Z M 170.703125 167.832031 " fill-opacity="1" fill-rule="nonzero"/><path fill="#0a53bf" d="M 144.605469 46.09375 C 143.664062 46.09375 142.726562 45.734375 142.007812 45.015625 L 133.726562 36.734375 C 132.289062 35.300781 132.289062 32.976562 133.726562 31.542969 C 135.15625 30.105469 137.484375 30.105469 138.917969 31.542969 L 147.203125 39.824219 C 148.636719 41.257812 148.636719 43.582031 147.203125 45.015625 C 146.484375 45.734375 145.542969 46.09375 144.605469 46.09375 Z M 144.605469 46.09375 " fill-opacity="1" fill-rule="nonzero"/><path fill="#0a53bf" d="M 134.148438 59.714844 C 133.527344 59.714844 132.894531 59.558594 132.316406 59.222656 L 122.171875 53.367188 C 120.414062 52.351562 119.8125 50.105469 120.828125 48.347656 C 121.84375 46.597656 124.089844 45.988281 125.84375 47.003906 L 135.988281 52.859375 C 137.746094 53.875 138.347656 56.121094 137.332031 57.878906 C 136.652344 59.054688 135.417969 59.714844 134.148438 59.714844 Z M 134.148438 59.714844 " fill-opacity="1" fill-rule="nonzero"/><path fill="#0a53bf" d="M 127.582031 75.578125 C 127.269531 75.578125 126.949219 75.539062 126.628906 75.453125 L 115.316406 72.417969 C 113.359375 71.894531 112.195312 69.878906 112.722656 67.921875 C 113.246094 65.960938 115.261719 64.800781 117.21875 65.324219 L 128.53125 68.355469 C 130.492188 68.882812 131.65625 70.894531 131.128906 72.855469 C 130.6875 74.496094 129.203125 75.578125 127.582031 75.578125 Z M 127.582031 75.578125 " fill-opacity="1" fill-rule="nonzero"/><path fill="#0a53bf" d="M 125.339844 92.597656 L 113.628906 92.597656 C 111.597656 92.597656 109.957031 90.953125 109.957031 88.925781 C 109.957031 86.898438 111.597656 85.253906 113.628906 85.253906 L 125.339844 85.253906 C 127.371094 85.253906 129.011719 86.898438 129.011719 88.925781 C 129.011719 90.953125 127.371094 92.597656 125.339844 92.597656 Z M 125.339844 92.597656 " fill-opacity="1" fill-rule="nonzero"/><path fill="#0a53bf" d="M 268.589844 92.597656 L 256.878906 92.597656 C 254.847656 92.597656 253.203125 90.953125 253.203125 88.925781 C 253.203125 86.898438 254.847656 85.253906 256.878906 85.253906 L 268.589844 85.253906 C 270.621094 85.253906 272.261719 86.898438 272.261719 88.925781 C 272.261719 90.953125 270.621094 92.597656 268.589844 92.597656 Z M 268.589844 92.597656 " fill-opacity="1" fill-rule="nonzero"/><path fill="#0a53bf" d="M 254.636719 75.578125 C 253.015625 75.578125 251.53125 74.496094 251.089844 72.855469 C 250.5625 70.894531 251.726562 68.882812 253.6875 68.355469 L 265 65.324219 C 266.960938 64.800781 268.972656 65.960938 269.496094 67.921875 C 270.023438 69.878906 268.859375 71.894531 266.902344 72.417969 L 255.585938 75.453125 C 255.269531 75.539062 254.949219 75.578125 254.636719 75.578125 Z M 254.636719 75.578125 " fill-opacity="1" fill-rule="nonzero"/><path fill="#0a53bf" d="M 248.070312 59.714844 C 246.800781 59.714844 245.566406 59.058594 244.886719 57.878906 C 243.871094 56.121094 244.472656 53.875 246.230469 52.859375 L 256.375 47.003906 C 258.132812 45.988281 260.378906 46.59375 261.390625 48.347656 C 262.40625 50.105469 261.804688 52.351562 260.046875 53.367188 L 249.902344 59.222656 C 249.324219 59.558594 248.695312 59.714844 248.070312 59.714844 Z M 248.070312 59.714844 " fill-opacity="1" fill-rule="nonzero"/><path fill="#0a53bf" d="M 237.617188 46.09375 C 236.675781 46.09375 235.734375 45.734375 235.019531 45.015625 C 233.582031 43.582031 233.582031 41.257812 235.019531 39.824219 L 243.300781 31.542969 C 244.734375 30.105469 247.0625 30.105469 248.496094 31.542969 C 249.929688 32.976562 249.929688 35.300781 248.496094 36.734375 L 240.210938 45.015625 C 239.496094 45.734375 238.554688 46.09375 237.617188 46.09375 Z M 237.617188 46.09375 " fill-opacity="1" fill-rule="nonzero"/><path fill="#38b6ff" d="M 115.804688 158.203125 C 110.207031 149.238281 111.1875 133.785156 106.972656 118.328125 C 102.417969 101.621094 83.886719 97.066406 72.746094 95.546875 C 63.089844 94.230469 53.523438 97.625 45.046875 106.734375 C 42.238281 109.75 40.042969 113.292969 38.605469 117.152344 C 33.386719 131.179688 34.222656 147.195312 27.671875 159.296875 C 25.816406 162.722656 24.621094 166.484375 24.414062 170.375 C 23.550781 186.644531 40.785156 182.316406 58.0625 181.515625 C 46.824219 173.921875 41.964844 148.707031 41.964844 148.707031 C 51.988281 142.632812 62.316406 125.621094 62.316406 125.621094 C 62.316406 125.621094 68.203125 141.511719 81.984375 142.679688 C 81.984375 142.679688 75.5 141.097656 72.757812 135.070312 C 85.875 143.445312 100.289062 142.820312 100.289062 142.820312 C 103.9375 166.097656 86.011719 180 86.011719 180 C 86.011719 180 98.722656 186.226562 106.621094 183.191406 C 112.550781 180.910156 119.304688 176.0625 118.9375 167.667969 C 118.792969 164.289062 117.597656 161.070312 115.804688 158.203125 Z M 115.804688 158.203125 " fill-opacity="1" fill-rule="nonzero"/><g clip-path="url(#04f5cf1b0d)"><path fill="#38b6ff" d="M 99.484375 217.605469 L 99.539062 217.308594 C 100.859375 210.449219 105.199219 204.75 111.140625 202.0625 L 122.46875 196.917969 L 111.480469 191.730469 C 109.910156 190.996094 108.085938 190.96875 106.488281 191.648438 L 83.019531 201.660156 C 76.773438 204.324219 69.710938 204.324219 63.464844 201.660156 L 39.996094 191.648438 C 38.394531 190.96875 36.589844 190.996094 35.015625 191.730469 L 20.445312 198.601562 C 15.730469 200.824219 12.464844 205.304688 11.796875 210.476562 L 7.574219 243.15625 C 7.09375 246.867188 9.632812 250.300781 13.328125 250.90625 C 32.257812 254.011719 61.238281 257.160156 94.660156 255.417969 Z M 99.484375 217.605469 " fill-opacity="1" fill-rule="nonzero"/></g><path fill="#38b6ff" d="M 351.484375 158.203125 C 345.882812 149.238281 346.867188 133.785156 342.652344 118.328125 C 338.097656 101.621094 319.566406 97.066406 308.425781 95.546875 C 298.769531 94.230469 289.203125 97.625 280.722656 106.734375 C 277.917969 109.75 275.71875 113.292969 274.285156 117.152344 C 269.0625 131.179688 269.902344 147.195312 263.351562 159.296875 C 261.496094 162.722656 260.300781 166.484375 260.09375 170.375 C 259.230469 186.644531 276.464844 182.316406 293.742188 181.515625 C 282.503906 173.921875 277.644531 148.707031 277.644531 148.707031 C 287.667969 142.632812 297.996094 125.621094 297.996094 125.621094 C 297.996094 125.621094 303.882812 141.511719 317.664062 142.679688 C 317.664062 142.679688 311.175781 141.097656 308.4375 135.070312 C 321.554688 143.445312 335.96875 142.820312 335.96875 142.820312 C 339.613281 166.097656 321.691406 180 321.691406 180 C 321.691406 180 334.402344 186.226562 342.300781 183.191406 C 348.230469 180.910156 354.984375 176.0625 354.617188 167.667969 C 354.46875 164.289062 353.273438 161.070312 351.484375 158.203125 Z M 351.484375 158.203125 " fill-opacity="1" fill-rule="nonzero"/><path fill="#38b6ff" d="M 374.644531 243.488281 L 370.367188 210.476562 C 369.699219 205.304688 366.445312 200.824219 361.71875 198.601562 L 347.160156 191.730469 C 345.585938 190.996094 343.765625 190.96875 342.167969 191.648438 L 318.699219 201.660156 C 312.453125 204.324219 305.390625 204.324219 299.144531 201.660156 L 275.671875 191.648438 C 274.074219 190.96875 272.265625 190.996094 270.695312 191.730469 L 259.730469 196.902344 L 271.109375 202.066406 C 277.039062 204.769531 281.363281 210.464844 282.679688 217.308594 L 282.773438 217.902344 L 287.527344 255.195312 C 310.882812 256.628906 339.046875 256.269531 368.90625 251.246094 C 372.589844 250.625 375.125 247.191406 374.644531 243.488281 Z M 374.644531 243.488281 " fill-opacity="1" fill-rule="nonzero"/><path fill="#0a53bf" d="M 201.957031 196.515625 C 203.609375 194.785156 202.355469 191.953125 199.9375 191.953125 L 182.714844 191.953125 C 180.230469 191.953125 179.003906 194.910156 180.785156 196.605469 L 184.960938 200.59375 L 185.003906 200.59375 L 174.746094 231.488281 L 177.992188 267.550781 L 203.984375 267.550781 L 207.507812 231.488281 L 198.070312 200.59375 Z M 201.957031 196.515625 " fill-opacity="1" fill-rule="nonzero"/><path fill="#0a53bf" d="M 108.820312 219.097656 C 108.820312 219.097656 105.074219 248.441406 103.414062 261.460938 C 103.003906 264.699219 105.578125 267.550781 108.90625 267.550781 L 168.199219 267.550781 L 164.640625 229.550781 L 171.761719 211.015625 L 171.761719 184.917969 L 115.035156 210.671875 C 111.882812 212.097656 109.558594 215.265625 108.820312 219.097656 Z M 108.820312 219.097656 " fill-opacity="1" fill-rule="nonzero"/><path fill="#0a53bf" d="M 278.804688 261.460938 C 277.144531 248.441406 273.398438 219.097656 273.398438 219.097656 C 272.660156 215.265625 270.335938 212.097656 267.199219 210.671875 L 210.476562 184.917969 L 210.476562 209.730469 L 217.558594 229.949219 L 213.761719 267.550781 L 273.3125 267.550781 C 276.640625 267.550781 279.214844 264.699219 278.804688 261.460938 Z M 278.804688 261.460938 " fill-opacity="1" fill-rule="nonzero"/><path fill="#0a53bf" d="M 169.1875 152.765625 C 168.03125 152.765625 166.925781 152.308594 166.105469 151.488281 C 165.289062 150.671875 164.828125 149.5625 164.828125 148.40625 C 164.828125 142.65625 162.195312 137.242188 157.601562 133.550781 C 144.902344 123.351562 137.605469 108.171875 137.574219 91.910156 C 137.523438 63.027344 160.960938 38.976562 189.816406 38.292969 C 204.355469 37.957031 218.113281 43.355469 228.511719 53.511719 C 238.914062 63.671875 244.644531 77.273438 244.644531 91.8125 C 244.644531 108.117188 237.339844 123.335938 224.609375 133.558594 C 220.019531 137.242188 217.386719 142.65625 217.386719 148.40625 C 217.386719 150.8125 215.4375 152.765625 213.03125 152.765625 Z M 173.546875 148.40625 L 173.554688 148.40625 Z M 173.199219 144.050781 L 209.019531 144.050781 C 210.097656 137.3125 213.65625 131.171875 219.148438 126.761719 C 229.8125 118.199219 235.925781 105.460938 235.925781 91.8125 C 235.925781 79.640625 231.128906 68.253906 222.421875 59.75 C 213.714844 51.246094 202.214844 46.726562 190.023438 47.007812 C 165.867188 47.578125 146.25 67.714844 146.292969 91.894531 C 146.316406 105.507812 152.429688 118.214844 163.0625 126.757812 C 168.558594 131.171875 172.121094 137.316406 173.199219 144.050781 Z M 173.199219 144.050781 " fill-opacity="1" fill-rule="nonzero"/><path fill="#0a53bf" d="M 170.703125 167.832031 C 171.09375 170.535156 173.410156 172.546875 176.144531 172.546875 L 178.496094 172.546875 L 178.496094 175.46875 C 178.496094 177.828125 180.40625 179.742188 182.769531 179.742188 L 199.449219 179.742188 C 201.8125 179.742188 203.722656 177.828125 203.722656 175.46875 L 203.722656 172.546875 L 206.074219 172.546875 C 208.808594 172.546875 211.125 170.535156 211.515625 167.832031 L 212.898438 158.167969 L 169.320312 158.167969 Z M 170.703125 167.832031 " fill-opacity="1" fill-rule="nonzero"/><path fill="#0a53bf" d="M 144.605469 46.09375 C 143.664062 46.09375 142.726562 45.734375 142.007812 45.015625 L 133.726562 36.734375 C 132.289062 35.300781 132.289062 32.976562 133.726562 31.542969 C 135.15625 30.105469 137.484375 30.105469 138.917969 31.542969 L 147.203125 39.824219 C 148.636719 41.257812 148.636719 43.582031 147.203125 45.015625 C 146.484375 45.734375 145.542969 46.09375 144.605469 46.09375 Z M 144.605469 46.09375 " fill-opacity="1" fill-rule="nonzero"/><path fill="#0a53bf" d="M 134.148438 59.714844 C 133.527344 59.714844 132.894531 59.558594 132.316406 59.222656 L 122.171875 53.367188 C 120.414062 52.351562 119.8125 50.105469 120.828125 48.347656 C 121.84375 46.597656 124.089844 45.988281 125.84375 47.003906 L 135.988281 52.859375 C 137.746094 53.875 138.347656 56.121094 137.332031 57.878906 C 136.652344 59.054688 135.417969 59.714844 134.148438 59.714844 Z M 134.148438 59.714844 " fill-opacity="1" fill-rule="nonzero"/><path fill="#0a53bf" d="M 127.582031 75.578125 C 127.269531 75.578125 126.949219 75.539062 126.628906 75.453125 L 115.316406 72.417969 C 113.359375 71.894531 112.195312 69.878906 112.722656 67.921875 C 113.246094 65.960938 115.261719 64.800781 117.21875 65.324219 L 128.53125 68.355469 C 130.492188 68.882812 131.65625 70.894531 131.128906 72.855469 C 130.6875 74.496094 129.203125 75.578125 127.582031 75.578125 Z M 127.582031 75.578125 " fill-opacity="1" fill-rule="nonzero"/><path fill="#0a53bf" d="M 125.339844 92.597656 L 113.628906 92.597656 C 111.597656 92.597656 109.957031 90.953125 109.957031 88.925781 C 109.957031 86.898438 111.597656 85.253906 113.628906 85.253906 L 125.339844 85.253906 C 127.371094 85.253906 129.011719 86.898438 129.011719 88.925781 C 129.011719 90.953125 127.371094 92.597656 125.339844 92.597656 Z M 125.339844 92.597656 " fill-opacity="1" fill-rule="nonzero"/><path fill="#0a53bf" d="M 268.589844 92.597656 L 256.878906 92.597656 C 254.847656 92.597656 253.203125 90.953125 253.203125 88.925781 C 253.203125 86.898438 254.847656 85.253906 256.878906 85.253906 L 268.589844 85.253906 C 270.621094 85.253906 272.261719 86.898438 272.261719 88.925781 C 272.261719 90.953125 270.621094 92.597656 268.589844 92.597656 Z M 268.589844 92.597656 " fill-opacity="1" fill-rule="nonzero"/><path fill="#0a53bf" d="M 254.636719 75.578125 C 253.015625 75.578125 251.53125 74.496094 251.089844 72.855469 C 250.5625 70.894531 251.726562 68.882812 253.6875 68.355469 L 265 65.324219 C 266.960938 64.800781 268.972656 65.960938 269.496094 67.921875 C 270.023438 69.878906 268.859375 71.894531 266.902344 72.417969 L 255.585938 75.453125 C 255.269531 75.539062 254.949219 75.578125 254.636719 75.578125 Z M 254.636719 75.578125 " fill-opacity="1" fill-rule="nonzero"/><path fill="#0a53bf" d="M 248.070312 59.714844 C 246.800781 59.714844 245.566406 59.058594 244.886719 57.878906 C 243.871094 56.121094 244.472656 53.875 246.230469 52.859375 L 256.375 47.003906 C 258.132812 45.988281 260.378906 46.59375 261.390625 48.347656 C 262.40625 50.105469 261.804688 52.351562 260.046875 53.367188 L 249.902344 59.222656 C 249.324219 59.558594 248.695312 59.714844 248.070312 59.714844 Z M 248.070312 59.714844 " fill-opacity="1" fill-rule="nonzero"/><path fill="#0a53bf" d="M 237.617188 46.09375 C 236.675781 46.09375 235.734375 45.734375 235.019531 45.015625 C 233.582031 43.582031 233.582031 41.257812 235.019531 39.824219 L 243.300781 31.542969 C 244.734375 30.105469 247.0625 30.105469 248.496094 31.542969 C 249.929688 32.976562 249.929688 35.300781 248.496094 36.734375 L 240.210938 45.015625 C 239.496094 45.734375 238.554688 46.09375 237.617188 46.09375 Z M 237.617188 46.09375 " fill-opacity="1" fill-rule="nonzero"/></svg>