<svg width="300" height="338" viewBox="0 0 300 338" fill="none" xmlns="http://www.w3.org/2000/svg">
<path fill-rule="evenodd" clip-rule="evenodd" d="M29.5603 105.735C26.128 102.738 23.5665 98.793 21.8759 94.1311C18.7509 85.6527 18.4948 74.7408 20.6464 63.3679C25.3851 38.163 41.9322 10.8066 63.1668 2.86601C77.0756 -2.30815 86.553 0.0740108 92.8798 5.6324C98.4894 10.5504 101.666 18.1836 103.1 25.9192C104.765 34.7051 104.202 43.5421 102.946 48.2808C102.537 49.8177 100.923 50.7399 99.386 50.33C97.8491 49.8946 96.927 48.3065 97.3368 46.7696C98.4638 42.5944 98.8481 34.7819 97.3624 27.0207C96.1329 20.5914 93.6739 14.1365 88.9864 10.0637C83.9403 5.65801 76.3328 4.30043 65.2672 8.47563C48.925 14.5975 35.964 33.4499 29.5603 52.9683C25.5644 65.2122 24.13 77.7634 26.3073 87.7275C27.4343 92.9785 29.586 97.4867 32.9927 100.714C33.2745 100.356 33.5306 100.023 33.8124 99.7151C38.1156 94.6947 42.2908 93.0297 45.5951 93.0297C50.6412 92.9785 54.2785 96.667 55.3799 100.765C56.4558 104.812 55.1238 109.167 50.7437 111.114C47.8748 112.369 43.2386 112.599 36.5019 109.935C35.7335 109.628 34.9907 109.295 34.2991 108.936C31.712 113.137 29.0737 118.772 26.4866 126.226C19.3913 145.924 18.3411 159.295 20.1085 168.388C23.5153 185.883 37.6546 186.984 37.6546 186.984C38.3974 187.036 38.9865 187.676 38.9353 188.419C38.9097 189.162 38.2693 189.725 37.5265 189.7C37.5265 189.7 20.877 189.29 16.1895 169.233C13.961 159.679 14.5757 145.514 21.3893 124.485C24.0788 116.416 26.8452 110.32 29.5603 105.735ZM37.8083 103.967C38.09 104.095 38.3974 104.223 38.7048 104.351C47.4138 107.809 50.5388 105.709 49.6422 102.277C49.3093 100.919 48.3615 99.6383 46.9527 99.126C45.7232 98.6905 44.2119 98.8699 42.4958 99.8176C41.0101 100.663 39.4476 101.995 37.8083 103.967Z" fill="#F99E15"/>
<mask id="mask0_357_184" style="mask-type:luminance" maskUnits="userSpaceOnUse" x="0" y="228" width="94" height="106">
<path d="M0 228.48H93.9291V333.398H0V228.48Z" fill="white"/>
</mask>
<g mask="url(#mask0_357_184)">
<path fill-rule="evenodd" clip-rule="evenodd" d="M64.1905 232.45C63.9856 254.94 70.9528 278.429 92.0337 296.974C92.6485 297.512 93.0071 298.28 93.0327 299.074C93.0327 299.894 92.7253 300.662 92.1362 301.226C92.1362 301.226 87.295 305.913 82.0184 310.191C80.2509 311.625 75.9989 313.649 70.2356 315.801C57.6332 320.488 37.5513 326.175 22.7972 328.839C16.2398 330.017 10.6815 330.606 7.17225 330.299C5.07185 330.119 3.53497 329.581 2.58722 328.89C1.6651 328.198 0.973498 327.148 0.666122 325.688C0.307513 323.869 0.666125 320.949 1.8444 317.312C7.40279 299.868 30.8402 262.112 36.4242 253.967C43.417 243.823 52.1516 239.085 59.042 230.606C59.836 229.658 61.1168 229.274 62.2694 229.71C63.4477 230.12 64.2162 231.221 64.1905 232.45Z" fill="#FFCDE4"/>
</g>
<path fill-rule="evenodd" clip-rule="evenodd" d="M80.2008 305.017C80.5594 303.095 80.5338 301.072 79.9447 299.1C79.1506 296.333 76.8453 296.026 74.7705 295.309C72.3115 294.438 69.9037 293.336 68.1619 290.928C66.7275 288.931 66.4457 286.805 66.5994 284.576C66.6763 283.628 66.83 282.629 66.958 281.682C67.0605 280.759 67.163 279.863 66.8043 279.018C66.5482 278.352 65.8822 278.096 65.2162 277.839C64.371 277.481 63.4232 277.225 62.5011 276.943C60.247 276.277 58.1466 275.355 56.789 273.715C55.3546 271.999 54.7142 269.591 54.2275 267.107C53.997 266.031 53.8177 264.955 53.4847 263.956C53.1773 263.06 52.7931 262.214 51.871 261.779C49.6169 260.703 47.2347 261.344 44.8269 261.523C42.163 261.702 39.2429 261.83 36.4509 261.446C35.452 261.292 34.6067 260.678 34.1969 259.781C33.787 258.859 33.8895 257.809 34.4274 256.989C35.2214 255.76 35.913 254.735 36.4253 253.966C43.4181 243.823 52.1527 239.084 59.0431 230.606C59.8372 229.658 61.1179 229.274 62.2706 229.709C63.4488 230.119 64.2173 231.221 64.1917 232.45C63.9867 254.94 70.9539 278.429 92.0348 296.974C92.6496 297.511 93.0082 298.28 93.0338 299.074C93.0338 299.894 92.7264 300.662 92.1373 301.226C92.1373 301.226 88.9611 304.299 84.9395 307.757C83.9918 308.551 82.6598 308.679 81.6096 308.065C80.5338 307.45 79.9959 306.246 80.2008 305.017Z" fill="#004AAD"/>
<mask id="mask1_357_184" style="mask-type:luminance" maskUnits="userSpaceOnUse" x="0" y="294" width="35" height="40">
<path d="M0 294.053H34.9128V333.398H0V294.053Z" fill="white"/>
</mask>
<g mask="url(#mask1_357_184)">
<path fill-rule="evenodd" clip-rule="evenodd" d="M30.8149 327.224C21.7473 329.222 13.6275 330.477 8.6326 330.375C5.76376 330.324 3.71459 329.709 2.58754 328.889C1.1275 327.814 0.154141 325.508 0.666435 322.05C1.38365 317.107 4.94409 308.705 9.6828 299.407C10.3232 298.152 11.8088 297.537 13.1664 297.972C27.0496 302.532 31.5321 314.135 33.0434 323.946C33.2739 325.457 32.3006 326.891 30.8149 327.224Z" fill="#115977"/>
</g>
<g filter="url(#filter0_di_357_184)">
<path fill-rule="evenodd" clip-rule="evenodd" d="M248.079 170.13C258.325 183.321 264.729 200.663 263.038 226.072C260.246 267.824 243.341 296.128 220.236 312.496C185.554 337.086 136.604 334.807 99.3605 310.217C37.2961 269.207 58.7868 195.719 77.2806 165.084C91.0357 142.287 84.4015 124.997 79.1761 115.033C78.7151 114.136 78.6894 113.112 79.0993 112.189C79.5091 111.293 80.3288 110.627 81.3021 110.396C99.6423 106.119 145.697 92.2612 160.733 84.7817C161.579 84.3719 162.578 84.3463 163.448 84.7305C164.319 85.1147 164.985 85.8832 165.241 86.8053C168.52 98.3319 170.928 110.422 185.964 122.871C186.578 123.409 187.219 123.921 187.859 124.408C188.628 125.022 189.063 125.919 189.089 126.867C189.114 127.814 188.705 128.737 187.987 129.377C178.049 138.035 168.93 146.257 162.398 152.353C174.796 173.793 192.265 189.008 199.668 194.694C201.717 196.231 204.022 197.819 206.379 199.459C216.163 191.569 229.842 180.683 243.52 169.592C244.186 169.054 245.057 168.798 245.902 168.9C246.773 169.003 247.541 169.438 248.079 170.13Z" fill="#FFF6E1"/>
<path d="M219.947 312.088L219.947 312.088C185.461 336.54 136.738 334.296 99.636 309.799C68.7679 289.403 58.6845 260.95 58.6112 233.759C58.5379 206.541 68.4984 180.599 77.7087 165.342L77.7087 165.342C84.6374 153.859 86.4447 143.735 85.8448 135.211C85.2456 126.696 82.247 119.812 79.6199 114.802C79.23 114.043 79.2076 113.179 79.5551 112.395C79.8998 111.643 80.5916 111.079 81.4169 110.883C90.6045 108.74 106.716 104.202 122.407 99.2667C138.086 94.3347 153.394 88.9904 160.954 85.2306C161.668 84.8849 162.513 84.8641 163.247 85.188C163.98 85.5117 164.544 86.1613 164.76 86.9391L164.761 86.9421C165.009 87.8151 165.252 88.6922 165.497 89.5733C168.479 100.316 171.625 111.646 185.64 123.252C186.262 123.796 186.908 124.313 187.552 124.802C188.202 125.324 188.567 126.081 188.589 126.88C188.61 127.674 188.267 128.456 187.657 129.002C177.715 137.662 168.593 145.887 162.057 151.988L161.766 152.259L161.965 152.604C174.408 174.121 191.932 189.383 199.363 195.091L199.368 195.094C201.2 196.468 203.235 197.883 205.32 199.332C205.577 199.51 205.835 199.689 206.093 199.869L206.401 200.083L206.692 199.848C210.374 196.879 214.61 193.485 219.189 189.814C226.775 183.734 235.306 176.896 243.835 169.98C244.398 169.526 245.134 169.311 245.842 169.397L245.844 169.397C246.581 169.484 247.229 169.85 247.685 170.437C257.85 183.524 264.223 200.742 262.539 226.039C259.756 267.664 242.911 295.82 219.947 312.088Z" stroke="#FFF6E1"/>
</g>
<path fill-rule="evenodd" clip-rule="evenodd" d="M207.53 198.536C217.213 190.724 230.379 180.248 243.519 169.592C244.185 169.054 245.056 168.798 245.901 168.9C246.772 169.003 247.54 169.438 248.078 170.13C253.867 177.609 258.452 186.395 261.014 197.23C239.856 192.978 214.421 196.001 208.785 199.638C207.505 200.458 207.172 199.971 207.53 198.536Z" fill="#FFF6E1"/>
<path fill-rule="evenodd" clip-rule="evenodd" d="M162.63 152.148C161.836 151.457 161.58 150.663 161.964 149.766C164.577 143.619 173.593 123.153 172.133 106.375C175.027 111.805 179.228 117.312 185.965 122.871C186.58 123.409 187.22 123.921 187.86 124.408C188.629 125.022 189.064 125.919 189.09 126.867C189.115 127.814 188.706 128.737 187.988 129.377C178.178 137.932 169.136 146.052 162.63 152.148Z" fill="#FFF6E1"/>
<mask id="mask2_357_184" style="mask-type:luminance" maskUnits="userSpaceOnUse" x="152" y="71" width="148" height="138">
<path d="M152.946 71.1035H300V208.808H152.946V71.1035Z" fill="white"/>
</mask>
<g mask="url(#mask2_357_184)">
<path fill-rule="evenodd" clip-rule="evenodd" d="M156.379 149.613C174.232 132.784 216.035 96.2316 236.809 82.0922C240.626 79.4796 243.802 77.6097 246.03 76.6875C247.337 76.1496 248.412 75.9191 249.206 75.8679C260.81 75.458 290.83 85.1148 299.795 125.253C299.975 125.996 299.898 127.277 298.95 128.788C298.002 130.35 295.825 132.784 292.649 135.857C275.923 152.097 230.38 187.907 208.3 205.76C207.301 206.58 205.841 206.631 204.791 205.862C201.717 203.608 198.592 201.559 195.954 199.536C187.987 193.414 168.776 176.687 155.815 153.122C155.175 151.969 155.406 150.535 156.379 149.613Z" fill="#004AAD"/>
</g>
<mask id="mask3_357_184" style="mask-type:luminance" maskUnits="userSpaceOnUse" x="211" y="71" width="89" height="92">
<path d="M211.962 71.1035H300V162.907H211.962V71.1035Z" fill="white"/>
</mask>
<g mask="url(#mask3_357_184)">
<path fill-rule="evenodd" clip-rule="evenodd" d="M260.246 158.706C254.406 140.699 233.197 116.057 215.01 103.378C214.267 102.866 213.806 102.02 213.755 101.098C213.729 100.202 214.139 99.3309 214.831 98.7418C225.845 89.8791 235.681 82.4765 241.982 78.788C245.235 76.8668 247.771 75.9447 249.206 75.8679C260.809 75.458 290.83 85.1148 299.795 125.253C299.923 125.817 299.923 126.534 299.641 127.405C299.385 128.147 298.77 129.198 297.746 130.478C293.417 135.832 280.328 147.256 264.856 160.063C264.114 160.678 263.115 160.883 262.192 160.601C261.27 160.345 260.553 159.628 260.246 158.706Z" fill="#0D9EE2"/>
</g>
<path fill-rule="evenodd" clip-rule="evenodd" d="M149.052 66.7491C130.916 70.1046 88.6522 81.247 73.3859 89.2132C72.6174 89.623 71.6953 89.6742 70.8756 89.3925C70.0303 89.1107 69.3644 88.496 68.9801 87.7019C65.8295 80.8628 64.139 72.7173 66.0345 64.8024C66.5467 62.702 67.8531 60.5247 69.9791 58.4499C72.6174 55.8629 76.5365 53.327 81.2752 51.0217C91.8028 45.95 106.429 41.9285 118.801 40.5965C127.51 39.6488 135.143 40.1098 139.728 42.1846C140.65 42.5945 142.136 43.952 143.621 46.2061C146.055 49.9459 149.257 56.5032 151.485 62.4458C151.818 63.3423 151.741 64.3413 151.255 65.161C150.793 66.0063 149.999 66.5698 149.052 66.7491Z" fill="#00305C"/>
<path fill-rule="evenodd" clip-rule="evenodd" d="M209.428 172.615C210.785 171.769 212.578 172.179 213.424 173.537C214.269 174.894 213.859 176.662 212.501 177.533C209.94 179.146 204.049 182.784 199.259 186.498C196.441 188.675 193.956 190.801 193.137 192.517C192.445 193.952 190.703 194.566 189.269 193.875C187.834 193.158 187.22 191.441 187.911 190.007C188.757 188.265 190.703 186.088 193.29 183.885C198.516 179.428 206.303 174.587 209.428 172.615Z" fill="#FFF6E1"/>
<path fill-rule="evenodd" clip-rule="evenodd" d="M196.21 135.703C197.593 134.884 199.36 135.319 200.205 136.677C201.025 138.034 200.59 139.827 199.232 140.647C194.724 143.413 173.08 164.11 168.161 167.235C166.83 168.106 165.037 167.696 164.166 166.364C163.32 165.006 163.705 163.213 165.062 162.368C169.98 159.217 191.701 138.47 196.21 135.703Z" fill="#FFF6E1"/>
<path fill-rule="evenodd" clip-rule="evenodd" d="M154.61 263.879C151.203 261.241 148.386 257.834 146.464 254.325C141.854 245.847 142.776 237.061 150.896 234.576C154.149 233.577 156.787 233.936 158.888 235.063C160.86 236.139 162.371 237.932 163.37 240.339C164.6 243.311 165.035 247.281 164.6 251.533C164.267 254.889 163.421 258.398 162.089 261.728C166.982 264.007 172.72 264.007 178.175 259.397C182.274 255.939 185.501 251.968 187.935 247.896C185.143 245.59 182.76 242.67 181.019 239.52C178.841 235.524 177.714 231.272 177.945 227.66C178.227 223.383 180.301 219.925 184.528 218.26C188.754 216.569 192.11 217.107 194.543 218.823C196.874 220.488 198.488 223.408 199 227.302C199.666 232.296 198.539 239.033 195.44 245.923C196.874 246.564 198.411 246.948 199.999 246.974C203.739 247.025 207.607 244.899 211.218 239.827C216.111 232.988 217.904 227.455 217.52 222.768C217.084 217.466 213.857 213.418 209.938 209.935C205.481 205.965 200.127 202.737 195.952 199.535C182.274 189.033 135.886 147.358 143.749 93.5929C143.98 92.0048 145.44 90.9034 147.028 91.1339C148.59 91.3644 149.692 92.8501 149.461 94.4382C142.008 145.539 186.475 184.935 199.487 194.95C203.739 198.203 209.22 201.559 213.78 205.606C218.826 210.088 222.745 215.468 223.283 222.281C223.77 227.993 221.9 234.858 215.931 243.208C210.86 250.304 205.173 252.839 199.922 252.763C197.438 252.737 195.03 252.097 192.776 251.021C190.061 255.555 186.449 259.986 181.915 263.828C174.333 270.257 166.239 270.181 159.502 266.927C154.072 275.841 144.697 281.502 132.504 275.201C117.725 267.568 112.627 257.296 112.166 242.798C111.757 229.274 115.599 211.779 119.082 188.854C125.691 144.976 99.3334 117.466 93.0835 112.497C91.8283 111.498 91.6234 109.653 92.6224 108.424C93.6214 107.169 95.44 106.964 96.6951 107.963C103.406 113.291 131.915 142.696 124.794 189.699C121.388 212.215 117.545 229.351 117.955 242.619C118.34 254.889 122.643 263.598 135.143 270.052C138.78 271.922 142.059 272.409 144.928 271.769C149.052 270.847 152.279 267.722 154.61 263.879ZM190.624 242.645C192.93 237.24 193.8 232.04 193.262 228.07C192.981 226.072 192.417 224.407 191.188 223.562C190.086 222.768 188.575 222.896 186.654 223.639C184.707 224.407 183.862 226.072 183.734 228.044C183.555 230.708 184.477 233.808 186.09 236.728C187.269 238.854 188.831 240.929 190.624 242.645ZM157.146 258.5C159.169 252.891 159.63 246.846 158.145 242.85C157.684 241.646 157.069 240.672 156.121 240.16C155.199 239.648 154.021 239.673 152.586 240.109C150.23 240.852 149.359 242.747 149.461 245.001C149.564 247.05 150.332 249.305 151.536 251.533C152.894 254.018 154.815 256.477 157.146 258.5Z" fill="#F99E15"/>
<path fill-rule="evenodd" clip-rule="evenodd" d="M158.556 59.9611C163.397 62.8556 167.854 68.4396 169.852 74.0748C171.338 78.25 171.44 82.4764 169.826 85.8063C169.493 86.5235 168.725 87.4457 167.367 88.3934C165.549 89.6741 162.244 91.3135 157.915 93.1065C139.294 100.842 100.667 112.42 83.5048 116.493C78.6892 117.62 75.385 118.132 74.3091 118.03C71.7221 117.773 69.0837 115.98 66.9833 112.907C63.1411 107.271 60.9639 97.128 63.1924 89.8791C63.6022 88.5983 64.8317 86.9846 67.0858 85.4477C70.6206 83.0399 77.2292 80.1967 85.3491 77.3279C106.327 69.8996 137.654 62.0359 150.615 59.9355C153.587 59.4488 155.713 59.2951 156.737 59.3976C157.582 59.4744 158.172 59.7306 158.556 59.9611Z" fill="#004587"/>
<defs>
<filter id="filter0_di_357_184" x="54.1108" y="84.4576" width="213.197" height="253.381" filterUnits="userSpaceOnUse" color-interpolation-filters="sRGB">
<feFlood flood-opacity="0" result="BackgroundImageFix"/>
<feColorMatrix in="SourceAlpha" type="matrix" values="0 0 0 0 0 0 0 0 0 0 0 0 0 0 0 0 0 0 127 0" result="hardAlpha"/>
<feOffset dy="4"/>
<feGaussianBlur stdDeviation="2"/>
<feComposite in2="hardAlpha" operator="out"/>
<feColorMatrix type="matrix" values="0 0 0 0 0 0 0 0 0 0 0 0 0 0 0 0 0 0 0.25 0"/>
<feBlend mode="normal" in2="BackgroundImageFix" result="effect1_dropShadow_357_184"/>
<feBlend mode="normal" in="SourceGraphic" in2="effect1_dropShadow_357_184" result="shape"/>
<feColorMatrix in="SourceAlpha" type="matrix" values="0 0 0 0 0 0 0 0 0 0 0 0 0 0 0 0 0 0 127 0" result="hardAlpha"/>
<feOffset dy="4"/>
<feGaussianBlur stdDeviation="2"/>
<feComposite in2="hardAlpha" operator="arithmetic" k2="-1" k3="1"/>
<feColorMatrix type="matrix" values="0 0 0 0 0 0 0 0 0 0 0 0 0 0 0 0 0 0 0.25 0"/>
<feBlend mode="normal" in2="shape" result="effect2_innerShadow_357_184"/>
</filter>
</defs>
</svg>
