<svg xmlns="http://www.w3.org/2000/svg" xmlns:xlink="http://www.w3.org/1999/xlink" width="500" zoomAndPan="magnify" viewBox="0 0 375 374.999991" height="500" preserveAspectRatio="xMidYMid meet" version="1.0"><defs><clipPath id="9a6877e611"><path d="M 287 235 L 370.796875 235 L 370.796875 300 L 287 300 Z M 287 235 " clip-rule="nonzero"/></clipPath><clipPath id="99cb35fd18"><path d="M 4.046875 235 L 88 235 L 88 300 L 4.046875 300 Z M 4.046875 235 " clip-rule="nonzero"/></clipPath><clipPath id="5b63d2a327"><path d="M 145 310 L 230 310 L 230 374.84375 L 145 374.84375 Z M 145 310 " clip-rule="nonzero"/></clipPath><clipPath id="c1c46820db"><path d="M 122 8.09375 L 253 8.09375 L 253 151 L 122 151 Z M 122 8.09375 " clip-rule="nonzero"/></clipPath><clipPath id="e31f54971c"><path d="M 291 235 L 374.84375 235 L 374.84375 300 L 291 300 Z M 291 235 " clip-rule="nonzero"/></clipPath><clipPath id="c000b23b47"><path d="M 8.09375 235 L 92 235 L 92 300 L 8.09375 300 Z M 8.09375 235 " clip-rule="nonzero"/></clipPath><clipPath id="69034b5baa"><path d="M 149 310 L 234 310 L 234 374.84375 L 149 374.84375 Z M 149 310 " clip-rule="nonzero"/></clipPath><clipPath id="365f4c5f66"><path d="M 126 8.09375 L 257 8.09375 L 257 151 L 126 151 Z M 126 8.09375 " clip-rule="nonzero"/></clipPath></defs><rect x="-37.5" width="450" fill="#ffffff" y="-37.499999" height="449.999989" fill-opacity="1"/><rect x="-37.5" width="450" fill="#ffffff" y="-37.499999" height="449.999989" fill-opacity="1"/><path fill="#38b6ff" d="M 307.421875 207.128906 C 309.007812 212.914062 312.367188 219.28125 316.074219 223.03125 C 319.621094 226.664062 324.328125 228.628906 329.386719 228.628906 C 334.445312 228.628906 339.15625 226.664062 342.703125 223.03125 C 346.410156 219.28125 349.769531 212.914062 351.351562 207.128906 C 353.707031 207.011719 355.554688 205.121094 355.554688 202.769531 L 355.554688 199.800781 C 355.554688 198.492188 354.476562 197.449219 353.15625 197.449219 L 352.574219 197.449219 C 353.113281 193.160156 353.925781 184.597656 352.226562 180.960938 C 349.914062 176.019531 345.117188 174.640625 345.117188 174.640625 C 345.117188 174.640625 334.113281 161.933594 319.792969 168.113281 C 313.46875 170.816406 308.789062 176.371094 306.898438 183.011719 C 305.78125 186.910156 305.082031 191.921875 306.128906 197.449219 L 305.589844 197.449219 C 304.285156 197.449219 303.238281 198.492188 303.238281 199.800781 L 303.238281 202.769531 C 303.238281 205.121094 305.082031 207.011719 307.410156 207.128906 Z M 307.421875 207.128906 " fill-opacity="1" fill-rule="nonzero"/><g clip-path="url(#9a6877e611)"><path fill="#38b6ff" d="M 368.621094 244.269531 L 354.390625 235.867188 C 352.355469 234.691406 349.78125 235.097656 348.226562 236.839844 L 337.820312 261.4375 L 333.253906 247.164062 L 337.046875 240.519531 C 337.820312 239.167969 336.84375 237.464844 335.289062 237.464844 L 323.457031 237.511719 C 321.902344 237.511719 320.929688 239.183594 321.699219 240.5625 L 325.578125 247.175781 L 320.972656 261.539062 L 310.5625 236.855469 C 309.007812 235.097656 306.40625 234.691406 304.398438 235.882812 L 290.167969 244.285156 C 288.453125 245.257812 287.523438 247.175781 287.753906 249.140625 L 293.832031 295.308594 C 294.152344 297.71875 296.246094 299.550781 298.6875 299.550781 L 360.03125 299.550781 C 362.472656 299.550781 364.550781 297.71875 364.886719 295.308594 L 370.960938 249.140625 C 371.253906 247.175781 370.308594 245.257812 368.59375 244.285156 Z M 368.621094 244.269531 " fill-opacity="1" fill-rule="nonzero"/></g><path fill="#38b6ff" d="M 23.785156 207.128906 C 25.371094 212.914062 28.730469 219.28125 32.4375 223.03125 C 35.984375 226.664062 40.691406 228.628906 45.75 228.628906 C 50.808594 228.628906 55.519531 226.664062 59.066406 223.03125 C 62.773438 219.28125 66.132812 212.914062 67.714844 207.128906 C 70.070312 207.011719 71.917969 205.121094 71.917969 202.769531 L 71.917969 199.800781 C 71.917969 198.492188 70.839844 197.449219 69.519531 197.449219 L 68.9375 197.449219 C 69.476562 193.160156 70.289062 184.597656 68.589844 180.960938 C 66.277344 176.019531 61.480469 174.640625 61.480469 174.640625 C 61.480469 174.640625 50.476562 161.933594 36.15625 168.113281 C 29.832031 170.816406 25.152344 176.371094 23.261719 183.011719 C 22.144531 186.910156 21.445312 191.921875 22.492188 197.449219 L 21.953125 197.449219 C 20.644531 197.449219 19.601562 198.492188 19.601562 199.800781 L 19.601562 202.769531 C 19.601562 205.121094 21.445312 207.011719 23.773438 207.128906 Z M 23.785156 207.128906 " fill-opacity="1" fill-rule="nonzero"/><g clip-path="url(#99cb35fd18)"><path fill="#38b6ff" d="M 84.984375 244.269531 L 70.753906 235.867188 C 68.71875 234.691406 66.144531 235.097656 64.589844 236.839844 L 54.183594 261.4375 L 49.617188 247.164062 L 53.410156 240.519531 C 54.183594 239.167969 53.207031 237.464844 51.652344 237.464844 L 39.820312 237.511719 C 38.265625 237.511719 37.289062 239.183594 38.0625 240.5625 L 41.941406 247.175781 L 37.335938 261.539062 L 26.925781 236.855469 C 25.371094 235.097656 22.769531 234.691406 20.761719 235.882812 L 6.53125 244.285156 C 4.816406 245.257812 3.886719 247.175781 4.117188 249.140625 L 10.195312 295.308594 C 10.515625 297.71875 12.609375 299.550781 15.050781 299.550781 L 76.410156 299.550781 C 78.851562 299.550781 80.929688 297.71875 81.265625 295.308594 L 87.339844 249.140625 C 87.628906 247.175781 86.6875 245.257812 84.96875 244.285156 Z M 84.984375 244.269531 " fill-opacity="1" fill-rule="nonzero"/></g><path fill="#38b6ff" d="M 165.621094 282.601562 C 167.203125 288.386719 170.5625 294.753906 174.269531 298.503906 C 177.816406 302.140625 182.523438 304.101562 187.585938 304.101562 C 192.644531 304.101562 197.351562 302.140625 200.898438 298.503906 C 204.605469 294.753906 207.964844 288.386719 209.546875 282.601562 C 211.902344 282.484375 213.75 280.597656 213.75 278.242188 L 213.75 275.277344 C 213.75 273.96875 212.675781 272.921875 211.351562 272.921875 L 210.769531 272.921875 C 211.308594 268.632812 212.121094 260.070312 210.421875 256.4375 C 208.109375 251.496094 203.3125 250.113281 203.3125 250.113281 C 203.3125 250.113281 192.308594 237.410156 177.988281 243.585938 C 171.667969 246.289062 166.984375 251.84375 165.097656 258.484375 C 163.976562 262.382812 163.277344 267.398438 164.324219 272.921875 L 163.789062 272.921875 C 162.480469 272.921875 161.433594 273.96875 161.433594 275.277344 L 161.433594 278.242188 C 161.433594 280.597656 163.277344 282.484375 165.605469 282.601562 Z M 165.621094 282.601562 " fill-opacity="1" fill-rule="nonzero"/><g clip-path="url(#5b63d2a327)"><path fill="#38b6ff" d="M 226.816406 319.742188 L 212.585938 311.339844 C 210.550781 310.164062 207.980469 310.570312 206.421875 312.316406 L 196.015625 336.910156 L 191.449219 322.636719 L 195.246094 315.992188 C 196.015625 314.640625 195.042969 312.941406 193.484375 312.941406 L 181.652344 312.984375 C 180.097656 312.984375 179.125 314.65625 179.894531 316.035156 L 183.777344 322.652344 L 179.167969 337.011719 L 168.757812 312.328125 C 167.203125 310.570312 164.601562 310.164062 162.597656 311.355469 L 148.363281 319.757812 C 146.648438 320.730469 145.71875 322.652344 145.953125 324.613281 L 152.027344 370.78125 C 152.347656 373.195312 154.441406 375.027344 156.882812 375.027344 L 218.226562 375.027344 C 220.667969 375.027344 222.746094 373.195312 223.082031 370.78125 L 229.160156 324.613281 C 229.449219 322.652344 228.503906 320.730469 226.789062 319.757812 Z M 226.816406 319.742188 " fill-opacity="1" fill-rule="nonzero"/></g><path fill="#0a53bf" d="M 174.9375 119.457031 L 200.203125 119.457031 L 211.03125 64.570312 C 211.367188 62.882812 210.785156 61.152344 209.519531 60.003906 C 208.226562 58.828125 206.46875 58.433594 204.808594 58.941406 L 187.570312 64.132812 L 170.328125 58.941406 C 168.671875 58.433594 166.914062 58.828125 165.621094 60.003906 C 164.355469 61.152344 163.773438 62.898438 164.109375 64.570312 Z M 174.9375 119.457031 " fill-opacity="1" fill-rule="nonzero"/><g clip-path="url(#c1c46820db)"><path fill="#0a53bf" d="M 152.144531 143.867188 C 153.683594 147.980469 157.523438 150.859375 161.941406 150.859375 L 212.730469 150.859375 C 217.109375 150.859375 221.0625 148.152344 222.457031 144.070312 C 226.601562 132.234375 232.226562 121 239.683594 110.925781 C 247.546875 100.226562 252.226562 86.984375 252.226562 72.710938 C 252.226562 37.035156 223.269531 8.078125 187.527344 8.078125 C 185.082031 8.078125 182.640625 8.238281 180.199219 8.488281 C 150.441406 11.757812 126.398438 35.976562 123.289062 65.703125 C 121.542969 81.78125 125.761719 96.765625 133.929688 108.832031 C 141.386719 119.808594 147.609375 131.566406 152.160156 143.878906 Z M 141.082031 67.839844 C 143.347656 46.3125 160.617188 28.96875 182.132812 26.570312 C 183.933594 26.382812 185.753906 26.265625 187.527344 26.265625 C 213.285156 26.265625 234.277344 47.226562 234.277344 72.984375 C 234.277344 83.015625 231.136719 92.550781 225.25 100.546875 C 218.328125 109.894531 212.515625 120.695312 207.933594 132.628906 L 166.695312 132.628906 C 162.144531 121.160156 156.070312 109.863281 148.757812 99.078125 C 142.5625 89.863281 139.902344 79.046875 141.097656 67.839844 Z M 141.082031 67.839844 " fill-opacity="1" fill-rule="nonzero"/></g><path fill="#0a53bf" d="M 276.242188 196.734375 L 261.125 181.617188 C 259.453125 179.945312 257.199219 179.015625 254.84375 179.015625 L 205.726562 179.015625 L 201.625 177.183594 L 207.308594 177.183594 C 211.277344 177.183594 214.503906 173.957031 214.503906 169.988281 C 214.503906 166.019531 211.277344 162.792969 207.308594 162.792969 L 167.828125 162.792969 C 164.425781 162.792969 161.503906 165.160156 160.792969 168.492188 C 160.082031 171.804688 161.796875 175.175781 164.890625 176.558594 L 170.402344 179.015625 L 120.28125 179.015625 C 117.925781 179.015625 115.671875 179.945312 114 181.617188 L 98.882812 196.734375 C 95.40625 200.210938 95.40625 205.820312 98.882812 209.292969 C 102.355469 212.769531 107.96875 212.769531 111.441406 209.292969 L 123.957031 196.777344 L 170.734375 196.777344 L 173.484375 198 L 167.800781 198 C 163.832031 198 160.605469 201.226562 160.605469 205.195312 C 160.605469 209.164062 163.832031 212.390625 167.800781 212.390625 L 169.761719 212.390625 C 169.5 213.132812 169.324219 213.933594 169.324219 214.761719 C 169.324219 218.730469 172.554688 221.957031 176.523438 221.957031 L 198.558594 221.957031 C 202.527344 221.957031 205.753906 218.730469 205.753906 214.761719 C 205.753906 213.917969 205.582031 213.132812 205.320312 212.390625 L 207.28125 212.390625 C 210.683594 212.390625 213.605469 210.019531 214.316406 206.691406 C 215.027344 203.378906 213.3125 200.003906 210.21875 198.625 L 206.058594 196.777344 L 251.136719 196.777344 L 263.652344 209.292969 C 265.382812 211.023438 267.664062 211.898438 269.933594 211.898438 C 272.203125 211.898438 274.484375 211.023438 276.214844 209.292969 C 279.6875 205.835938 279.6875 200.210938 276.214844 196.734375 Z M 276.242188 196.734375 " fill-opacity="1" fill-rule="nonzero"/><path fill="#38b6ff" d="M 311.46875 207.128906 C 313.054688 212.914062 316.414062 219.28125 320.121094 223.03125 C 323.667969 226.664062 328.375 228.628906 333.433594 228.628906 C 338.492188 228.628906 343.203125 226.664062 346.75 223.03125 C 350.457031 219.28125 353.816406 212.914062 355.398438 207.128906 C 357.753906 207.011719 359.601562 205.121094 359.601562 202.769531 L 359.601562 199.800781 C 359.601562 198.492188 358.523438 197.449219 357.203125 197.449219 L 356.621094 197.449219 C 357.160156 193.160156 357.972656 184.597656 356.273438 180.960938 C 353.960938 176.019531 349.164062 174.640625 349.164062 174.640625 C 349.164062 174.640625 338.160156 161.933594 323.839844 168.113281 C 317.519531 170.816406 312.835938 176.371094 310.945312 183.011719 C 309.828125 186.910156 309.128906 191.921875 310.175781 197.449219 L 309.640625 197.449219 C 308.332031 197.449219 307.285156 198.492188 307.285156 199.800781 L 307.285156 202.769531 C 307.285156 205.121094 309.128906 207.011719 311.457031 207.128906 Z M 311.46875 207.128906 " fill-opacity="1" fill-rule="nonzero"/><g clip-path="url(#e31f54971c)"><path fill="#38b6ff" d="M 372.667969 244.269531 L 358.4375 235.867188 C 356.402344 234.691406 353.828125 235.097656 352.273438 236.839844 L 341.867188 261.4375 L 337.300781 247.164062 L 341.097656 240.519531 C 341.867188 239.167969 340.890625 237.464844 339.335938 237.464844 L 327.503906 237.511719 C 325.949219 237.511719 324.976562 239.183594 325.746094 240.5625 L 329.625 247.175781 L 325.019531 261.539062 L 314.609375 236.855469 C 313.054688 235.097656 310.453125 234.691406 308.445312 235.882812 L 294.214844 244.285156 C 292.5 245.257812 291.570312 247.175781 291.800781 249.140625 L 297.878906 295.308594 C 298.199219 297.71875 300.292969 299.550781 302.734375 299.550781 L 364.078125 299.550781 C 366.519531 299.550781 368.597656 297.71875 368.933594 295.308594 L 375.007812 249.140625 C 375.300781 247.175781 374.355469 245.257812 372.640625 244.285156 Z M 372.667969 244.269531 " fill-opacity="1" fill-rule="nonzero"/></g><path fill="#38b6ff" d="M 27.832031 207.128906 C 29.417969 212.914062 32.777344 219.28125 36.484375 223.03125 C 40.03125 226.664062 44.738281 228.628906 49.796875 228.628906 C 54.855469 228.628906 59.566406 226.664062 63.113281 223.03125 C 66.820312 219.28125 70.179688 212.914062 71.761719 207.128906 C 74.117188 207.011719 75.964844 205.121094 75.964844 202.769531 L 75.964844 199.800781 C 75.964844 198.492188 74.886719 197.449219 73.566406 197.449219 L 72.984375 197.449219 C 73.523438 193.160156 74.335938 184.597656 72.636719 180.960938 C 70.324219 176.019531 65.527344 174.640625 65.527344 174.640625 C 65.527344 174.640625 54.523438 161.933594 40.203125 168.113281 C 33.878906 170.816406 29.199219 176.371094 27.308594 183.011719 C 26.191406 186.910156 25.492188 191.921875 26.539062 197.449219 L 26 197.449219 C 24.695312 197.449219 23.648438 198.492188 23.648438 199.800781 L 23.648438 202.769531 C 23.648438 205.121094 25.492188 207.011719 27.820312 207.128906 Z M 27.832031 207.128906 " fill-opacity="1" fill-rule="nonzero"/><g clip-path="url(#c000b23b47)"><path fill="#38b6ff" d="M 89.03125 244.269531 L 74.800781 235.867188 C 72.765625 234.691406 70.191406 235.097656 68.636719 236.839844 L 58.230469 261.4375 L 53.664062 247.164062 L 57.457031 240.519531 C 58.230469 239.167969 57.253906 237.464844 55.699219 237.464844 L 43.867188 237.511719 C 42.3125 237.511719 41.339844 239.183594 42.109375 240.5625 L 45.988281 247.175781 L 41.382812 261.539062 L 30.972656 236.855469 C 29.417969 235.097656 26.816406 234.691406 24.808594 235.882812 L 10.578125 244.285156 C 8.863281 245.257812 7.933594 247.175781 8.164062 249.140625 L 14.242188 295.308594 C 14.5625 297.71875 16.65625 299.550781 19.097656 299.550781 L 80.457031 299.550781 C 82.898438 299.550781 84.976562 297.71875 85.3125 295.308594 L 91.386719 249.140625 C 91.679688 247.175781 90.734375 245.257812 89.019531 244.285156 Z M 89.03125 244.269531 " fill-opacity="1" fill-rule="nonzero"/></g><path fill="#38b6ff" d="M 169.667969 282.601562 C 171.25 288.386719 174.609375 294.753906 178.316406 298.503906 C 181.863281 302.140625 186.574219 304.101562 191.632812 304.101562 C 196.691406 304.101562 201.398438 302.140625 204.945312 298.503906 C 208.652344 294.753906 212.011719 288.386719 213.597656 282.601562 C 215.949219 282.484375 217.796875 280.597656 217.796875 278.242188 L 217.796875 275.277344 C 217.796875 273.96875 216.722656 272.921875 215.398438 272.921875 L 214.816406 272.921875 C 215.355469 268.632812 216.167969 260.070312 214.46875 256.4375 C 212.15625 251.496094 207.359375 250.113281 207.359375 250.113281 C 207.359375 250.113281 196.355469 237.410156 182.035156 243.585938 C 175.714844 246.289062 171.03125 251.84375 169.144531 258.484375 C 168.023438 262.382812 167.324219 267.398438 168.371094 272.921875 L 167.835938 272.921875 C 166.527344 272.921875 165.480469 273.96875 165.480469 275.277344 L 165.480469 278.242188 C 165.480469 280.597656 167.324219 282.484375 169.652344 282.601562 Z M 169.667969 282.601562 " fill-opacity="1" fill-rule="nonzero"/><g clip-path="url(#69034b5baa)"><path fill="#38b6ff" d="M 230.867188 319.742188 L 216.632812 311.339844 C 214.597656 310.164062 212.027344 310.570312 210.46875 312.316406 L 200.0625 336.910156 L 195.496094 322.636719 L 199.292969 315.992188 C 200.0625 314.640625 199.089844 312.941406 197.53125 312.941406 L 185.699219 312.984375 C 184.144531 312.984375 183.171875 314.65625 183.941406 316.035156 L 187.824219 322.652344 L 183.214844 337.011719 L 172.804688 312.328125 C 171.25 310.570312 168.648438 310.164062 166.644531 311.355469 L 152.410156 319.757812 C 150.695312 320.730469 149.765625 322.652344 150 324.613281 L 156.074219 370.78125 C 156.394531 373.195312 158.488281 375.027344 160.929688 375.027344 L 222.273438 375.027344 C 224.714844 375.027344 226.796875 373.195312 227.128906 370.78125 L 233.207031 324.613281 C 233.496094 322.652344 232.550781 320.730469 230.835938 319.757812 Z M 230.867188 319.742188 " fill-opacity="1" fill-rule="nonzero"/></g><path fill="#0a53bf" d="M 178.984375 119.457031 L 204.25 119.457031 L 215.078125 64.570312 C 215.414062 62.882812 214.832031 61.152344 213.566406 60.003906 C 212.273438 58.828125 210.515625 58.433594 208.855469 58.941406 L 191.617188 64.132812 L 174.375 58.941406 C 172.71875 58.433594 170.960938 58.828125 169.667969 60.003906 C 168.402344 61.152344 167.820312 62.898438 168.15625 64.570312 Z M 178.984375 119.457031 " fill-opacity="1" fill-rule="nonzero"/><g clip-path="url(#365f4c5f66)"><path fill="#0a53bf" d="M 156.191406 143.867188 C 157.730469 147.980469 161.570312 150.859375 165.988281 150.859375 L 216.78125 150.859375 C 221.15625 150.859375 225.109375 148.152344 226.503906 144.070312 C 230.648438 132.234375 236.273438 121 243.730469 110.925781 C 251.59375 100.226562 256.273438 86.984375 256.273438 72.710938 C 256.273438 37.035156 227.320312 8.078125 191.574219 8.078125 C 189.132812 8.078125 186.6875 8.238281 184.246094 8.488281 C 154.492188 11.757812 130.445312 35.976562 127.335938 65.703125 C 125.589844 81.78125 129.808594 96.765625 137.976562 108.832031 C 145.433594 119.808594 151.65625 131.566406 156.207031 143.878906 Z M 145.128906 67.839844 C 147.398438 46.3125 164.664062 28.96875 186.179688 26.570312 C 187.984375 26.382812 189.800781 26.265625 191.574219 26.265625 C 217.332031 26.265625 238.324219 47.226562 238.324219 72.984375 C 238.324219 83.015625 235.183594 92.550781 229.296875 100.546875 C 222.375 109.894531 216.5625 120.695312 211.980469 132.628906 L 170.742188 132.628906 C 166.191406 121.160156 160.117188 109.863281 152.804688 99.078125 C 146.613281 89.863281 143.953125 79.046875 145.144531 67.839844 Z M 145.128906 67.839844 " fill-opacity="1" fill-rule="nonzero"/></g><path fill="#0a53bf" d="M 280.289062 196.734375 L 265.171875 181.617188 C 263.5 179.945312 261.246094 179.015625 258.890625 179.015625 L 209.773438 179.015625 L 205.671875 177.183594 L 211.355469 177.183594 C 215.324219 177.183594 218.554688 173.957031 218.554688 169.988281 C 218.554688 166.019531 215.324219 162.792969 211.355469 162.792969 L 171.875 162.792969 C 168.472656 162.792969 165.550781 165.160156 164.839844 168.492188 C 164.128906 171.804688 165.84375 175.175781 168.941406 176.558594 L 174.449219 179.015625 L 124.328125 179.015625 C 121.972656 179.015625 119.71875 179.945312 118.046875 181.617188 L 102.929688 196.734375 C 99.453125 200.210938 99.453125 205.820312 102.929688 209.292969 C 106.402344 212.769531 112.015625 212.769531 115.488281 209.292969 L 128.003906 196.777344 L 174.785156 196.777344 L 177.53125 198 L 171.847656 198 C 167.878906 198 164.652344 201.226562 164.652344 205.195312 C 164.652344 209.164062 167.878906 212.390625 171.847656 212.390625 L 173.808594 212.390625 C 173.546875 213.132812 173.375 213.933594 173.375 214.761719 C 173.375 218.730469 176.601562 221.957031 180.570312 221.957031 L 202.605469 221.957031 C 206.574219 221.957031 209.800781 218.730469 209.800781 214.761719 C 209.800781 213.917969 209.628906 213.132812 209.367188 212.390625 L 211.328125 212.390625 C 214.730469 212.390625 217.652344 210.019531 218.363281 206.691406 C 219.078125 203.378906 217.359375 200.003906 214.265625 198.625 L 210.105469 196.777344 L 255.183594 196.777344 L 267.699219 209.292969 C 269.429688 211.023438 271.714844 211.898438 273.980469 211.898438 C 276.25 211.898438 278.53125 211.023438 280.261719 209.292969 C 283.734375 205.835938 283.734375 200.210938 280.261719 196.734375 Z M 280.289062 196.734375 " fill-opacity="1" fill-rule="nonzero"/></svg>