<svg xmlns="http://www.w3.org/2000/svg" xmlns:xlink="http://www.w3.org/1999/xlink" width="300" zoomAndPan="magnify" viewBox="0 0 224.87999 225" height="300" preserveAspectRatio="xMidYMid meet" version="1.0"><defs><clipPath id="95cf9ae7dc"><path d="M 1 11 L 224.761719 11 L 224.761719 223 L 1 223 Z M 1 11 " clip-rule="nonzero"/></clipPath></defs><g clip-path="url(#95cf9ae7dc)"><path fill="#004aad" d="M 114.964844 11.59375 C 113.492188 11.546875 112.039062 12.476562 111.46875 13.832031 L 108.179688 21.683594 L 99.484375 23.441406 C 98.039062 23.730469 96.839844 24.976562 96.601562 26.433594 C 96.378906 27.8125 97.007812 29.289062 98.160156 30.066406 L 103.535156 33.695312 L 101.988281 41.765625 C 101.707031 43.210938 102.410156 44.800781 103.664062 45.574219 C 104.847656 46.304688 106.449219 46.261719 107.605469 45.492188 L 114.914062 40.625 L 122.21875 45.492188 C 123.378906 46.261719 124.976562 46.304688 126.160156 45.574219 C 127.421875 44.800781 128.117188 43.210938 127.835938 41.765625 L 126.289062 33.695312 L 131.664062 30.066406 C 132.816406 29.289062 133.460938 27.8125 133.234375 26.433594 C 132.992188 24.976562 131.785156 23.730469 130.339844 23.441406 L 121.507812 21.652344 L 118.226562 13.839844 C 117.6875 12.550781 116.363281 11.632812 114.964844 11.59375 Z M 114.847656 17.9375 L 117.425781 24.074219 C 117.871094 25.136719 118.8125 25.90625 119.941406 26.136719 L 126.984375 27.550781 L 123.007812 30.238281 C 121.855469 31.019531 121.277344 32.410156 121.542969 33.777344 L 122.769531 40.210938 L 116.851562 36.257812 C 115.683594 35.476562 114.15625 35.476562 112.984375 36.257812 L 107.0625 40.210938 L 108.292969 33.785156 C 108.550781 32.421875 107.972656 31.035156 106.824219 30.257812 L 102.851562 27.5625 L 109.75 26.175781 C 110.882812 25.949219 111.824219 25.171875 112.265625 24.105469 Z M 76.753906 23.023438 C 75.367188 23.070312 74.042969 23.984375 73.511719 25.261719 L 71.128906 30.953125 L 64.667969 32.261719 C 63.234375 32.550781 62.042969 33.796875 61.804688 35.238281 C 61.582031 36.601562 62.203125 38.074219 63.351562 38.847656 L 67.097656 41.363281 L 65.988281 47.136719 C 65.710938 48.574219 66.414062 50.148438 67.660156 50.914062 C 68.839844 51.640625 70.429688 51.609375 71.574219 50.84375 L 76.820312 47.34375 L 82.0625 50.84375 C 83.214844 51.609375 84.804688 51.632812 85.976562 50.914062 C 87.226562 50.148438 87.925781 48.574219 87.652344 47.136719 L 86.550781 41.363281 L 90.296875 38.847656 C 91.445312 38.074219 92.070312 36.601562 91.84375 35.238281 C 91.605469 33.796875 90.414062 32.550781 88.984375 32.261719 L 82.625 30.972656 L 80.226562 25.261719 C 79.667969 23.914062 78.226562 22.976562 76.765625 23.023438 C 76.765625 23.023438 76.753906 23.023438 76.753906 23.023438 Z M 153.074219 23.023438 C 151.613281 22.976562 150.167969 23.914062 149.605469 25.261719 L 147.203125 30.972656 L 140.847656 32.261719 C 139.414062 32.550781 138.21875 33.796875 137.984375 35.238281 C 137.753906 36.601562 138.390625 38.074219 139.542969 38.847656 L 143.277344 41.363281 L 142.167969 47.136719 C 141.886719 48.574219 142.59375 50.148438 143.84375 50.914062 C 145.019531 51.640625 146.617188 51.609375 147.765625 50.84375 L 153 47.34375 L 158.242188 50.84375 C 159.394531 51.609375 160.980469 51.632812 162.15625 50.914062 C 163.40625 50.148438 164.113281 48.574219 163.832031 47.136719 L 162.730469 41.363281 L 166.476562 38.847656 C 167.628906 38.074219 168.265625 36.601562 168.035156 35.238281 C 167.796875 33.796875 166.59375 32.550781 165.164062 32.261719 L 158.710938 30.953125 L 156.320312 25.261719 C 155.78125 23.984375 154.464844 23.066406 153.074219 23.023438 Z M 76.871094 29.675781 L 78.546875 33.6875 C 78.941406 34.628906 79.769531 35.304688 80.769531 35.5 L 85.300781 36.414062 L 82.910156 38.03125 C 81.902344 38.714844 81.394531 39.933594 81.621094 41.132812 L 82.425781 45.3125 L 78.515625 42.703125 C 77.488281 42.019531 76.148438 42.019531 75.125 42.703125 L 71.214844 45.304688 L 72.015625 41.132812 C 72.242188 39.933594 71.726562 38.714844 70.71875 38.039062 L 68.316406 36.414062 L 72.964844 35.472656 C 73.960938 35.273438 74.792969 34.59375 75.191406 33.660156 Z M 152.960938 29.675781 L 154.632812 33.660156 C 155.03125 34.597656 155.859375 35.273438 156.859375 35.472656 L 161.507812 36.414062 L 159.105469 38.039062 C 158.101562 38.726562 157.59375 39.9375 157.816406 41.132812 L 158.609375 45.304688 L 154.699219 42.703125 C 153.675781 42.019531 152.335938 42.019531 151.308594 42.703125 L 147.402344 45.3125 L 148.203125 41.132812 C 148.429688 39.933594 147.921875 38.710938 146.914062 38.03125 L 144.523438 36.414062 L 149.054688 35.5 C 150.050781 35.304688 150.878906 34.625 151.277344 33.6875 Z M 46.058594 38.527344 C 44.59375 38.480469 43.160156 39.414062 42.59375 40.765625 L 40.199219 46.492188 L 33.84375 47.769531 C 32.414062 48.058594 31.21875 49.304688 30.980469 50.746094 C 30.757812 52.109375 31.382812 53.582031 32.527344 54.355469 L 36.273438 56.871094 L 35.164062 62.65625 C 34.890625 64.089844 35.589844 65.664062 36.839844 66.429688 C 38.015625 67.15625 39.605469 67.117188 40.753906 66.351562 L 45.996094 62.859375 L 51.238281 66.351562 C 52.390625 67.117188 53.980469 67.152344 55.152344 66.429688 C 56.402344 65.664062 57.101562 64.089844 56.828125 62.65625 L 55.71875 56.871094 L 59.464844 54.355469 C 60.609375 53.582031 61.234375 52.109375 61.011719 50.746094 C 60.773438 49.304688 59.582031 48.058594 58.148438 47.769531 L 51.6875 46.460938 L 49.304688 40.769531 C 48.773438 39.492188 47.449219 38.574219 46.0625 38.53125 C 46.066406 38.527344 46.0625 38.527344 46.058594 38.527344 Z M 184.085938 38.527344 C 182.625 38.480469 181.179688 39.414062 180.613281 40.765625 L 178.230469 46.492188 L 171.875 47.769531 C 170.441406 48.058594 169.234375 49.304688 169 50.746094 C 168.773438 52.109375 169.40625 53.582031 170.558594 54.355469 L 174.304688 56.871094 L 173.191406 62.65625 C 172.914062 64.089844 173.621094 65.664062 174.867188 66.429688 C 176.046875 67.15625 177.636719 67.117188 178.78125 66.351562 L 184.015625 62.859375 L 189.257812 66.351562 C 190.410156 67.117188 192.007812 67.152344 193.183594 66.429688 C 194.433594 65.664062 195.136719 64.089844 194.859375 62.65625 L 193.746094 56.871094 L 197.484375 54.355469 C 198.636719 53.582031 199.269531 52.109375 199.042969 50.746094 C 198.804688 49.304688 197.609375 48.058594 196.179688 47.769531 L 189.714844 46.460938 L 187.324219 40.769531 C 186.800781 39.488281 185.488281 38.574219 184.097656 38.527344 Z M 45.949219 45.183594 L 47.625 49.175781 C 48.023438 50.117188 48.847656 50.792969 49.847656 50.988281 L 54.5 51.921875 L 52.097656 53.546875 C 51.082031 54.226562 50.574219 55.453125 50.796875 56.648438 L 51.601562 60.820312 L 47.691406 58.210938 C 46.667969 57.527344 45.328125 57.527344 44.300781 58.210938 L 40.390625 60.820312 L 41.195312 56.648438 C 41.425781 55.445312 40.921875 54.222656 39.90625 53.539062 L 37.519531 51.921875 L 42.050781 51.007812 C 43.046875 50.8125 43.878906 50.132812 44.277344 49.199219 Z M 183.980469 45.183594 L 185.65625 49.175781 C 186.046875 50.109375 186.875 50.792969 187.867188 50.988281 L 192.519531 51.921875 L 190.128906 53.546875 C 189.117188 54.226562 188.601562 55.453125 188.828125 56.648438 L 189.621094 60.820312 L 185.710938 58.210938 C 184.6875 57.527344 183.347656 57.527344 182.320312 58.210938 L 178.410156 60.820312 L 179.214844 56.648438 C 179.453125 55.453125 178.945312 54.222656 177.933594 53.539062 L 175.542969 51.921875 L 180.078125 51.007812 C 181.066406 50.804688 181.894531 50.132812 182.289062 49.199219 Z M 114.089844 55.511719 C 112.660156 55.589844 111.226562 55.882812 109.855469 56.503906 C 109.007812 56.886719 108.308594 57.445312 107.671875 57.96875 C 107.664062 57.96875 107.652344 57.96875 107.644531 57.96875 C 107.632812 57.972656 107.621094 57.988281 107.613281 58 C 106.867188 58.140625 106.09375 58.324219 105.351562 58.707031 C 103.460938 59.667969 102.007812 61.289062 101.171875 63.148438 C 100.207031 65.285156 100.140625 67.457031 100.097656 69.285156 C 100.074219 70.453125 100.09375 71.621094 100.128906 72.78125 C 99.800781 73.0625 99.324219 73.488281 98.996094 74.257812 C 98.59375 75.230469 98.679688 76.128906 98.679688 76.320312 C 98.699219 77.039062 98.738281 77.785156 98.84375 78.523438 C 99.070312 80.019531 99.546875 81.851562 100.855469 83.472656 C 101.199219 83.898438 101.570312 84.171875 101.875 84.40625 C 102.214844 85.546875 102.605469 86.8125 103.394531 88.027344 C 105.0625 90.59375 107.566406 92.4375 110.382812 93.371094 C 111.765625 93.828125 113.261719 94.066406 114.734375 94.078125 L 114.765625 94.078125 C 116.230469 94.070312 117.679688 93.828125 119.058594 93.371094 C 121.875 92.4375 124.355469 90.59375 126.019531 88.027344 C 126.738281 86.917969 127.171875 85.792969 127.515625 84.726562 C 127.515625 84.722656 127.515625 84.707031 127.515625 84.695312 C 127.972656 84.390625 128.496094 84.035156 128.953125 83.476562 C 130.261719 81.863281 130.746094 80.03125 130.964844 78.527344 C 131.070312 77.78125 131.109375 77.035156 131.132812 76.324219 C 131.132812 76.230469 131.160156 75.964844 131.132812 75.589844 C 131.101562 75.214844 131.019531 74.742188 130.8125 74.257812 C 130.542969 73.621094 130.15625 73.285156 129.878906 73.039062 C 129.882812 72.984375 129.898438 72.929688 129.90625 72.875 C 130.09375 71.164062 130.15625 69.292969 129.878906 67.441406 C 129.601562 65.582031 129.003906 63.710938 127.871094 62.019531 C 126.09375 59.363281 123.429688 57.695312 120.773438 56.675781 C 119.144531 56.050781 117.355469 55.609375 115.492188 55.511719 C 115.039062 55.492188 114.566406 55.488281 114.089844 55.511719 Z M 114.378906 60.289062 C 114.683594 60.273438 114.96875 60.273438 115.28125 60.289062 C 116.53125 60.351562 117.8125 60.679688 119.070312 61.164062 C 121.101562 61.945312 122.90625 63.097656 123.9375 64.644531 C 124.59375 65.617188 124.988281 66.886719 125.175781 68.183594 C 125.371094 69.488281 125.332031 70.828125 125.175781 72.277344 C 125.167969 72.34375 125.121094 72.675781 125.070312 73.070312 C 124.914062 74.171875 125.394531 75.28125 126.246094 75.984375 C 126.253906 75.988281 126.242188 76 126.246094 76.003906 C 126.257812 76.039062 126.277344 76.070312 126.308594 76.097656 L 126.339844 76.128906 L 126.371094 76.15625 C 126.371094 76.167969 126.371094 76.167969 126.371094 76.207031 L 126.371094 76.238281 C 126.347656 76.796875 126.308594 77.300781 126.230469 77.828125 C 126.066406 78.9375 125.746094 79.925781 125.242188 80.542969 L 125.210938 80.542969 L 125.179688 80.5625 C 125.152344 80.589844 125.101562 80.644531 125.042969 80.679688 C 124.925781 80.761719 124.753906 80.878906 124.527344 81.015625 C 123.863281 81.4375 123.394531 82.132812 123.175781 82.878906 C 122.871094 83.863281 122.507812 84.714844 122.042969 85.425781 C 121.015625 87.015625 119.347656 88.207031 117.511719 88.816406 C 116.597656 89.121094 115.722656 89.265625 114.773438 89.273438 L 114.746094 89.273438 C 113.789062 89.269531 112.851562 89.117188 111.949219 88.816406 C 110.109375 88.207031 108.445312 87.015625 107.414062 85.425781 C 106.921875 84.671875 106.566406 83.730469 106.253906 82.628906 C 106.253906 82.621094 106.253906 82.609375 106.253906 82.597656 C 106.050781 81.925781 105.648438 81.324219 105.074219 80.902344 C 104.757812 80.675781 104.644531 80.578125 104.585938 80.507812 C 104.078125 79.878906 103.757812 78.929688 103.597656 77.824219 C 103.519531 77.292969 103.476562 76.765625 103.460938 76.207031 C 103.460938 76.171875 103.460938 76.171875 103.460938 76.15625 L 103.460938 76.128906 C 103.515625 76.089844 103.554688 76.054688 103.578125 76.035156 C 104.402344 75.40625 104.953125 74.375 104.925781 73.328125 C 104.925781 73.320312 104.925781 73.277344 104.925781 73.269531 C 104.871094 71.949219 104.882812 70.640625 104.90625 69.359375 C 104.941406 67.65625 105.078125 66.214844 105.582031 65.097656 C 106.003906 64.167969 106.695312 63.40625 107.535156 62.972656 C 107.835938 62.820312 108.273438 62.679688 108.773438 62.609375 C 109.378906 62.511719 109.957031 62.25 110.417969 61.847656 C 110.949219 61.390625 111.394531 61.101562 111.796875 60.914062 C 112.558594 60.574219 113.46875 60.339844 114.378906 60.289062 Z M 74.714844 66.820312 C 72.664062 66.917969 70.652344 67.785156 69.160156 69.421875 C 69.09375 69.492188 69.054688 69.570312 69.003906 69.648438 C 69.003906 69.65625 69.003906 69.671875 69.003906 69.679688 C 66.625 72.488281 66.445312 76.589844 68.617188 79.585938 C 74.394531 87.953125 81.132812 95.625 88.742188 102.386719 C 91.753906 105.0625 94.910156 107.554688 98.160156 109.921875 C 98.210938 109.949219 98.238281 110 98.242188 110.058594 L 98.242188 138.453125 C 98.242188 138.71875 98.25 138.710938 98.273438 138.800781 C 98.273438 138.820312 98.273438 138.839844 98.273438 138.859375 C 96.667969 145.945312 95.25 153.089844 94.070312 160.265625 C 92.328125 170.824219 91.105469 181.433594 90.292969 192.09375 L 90.292969 192.117188 C 90.292969 192.125 90.292969 192.136719 90.292969 192.144531 C 90.28125 192.246094 90.265625 192.320312 90.261719 192.355469 C 90.261719 192.363281 90.261719 192.375 90.261719 192.382812 C 89.679688 197.160156 93.125 201.535156 97.90625 202.121094 C 102.671875 202.703125 107.035156 199.289062 107.632812 194.527344 L 107.632812 194.496094 C 107.632812 194.484375 107.632812 194.476562 107.632812 194.464844 C 107.664062 194.207031 107.714844 193.902344 107.722656 193.550781 C 108.496094 183.359375 109.695312 173.210938 111.355469 163.136719 C 112.152344 158.308594 113.128906 153.488281 114.140625 148.675781 C 114.152344 148.589844 114.222656 148.523438 114.308594 148.53125 L 115.535156 148.53125 C 115.628906 148.523438 115.703125 148.597656 115.714844 148.675781 C 116.722656 153.484375 117.6875 158.300781 118.480469 163.136719 C 120.140625 173.210938 121.34375 183.359375 122.121094 193.550781 C 122.128906 193.90625 122.152344 194.222656 122.179688 194.464844 C 122.179688 194.476562 122.179688 194.484375 122.179688 194.496094 L 122.179688 194.527344 C 122.78125 199.289062 127.167969 202.703125 131.9375 202.121094 C 136.710938 201.535156 140.125 197.15625 139.550781 192.382812 C 139.550781 192.375 139.550781 192.363281 139.550781 192.355469 C 139.546875 192.3125 139.539062 192.246094 139.523438 192.144531 C 139.523438 192.136719 139.523438 192.125 139.523438 192.117188 C 138.710938 181.449219 137.492188 170.835938 135.746094 160.273438 C 134.566406 153.09375 133.144531 145.957031 131.542969 138.863281 C 131.542969 138.84375 131.542969 138.824219 131.542969 138.804688 C 131.574219 138.675781 131.59375 138.734375 131.59375 138.457031 L 131.59375 110.0625 C 131.59375 110 131.628906 109.941406 131.683594 109.914062 C 134.933594 107.542969 138.066406 105.066406 141.074219 102.390625 C 148.679688 95.625 155.445312 87.960938 161.222656 79.589844 C 163.453125 76.523438 163.222656 72.265625 160.679688 69.457031 C 160.679688 69.445312 160.679688 69.4375 160.679688 69.425781 L 160.660156 69.394531 C 157.679688 66.15625 152.566406 65.945312 149.320312 68.910156 C 148.847656 69.339844 148.414062 69.824219 148.039062 70.394531 C 142.996094 77.722656 137.054688 84.460938 130.410156 90.375 C 127.777344 92.714844 124.988281 94.914062 122.128906 96.992188 C 122.101562 97.011719 122.050781 97.027344 122.015625 97.019531 C 121.816406 97 121.71875 96.960938 121.496094 96.960938 L 108.339844 96.960938 C 108.113281 96.960938 108.023438 96.996094 107.820312 97.019531 C 107.78125 97.027344 107.734375 97.015625 107.703125 96.992188 C 104.847656 94.914062 102.0625 92.714844 99.433594 90.375 C 92.789062 84.46875 86.886719 77.722656 81.835938 70.394531 C 81.472656 69.851562 81.070312 69.378906 80.625 68.96875 C 80.582031 68.964844 80.546875 68.945312 80.519531 68.910156 C 78.867188 67.421875 76.757812 66.730469 74.714844 66.820312 Z M 74.964844 71.632812 C 75.792969 71.597656 76.601562 71.878906 77.265625 72.488281 C 77.5 72.707031 77.664062 72.882812 77.773438 73.050781 C 77.789062 73.078125 77.816406 73.113281 77.835938 73.140625 C 83.105469 80.792969 89.261719 87.832031 96.214844 94.011719 C 99.128906 96.601562 102.179688 98.984375 105.316406 101.25 C 106 101.730469 107.113281 101.777344 108.203125 101.792969 L 121.476562 101.761719 C 122.304688 101.863281 123.839844 101.730469 124.523438 101.246094 C 127.664062 98.984375 130.683594 96.59375 133.59375 94.003906 C 140.53125 87.832031 146.699219 80.808594 151.964844 73.171875 L 151.996094 73.132812 C 152 73.117188 151.988281 73.089844 151.996094 73.070312 C 152.003906 73.0625 152.015625 73.050781 152.023438 73.039062 C 152.132812 72.867188 152.304688 72.695312 152.542969 72.476562 C 153.210938 71.867188 154.039062 71.589844 154.851562 71.625 C 155.632812 71.660156 156.378906 72.011719 156.972656 72.625 C 156.996094 72.628906 157.019531 72.640625 157.035156 72.65625 C 157.046875 72.664062 157.054688 72.664062 157.066406 72.675781 C 157.074219 72.675781 157.085938 72.675781 157.097656 72.675781 C 158.125 73.816406 158.21875 75.472656 157.316406 76.710938 C 157.292969 76.734375 157.285156 76.773438 157.265625 76.800781 C 151.699219 84.878906 145.207031 92.273438 137.890625 98.78125 C 134.804688 101.527344 131.527344 104.117188 128.15625 106.542969 C 127.28125 107.167969 126.761719 108.210938 126.761719 109.28125 L 126.761719 138.210938 C 126.761719 138.234375 126.734375 138.378906 126.730469 138.46875 C 126.726562 138.558594 126.738281 138.574219 126.730469 138.726562 C 126.714844 139.039062 126.738281 139.378906 126.8125 139.683594 C 128.421875 146.769531 129.816406 153.875 130.992188 161.039062 C 132.71875 171.480469 133.9375 182.039062 134.738281 192.609375 L 134.5625 192.609375 L 134.738281 192.628906 C 134.746094 192.683594 134.761719 192.75 134.769531 192.804688 L 134.710938 192.804688 C 134.730469 192.847656 134.765625 192.875 134.769531 192.921875 C 134.769531 192.933594 134.769531 192.941406 134.769531 192.953125 L 134.769531 192.984375 C 135.019531 195.15625 133.542969 197.058594 131.359375 197.324219 C 129.167969 197.59375 127.226562 196.117188 126.957031 193.921875 C 126.941406 193.785156 126.929688 193.660156 126.929688 193.578125 C 126.929688 193.535156 126.929688 193.480469 126.929688 193.460938 L 126.929688 193.429688 C 126.921875 193.339844 126.90625 193.261719 126.898438 193.171875 C 126.898438 193.160156 126.898438 193.152344 126.898438 193.140625 C 126.117188 182.808594 124.890625 172.546875 123.207031 162.328125 C 122.324219 156.96875 121.269531 151.65625 120.140625 146.382812 C 119.984375 145.636719 119.566406 144.941406 118.972656 144.460938 C 118.378906 143.976562 117.613281 143.71875 116.851562 143.71875 L 112.953125 143.71875 C 112.1875 143.71875 111.425781 143.980469 110.832031 144.460938 C 110.238281 144.9375 109.820312 145.632812 109.664062 146.382812 C 108.535156 151.65625 107.480469 156.96875 106.597656 162.328125 C 104.910156 172.550781 103.695312 182.808594 102.90625 193.140625 C 102.90625 193.230469 102.90625 193.339844 102.90625 193.429688 L 102.5625 193.429688 C 102.5625 193.429688 102.90625 193.457031 102.90625 193.460938 L 102.90625 193.5 C 102.90625 193.523438 102.882812 193.542969 102.875 193.582031 C 102.867188 193.664062 102.859375 193.796875 102.847656 193.925781 C 102.578125 196.117188 100.652344 197.597656 98.464844 197.328125 C 96.277344 197.058594 94.765625 195.144531 95.035156 192.957031 C 95.039062 192.9375 95.046875 192.917969 95.0625 192.898438 C 95.0625 192.886719 95.0625 192.875 95.0625 192.867188 C 95.0625 192.847656 95.0625 192.824219 95.0625 192.804688 C 95.0625 192.738281 95.0625 192.667969 95.0625 192.609375 C 95.867188 182.039062 97.089844 171.480469 98.808594 161.039062 C 99.992188 153.875 101.402344 146.765625 103.011719 139.683594 C 103.085938 139.378906 103.121094 139.046875 103.105469 138.738281 C 103.101562 138.609375 103.078125 138.53125 103.074219 138.449219 L 103.050781 138.449219 L 103.050781 109.28125 C 103.054688 108.214844 102.542969 107.171875 101.679688 106.542969 C 98.300781 104.113281 95.042969 101.527344 91.953125 98.78125 C 84.632812 92.273438 78.105469 84.878906 72.539062 76.800781 C 72.53125 76.792969 72.519531 76.78125 72.511719 76.773438 C 72.503906 76.757812 72.515625 76.730469 72.511719 76.710938 L 72.488281 76.679688 C 71.617188 75.445312 71.726562 73.800781 72.75 72.675781 C 73.351562 72.027344 74.144531 71.671875 74.964844 71.632812 Z M 43.332031 79.355469 C 41.828125 79.316406 40.386719 79.59375 39.035156 80.082031 C 38.589844 80.242188 38.152344 80.421875 37.726562 80.625 C 36.042969 81.433594 34.570312 82.535156 33.304688 83.742188 C 31.25 85.707031 29.433594 88.28125 28.824219 91.417969 C 28.433594 93.417969 28.605469 95.375 29.070312 97.199219 C 29.535156 99.015625 30.3125 100.707031 31.144531 102.214844 C 31.167969 102.265625 31.203125 102.304688 31.234375 102.351562 C 31.070312 102.6875 30.832031 103.144531 30.839844 103.839844 C 30.839844 104.363281 30.949219 104.832031 31.066406 105.1875 C 31.183594 105.542969 31.316406 105.777344 31.355469 105.863281 C 31.652344 106.507812 31.976562 107.195312 32.367188 107.839844 C 33.152344 109.136719 34.289062 110.640625 36.121094 111.625 C 36.757812 111.964844 37.386719 112.078125 37.925781 112.179688 C 37.929688 112.183594 37.929688 112.199219 37.933594 112.210938 C 38.667969 113.058594 39.503906 113.933594 40.589844 114.675781 C 43.117188 116.398438 46.109375 117.144531 49.066406 116.914062 C 50.515625 116.804688 51.941406 116.472656 53.300781 115.914062 L 53.332031 115.90625 C 54.6875 115.332031 55.972656 114.523438 57.066406 113.566406 C 59.304688 111.617188 60.90625 108.957031 61.449219 105.941406 C 61.707031 104.519531 61.585938 103.199219 61.457031 102.015625 C 61.65625 101.6875 61.878906 101.296875 62.03125 100.765625 C 62.617188 98.765625 62.347656 96.894531 61.972656 95.421875 C 61.789062 94.703125 61.535156 93.992188 61.277344 93.320312 C 61.203125 93.136719 60.941406 92.273438 60.195312 91.535156 C 59.601562 90.945312 58.992188 90.75 58.582031 90.621094 C 58.164062 89.535156 57.726562 88.445312 57.25 87.375 C 56.507812 85.707031 55.605469 83.730469 53.890625 82.132812 C 52.398438 80.742188 50.433594 79.8125 48.316406 79.65625 C 47.484375 79.59375 46.703125 79.714844 45.957031 79.875 C 45.945312 79.867188 45.929688 79.867188 45.914062 79.863281 C 45.90625 79.863281 45.90625 79.867188 45.894531 79.875 C 45.125 79.636719 44.265625 79.386719 43.332031 79.355469 Z M 182.054688 79.355469 C 181.121094 79.382812 180.257812 79.636719 179.476562 79.875 C 179.46875 79.875 179.46875 79.867188 179.457031 79.863281 C 179.445312 79.867188 179.425781 79.867188 179.417969 79.875 C 178.675781 79.714844 177.890625 79.59375 177.054688 79.65625 C 174.9375 79.8125 172.976562 80.742188 171.480469 82.132812 C 169.765625 83.730469 168.863281 85.707031 168.121094 87.375 C 167.644531 88.441406 167.207031 89.535156 166.792969 90.621094 C 166.378906 90.746094 165.78125 90.945312 165.1875 91.535156 C 164.445312 92.273438 164.167969 93.132812 164.097656 93.320312 C 163.835938 93.992188 163.582031 94.703125 163.402344 95.421875 C 163.023438 96.894531 162.757812 98.765625 163.339844 100.765625 C 163.492188 101.296875 163.714844 101.6875 163.914062 102.015625 C 163.785156 103.199219 163.664062 104.519531 163.921875 105.941406 C 164.46875 108.957031 166.066406 111.617188 168.304688 113.566406 C 169.40625 114.519531 170.683594 115.332031 172.039062 115.90625 L 172.070312 115.914062 C 173.433594 116.472656 174.859375 116.804688 176.304688 116.914062 C 179.265625 117.144531 182.253906 116.398438 184.78125 114.675781 C 185.875 113.933594 186.722656 113.058594 187.449219 112.210938 C 187.453125 112.203125 187.453125 112.1875 187.457031 112.179688 C 187.996094 112.078125 188.621094 111.964844 189.253906 111.625 C 191.085938 110.640625 192.238281 109.136719 193.019531 107.839844 C 193.410156 107.195312 193.730469 106.507812 194.019531 105.863281 C 194.0625 105.777344 194.195312 105.542969 194.308594 105.1875 C 194.425781 104.832031 194.539062 104.363281 194.539062 103.839844 C 194.539062 103.144531 194.304688 102.6875 194.144531 102.351562 C 194.171875 102.300781 194.214844 102.261719 194.246094 102.214844 C 195.078125 100.707031 195.847656 99.015625 196.316406 97.199219 C 196.78125 95.375 196.941406 93.417969 196.554688 91.417969 C 195.945312 88.28125 194.121094 85.707031 192.070312 83.742188 C 190.8125 82.535156 189.335938 81.433594 187.652344 80.628906 C 187.222656 80.425781 186.789062 80.242188 186.339844 80.085938 C 185 79.597656 183.5625 79.316406 182.054688 79.355469 Z M 43.230469 84.171875 C 43.671875 84.183594 44.210938 84.28125 44.875 84.496094 C 45.457031 84.695312 46.082031 84.710938 46.675781 84.570312 C 47.167969 84.441406 47.632812 84.40625 47.964844 84.433594 C 48.910156 84.503906 49.839844 84.941406 50.585938 85.628906 C 51.480469 86.46875 52.164062 87.746094 52.855469 89.308594 C 53.371094 90.476562 53.878906 91.679688 54.339844 92.917969 C 54.339844 92.929688 54.355469 92.960938 54.363281 92.96875 C 54.738281 93.949219 55.65625 94.695312 56.660156 94.953125 C 56.691406 94.960938 56.738281 94.976562 56.796875 94.984375 L 56.808594 95.015625 C 56.8125 95.03125 56.8125 95.03125 56.828125 95.066406 C 57.03125 95.59375 57.195312 96.09375 57.328125 96.605469 C 57.605469 97.691406 57.671875 98.695312 57.445312 99.46875 C 57.417969 99.554688 57.351562 99.679688 57.152344 100.011719 C 56.785156 100.621094 56.640625 101.332031 56.71875 102.03125 C 56.71875 102.042969 56.722656 102.050781 56.726562 102.0625 C 56.863281 103.195312 56.898438 104.203125 56.738281 105.097656 C 56.402344 106.957031 55.332031 108.691406 53.875 109.964844 C 53.152344 110.59375 52.351562 111.101562 51.472656 111.472656 L 51.441406 111.484375 C 50.566406 111.84375 49.691406 112.042969 48.738281 112.117188 C 46.808594 112.265625 44.820312 111.804688 43.253906 110.742188 C 42.554688 110.265625 41.894531 109.621094 41.234375 108.828125 C 40.746094 108.21875 40.035156 107.773438 39.261719 107.640625 C 38.996094 107.601562 38.808594 107.550781 38.667969 107.523438 C 38.59375 107.507812 38.527344 107.484375 38.488281 107.472656 L 38.449219 107.464844 L 38.425781 107.472656 C 37.722656 107.09375 37.046875 106.3125 36.464844 105.351562 C 36.1875 104.898438 35.949219 104.453125 35.722656 103.945312 L 35.71875 103.90625 C 35.703125 103.875 35.703125 103.867188 35.695312 103.855469 L 35.707031 103.8125 L 35.726562 103.78125 C 35.746094 103.753906 35.753906 103.710938 35.746094 103.675781 C 35.746094 103.671875 35.738281 103.660156 35.738281 103.65625 C 36.25 102.675781 36.273438 101.46875 35.707031 100.511719 C 35.503906 100.167969 35.320312 99.878906 35.289062 99.816406 C 34.578125 98.539062 34.042969 97.320312 33.710938 96.042969 C 33.386719 94.773438 33.269531 93.453125 33.492188 92.304688 C 33.847656 90.484375 35.050781 88.726562 36.625 87.21875 C 37.601562 86.285156 38.660156 85.488281 39.789062 84.949219 C 40.074219 84.816406 40.335938 84.707031 40.621094 84.605469 C 41.484375 84.292969 42.402344 84.152344 43.230469 84.171875 Z M 182.15625 84.171875 C 182.984375 84.148438 183.902344 84.292969 184.765625 84.597656 C 185.054688 84.699219 185.324219 84.8125 185.609375 84.945312 C 186.738281 85.484375 187.789062 86.285156 188.761719 87.214844 C 190.339844 88.722656 191.550781 90.476562 191.90625 92.300781 C 192.132812 93.453125 192.011719 94.765625 191.6875 96.035156 C 191.359375 97.316406 190.808594 98.535156 190.097656 99.8125 C 190.066406 99.867188 189.894531 100.164062 189.691406 100.507812 C 189.121094 101.460938 189.152344 102.671875 189.660156 103.652344 C 189.660156 103.65625 189.652344 103.664062 189.652344 103.664062 C 189.640625 103.707031 189.640625 103.746094 189.660156 103.777344 L 189.679688 103.808594 L 189.703125 103.855469 C 189.695312 103.863281 189.6875 103.867188 189.671875 103.90625 L 189.660156 103.933594 C 189.433594 104.441406 189.1875 104.890625 188.917969 105.339844 C 188.335938 106.300781 187.671875 107.082031 186.964844 107.464844 L 186.933594 107.453125 L 186.894531 107.464844 C 186.851562 107.472656 186.792969 107.5 186.726562 107.515625 C 186.589844 107.542969 186.386719 107.589844 186.121094 107.628906 C 185.351562 107.769531 184.636719 108.214844 184.148438 108.820312 C 183.484375 109.609375 182.824219 110.253906 182.128906 110.730469 C 180.558594 111.796875 178.574219 112.261719 176.644531 112.109375 C 175.691406 112.03125 174.816406 111.832031 173.9375 111.472656 L 173.910156 111.46875 C 173.03125 111.097656 172.230469 110.589844 171.507812 109.960938 C 170.050781 108.691406 168.980469 106.949219 168.644531 105.09375 C 168.488281 104.203125 168.519531 103.1875 168.65625 102.058594 C 168.660156 102.046875 168.664062 102.035156 168.664062 102.027344 C 168.746094 101.324219 168.59375 100.613281 168.226562 100.007812 C 168.03125 99.675781 167.964844 99.542969 167.9375 99.460938 C 167.710938 98.6875 167.78125 97.6875 168.054688 96.601562 C 168.183594 96.085938 168.355469 95.589844 168.554688 95.0625 C 168.5625 95.027344 168.570312 95.027344 168.574219 95.011719 L 168.582031 94.980469 C 168.648438 94.96875 168.691406 94.960938 168.722656 94.949219 C 169.726562 94.691406 170.644531 93.945312 171.019531 92.964844 C 171.027344 92.953125 171.039062 92.925781 171.039062 92.914062 C 171.503906 91.675781 172.011719 90.472656 172.527344 89.304688 C 173.222656 87.746094 173.902344 86.460938 174.796875 85.625 C 175.539062 84.929688 176.472656 84.496094 177.417969 84.425781 C 177.746094 84.402344 178.207031 84.4375 178.707031 84.5625 C 179.300781 84.707031 179.933594 84.691406 180.519531 84.492188 C 181.183594 84.285156 181.710938 84.1875 182.15625 84.171875 Z M 71.886719 91.503906 C 70.296875 96.65625 68.378906 101.703125 66.046875 106.566406 C 64.523438 109.738281 62.8125 112.839844 60.980469 115.855469 C 60.960938 115.890625 60.914062 115.921875 60.875 115.933594 C 60.683594 115.992188 60.585938 115.984375 60.378906 116.074219 L 48.230469 121.160156 C 48.023438 121.25 47.960938 121.316406 47.78125 121.417969 C 47.746094 121.4375 47.703125 121.4375 47.667969 121.429688 C 44.234375 120.617188 40.8125 119.671875 37.484375 118.535156 C 29.070312 115.652344 20.984375 111.722656 13.496094 106.914062 C 12.925781 106.527344 12.335938 106.261719 11.730469 106.042969 C 7.585938 104.558594 2.964844 106.742188 1.472656 110.878906 L 1.453125 110.910156 C 1.457031 110.921875 1.46875 110.921875 1.472656 110.929688 C 0.207031 114.503906 1.644531 118.519531 4.882812 120.488281 C 13.445312 125.980469 22.65625 130.445312 32.285156 133.742188 C 36.09375 135.054688 39.925781 136.125 43.832031 137.054688 C 43.894531 137.058594 43.957031 137.097656 43.980469 137.15625 L 54.945312 163.347656 C 55.050781 163.605469 55.046875 163.535156 55.125 163.648438 C 55.132812 163.667969 55.148438 163.679688 55.152344 163.699219 C 56.414062 170.855469 57.863281 177.992188 59.546875 185.074219 C 62.023438 195.496094 64.996094 205.761719 68.367188 215.90625 C 68.371094 215.917969 68.371094 215.929688 68.378906 215.9375 C 68.402344 216.039062 68.417969 216.101562 68.429688 216.136719 C 68.433594 216.148438 68.433594 216.15625 68.4375 216.167969 C 69.753906 220.796875 74.585938 223.496094 79.214844 222.199219 C 83.839844 220.886719 86.582031 216.054688 85.292969 211.429688 L 85.28125 211.390625 C 85.277344 211.378906 85.277344 211.371094 85.273438 211.359375 C 85.207031 211.121094 85.105469 210.828125 84.972656 210.496094 C 81.75 200.800781 78.9375 190.964844 76.574219 181.027344 C 75.445312 176.265625 74.472656 171.445312 73.550781 166.621094 C 73.53125 166.535156 73.566406 166.464844 73.652344 166.433594 L 74.785156 165.945312 C 74.867188 165.90625 74.957031 165.941406 75.003906 166.019531 C 77.792969 170.0625 80.550781 174.136719 83.148438 178.28125 C 84.285156 180.09375 85.34375 181.953125 86.4375 183.785156 C 86.691406 181.089844 86.902344 178.390625 87.210938 175.703125 L 87.210938 175.695312 C 84.328125 171.09375 81.300781 166.613281 78.226562 162.179688 C 77.789062 161.554688 77.132812 161.074219 76.402344 160.859375 C 75.671875 160.648438 74.871094 160.703125 74.164062 160.996094 L 70.574219 162.496094 C 69.871094 162.792969 69.269531 163.328125 68.910156 164.003906 C 68.550781 164.679688 68.433594 165.480469 68.574219 166.230469 C 69.574219 171.535156 70.652344 176.832031 71.90625 182.113281 C 74.300781 192.191406 77.144531 202.140625 80.414062 211.96875 C 80.417969 211.980469 80.414062 211.988281 80.414062 212 C 80.433594 212.089844 80.472656 212.15625 80.503906 212.246094 L 80.515625 212.277344 C 80.523438 212.296875 80.539062 212.339844 80.554688 212.378906 C 80.585938 212.460938 80.625 212.582031 80.664062 212.714844 C 81.257812 214.835938 80.039062 216.953125 77.917969 217.554688 C 75.800781 218.148438 73.699219 216.957031 73.089844 214.855469 L 73.066406 214.828125 C 73.0625 214.816406 73.066406 214.816406 73.066406 214.804688 C 73.054688 214.753906 73.0625 214.714844 73.066406 214.679688 L 73.015625 214.699219 C 73.007812 214.644531 72.992188 214.578125 72.976562 214.523438 L 73.132812 214.441406 L 72.976562 214.511719 C 69.632812 204.457031 66.675781 194.230469 64.230469 183.9375 C 62.550781 176.871094 61.078125 169.789062 59.828125 162.632812 C 59.777344 162.324219 59.675781 161.996094 59.539062 161.71875 C 59.472656 161.582031 59.480469 161.570312 59.4375 161.488281 C 59.398438 161.410156 59.320312 161.28125 59.3125 161.261719 L 59.3125 161.242188 L 48.136719 134.570312 C 47.722656 133.582031 46.824219 132.8125 45.777344 132.574219 C 41.730469 131.636719 37.722656 130.515625 33.8125 129.175781 C 24.550781 126 15.707031 121.691406 7.453125 116.390625 C 7.425781 116.371094 7.402344 116.351562 7.371094 116.332031 C 6.0625 115.535156 5.503906 113.976562 6.011719 112.523438 C 6.019531 112.519531 6.03125 112.507812 6.039062 112.503906 C 6.046875 112.492188 6.054688 112.488281 6.0625 112.472656 C 6.070312 112.464844 6.078125 112.449219 6.089844 112.433594 C 6.40625 111.636719 6.960938 111.023438 7.671875 110.6875 C 8.40625 110.339844 9.285156 110.28125 10.136719 110.585938 C 10.441406 110.691406 10.664062 110.789062 10.832031 110.90625 C 10.847656 110.910156 10.859375 110.925781 10.875 110.933594 C 10.882812 110.945312 10.886719 110.972656 10.902344 110.984375 L 10.945312 111.007812 C 18.746094 116.015625 27.136719 120.109375 35.929688 123.125 C 39.617188 124.382812 43.332031 125.421875 47.101562 126.296875 C 47.914062 126.480469 49.371094 126.007812 50.097656 125.589844 L 62.363281 120.492188 C 63.355469 120.058594 64.371094 119.574219 64.808594 118.871094 C 66.828125 115.574219 68.722656 112.1875 70.414062 108.675781 C 72.414062 104.515625 74.144531 100.222656 75.617188 95.859375 C 74.332031 94.433594 73.105469 92.976562 71.886719 91.503906 Z M 154.742188 95.300781 C 153.542969 96.644531 152.292969 97.949219 151.035156 99.246094 C 152.222656 102.4375 153.503906 105.59375 154.980469 108.671875 C 156.664062 112.183594 158.566406 115.566406 160.589844 118.863281 C 161.03125 119.574219 162.035156 120.050781 163.023438 120.488281 L 175.300781 125.585938 C 176.027344 126 177.484375 126.472656 178.292969 126.292969 C 182.0625 125.417969 185.773438 124.378906 189.457031 123.117188 C 198.246094 120.101562 206.652344 116.011719 214.453125 111 L 214.492188 110.980469 C 214.503906 110.972656 214.503906 110.945312 214.515625 110.929688 C 214.523438 110.925781 214.542969 110.90625 214.554688 110.898438 C 214.722656 110.789062 214.945312 110.691406 215.25 110.578125 C 216.101562 110.273438 216.988281 110.332031 217.71875 110.679688 C 218.421875 111.015625 218.980469 111.628906 219.296875 112.425781 C 219.3125 112.441406 219.316406 112.457031 219.328125 112.476562 C 219.332031 112.488281 219.339844 112.492188 219.347656 112.507812 C 219.355469 112.507812 219.367188 112.523438 219.378906 112.527344 C 219.890625 113.980469 219.335938 115.539062 218.027344 116.335938 C 217.996094 116.351562 217.976562 116.378906 217.945312 116.398438 C 209.6875 121.691406 200.839844 126.007812 191.574219 129.179688 C 187.660156 130.519531 183.640625 131.640625 179.597656 132.582031 C 178.554688 132.820312 177.675781 133.582031 177.257812 134.574219 L 166.078125 161.246094 L 166.078125 161.265625 C 166.066406 161.285156 165.984375 161.414062 165.949219 161.496094 C 165.914062 161.578125 165.914062 161.585938 165.847656 161.722656 C 165.714844 162.003906 165.609375 162.328125 165.558594 162.636719 C 164.308594 169.792969 162.84375 176.882812 161.167969 183.941406 C 158.71875 194.238281 155.765625 204.464844 152.421875 214.515625 L 152.261719 214.445312 L 152.410156 214.527344 C 152.394531 214.578125 152.378906 214.648438 152.371094 214.703125 L 152.308594 214.683594 C 152.3125 214.726562 152.34375 214.753906 152.328125 214.800781 C 152.328125 214.8125 152.3125 214.832031 152.308594 214.84375 L 152.308594 214.863281 C 151.699219 216.964844 149.59375 218.152344 147.480469 217.558594 C 145.359375 216.957031 144.132812 214.84375 144.726562 212.71875 C 144.765625 212.589844 144.804688 212.460938 144.832031 212.386719 C 144.847656 212.34375 144.863281 212.292969 144.871094 212.277344 L 144.894531 212.246094 C 144.921875 212.15625 144.953125 212.101562 144.972656 212.007812 C 144.972656 212 144.980469 211.988281 144.984375 211.980469 C 148.257812 202.152344 151.085938 192.203125 153.480469 182.125 C 154.734375 176.839844 155.820312 171.546875 156.820312 166.242188 C 156.960938 165.488281 156.847656 164.683594 156.488281 164.011719 C 156.125 163.34375 155.515625 162.804688 154.8125 162.503906 L 151.222656 161.007812 C 150.515625 160.707031 149.714844 160.65625 148.984375 160.871094 C 148.253906 161.082031 147.597656 161.566406 147.160156 162.191406 C 145.359375 164.789062 143.582031 167.414062 141.835938 170.0625 C 142.160156 172.527344 142.523438 174.984375 142.796875 177.449219 C 145.238281 173.59375 147.792969 169.792969 150.390625 166.027344 C 150.4375 165.953125 150.527344 165.921875 150.609375 165.957031 L 151.742188 166.433594 C 151.820312 166.464844 151.859375 166.546875 151.84375 166.632812 C 150.917969 171.453125 149.957031 176.273438 148.828125 181.039062 C 146.464844 190.972656 143.644531 200.8125 140.421875 210.507812 C 140.292969 210.832031 140.191406 211.140625 140.121094 211.378906 C 140.121094 211.390625 140.105469 211.390625 140.101562 211.398438 L 140.101562 211.429688 C 138.8125 216.054688 141.546875 220.886719 146.167969 222.199219 C 150.796875 223.503906 155.628906 220.800781 156.945312 216.167969 C 156.945312 216.15625 156.960938 216.136719 156.964844 216.125 C 156.972656 216.085938 156.972656 216.035156 157.003906 215.9375 C 157.003906 215.929688 157.019531 215.90625 157.023438 215.898438 C 160.394531 205.75 163.371094 195.484375 165.847656 185.0625 C 167.527344 177.984375 168.980469 170.855469 170.238281 163.699219 C 170.242188 163.679688 170.25 163.667969 170.257812 163.648438 C 170.339844 163.539062 170.332031 163.605469 170.4375 163.347656 L 181.410156 137.152344 C 181.4375 137.097656 181.492188 137.058594 181.546875 137.054688 C 185.460938 136.117188 189.300781 135.046875 193.109375 133.742188 C 202.730469 130.445312 211.941406 125.980469 220.5 120.488281 C 223.742188 118.519531 225.167969 114.503906 223.910156 110.929688 C 223.910156 110.921875 223.925781 110.921875 223.929688 110.910156 L 223.910156 110.878906 C 222.414062 106.742188 217.792969 104.558594 213.652344 106.042969 C 213.050781 106.253906 212.464844 106.527344 211.882812 106.914062 C 204.398438 111.722656 196.316406 115.652344 187.898438 118.535156 C 184.570312 119.675781 181.148438 120.617188 177.714844 121.429688 C 177.675781 121.4375 177.640625 121.4375 177.609375 121.417969 C 177.433594 121.316406 177.359375 121.25 177.152344 121.160156 L 165.003906 116.074219 C 164.796875 115.984375 164.699219 115.992188 164.507812 115.933594 C 164.46875 115.925781 164.425781 115.894531 164.40625 115.855469 C 162.574219 112.839844 160.851562 109.738281 159.328125 106.566406 C 157.589844 102.90625 156.082031 99.132812 154.742188 95.300781 Z M 80.53125 101.042969 C 79.226562 104.566406 77.804688 108.050781 76.179688 111.441406 C 74.386719 115.167969 72.382812 118.820312 70.210938 122.355469 C 69.65625 123.269531 69.582031 124.429688 70.003906 125.414062 L 81.277344 152.324219 L 81.246094 152.332031 C 81.273438 152.410156 81.28125 152.488281 81.328125 152.613281 C 81.433594 152.90625 81.589844 153.191406 81.773438 153.445312 C 84.191406 156.824219 86.535156 160.261719 88.835938 163.714844 C 89.046875 162.324219 89.242188 160.921875 89.46875 159.53125 C 89.621094 158.617188 89.804688 157.707031 89.96875 156.792969 C 88.601562 154.800781 87.242188 152.808594 85.839844 150.84375 C 85.828125 150.824219 85.816406 150.816406 85.808594 150.792969 C 85.789062 150.703125 85.808594 150.707031 85.707031 150.46875 L 74.734375 124.277344 C 74.714844 124.21875 74.726562 124.164062 74.765625 124.117188 C 76.84375 120.675781 78.800781 117.160156 80.546875 113.527344 C 81.941406 110.621094 83.179688 107.640625 84.34375 104.636719 C 83.054688 103.453125 81.769531 102.269531 80.53125 101.042969 Z M 146.007812 104.144531 C 145.386719 104.714844 144.800781 105.320312 144.167969 105.890625 C 143.523438 106.457031 142.855469 106.992188 142.203125 107.535156 C 143.046875 109.550781 143.90625 111.554688 144.847656 113.523438 C 146.59375 117.152344 148.546875 120.671875 150.628906 124.113281 C 150.664062 124.160156 150.679688 124.21875 150.660156 124.269531 L 139.683594 150.464844 C 139.582031 150.707031 139.601562 150.703125 139.582031 150.789062 C 139.578125 150.808594 139.5625 150.820312 139.550781 150.839844 C 139.34375 151.140625 139.144531 151.433594 138.9375 151.734375 C 139.363281 153.960938 139.78125 156.195312 140.15625 158.433594 C 141.308594 156.769531 142.4375 155.089844 143.617188 153.4375 C 143.796875 153.183594 143.953125 152.902344 144.066406 152.605469 C 144.105469 152.488281 144.121094 152.402344 144.148438 152.328125 L 144.117188 152.316406 L 155.402344 125.40625 C 155.816406 124.429688 155.734375 123.265625 155.183594 122.351562 C 153.007812 118.808594 151.003906 115.164062 149.210938 111.4375 C 148.058594 109.046875 147 106.605469 146.007812 104.144531 Z M 146.007812 104.144531 " fill-opacity="1" fill-rule="nonzero"/></g></svg>