<svg xmlns="http://www.w3.org/2000/svg" xmlns:xlink="http://www.w3.org/1999/xlink" width="300" zoomAndPan="magnify" viewBox="0 0 224.87999 225" height="300" preserveAspectRatio="xMidYMid meet" version="1.0"><defs><clipPath id="13ab507707"><path d="M 6 0.0585938 L 218 0.0585938 L 218 100 L 6 100 Z M 6 0.0585938 " clip-rule="nonzero"/></clipPath><clipPath id="8f32b2fbf6"><path d="M 0 105 L 224.761719 105 L 224.761719 224.191406 L 0 224.191406 Z M 0 105 " clip-rule="nonzero"/></clipPath></defs><g clip-path="url(#13ab507707)"><path fill="#004aad" d="M 10.933594 99.65625 C 13.144531 99.65625 14.933594 97.867188 14.933594 95.65625 L 14.933594 92.554688 C 14.933594 76.246094 25.289062 61.722656 40.695312 56.414062 C 40.921875 56.335938 41.136719 56.242188 41.335938 56.128906 C 44.949219 57.976562 48.972656 58.957031 53.148438 58.957031 C 57.292969 58.957031 61.285156 57.996094 64.875 56.171875 C 68.15625 57.230469 71.273438 58.726562 74.164062 60.632812 C 66.964844 69.34375 62.765625 80.460938 62.765625 92.300781 C 62.765625 94.511719 64.554688 96.300781 66.761719 96.300781 C 68.972656 96.300781 70.761719 94.511719 70.761719 92.300781 C 70.761719 74.515625 82.054688 58.675781 98.859375 52.886719 C 99.140625 52.789062 99.402344 52.664062 99.648438 52.515625 C 103.554688 54.542969 107.914062 55.621094 112.441406 55.621094 C 116.914062 55.621094 121.226562 54.570312 125.097656 52.582031 C 128.953125 53.808594 132.601562 55.589844 135.960938 57.890625 C 139.621094 60.398438 142.84375 63.453125 145.542969 66.976562 C 148.269531 70.535156 150.390625 74.480469 151.847656 78.699219 C 153.355469 83.0625 154.117188 87.636719 154.117188 92.300781 L 154.117188 95.65625 C 154.117188 97.867188 155.90625 99.65625 158.117188 99.65625 C 160.324219 99.65625 162.117188 97.867188 162.117188 95.65625 L 162.117188 92.300781 C 162.117188 86.75 161.203125 81.292969 159.410156 76.089844 C 157.671875 71.058594 155.144531 66.355469 151.894531 62.113281 C 151.507812 61.613281 151.113281 61.121094 150.714844 60.632812 C 153.601562 58.726562 156.714844 57.234375 160.003906 56.175781 C 163.59375 57.996094 167.589844 58.957031 171.730469 58.957031 C 175.90625 58.957031 179.929688 57.976562 183.542969 56.128906 C 183.746094 56.242188 183.957031 56.335938 184.183594 56.414062 C 199.59375 61.722656 209.945312 76.246094 209.945312 92.554688 L 209.945312 95.65625 C 209.945312 97.867188 211.734375 99.65625 213.945312 99.65625 C 216.152344 99.65625 217.945312 97.867188 217.945312 95.65625 L 217.945312 92.554688 C 217.945312 74.328125 207.246094 57.941406 190.910156 50.496094 C 195.300781 45.699219 197.707031 39.527344 197.707031 32.980469 C 197.707031 26.042969 195.003906 19.519531 190.097656 14.613281 C 185.191406 9.707031 178.667969 7.003906 171.730469 7.003906 C 164.792969 7.003906 158.269531 9.707031 153.363281 14.613281 C 148.457031 19.519531 145.753906 26.042969 145.753906 32.980469 C 145.753906 39.527344 148.160156 45.699219 152.550781 50.496094 C 149.925781 51.695312 147.417969 53.140625 145.046875 54.820312 C 143.597656 53.5625 142.074219 52.382812 140.480469 51.292969 C 137.996094 49.589844 135.375 48.121094 132.644531 46.90625 C 137.535156 41.730469 140.21875 34.992188 140.21875 27.839844 C 140.21875 20.421875 137.328125 13.445312 132.082031 8.199219 C 126.835938 2.953125 119.859375 0.0625 112.441406 0.0625 C 105.019531 0.0625 98.046875 2.953125 92.796875 8.199219 C 87.550781 13.445312 84.664062 20.421875 84.664062 27.839844 C 84.664062 34.992188 87.347656 41.730469 92.238281 46.90625 C 87.648438 48.945312 83.464844 51.640625 79.785156 54.855469 C 79.621094 54.691406 79.4375 54.539062 79.238281 54.402344 C 77.042969 52.898438 74.730469 51.59375 72.328125 50.496094 C 76.71875 45.699219 79.125 39.523438 79.125 32.980469 C 79.125 26.042969 76.425781 19.519531 71.519531 14.613281 C 66.613281 9.707031 60.089844 7.003906 53.152344 7.003906 C 46.210938 7.003906 39.6875 9.707031 34.78125 14.613281 C 29.875 19.519531 27.171875 26.042969 27.171875 32.980469 C 27.171875 39.527344 29.578125 45.699219 33.96875 50.496094 C 17.632812 57.945312 6.933594 74.328125 6.933594 92.554688 L 6.933594 95.65625 C 6.933594 97.863281 8.726562 99.65625 10.933594 99.65625 Z M 171.730469 15.003906 C 181.644531 15.003906 189.707031 23.066406 189.707031 32.980469 C 189.707031 42.894531 181.644531 50.957031 171.730469 50.957031 C 161.816406 50.957031 153.753906 42.894531 153.753906 32.980469 C 153.753906 23.066406 161.816406 15.003906 171.730469 15.003906 Z M 112.441406 8.0625 C 123.347656 8.0625 132.21875 16.933594 132.21875 27.84375 C 132.21875 38.75 123.347656 47.621094 112.441406 47.621094 C 101.535156 47.621094 92.660156 38.75 92.660156 27.84375 C 92.660156 16.933594 101.535156 8.0625 112.441406 8.0625 Z M 53.148438 15.003906 C 63.0625 15.003906 71.128906 23.066406 71.128906 32.980469 C 71.128906 42.894531 63.0625 50.957031 53.148438 50.957031 C 43.238281 50.957031 35.171875 42.894531 35.171875 32.980469 C 35.171875 23.066406 43.238281 15.003906 53.148438 15.003906 Z M 53.148438 15.003906 " fill-opacity="1" fill-rule="nonzero"/></g><g clip-path="url(#8f32b2fbf6)"><path fill="#004aad" d="M 220.867188 105.574219 L 4.011719 105.574219 C 1.804688 105.574219 0.0117188 107.363281 0.0117188 109.574219 C 0.0117188 111.78125 1.804688 113.574219 4.011719 113.574219 L 13.214844 113.574219 L 12.457031 118.835938 C 12.203125 120.621094 13.175781 122.363281 14.832031 123.078125 L 32.414062 130.660156 L 33.933594 141.222656 L 19.199219 153.453125 C 17.8125 154.605469 17.367188 156.550781 18.117188 158.191406 L 25.242188 173.796875 C 25.992188 175.4375 27.753906 176.375 29.535156 176.078125 L 48.425781 172.953125 L 55.414062 181.019531 L 49.632812 199.273438 C 49.085938 200.996094 49.761719 202.867188 51.28125 203.84375 L 65.710938 213.117188 C 67.234375 214.09375 69.21875 213.933594 70.558594 212.722656 L 84.757812 199.878906 L 95 202.886719 L 100.003906 221.367188 C 100.476562 223.109375 102.058594 224.320312 103.863281 224.320312 L 121.015625 224.320312 C 122.824219 224.320312 124.40625 223.109375 124.878906 221.367188 L 129.882812 202.886719 L 140.085938 199.890625 L 140.121094 199.878906 L 154.324219 212.722656 C 155.664062 213.933594 157.648438 214.09375 159.167969 213.117188 L 173.597656 203.84375 C 175.117188 202.867188 175.792969 200.996094 175.25 199.273438 L 169.46875 181.019531 L 176.457031 172.953125 L 195.34375 176.078125 C 197.128906 176.375 198.886719 175.4375 199.636719 173.796875 L 206.761719 158.191406 C 207.511719 156.550781 207.070312 154.605469 205.679688 153.453125 L 190.949219 141.222656 L 192.464844 130.660156 L 210.046875 123.074219 C 211.707031 122.359375 212.679688 120.621094 212.421875 118.835938 L 211.664062 113.570312 L 220.867188 113.570312 C 223.078125 113.570312 224.867188 111.78125 224.867188 109.574219 C 224.867188 107.363281 223.078125 105.574219 220.867188 105.574219 Z M 80.195312 113.574219 L 144.683594 113.574219 C 146.042969 117.308594 146.730469 121.234375 146.730469 125.277344 C 146.730469 134.4375 143.164062 143.046875 136.6875 149.523438 C 130.210938 156 121.597656 159.566406 112.4375 159.566406 C 103.28125 159.566406 94.667969 156 88.191406 149.523438 C 81.714844 143.046875 78.148438 134.4375 78.148438 125.277344 C 78.148438 121.234375 78.835938 117.308594 80.195312 113.574219 Z M 187.242188 124.203125 C 185.964844 124.753906 185.066406 125.929688 184.867188 127.304688 L 182.710938 142.300781 C 182.511719 143.679688 183.042969 145.058594 184.117188 145.949219 L 198.214844 157.652344 L 193.632812 167.691406 L 175.554688 164.699219 C 174.179688 164.46875 172.789062 164.972656 171.878906 166.023438 L 161.957031 177.476562 C 161.042969 178.527344 160.746094 179.976562 161.164062 181.300781 L 166.699219 198.769531 L 157.417969 204.734375 L 143.824219 192.445312 C 142.792969 191.511719 141.351562 191.183594 140.015625 191.574219 L 125.480469 195.84375 C 124.144531 196.234375 123.109375 197.292969 122.746094 198.632812 L 117.957031 216.324219 L 106.921875 216.324219 L 102.132812 198.632812 C 101.769531 197.292969 100.734375 196.234375 99.398438 195.84375 L 84.863281 191.574219 C 83.527344 191.183594 82.085938 191.511719 81.054688 192.445312 L 67.460938 204.734375 L 58.179688 198.769531 L 63.714844 181.300781 C 64.132812 179.976562 63.835938 178.527344 62.921875 177.476562 L 53 166.023438 C 52.089844 164.972656 50.699219 164.46875 49.328125 164.699219 L 31.246094 167.691406 L 26.664062 157.652344 L 40.765625 145.949219 C 41.835938 145.058594 42.367188 143.679688 42.167969 142.300781 L 40.011719 127.304688 C 39.816406 125.929688 38.914062 124.753906 37.636719 124.203125 L 20.8125 116.945312 L 21.296875 113.574219 L 71.789062 113.574219 C 70.699219 117.351562 70.148438 121.269531 70.148438 125.277344 C 70.148438 130.984375 71.269531 136.523438 73.476562 141.742188 C 75.605469 146.777344 78.652344 151.300781 82.535156 155.183594 C 86.417969 159.066406 90.941406 162.113281 95.976562 164.242188 C 101.195312 166.449219 106.734375 167.570312 112.441406 167.570312 C 118.148438 167.570312 123.6875 166.449219 128.90625 164.242188 C 133.941406 162.113281 138.464844 159.066406 142.347656 155.183594 C 146.230469 151.300781 149.277344 146.777344 151.40625 141.742188 C 153.613281 136.523438 154.734375 130.984375 154.734375 125.277344 C 154.734375 121.269531 154.183594 117.351562 153.09375 113.574219 L 203.585938 113.574219 L 204.070312 116.945312 Z M 187.242188 124.203125 " fill-opacity="1" fill-rule="nonzero"/></g></svg>