<svg width="50" height="50" viewBox="0 0 50 50" fill="none" xmlns="http://www.w3.org/2000/svg">
<g clip-path="url(#clip0_434_517)">
<mask id="mask0_434_517" style="mask-type:luminance" maskUnits="userSpaceOnUse" x="1" y="0" width="48" height="23">
<path d="M1.34668 0.0129395H48.4578V22.2221H1.34668V0.0129395Z" fill="white"/>
</mask>
<g mask="url(#mask0_434_517)">
<path d="M2.4426 22.1459C2.93392 22.1459 3.33149 21.7483 3.33149 21.257V20.5677C3.33149 16.9436 5.6327 13.7162 9.05632 12.5365C9.10666 12.5191 9.15441 12.4983 9.19868 12.4731C10.0016 12.8837 10.8957 13.1016 11.8237 13.1016C12.7447 13.1016 13.6318 12.888 14.4296 12.4827C15.1587 12.7179 15.8515 13.0504 16.4938 13.474C14.894 15.4097 13.9608 17.8802 13.9608 20.5113C13.9608 21.0026 14.3584 21.4002 14.8488 21.4002C15.3402 21.4002 15.7377 21.0026 15.7377 20.5113C15.7377 16.5591 18.2473 13.0391 21.9817 11.7526C22.0442 11.7309 22.1023 11.7032 22.157 11.6702C23.0251 12.1207 23.9938 12.3603 24.9999 12.3603C25.9938 12.3603 26.9521 12.1268 27.8124 11.6849C28.6692 11.9575 29.4799 12.3533 30.2265 12.8646C31.0398 13.4219 31.756 14.1007 32.3558 14.8837C32.9617 15.6745 33.4331 16.5512 33.7568 17.4887C34.0919 18.4584 34.2612 19.4749 34.2612 20.5113V21.257C34.2612 21.7483 34.6587 22.1459 35.1501 22.1459C35.6405 22.1459 36.039 21.7483 36.039 21.257V20.5113C36.039 19.2778 35.8358 18.0651 35.4374 16.9089C35.0511 15.7908 34.4895 14.7457 33.7673 13.803C33.6813 13.6919 33.5936 13.5825 33.5051 13.474C34.1466 13.0504 34.8384 12.7188 35.5693 12.4835C36.3671 12.888 37.2551 13.1016 38.1752 13.1016C39.1032 13.1016 39.9973 12.8837 40.8002 12.4731C40.8454 12.4983 40.8923 12.5191 40.9426 12.5365C44.3671 13.7162 46.6674 16.9436 46.6674 20.5677V21.257C46.6674 21.7483 47.065 22.1459 47.5563 22.1459C48.0468 22.1459 48.4452 21.7483 48.4452 21.257V20.5677C48.4452 16.5174 46.0676 12.8759 42.4374 11.2214C43.4131 10.1554 43.9478 8.78388 43.9478 7.32902C43.9478 5.78735 43.3471 4.3377 42.2568 3.24742C41.1666 2.15715 39.7169 1.55645 38.1752 1.55645C36.6336 1.55645 35.1839 2.15715 34.0936 3.24742C33.0034 4.3377 32.4027 5.78735 32.4027 7.32902C32.4027 8.78388 32.9374 10.1554 33.9131 11.2214C33.3298 11.4879 32.7725 11.8091 32.2456 12.1823C31.9235 11.9028 31.585 11.6407 31.2308 11.3985C30.6787 11.02 30.0962 10.6936 29.4895 10.4236C30.5763 9.27346 31.1726 7.77607 31.1726 6.18666C31.1726 4.53822 30.5303 2.98787 29.3645 1.82208C28.1987 0.656277 26.6483 0.013916 24.9999 0.013916C23.3506 0.013916 21.8011 0.656277 20.6344 1.82208C19.4686 2.98787 18.8271 4.53822 18.8271 6.18666C18.8271 7.77607 19.4235 9.27346 20.5103 10.4236C19.4903 10.8768 18.5607 11.4757 17.7429 12.1901C17.7065 12.1537 17.6657 12.1198 17.6214 12.0894C17.1336 11.7552 16.6197 11.4653 16.0858 11.2214C17.0615 10.1554 17.5962 8.78301 17.5962 7.32902C17.5962 5.78735 16.9964 4.3377 15.9061 3.24742C14.8159 2.15715 13.3662 1.55645 11.8245 1.55645C10.282 1.55645 8.83236 2.15715 7.74208 3.24742C6.6518 4.3377 6.05111 5.78735 6.05111 7.32902C6.05111 8.78388 6.58583 10.1554 7.56152 11.2214C3.93132 12.8768 1.55371 16.5174 1.55371 20.5677V21.257C1.55371 21.7474 1.95215 22.1459 2.4426 22.1459ZM38.1752 3.33423C40.3784 3.33423 42.17 5.1259 42.17 7.32902C42.17 9.53215 40.3784 11.3238 38.1752 11.3238C35.9721 11.3238 34.1804 9.53215 34.1804 7.32902C34.1804 5.1259 35.9721 3.33423 38.1752 3.33423ZM24.9999 1.79169C27.4235 1.79169 29.3949 3.76305 29.3949 6.18753C29.3949 8.61114 27.4235 10.5825 24.9999 10.5825C22.5763 10.5825 20.6041 8.61114 20.6041 6.18753C20.6041 3.76305 22.5763 1.79169 24.9999 1.79169ZM11.8237 3.33423C14.0268 3.33423 15.8193 5.1259 15.8193 7.32902C15.8193 9.53215 14.0268 11.3238 11.8237 11.3238C9.62142 11.3238 7.82888 9.53215 7.82888 7.32902C7.82888 5.1259 9.62142 3.33423 11.8237 3.33423Z" fill="#004AAD"/>
</g>
<mask id="mask1_434_517" style="mask-type:luminance" maskUnits="userSpaceOnUse" x="0" y="23" width="50" height="27">
<path d="M0.0136719 23.3333H49.9607V49.8202H0.0136719V23.3333Z" fill="white"/>
</mask>
<g mask="url(#mask1_434_517)">
<path d="M49.0956 23.4609H0.905491C0.415039 23.4609 0.0166016 23.8585 0.0166016 24.3498C0.0166016 24.8403 0.415039 25.2387 0.905491 25.2387H2.95063L2.78223 26.408C2.7258 26.8047 2.94195 27.1918 3.31 27.3507L7.21712 29.0356L7.5548 31.3828L4.28049 34.1007C3.97233 34.3568 3.87337 34.7891 4.04004 35.1536L5.62337 38.6215C5.79004 38.9861 6.18153 39.1944 6.57737 39.1285L10.7753 38.434L12.3282 40.2266L11.0435 44.283C10.922 44.6658 11.0722 45.0816 11.4098 45.2986L14.6164 47.3594C14.955 47.5764 15.3959 47.5408 15.6937 47.2717L18.8491 44.4175L21.1251 45.0859L22.2371 49.1927C22.3421 49.5799 22.6937 49.849 23.0947 49.849H26.9064C27.3083 49.849 27.6598 49.5799 27.7649 49.1927L28.8768 45.0859L31.1442 44.4201L31.152 44.4175L34.3083 47.2717C34.606 47.5408 35.047 47.5764 35.3847 47.3594L38.5913 45.2986C38.9289 45.0816 39.0791 44.6658 38.9584 44.283L37.6737 40.2266L39.2267 38.434L43.4237 39.1285C43.8204 39.1944 44.211 38.9861 44.3777 38.6215L45.961 35.1536C46.1277 34.7891 46.0296 34.3568 45.7206 34.1007L42.4472 31.3828L42.784 29.0356L46.6911 27.3498C47.06 27.191 47.2762 26.8047 47.2189 26.408L47.0505 25.2378H49.0956C49.5869 25.2378 49.9845 24.8403 49.9845 24.3498C49.9845 23.8585 49.5869 23.4609 49.0956 23.4609ZM17.8352 25.2387H32.1659C32.468 26.0686 32.6208 26.941 32.6208 27.8394C32.6208 29.875 31.8282 31.7882 30.389 33.2274C28.9498 34.6667 27.0357 35.4592 25.0001 35.4592C22.9654 35.4592 21.0513 34.6667 19.6121 33.2274C18.1729 31.7882 17.3803 29.875 17.3803 27.8394C17.3803 26.941 17.5331 26.0686 17.8352 25.2387ZM41.6234 27.6007C41.3395 27.7231 41.1399 27.9844 41.0956 28.2899L40.6164 31.6224C40.5722 31.9288 40.6902 32.2352 40.9289 32.4332L44.0617 35.0339L43.0435 37.2648L39.0262 36.5998C38.7206 36.5486 38.4116 36.6606 38.2093 36.8941L36.0045 39.4392C35.8013 39.6727 35.7354 39.9948 35.8282 40.2891L37.0583 44.171L34.9958 45.4965L31.9749 42.7656C31.7458 42.5582 31.4255 42.4852 31.1286 42.572L27.8985 43.5208C27.6017 43.6076 27.3716 43.8429 27.2909 44.1406L26.2267 48.072H23.7744L22.7102 44.1406C22.6295 43.8429 22.3994 43.6076 22.1025 43.5208L18.8725 42.572C18.5756 42.4852 18.2553 42.5582 18.0262 42.7656L15.0053 45.4965L12.9428 44.171L14.1729 40.2891C14.2657 39.9948 14.1998 39.6727 13.9966 39.4392L11.7918 36.8941C11.5895 36.6606 11.2805 36.5486 10.9758 36.5998L6.95757 37.2648L5.93935 35.0339L9.07303 32.4332C9.31087 32.2352 9.42893 31.9288 9.38466 31.6224L8.90549 28.2899C8.86209 27.9844 8.66157 27.7231 8.37771 27.6007L4.639 25.9878L4.74664 25.2387H15.9671C15.7249 26.0781 15.6025 26.9488 15.6025 27.8394C15.6025 29.1076 15.8517 30.3385 16.3421 31.4983C16.8152 32.6172 17.4923 33.6224 18.3551 34.4852C19.218 35.3481 20.2232 36.0252 21.3421 36.4983C22.5018 36.9887 23.7327 37.2378 25.001 37.2378C26.2692 37.2378 27.5001 36.9887 28.6598 36.4983C29.7788 36.0252 30.784 35.3481 31.6468 34.4852C32.5097 33.6224 33.1867 32.6172 33.6598 31.4983C34.1503 30.3385 34.3994 29.1076 34.3994 27.8394C34.3994 26.9488 34.277 26.0781 34.0348 25.2387H45.2553L45.363 25.9878L41.6234 27.6007Z" fill="#004AAD"/>
</g>
</g>
<defs>
<clipPath id="clip0_434_517">
<rect width="50" height="50" fill="white"/>
</clipPath>
</defs>
</svg>
