<svg xmlns="http://www.w3.org/2000/svg" xmlns:xlink="http://www.w3.org/1999/xlink" width="500" zoomAndPan="magnify" viewBox="0 0 375 374.999991" height="500" preserveAspectRatio="xMidYMid meet" version="1.0"><path fill="#004aad" d="M 343.90625 192.8125 C 346.105469 199.03125 352.027344 203.507812 358.992188 203.507812 C 367.816406 203.507812 375 196.328125 375 187.5 C 375 178.671875 367.816406 171.492188 358.992188 171.492188 C 352.027344 171.492188 346.105469 175.96875 343.90625 182.1875 L 256.585938 182.1875 C 255.738281 171.058594 252.25 160.660156 246.75 151.613281 L 313.964844 151.613281 C 316.902344 151.613281 319.28125 149.234375 319.28125 146.300781 L 319.28125 87.640625 L 339.203125 87.640625 C 341.398438 93.859375 347.324219 98.335938 354.285156 98.335938 C 363.113281 98.335938 370.292969 91.152344 370.292969 82.324219 C 370.292969 73.496094 363.113281 66.316406 354.285156 66.316406 C 347.324219 66.316406 341.398438 70.792969 339.203125 77.011719 L 313.964844 77.011719 C 311.03125 77.011719 308.652344 79.390625 308.652344 82.324219 L 308.652344 140.988281 L 238.808594 140.988281 C 226.125 127.003906 207.820312 118.214844 187.5 118.214844 C 149.292969 118.214844 118.210938 149.292969 118.210938 187.5 C 118.210938 225.707031 149.292969 256.789062 187.5 256.789062 C 207.820312 256.789062 226.125 247.996094 238.808594 234.015625 L 308.652344 234.015625 L 308.652344 292.675781 C 308.652344 295.609375 311.03125 297.988281 313.96875 297.988281 L 339.203125 297.988281 C 341.402344 304.207031 347.324219 308.683594 354.285156 308.683594 C 363.113281 308.683594 370.296875 301.503906 370.296875 292.675781 C 370.296875 283.847656 363.113281 276.664062 354.285156 276.664062 C 347.324219 276.664062 341.402344 281.140625 339.203125 287.359375 L 319.28125 287.359375 L 319.28125 228.699219 C 319.28125 225.765625 316.902344 223.386719 313.96875 223.386719 L 246.75 223.386719 C 252.25 214.339844 255.738281 203.941406 256.585938 192.8125 Z M 354.285156 76.941406 C 357.253906 76.941406 359.667969 79.355469 359.667969 82.324219 C 359.667969 85.292969 357.253906 87.707031 354.285156 87.707031 C 351.320312 87.707031 348.902344 85.292969 348.902344 82.324219 C 348.902344 79.355469 351.320312 76.941406 354.285156 76.941406 Z M 354.285156 287.292969 C 357.253906 287.292969 359.667969 289.707031 359.667969 292.675781 C 359.667969 295.644531 357.253906 298.058594 354.285156 298.058594 C 351.320312 298.058594 348.902344 295.644531 348.902344 292.675781 C 348.902344 289.707031 351.320312 287.292969 354.285156 287.292969 Z M 358.992188 182.117188 C 361.957031 182.117188 364.371094 184.53125 364.371094 187.5 C 364.371094 190.46875 361.957031 192.882812 358.992188 192.882812 C 356.023438 192.882812 353.609375 190.46875 353.609375 187.5 C 353.609375 184.53125 356.023438 182.117188 358.992188 182.117188 Z M 224.941406 182.1875 C 224.527344 172.367188 222.980469 163.203125 220.53125 155.097656 C 225.042969 153.929688 229.304688 152.507812 233.261719 150.863281 C 240.28125 159.609375 244.84375 170.398438 245.910156 182.1875 Z M 182.1875 242.722656 C 177.507812 240.578125 172.972656 235.695312 169.273438 228.605469 C 173.445312 228.015625 177.769531 227.636719 182.1875 227.460938 Z M 182.1875 216.832031 C 176.324219 217.042969 170.59375 217.605469 165.097656 218.503906 C 162.726562 211.1875 161.132812 202.519531 160.699219 192.8125 L 182.1875 192.8125 Z M 160.699219 182.1875 C 161.117188 172.824219 162.613281 164.425781 164.847656 157.273438 C 170.414062 158.195312 176.230469 158.773438 182.1875 158.988281 L 182.1875 182.1875 Z M 168.886719 147.164062 C 172.652344 139.660156 177.339844 134.5 182.1875 132.277344 L 182.1875 148.355469 C 177.632812 148.179688 173.175781 147.78125 168.886719 147.164062 Z M 192.8125 132.277344 C 197.660156 134.5 202.347656 139.660156 206.113281 147.160156 C 201.824219 147.78125 197.367188 148.179688 192.8125 148.355469 Z M 209.886719 133.289062 C 215.472656 135.605469 220.621094 138.757812 225.183594 142.59375 C 222.523438 143.53125 219.714844 144.359375 216.800781 145.082031 C 214.792969 140.632812 212.472656 136.671875 209.886719 133.289062 Z M 158.199219 145.082031 C 155.285156 144.359375 152.476562 143.53125 149.816406 142.59375 C 154.378906 138.757812 159.527344 135.605469 165.113281 133.289062 C 162.527344 136.671875 160.207031 140.632812 158.199219 145.082031 Z M 154.46875 155.097656 C 152.019531 163.203125 150.472656 172.367188 150.058594 182.1875 L 129.09375 182.1875 C 130.15625 170.398438 134.71875 159.609375 141.738281 150.863281 C 145.699219 152.507812 149.957031 153.929688 154.46875 155.097656 Z M 150.058594 192.8125 C 150.484375 202.941406 152.117188 212.371094 154.703125 220.664062 C 150.289062 221.796875 146.113281 223.167969 142.222656 224.753906 C 134.925781 215.902344 130.179688 204.875 129.09375 192.8125 Z M 158.535156 230.65625 C 160.464844 234.804688 162.671875 238.519531 165.113281 241.710938 C 159.808594 239.511719 154.898438 236.5625 150.511719 232.988281 C 153.070312 232.113281 155.75 231.335938 158.535156 230.65625 Z M 192.8125 242.722656 L 192.8125 227.460938 C 197.230469 227.636719 201.554688 228.015625 205.726562 228.605469 C 202.027344 235.695312 197.492188 240.578125 192.8125 242.722656 Z M 216.464844 230.65625 C 219.25 231.335938 221.929688 232.113281 224.488281 232.988281 C 220.101562 236.558594 215.191406 239.511719 209.886719 241.710938 C 212.328125 238.515625 214.539062 234.804688 216.464844 230.65625 Z M 192.8125 216.832031 L 192.8125 192.8125 L 214.300781 192.8125 C 213.867188 202.519531 212.273438 211.1875 209.902344 218.503906 C 204.40625 217.609375 198.675781 217.042969 192.8125 216.832031 Z M 192.8125 182.1875 L 192.8125 158.988281 C 198.769531 158.773438 204.585938 158.195312 210.152344 157.273438 C 212.386719 164.425781 213.882812 172.824219 214.300781 182.1875 Z M 232.777344 224.753906 C 228.886719 223.167969 224.710938 221.796875 220.296875 220.664062 C 222.882812 212.371094 224.515625 202.941406 224.941406 192.8125 L 245.90625 192.8125 C 244.820312 204.875 240.074219 215.902344 232.777344 224.753906 Z M 288.253906 313.914062 L 288.253906 301.941406 C 288.253906 300.53125 287.691406 299.179688 286.695312 298.183594 C 285.699219 297.1875 284.347656 296.625 282.9375 296.625 C 282.9375 296.625 282.9375 296.625 282.933594 296.625 L 192.8125 296.695312 L 192.8125 276.53125 C 192.8125 273.597656 190.433594 271.21875 187.5 271.21875 C 141.335938 271.21875 103.78125 233.664062 103.78125 187.5 C 103.78125 141.339844 141.335938 103.78125 187.5 103.78125 C 190.433594 103.78125 192.8125 101.402344 192.8125 98.46875 L 192.8125 78.304688 L 282.933594 78.375 C 282.9375 78.375 282.9375 78.375 282.9375 78.375 C 284.347656 78.375 285.699219 77.816406 286.695312 76.820312 C 287.691406 75.824219 288.253906 74.46875 288.253906 73.058594 L 288.253906 61.085938 C 294.472656 58.886719 298.949219 52.964844 298.949219 46.003906 C 298.949219 37.175781 291.765625 29.992188 282.9375 29.992188 C 274.113281 29.992188 266.929688 37.175781 266.929688 46.003906 C 266.929688 52.964844 271.40625 58.886719 277.625 61.085938 L 277.625 67.742188 L 192.8125 67.675781 L 192.8125 48.320312 L 237.382812 48.382812 C 237.386719 48.382812 237.386719 48.382812 237.390625 48.382812 C 238.796875 48.382812 240.148438 47.824219 241.144531 46.828125 C 242.144531 45.832031 242.703125 44.476562 242.703125 43.066406 L 242.703125 31.09375 C 248.925781 28.894531 253.398438 22.972656 253.398438 16.007812 C 253.398438 7.183594 246.21875 0 237.390625 0 C 228.5625 0 221.382812 7.183594 221.382812 16.007812 C 221.382812 22.972656 225.855469 28.894531 232.078125 31.09375 L 232.078125 37.746094 L 192.8125 37.691406 L 192.8125 5.3125 C 192.8125 2.378906 190.433594 0 187.5 0 L 169.28125 0 C 159.753906 0 152 7.753906 152 17.28125 C 152 31.6875 143.714844 44.070312 130.378906 49.59375 C 117.042969 55.117188 102.425781 52.222656 92.238281 42.035156 C 88.976562 38.773438 84.636719 36.972656 80.019531 36.972656 C 75.402344 36.972656 71.0625 38.773438 67.800781 42.035156 L 42.035156 67.800781 C 38.773438 71.0625 36.972656 75.402344 36.972656 80.019531 C 36.972656 84.636719 38.773438 88.976562 42.035156 92.242188 C 52.238281 102.441406 55.144531 117.0625 49.621094 130.390625 C 44.101562 143.722656 31.707031 152 17.28125 152 C 7.753906 152 0 159.753906 0 169.28125 L 0 205.71875 C 0 215.246094 7.753906 223 17.28125 223 C 31.6875 223 44.070312 231.285156 49.59375 244.621094 C 55.117188 257.960938 52.222656 272.574219 42.035156 282.761719 C 38.773438 286.023438 36.972656 290.363281 36.972656 294.980469 C 36.972656 299.597656 38.773438 303.9375 42.035156 307.203125 L 67.800781 332.964844 C 74.539062 339.703125 85.5 339.703125 92.238281 332.964844 C 102.425781 322.78125 117.042969 319.882812 130.378906 325.40625 C 143.71875 330.929688 152 343.3125 152 357.71875 C 152 367.246094 159.753906 375 169.28125 375 L 187.5 375 C 190.433594 375 192.8125 372.621094 192.8125 369.6875 L 192.8125 337.308594 L 232.078125 337.253906 L 232.078125 343.90625 C 225.859375 346.105469 221.382812 352.027344 221.382812 358.992188 C 221.382812 367.820312 228.5625 375 237.390625 375 C 246.21875 375 253.398438 367.820312 253.398438 358.992188 C 253.398438 352.027344 248.925781 346.105469 242.703125 343.90625 L 242.703125 331.933594 C 242.703125 330.523438 242.144531 329.167969 241.144531 328.171875 C 240.148438 327.175781 238.796875 326.617188 237.390625 326.617188 C 237.386719 326.617188 237.386719 326.617188 237.382812 326.617188 L 192.8125 326.679688 L 192.8125 307.324219 L 277.625 307.257812 L 277.625 313.914062 C 271.40625 316.113281 266.929688 322.035156 266.929688 328.996094 C 266.929688 337.824219 274.113281 345.007812 282.9375 345.007812 C 291.765625 345.007812 298.949219 337.824219 298.949219 328.996094 C 298.949219 322.035156 294.472656 316.113281 288.253906 313.914062 Z M 282.9375 40.621094 C 285.90625 40.621094 288.320312 43.035156 288.320312 46.003906 C 288.320312 48.96875 285.90625 51.382812 282.9375 51.382812 C 279.972656 51.382812 277.558594 48.96875 277.558594 46.003906 C 277.558594 43.035156 279.972656 40.621094 282.9375 40.621094 Z M 237.390625 10.628906 C 240.359375 10.628906 242.773438 13.042969 242.773438 16.007812 C 242.773438 18.976562 240.359375 21.390625 237.390625 21.390625 C 234.421875 21.390625 232.007812 18.976562 232.007812 16.007812 C 232.007812 13.042969 234.421875 10.628906 237.390625 10.628906 Z M 237.390625 364.371094 C 234.421875 364.371094 232.007812 361.957031 232.007812 358.992188 C 232.007812 356.023438 234.421875 353.609375 237.390625 353.609375 C 240.359375 353.609375 242.773438 356.023438 242.773438 358.992188 C 242.773438 361.957031 240.359375 364.371094 237.390625 364.371094 Z M 182.1875 364.371094 L 169.28125 364.371094 C 165.613281 364.371094 162.628906 361.386719 162.628906 357.71875 C 162.628906 338.933594 151.828125 322.789062 134.445312 315.585938 C 128.613281 313.171875 122.597656 311.992188 116.667969 311.992188 C 104.929688 311.992188 93.550781 316.625 84.726562 325.449219 C 82.128906 328.042969 77.910156 328.046875 75.316406 325.449219 L 49.550781 299.6875 C 48.292969 298.429688 47.601562 296.757812 47.601562 294.980469 C 47.601562 293.203125 48.292969 291.53125 49.550781 290.277344 C 62.835938 276.992188 66.613281 257.9375 59.414062 240.554688 C 52.214844 223.171875 36.070312 212.371094 17.28125 212.371094 C 13.613281 212.371094 10.628906 209.386719 10.628906 205.71875 L 10.628906 169.28125 C 10.628906 165.613281 13.613281 162.628906 17.28125 162.628906 C 36.089844 162.628906 52.246094 151.832031 59.441406 134.457031 C 66.640625 117.082031 62.851562 98.023438 49.550781 84.726562 C 48.292969 83.46875 47.601562 81.796875 47.601562 80.019531 C 47.601562 78.242188 48.292969 76.570312 49.550781 75.316406 L 75.316406 49.550781 C 76.570312 48.292969 78.242188 47.601562 80.019531 47.601562 C 81.796875 47.601562 83.46875 48.292969 84.726562 49.550781 C 98.011719 62.835938 117.0625 66.613281 134.449219 59.414062 C 151.832031 52.210938 162.628906 36.066406 162.628906 17.28125 C 162.628906 13.613281 165.613281 10.628906 169.28125 10.628906 L 182.1875 10.628906 L 182.1875 93.304688 C 132.628906 96.070312 93.15625 137.261719 93.15625 187.5 C 93.15625 237.738281 132.628906 278.929688 182.1875 281.699219 Z M 282.9375 334.378906 C 279.972656 334.378906 277.558594 331.964844 277.558594 328.996094 C 277.558594 326.03125 279.972656 323.617188 282.9375 323.617188 C 285.90625 323.617188 288.320312 326.03125 288.320312 328.996094 C 288.320312 331.964844 285.90625 334.378906 282.9375 334.378906 Z M 282.9375 334.378906 " fill-opacity="1" fill-rule="nonzero"/></svg>