<svg width="50" height="50" viewBox="0 0 50 50" fill="none" xmlns="http://www.w3.org/2000/svg">
<g clip-path="url(#clip0_433_260)">
<path d="M45.8542 25.7083C46.1474 26.5375 46.937 27.1344 47.8656 27.1344C49.0422 27.1344 50 26.1771 50 25C50 23.8229 49.0422 22.8656 47.8656 22.8656C46.937 22.8656 46.1474 23.4625 45.8542 24.2917H34.2115C34.0984 22.8078 33.6333 21.4214 32.9 20.2151H41.862C42.2536 20.2151 42.5708 19.8979 42.5708 19.5068V11.6854H45.2271C45.5198 12.5146 46.3099 13.1115 47.238 13.1115C48.4151 13.1115 49.3724 12.1536 49.3724 10.9766C49.3724 9.79948 48.4151 8.84219 47.238 8.84219C46.3099 8.84219 45.5198 9.43906 45.2271 10.2682H41.862C41.4708 10.2682 41.1536 10.5854 41.1536 10.9766V18.7984H31.8411C30.15 16.9339 27.7094 15.762 25 15.762C19.9057 15.762 15.7615 19.9057 15.7615 25C15.7615 30.0943 19.9057 34.2385 25 34.2385C27.7094 34.2385 30.15 33.0661 31.8411 31.2021H41.1536V39.0234C41.1536 39.4146 41.4708 39.7318 41.8625 39.7318H45.2271C45.5203 40.5609 46.3099 41.1578 47.238 41.1578C48.4151 41.1578 49.3729 40.2005 49.3729 39.0234C49.3729 37.8464 48.4151 36.8885 47.238 36.8885C46.3099 36.8885 45.5203 37.4854 45.2271 38.3146H42.5708V30.4932C42.5708 30.1021 42.2536 29.7849 41.8625 29.7849H32.9C33.6333 28.5786 34.0984 27.1922 34.2115 25.7083H45.8542ZM47.238 10.2589C47.6339 10.2589 47.9557 10.5807 47.9557 10.9766C47.9557 11.3724 47.6339 11.6943 47.238 11.6943C46.8427 11.6943 46.5203 11.3724 46.5203 10.9766C46.5203 10.5807 46.8427 10.2589 47.238 10.2589ZM47.238 38.3057C47.6339 38.3057 47.9557 38.6276 47.9557 39.0234C47.9557 39.4193 47.6339 39.7411 47.238 39.7411C46.8427 39.7411 46.5203 39.4193 46.5203 39.0234C46.5203 38.6276 46.8427 38.3057 47.238 38.3057ZM47.8656 24.2823C48.2609 24.2823 48.5828 24.6042 48.5828 25C48.5828 25.3958 48.2609 25.7177 47.8656 25.7177C47.4698 25.7177 47.1479 25.3958 47.1479 25C47.1479 24.6042 47.4698 24.2823 47.8656 24.2823ZM29.9922 24.2917C29.937 22.9823 29.7307 21.7604 29.4042 20.6797C30.0057 20.524 30.574 20.3344 31.1016 20.1151C32.0375 21.2813 32.6458 22.7198 32.788 24.2917H29.9922ZM24.2917 32.363C23.6677 32.0771 23.063 31.426 22.5698 30.4807C23.126 30.4021 23.7026 30.3516 24.2917 30.3281V32.363ZM24.2917 28.9109C23.5099 28.9391 22.7458 29.0141 22.013 29.1339C21.6969 28.1583 21.4844 27.0026 21.4266 25.7083H24.2917V28.9109ZM21.4266 24.2917C21.4823 23.0432 21.6818 21.9234 21.9797 20.9698C22.7219 21.0927 23.4974 21.1698 24.2917 21.1984V24.2917H21.4266ZM22.5182 19.6219C23.0203 18.6214 23.6453 17.9333 24.2917 17.637V19.7807C23.6844 19.7573 23.0901 19.7042 22.5182 19.6219ZM25.7083 17.637C26.3547 17.9333 26.9797 18.6214 27.4818 19.6214C26.9099 19.7042 26.3156 19.7573 25.7083 19.7807V17.637ZM27.9849 17.7719C28.7297 18.0807 29.4161 18.501 30.0245 19.0125C29.6698 19.1375 29.2953 19.2479 28.9068 19.3443C28.6391 18.751 28.3297 18.2229 27.9849 17.7719ZM21.0932 19.3443C20.7047 19.2479 20.3302 19.1375 19.9755 19.0125C20.5839 18.501 21.2703 18.0807 22.0151 17.7719C21.6703 18.2229 21.3609 18.751 21.0932 19.3443ZM20.5958 20.6797C20.2693 21.7604 20.063 22.9823 20.0078 24.2917H17.2125C17.3542 22.7198 17.9625 21.2813 18.8984 20.1151C19.4266 20.3344 19.9943 20.524 20.5958 20.6797ZM20.0078 25.7083C20.0646 27.0589 20.2823 28.3161 20.6271 29.4219C20.0385 29.5729 19.4818 29.7557 18.963 29.9672C17.9901 28.787 17.3573 27.3167 17.2125 25.7083H20.0078ZM21.138 30.7542C21.3953 31.3073 21.6896 31.8026 22.0151 32.2281C21.3078 31.9349 20.6531 31.5417 20.0682 31.0651C20.4094 30.9484 20.7667 30.8448 21.138 30.7542ZM25.7083 32.363V30.3281C26.2974 30.3516 26.874 30.4021 27.4302 30.4807C26.937 31.426 26.3323 32.0771 25.7083 32.363ZM28.862 30.7542C29.2333 30.8448 29.5906 30.9484 29.9318 31.0651C29.3469 31.5411 28.6922 31.9349 27.9849 32.2281C28.3104 31.8021 28.6052 31.3073 28.862 30.7542ZM25.7083 28.9109V25.7083H28.5734C28.5156 27.0026 28.3031 28.1583 27.987 29.1339C27.2542 29.0146 26.4901 28.9391 25.7083 28.9109ZM25.7083 24.2917V21.1984C26.5026 21.1698 27.2781 21.0927 28.0203 20.9698C28.3182 21.9234 28.5177 23.0432 28.5734 24.2917H25.7083ZM31.037 29.9672C30.5182 29.7557 29.9615 29.5729 29.3729 29.4219C29.7177 28.3161 29.9354 27.0589 29.9922 25.7083H32.7875C32.6427 27.3167 32.0099 28.787 31.037 29.9672ZM38.4339 41.8552V40.2589C38.4339 40.0708 38.3589 39.8906 38.226 39.7578C38.0932 39.625 37.913 39.55 37.725 39.55C37.725 39.55 37.725 39.55 37.7245 39.55L25.7083 39.5594V36.8708C25.7083 36.4797 25.3911 36.1625 25 36.1625C18.8448 36.1625 13.8375 31.1552 13.8375 25C13.8375 18.8453 18.8448 13.8375 25 13.8375C25.3911 13.8375 25.7083 13.5203 25.7083 13.1292V10.4406L37.7245 10.45C37.725 10.45 37.725 10.45 37.725 10.45C37.913 10.45 38.0932 10.3755 38.226 10.2427C38.3589 10.1099 38.4339 9.92917 38.4339 9.74115V8.14479C39.263 7.85156 39.8599 7.06198 39.8599 6.13385C39.8599 4.95677 38.9021 3.99896 37.725 3.99896C36.5484 3.99896 35.5906 4.95677 35.5906 6.13385C35.5906 7.06198 36.1875 7.85156 37.0167 8.14479V9.03229L25.7083 9.02344V6.44271L31.651 6.45104C31.6516 6.45104 31.6516 6.45104 31.6521 6.45104C31.8396 6.45104 32.0198 6.37656 32.1526 6.24375C32.2859 6.11094 32.3604 5.93021 32.3604 5.74219V4.14583C33.1901 3.8526 33.7865 3.06302 33.7865 2.13438C33.7865 0.957813 32.8292 0 31.6521 0C30.475 0 29.5177 0.957813 29.5177 2.13438C29.5177 3.06302 30.1141 3.8526 30.9438 4.14583V5.03281L25.7083 5.02552V0.708333C25.7083 0.317187 25.3911 0 25 0H22.5708C21.3005 0 20.2667 1.03385 20.2667 2.30417C20.2667 4.225 19.162 5.87604 17.3839 6.6125C15.6057 7.34896 13.6568 6.96302 12.2984 5.60469C11.8635 5.16979 11.2849 4.92969 10.6693 4.92969C10.0536 4.92969 9.475 5.16979 9.0401 5.60469L5.60469 9.0401C5.16979 9.475 4.92969 10.0536 4.92969 10.6693C4.92969 11.2849 5.16979 11.8635 5.60469 12.299C6.9651 13.6589 7.3526 15.6083 6.61615 17.3854C5.88021 19.163 4.2276 20.2667 2.30417 20.2667C1.03385 20.2667 0 21.3005 0 22.5708V27.4292C0 28.6995 1.03385 29.7333 2.30417 29.7333C4.225 29.7333 5.87604 30.838 6.6125 32.6161C7.34896 34.3948 6.96302 36.3432 5.60469 37.7016C5.16979 38.1365 4.92969 38.7151 4.92969 39.3307C4.92969 39.9464 5.16979 40.525 5.60469 40.9604L9.0401 44.3953C9.93854 45.2938 11.4 45.2938 12.2984 44.3953C13.6568 43.0375 15.6057 42.651 17.3839 43.3875C19.1625 44.124 20.2667 45.775 20.2667 47.6958C20.2667 48.9661 21.3005 50 22.5708 50H25C25.3911 50 25.7083 49.6828 25.7083 49.2917V44.9745L30.9438 44.9672V45.8542C30.1146 46.1474 29.5177 46.937 29.5177 47.8656C29.5177 49.0427 30.475 50 31.6521 50C32.8292 50 33.7865 49.0427 33.7865 47.8656C33.7865 46.937 33.1901 46.1474 32.3604 45.8542V44.2578C32.3604 44.0698 32.2859 43.8891 32.1526 43.7563C32.0198 43.6234 31.8396 43.549 31.6521 43.549C31.6516 43.549 31.6516 43.549 31.651 43.549L25.7083 43.5573V40.9766L37.0167 40.9677V41.8552C36.1875 42.1484 35.5906 42.938 35.5906 43.8661C35.5906 45.0432 36.5484 46.001 37.725 46.001C38.9021 46.001 39.8599 45.0432 39.8599 43.8661C39.8599 42.938 39.263 42.1484 38.4339 41.8552ZM37.725 5.41615C38.1208 5.41615 38.4427 5.73802 38.4427 6.13385C38.4427 6.52917 38.1208 6.85104 37.725 6.85104C37.3297 6.85104 37.0078 6.52917 37.0078 6.13385C37.0078 5.73802 37.3297 5.41615 37.725 5.41615ZM31.6521 1.41719C32.0479 1.41719 32.3698 1.73906 32.3698 2.13438C32.3698 2.53021 32.0479 2.85208 31.6521 2.85208C31.2563 2.85208 30.9344 2.53021 30.9344 2.13438C30.9344 1.73906 31.2563 1.41719 31.6521 1.41719ZM31.6521 48.5828C31.2563 48.5828 30.9344 48.2609 30.9344 47.8656C30.9344 47.4698 31.2563 47.1479 31.6521 47.1479C32.0479 47.1479 32.3698 47.4698 32.3698 47.8656C32.3698 48.2609 32.0479 48.5828 31.6521 48.5828ZM24.2917 48.5828H22.5708C22.0818 48.5828 21.6839 48.1849 21.6839 47.6958C21.6839 45.1911 20.2438 43.0385 17.926 42.0781C17.1484 41.7563 16.3464 41.599 15.5557 41.599C13.9906 41.599 12.4734 42.2167 11.2969 43.3932C10.9505 43.7391 10.388 43.7396 10.0422 43.3932L6.60677 39.9583C6.43906 39.7906 6.34688 39.5677 6.34688 39.3307C6.34688 39.0938 6.43906 38.8708 6.60677 38.7036C8.37813 36.9323 8.88177 34.3917 7.92188 32.074C6.96198 29.7563 4.80938 28.3161 2.30417 28.3161C1.8151 28.3161 1.41719 27.9182 1.41719 27.4292V22.5708C1.41719 22.0818 1.8151 21.6839 2.30417 21.6839C4.81198 21.6839 6.96615 20.2443 7.92552 17.9276C8.88542 15.6109 8.38021 13.0698 6.60677 11.2969C6.43906 11.1292 6.34688 10.9063 6.34688 10.6693C6.34688 10.4323 6.43906 10.2094 6.60677 10.0422L10.0422 6.60677C10.2094 6.43906 10.4323 6.34688 10.6693 6.34688C10.9063 6.34688 11.1292 6.43906 11.2969 6.60677C13.0682 8.37813 15.6083 8.88177 17.9266 7.92188C20.2443 6.96146 21.6839 4.80885 21.6839 2.30417C21.6839 1.8151 22.0818 1.41719 22.5708 1.41719H24.2917V12.4406C17.6839 12.8094 12.4208 18.3016 12.4208 25C12.4208 31.6984 17.6839 37.1906 24.2917 37.5599V48.5828ZM37.725 44.5839C37.3297 44.5839 37.0078 44.262 37.0078 43.8661C37.0078 43.4708 37.3297 43.149 37.725 43.149C38.1208 43.149 38.4427 43.4708 38.4427 43.8661C38.4427 44.262 38.1208 44.5839 37.725 44.5839Z" fill="#004AAD"/>
</g>
<defs>
<clipPath id="clip0_433_260">
<rect width="50" height="50" fill="white"/>
</clipPath>
</defs>
</svg>
