<svg xmlns="http://www.w3.org/2000/svg" xmlns:xlink="http://www.w3.org/1999/xlink" width="500" zoomAndPan="magnify" viewBox="0 0 375 374.999991" height="500" preserveAspectRatio="xMidYMid meet" version="1.0"><defs><clipPath id="c527c5cd4e"><path d="M 0 0 L 369.75 0 L 369.75 375 L 0 375 Z M 0 0 " clip-rule="nonzero"/></clipPath></defs><g clip-path="url(#c527c5cd4e)"><path fill="#004aad" d="M 224.941406 179.386719 C 224.054688 178.25 222.699219 177.589844 221.261719 177.589844 C 219.824219 177.589844 218.460938 178.25 217.582031 179.386719 L 185.0625 221.140625 C 183.964844 222.550781 183.769531 224.457031 184.546875 226.058594 C 185.324219 227.660156 186.960938 228.679688 188.742188 228.679688 L 203.710938 228.679688 L 203.710938 268.40625 C 203.710938 270.980469 205.800781 273.074219 208.378906 273.074219 L 234.136719 273.074219 C 236.714844 273.074219 238.804688 270.980469 238.804688 268.40625 L 238.804688 228.679688 L 253.773438 228.679688 C 255.554688 228.679688 257.183594 227.660156 257.96875 226.058594 C 258.753906 224.457031 258.550781 222.550781 257.453125 221.140625 Z M 234.136719 219.34375 C 231.5625 219.34375 229.46875 221.4375 229.46875 224.011719 L 229.46875 263.738281 L 213.046875 263.738281 L 213.046875 224.011719 C 213.046875 221.4375 210.953125 219.34375 208.378906 219.34375 L 198.292969 219.34375 L 221.261719 189.855469 L 244.226562 219.34375 Z M 99.253906 31.121094 L 99.253906 4.667969 C 99.253906 2.09375 101.347656 0 103.921875 0 C 106.496094 0 108.589844 2.09375 108.589844 4.667969 L 108.589844 31.121094 C 108.589844 33.695312 106.496094 35.789062 103.921875 35.789062 C 101.347656 35.789062 99.253906 33.703125 99.253906 31.121094 Z M 43.027344 22.234375 C 41.734375 20.003906 42.507812 17.148438 44.738281 15.855469 C 46.972656 14.5625 49.828125 15.335938 51.117188 17.566406 L 64.34375 40.480469 C 65.636719 42.710938 64.867188 45.566406 62.632812 46.859375 C 61.902344 47.289062 61.09375 47.480469 60.308594 47.480469 C 58.695312 47.480469 57.125 46.640625 56.261719 45.148438 Z M 26.027344 78.789062 L 3.117188 65.5625 C 0.882812 64.269531 0.121094 61.414062 1.40625 59.183594 C 2.695312 56.949219 5.542969 56.1875 7.785156 57.472656 L 30.695312 70.699219 C 32.929688 71.988281 33.691406 74.84375 32.40625 77.078125 C 31.542969 78.570312 29.972656 79.410156 28.363281 79.410156 C 27.570312 79.417969 26.757812 79.21875 26.027344 78.789062 Z M 143.507812 40.480469 L 156.734375 17.566406 C 158.023438 15.335938 160.878906 14.570312 163.113281 15.855469 C 165.347656 17.148438 166.109375 20.003906 164.824219 22.234375 L 151.597656 45.148438 C 150.734375 46.640625 149.164062 47.480469 147.554688 47.480469 C 146.757812 47.480469 145.957031 47.28125 145.226562 46.859375 C 142.984375 45.566406 142.214844 42.710938 143.507812 40.480469 Z M 175.445312 77.085938 C 174.152344 74.851562 174.921875 71.996094 177.15625 70.707031 L 200.070312 57.480469 C 202.300781 56.1875 205.15625 56.957031 206.449219 59.191406 C 207.738281 61.421875 206.96875 64.277344 204.738281 65.570312 L 181.824219 78.796875 C 181.09375 79.222656 180.285156 79.417969 179.5 79.417969 C 177.878906 79.417969 176.308594 78.578125 175.445312 77.085938 Z M 363.589844 116.039062 L 352.496094 115.699219 C 351.226562 111.433594 349.523438 107.320312 347.40625 103.40625 L 355.007812 95.320312 C 357.203125 92.988281 357.148438 89.394531 354.882812 87.128906 L 337.292969 69.539062 C 335.039062 67.273438 331.433594 67.21875 329.101562 69.414062 L 321.019531 77.015625 C 317.105469 74.898438 312.980469 73.195312 308.710938 71.917969 L 308.375 60.832031 C 308.28125 57.628906 305.691406 55.121094 302.492188 55.121094 L 277.621094 55.121094 C 274.414062 55.121094 271.832031 57.628906 271.738281 60.832031 L 271.402344 71.917969 C 267.132812 73.195312 263.007812 74.898438 259.089844 77.023438 L 251.019531 69.421875 C 248.6875 67.226562 245.09375 67.28125 242.820312 69.546875 L 225.230469 87.136719 C 222.964844 89.402344 222.910156 93.003906 225.105469 95.335938 L 232.707031 103.40625 C 230.589844 107.328125 228.878906 111.449219 227.609375 115.730469 L 216.523438 116.0625 C 213.316406 116.15625 210.8125 118.746094 210.8125 121.945312 L 210.8125 130.238281 C 200.378906 132.425781 190.664062 137.117188 182.390625 144.023438 C 178.425781 138.191406 173.40625 133.109375 167.625 129.046875 C 169.042969 123.453125 169.820312 117.183594 169.65625 109.996094 C 169.625 73.785156 140.160156 44.339844 103.945312 44.339844 C 67.730469 44.339844 38.265625 73.785156 38.234375 109.996094 C 37.628906 136.65625 49.828125 150.894531 60.601562 163.460938 C 67.636719 171.667969 73.710938 178.769531 75.144531 188.191406 L 75.144531 188.90625 C 60.75 190.859375 47.75 197.785156 38.171875 208.730469 C 27.863281 220.519531 22.191406 236.117188 22.191406 252.664062 C 22.191406 288.144531 51.058594 317.015625 86.542969 317.015625 L 105.890625 317.015625 L 105.890625 357.710938 C 105.890625 367.265625 113.664062 375.03125 123.210938 375.03125 L 244.089844 375.03125 C 253.640625 375.03125 261.40625 367.257812 261.40625 357.710938 L 261.40625 317.015625 L 280.757812 317.015625 C 316.234375 317.015625 345.105469 288.152344 345.105469 252.664062 C 345.105469 227.480469 330.261719 205.261719 308.679688 194.757812 L 308.734375 193.0625 C 313.003906 191.785156 317.128906 190.082031 321.042969 187.96875 L 329.132812 195.566406 C 331.464844 197.753906 335.0625 197.699219 337.324219 195.4375 L 354.914062 177.84375 C 357.179688 175.582031 357.234375 171.988281 355.039062 169.652344 L 347.4375 161.570312 C 349.554688 157.65625 351.257812 153.539062 352.527344 149.269531 L 363.621094 148.925781 C 366.820312 148.824219 369.324219 146.242188 369.324219 143.042969 L 369.324219 121.960938 C 369.292969 118.722656 366.789062 116.140625 363.589844 116.039062 Z M 47.546875 110.128906 C 47.546875 110.089844 47.546875 110.058594 47.546875 110.019531 C 47.546875 78.9375 72.832031 53.644531 103.921875 53.644531 C 135.011719 53.644531 160.296875 78.929688 160.296875 110.019531 C 160.296875 110.058594 160.296875 110.089844 160.296875 110.128906 C 160.839844 133.25 150.339844 145.503906 140.175781 157.351562 C 133.332031 165.34375 126.835938 172.9375 124.234375 183.105469 L 121.785156 183.105469 L 121.785156 171.589844 C 121.785156 169.015625 119.691406 166.921875 117.117188 166.921875 L 114.183594 166.921875 L 119.039062 145.753906 C 121.15625 147.019531 123.582031 147.710938 126.109375 147.710938 C 129.800781 147.710938 133.269531 146.273438 135.875 143.667969 C 138.480469 141.0625 139.921875 137.589844 139.921875 133.902344 C 139.921875 130.214844 138.480469 126.746094 135.875 124.140625 C 133.269531 121.53125 129.800781 120.09375 126.109375 120.09375 C 122.421875 120.09375 118.953125 121.53125 116.339844 124.140625 C 113.828125 126.652344 112.496094 129.902344 112.332031 133.210938 L 104.589844 166.929688 L 103.191406 166.929688 L 95.480469 133.398438 C 95.316406 129.957031 93.917969 126.746094 91.464844 124.300781 C 86.082031 118.917969 77.316406 118.917969 71.929688 124.300781 C 69.324219 126.910156 67.886719 130.378906 67.886719 134.066406 C 67.886719 137.753906 69.324219 141.222656 71.929688 143.832031 C 74.621094 146.523438 78.164062 147.867188 81.695312 147.867188 C 84.152344 147.867188 86.597656 147.207031 88.773438 145.90625 L 93.605469 166.929688 L 90.695312 166.929688 C 88.121094 166.929688 86.027344 169.023438 86.027344 171.597656 L 86.027344 183.113281 L 83.578125 183.113281 C 80.988281 172.953125 74.484375 165.351562 67.636719 157.359375 C 57.507812 145.503906 47.011719 133.25 47.546875 110.128906 Z M 95.386719 176.257812 L 112.457031 176.257812 L 112.457031 183.105469 L 95.386719 183.105469 Z M 123.394531 192.441406 L 123.394531 198.152344 L 84.457031 198.152344 L 84.457031 192.441406 Z M 84.457031 207.488281 L 123.394531 207.488281 L 123.394531 213.199219 L 84.457031 213.199219 Z M 116.765625 222.535156 L 114.714844 224.578125 C 113.148438 226.144531 111.46875 226.867188 109.4375 226.867188 L 98.40625 226.867188 C 96.375 226.867188 94.703125 226.144531 93.132812 224.578125 L 91.078125 222.535156 Z M 122.960938 130.738281 C 123.808594 129.886719 124.929688 129.421875 126.125 129.421875 C 127.324219 129.421875 128.445312 129.886719 129.292969 130.738281 C 130.140625 131.585938 130.609375 132.703125 130.609375 133.902344 C 130.609375 135.101562 130.140625 136.222656 129.292969 137.070312 C 128.445312 137.917969 127.324219 138.382812 126.125 138.382812 C 124.929688 138.382812 123.808594 137.917969 122.960938 137.070312 C 121.21875 135.328125 121.21875 132.480469 122.960938 130.738281 Z M 86.199219 134.058594 C 86.199219 135.257812 85.734375 136.378906 84.882812 137.226562 C 84.035156 138.074219 82.917969 138.539062 81.71875 138.539062 C 80.519531 138.539062 79.398438 138.074219 78.550781 137.226562 C 77.703125 136.378906 77.238281 135.257812 77.238281 134.058594 C 77.238281 132.859375 77.703125 131.738281 78.550781 130.890625 C 79.421875 130.019531 80.574219 129.585938 81.71875 129.585938 C 82.863281 129.585938 84.011719 130.019531 84.882812 130.890625 C 85.734375 131.730469 86.199219 132.859375 86.199219 134.058594 Z M 252.039062 357.679688 C 252.039062 362.085938 248.460938 365.664062 244.058594 365.664062 L 123.179688 365.664062 C 118.773438 365.664062 115.195312 362.085938 115.195312 357.679688 L 115.195312 278.105469 C 115.195312 273.703125 118.773438 270.125 123.179688 270.125 L 165.601562 270.125 C 167.59375 270.125 169.359375 270.980469 171.320312 272.894531 L 192.3125 293.410156 C 193.183594 294.265625 194.359375 294.742188 195.570312 294.742188 L 252.039062 294.742188 Z M 335.738281 252.636719 C 335.738281 282.96875 311.058594 307.648438 280.726562 307.648438 L 261.375 307.648438 L 261.375 290.074219 C 261.375 287.496094 259.28125 285.40625 256.707031 285.40625 L 197.476562 285.40625 L 177.847656 266.21875 C 174.105469 262.5625 170.109375 260.789062 165.601562 260.789062 L 123.179688 260.789062 C 113.625 260.789062 105.859375 268.5625 105.859375 278.105469 L 105.859375 307.640625 L 86.511719 307.640625 C 56.175781 307.640625 31.496094 282.960938 31.496094 252.628906 C 31.496094 224.417969 49.5625 202.328125 75.113281 198.289062 L 75.113281 217.859375 C 75.113281 219.148438 75.632812 220.316406 76.480469 221.164062 L 86.542969 231.183594 C 89.878906 234.507812 93.871094 236.195312 98.40625 236.195312 L 109.4375 236.195312 C 113.972656 236.195312 117.964844 234.507812 121.304688 231.183594 L 131.355469 221.171875 C 132.203125 220.324219 132.730469 219.15625 132.730469 217.867188 L 132.730469 188.160156 C 134.164062 178.738281 140.238281 171.636719 147.273438 163.429688 C 153.410156 156.261719 160.015625 148.554688 164.453125 138.296875 C 169.679688 142.429688 174.042969 147.597656 177.234375 153.476562 C 177.933594 154.769531 179.203125 155.65625 180.664062 155.875 C 182.121094 156.085938 183.589844 155.601562 184.632812 154.558594 C 195.269531 143.960938 209.382812 138.136719 224.390625 138.136719 C 254.792969 138.136719 280.054688 162.851562 280.710938 193.234375 C 280.765625 195.628906 282.625 197.597656 285.011719 197.785156 C 313.457031 200.011719 335.738281 224.097656 335.738281 252.636719 Z M 271.0625 113.496094 C 276.132812 108.421875 282.871094 105.636719 290.039062 105.636719 C 297.203125 105.636719 303.949219 108.429688 309.011719 113.496094 C 319.476562 123.960938 319.476562 140.992188 309.011719 151.453125 C 300.820312 159.648438 288.179688 161.625 277.917969 156.433594 C 275.675781 153.289062 273.148438 150.328125 270.339844 147.582031 C 268.773438 146.046875 267.148438 144.609375 265.460938 143.246094 C 261.058594 133.15625 263.234375 121.324219 271.0625 113.496094 Z M 359.957031 139.667969 L 349.664062 139.988281 C 347.019531 140.074219 344.792969 141.855469 344.140625 144.414062 C 342.832031 149.554688 340.792969 154.480469 338.085938 159.03125 C 336.734375 161.3125 337.042969 164.136719 338.859375 166.074219 L 345.90625 173.574219 L 333.046875 186.433594 L 325.546875 179.386719 C 323.617188 177.574219 320.785156 177.261719 318.511719 178.613281 C 313.945312 181.324219 309.019531 183.359375 303.878906 184.675781 C 301.304688 185.328125 299.519531 187.554688 299.445312 190.207031 L 299.421875 191.09375 C 296.316406 190.144531 293.117188 189.40625 289.828125 188.9375 C 289.226562 181.710938 287.4375 174.734375 284.589844 168.207031 C 286.382812 168.46875 288.179688 168.625 289.976562 168.625 C 299.375 168.625 308.6875 164.992188 315.625 158.050781 C 329.730469 143.945312 329.730469 120.996094 315.625 106.890625 C 308.796875 100.058594 299.707031 96.292969 290.046875 96.292969 C 280.382812 96.292969 271.296875 100.058594 264.464844 106.890625 C 256.699219 114.65625 253.042969 125.34375 254.023438 135.863281 C 244.9375 131.257812 234.84375 128.808594 224.382812 128.808594 C 222.949219 128.808594 221.535156 128.871094 220.125 128.953125 L 220.125 125.273438 L 230.410156 124.964844 C 233.0625 124.886719 235.28125 123.105469 235.933594 120.535156 C 237.25 115.378906 239.289062 110.445312 241.996094 105.886719 C 243.347656 103.605469 243.039062 100.785156 241.21875 98.847656 L 234.167969 91.363281 L 247.019531 78.507812 L 254.507812 85.558594 C 256.433594 87.378906 259.265625 87.6875 261.546875 86.335938 C 266.121094 83.621094 271.046875 81.582031 276.195312 80.265625 C 278.765625 79.613281 280.546875 77.386719 280.632812 74.734375 L 280.941406 64.457031 L 299.125 64.457031 L 299.4375 74.734375 C 299.511719 77.394531 301.296875 79.613281 303.871094 80.265625 C 309.019531 81.582031 313.945312 83.621094 318.511719 86.328125 C 320.792969 87.679688 323.617188 87.371094 325.546875 85.558594 L 333.046875 78.507812 L 345.90625 91.371094 L 338.859375 98.878906 C 337.042969 100.804688 336.742188 103.636719 338.085938 105.910156 C 340.792969 110.46875 342.832031 115.394531 344.140625 120.535156 C 344.792969 123.105469 347.011719 124.886719 349.664062 124.964844 L 359.957031 125.28125 Z M 359.957031 139.667969 " fill-opacity="1" fill-rule="nonzero"/></g></svg>