<svg width="50" height="50" viewBox="0 0 50 50" fill="none" xmlns="http://www.w3.org/2000/svg">
<g clip-path="url(#clip0_433_288)">
<path d="M25.2988 47.6338H26.879V46.0552H25.2988V47.6338Z" fill="#004AAD"/>
<path d="M39.5098 47.6338H41.0895V46.0552H39.5098V47.6338Z" fill="#004AAD"/>
<mask id="mask0_433_288" style="mask-type:luminance" maskUnits="userSpaceOnUse" x="20" y="23" width="30" height="27">
<path d="M20.3184 23.1001H49.9647V50.0001H20.3184V23.1001Z" fill="white"/>
</mask>
<g mask="url(#mask0_433_288)">
<path d="M40.3 48.4235C39.4292 48.4235 38.7214 47.7152 38.7214 46.8448C38.7214 45.9745 39.4292 45.2662 40.3 45.2662C41.1703 45.2662 41.8797 45.9745 41.8797 46.8448C41.8797 47.7152 41.1703 48.4235 40.3 48.4235ZM24.3234 39.7396L22.3672 32.5678L44.337 31.1027L42.3443 39.7396H24.3234ZM26.0885 48.4235C25.2182 48.4235 24.5099 47.7152 24.5099 46.8448C24.5099 45.9745 25.2182 45.2662 26.0885 45.2662C26.9589 45.2662 27.6672 45.9745 27.6672 46.8448C27.6672 47.7152 26.9589 48.4235 26.0885 48.4235ZM49.9651 24.7152L49.5828 23.1829L45.9547 24.0896L44.7078 29.4959L20.3359 31.1209L23.1177 41.3178H41.9797L41.3859 43.8912C41.0458 43.7657 40.6828 43.6865 40.3 43.6865C39.137 43.6865 38.1286 44.3266 37.5813 45.2662H28.8083C28.2594 44.3266 27.2526 43.6865 26.0885 43.6865C24.3464 43.6865 22.9302 45.1042 22.9302 46.8448C22.9302 48.587 24.3464 50.0021 26.0885 50.0021C27.8307 50.0021 29.2469 48.587 29.2469 46.8448H37.1411C37.1411 48.587 38.5578 50.0021 40.3 50.0021C42.0417 50.0021 43.4583 48.587 43.4583 46.8448C43.4583 46.1099 43.1948 45.4417 42.7729 44.9042L47.2776 25.387L49.9651 24.7152Z" fill="#004AAD"/>
</g>
<path d="M28.4577 32.6338H25.2988V34.2124H28.4577V32.6338Z" fill="#004AAD"/>
<path d="M34.7725 32.6338H31.6152V34.2124H34.7725V32.6338Z" fill="#004AAD"/>
<path d="M37.9316 32.6338V34.2124H41.09V32.6338H37.9316Z" fill="#004AAD"/>
<path d="M31.6154 35.0022H28.457V36.5808H31.6154V35.0022Z" fill="#004AAD"/>
<path d="M37.9308 35.0022H34.7725V36.5808H37.9308V35.0022Z" fill="#004AAD"/>
<path d="M31.6152 38.9495H34.7725V37.3708H31.6152V38.9495Z" fill="#004AAD"/>
<path d="M37.9316 38.9495H41.09V37.3708H37.9316V38.9495Z" fill="#004AAD"/>
<path d="M25.2988 38.9495H28.4577V37.3708H25.2988V38.9495Z" fill="#004AAD"/>
<mask id="mask1_433_288" style="mask-type:luminance" maskUnits="userSpaceOnUse" x="0" y="5" width="43" height="43">
<path d="M0 5H42.8V47.7333H0V5Z" fill="white"/>
</mask>
<g mask="url(#mask1_433_288)">
<path d="M6.90182 39.7432C8.15599 38.9775 9.57005 38.3166 11.1169 37.7827C12.2362 40.9301 13.8096 43.4989 15.6893 45.2234C12.2836 44.202 9.2638 42.2833 6.90182 39.7432ZM15.6893 7.41139C13.8076 9.13743 12.2326 11.7104 11.1122 14.863C9.56745 14.3291 8.16224 13.6598 6.90286 12.8906C9.2638 10.3499 12.2846 8.43275 15.6893 7.41139ZM35.8008 12.8906C34.5414 13.6598 33.1357 14.3291 31.5904 14.863C30.4711 11.7104 28.8961 9.13743 27.0143 7.41139C30.419 8.43275 33.4393 10.3499 35.8008 12.8906ZM33.4201 25.5281C33.3539 22.2062 32.8789 19.1015 32.0753 16.3598C33.8284 15.7567 35.4253 14.9932 36.8404 14.1046C39.3445 17.2739 40.8987 21.2249 41.069 25.5281H33.4201ZM22.1419 18.0494C25.0919 17.9848 27.9492 17.5692 30.5565 16.8307C31.3185 19.4307 31.7753 22.3854 31.8414 25.5281H22.1419V18.0494ZM20.5617 6.64056V16.4708C17.7753 16.4072 15.0836 16.0187 12.6336 15.3312C14.3815 10.4426 17.2622 7.10514 20.5617 6.64056ZM22.1419 6.64056C25.4414 7.10514 28.3221 10.4426 30.0701 15.3312C27.6201 16.0187 24.9284 16.4072 22.1419 16.4708V6.64056ZM10.8622 25.5281C10.9279 22.3854 11.3852 19.4307 12.1471 16.8307C14.7544 17.5692 17.6117 17.9848 20.5617 18.0494V25.5281H10.8622ZM1.63411 25.5281C1.80391 21.2249 3.35911 17.2739 5.86328 14.1046C7.27839 14.9932 8.87526 15.7567 10.6284 16.3598C9.82474 19.1015 9.34922 22.2062 9.28359 25.5281H1.63411ZM10.632 36.2848C8.8763 36.889 7.27214 37.6452 5.86328 38.5301C3.35911 35.3604 1.80391 31.4098 1.63411 27.1067H9.28359C9.34922 30.4333 9.82578 33.5416 10.632 36.2848ZM22.1419 47.6338V42.8979H20.5617V45.9942C17.2607 45.5296 14.3805 42.1895 12.631 37.2999C15.0898 36.6088 17.7945 36.2088 20.5789 36.1479L20.5445 34.5682C17.6096 34.6327 14.7508 35.0609 12.1456 35.7994C11.3852 33.2005 10.9279 30.2468 10.8622 27.1067H20.5617V29.4755H22.1419V27.1067H41.0898V27.8968H42.6685V25.5281H42.6492C42.231 14.139 32.8409 5.00098 21.3518 5.00098C9.59818 5.00098 0.0351562 14.563 0.0351562 26.3182C0.0351562 38.0718 9.59818 47.6338 21.3518 47.6338H22.1419Z" fill="#004AAD"/>
</g>
</g>
<defs>
<clipPath id="clip0_433_288">
<rect width="50" height="50" fill="white"/>
</clipPath>
</defs>
</svg>
