<svg xmlns="http://www.w3.org/2000/svg" xmlns:xlink="http://www.w3.org/1999/xlink" width="300" zoomAndPan="magnify" viewBox="0 0 224.87999 225" height="300" preserveAspectRatio="xMidYMid meet" version="1.0"><defs><clipPath id="e832a059d9"><path d="M 88 191 L 123 191 L 123 224.9375 L 88 224.9375 Z M 88 191 " clip-rule="nonzero"/></clipPath><clipPath id="6cdce3356d"><path d="M 167 191 L 202 191 L 202 224.9375 L 167 224.9375 Z M 167 191 " clip-rule="nonzero"/></clipPath><clipPath id="7c7a2f9e13"><path d="M 117 0.0585938 L 217.382812 0.0585938 L 217.382812 67 L 117 67 Z M 117 0.0585938 " clip-rule="nonzero"/></clipPath></defs><path fill="#004aad" d="M 67.027344 73.808594 L 203.433594 73.808594 C 210.054688 73.808594 216.175781 78.847656 213.726562 87.664062 L 196.019531 151.65625 C 194.398438 157.414062 191.015625 159.179688 184.429688 159.179688 L 93.445312 159.179688 C 86.859375 159.179688 82.753906 154.210938 81.460938 148.34375 L 63.859375 77.839844 C 63.609375 76.832031 63.824219 75.859375 64.472656 75.066406 C 65.082031 74.238281 65.984375 73.808594 67.027344 73.808594 Z M 143.328125 91.875 C 147.429688 91.875 150.8125 95.257812 150.8125 99.359375 L 150.8125 132.183594 C 150.8125 136.289062 147.429688 139.636719 143.328125 139.636719 C 139.226562 139.636719 135.878906 136.289062 135.878906 132.183594 L 135.878906 99.359375 C 135.878906 95.257812 139.226562 91.875 143.328125 91.875 Z M 104.816406 92.234375 C 108.847656 91.550781 112.734375 94.285156 113.417969 98.316406 L 119.035156 130.671875 C 119.71875 134.703125 116.984375 138.589844 112.953125 139.277344 C 108.921875 139.996094 105.035156 137.261719 104.351562 133.230469 L 98.734375 100.871094 C 98.050781 96.804688 100.75 92.953125 104.816406 92.234375 Z M 178.238281 92.128906 C 182.304688 92.703125 185.148438 96.480469 184.574219 100.550781 L 180.039062 133.050781 C 179.464844 137.117188 175.683594 139.960938 171.617188 139.417969 C 167.550781 138.84375 164.707031 135.066406 165.28125 130.996094 L 169.816406 98.460938 C 170.394531 94.394531 174.171875 91.550781 178.238281 92.128906 Z M 178.238281 92.128906 " fill-opacity="1" fill-rule="evenodd"/><path fill="#00305c" d="M 15.269531 44.152344 L 37.476562 47.714844 C 41.4375 48.363281 44.351562 51.132812 45.394531 54.984375 L 72.390625 154.714844 C 74.1875 162.058594 81.855469 169.078125 90.527344 169.078125 L 205.414062 169.078125 C 216.605469 169.078125 216.75 185.308594 205.414062 185.308594 L 90.527344 185.308594 C 73.828125 185.308594 60.332031 173.539062 56.660156 158.566406 L 30.675781 62.972656 L 12.753906 60.09375 C 0.046875 58.257812 2.566406 41.269531 15.269531 44.152344 Z M 15.269531 44.152344 " fill-opacity="1" fill-rule="nonzero"/><g clip-path="url(#e832a059d9)"><path fill="#004aad" d="M 105.609375 191.210938 C 114.894531 191.210938 122.453125 198.769531 122.453125 208.089844 C 122.453125 217.375 114.894531 224.933594 105.609375 224.933594 C 96.289062 224.933594 88.730469 217.375 88.730469 208.089844 C 88.730469 198.769531 96.289062 191.210938 105.609375 191.210938 Z M 105.609375 202.296875 C 108.777344 202.296875 111.367188 204.886719 111.367188 208.089844 C 111.367188 211.257812 108.777344 213.847656 105.609375 213.847656 C 102.40625 213.847656 99.816406 211.257812 99.816406 208.089844 C 99.816406 204.886719 102.40625 202.296875 105.609375 202.296875 Z M 105.609375 202.296875 " fill-opacity="1" fill-rule="evenodd"/></g><g clip-path="url(#6cdce3356d)"><path fill="#004aad" d="M 184.464844 191.210938 C 193.789062 191.210938 201.308594 198.769531 201.308594 208.089844 C 201.308594 217.375 193.789062 224.933594 184.464844 224.933594 C 175.144531 224.933594 167.585938 217.375 167.585938 208.089844 C 167.585938 198.769531 175.144531 191.210938 184.464844 191.210938 Z M 184.464844 202.296875 C 187.632812 202.296875 190.226562 204.886719 190.226562 208.089844 C 190.226562 211.257812 187.632812 213.847656 184.464844 213.847656 C 181.261719 213.847656 178.707031 211.257812 178.707031 208.089844 C 178.707031 204.886719 181.261719 202.296875 184.464844 202.296875 Z M 184.464844 202.296875 " fill-opacity="1" fill-rule="evenodd"/></g><g clip-path="url(#7c7a2f9e13)"><path fill="#00305c" d="M 118.171875 60.632812 L 138.902344 33.570312 L 141.023438 30.726562 C 142.285156 29.105469 144.515625 28.675781 146.28125 29.683594 L 149.375 31.480469 L 165.425781 40.730469 C 167.226562 41.773438 169.492188 41.269531 170.71875 39.617188 L 184.359375 20.863281 C 184.429688 20.757812 184.503906 20.683594 184.574219 20.578125 L 179.605469 11.832031 C 178.707031 10.246094 177.304688 9.132812 177.554688 7.296875 C 177.773438 5.460938 178.996094 4.054688 180.757812 3.480469 L 207.175781 -5.191406 C 208.507812 -5.660156 209.910156 -5.445312 211.097656 -4.652344 C 212.324219 -3.898438 213.042969 -2.710938 213.222656 -1.269531 L 217.039062 27.054688 C 217.289062 28.890625 216.425781 30.582031 214.84375 31.554688 C 213.296875 32.527344 211.421875 32.488281 209.875 31.480469 L 200.84375 25.617188 C 200.699219 25.976562 200.519531 26.335938 200.300781 26.625 L 177.410156 57.933594 L 175.289062 60.886719 C 174.066406 62.578125 171.761719 63.082031 169.960938 62.039062 L 166.792969 60.203125 L 149.988281 50.558594 C 148.222656 49.511719 146.785156 49.945312 145.703125 51.347656 L 136.203125 63.765625 C 134.726562 65.671875 132.601562 66.71875 130.191406 66.71875 L 121.15625 66.71875 C 119.683594 66.71875 118.421875 65.925781 117.773438 64.59375 C 117.125 63.296875 117.269531 61.785156 118.171875 60.632812 Z M 118.171875 60.632812 " fill-opacity="1" fill-rule="nonzero"/></g></svg>