<svg xmlns="http://www.w3.org/2000/svg" xmlns:xlink="http://www.w3.org/1999/xlink" width="500" zoomAndPan="magnify" viewBox="0 0 375 374.999991" height="500" preserveAspectRatio="xMidYMid meet" version="1.0"><defs><clipPath id="c1a80900ab"><path d="M 152.390625 173.25 L 374.738281 173.25 L 374.738281 375 L 152.390625 375 Z M 152.390625 173.25 " clip-rule="nonzero"/></clipPath><clipPath id="155ab6c9c7"><path d="M 0 37.5 L 321 37.5 L 321 358 L 0 358 Z M 0 37.5 " clip-rule="nonzero"/></clipPath></defs><path fill="#004aad" d="M 189.738281 357.253906 L 201.589844 357.253906 L 201.589844 345.414062 L 189.738281 345.414062 L 189.738281 357.253906 " fill-opacity="1" fill-rule="nonzero"/><path fill="#004aad" d="M 296.324219 357.253906 L 308.171875 357.253906 L 308.171875 345.414062 L 296.324219 345.414062 L 296.324219 357.253906 " fill-opacity="1" fill-rule="nonzero"/><g clip-path="url(#c1a80900ab)"><path fill="#004aad" d="M 302.25 363.175781 C 295.71875 363.175781 290.410156 357.863281 290.410156 351.335938 C 290.410156 344.808594 295.71875 339.496094 302.25 339.496094 C 308.777344 339.496094 314.097656 344.808594 314.097656 351.335938 C 314.097656 357.863281 308.777344 363.175781 302.25 363.175781 Z M 182.425781 298.046875 L 167.753906 244.257812 L 332.527344 233.269531 L 317.582031 298.046875 Z M 195.664062 363.175781 C 189.136719 363.175781 183.824219 357.863281 183.824219 351.335938 C 183.824219 344.808594 189.136719 339.496094 195.664062 339.496094 C 202.191406 339.496094 207.503906 344.808594 207.503906 351.335938 C 207.503906 357.863281 202.191406 363.175781 195.664062 363.175781 Z M 374.738281 185.363281 L 371.871094 173.871094 L 344.660156 180.671875 L 335.308594 221.21875 L 152.519531 233.40625 L 173.382812 309.882812 L 314.847656 309.882812 L 310.394531 329.183594 C 307.84375 328.242188 305.121094 327.648438 302.25 327.648438 C 293.527344 327.648438 285.964844 332.449219 281.859375 339.496094 L 216.0625 339.496094 C 211.945312 332.449219 204.394531 327.648438 195.664062 327.648438 C 182.597656 327.648438 171.976562 338.28125 171.976562 351.335938 C 171.976562 364.402344 182.597656 375.015625 195.664062 375.015625 C 208.730469 375.015625 219.351562 364.402344 219.351562 351.335938 L 278.558594 351.335938 C 278.558594 364.402344 289.183594 375.015625 302.25 375.015625 C 315.3125 375.015625 325.9375 364.402344 325.9375 351.335938 C 325.9375 345.824219 323.960938 340.8125 320.796875 336.78125 L 354.582031 190.402344 L 374.738281 185.363281 " fill-opacity="1" fill-rule="nonzero"/></g><path fill="#004aad" d="M 213.429688 244.753906 L 189.738281 244.753906 L 189.738281 256.59375 L 213.429688 256.59375 L 213.429688 244.753906 " fill-opacity="1" fill-rule="nonzero"/><path fill="#004aad" d="M 260.796875 244.753906 L 237.117188 244.753906 L 237.117188 256.59375 L 260.796875 256.59375 L 260.796875 244.753906 " fill-opacity="1" fill-rule="nonzero"/><path fill="#004aad" d="M 284.484375 244.753906 L 284.484375 256.59375 L 308.171875 256.59375 L 308.171875 244.753906 L 284.484375 244.753906 " fill-opacity="1" fill-rule="nonzero"/><path fill="#004aad" d="M 237.117188 262.515625 L 213.429688 262.515625 L 213.429688 274.355469 L 237.117188 274.355469 L 237.117188 262.515625 " fill-opacity="1" fill-rule="nonzero"/><path fill="#004aad" d="M 284.484375 262.515625 L 260.796875 262.515625 L 260.796875 274.355469 L 284.484375 274.355469 L 284.484375 262.515625 " fill-opacity="1" fill-rule="nonzero"/><path fill="#004aad" d="M 237.117188 292.121094 L 260.796875 292.121094 L 260.796875 280.28125 L 237.117188 280.28125 L 237.117188 292.121094 " fill-opacity="1" fill-rule="nonzero"/><path fill="#004aad" d="M 284.484375 292.121094 L 308.171875 292.121094 L 308.171875 280.28125 L 284.484375 280.28125 L 284.484375 292.121094 " fill-opacity="1" fill-rule="nonzero"/><path fill="#004aad" d="M 189.738281 292.121094 L 213.429688 292.121094 L 213.429688 280.28125 L 189.738281 280.28125 L 189.738281 292.121094 " fill-opacity="1" fill-rule="nonzero"/><g clip-path="url(#155ab6c9c7)"><path fill="#004aad" d="M 51.761719 298.074219 C 61.167969 292.332031 71.773438 287.375 83.375 283.371094 C 91.769531 306.976562 103.570312 326.242188 117.667969 339.175781 C 92.125 331.515625 69.476562 317.125 51.761719 298.074219 Z M 117.667969 55.585938 C 103.554688 68.53125 91.742188 87.828125 83.339844 111.472656 C 71.753906 107.46875 61.214844 102.449219 51.769531 96.679688 C 69.476562 77.625 92.132812 63.246094 117.667969 55.585938 Z M 268.503906 96.679688 C 259.058594 102.449219 248.515625 107.46875 236.925781 111.472656 C 228.53125 87.828125 216.71875 68.53125 202.605469 55.585938 C 228.140625 63.246094 250.792969 77.625 268.503906 96.679688 Z M 250.648438 191.460938 C 250.152344 166.546875 246.589844 143.261719 240.5625 122.699219 C 253.710938 118.175781 265.6875 112.449219 276.300781 105.785156 C 295.082031 129.554688 306.738281 159.1875 308.015625 191.460938 Z M 166.0625 135.371094 C 188.1875 134.886719 209.617188 131.769531 229.171875 126.230469 C 234.886719 145.730469 238.3125 167.890625 238.808594 191.460938 L 166.0625 191.460938 Z M 154.210938 49.804688 L 154.210938 123.53125 C 133.3125 123.054688 113.125 120.140625 94.75 114.984375 C 107.859375 78.320312 129.464844 53.289062 154.210938 49.804688 Z M 166.0625 49.804688 C 190.808594 53.289062 212.414062 78.320312 225.523438 114.984375 C 207.148438 120.140625 186.960938 123.054688 166.0625 123.53125 Z M 81.464844 191.460938 C 81.957031 167.890625 85.386719 145.730469 91.101562 126.230469 C 110.65625 131.769531 132.085938 134.886719 154.210938 135.371094 L 154.210938 191.460938 Z M 12.253906 191.460938 C 13.527344 159.1875 25.191406 129.554688 43.972656 105.785156 C 54.585938 112.449219 66.5625 118.175781 79.710938 122.699219 C 73.683594 143.261719 70.117188 166.546875 69.625 191.460938 Z M 79.738281 272.136719 C 66.570312 276.667969 54.539062 282.339844 43.972656 288.976562 C 25.191406 265.203125 13.527344 235.574219 12.253906 203.300781 L 69.625 203.300781 C 70.117188 228.25 73.691406 251.5625 79.738281 272.136719 Z M 166.0625 357.253906 L 166.0625 321.734375 L 154.210938 321.734375 L 154.210938 344.957031 C 129.453125 341.472656 107.851562 316.421875 94.730469 279.75 C 113.171875 274.566406 133.457031 271.566406 154.339844 271.109375 L 154.082031 259.261719 C 132.070312 259.746094 110.628906 262.957031 91.089844 268.496094 C 85.386719 249.003906 81.957031 226.851562 81.464844 203.300781 L 154.210938 203.300781 L 154.210938 221.066406 L 166.0625 221.066406 L 166.0625 203.300781 L 308.171875 203.300781 L 308.171875 209.226562 L 320.011719 209.226562 L 320.011719 191.460938 L 319.867188 191.460938 C 316.730469 106.042969 246.304688 37.507812 160.136719 37.507812 C 71.984375 37.507812 0.261719 109.222656 0.261719 197.386719 C 0.261719 285.539062 71.984375 357.253906 160.136719 357.253906 L 166.0625 357.253906 " fill-opacity="1" fill-rule="nonzero"/></g></svg>