<svg xmlns="http://www.w3.org/2000/svg" xmlns:xlink="http://www.w3.org/1999/xlink" width="300" zoomAndPan="magnify" viewBox="0 0 224.87999 225" height="300" preserveAspectRatio="xMidYMid meet" version="1.0"><defs><clipPath id="893ed2d84a"><path d="M 4.101562 7.5 L 220 7.5 L 220 217.386719 L 4.101562 217.386719 Z M 4.101562 7.5 " clip-rule="nonzero"/></clipPath></defs><g clip-path="url(#893ed2d84a)"><path fill="#004aad" d="M 217.410156 78.679688 C 214.054688 72.867188 206.601562 70.871094 200.796875 74.222656 C 197.953125 75.859375 196.023438 78.480469 195.1875 81.410156 L 187.925781 81.410156 L 177.945312 67.804688 C 177.3125 66.941406 176.308594 66.433594 175.242188 66.433594 L 161.839844 66.433594 C 162.125 64.074219 162.285156 61.488281 162.304688 58.644531 L 186.425781 58.644531 C 186.699219 59.589844 187.089844 60.511719 187.59375 61.386719 C 189.21875 64.203125 191.839844 66.214844 194.980469 67.058594 C 196.03125 67.339844 197.09375 67.476562 198.152344 67.476562 C 200.261719 67.476562 202.339844 66.925781 204.210938 65.84375 C 207.027344 64.222656 209.039062 61.601562 209.882812 58.460938 C 210.730469 55.316406 210.296875 52.03125 208.667969 49.214844 C 208.667969 49.214844 208.667969 49.214844 208.667969 49.210938 C 205.3125 43.402344 197.855469 41.402344 192.054688 44.753906 C 189.292969 46.34375 187.308594 48.894531 186.433594 51.945312 L 161.929688 51.945312 C 161.601562 49.28125 161.066406 46.683594 160.339844 44.164062 L 175.242188 44.164062 C 176.3125 44.164062 177.316406 43.65625 177.945312 42.796875 L 187.929688 29.175781 L 195.167969 29.175781 C 195.441406 30.125 195.832031 31.042969 196.335938 31.921875 C 198.589844 35.820312 202.6875 38.003906 206.894531 38.003906 C 208.957031 38.003906 211.042969 37.480469 212.953125 36.378906 C 215.769531 34.757812 217.785156 32.132812 218.625 28.992188 C 219.472656 25.847656 219.039062 22.566406 217.410156 19.746094 C 214.054688 13.933594 206.601562 11.9375 200.796875 15.289062 C 198.039062 16.875 196.050781 19.425781 195.175781 22.476562 L 186.230469 22.476562 C 185.164062 22.476562 184.160156 22.988281 183.53125 23.847656 L 173.546875 37.46875 L 157.882812 37.46875 C 149.964844 19.886719 132.28125 7.617188 111.785156 7.617188 C 91.160156 7.617188 73.382812 20.042969 65.539062 37.796875 L 50.023438 37.796875 L 40.039062 24.179688 C 39.40625 23.316406 38.40625 22.808594 37.335938 22.808594 L 28.394531 22.808594 C 28.125 21.867188 27.734375 20.949219 27.234375 20.078125 C 27.234375 20.078125 27.230469 20.078125 27.230469 20.078125 C 23.875 14.265625 16.421875 12.269531 10.617188 15.621094 C 7.800781 17.242188 5.785156 19.863281 4.941406 23.003906 C 4.097656 26.148438 4.527344 29.433594 6.15625 32.25 C 8.410156 36.152344 12.507812 38.335938 16.71875 38.335938 C 18.777344 38.335938 20.863281 37.8125 22.773438 36.710938 C 25.535156 35.121094 27.523438 32.566406 28.394531 29.507812 L 35.640625 29.507812 L 45.621094 43.128906 C 46.253906 43.988281 47.257812 44.496094 48.324219 44.496094 L 63.132812 44.496094 C 62.425781 47.015625 61.910156 49.617188 61.601562 52.277344 L 37.136719 52.277344 C 36.867188 51.332031 36.476562 50.417969 35.972656 49.542969 C 32.621094 43.738281 25.160156 41.738281 19.34375 45.089844 C 16.527344 46.714844 14.511719 49.34375 13.671875 52.488281 C 12.832031 55.632812 13.269531 58.914062 14.898438 61.71875 C 17.152344 65.621094 21.25 67.800781 25.457031 67.800781 C 27.519531 67.800781 29.609375 67.277344 31.519531 66.175781 C 34.273438 64.585938 36.257812 62.03125 37.128906 58.976562 L 61.269531 58.976562 C 61.296875 61.820312 61.46875 64.410156 61.769531 66.765625 L 48.324219 66.765625 C 47.257812 66.765625 46.253906 67.273438 45.625 68.132812 L 35.640625 81.742188 L 28.394531 81.742188 C 28.125 80.800781 27.734375 79.882812 27.234375 79.011719 C 27.234375 79.011719 27.230469 79.011719 27.230469 79.011719 C 23.875 73.199219 16.421875 71.203125 10.617188 74.554688 C 7.796875 76.179688 5.78125 78.804688 4.9375 81.945312 C 4.097656 85.082031 4.53125 88.363281 6.15625 91.1875 C 7.78125 94 10.40625 96.015625 13.542969 96.855469 C 14.59375 97.136719 15.660156 97.277344 16.71875 97.277344 C 18.824219 97.277344 20.902344 96.726562 22.773438 95.644531 C 25.535156 94.054688 27.523438 91.5 28.394531 88.441406 L 37.335938 88.441406 C 38.402344 88.441406 39.40625 87.933594 40.039062 87.074219 L 50.019531 73.464844 L 63.089844 73.464844 C 65.820312 83.292969 71.160156 88.105469 76.046875 92.496094 C 76.117188 92.5625 76.1875 92.625 76.257812 92.6875 C 74.019531 94.328125 71.894531 96.117188 69.898438 98.050781 L 56.910156 90.554688 C 55.308594 89.628906 53.261719 90.179688 52.335938 91.78125 L 39.246094 114.453125 C 38.320312 116.054688 38.871094 118.105469 40.472656 119.027344 L 53.445312 126.523438 C 52.246094 131.304688 51.636719 136.234375 51.636719 141.214844 C 51.636719 146.199219 52.246094 151.132812 53.445312 155.914062 L 40.472656 163.410156 C 38.871094 164.335938 38.320312 166.382812 39.246094 167.984375 L 52.335938 190.65625 C 53.261719 192.261719 55.308594 192.808594 56.910156 191.882812 L 69.894531 184.386719 C 77.074219 191.351562 85.785156 196.386719 95.34375 199.09375 L 95.34375 214.066406 C 95.34375 215.917969 96.84375 217.417969 98.695312 217.417969 L 124.871094 217.417969 C 126.722656 217.417969 128.222656 215.917969 128.222656 214.066406 L 128.222656 199.09375 C 137.785156 196.386719 146.496094 191.351562 153.671875 184.386719 L 166.65625 191.882812 C 168.261719 192.808594 170.308594 192.261719 171.230469 190.65625 L 184.320312 167.984375 C 185.246094 166.382812 184.695312 164.335938 183.09375 163.410156 L 170.121094 155.914062 C 171.324219 151.132812 171.929688 146.199219 171.929688 141.214844 C 171.929688 136.234375 171.324219 131.304688 170.121094 126.523438 L 183.09375 119.027344 C 184.695312 118.105469 185.246094 116.054688 184.320312 114.453125 L 171.230469 91.78125 C 170.308594 90.179688 168.261719 89.628906 166.65625 90.554688 L 153.667969 98.050781 C 151.675781 96.117188 149.546875 94.328125 147.308594 92.6875 C 147.378906 92.625 147.449219 92.5625 147.519531 92.496094 C 152.460938 88.054688 157.871094 83.1875 160.570312 73.132812 L 173.546875 73.132812 L 183.53125 86.742188 C 184.160156 87.601562 185.164062 88.109375 186.230469 88.109375 L 195.175781 88.109375 C 195.445312 89.050781 195.828125 89.972656 196.335938 90.855469 C 198.589844 94.753906 202.6875 96.9375 206.894531 96.9375 C 208.957031 96.9375 211.046875 96.414062 212.957031 95.308594 C 218.765625 91.949219 220.765625 84.488281 217.410156 78.679688 Z M 201.589844 24.40625 C 201.96875 22.996094 202.875 21.820312 204.140625 21.089844 C 205 20.59375 205.9375 20.359375 206.863281 20.359375 C 208.753906 20.359375 210.597656 21.339844 211.609375 23.09375 C 212.34375 24.363281 212.539062 25.839844 212.15625 27.257812 C 211.777344 28.667969 210.875 29.84375 209.605469 30.574219 C 206.996094 32.082031 203.644531 31.183594 202.136719 28.570312 C 201.40625 27.300781 201.210938 25.824219 201.589844 24.40625 Z M 21.976562 27.589844 C 21.597656 29 20.695312 30.175781 19.425781 30.90625 C 16.816406 32.414062 13.464844 31.515625 11.957031 28.902344 C 11.226562 27.632812 11.03125 26.15625 11.410156 24.742188 C 11.789062 23.328125 12.695312 22.152344 13.960938 21.421875 C 14.820312 20.925781 15.757812 20.691406 16.683594 20.691406 C 18.574219 20.691406 20.417969 21.671875 21.429688 23.425781 C 22.164062 24.695312 22.359375 26.171875 21.976562 27.589844 Z M 21.976562 86.523438 C 21.597656 87.933594 20.695312 89.113281 19.425781 89.84375 C 18.160156 90.570312 16.691406 90.765625 15.28125 90.386719 C 13.867188 90.007812 12.6875 89.101562 11.960938 87.839844 C 11.226562 86.566406 11.03125 85.089844 11.410156 83.675781 C 11.789062 82.265625 12.691406 81.089844 13.964844 80.355469 C 14.820312 79.859375 15.757812 79.625 16.683594 79.625 C 18.574219 79.625 20.417969 80.609375 21.429688 82.363281 C 22.164062 83.628906 22.359375 85.109375 21.976562 86.523438 Z M 192.847656 53.878906 C 193.222656 52.46875 194.128906 51.289062 195.402344 50.558594 C 196.257812 50.0625 197.195312 49.828125 198.121094 49.828125 C 200.011719 49.828125 201.855469 50.808594 202.867188 52.5625 C 203.601562 53.832031 203.792969 55.308594 203.414062 56.722656 C 203.035156 58.132812 202.132812 59.3125 200.863281 60.042969 C 199.597656 60.769531 198.125 60.964844 196.714844 60.585938 C 195.304688 60.207031 194.125 59.300781 193.398438 58.039062 C 192.664062 56.769531 192.46875 55.289062 192.847656 53.878906 Z M 30.71875 57.046875 C 30.339844 58.460938 29.433594 59.644531 28.167969 60.375 C 25.558594 61.882812 22.207031 60.980469 20.695312 58.363281 C 19.964844 57.101562 19.769531 55.628906 20.144531 54.21875 C 20.523438 52.800781 21.425781 51.621094 22.6875 50.890625 C 23.550781 50.394531 24.492188 50.160156 25.417969 50.160156 C 27.316406 50.160156 29.160156 51.140625 30.171875 52.894531 C 30.902344 54.160156 31.097656 55.632812 30.71875 57.046875 Z M 150.671875 104.546875 C 151.738281 105.671875 153.4375 105.917969 154.78125 105.144531 L 167.105469 98.03125 L 176.847656 114.902344 L 164.53125 122.019531 C 163.1875 122.792969 162.550781 124.390625 162.996094 125.878906 C 164.480469 130.828125 165.230469 135.988281 165.230469 141.214844 C 165.230469 146.445312 164.480469 151.609375 162.996094 156.558594 C 162.550781 158.046875 163.1875 159.644531 164.53125 160.421875 L 176.847656 167.535156 L 167.105469 184.410156 L 154.78125 177.292969 C 153.433594 176.519531 151.734375 176.765625 150.671875 177.894531 C 143.445312 185.542969 134.261719 190.847656 124.105469 193.242188 C 122.59375 193.597656 121.523438 194.949219 121.523438 196.503906 L 121.523438 210.71875 L 102.046875 210.71875 L 102.046875 196.503906 C 102.046875 194.949219 100.976562 193.597656 99.464844 193.242188 C 89.308594 190.847656 80.121094 185.542969 72.898438 177.894531 C 71.832031 176.765625 70.132812 176.519531 68.789062 177.292969 L 56.460938 184.410156 L 46.722656 167.535156 L 59.039062 160.421875 C 60.382812 159.644531 61.015625 158.046875 60.570312 156.558594 C 59.085938 151.609375 58.335938 146.445312 58.335938 141.214844 C 58.335938 135.988281 59.085938 130.828125 60.570312 125.878906 C 61.015625 124.390625 60.382812 122.792969 59.039062 122.019531 L 46.722656 114.902344 L 56.460938 98.03125 L 68.789062 105.144531 C 70.132812 105.921875 71.832031 105.671875 72.898438 104.546875 C 75.390625 101.910156 78.144531 99.535156 81.109375 97.453125 C 82.9375 99.589844 84.414062 102.015625 85.328125 105.285156 C 73.914062 113.6875 67.160156 126.945312 67.160156 141.214844 C 67.160156 165.824219 87.179688 185.847656 111.785156 185.847656 C 136.390625 185.847656 156.40625 165.824219 156.40625 141.214844 C 156.40625 126.945312 149.65625 113.6875 138.238281 105.285156 C 139.15625 102.015625 140.628906 99.589844 142.457031 97.453125 C 145.421875 99.535156 148.179688 101.910156 150.671875 104.546875 Z M 98.828125 61.609375 C 94.703125 54.472656 97.15625 45.304688 104.296875 41.175781 C 106.648438 39.824219 109.214844 39.179688 111.75 39.179688 C 116.929688 39.179688 121.972656 41.863281 124.738281 46.660156 C 124.738281 46.660156 124.738281 46.660156 124.742188 46.660156 C 126.738281 50.117188 127.269531 54.148438 126.234375 58.007812 C 125.199219 61.867188 122.726562 65.089844 119.265625 67.085938 C 112.125 71.207031 102.957031 68.75 98.828125 61.609375 Z M 130.503906 117.292969 L 130.503906 132.082031 C 130.503906 140.234375 123.871094 146.867188 115.714844 146.867188 L 107.851562 146.867188 C 99.699219 146.867188 93.066406 140.234375 93.066406 132.082031 L 93.066406 117.292969 Z M 86.367188 113.945312 L 86.367188 132.082031 C 86.367188 143.925781 96.003906 153.566406 107.851562 153.566406 L 115.714844 153.566406 C 127.5625 153.566406 137.203125 143.925781 137.203125 132.082031 L 137.203125 113.945312 C 137.203125 113.648438 137.207031 113.363281 137.210938 113.078125 C 145.121094 120.210938 149.707031 130.371094 149.707031 141.214844 C 149.707031 162.132812 132.695312 179.148438 111.785156 179.148438 C 90.871094 179.148438 73.859375 162.132812 73.859375 141.214844 C 73.859375 130.371094 78.445312 120.210938 86.355469 113.078125 C 86.363281 113.363281 86.367188 113.648438 86.367188 113.945312 Z M 143.042969 87.515625 C 141.933594 88.515625 140.816406 89.519531 139.730469 90.582031 C 139.644531 90.660156 139.5625 90.738281 139.484375 90.824219 C 135.113281 95.171875 131.304688 100.566406 130.613281 110.59375 L 115.132812 110.59375 L 115.132812 75.527344 C 117.699219 75.128906 120.234375 74.261719 122.613281 72.886719 C 127.625 70 131.207031 65.332031 132.707031 59.742188 C 134.203125 54.152344 133.433594 48.316406 130.542969 43.308594 C 124.574219 32.972656 111.300781 29.414062 100.949219 35.375 C 90.605469 41.351562 87.054688 54.625 93.027344 64.964844 C 96.429688 70.84375 102.195312 74.519531 108.433594 75.507812 L 108.433594 110.59375 L 92.953125 110.59375 C 92.265625 100.566406 88.457031 95.171875 84.082031 90.824219 C 84.003906 90.738281 83.921875 90.65625 83.835938 90.578125 C 82.75 89.515625 81.632812 88.511719 80.527344 87.515625 C 74.0625 81.707031 67.957031 76.21875 67.957031 58.144531 C 67.957031 33.976562 87.617188 14.316406 111.785156 14.316406 C 135.949219 14.316406 155.609375 33.976562 155.609375 58.144531 C 155.609375 76.21875 149.507812 81.707031 143.042969 87.515625 Z M 209.605469 89.507812 C 206.996094 91.015625 203.644531 90.117188 202.140625 87.507812 C 200.628906 84.886719 201.527344 81.53125 204.140625 80.023438 C 205 79.527344 205.9375 79.292969 206.863281 79.292969 C 208.753906 79.292969 210.597656 80.277344 211.609375 82.027344 C 213.117188 84.640625 212.21875 87.996094 209.605469 89.507812 Z M 209.605469 89.507812 " fill-opacity="1" fill-rule="nonzero"/></g></svg>