<svg xmlns="http://www.w3.org/2000/svg" xmlns:xlink="http://www.w3.org/1999/xlink" width="500" zoomAndPan="magnify" viewBox="0 0 375 374.999991" height="500" preserveAspectRatio="xMidYMid meet" version="1.0"><defs><clipPath id="a05f1d1ece"><path d="M 155 324 L 216 324 L 216 355.914062 L 155 355.914062 Z M 155 324 " clip-rule="nonzero"/></clipPath><clipPath id="4b7ab9e804"><path d="M 66 19.203125 L 181 19.203125 L 181 282 L 66 282 Z M 66 19.203125 " clip-rule="nonzero"/></clipPath><clipPath id="259e1c2b04"><path d="M 194 19.203125 L 309 19.203125 L 309 282 L 194 282 Z M 194 19.203125 " clip-rule="nonzero"/></clipPath></defs><rect x="-37.5" width="450" fill="#ffffff" y="-37.499999" height="449.999989" fill-opacity="1"/><rect x="-37.5" width="450" fill="#ffffff" y="-37.499999" height="449.999989" fill-opacity="1"/><path fill="#38b6ff" d="M 137.226562 295.015625 L 233.253906 295.015625 L 233.253906 309.75 C 233.253906 317.855469 226.617188 324.488281 218.519531 324.488281 L 151.964844 324.488281 C 143.859375 324.488281 137.226562 317.851562 137.226562 309.75 Z M 137.226562 295.015625 " fill-opacity="1" fill-rule="evenodd"/><g clip-path="url(#a05f1d1ece)"><path fill="#004aad" d="M 155.417969 324.488281 L 215.066406 324.488281 L 215.066406 340.125 C 215.066406 348.75 208.023438 355.789062 199.429688 355.789062 L 171.0625 355.789062 C 162.4375 355.789062 155.421875 348.75 155.421875 340.125 L 155.421875 324.488281 Z M 155.417969 324.488281 " fill-opacity="1" fill-rule="evenodd"/></g><g clip-path="url(#4b7ab9e804)"><path fill="#38b6ff" d="M 127.519531 266.035156 C 125.304688 270.480469 128.019531 276.414062 131.109375 280.867188 L 180.101562 281.402344 L 180.101562 187.113281 C 174.980469 180.207031 165.566406 172.558594 149.75 174.929688 C 146.140625 175.445312 142.753906 172.941406 142.234375 169.308594 C 141.699219 165.699219 144.222656 162.3125 147.828125 161.796875 C 161.960938 159.675781 172.476562 163.261719 180.101562 168.679688 L 180.101562 134.921875 C 174.480469 127.878906 165.339844 120.503906 151.53125 120.207031 C 147.878906 120.140625 144.960938 117.117188 145.03125 113.460938 C 145.097656 109.804688 148.121094 106.917969 151.773438 106.984375 C 163.691406 107.234375 172.988281 111.292969 180.09375 116.625 L 180.09375 19.203125 C 165.832031 20.039062 158.183594 23.019531 151.027344 32.855469 C 149.828125 36.78125 149.359375 43.503906 153.644531 53.597656 C 158.164062 51.878906 163.59375 50.929688 170.117188 51.160156 C 173.773438 51.273438 176.640625 54.316406 176.527344 57.972656 C 176.414062 61.628906 173.34375 64.496094 169.714844 64.378906 C 146.019531 63.566406 144.617188 86.472656 144.597656 86.542969 C 144.328125 90.195312 141.144531 92.949219 137.488281 92.679688 C 133.835938 92.410156 131.101562 89.226562 131.371094 85.570312 C 131.371094 85.503906 132.273438 71.019531 142.382812 60.859375 C 138.25 51.785156 136.992188 44.160156 137.171875 38.046875 C 116.769531 34.839844 97.410156 51.113281 97.523438 71.851562 L 97.523438 72.957031 C 101.8125 75.554688 108.585938 81.667969 112.460938 95.59375 C 113.429688 99.117188 111.378906 102.769531 107.835938 103.742188 C 104.316406 104.710938 100.660156 102.65625 99.691406 99.136719 C 95.835938 85.253906 90.53125 84.085938 90.507812 84.058594 L 90.261719 83.996094 L 88.160156 84.648438 C 64.820312 91.917969 59.878906 128.269531 73.605469 146.417969 L 75.160156 148.472656 C 91.457031 147.167969 106.167969 137.480469 112.824219 132.40625 C 109.148438 120.824219 114.339844 110.148438 114.359375 110.109375 C 115.914062 106.789062 119.886719 105.371094 123.183594 106.953125 C 126.503906 108.507812 127.925781 112.457031 126.371094 115.777344 C 126.347656 115.824219 119.242188 130.359375 135.933594 139.289062 C 139.160156 141.007812 140.378906 145.027344 138.667969 148.25 C 136.929688 151.457031 132.933594 152.671875 129.707031 150.957031 C 125.554688 148.742188 122.304688 146.285156 119.777344 143.714844 C 111.203125 150.007812 93.734375 160.820312 74.125 161.769531 L 74.058594 161.882812 C 63.496094 177.683594 72.003906 197.246094 89.972656 202.191406 L 91.753906 202.691406 C 96.628906 199.601562 103.085938 196.347656 110.507812 194.566406 C 110.777344 185.335938 115.449219 177.59375 115.476562 177.546875 C 117.347656 174.410156 121.433594 173.394531 124.570312 175.265625 C 127.707031 177.136719 128.726562 181.203125 126.855469 184.339844 C 126.832031 184.386719 117.875 199.257812 131.773438 206.144531 C 135.046875 207.765625 136.398438 211.738281 134.777344 215.035156 C 133.15625 218.308594 129.183594 219.660156 125.90625 218.039062 C 119.859375 215.035156 116.023438 211.359375 113.671875 207.429688 C 109.023438 208.492188 104.828125 210.335938 101.375 212.304688 L 99.121094 219.191406 C 94.695312 232.800781 106.207031 243.539062 118.730469 246.050781 L 128.390625 247.96875 C 136.667969 243.410156 149.511719 234.113281 153.550781 218.851562 C 154.472656 215.3125 158.109375 213.191406 161.65625 214.132812 C 165.199219 215.054688 167.316406 218.691406 166.375 222.210938 C 160.285156 245.234375 139.476562 257.488281 130.179688 261.929688 Z M 127.519531 266.035156 " fill-opacity="1" fill-rule="evenodd"/></g><g clip-path="url(#259e1c2b04)"><path fill="#004aad" d="M 247.386719 266.035156 C 249.601562 270.480469 246.886719 276.414062 243.796875 280.867188 L 194.804688 281.402344 L 194.804688 187.113281 C 199.925781 180.207031 209.335938 172.558594 225.136719 174.929688 C 228.773438 175.445312 232.132812 172.941406 232.675781 169.308594 C 233.195312 165.699219 230.691406 162.3125 227.082031 161.796875 C 212.933594 159.675781 202.4375 163.261719 194.8125 168.679688 L 194.8125 134.921875 C 200.429688 127.878906 209.574219 120.503906 223.378906 120.207031 C 227.035156 120.140625 229.949219 117.117188 229.882812 113.460938 C 229.796875 109.804688 226.792969 106.917969 223.136719 106.984375 C 211.222656 107.234375 201.925781 111.292969 194.816406 116.625 L 194.816406 19.203125 C 209.054688 20.039062 216.730469 23.019531 223.886719 32.855469 C 225.082031 36.78125 225.535156 43.503906 221.265625 53.597656 C 216.75 51.878906 211.316406 50.929688 204.792969 51.160156 C 201.136719 51.273438 198.269531 54.316406 198.386719 57.972656 C 198.5 61.628906 201.542969 64.496094 205.199219 64.378906 C 228.875 63.566406 230.292969 86.472656 230.292969 86.542969 C 230.5625 90.195312 233.765625 92.949219 237.421875 92.679688 C 241.058594 92.410156 243.8125 89.226562 243.542969 85.570312 C 243.542969 85.503906 242.640625 71.019531 232.507812 60.859375 C 236.660156 51.785156 237.898438 44.160156 237.746094 38.046875 C 258.121094 34.839844 277.507812 51.113281 277.394531 71.851562 L 277.394531 72.957031 C 273.105469 75.554688 266.335938 81.667969 262.457031 95.59375 C 261.460938 99.117188 263.542969 102.769531 267.0625 103.742188 C 270.601562 104.710938 274.238281 102.65625 275.234375 99.136719 C 279.089844 85.253906 284.394531 84.085938 284.417969 84.058594 L 284.664062 83.988281 L 286.765625 84.644531 C 310.105469 91.914062 315.046875 128.265625 301.320312 146.414062 L 299.765625 148.464844 C 283.46875 147.160156 268.757812 137.472656 262.074219 132.398438 C 265.777344 120.820312 260.585938 110.144531 260.558594 110.101562 C 258.976562 106.785156 255.03125 105.363281 251.734375 106.945312 C 248.414062 108.5 246.996094 112.453125 248.550781 115.769531 C 248.570312 115.816406 255.660156 130.351562 238.984375 139.285156 C 235.757812 141 234.542969 145.019531 236.25 148.242188 C 237.96875 151.449219 241.988281 152.667969 245.210938 150.949219 C 249.363281 148.734375 252.589844 146.277344 255.140625 143.707031 C 263.714844 150 281.183594 160.8125 300.773438 161.761719 L 300.863281 161.875 C 311.425781 177.675781 302.914062 197.238281 284.949219 202.183594 L 283.164062 202.683594 C 278.261719 199.59375 271.835938 196.34375 264.410156 194.558594 C 264.113281 185.328125 259.46875 177.585938 259.441406 177.539062 C 257.542969 174.402344 253.484375 173.386719 250.347656 175.257812 C 247.210938 177.128906 246.195312 181.195312 248.066406 184.332031 C 248.085938 184.378906 257.046875 199.25 243.144531 206.136719 C 239.871094 207.757812 238.519531 211.730469 240.140625 215.03125 C 241.742188 218.300781 245.734375 219.652344 249.015625 218.03125 C 255.058594 215.03125 258.898438 211.355469 261.246094 207.421875 C 265.898438 208.484375 270.089844 210.332031 273.542969 212.296875 L 275.800781 219.183594 C 280.222656 232.792969 268.710938 243.53125 256.164062 246.042969 L 246.503906 247.960938 C 238.242188 243.402344 225.398438 234.105469 221.359375 218.847656 C 220.410156 215.304688 216.804688 213.183594 213.253906 214.128906 C 209.714844 215.050781 207.59375 218.683594 208.535156 222.207031 C 214.609375 245.226562 235.4375 257.480469 244.710938 261.921875 Z M 247.386719 266.035156 " fill-opacity="1" fill-rule="evenodd"/></g></svg>