<svg width="300" height="271" viewBox="0 0 300 271" fill="none" xmlns="http://www.w3.org/2000/svg">
<g filter="url(#filter0_i_357_175)">
<mask id="mask0_357_175" style="mask-type:luminance" maskUnits="userSpaceOnUse" x="0" y="0" width="219" height="271">
<path d="M0 0.300049H218.559V270.497H0V0.300049Z" fill="white"/>
</mask>
<g mask="url(#mask0_357_175)">
<path fill-rule="evenodd" clip-rule="evenodd" d="M117.89 0.271904C173.293 0.271904 218.194 41.7584 218.194 92.9395C218.194 110.762 212.74 127.746 202.783 142.332C178.149 188.587 176.651 231.659 201.863 271.066H72.6629L71.1461 233.839L35.5702 230.04C25.3565 228.951 17.654 220.533 17.4663 210.278L17.1911 195.861L27.8302 186.852L14.9082 180.291L16.8002 162.828L4.96973 156.795C2.92449 155.742 1.54223 154.106 0.879245 151.908C0.213134 149.709 0.450808 147.579 1.57663 145.587L19.9369 113.01C18.3858 106.553 17.5664 99.8414 17.5664 92.9395C17.5695 41.7584 62.4867 0.271904 117.89 0.271904Z" fill="#FFDC9F"/>
</g>
</g>
<path d="M256.274 14.5166C256.274 12.193 254.388 10.3073 252.065 10.3073H206.976C205.859 10.3073 204.786 10.7513 203.998 11.5394L166.24 49.2763C164.595 50.9213 164.595 53.5857 166.24 55.2306C167.062 56.05 168.138 56.4628 169.217 56.4628C170.293 56.4628 171.371 56.05 172.194 55.2306L208.721 18.7228H252.065C254.391 18.7259 256.274 16.8401 256.274 14.5166ZM172.194 155.898L208.721 192.403H252.065C254.391 192.403 256.277 194.288 256.277 196.612C256.277 198.935 254.391 200.821 252.065 200.821H206.976C205.859 200.821 204.786 200.377 203.998 199.589L166.24 161.852C164.595 160.207 164.595 157.543 166.24 155.898C167.885 154.256 170.549 154.256 172.194 155.898ZM170.586 77.7815L186.27 62.1075C187.061 61.3163 188.131 60.8754 189.247 60.8754H246.526C248.85 60.8754 250.736 62.758 250.736 65.0816C250.736 67.4083 248.85 69.2909 246.526 69.2909H190.992L176.541 83.7327C175.718 84.5552 174.643 84.9648 173.564 84.9648C172.488 84.9648 171.409 84.5552 170.586 83.7327C168.942 82.0909 168.942 79.4264 170.586 77.7815ZM176.541 127.411L190.992 141.853H246.526C248.85 141.853 250.736 143.739 250.736 146.063C250.736 148.386 248.85 150.272 246.526 150.272H189.247C188.131 150.272 187.061 149.828 186.27 149.04L170.586 133.366C168.942 131.721 168.942 129.056 170.586 127.411C172.231 125.77 174.896 125.77 176.541 127.411ZM186.639 105.564C186.639 103.241 188.525 101.355 190.848 101.355H272.214C274.54 101.355 276.426 103.241 276.426 105.564C276.426 107.888 274.54 109.774 272.214 109.774H190.848C188.525 109.774 186.639 107.888 186.639 105.564Z" fill="#38B6FF"/>
<path fill-rule="evenodd" clip-rule="evenodd" d="M100.911 30.1562V42.6779C93.0333 44.3322 85.6873 47.4313 79.1575 51.6907L70.2917 42.8311C62.9801 47.9599 56.6036 54.3489 51.4561 61.6573L60.3219 70.5169C56.0751 77.0436 52.9728 84.3864 51.3029 92.2578H38.775C38.0244 96.5859 37.6147 101.033 37.6147 105.564C37.6147 110.115 38.0244 114.558 38.775 118.887H51.3029C52.9728 126.758 56.0751 134.101 60.3219 140.612L51.4561 149.471C56.6036 156.795 62.9801 163.169 70.2917 168.298L79.1575 159.454C85.6873 163.697 93.0333 166.797 100.911 168.451V180.988C105.239 181.739 109.689 182.13 114.224 182.13C118.774 182.13 123.224 181.739 127.555 180.988V168.451C135.43 166.797 142.776 163.697 149.306 159.454L158.153 168.298C165.483 163.169 171.86 156.795 177.007 149.471L168.141 140.612C172.388 134.101 175.49 126.758 177.16 118.887H189.691C190.439 114.558 190.848 110.115 190.848 105.564C190.848 101.033 190.439 96.5859 189.691 92.2578H177.16C175.49 84.3864 172.388 77.0436 168.141 70.5169L177.007 61.6573C171.86 54.3489 165.483 47.9599 158.153 42.8311L149.306 51.6907C142.776 47.4313 135.43 44.3322 127.555 42.6779V30.1562C123.224 29.3901 118.774 28.9991 114.224 28.9991C109.689 28.9991 105.239 29.3901 100.911 30.1562Z" fill="#004AAD"/>
<path fill-rule="evenodd" clip-rule="evenodd" d="M114.223 59.7339C88.9081 59.7339 68.3682 80.2457 68.3682 105.564C68.3682 130.883 88.9081 151.413 114.223 151.413C139.554 151.413 160.098 130.883 160.098 105.564C160.098 80.2457 139.554 59.7339 114.223 59.7339Z" fill="#F1F1F9"/>
<path fill-rule="evenodd" clip-rule="evenodd" d="M123.106 129.382L124.691 150.203C121.333 150.985 117.836 151.413 114.224 151.413C110.628 151.413 107.116 150.985 103.739 150.203L105.309 129.416C93.6469 125.669 85.2095 114.73 85.2095 101.815C85.2095 89.9903 92.2677 79.836 102.41 75.3046V104.679L108.326 109.567L114.224 114.474L120.141 109.567L126.055 104.679V75.3046C136.197 79.836 143.255 89.4461 143.255 101.815C143.255 114.186 134.783 125.635 123.106 129.382Z" fill="#05E39C"/>
<path fill-rule="evenodd" clip-rule="evenodd" d="M114.224 151.413C110.628 151.413 107.116 150.988 103.739 150.203L105.309 129.416C93.6469 125.669 85.2095 114.73 85.2095 101.815C85.2095 89.9903 92.2677 79.836 102.41 75.3046V104.679L108.326 109.567L114.224 114.474V151.413Z" fill="#0ED290"/>
<mask id="mask1_357_175" style="mask-type:luminance" maskUnits="userSpaceOnUse" x="251" y="0" width="30" height="29">
<path d="M251.383 0.300049H280.204V28.7208H251.383V0.300049Z" fill="white"/>
</mask>
<g mask="url(#mask1_357_175)">
<path fill-rule="evenodd" clip-rule="evenodd" d="M265.959 0.63154C258.288 0.63154 252.065 6.84858 252.065 14.5167C252.065 22.1816 258.288 28.4018 265.959 28.4018C273.631 28.4018 279.851 22.1816 279.851 14.5167C279.851 6.84858 273.631 0.63154 265.959 0.63154Z" fill="#004AAD"/>
</g>
<path fill-rule="evenodd" clip-rule="evenodd" d="M265.959 182.727C258.288 182.727 252.065 188.947 252.065 196.612C252.065 204.28 258.288 210.497 265.959 210.497C273.631 210.497 279.851 204.28 279.851 196.612C279.851 188.947 273.631 182.727 265.959 182.727Z" fill="#004AAD"/>
<path fill-rule="evenodd" clip-rule="evenodd" d="M260.418 51.1964C252.747 51.1964 246.523 57.4166 246.523 65.0815C246.523 72.7496 252.747 78.9698 260.418 78.9698C268.089 78.9698 274.312 72.7496 274.312 65.0815C274.312 57.4166 268.089 51.1964 260.418 51.1964Z" fill="#05E39C"/>
<path fill-rule="evenodd" clip-rule="evenodd" d="M260.418 159.948C252.747 159.948 246.523 153.727 246.523 146.062C246.523 138.394 252.747 132.177 260.418 132.177C268.089 132.177 274.312 138.394 274.312 146.062C274.312 153.727 268.089 159.948 260.418 159.948Z" fill="#05E39C"/>
<path fill-rule="evenodd" clip-rule="evenodd" d="M286.108 91.6792C278.437 91.6792 272.214 97.8962 272.214 105.564C272.214 113.232 278.437 119.449 286.108 119.449C293.78 119.449 300 113.232 300 105.564C300 97.8962 293.78 91.6792 286.108 91.6792Z" fill="#004AAD"/>
<defs>
<filter id="filter0_i_357_175" x="0.510254" y="0.300049" width="217.684" height="274.197" filterUnits="userSpaceOnUse" color-interpolation-filters="sRGB">
<feFlood flood-opacity="0" result="BackgroundImageFix"/>
<feBlend mode="normal" in="SourceGraphic" in2="BackgroundImageFix" result="shape"/>
<feColorMatrix in="SourceAlpha" type="matrix" values="0 0 0 0 0 0 0 0 0 0 0 0 0 0 0 0 0 0 127 0" result="hardAlpha"/>
<feOffset dy="4"/>
<feGaussianBlur stdDeviation="2"/>
<feComposite in2="hardAlpha" operator="arithmetic" k2="-1" k3="1"/>
<feColorMatrix type="matrix" values="0 0 0 0 0 0 0 0 0 0 0 0 0 0 0 0 0 0 0.25 0"/>
<feBlend mode="normal" in2="shape" result="effect1_innerShadow_357_175"/>
</filter>
</defs>
</svg>
