<svg xmlns="http://www.w3.org/2000/svg" xmlns:xlink="http://www.w3.org/1999/xlink" width="500" zoomAndPan="magnify" viewBox="0 0 375 374.999991" height="500" preserveAspectRatio="xMidYMid meet" version="1.0"><defs><clipPath id="286e61085b"><path d="M 152 340 L 218 340 L 218 374.855469 L 152 374.855469 Z M 152 340 " clip-rule="nonzero"/></clipPath><clipPath id="601ee61005"><path d="M 54 5.148438 L 180 5.148438 L 180 294 L 54 294 Z M 54 5.148438 " clip-rule="nonzero"/></clipPath><clipPath id="a4bbba6b48"><path d="M 195 5.148438 L 321 5.148438 L 321 294 L 195 294 Z M 195 5.148438 " clip-rule="nonzero"/></clipPath><clipPath id="76392510de"><path d="M 152 340 L 218 340 L 218 374.855469 L 152 374.855469 Z M 152 340 " clip-rule="nonzero"/></clipPath><clipPath id="2b42f5960c"><path d="M 54 5.148438 L 180 5.148438 L 180 294 L 54 294 Z M 54 5.148438 " clip-rule="nonzero"/></clipPath><clipPath id="1b629af8b4"><path d="M 195 5.148438 L 321 5.148438 L 321 294 L 195 294 Z M 195 5.148438 " clip-rule="nonzero"/></clipPath></defs><rect x="-37.5" width="450" fill="#ffffff" y="-37.499999" height="449.999989" fill-opacity="1"/><rect x="-37.5" width="450" fill="#ffffff" y="-37.499999" height="449.999989" fill-opacity="1"/><path fill="#38b6ff" d="M 132.257812 308.214844 L 237.769531 308.214844 L 237.769531 324.40625 C 237.769531 333.308594 230.476562 340.597656 221.582031 340.597656 L 148.449219 340.597656 C 139.542969 340.597656 132.257812 333.304688 132.257812 324.40625 Z M 132.257812 308.214844 " fill-opacity="1" fill-rule="evenodd"/><g clip-path="url(#286e61085b)"><path fill="#004aad" d="M 152.242188 340.597656 L 217.785156 340.597656 L 217.785156 357.777344 C 217.785156 367.253906 210.046875 374.992188 200.601562 374.992188 L 169.433594 374.992188 C 159.957031 374.992188 152.25 367.253906 152.25 357.777344 L 152.25 340.597656 Z M 152.242188 340.597656 " fill-opacity="1" fill-rule="evenodd"/></g><g clip-path="url(#601ee61005)"><path fill="#38b6ff" d="M 121.59375 276.371094 C 119.160156 281.253906 122.140625 287.777344 125.535156 292.664062 L 179.367188 293.257812 L 179.367188 189.652344 C 173.738281 182.0625 163.398438 173.660156 146.015625 176.265625 C 142.050781 176.835938 138.332031 174.082031 137.761719 170.089844 C 137.167969 166.125 139.945312 162.402344 143.90625 161.835938 C 159.433594 159.503906 170.988281 163.445312 179.367188 169.402344 L 179.367188 132.308594 C 173.191406 124.570312 163.148438 116.464844 147.976562 116.136719 C 143.960938 116.0625 140.757812 112.742188 140.832031 108.726562 C 140.90625 104.710938 144.226562 101.535156 148.242188 101.609375 C 161.335938 101.882812 171.550781 106.34375 179.359375 112.203125 L 179.359375 5.160156 C 163.6875 6.078125 155.285156 9.351562 147.421875 20.160156 C 146.105469 24.472656 145.585938 31.859375 150.296875 42.949219 C 155.261719 41.0625 161.230469 40.019531 168.398438 40.269531 C 172.414062 40.398438 175.566406 43.738281 175.441406 47.757812 C 175.3125 51.773438 171.941406 54.921875 167.953125 54.796875 C 141.917969 53.902344 140.378906 79.074219 140.359375 79.148438 C 140.0625 83.164062 136.5625 86.1875 132.546875 85.894531 C 128.53125 85.597656 125.527344 82.097656 125.824219 78.082031 C 125.824219 78.007812 126.816406 62.089844 137.925781 50.929688 C 133.382812 40.957031 132 32.578125 132.199219 25.863281 C 109.78125 22.339844 88.507812 40.21875 88.632812 63.007812 L 88.632812 64.222656 C 93.34375 67.078125 100.785156 73.792969 105.046875 89.097656 C 106.113281 92.964844 103.855469 96.980469 99.964844 98.046875 C 96.097656 99.109375 92.078125 96.855469 91.015625 92.988281 C 86.777344 77.734375 80.949219 76.449219 80.925781 76.417969 L 80.652344 76.351562 L 78.34375 77.070312 C 52.699219 85.058594 47.269531 125 62.351562 144.941406 L 64.0625 147.195312 C 81.96875 145.761719 98.128906 135.117188 105.445312 129.539062 C 101.40625 116.820312 107.109375 105.085938 107.132812 105.042969 C 108.839844 101.398438 113.203125 99.835938 116.828125 101.574219 C 120.476562 103.28125 122.035156 107.625 120.328125 111.269531 C 120.304688 111.324219 112.496094 127.292969 130.839844 137.109375 C 134.382812 138.992188 135.71875 143.410156 133.839844 146.953125 C 131.933594 150.472656 127.539062 151.8125 123.996094 149.925781 C 119.433594 147.492188 115.859375 144.792969 113.085938 141.96875 C 103.664062 148.882812 84.46875 160.761719 62.921875 161.804688 L 62.847656 161.929688 C 51.242188 179.289062 60.59375 200.785156 80.335938 206.222656 L 82.292969 206.769531 C 87.648438 203.375 94.742188 199.800781 102.902344 197.839844 C 103.195312 187.699219 108.332031 179.195312 108.359375 179.140625 C 110.417969 175.695312 114.90625 174.578125 118.351562 176.636719 C 121.800781 178.691406 122.917969 183.160156 120.859375 186.605469 C 120.839844 186.65625 110.992188 202.996094 126.265625 210.5625 C 129.863281 212.347656 131.347656 216.710938 129.566406 220.335938 C 127.785156 223.929688 123.417969 225.414062 119.816406 223.632812 C 113.175781 220.335938 108.960938 216.296875 106.378906 211.976562 C 101.265625 213.144531 96.660156 215.171875 92.863281 217.332031 L 90.386719 224.898438 C 85.527344 239.855469 98.175781 251.652344 111.933594 254.410156 L 122.546875 256.519531 C 131.644531 251.511719 145.757812 241.296875 150.195312 224.527344 C 151.207031 220.636719 155.203125 218.308594 159.101562 219.34375 C 162.992188 220.355469 165.320312 224.351562 164.285156 228.21875 C 157.59375 253.515625 134.730469 266.976562 124.515625 271.859375 Z M 121.59375 276.371094 " fill-opacity="1" fill-rule="evenodd"/></g><g clip-path="url(#a4bbba6b48)"><path fill="#004aad" d="M 253.296875 276.371094 C 255.730469 281.253906 252.75 287.777344 249.355469 292.664062 L 195.523438 293.257812 L 195.523438 189.652344 C 201.152344 182.0625 211.492188 173.660156 228.851562 176.265625 C 232.84375 176.835938 236.535156 174.082031 237.136719 170.089844 C 237.703125 166.125 234.953125 162.402344 230.988281 161.835938 C 215.441406 159.503906 203.910156 163.445312 195.527344 169.402344 L 195.527344 132.308594 C 201.707031 124.570312 211.75 116.464844 226.921875 116.136719 C 230.9375 116.0625 234.140625 112.742188 234.066406 108.726562 C 233.96875 104.710938 230.671875 101.535156 226.652344 101.609375 C 213.5625 101.882812 203.347656 106.34375 195.535156 112.203125 L 195.535156 5.160156 C 211.179688 6.078125 219.613281 9.351562 227.476562 20.160156 C 228.792969 24.472656 229.289062 31.859375 224.597656 42.949219 C 219.636719 41.0625 213.664062 40.019531 206.5 40.269531 C 202.480469 40.398438 199.332031 43.738281 199.457031 47.757812 C 199.582031 51.773438 202.925781 54.921875 206.941406 54.796875 C 232.957031 53.902344 234.515625 79.074219 234.515625 79.148438 C 234.8125 83.164062 238.332031 86.1875 242.351562 85.894531 C 246.34375 85.597656 249.371094 82.097656 249.074219 78.082031 C 249.074219 78.007812 248.082031 62.089844 236.949219 50.929688 C 241.515625 40.957031 242.875 32.578125 242.703125 25.863281 C 265.09375 22.339844 286.398438 40.21875 286.269531 63.007812 L 286.269531 64.222656 C 281.558594 67.078125 274.117188 73.792969 269.859375 89.097656 C 268.761719 92.964844 271.046875 96.980469 274.917969 98.046875 C 278.808594 99.109375 282.800781 96.855469 283.898438 92.988281 C 288.136719 77.734375 293.964844 76.449219 293.984375 76.417969 L 294.257812 76.34375 L 296.566406 77.0625 C 322.210938 85.050781 327.640625 124.992188 312.558594 144.933594 L 310.851562 147.1875 C 292.941406 145.753906 276.78125 135.109375 269.4375 129.535156 C 273.503906 116.8125 267.800781 105.082031 267.773438 105.035156 C 266.035156 101.390625 261.699219 99.828125 258.074219 101.566406 C 254.429688 103.273438 252.867188 107.617188 254.578125 111.261719 C 254.597656 111.316406 262.386719 127.285156 244.066406 137.101562 C 240.523438 138.984375 239.183594 143.402344 241.0625 146.945312 C 242.949219 150.464844 247.363281 151.804688 250.90625 149.917969 C 255.472656 147.484375 259.015625 144.785156 261.816406 141.960938 C 271.242188 148.875 290.433594 160.753906 311.960938 161.796875 L 312.054688 161.921875 C 323.660156 179.28125 314.3125 200.777344 294.570312 206.214844 L 292.609375 206.761719 C 287.226562 203.367188 280.160156 199.792969 272.003906 197.832031 C 271.675781 187.691406 266.574219 179.1875 266.542969 179.136719 C 264.457031 175.6875 260 174.570312 256.550781 176.628906 C 253.105469 178.683594 251.988281 183.152344 254.042969 186.597656 C 254.066406 186.648438 263.910156 202.988281 248.636719 210.554688 C 245.042969 212.339844 243.554688 216.703125 245.339844 220.328125 C 247.097656 223.921875 251.484375 225.410156 255.085938 223.625 C 261.730469 220.328125 265.945312 216.289062 268.527344 211.96875 C 273.636719 213.136719 278.246094 215.164062 282.039062 217.324219 L 284.519531 224.890625 C 289.378906 239.847656 276.730469 251.644531 262.941406 254.402344 L 252.328125 256.511719 C 243.253906 251.503906 229.140625 241.289062 224.703125 224.519531 C 223.660156 220.628906 219.695312 218.300781 215.796875 219.335938 C 211.90625 220.347656 209.574219 224.34375 210.609375 228.210938 C 217.28125 253.507812 240.167969 266.96875 250.359375 271.851562 Z M 253.296875 276.371094 " fill-opacity="1" fill-rule="evenodd"/></g><path fill="#38b6ff" d="M 132.257812 308.214844 L 237.769531 308.214844 L 237.769531 324.40625 C 237.769531 333.308594 230.476562 340.597656 221.582031 340.597656 L 148.449219 340.597656 C 139.542969 340.597656 132.257812 333.304688 132.257812 324.40625 Z M 132.257812 308.214844 " fill-opacity="1" fill-rule="evenodd"/><g clip-path="url(#76392510de)"><path fill="#004aad" d="M 152.242188 340.597656 L 217.785156 340.597656 L 217.785156 357.777344 C 217.785156 367.253906 210.046875 374.992188 200.601562 374.992188 L 169.433594 374.992188 C 159.957031 374.992188 152.25 367.253906 152.25 357.777344 L 152.25 340.597656 Z M 152.242188 340.597656 " fill-opacity="1" fill-rule="evenodd"/></g><g clip-path="url(#2b42f5960c)"><path fill="#38b6ff" d="M 121.59375 276.371094 C 119.160156 281.253906 122.140625 287.777344 125.535156 292.664062 L 179.367188 293.257812 L 179.367188 189.652344 C 173.738281 182.0625 163.398438 173.660156 146.015625 176.265625 C 142.050781 176.835938 138.332031 174.082031 137.761719 170.089844 C 137.167969 166.125 139.945312 162.402344 143.90625 161.835938 C 159.433594 159.503906 170.988281 163.445312 179.367188 169.402344 L 179.367188 132.308594 C 173.191406 124.570312 163.148438 116.464844 147.976562 116.136719 C 143.960938 116.0625 140.757812 112.742188 140.832031 108.726562 C 140.90625 104.710938 144.226562 101.535156 148.242188 101.609375 C 161.335938 101.882812 171.550781 106.34375 179.359375 112.203125 L 179.359375 5.160156 C 163.6875 6.078125 155.285156 9.351562 147.421875 20.160156 C 146.105469 24.472656 145.585938 31.859375 150.296875 42.949219 C 155.261719 41.0625 161.230469 40.019531 168.398438 40.269531 C 172.414062 40.398438 175.566406 43.738281 175.441406 47.757812 C 175.3125 51.773438 171.941406 54.921875 167.953125 54.796875 C 141.917969 53.902344 140.378906 79.074219 140.359375 79.148438 C 140.0625 83.164062 136.5625 86.1875 132.546875 85.894531 C 128.53125 85.597656 125.527344 82.097656 125.824219 78.082031 C 125.824219 78.007812 126.816406 62.089844 137.925781 50.929688 C 133.382812 40.957031 132 32.578125 132.199219 25.863281 C 109.78125 22.339844 88.507812 40.21875 88.632812 63.007812 L 88.632812 64.222656 C 93.34375 67.078125 100.785156 73.792969 105.046875 89.097656 C 106.113281 92.964844 103.855469 96.980469 99.964844 98.046875 C 96.097656 99.109375 92.078125 96.855469 91.015625 92.988281 C 86.777344 77.734375 80.949219 76.449219 80.925781 76.417969 L 80.652344 76.351562 L 78.34375 77.070312 C 52.699219 85.058594 47.269531 125 62.351562 144.941406 L 64.0625 147.195312 C 81.96875 145.761719 98.128906 135.117188 105.445312 129.539062 C 101.40625 116.820312 107.109375 105.085938 107.132812 105.042969 C 108.839844 101.398438 113.203125 99.835938 116.828125 101.574219 C 120.476562 103.28125 122.035156 107.625 120.328125 111.269531 C 120.304688 111.324219 112.496094 127.292969 130.839844 137.109375 C 134.382812 138.992188 135.71875 143.410156 133.839844 146.953125 C 131.933594 150.472656 127.539062 151.8125 123.996094 149.925781 C 119.433594 147.492188 115.859375 144.792969 113.085938 141.96875 C 103.664062 148.882812 84.46875 160.761719 62.921875 161.804688 L 62.847656 161.929688 C 51.242188 179.289062 60.59375 200.785156 80.335938 206.222656 L 82.292969 206.769531 C 87.648438 203.375 94.742188 199.800781 102.902344 197.839844 C 103.195312 187.699219 108.332031 179.195312 108.359375 179.140625 C 110.417969 175.695312 114.90625 174.578125 118.351562 176.636719 C 121.800781 178.691406 122.917969 183.160156 120.859375 186.605469 C 120.839844 186.65625 110.992188 202.996094 126.265625 210.5625 C 129.863281 212.347656 131.347656 216.710938 129.566406 220.335938 C 127.785156 223.929688 123.417969 225.414062 119.816406 223.632812 C 113.175781 220.335938 108.960938 216.296875 106.378906 211.976562 C 101.265625 213.144531 96.660156 215.171875 92.863281 217.332031 L 90.386719 224.898438 C 85.527344 239.855469 98.175781 251.652344 111.933594 254.410156 L 122.546875 256.519531 C 131.644531 251.511719 145.757812 241.296875 150.195312 224.527344 C 151.207031 220.636719 155.203125 218.308594 159.101562 219.34375 C 162.992188 220.355469 165.320312 224.351562 164.285156 228.21875 C 157.59375 253.515625 134.730469 266.976562 124.515625 271.859375 Z M 121.59375 276.371094 " fill-opacity="1" fill-rule="evenodd"/></g><g clip-path="url(#1b629af8b4)"><path fill="#004aad" d="M 253.296875 276.371094 C 255.730469 281.253906 252.75 287.777344 249.355469 292.664062 L 195.523438 293.257812 L 195.523438 189.652344 C 201.152344 182.0625 211.492188 173.660156 228.851562 176.265625 C 232.84375 176.835938 236.535156 174.082031 237.136719 170.089844 C 237.703125 166.125 234.953125 162.402344 230.988281 161.835938 C 215.441406 159.503906 203.910156 163.445312 195.527344 169.402344 L 195.527344 132.308594 C 201.707031 124.570312 211.75 116.464844 226.921875 116.136719 C 230.9375 116.0625 234.140625 112.742188 234.066406 108.726562 C 233.96875 104.710938 230.671875 101.535156 226.652344 101.609375 C 213.5625 101.882812 203.347656 106.34375 195.535156 112.203125 L 195.535156 5.160156 C 211.179688 6.078125 219.613281 9.351562 227.476562 20.160156 C 228.792969 24.472656 229.289062 31.859375 224.597656 42.949219 C 219.636719 41.0625 213.664062 40.019531 206.5 40.269531 C 202.480469 40.398438 199.332031 43.738281 199.457031 47.757812 C 199.582031 51.773438 202.925781 54.921875 206.941406 54.796875 C 232.957031 53.902344 234.515625 79.074219 234.515625 79.148438 C 234.8125 83.164062 238.332031 86.1875 242.351562 85.894531 C 246.34375 85.597656 249.371094 82.097656 249.074219 78.082031 C 249.074219 78.007812 248.082031 62.089844 236.949219 50.929688 C 241.515625 40.957031 242.875 32.578125 242.703125 25.863281 C 265.09375 22.339844 286.398438 40.21875 286.269531 63.007812 L 286.269531 64.222656 C 281.558594 67.078125 274.117188 73.792969 269.859375 89.097656 C 268.761719 92.964844 271.046875 96.980469 274.917969 98.046875 C 278.808594 99.109375 282.800781 96.855469 283.898438 92.988281 C 288.136719 77.734375 293.964844 76.449219 293.984375 76.417969 L 294.257812 76.34375 L 296.566406 77.0625 C 322.210938 85.050781 327.640625 124.992188 312.558594 144.933594 L 310.851562 147.1875 C 292.941406 145.753906 276.78125 135.109375 269.4375 129.535156 C 273.503906 116.8125 267.800781 105.082031 267.773438 105.035156 C 266.035156 101.390625 261.699219 99.828125 258.074219 101.566406 C 254.429688 103.273438 252.867188 107.617188 254.578125 111.261719 C 254.597656 111.316406 262.386719 127.285156 244.066406 137.101562 C 240.523438 138.984375 239.183594 143.402344 241.0625 146.945312 C 242.949219 150.464844 247.363281 151.804688 250.90625 149.917969 C 255.472656 147.484375 259.015625 144.785156 261.816406 141.960938 C 271.242188 148.875 290.433594 160.753906 311.960938 161.796875 L 312.054688 161.921875 C 323.660156 179.28125 314.3125 200.777344 294.570312 206.214844 L 292.609375 206.761719 C 287.226562 203.367188 280.160156 199.792969 272.003906 197.832031 C 271.675781 187.691406 266.574219 179.1875 266.542969 179.136719 C 264.457031 175.6875 260 174.570312 256.550781 176.628906 C 253.105469 178.683594 251.988281 183.152344 254.042969 186.597656 C 254.066406 186.648438 263.910156 202.988281 248.636719 210.554688 C 245.042969 212.339844 243.554688 216.703125 245.339844 220.328125 C 247.097656 223.921875 251.484375 225.410156 255.085938 223.625 C 261.730469 220.328125 265.945312 216.289062 268.527344 211.96875 C 273.636719 213.136719 278.246094 215.164062 282.039062 217.324219 L 284.519531 224.890625 C 289.378906 239.847656 276.730469 251.644531 262.941406 254.402344 L 252.328125 256.511719 C 243.253906 251.503906 229.140625 241.289062 224.703125 224.519531 C 223.660156 220.628906 219.695312 218.300781 215.796875 219.335938 C 211.90625 220.347656 209.574219 224.34375 210.609375 228.210938 C 217.28125 253.507812 240.167969 266.96875 250.359375 271.851562 Z M 253.296875 276.371094 " fill-opacity="1" fill-rule="evenodd"/></g></svg>