<svg width="300" height="300" viewBox="0 0 300 300" fill="none" xmlns="http://www.w3.org/2000/svg">
<path fill-rule="evenodd" clip-rule="evenodd" d="M43.1376 68.75H256.926C268.539 68.75 278.062 78.2517 278.062 89.9071V236.529C278.062 248.142 268.539 257.665 256.926 257.665H43.1376C31.5033 257.665 21.9805 248.142 21.9805 236.529V89.9071C21.9805 78.2728 31.5033 68.75 43.1376 68.75Z" fill="#D5EAFF"/>
<path fill-rule="evenodd" clip-rule="evenodd" d="M34.3525 257.39C136.232 248.712 262.499 209.924 278.039 85.5786C278.06 85.7475 278.06 85.8953 278.06 86.0431V236.043C278.06 247.931 268.326 257.665 256.439 257.665H37.7309C36.5907 257.665 35.4505 257.58 34.3525 257.39Z" fill="#B0D8FF"/>
<path fill-rule="evenodd" clip-rule="evenodd" d="M278.062 226.605V236.529C278.062 248.142 268.539 257.665 256.904 257.665H43.1376C31.5033 257.665 21.9805 248.142 21.9805 236.529V226.605H278.062Z" fill="#305675"/>
<path fill-rule="evenodd" clip-rule="evenodd" d="M278.063 226.605V236.043C278.063 247.931 268.329 257.665 256.441 257.665H43.1386C41.4072 257.665 39.7391 257.454 38.1133 257.052C79.7518 253.231 125.128 244.32 165.204 226.605H278.063Z" fill="#254259"/>
<mask id="mask0_328_9897" style="mask-type:luminance" maskUnits="userSpaceOnUse" x="0" y="255" width="300" height="45">
<path d="M0 255.764H300V300H0V255.764Z" fill="white"/>
</mask>
<g mask="url(#mask0_328_9897)">
<path fill-rule="evenodd" clip-rule="evenodd" d="M21.1782 257.58H278.801C290.477 257.58 300.021 267.103 300.021 278.78C300.021 290.435 290.477 299.979 278.801 299.979H21.1782C9.5228 299.979 0 290.435 0 278.78C0 267.103 9.5228 257.58 21.1782 257.58Z" fill="#4E7DA3"/>
</g>
<mask id="mask1_328_9897" style="mask-type:luminance" maskUnits="userSpaceOnUse" x="0" y="266" width="300" height="34">
<path d="M0 266.575H300V300H0V266.575Z" fill="white"/>
</mask>
<g mask="url(#mask1_328_9897)">
<path fill-rule="evenodd" clip-rule="evenodd" d="M297.255 268.307C299.008 271.411 300.021 274.979 300.021 278.758C300.021 290.435 290.477 299.958 278.801 299.958H21.1782C9.5228 299.958 0 290.435 0 278.758C0 274.979 1.01351 271.411 2.76605 268.307C6.41892 274.726 13.3235 279.054 21.1782 279.054H278.801C286.677 279.054 293.581 274.726 297.255 268.307Z" fill="#3C688C"/>
</g>
<path fill-rule="evenodd" clip-rule="evenodd" d="M150.019 243.687C159.331 243.687 166.932 236.106 166.932 226.795C166.932 217.462 159.331 209.861 150.019 209.861C140.708 209.861 133.106 217.462 133.106 226.795C133.106 236.106 140.708 243.687 150.019 243.687Z" fill="#63BBFF"/>
<path fill-rule="evenodd" clip-rule="evenodd" d="M158.214 211.993C163.408 214.886 166.935 220.418 166.935 226.795C166.935 236.128 159.354 243.687 150.022 243.687C143.328 243.687 137.564 239.823 134.798 234.206C137.226 235.536 140.034 236.318 143.012 236.318C152.344 236.318 159.903 228.737 159.903 219.405C159.903 216.723 159.312 214.21 158.214 211.993Z" fill="#3F9FE8"/>
<path fill-rule="evenodd" clip-rule="evenodd" d="M114.317 257.58H185.686V275.591H114.317V257.58Z" fill="#D5EAFF"/>
<mask id="mask2_328_9897" style="mask-type:luminance" maskUnits="userSpaceOnUse" x="104" y="0" width="153" height="154">
<path d="M104.899 0H256.251V153.062H104.899V0Z" fill="white"/>
</mask>
<g mask="url(#mask2_328_9897)">
<path fill-rule="evenodd" clip-rule="evenodd" d="M216.068 7.60123L216.87 6.8411C227.343 2.57589 239.801 4.8563 248.099 13.5134C253.842 19.51 256.439 27.3859 255.953 35.0717C255.848 36.5497 254.94 37.7955 253.504 38.3022C252.111 38.8301 250.611 38.4923 249.556 37.3943L238.787 26.1401C238.259 25.5911 237.52 25.3588 236.76 25.5489L224.556 28.5261C223.817 28.7161 223.247 29.2651 223.035 30.0252L219.53 42.0607C219.319 42.8208 219.488 43.5598 220.037 44.1299L230.827 55.3842C231.861 56.461 232.157 57.9602 231.566 59.3749C230.996 60.7473 229.729 61.6342 228.23 61.6342C220.544 61.8242 212.795 58.8892 207.03 52.8926C199.302 44.8056 197.275 33.3825 200.801 23.5218C195.333 21.6215 189.442 20.608 183.318 20.608C153.694 20.608 129.665 44.6156 129.665 74.2397C129.665 103.864 153.694 127.914 183.318 127.914C209.29 127.914 230.932 109.417 235.894 84.9027C239.843 73.5429 257.875 76.499 255.721 90.646C248.268 123.775 218.665 148.522 183.318 148.522C142.313 148.522 109.1 115.266 109.1 74.2609C109.1 33.2558 142.313 0.0209961 183.318 0.0209961C195.058 0.0209961 206.165 2.74481 216.068 7.60123Z" fill="#FFC400"/>
</g>
<path fill-rule="evenodd" clip-rule="evenodd" d="M241.341 8.29816C243.79 9.64951 246.049 11.3809 248.097 13.4924C253.841 19.5101 256.438 27.386 255.952 35.0718C255.847 36.5498 254.939 37.7956 253.503 38.3024C252.109 38.8303 250.61 38.4713 249.554 37.3733L245.289 32.9181C245.648 32.897 246.028 32.8336 246.387 32.6858C247.802 32.1791 248.731 30.9333 248.815 29.4341C249.28 21.9172 246.831 14.2314 241.341 8.29816ZM236.505 25.6123L224.554 28.5473C223.794 28.7373 223.245 29.2652 223.034 30.0253L219.529 42.0819C219.318 42.821 219.487 43.5811 220.036 44.1301L230.804 55.3843C231.86 56.4612 232.135 57.9603 231.564 59.375C230.994 60.7686 229.728 61.6343 228.207 61.6554C220.521 61.8454 212.772 58.8894 207.029 52.8927C206.902 52.7661 206.776 52.6394 206.649 52.5127C211.125 54.9831 216.108 56.1444 221.092 56.0389C222.591 56.0177 223.858 55.152 224.428 53.7373C224.998 52.3649 224.702 50.8657 223.668 49.7677L212.899 38.5135C212.35 37.9645 212.16 37.2044 212.392 36.4654L215.897 24.4088C216.108 23.6698 216.657 23.1208 217.418 22.9308L229.601 19.9536C230.361 19.7635 231.121 19.9958 231.628 20.5448L236.505 25.6123ZM192.65 21.4316C189.609 20.8826 186.484 20.6081 183.296 20.6081C153.693 20.6081 129.664 44.6368 129.664 74.261C129.664 89.7593 136.231 103.695 146.746 113.514C132.156 103.906 122.527 87.4155 122.527 68.6444C122.527 39.0203 146.535 15.0127 176.138 15.0127C182.282 15.0127 188.173 16.0262 193.663 17.9054C193.241 19.0667 192.924 20.2492 192.65 21.4316ZM247.823 78.1672C252.658 79.1596 256.797 83.446 255.699 90.6672C248.245 123.775 218.663 148.522 183.296 148.522C164.377 148.522 147.126 141.427 133.993 129.772C145.986 138.049 160.513 142.905 176.138 142.905C211.526 142.905 241.087 118.159 248.562 85.0507C248.984 82.3269 248.646 80.0465 247.823 78.1672Z" fill="#FF9609"/>
<path fill-rule="evenodd" clip-rule="evenodd" d="M100.909 83.9949H112.902C114.992 83.9949 116.618 85.5152 116.956 87.5422L118.075 94.7846C118.349 96.4738 119.426 97.8252 121.116 98.2897C124.05 99.1132 126.817 100.211 129.561 101.584C131.018 102.28 132.665 102.111 133.974 101.119L140.203 96.2627C141.829 94.9747 144.088 95.1436 145.567 96.6005L154.836 105.891C156.293 107.348 156.441 109.607 155.174 111.254L151.141 116.427C150.064 117.821 149.937 119.658 150.845 121.178C152.471 123.86 153.844 126.689 154.942 129.645C155.491 131.123 156.757 132.116 158.341 132.327L168.54 133.615C170.609 133.847 172.108 135.557 172.108 137.627L172.087 154.561C172.087 156.651 170.609 158.34 168.54 158.594L159.397 159.713C157.75 159.924 156.42 161.064 155.913 162.669C155.216 164.992 154.35 167.251 153.316 169.426C152.619 170.904 152.809 172.487 153.822 173.775L159.333 180.87C160.579 182.496 160.431 184.776 158.974 186.233L147.023 198.205C145.567 199.662 143.265 199.81 141.639 198.543L135.178 193.497C133.848 192.462 132.159 192.314 130.659 193.074C128.273 194.341 125.782 195.397 123.227 196.242C121.665 196.769 120.588 198.057 120.398 199.683L119.405 207.77C119.152 209.797 117.442 211.318 115.372 211.318H98.4382C96.39 211.318 94.6586 209.818 94.4052 207.77L93.4128 199.683C93.2017 198.057 92.167 196.748 90.5834 196.242C88.0496 195.397 85.537 194.341 83.151 193.074C81.673 192.314 79.9627 192.462 78.6324 193.497L72.1713 198.543C70.5454 199.81 68.265 199.662 66.787 198.205L54.836 186.233C53.379 184.776 53.2312 182.496 54.477 180.87L59.988 173.775C61.0015 172.487 61.1915 170.904 60.4947 169.426C59.4812 167.251 58.5944 164.992 57.8976 162.669C57.3909 161.064 56.0606 159.924 54.4137 159.713L45.2709 158.594C43.2228 158.34 41.7236 156.651 41.7236 154.561V137.627C41.7236 135.557 43.2228 133.847 45.2709 133.615L55.4694 132.327C57.053 132.116 58.3199 131.123 58.89 129.645C59.988 126.689 61.3605 123.86 62.9652 121.178C63.8942 119.658 63.7464 117.821 62.6696 116.427L58.6578 111.254C57.3909 109.607 57.5387 107.348 58.9745 105.891L68.265 96.6005C69.7219 95.1436 72.0023 94.9747 73.6282 96.2627L79.8571 101.119C81.1451 102.111 82.8132 102.28 84.2701 101.584C87.015 100.232 89.7811 99.1132 92.716 98.2897C94.3841 97.8252 95.4821 96.4949 95.7566 94.7846L96.8757 87.5422C97.1924 85.5152 98.8182 83.9949 100.909 83.9949ZM106.884 115.287C92.0192 115.287 79.8993 127.28 79.7515 142.166C79.5826 157.285 91.7659 169.637 106.884 169.637C122.023 169.637 134.228 157.285 134.059 142.166C133.911 127.28 121.791 115.287 106.884 115.287Z" fill="#FE5151"/>
<path fill-rule="evenodd" clip-rule="evenodd" d="M106.822 83.9949H112.903C114.993 83.9949 116.619 85.5152 116.957 87.5422L118.076 94.7846C118.351 96.4738 119.427 97.8252 121.117 98.2897C122.552 98.712 123.967 99.1765 125.361 99.7255L125.044 99.9578C123.756 100.971 122.109 101.161 120.631 100.422C117.907 99.0709 115.12 97.973 112.206 97.1706C110.517 96.7061 109.419 95.3336 109.145 93.6233L108.047 86.402C107.878 85.4519 107.434 84.6073 106.822 83.9949ZM138.642 97.4662L140.205 96.2416C141.83 94.9747 144.111 95.1225 145.568 96.5794L154.858 105.87C156.294 107.327 156.442 109.607 155.175 111.233L151.163 116.427C150.065 117.821 149.938 119.637 150.868 121.157C152.472 123.839 153.845 126.668 154.943 129.624C155.428 130.933 156.463 131.862 157.793 132.2L149.432 131.166C147.869 130.976 146.581 129.941 146.032 128.463C144.934 125.528 143.562 122.698 141.936 120.017C141.028 118.497 141.155 116.681 142.232 115.266L146.264 110.072C147.531 108.467 147.384 106.187 145.927 104.73L138.642 97.4662ZM160.179 132.538L168.541 133.594C170.61 133.847 172.109 135.536 172.109 137.606L172.088 154.561C172.088 156.63 170.61 158.34 168.541 158.573L159.398 159.713C157.751 159.924 156.421 161.043 155.914 162.669C155.217 164.97 154.351 167.23 153.317 169.405C152.62 170.904 152.81 172.487 153.824 173.775L159.335 180.87C160.58 182.475 160.433 184.776 158.976 186.212L147.025 198.205C145.568 199.662 143.266 199.81 141.64 198.543L138.811 196.347L150.065 185.072C151.501 183.615 151.649 181.334 150.403 179.709L144.892 172.635C143.9 171.347 143.688 169.742 144.385 168.285C145.42 166.111 146.307 163.83 147.004 161.508C147.489 159.903 148.819 158.763 150.487 158.573L159.609 157.454C161.678 157.179 163.156 155.49 163.156 153.421L163.177 136.465C163.199 134.607 161.932 133.003 160.179 132.538ZM128.549 194.13C126.818 194.932 125.044 195.65 123.249 196.242C121.666 196.769 120.61 198.057 120.399 199.683L119.406 207.77C119.153 209.797 117.443 211.318 115.395 211.318H98.4393C97.3413 211.318 96.3489 210.895 95.6099 210.177H106.463C108.511 210.177 110.243 208.678 110.475 206.609L111.488 198.564C111.678 196.896 112.734 195.629 114.318 195.101C116.851 194.236 119.364 193.18 121.75 191.934C123.228 191.153 124.938 191.322 126.269 192.356L128.549 194.13ZM78.2324 193.813L72.1724 198.543C70.5466 199.81 68.2662 199.641 66.7881 198.205L64.7822 196.178L69.7231 192.356C71.0533 191.301 72.7425 191.153 74.2206 191.934C75.5297 192.61 76.8599 193.243 78.2324 193.813ZM67.5272 97.3184L68.2451 96.6005C69.702 95.1436 71.9824 94.9747 73.6082 96.2416L77.6201 99.3454C76.8388 99.7044 76.0998 100.042 75.3397 100.401C73.8827 101.14 72.2358 100.971 70.9267 99.9578L67.5272 97.3184Z" fill="#E32B2B"/>
<path d="M199.788 169.215C202.639 167.04 205.933 171.326 203.104 173.501L186.127 186.634L203.104 199.789C205.954 201.964 202.639 206.25 199.788 204.075C197.55 202.344 180.067 188.978 179.539 188.302C178.631 187.12 178.843 185.41 180.025 184.502L199.788 169.215ZM235.684 173.501C232.875 171.326 236.19 167.04 238.999 169.215L258.783 184.502C260.24 185.621 260.156 187.753 258.741 188.851L238.999 204.096C236.19 206.271 232.875 201.964 235.684 199.789L252.702 186.655L235.684 173.501ZM222.719 167.293C223.796 163.894 228.969 165.541 227.892 168.919L216.068 205.997C215.012 209.375 209.839 207.77 210.916 204.35L222.719 167.293Z" fill="#24435E"/>
<path d="M168.072 84.4595C161.379 84.4595 161.379 74.261 168.072 74.261H196.999C203.693 74.261 203.693 84.4595 196.999 84.4595H168.072ZM148.055 84.4595C141.362 84.4595 141.362 74.261 148.055 74.261H150.547C157.261 74.261 157.261 84.4595 150.547 84.4595H148.055Z" fill="white"/>
</svg>
