<svg width="50" height="50" viewBox="0 0 50 50" fill="none" xmlns="http://www.w3.org/2000/svg">
<g clip-path="url(#clip0_434_326)">
<path fill-rule="evenodd" clip-rule="evenodd" d="M7.18927 11.4583H42.8207C44.7562 11.4583 46.3433 13.0419 46.3433 14.9844V39.4214C46.3433 41.3569 44.7562 42.9441 42.8207 42.9441H7.18927C5.25022 42.9441 3.66309 41.3569 3.66309 39.4214V14.9844C3.66309 13.0454 5.25022 11.4583 7.18927 11.4583Z" fill="#D5EAFF"/>
<path fill-rule="evenodd" clip-rule="evenodd" d="M5.72559 42.8984C22.7055 41.4521 43.75 34.9874 46.34 14.2632C46.3435 14.2913 46.3435 14.316 46.3435 14.3406V39.3406C46.3435 41.3219 44.7212 42.9443 42.74 42.9443H6.28865C6.09862 42.9443 5.90859 42.9301 5.72559 42.8984Z" fill="#B0D8FF"/>
<path fill-rule="evenodd" clip-rule="evenodd" d="M46.3433 37.7676V39.4216C46.3433 41.3571 44.7562 42.9442 42.817 42.9442H7.18927C5.25022 42.9442 3.66309 41.3571 3.66309 39.4216V37.7676H46.3433Z" fill="#305675"/>
<path fill-rule="evenodd" clip-rule="evenodd" d="M46.3442 37.7676V39.3406C46.3442 41.3219 44.7218 42.9442 42.7405 42.9442H7.19009C6.90152 42.9442 6.62351 42.9091 6.35254 42.8421C13.2923 42.2052 20.855 40.7201 27.5343 37.7676H46.3442Z" fill="#254259"/>
<mask id="mask0_434_326" style="mask-type:luminance" maskUnits="userSpaceOnUse" x="0" y="42" width="50" height="8">
<path d="M0 42.6274H50V50.0001H0V42.6274Z" fill="white"/>
</mask>
<g mask="url(#mask0_434_326)">
<path fill-rule="evenodd" clip-rule="evenodd" d="M3.5297 42.9302H46.4668C48.4128 42.9302 50.0035 44.5173 50.0035 46.4635C50.0035 48.406 48.4128 49.9967 46.4668 49.9967H3.5297C1.58713 49.9967 0 48.406 0 46.4635C0 44.5173 1.58713 42.9302 3.5297 42.9302Z" fill="#4E7DA3"/>
</g>
<mask id="mask1_434_326" style="mask-type:luminance" maskUnits="userSpaceOnUse" x="0" y="44" width="50" height="6">
<path d="M0 44.4292H50V50H0V44.4292Z" fill="white"/>
</mask>
<g mask="url(#mask1_434_326)">
<path fill-rule="evenodd" clip-rule="evenodd" d="M49.5425 44.7178C49.8347 45.2351 50.0035 45.8298 50.0035 46.4596C50.0035 48.4058 48.4128 49.9929 46.4668 49.9929H3.5297C1.58713 49.9929 0 48.4058 0 46.4596C0 45.8298 0.168918 45.2351 0.461008 44.7178C1.06982 45.7876 2.22058 46.5089 3.5297 46.5089H46.4668C47.7795 46.5089 48.9302 45.7876 49.5425 44.7178Z" fill="#3C688C"/>
</g>
<path fill-rule="evenodd" clip-rule="evenodd" d="M25.0034 40.6145C26.5554 40.6145 27.8222 39.351 27.8222 37.7991C27.8222 36.2436 26.5554 34.9768 25.0034 34.9768C23.4516 34.9768 22.1846 36.2436 22.1846 37.7991C22.1846 39.351 23.4516 40.6145 25.0034 40.6145Z" fill="#63BBFF"/>
<path fill-rule="evenodd" clip-rule="evenodd" d="M26.3695 35.3323C27.2351 35.8144 27.823 36.7364 27.823 37.7993C27.823 39.3548 26.5595 40.6146 25.0041 40.6146C23.8885 40.6146 22.9278 39.9706 22.4668 39.0344C22.8715 39.2561 23.3395 39.3864 23.8358 39.3864C25.3911 39.3864 26.651 38.1229 26.651 36.5676C26.651 36.1206 26.5525 35.7018 26.3695 35.3323Z" fill="#3F9FE8"/>
<path fill-rule="evenodd" clip-rule="evenodd" d="M19.0527 42.9299H30.9476V45.9318H19.0527V42.9299Z" fill="#D5EAFF"/>
<mask id="mask2_434_326" style="mask-type:luminance" maskUnits="userSpaceOnUse" x="17" y="0" width="26" height="26">
<path d="M17.4834 0H42.7087V25.5103H17.4834V0Z" fill="white"/>
</mask>
<g mask="url(#mask2_434_326)">
<path fill-rule="evenodd" clip-rule="evenodd" d="M36.0116 1.26679L36.1453 1.1401C37.8908 0.429234 39.9671 0.809302 41.3501 2.25215C42.3073 3.25159 42.7401 4.56424 42.6591 5.8452C42.6416 6.09154 42.4903 6.29917 42.2509 6.38362C42.0188 6.4716 41.7688 6.4153 41.5929 6.2323L39.7981 4.3566C39.7101 4.2651 39.5869 4.22639 39.4603 4.25807L37.4263 4.75427C37.3031 4.78594 37.2081 4.87744 37.1728 5.00412L36.5886 7.01004C36.5534 7.13672 36.5816 7.25989 36.6731 7.3549L38.4714 9.23062C38.6438 9.41009 38.6931 9.65995 38.5946 9.89574C38.4996 10.1245 38.2884 10.2723 38.0386 10.2723C36.7576 10.304 35.4661 9.81479 34.5053 8.81535C33.2173 7.46752 32.8794 5.56367 33.4671 3.92022C32.5558 3.6035 31.5739 3.43459 30.5533 3.43459C25.6159 3.43459 21.6111 7.43585 21.6111 12.3732C21.6111 17.3106 25.6159 21.3189 30.5533 21.3189C34.8819 21.3189 38.4889 18.2361 39.3159 14.1504C39.9741 12.2571 42.9794 12.7498 42.6204 15.1076C41.3783 20.6291 36.4444 24.7536 30.5533 24.7536C23.7191 24.7536 18.1836 19.2109 18.1836 12.3767C18.1836 5.54255 23.7191 0.00341797 30.5533 0.00341797C32.5099 0.00341797 34.3611 0.457387 36.0116 1.26679Z" fill="#FFC400"/>
</g>
<path fill-rule="evenodd" clip-rule="evenodd" d="M40.2232 1.38306C40.6314 1.60828 41.0079 1.89685 41.3492 2.24876C42.3066 3.25171 42.7394 4.56436 42.6584 5.84533C42.6409 6.09166 42.4896 6.2993 42.2502 6.38376C42.0179 6.47175 41.7681 6.41191 41.5921 6.22891L40.8812 5.48638C40.9411 5.48286 41.0044 5.4723 41.0642 5.44766C41.3001 5.36321 41.4549 5.15558 41.4689 4.90571C41.5464 3.6529 41.1382 2.37193 40.2232 1.38306ZM39.4172 4.26875L37.4254 4.75791C37.2987 4.78958 37.2072 4.87756 37.1721 5.00425L36.5879 7.01368C36.5527 7.13686 36.5809 7.26355 36.6724 7.35505L38.4671 9.23075C38.6431 9.41023 38.6889 9.66008 38.5937 9.89586C38.4987 10.1281 38.2877 10.2724 38.0342 10.2759C36.7532 10.3076 35.4617 9.81493 34.5046 8.81548C34.4834 8.79438 34.4624 8.77326 34.4412 8.75215C35.1872 9.16388 36.0177 9.35743 36.8484 9.33985C37.0982 9.33631 37.3094 9.19203 37.4044 8.95625C37.4994 8.72751 37.4501 8.47765 37.2777 8.29465L35.4829 6.41895C35.3914 6.32745 35.3597 6.20076 35.3984 6.0776L35.9826 4.06816C36.0177 3.945 36.1092 3.8535 36.2361 3.82183L38.2666 3.32563C38.3932 3.29395 38.5199 3.33266 38.6044 3.42416L39.4172 4.26875ZM32.1081 3.57196C31.6012 3.48046 31.0804 3.43471 30.5491 3.43471C25.6152 3.43471 21.6104 7.4395 21.6104 12.3769C21.6104 14.9599 22.7049 17.2825 24.4574 18.919C22.0257 17.3177 20.4209 14.5693 20.4209 11.4408C20.4209 6.50341 24.4222 2.50215 29.3561 2.50215C30.3801 2.50215 31.3619 2.67106 32.2769 2.98426C32.2066 3.17781 32.1537 3.3749 32.1081 3.57196ZM41.3036 13.0279C42.1094 13.1933 42.7992 13.9077 42.6162 15.1112C41.3739 20.6292 36.4436 24.7537 30.5491 24.7537C27.3959 24.7537 24.5207 23.5712 22.3319 21.6287C24.3307 23.0082 26.7519 23.8175 29.3561 23.8175C35.2541 23.8175 40.1809 19.6932 41.4267 14.1751C41.4971 13.7212 41.4407 13.3411 41.3036 13.0279Z" fill="#FF9609"/>
<path fill-rule="evenodd" clip-rule="evenodd" d="M16.8183 13.9993H18.8172C19.1655 13.9993 19.4365 14.2527 19.4928 14.5905L19.6793 15.7976C19.725 16.0791 19.9045 16.3043 20.1862 16.3817C20.6752 16.519 21.1363 16.702 21.5937 16.9308C21.8365 17.0468 22.111 17.0186 22.3292 16.8533L23.3673 16.0439C23.6383 15.8292 24.0148 15.8574 24.2613 16.1002L25.8062 17.6486C26.049 17.8914 26.0737 18.2679 25.8625 18.5424L25.1903 19.4046C25.0108 19.637 24.9897 19.9431 25.141 20.1965C25.412 20.6435 25.6408 21.115 25.8238 21.6076C25.9153 21.854 26.1263 22.0194 26.3903 22.0546L28.0902 22.2693C28.435 22.308 28.6848 22.5929 28.6848 22.9379L28.6813 25.7603C28.6813 26.1086 28.435 26.3901 28.0902 26.4324L26.5663 26.6189C26.2918 26.6541 26.0702 26.8441 25.9857 27.1116C25.8695 27.4988 25.7252 27.8753 25.5528 28.2378C25.4367 28.4841 25.4683 28.7479 25.6372 28.9626L26.5557 30.1451C26.7633 30.4161 26.7387 30.7961 26.4958 31.0389L24.504 33.0343C24.2613 33.2771 23.8777 33.3018 23.6067 33.0906L22.5298 32.2496C22.3082 32.0771 22.0267 32.0525 21.7767 32.1791C21.379 32.3903 20.9638 32.5663 20.538 32.7071C20.2777 32.7949 20.0982 33.0096 20.0665 33.2806L19.901 34.6284C19.8588 34.9663 19.5738 35.2198 19.2288 35.2198H16.4065C16.0652 35.2198 15.7766 34.9698 15.7344 34.6284L15.569 33.2806C15.5338 33.0096 15.3613 32.7914 15.0974 32.7071C14.6751 32.5663 14.2563 32.3903 13.8587 32.1791C13.6123 32.0525 13.3273 32.0771 13.1056 32.2496L12.0287 33.0906C11.7577 33.3018 11.3777 33.2771 11.1313 33.0343L9.1395 31.0389C8.89667 30.7961 8.87204 30.4161 9.07967 30.1451L9.99817 28.9626C10.1671 28.7479 10.1988 28.4841 10.0826 28.2378C9.9137 27.8753 9.7659 27.4988 9.64977 27.1116C9.56532 26.8441 9.3436 26.6541 9.06912 26.6189L7.54532 26.4324C7.20397 26.3901 6.9541 26.1086 6.9541 25.7603V22.9379C6.9541 22.5929 7.20397 22.308 7.54532 22.2693L9.24507 22.0546C9.509 22.0194 9.72015 21.854 9.81517 21.6076C9.99817 21.115 10.2269 20.6435 10.4944 20.1965C10.6492 19.9431 10.6246 19.637 10.4451 19.4046L9.77647 18.5424C9.56532 18.2679 9.58995 17.8914 9.82925 17.6486L11.3777 16.1002C11.6205 15.8574 12.0006 15.8292 12.2715 16.0439L13.3097 16.8533C13.5244 17.0186 13.8024 17.0468 14.0452 16.9308C14.5027 16.7055 14.9637 16.519 15.4528 16.3817C15.7309 16.3043 15.9139 16.0826 15.9596 15.7976L16.1461 14.5905C16.1989 14.2527 16.4699 13.9993 16.8183 13.9993ZM17.8142 19.2146C15.3367 19.2146 13.3167 21.2135 13.2921 23.6944C13.2639 26.2143 15.2945 28.2729 17.8142 28.2729C20.3373 28.2729 22.3715 26.2143 22.3433 23.6944C22.3187 21.2135 20.2987 19.2146 17.8142 19.2146Z" fill="#FE5151"/>
<path fill-rule="evenodd" clip-rule="evenodd" d="M17.8035 13.9993H18.817C19.1653 13.9993 19.4363 14.2527 19.4927 14.5905L19.6792 15.7976C19.725 16.0791 19.9043 16.3043 20.186 16.3817C20.4252 16.4521 20.661 16.5295 20.8933 16.621L20.8405 16.6598C20.6258 16.8286 20.3513 16.8603 20.105 16.7371C19.651 16.5119 19.1865 16.329 18.7008 16.1952C18.4193 16.1178 18.2363 15.889 18.1907 15.604L18.0077 14.4005C17.9795 14.2421 17.9055 14.1013 17.8035 13.9993ZM23.1068 16.2445L23.3673 16.0404C23.6382 15.8292 24.0183 15.8539 24.2612 16.0967L25.8095 17.6451C26.0488 17.888 26.0735 18.268 25.8623 18.539L25.1937 19.4046C25.0107 19.637 24.9895 19.9396 25.1445 20.1929C25.4118 20.6399 25.6407 21.1114 25.8237 21.6041C25.9045 21.8223 26.077 21.9771 26.2987 22.0334L24.9052 21.8611C24.6447 21.8294 24.43 21.6569 24.3385 21.4106C24.1555 20.9214 23.9268 20.4498 23.6558 20.0029C23.5045 19.7496 23.5257 19.4469 23.7052 19.2111L24.3772 18.3454C24.5883 18.0779 24.5638 17.698 24.321 17.4551L23.1068 16.2445ZM26.6963 22.0898L28.09 22.2658C28.4348 22.3079 28.6847 22.5895 28.6847 22.9345L28.6812 25.7603C28.6812 26.1051 28.4348 26.3901 28.09 26.4289L26.5662 26.6189C26.2917 26.6541 26.07 26.8406 25.9855 27.1116C25.8693 27.4951 25.725 27.8718 25.5527 28.2343C25.4365 28.4841 25.4682 28.7479 25.6372 28.9626L26.5557 30.1451C26.7632 30.4126 26.7387 30.7961 26.4958 31.0355L24.504 33.0343C24.2612 33.2771 23.8775 33.3018 23.6065 33.0906L23.135 32.7246L25.0107 30.8455C25.25 30.6026 25.2747 30.2224 25.067 29.9516L24.1485 28.7726C23.9832 28.5579 23.9478 28.2905 24.064 28.0476C24.2365 27.6853 24.3843 27.3051 24.5005 26.9181C24.5813 26.6506 24.803 26.4606 25.081 26.4289L26.6013 26.2424C26.9462 26.1966 27.1925 25.9151 27.1925 25.5703L27.196 22.7443C27.1997 22.4346 26.9885 22.1673 26.6963 22.0898ZM21.4247 32.3551C21.1362 32.4888 20.8405 32.6084 20.5413 32.7071C20.2775 32.7949 20.1015 33.0096 20.0663 33.2806L19.9008 34.6284C19.8587 34.9663 19.5737 35.2198 19.2323 35.2198H16.4064C16.2234 35.2198 16.058 35.1493 15.9348 35.0296H17.7437C18.085 35.0296 18.3737 34.7798 18.4123 34.4349L18.5812 33.0941C18.6128 32.8161 18.7888 32.6049 19.0528 32.5169C19.475 32.3728 19.8938 32.1968 20.2915 31.9891C20.5378 31.859 20.8228 31.8871 21.0447 32.0594L21.4247 32.3551ZM13.0386 32.3023L12.0286 33.0906C11.7576 33.3018 11.3775 33.2736 11.1312 33.0343L10.7969 32.6964L11.6204 32.0594C11.8421 31.8836 12.1236 31.859 12.3699 31.9891C12.5881 32.1018 12.8098 32.2073 13.0386 32.3023ZM11.2544 16.2198L11.374 16.1002C11.6168 15.8574 11.9969 15.8292 12.2679 16.0404L12.9365 16.5577C12.8063 16.6175 12.6831 16.6738 12.5565 16.7336C12.3136 16.8568 12.0391 16.8286 11.821 16.6598L11.2544 16.2198Z" fill="#E32B2B"/>
<path d="M33.2977 28.2025C33.7729 27.84 34.3219 28.5543 33.8504 28.9168L31.0209 31.1057L33.8504 33.2982C34.3254 33.6607 33.7729 34.375 33.2977 34.0125C32.9247 33.724 30.0109 31.4963 29.9229 31.3837C29.7715 31.1867 29.8069 30.9017 30.0039 30.7503L33.2977 28.2025ZM39.2804 28.9168C38.8122 28.5543 39.3647 27.84 39.8329 28.2025L43.1302 30.7503C43.373 30.9368 43.359 31.2922 43.1232 31.4752L39.8329 34.016C39.3647 34.3785 38.8122 33.6607 39.2804 33.2982L42.1167 31.1092L39.2804 28.9168ZM37.1195 27.8822C37.299 27.3157 38.1612 27.5902 37.9817 28.1532L36.011 34.3328C35.835 34.8958 34.9729 34.6283 35.1524 34.0583L37.1195 27.8822Z" fill="#24435E"/>
<path d="M28.0117 14.0767C26.8962 14.0767 26.8962 12.377 28.0117 12.377H32.8328C33.9485 12.377 33.9485 14.0767 32.8328 14.0767H28.0117ZM24.6755 14.0767C23.56 14.0767 23.56 12.377 24.6755 12.377H25.0908C26.2098 12.377 26.2098 14.0767 25.0908 14.0767H24.6755Z" fill="white"/>
</g>
<defs>
<clipPath id="clip0_434_326">
<rect width="50" height="50" fill="white"/>
</clipPath>
</defs>
</svg>
