<svg xmlns="http://www.w3.org/2000/svg" xmlns:xlink="http://www.w3.org/1999/xlink" width="500" zoomAndPan="magnify" viewBox="0 0 375 374.999991" height="500" preserveAspectRatio="xMidYMid meet" version="1.0"><defs><clipPath id="96e88a1c6e"><path d="M 0 182 L 372.75 182 L 372.75 375 L 0 375 Z M 0 182 " clip-rule="nonzero"/></clipPath><clipPath id="a184060632"><path d="M 2.5 182 L 375 182 L 375 375 L 2.5 375 Z M 2.5 182 " clip-rule="nonzero"/></clipPath></defs><rect x="-37.5" width="450" fill="#ffffff" y="-37.499999" height="449.999989" fill-opacity="1"/><rect x="-37.5" width="450" fill="#ffffff" y="-37.499999" height="449.999989" fill-opacity="1"/><g clip-path="url(#96e88a1c6e)"><path fill="#004aad" d="M 366.285156 182.535156 L 285.578125 182.535156 C 282.164062 182.535156 279.367188 185.328125 279.367188 188.742188 C 279.367188 240.082031 237.589844 281.863281 186.246094 281.863281 C 134.902344 281.863281 93.125 240.082031 93.125 188.742188 C 93.125 185.328125 90.328125 182.535156 86.914062 182.535156 L 6.207031 182.535156 C 2.792969 182.535156 0 185.328125 0 188.742188 L 0 221.457031 C 0 224.316406 1.925781 226.796875 4.71875 227.480469 L 40.351562 236.359375 C 42.835938 243.933594 45.816406 251.257812 49.355469 258.210938 L 30.480469 289.6875 C 28.992188 292.109375 29.425781 295.273438 31.414062 297.261719 L 77.664062 343.511719 C 79.652344 345.5625 82.816406 345.871094 85.238281 344.445312 L 116.714844 325.570312 C 123.667969 329.109375 130.992188 332.152344 138.566406 334.574219 L 147.445312 370.207031 C 148.128906 373 150.609375 374.925781 153.464844 374.925781 L 218.902344 374.925781 C 221.757812 374.925781 224.242188 373 224.921875 370.207031 L 233.800781 334.574219 C 241.375 332.089844 248.699219 329.109375 255.652344 325.570312 L 287.128906 344.445312 C 289.550781 345.871094 292.71875 345.5 294.703125 343.511719 L 340.953125 297.261719 C 342.941406 295.273438 343.375 292.109375 341.886719 289.6875 L 323.011719 258.210938 C 326.550781 251.257812 329.59375 243.933594 332.015625 236.359375 L 367.648438 227.480469 C 370.445312 226.796875 372.367188 224.316406 372.367188 221.457031 L 372.367188 188.742188 C 372.367188 185.328125 369.574219 182.535156 366.160156 182.535156 Z M 360.074219 216.617188 L 325.746094 225.183594 C 323.632812 225.742188 321.894531 227.355469 321.273438 229.40625 C 318.542969 238.53125 314.941406 247.347656 310.535156 255.480469 C 309.480469 257.40625 309.539062 259.761719 310.660156 261.625 L 328.847656 291.921875 L 289.425781 331.34375 L 259.128906 313.152344 C 257.269531 312.035156 254.910156 311.972656 252.984375 313.03125 C 244.851562 317.4375 236.035156 321.039062 226.910156 323.769531 C 224.800781 324.390625 223.183594 326.066406 222.6875 328.238281 L 214.121094 362.570312 L 158.371094 362.570312 L 149.804688 328.238281 C 149.246094 326.128906 147.632812 324.390625 145.582031 323.769531 C 136.457031 321.039062 127.640625 317.4375 119.507812 313.03125 C 117.582031 311.972656 115.222656 312.035156 113.363281 313.152344 L 83.066406 331.34375 L 43.644531 291.921875 L 61.832031 261.625 C 62.953125 259.761719 63.011719 257.40625 61.957031 255.480469 C 57.550781 247.347656 53.949219 238.53125 51.21875 229.40625 C 50.597656 227.292969 48.921875 225.679688 46.746094 225.183594 L 12.417969 216.617188 L 12.417969 194.949219 L 80.894531 194.949219 C 84.121094 250.265625 130.125 294.28125 186.246094 294.28125 C 242.367188 294.28125 288.371094 250.265625 291.597656 194.949219 L 360.074219 194.949219 Z M 360.074219 216.617188 " fill-opacity="1" fill-rule="nonzero"/></g><path fill="#004aad" d="M 204.871094 108.035156 L 204.871094 151.492188 C 204.871094 154.90625 207.664062 157.699219 211.078125 157.699219 C 214.492188 157.699219 217.285156 154.90625 217.285156 151.492188 L 217.285156 110.582031 L 224.179688 103.6875 C 227.40625 106.359375 231.441406 107.972656 235.910156 107.972656 C 246.15625 107.972656 254.535156 99.59375 254.535156 89.347656 C 254.535156 79.105469 246.15625 70.722656 235.910156 70.722656 C 225.667969 70.722656 217.285156 79.105469 217.285156 89.347656 C 217.285156 90.464844 217.410156 91.582031 217.597656 92.636719 L 206.671875 103.566406 C 205.492188 104.746094 204.871094 106.296875 204.871094 107.972656 Z M 235.910156 83.203125 C 239.328125 83.203125 242.121094 85.996094 242.121094 89.410156 C 242.121094 92.824219 239.328125 95.617188 235.910156 95.617188 C 232.496094 95.617188 229.703125 92.824219 229.703125 89.410156 C 229.703125 85.996094 232.496094 83.203125 235.910156 83.203125 Z M 235.910156 83.203125 " fill-opacity="1" fill-rule="nonzero"/><path fill="#004aad" d="M 148.3125 103.75 L 155.207031 110.640625 L 155.207031 151.554688 C 155.207031 154.96875 158 157.761719 161.414062 157.761719 C 164.828125 157.761719 167.621094 154.96875 167.621094 151.554688 L 167.621094 108.097656 C 167.621094 106.421875 166.9375 104.867188 165.820312 103.6875 L 154.894531 92.761719 C 155.082031 91.707031 155.203125 90.589844 155.203125 89.472656 C 155.203125 79.230469 146.824219 70.847656 136.582031 70.847656 C 126.335938 70.847656 117.957031 79.230469 117.957031 89.472656 C 117.957031 99.714844 126.335938 108.097656 136.582031 108.097656 C 141.050781 108.097656 145.148438 106.421875 148.3125 103.8125 Z M 130.371094 89.410156 C 130.371094 85.996094 133.164062 83.203125 136.582031 83.203125 C 139.996094 83.203125 142.789062 85.996094 142.789062 89.410156 C 142.789062 92.824219 139.996094 95.617188 136.582031 95.617188 C 133.164062 95.617188 130.371094 92.824219 130.371094 89.410156 Z M 130.371094 89.410156 " fill-opacity="1" fill-rule="nonzero"/><path fill="#004aad" d="M 130 169.746094 C 132.792969 171.855469 134.71875 174.648438 135.710938 177.753906 C 128.945312 180.546875 124.164062 187.191406 124.164062 194.949219 C 124.164062 202.710938 129.378906 209.847656 136.582031 212.457031 L 136.582031 225.992188 C 136.582031 236.234375 144.960938 244.617188 155.207031 244.617188 L 155.824219 244.617188 C 158.683594 258.769531 171.222656 269.449219 186.246094 269.449219 C 201.269531 269.449219 213.75 258.769531 216.667969 244.617188 L 217.285156 244.617188 C 227.53125 244.617188 235.910156 236.234375 235.910156 225.992188 L 235.910156 212.457031 C 243.113281 209.910156 248.328125 203.082031 248.328125 194.949219 C 248.328125 186.816406 243.546875 180.546875 236.78125 177.753906 C 237.835938 174.648438 239.761719 171.792969 242.617188 169.621094 C 265.960938 151.804688 279.367188 124.859375 279.367188 95.617188 C 279.367188 69.171875 268.070312 43.84375 248.328125 26.210938 C 228.335938 8.332031 202.449219 0.0742188 175.628906 3.117188 C 133.164062 7.835938 98.773438 42.042969 93.804688 84.445312 C 89.894531 117.71875 103.429688 149.566406 130 169.746094 Z M 186.246094 257.03125 C 178.175781 257.03125 171.222656 251.816406 168.675781 244.617188 L 203.816406 244.617188 C 201.269531 251.816406 194.316406 257.03125 186.246094 257.03125 Z M 223.496094 225.992188 C 223.496094 229.40625 220.703125 232.199219 217.285156 232.199219 L 155.207031 232.199219 C 151.789062 232.199219 148.996094 229.40625 148.996094 225.992188 L 148.996094 213.574219 L 223.496094 213.574219 Z M 229.703125 201.15625 L 142.789062 201.15625 C 139.375 201.15625 136.582031 198.363281 136.582031 194.949219 C 136.582031 191.535156 139.375 188.742188 142.789062 188.742188 L 229.703125 188.742188 C 233.117188 188.742188 235.910156 191.535156 235.910156 194.949219 C 235.910156 198.363281 233.117188 201.15625 229.703125 201.15625 Z M 180.039062 52.160156 C 180.039062 48.746094 182.832031 45.953125 186.246094 45.953125 C 189.660156 45.953125 192.453125 48.746094 192.453125 52.160156 C 192.453125 55.574219 189.660156 58.371094 186.246094 58.371094 C 182.832031 58.371094 180.039062 55.574219 180.039062 52.160156 Z M 106.097656 85.871094 C 110.382812 49.121094 140.179688 19.507812 176.933594 15.410156 C 200.277344 12.800781 222.6875 19.941406 240.007812 35.460938 C 257.082031 50.796875 266.890625 72.710938 266.890625 95.617188 C 266.890625 120.949219 255.28125 144.351562 235.042969 159.75 C 229.394531 164.03125 225.605469 169.867188 224.117188 176.324219 L 192.390625 176.324219 L 192.390625 70.785156 C 192.390625 70.414062 192.269531 70.101562 192.207031 69.730469 C 199.53125 67.246094 204.808594 60.355469 204.808594 52.160156 C 204.808594 41.917969 196.425781 33.535156 186.183594 33.535156 C 175.941406 33.535156 167.558594 41.917969 167.558594 52.160156 C 167.558594 60.292969 172.898438 67.183594 180.160156 69.730469 C 180.101562 70.101562 179.976562 70.414062 179.976562 70.785156 L 179.976562 176.324219 L 148.25 176.324219 C 146.761719 169.867188 143.035156 164.09375 137.449219 159.875 C 114.417969 142.367188 102.683594 114.738281 106.035156 85.933594 Z M 106.097656 85.871094 " fill-opacity="1" fill-rule="nonzero"/><path fill="#004aad" d="M 291.785156 95.617188 C 291.785156 99.03125 294.578125 101.828125 297.992188 101.828125 L 316.617188 101.828125 C 320.03125 101.828125 322.828125 99.03125 322.828125 95.617188 C 322.828125 92.203125 320.03125 89.410156 316.617188 89.410156 L 297.992188 89.410156 C 294.578125 89.410156 291.785156 92.203125 291.785156 95.617188 Z M 291.785156 95.617188 " fill-opacity="1" fill-rule="nonzero"/><path fill="#004aad" d="M 55.875 101.828125 L 74.5 101.828125 C 77.914062 101.828125 80.707031 99.03125 80.707031 95.617188 C 80.707031 92.203125 77.914062 89.410156 74.5 89.410156 L 55.875 89.410156 C 52.460938 89.410156 49.664062 92.203125 49.664062 95.617188 C 49.664062 99.03125 52.460938 101.828125 55.875 101.828125 Z M 55.875 101.828125 " fill-opacity="1" fill-rule="nonzero"/><path fill="#004aad" d="M 284.894531 148.449219 L 301.78125 156.335938 C 302.648438 156.707031 303.519531 156.894531 304.386719 156.894531 C 306.746094 156.894531 308.980469 155.589844 310.039062 153.292969 C 311.464844 150.1875 310.160156 146.464844 307.058594 145.035156 L 290.171875 137.152344 C 287.066406 135.722656 283.40625 137.027344 281.914062 140.132812 C 280.488281 143.234375 281.789062 146.960938 284.894531 148.386719 Z M 284.894531 148.449219 " fill-opacity="1" fill-rule="nonzero"/><path fill="#004aad" d="M 65.433594 46.140625 L 82.320312 54.023438 C 83.191406 54.394531 84.058594 54.582031 84.929688 54.582031 C 87.289062 54.582031 89.523438 53.277344 90.578125 50.980469 C 92.003906 47.878906 90.703125 44.152344 87.597656 42.726562 L 70.710938 34.839844 C 67.605469 33.414062 63.945312 34.714844 62.453125 37.820312 C 61.027344 40.925781 62.332031 44.648438 65.433594 46.078125 Z M 65.433594 46.140625 " fill-opacity="1" fill-rule="nonzero"/><path fill="#004aad" d="M 287.5 54.582031 C 288.371094 54.582031 289.300781 54.394531 290.109375 54.023438 L 306.996094 46.140625 C 310.101562 44.710938 311.464844 40.988281 309.976562 37.882812 C 308.546875 34.777344 304.824219 33.414062 301.71875 34.902344 L 284.832031 42.785156 C 281.726562 44.214844 280.363281 47.941406 281.851562 51.042969 C 282.90625 53.277344 285.144531 54.644531 287.5 54.644531 Z M 287.5 54.582031 " fill-opacity="1" fill-rule="nonzero"/><path fill="#004aad" d="M 82.320312 137.214844 L 65.433594 145.097656 C 62.332031 146.527344 60.964844 150.25 62.453125 153.355469 C 63.511719 155.589844 65.746094 156.957031 68.105469 156.957031 C 68.972656 156.957031 69.90625 156.769531 70.710938 156.398438 L 87.597656 148.511719 C 90.703125 147.085938 92.066406 143.359375 90.578125 140.253906 C 89.148438 137.152344 85.425781 135.785156 82.320312 137.277344 Z M 82.320312 137.214844 " fill-opacity="1" fill-rule="nonzero"/><g clip-path="url(#a184060632)"><path fill="#004aad" d="M 368.785156 182.535156 L 288.078125 182.535156 C 284.664062 182.535156 281.867188 185.328125 281.867188 188.742188 C 281.867188 240.082031 240.089844 281.863281 188.746094 281.863281 C 137.402344 281.863281 95.625 240.082031 95.625 188.742188 C 95.625 185.328125 92.828125 182.535156 89.414062 182.535156 L 8.707031 182.535156 C 5.292969 182.535156 2.5 185.328125 2.5 188.742188 L 2.5 221.457031 C 2.5 224.316406 4.425781 226.796875 7.21875 227.480469 L 42.851562 236.359375 C 45.335938 243.933594 48.316406 251.257812 51.855469 258.210938 L 32.980469 289.6875 C 31.492188 292.109375 31.925781 295.273438 33.914062 297.261719 L 80.164062 343.511719 C 82.152344 345.5625 85.316406 345.871094 87.738281 344.445312 L 119.214844 325.570312 C 126.167969 329.109375 133.492188 332.152344 141.066406 334.574219 L 149.945312 370.207031 C 150.628906 373 153.109375 374.925781 155.964844 374.925781 L 221.402344 374.925781 C 224.257812 374.925781 226.742188 373 227.421875 370.207031 L 236.300781 334.574219 C 243.875 332.089844 251.199219 329.109375 258.152344 325.570312 L 289.628906 344.445312 C 292.050781 345.871094 295.21875 345.5 297.203125 343.511719 L 343.453125 297.261719 C 345.441406 295.273438 345.875 292.109375 344.386719 289.6875 L 325.511719 258.210938 C 329.050781 251.257812 332.09375 243.933594 334.515625 236.359375 L 370.148438 227.480469 C 372.945312 226.796875 374.867188 224.316406 374.867188 221.457031 L 374.867188 188.742188 C 374.867188 185.328125 372.074219 182.535156 368.660156 182.535156 Z M 362.574219 216.617188 L 328.246094 225.183594 C 326.132812 225.742188 324.394531 227.355469 323.773438 229.40625 C 321.042969 238.53125 317.441406 247.347656 313.035156 255.480469 C 311.980469 257.40625 312.039062 259.761719 313.160156 261.625 L 331.347656 291.921875 L 291.925781 331.34375 L 261.628906 313.152344 C 259.769531 312.035156 257.410156 311.972656 255.484375 313.03125 C 247.351562 317.4375 238.535156 321.039062 229.410156 323.769531 C 227.300781 324.390625 225.683594 326.066406 225.1875 328.238281 L 216.621094 362.570312 L 160.871094 362.570312 L 152.304688 328.238281 C 151.746094 326.128906 150.132812 324.390625 148.082031 323.769531 C 138.957031 321.039062 130.140625 317.4375 122.007812 313.03125 C 120.082031 311.972656 117.722656 312.035156 115.863281 313.152344 L 85.566406 331.34375 L 46.144531 291.921875 L 64.332031 261.625 C 65.453125 259.761719 65.511719 257.40625 64.457031 255.480469 C 60.050781 247.347656 56.449219 238.53125 53.71875 229.40625 C 53.097656 227.292969 51.421875 225.679688 49.246094 225.183594 L 14.917969 216.617188 L 14.917969 194.949219 L 83.394531 194.949219 C 86.621094 250.265625 132.625 294.28125 188.746094 294.28125 C 244.867188 294.28125 290.871094 250.265625 294.097656 194.949219 L 362.574219 194.949219 Z M 362.574219 216.617188 " fill-opacity="1" fill-rule="nonzero"/></g><path fill="#004aad" d="M 207.371094 108.035156 L 207.371094 151.492188 C 207.371094 154.90625 210.164062 157.699219 213.578125 157.699219 C 216.992188 157.699219 219.785156 154.90625 219.785156 151.492188 L 219.785156 110.582031 L 226.679688 103.6875 C 229.90625 106.359375 233.941406 107.972656 238.410156 107.972656 C 248.65625 107.972656 257.035156 99.59375 257.035156 89.347656 C 257.035156 79.105469 248.65625 70.722656 238.410156 70.722656 C 228.167969 70.722656 219.785156 79.105469 219.785156 89.347656 C 219.785156 90.464844 219.910156 91.582031 220.097656 92.636719 L 209.171875 103.566406 C 207.992188 104.746094 207.371094 106.296875 207.371094 107.972656 Z M 238.410156 83.203125 C 241.828125 83.203125 244.621094 85.996094 244.621094 89.410156 C 244.621094 92.824219 241.828125 95.617188 238.410156 95.617188 C 234.996094 95.617188 232.203125 92.824219 232.203125 89.410156 C 232.203125 85.996094 234.996094 83.203125 238.410156 83.203125 Z M 238.410156 83.203125 " fill-opacity="1" fill-rule="nonzero"/><path fill="#004aad" d="M 150.8125 103.75 L 157.707031 110.640625 L 157.707031 151.554688 C 157.707031 154.96875 160.5 157.761719 163.914062 157.761719 C 167.328125 157.761719 170.121094 154.96875 170.121094 151.554688 L 170.121094 108.097656 C 170.121094 106.421875 169.4375 104.867188 168.320312 103.6875 L 157.394531 92.761719 C 157.582031 91.707031 157.703125 90.589844 157.703125 89.472656 C 157.703125 79.230469 149.324219 70.847656 139.082031 70.847656 C 128.835938 70.847656 120.457031 79.230469 120.457031 89.472656 C 120.457031 99.714844 128.835938 108.097656 139.082031 108.097656 C 143.550781 108.097656 147.648438 106.421875 150.8125 103.8125 Z M 132.871094 89.410156 C 132.871094 85.996094 135.664062 83.203125 139.082031 83.203125 C 142.496094 83.203125 145.289062 85.996094 145.289062 89.410156 C 145.289062 92.824219 142.496094 95.617188 139.082031 95.617188 C 135.664062 95.617188 132.871094 92.824219 132.871094 89.410156 Z M 132.871094 89.410156 " fill-opacity="1" fill-rule="nonzero"/><path fill="#004aad" d="M 132.5 169.746094 C 135.292969 171.855469 137.21875 174.648438 138.210938 177.753906 C 131.445312 180.546875 126.664062 187.191406 126.664062 194.949219 C 126.664062 202.710938 131.878906 209.847656 139.082031 212.457031 L 139.082031 225.992188 C 139.082031 236.234375 147.460938 244.617188 157.707031 244.617188 L 158.324219 244.617188 C 161.183594 258.769531 173.722656 269.449219 188.746094 269.449219 C 203.769531 269.449219 216.25 258.769531 219.167969 244.617188 L 219.785156 244.617188 C 230.03125 244.617188 238.410156 236.234375 238.410156 225.992188 L 238.410156 212.457031 C 245.613281 209.910156 250.828125 203.082031 250.828125 194.949219 C 250.828125 186.816406 246.046875 180.546875 239.28125 177.753906 C 240.335938 174.648438 242.261719 171.792969 245.117188 169.621094 C 268.460938 151.804688 281.867188 124.859375 281.867188 95.617188 C 281.867188 69.171875 270.570312 43.84375 250.828125 26.210938 C 230.835938 8.332031 204.949219 0.0742188 178.128906 3.117188 C 135.664062 7.835938 101.273438 42.042969 96.304688 84.445312 C 92.394531 117.71875 105.929688 149.566406 132.5 169.746094 Z M 188.746094 257.03125 C 180.675781 257.03125 173.722656 251.816406 171.175781 244.617188 L 206.316406 244.617188 C 203.769531 251.816406 196.816406 257.03125 188.746094 257.03125 Z M 225.996094 225.992188 C 225.996094 229.40625 223.203125 232.199219 219.785156 232.199219 L 157.707031 232.199219 C 154.289062 232.199219 151.496094 229.40625 151.496094 225.992188 L 151.496094 213.574219 L 225.996094 213.574219 Z M 232.203125 201.15625 L 145.289062 201.15625 C 141.875 201.15625 139.082031 198.363281 139.082031 194.949219 C 139.082031 191.535156 141.875 188.742188 145.289062 188.742188 L 232.203125 188.742188 C 235.617188 188.742188 238.410156 191.535156 238.410156 194.949219 C 238.410156 198.363281 235.617188 201.15625 232.203125 201.15625 Z M 182.539062 52.160156 C 182.539062 48.746094 185.332031 45.953125 188.746094 45.953125 C 192.160156 45.953125 194.953125 48.746094 194.953125 52.160156 C 194.953125 55.574219 192.160156 58.371094 188.746094 58.371094 C 185.332031 58.371094 182.539062 55.574219 182.539062 52.160156 Z M 108.597656 85.871094 C 112.882812 49.121094 142.679688 19.507812 179.433594 15.410156 C 202.777344 12.800781 225.1875 19.941406 242.507812 35.460938 C 259.582031 50.796875 269.390625 72.710938 269.390625 95.617188 C 269.390625 120.949219 257.78125 144.351562 237.542969 159.75 C 231.894531 164.03125 228.105469 169.867188 226.617188 176.324219 L 194.890625 176.324219 L 194.890625 70.785156 C 194.890625 70.414062 194.769531 70.101562 194.707031 69.730469 C 202.03125 67.246094 207.308594 60.355469 207.308594 52.160156 C 207.308594 41.917969 198.925781 33.535156 188.683594 33.535156 C 178.441406 33.535156 170.058594 41.917969 170.058594 52.160156 C 170.058594 60.292969 175.398438 67.183594 182.660156 69.730469 C 182.601562 70.101562 182.476562 70.414062 182.476562 70.785156 L 182.476562 176.324219 L 150.75 176.324219 C 149.261719 169.867188 145.535156 164.09375 139.949219 159.875 C 116.917969 142.367188 105.183594 114.738281 108.535156 85.933594 Z M 108.597656 85.871094 " fill-opacity="1" fill-rule="nonzero"/><path fill="#004aad" d="M 294.285156 95.617188 C 294.285156 99.03125 297.078125 101.828125 300.492188 101.828125 L 319.117188 101.828125 C 322.53125 101.828125 325.328125 99.03125 325.328125 95.617188 C 325.328125 92.203125 322.53125 89.410156 319.117188 89.410156 L 300.492188 89.410156 C 297.078125 89.410156 294.285156 92.203125 294.285156 95.617188 Z M 294.285156 95.617188 " fill-opacity="1" fill-rule="nonzero"/><path fill="#004aad" d="M 58.375 101.828125 L 77 101.828125 C 80.414062 101.828125 83.207031 99.03125 83.207031 95.617188 C 83.207031 92.203125 80.414062 89.410156 77 89.410156 L 58.375 89.410156 C 54.960938 89.410156 52.164062 92.203125 52.164062 95.617188 C 52.164062 99.03125 54.960938 101.828125 58.375 101.828125 Z M 58.375 101.828125 " fill-opacity="1" fill-rule="nonzero"/><path fill="#004aad" d="M 287.394531 148.449219 L 304.28125 156.335938 C 305.148438 156.707031 306.019531 156.894531 306.886719 156.894531 C 309.246094 156.894531 311.480469 155.589844 312.539062 153.292969 C 313.964844 150.1875 312.660156 146.464844 309.558594 145.035156 L 292.671875 137.152344 C 289.566406 135.722656 285.90625 137.027344 284.414062 140.132812 C 282.988281 143.234375 284.289062 146.960938 287.394531 148.386719 Z M 287.394531 148.449219 " fill-opacity="1" fill-rule="nonzero"/><path fill="#004aad" d="M 67.933594 46.140625 L 84.820312 54.023438 C 85.691406 54.394531 86.558594 54.582031 87.429688 54.582031 C 89.789062 54.582031 92.023438 53.277344 93.078125 50.980469 C 94.503906 47.878906 93.203125 44.152344 90.097656 42.726562 L 73.210938 34.839844 C 70.105469 33.414062 66.445312 34.714844 64.953125 37.820312 C 63.527344 40.925781 64.832031 44.648438 67.933594 46.078125 Z M 67.933594 46.140625 " fill-opacity="1" fill-rule="nonzero"/><path fill="#004aad" d="M 290 54.582031 C 290.871094 54.582031 291.800781 54.394531 292.609375 54.023438 L 309.496094 46.140625 C 312.601562 44.710938 313.964844 40.988281 312.476562 37.882812 C 311.046875 34.777344 307.324219 33.414062 304.21875 34.902344 L 287.332031 42.785156 C 284.226562 44.214844 282.863281 47.941406 284.351562 51.042969 C 285.40625 53.277344 287.644531 54.644531 290 54.644531 Z M 290 54.582031 " fill-opacity="1" fill-rule="nonzero"/><path fill="#004aad" d="M 84.820312 137.214844 L 67.933594 145.097656 C 64.832031 146.527344 63.464844 150.25 64.953125 153.355469 C 66.011719 155.589844 68.246094 156.957031 70.605469 156.957031 C 71.472656 156.957031 72.40625 156.769531 73.210938 156.398438 L 90.097656 148.511719 C 93.203125 147.085938 94.566406 143.359375 93.078125 140.253906 C 91.648438 137.152344 87.925781 135.785156 84.820312 137.277344 Z M 84.820312 137.214844 " fill-opacity="1" fill-rule="nonzero"/></svg>