<svg xmlns="http://www.w3.org/2000/svg" xmlns:xlink="http://www.w3.org/1999/xlink" width="500" zoomAndPan="magnify" viewBox="0 0 375 374.999991" height="500" preserveAspectRatio="xMidYMid meet" version="1.0"><defs><clipPath id="d49974fb08"><path d="M 0 182 L 372.75 182 L 372.75 375 L 0 375 Z M 0 182 " clip-rule="nonzero"/></clipPath></defs><g clip-path="url(#d49974fb08)"><path fill="#004aad" d="M 366.285156 182.535156 L 285.578125 182.535156 C 282.164062 182.535156 279.367188 185.328125 279.367188 188.742188 C 279.367188 240.082031 237.589844 281.863281 186.246094 281.863281 C 134.902344 281.863281 93.125 240.082031 93.125 188.742188 C 93.125 185.328125 90.328125 182.535156 86.914062 182.535156 L 6.207031 182.535156 C 2.792969 182.535156 0 185.328125 0 188.742188 L 0 221.457031 C 0 224.316406 1.925781 226.796875 4.71875 227.480469 L 40.351562 236.359375 C 42.835938 243.933594 45.816406 251.257812 49.355469 258.210938 L 30.480469 289.6875 C 28.992188 292.109375 29.425781 295.273438 31.414062 297.261719 L 77.664062 343.511719 C 79.652344 345.5625 82.816406 345.871094 85.238281 344.445312 L 116.714844 325.570312 C 123.667969 329.109375 130.992188 332.152344 138.566406 334.574219 L 147.445312 370.207031 C 148.128906 373 150.609375 374.925781 153.464844 374.925781 L 218.902344 374.925781 C 221.757812 374.925781 224.242188 373 224.921875 370.207031 L 233.800781 334.574219 C 241.375 332.089844 248.699219 329.109375 255.652344 325.570312 L 287.128906 344.445312 C 289.550781 345.871094 292.71875 345.5 294.703125 343.511719 L 340.953125 297.261719 C 342.941406 295.273438 343.375 292.109375 341.886719 289.6875 L 323.011719 258.210938 C 326.550781 251.257812 329.59375 243.933594 332.015625 236.359375 L 367.648438 227.480469 C 370.445312 226.796875 372.367188 224.316406 372.367188 221.457031 L 372.367188 188.742188 C 372.367188 185.328125 369.574219 182.535156 366.160156 182.535156 Z M 360.074219 216.617188 L 325.746094 225.183594 C 323.632812 225.742188 321.894531 227.355469 321.273438 229.40625 C 318.542969 238.53125 314.941406 247.347656 310.535156 255.480469 C 309.480469 257.40625 309.539062 259.761719 310.660156 261.625 L 328.847656 291.921875 L 289.425781 331.34375 L 259.128906 313.152344 C 257.269531 312.035156 254.910156 311.972656 252.984375 313.03125 C 244.851562 317.4375 236.035156 321.039062 226.910156 323.769531 C 224.800781 324.390625 223.183594 326.066406 222.6875 328.238281 L 214.121094 362.570312 L 158.371094 362.570312 L 149.804688 328.238281 C 149.246094 326.128906 147.632812 324.390625 145.582031 323.769531 C 136.457031 321.039062 127.640625 317.4375 119.507812 313.03125 C 117.582031 311.972656 115.222656 312.035156 113.363281 313.152344 L 83.066406 331.34375 L 43.644531 291.921875 L 61.832031 261.625 C 62.953125 259.761719 63.011719 257.40625 61.957031 255.480469 C 57.550781 247.347656 53.949219 238.53125 51.21875 229.40625 C 50.597656 227.292969 48.921875 225.679688 46.746094 225.183594 L 12.417969 216.617188 L 12.417969 194.949219 L 80.894531 194.949219 C 84.121094 250.265625 130.125 294.28125 186.246094 294.28125 C 242.367188 294.28125 288.371094 250.265625 291.597656 194.949219 L 360.074219 194.949219 Z M 360.074219 216.617188 " fill-opacity="1" fill-rule="nonzero"/></g><path fill="#004aad" d="M 204.871094 108.035156 L 204.871094 151.492188 C 204.871094 154.90625 207.664062 157.699219 211.078125 157.699219 C 214.492188 157.699219 217.285156 154.90625 217.285156 151.492188 L 217.285156 110.582031 L 224.179688 103.6875 C 227.40625 106.359375 231.441406 107.972656 235.910156 107.972656 C 246.15625 107.972656 254.535156 99.59375 254.535156 89.347656 C 254.535156 79.105469 246.15625 70.722656 235.910156 70.722656 C 225.667969 70.722656 217.285156 79.105469 217.285156 89.347656 C 217.285156 90.464844 217.410156 91.582031 217.597656 92.636719 L 206.671875 103.566406 C 205.492188 104.746094 204.871094 106.296875 204.871094 107.972656 Z M 235.910156 83.203125 C 239.328125 83.203125 242.121094 85.996094 242.121094 89.410156 C 242.121094 92.824219 239.328125 95.617188 235.910156 95.617188 C 232.496094 95.617188 229.703125 92.824219 229.703125 89.410156 C 229.703125 85.996094 232.496094 83.203125 235.910156 83.203125 Z M 235.910156 83.203125 " fill-opacity="1" fill-rule="nonzero"/><path fill="#004aad" d="M 148.3125 103.75 L 155.207031 110.640625 L 155.207031 151.554688 C 155.207031 154.96875 158 157.761719 161.414062 157.761719 C 164.828125 157.761719 167.621094 154.96875 167.621094 151.554688 L 167.621094 108.097656 C 167.621094 106.421875 166.9375 104.867188 165.820312 103.6875 L 154.894531 92.761719 C 155.082031 91.707031 155.203125 90.589844 155.203125 89.472656 C 155.203125 79.230469 146.824219 70.847656 136.582031 70.847656 C 126.335938 70.847656 117.957031 79.230469 117.957031 89.472656 C 117.957031 99.714844 126.335938 108.097656 136.582031 108.097656 C 141.050781 108.097656 145.148438 106.421875 148.3125 103.8125 Z M 130.371094 89.410156 C 130.371094 85.996094 133.164062 83.203125 136.582031 83.203125 C 139.996094 83.203125 142.789062 85.996094 142.789062 89.410156 C 142.789062 92.824219 139.996094 95.617188 136.582031 95.617188 C 133.164062 95.617188 130.371094 92.824219 130.371094 89.410156 Z M 130.371094 89.410156 " fill-opacity="1" fill-rule="nonzero"/><path fill="#004aad" d="M 130 169.746094 C 132.792969 171.855469 134.71875 174.648438 135.710938 177.753906 C 128.945312 180.546875 124.164062 187.191406 124.164062 194.949219 C 124.164062 202.710938 129.378906 209.847656 136.582031 212.457031 L 136.582031 225.992188 C 136.582031 236.234375 144.960938 244.617188 155.207031 244.617188 L 155.824219 244.617188 C 158.683594 258.769531 171.222656 269.449219 186.246094 269.449219 C 201.269531 269.449219 213.75 258.769531 216.667969 244.617188 L 217.285156 244.617188 C 227.53125 244.617188 235.910156 236.234375 235.910156 225.992188 L 235.910156 212.457031 C 243.113281 209.910156 248.328125 203.082031 248.328125 194.949219 C 248.328125 186.816406 243.546875 180.546875 236.78125 177.753906 C 237.835938 174.648438 239.761719 171.792969 242.617188 169.621094 C 265.960938 151.804688 279.367188 124.859375 279.367188 95.617188 C 279.367188 69.171875 268.070312 43.84375 248.328125 26.210938 C 228.335938 8.332031 202.449219 0.0742188 175.628906 3.117188 C 133.164062 7.835938 98.773438 42.042969 93.804688 84.445312 C 89.894531 117.71875 103.429688 149.566406 130 169.746094 Z M 186.246094 257.03125 C 178.175781 257.03125 171.222656 251.816406 168.675781 244.617188 L 203.816406 244.617188 C 201.269531 251.816406 194.316406 257.03125 186.246094 257.03125 Z M 223.496094 225.992188 C 223.496094 229.40625 220.703125 232.199219 217.285156 232.199219 L 155.207031 232.199219 C 151.789062 232.199219 148.996094 229.40625 148.996094 225.992188 L 148.996094 213.574219 L 223.496094 213.574219 Z M 229.703125 201.15625 L 142.789062 201.15625 C 139.375 201.15625 136.582031 198.363281 136.582031 194.949219 C 136.582031 191.535156 139.375 188.742188 142.789062 188.742188 L 229.703125 188.742188 C 233.117188 188.742188 235.910156 191.535156 235.910156 194.949219 C 235.910156 198.363281 233.117188 201.15625 229.703125 201.15625 Z M 180.039062 52.160156 C 180.039062 48.746094 182.832031 45.953125 186.246094 45.953125 C 189.660156 45.953125 192.453125 48.746094 192.453125 52.160156 C 192.453125 55.574219 189.660156 58.371094 186.246094 58.371094 C 182.832031 58.371094 180.039062 55.574219 180.039062 52.160156 Z M 106.097656 85.871094 C 110.382812 49.121094 140.179688 19.507812 176.933594 15.410156 C 200.277344 12.800781 222.6875 19.941406 240.007812 35.460938 C 257.082031 50.796875 266.890625 72.710938 266.890625 95.617188 C 266.890625 120.949219 255.28125 144.351562 235.042969 159.75 C 229.394531 164.03125 225.605469 169.867188 224.117188 176.324219 L 192.390625 176.324219 L 192.390625 70.785156 C 192.390625 70.414062 192.269531 70.101562 192.207031 69.730469 C 199.53125 67.246094 204.808594 60.355469 204.808594 52.160156 C 204.808594 41.917969 196.425781 33.535156 186.183594 33.535156 C 175.941406 33.535156 167.558594 41.917969 167.558594 52.160156 C 167.558594 60.292969 172.898438 67.183594 180.160156 69.730469 C 180.101562 70.101562 179.976562 70.414062 179.976562 70.785156 L 179.976562 176.324219 L 148.25 176.324219 C 146.761719 169.867188 143.035156 164.09375 137.449219 159.875 C 114.417969 142.367188 102.683594 114.738281 106.035156 85.933594 Z M 106.097656 85.871094 " fill-opacity="1" fill-rule="nonzero"/><path fill="#004aad" d="M 291.785156 95.617188 C 291.785156 99.03125 294.578125 101.828125 297.992188 101.828125 L 316.617188 101.828125 C 320.03125 101.828125 322.828125 99.03125 322.828125 95.617188 C 322.828125 92.203125 320.03125 89.410156 316.617188 89.410156 L 297.992188 89.410156 C 294.578125 89.410156 291.785156 92.203125 291.785156 95.617188 Z M 291.785156 95.617188 " fill-opacity="1" fill-rule="nonzero"/><path fill="#004aad" d="M 55.875 101.828125 L 74.5 101.828125 C 77.914062 101.828125 80.707031 99.03125 80.707031 95.617188 C 80.707031 92.203125 77.914062 89.410156 74.5 89.410156 L 55.875 89.410156 C 52.460938 89.410156 49.664062 92.203125 49.664062 95.617188 C 49.664062 99.03125 52.460938 101.828125 55.875 101.828125 Z M 55.875 101.828125 " fill-opacity="1" fill-rule="nonzero"/><path fill="#004aad" d="M 284.894531 148.449219 L 301.78125 156.335938 C 302.648438 156.707031 303.519531 156.894531 304.386719 156.894531 C 306.746094 156.894531 308.980469 155.589844 310.039062 153.292969 C 311.464844 150.1875 310.160156 146.464844 307.058594 145.035156 L 290.171875 137.152344 C 287.066406 135.722656 283.40625 137.027344 281.914062 140.132812 C 280.488281 143.234375 281.789062 146.960938 284.894531 148.386719 Z M 284.894531 148.449219 " fill-opacity="1" fill-rule="nonzero"/><path fill="#004aad" d="M 65.433594 46.140625 L 82.320312 54.023438 C 83.191406 54.394531 84.058594 54.582031 84.929688 54.582031 C 87.289062 54.582031 89.523438 53.277344 90.578125 50.980469 C 92.003906 47.878906 90.703125 44.152344 87.597656 42.726562 L 70.710938 34.839844 C 67.605469 33.414062 63.945312 34.714844 62.453125 37.820312 C 61.027344 40.925781 62.332031 44.648438 65.433594 46.078125 Z M 65.433594 46.140625 " fill-opacity="1" fill-rule="nonzero"/><path fill="#004aad" d="M 287.5 54.582031 C 288.371094 54.582031 289.300781 54.394531 290.109375 54.023438 L 306.996094 46.140625 C 310.101562 44.710938 311.464844 40.988281 309.976562 37.882812 C 308.546875 34.777344 304.824219 33.414062 301.71875 34.902344 L 284.832031 42.785156 C 281.726562 44.214844 280.363281 47.941406 281.851562 51.042969 C 282.90625 53.277344 285.144531 54.644531 287.5 54.644531 Z M 287.5 54.582031 " fill-opacity="1" fill-rule="nonzero"/><path fill="#004aad" d="M 82.320312 137.214844 L 65.433594 145.097656 C 62.332031 146.527344 60.964844 150.25 62.453125 153.355469 C 63.511719 155.589844 65.746094 156.957031 68.105469 156.957031 C 68.972656 156.957031 69.90625 156.769531 70.710938 156.398438 L 87.597656 148.511719 C 90.703125 147.085938 92.066406 143.359375 90.578125 140.253906 C 89.148438 137.152344 85.425781 135.785156 82.320312 137.277344 Z M 82.320312 137.214844 " fill-opacity="1" fill-rule="nonzero"/></svg>