<svg width="51" height="45" viewBox="0 0 51 45" fill="none" xmlns="http://www.w3.org/2000/svg">
<mask id="mask0_433_249" style="mask-type:luminance" maskUnits="userSpaceOnUse" x="0" y="0" width="51" height="46">
<path d="M0.723633 0H50.7236V45.0085H0.723633V0Z" fill="white"/>
</mask>
<g mask="url(#mask0_433_249)">
<path fill-rule="evenodd" clip-rule="evenodd" d="M27.1863 22.8298L20.7066 25.9845L17.467 23.8763C16.9639 23.5509 16.2937 23.9098 16.2937 24.5109V28.5151C16.2937 28.7828 16.4341 29.0297 16.6637 29.1664C16.8355 29.2665 17.1033 29.4138 17.4476 29.5998C18.1367 29.9792 19.9604 30.9739 20.2984 31.3323L25.3496 41.8272C25.7452 42.6599 25.3816 42.9376 25.2605 43.0283C24.682 43.4648 23.429 43.3689 23.1492 42.6819L18.2835 34.2444C17.6646 33.1732 13.9785 31.632 13.0284 31.632H10.5916C9.48225 31.632 8.58301 30.7296 8.58301 29.6208V18.4918C8.58301 17.8273 9.12486 17.2876 9.78829 17.2876H12.4541L15.9106 19.1505C16.1019 19.2716 17.008 20.0304 17.7285 20.6409C19.0548 21.7592 20.5599 23.0268 21.2741 23.4618C21.4785 23.587 21.7269 23.608 21.9502 23.5173L26.4972 21.6769C26.4972 21.6753 26.504 21.6753 26.504 21.6743L27.9514 21.0879C27.9708 21.308 27.9708 21.6145 27.9708 21.8069C27.9708 22.0647 27.767 22.5505 27.1863 22.8298ZM15.1392 42.2585V33.9158C14.2657 33.5039 13.3407 33.1518 13.0284 33.1455H10.5916C8.72345 33.1455 7.18645 31.6776 7.07797 29.8341L3.63399 23.8307C3.30333 23.2611 2.79291 23.3423 2.23743 23.3423V42.2585C2.23743 42.794 2.67763 43.2311 3.21319 43.2311H14.1698C14.7053 43.2311 15.1392 42.794 15.1392 42.2585ZM11.5742 10.8665C12.824 10.8665 13.8443 11.8842 13.8443 13.1372C13.8443 14.3881 12.824 15.4073 11.5742 15.4073C10.3239 15.4073 9.30356 14.3881 9.30356 13.1372C9.30356 11.8842 10.3239 10.8665 11.5742 10.8665ZM18.4171 10.3524C16.9949 10.3524 15.7896 9.37145 15.4516 8.04982H21.3826C21.0446 9.37145 19.8456 10.3524 18.4171 10.3524ZM18.4171 2.26655L20.9173 6.5364H15.9237L18.4171 2.26655ZM33.9978 10.3524C32.5693 10.3524 31.3703 9.37145 31.0323 8.04982H36.9633C36.6253 9.37145 35.42 10.3524 33.9978 10.3524ZM36.4912 6.5364H31.4976L33.9978 2.26655L36.4912 6.5364ZM28.8512 19.7028C28.2397 19.2904 27.614 19.5902 26.9631 19.8548V1.52451H32.6777L29.4884 6.98708C29.4738 7.05049 29.425 7.08298 29.425 7.29259C29.425 9.81478 31.4719 11.8664 33.9978 11.8664C36.5179 11.8664 38.5705 9.81845 38.5705 7.28263C38.5705 7.08507 38.4788 6.95039 38.4683 6.91057L34.591 0.296164C34.5716 0.272582 34.5527 0.251097 34.5271 0.230659C34.5271 0.227515 34.5208 0.225419 34.5208 0.222799L34.3803 0.119039L34.2844 0.0682075V0.0671595L33.9978 0.0131836H18.4171L18.1304 0.0671595V0.0682075L17.8941 0.222799C17.8941 0.225419 17.8878 0.227515 17.8878 0.230659L17.7668 0.384726L13.9209 6.9614L13.8443 7.29259C13.8443 9.81478 15.898 11.8664 18.4176 11.8664C20.944 11.8664 22.9898 9.81845 22.9898 7.28263C22.9898 7.06044 22.8976 6.9462 22.8882 6.91057L19.7377 1.52503H25.4518V20.4674L21.7526 21.9641C21.0258 21.4432 19.7565 20.3694 18.7043 19.4833C17.4031 18.3844 16.8864 17.9562 16.6317 17.8216L13.7233 16.251C14.7116 15.5682 15.3562 14.4263 15.3562 13.1372C15.3562 11.0494 13.6594 9.35258 11.5742 9.35258C9.48854 9.35258 7.79223 11.0494 7.79223 13.1372C7.79223 14.2225 8.25129 15.2024 8.98494 15.8941C7.87503 16.2374 7.07168 17.2713 7.07168 18.4918V26.7805L4.94776 23.0782C4.49499 22.2953 3.69164 21.8289 2.78558 21.8289H2.1735C1.37644 21.8289 0.725586 22.4787 0.725586 23.2778V42.2585C0.725586 43.6294 1.84179 44.745 3.21319 44.745H14.1698C15.5412 44.745 16.6569 43.6294 16.6569 42.2585V34.7391C16.8099 34.8423 16.9183 34.9356 16.9823 35.0131L21.7657 43.3081C22.0649 43.9831 22.6644 44.4736 23.4683 44.6916C25.6016 45.2701 27.9195 43.6881 26.7079 41.1716L21.6378 30.6275C21.3292 29.985 20.0945 29.3493 17.8113 28.0733V25.9054L20.2476 27.4874C20.4708 27.6315 20.7512 27.6499 20.9875 27.5335L27.8498 24.1912C28.9848 23.641 29.4884 22.5976 29.4884 21.8069C29.4884 20.982 29.4884 20.1305 28.8512 19.7028ZM49.1634 42.2585C49.1634 42.794 48.7295 43.2311 48.194 43.2311H37.2374C36.7018 43.2311 36.2616 42.794 36.2616 42.2585V34.7663L36.3256 34.4084C36.4529 33.6648 37.0398 33.1455 37.7478 33.1455H40.8087C42.6837 33.1455 44.2207 31.6776 44.3292 29.8341L47.7732 23.8307C48.0986 23.2595 48.6074 23.3423 49.1634 23.3423V42.2585ZM33.4428 42.1028C33.4365 42.1458 33.4302 42.1893 33.4302 42.2328C33.4302 42.8837 32.901 43.4124 32.2501 43.4124C31.5998 43.4124 31.0705 42.8837 31.0705 42.2328V31.2836C31.0705 30.1747 31.976 29.2723 33.0854 29.2723H33.7745C34.5145 29.2723 35.1072 28.6738 35.1072 27.9381V22.0343C35.1072 19.7175 36.9953 17.8331 39.3099 17.8331C42.1162 17.8331 42.8241 18.3225 42.8241 22.0029V29.6203C42.8241 30.7296 41.9186 31.632 40.8092 31.632H37.7478C36.2936 31.632 35.0946 32.6665 34.8331 34.1485L33.4428 42.1028ZM39.8329 11.6646C41.0833 11.6646 42.1036 12.6828 42.1036 13.9348C42.1036 15.1872 41.0833 16.2059 39.8329 16.2059C38.5768 16.2059 37.5628 15.1872 37.5628 13.9348C37.5628 12.6828 38.5768 11.6646 39.8329 11.6646ZM49.2274 21.8289H48.6153C47.716 21.8289 46.9122 22.2953 46.4594 23.0782L44.3355 26.7805V22.0029C44.3355 19.3654 43.9493 17.6098 42.2886 16.8096C43.0987 16.1158 43.6149 15.0845 43.6149 13.9348C43.6149 11.848 41.9186 10.1512 39.8329 10.1512C37.741 10.1512 36.0447 11.848 36.0447 13.9348C36.0447 15.0269 36.5105 16.0121 37.2562 16.7033C35.1135 17.5318 33.5958 19.6085 33.5958 22.0343V27.7589H33.0854C31.1402 27.7589 29.5587 29.3399 29.5587 31.2841V42.2328C29.5587 43.7184 30.7639 44.9258 32.2501 44.9258C33.4874 44.9258 34.5333 44.0889 34.8457 42.9518C35.1517 43.9862 36.1086 44.745 37.2374 44.745H48.194C49.5654 44.745 50.681 43.6294 50.681 42.2585V23.2778C50.6816 22.4787 50.0307 21.8289 49.2274 21.8289Z" fill="#004AAD"/>
</g>
</svg>
