<svg xmlns="http://www.w3.org/2000/svg" xmlns:xlink="http://www.w3.org/1999/xlink" width="500" zoomAndPan="magnify" viewBox="0 0 375 374.999991" height="500" preserveAspectRatio="xMidYMid meet" version="1.0"><defs><clipPath id="f220b3da20"><path d="M 1.292969 37.5 L 374 37.5 L 374 373 L 1.292969 373 Z M 1.292969 37.5 " clip-rule="nonzero"/></clipPath></defs><g clip-path="url(#f220b3da20)"><path fill="#004aad" d="M 198.550781 207.675781 L 150.25 231.191406 L 126.101562 215.476562 C 122.351562 213.050781 117.355469 215.726562 117.355469 220.207031 L 117.355469 250.054688 C 117.355469 252.050781 118.402344 253.890625 120.113281 254.910156 C 121.394531 255.65625 123.390625 256.753906 125.957031 258.140625 C 131.09375 260.96875 144.6875 268.382812 147.207031 271.054688 L 184.859375 349.285156 C 187.808594 355.492188 185.097656 357.5625 184.195312 358.238281 C 179.882812 361.492188 170.542969 360.777344 168.457031 355.65625 L 132.1875 292.761719 C 127.574219 284.777344 100.097656 273.289062 93.015625 273.289062 L 74.851562 273.289062 C 66.582031 273.289062 59.878906 266.5625 59.878906 258.296875 L 59.878906 175.339844 C 59.878906 170.386719 63.917969 166.363281 68.863281 166.363281 L 88.734375 166.363281 L 114.5 180.25 C 115.925781 181.152344 122.679688 186.808594 128.050781 191.359375 C 137.9375 199.695312 149.15625 209.144531 154.480469 212.386719 C 156.003906 213.320312 157.855469 213.476562 159.519531 212.800781 L 193.414062 199.082031 C 193.414062 199.070312 193.464844 199.070312 193.464844 199.0625 L 204.253906 194.691406 C 204.398438 196.332031 204.398438 198.617188 204.398438 200.050781 C 204.398438 201.972656 202.878906 205.59375 198.550781 207.675781 Z M 108.75 352.5 L 108.75 290.3125 C 102.238281 287.242188 95.34375 284.617188 93.015625 284.570312 L 74.851562 284.570312 C 60.925781 284.570312 49.46875 273.628906 48.660156 259.886719 L 22.988281 215.136719 C 20.523438 210.890625 16.71875 211.496094 12.578125 211.496094 L 12.578125 352.5 C 12.578125 356.492188 15.859375 359.75 19.851562 359.75 L 101.523438 359.75 C 105.515625 359.75 108.75 356.492188 108.75 352.5 Z M 82.175781 118.5 C 91.492188 118.5 99.097656 126.085938 99.097656 135.425781 C 99.097656 144.75 91.492188 152.347656 82.175781 152.347656 C 72.855469 152.347656 65.25 144.75 65.25 135.425781 C 65.25 126.085938 72.855469 118.5 82.175781 118.5 Z M 133.183594 114.667969 C 122.582031 114.667969 113.597656 107.355469 111.078125 97.503906 L 155.289062 97.503906 C 152.769531 107.355469 143.832031 114.667969 133.183594 114.667969 Z M 133.183594 54.394531 L 151.820312 86.222656 L 114.597656 86.222656 Z M 249.324219 114.667969 C 238.675781 114.667969 229.738281 107.355469 227.21875 97.503906 L 271.429688 97.503906 C 268.910156 107.355469 259.925781 114.667969 249.324219 114.667969 Z M 267.910156 86.222656 L 230.6875 86.222656 L 249.324219 54.394531 Z M 210.960938 184.367188 C 206.402344 181.292969 201.738281 183.527344 196.886719 185.5 L 196.886719 48.863281 L 239.484375 48.863281 L 215.710938 89.582031 C 215.601562 90.054688 215.238281 90.296875 215.238281 91.859375 C 215.238281 110.660156 230.496094 125.953125 249.324219 125.953125 C 268.109375 125.953125 283.410156 110.6875 283.410156 91.785156 C 283.410156 90.3125 282.726562 89.308594 282.648438 89.011719 L 253.746094 39.707031 C 253.601562 39.53125 253.460938 39.371094 253.269531 39.21875 C 253.269531 39.195312 253.222656 39.179688 253.222656 39.160156 L 252.175781 38.386719 L 251.460938 38.007812 L 251.460938 38 L 249.324219 37.597656 L 133.183594 37.597656 L 131.046875 38 L 131.046875 38.007812 L 129.285156 39.160156 C 129.285156 39.179688 129.238281 39.195312 129.238281 39.21875 L 128.335938 40.367188 L 99.667969 89.390625 L 99.097656 91.859375 C 99.097656 110.660156 114.40625 125.953125 133.1875 125.953125 C 152.019531 125.953125 167.269531 110.6875 167.269531 91.785156 C 167.269531 90.128906 166.582031 89.277344 166.511719 89.011719 L 143.027344 48.867188 L 185.621094 48.867188 L 185.621094 190.066406 L 158.046875 201.222656 C 152.628906 197.339844 143.167969 189.335938 135.324219 182.730469 C 125.625 174.539062 121.773438 171.347656 119.875 170.34375 L 98.195312 158.636719 C 105.5625 153.546875 110.367188 145.035156 110.367188 135.425781 C 110.367188 119.863281 97.71875 107.214844 82.175781 107.214844 C 66.628906 107.214844 53.984375 119.863281 53.984375 135.425781 C 53.984375 143.515625 57.40625 150.820312 62.875 155.976562 C 54.601562 158.535156 48.613281 166.242188 48.613281 175.339844 L 48.613281 237.125 L 32.78125 209.527344 C 29.40625 203.691406 23.417969 200.214844 16.664062 200.214844 L 12.101562 200.214844 C 6.160156 200.214844 1.308594 205.058594 1.308594 211.015625 L 1.308594 352.5 C 1.308594 362.71875 9.628906 371.035156 19.851562 371.035156 L 101.523438 371.035156 C 111.746094 371.035156 120.0625 362.71875 120.0625 352.5 L 120.0625 296.449219 C 121.203125 297.21875 122.011719 297.914062 122.488281 298.492188 L 158.144531 360.324219 C 160.375 365.355469 164.84375 369.011719 170.835938 370.636719 C 186.738281 374.949219 204.015625 363.15625 194.984375 344.398438 L 157.191406 265.800781 C 154.890625 261.011719 145.6875 256.273438 128.667969 246.761719 L 128.667969 230.601562 L 146.828125 242.394531 C 148.492188 243.46875 150.582031 243.605469 152.34375 242.738281 L 203.496094 217.824219 C 211.957031 213.722656 215.710938 205.945312 215.710938 200.050781 C 215.710938 193.902344 215.710938 187.554688 210.960938 184.367188 Z M 362.371094 352.5 C 362.371094 356.492188 359.136719 359.75 355.144531 359.75 L 273.472656 359.75 C 269.480469 359.75 266.199219 356.492188 266.199219 352.5 L 266.199219 296.652344 L 266.675781 293.984375 C 267.625 288.441406 272 284.570312 277.277344 284.570312 L 300.09375 284.570312 C 314.070312 284.570312 325.527344 273.628906 326.335938 259.886719 L 352.007812 215.136719 C 354.433594 210.878906 358.226562 211.496094 362.371094 211.496094 Z M 245.1875 351.339844 C 245.140625 351.660156 245.09375 351.984375 245.09375 352.308594 C 245.09375 357.160156 241.148438 361.101562 236.296875 361.101562 C 231.449219 361.101562 227.503906 357.160156 227.503906 352.308594 L 227.503906 270.691406 C 227.503906 262.425781 234.253906 255.699219 242.523438 255.699219 L 247.660156 255.699219 C 253.175781 255.699219 257.59375 251.238281 257.59375 245.753906 L 257.59375 201.746094 C 257.59375 184.476562 271.667969 170.429688 288.921875 170.429688 C 309.839844 170.429688 315.117188 174.078125 315.117188 201.511719 L 315.117188 258.292969 C 315.117188 266.5625 308.367188 273.289062 300.097656 273.289062 L 277.277344 273.289062 C 266.4375 273.289062 257.5 281 255.550781 292.046875 Z M 292.820312 124.449219 C 302.140625 124.449219 309.746094 132.039062 309.746094 141.371094 C 309.746094 150.707031 302.140625 158.300781 292.820312 158.300781 C 283.457031 158.300781 275.898438 150.707031 275.898438 141.371094 C 275.898438 132.039062 283.457031 124.449219 292.820312 124.449219 Z M 362.847656 200.214844 L 358.285156 200.214844 C 351.582031 200.214844 345.589844 203.691406 342.214844 209.527344 L 326.382812 237.125 L 326.382812 201.511719 C 326.382812 181.851562 323.503906 168.765625 311.125 162.800781 C 317.164062 157.628906 321.011719 149.941406 321.011719 141.371094 C 321.011719 125.816406 308.367188 113.167969 292.820312 113.167969 C 277.226562 113.167969 264.582031 125.816406 264.582031 141.371094 C 264.582031 149.511719 268.054688 156.855469 273.613281 162.007812 C 257.640625 168.183594 246.328125 183.664062 246.328125 201.746094 L 246.328125 244.417969 L 242.523438 244.417969 C 228.023438 244.417969 216.234375 256.203125 216.234375 270.695312 L 216.234375 352.308594 C 216.234375 363.382812 225.21875 372.382812 236.296875 372.382812 C 245.519531 372.382812 253.316406 366.144531 255.644531 357.667969 C 257.925781 365.378906 265.058594 371.035156 273.472656 371.035156 L 355.144531 371.035156 C 365.367188 371.035156 373.683594 362.71875 373.683594 352.5 L 373.683594 211.015625 C 373.6875 205.058594 368.835938 200.214844 362.847656 200.214844 Z M 362.847656 200.214844 " fill-opacity="1" fill-rule="evenodd"/></g></svg>