<svg xmlns="http://www.w3.org/2000/svg" xmlns:xlink="http://www.w3.org/1999/xlink" width="500" zoomAndPan="magnify" viewBox="0 0 375 412.499988" height="550" preserveAspectRatio="xMidYMid meet" version="1.0"><defs><clipPath id="8c432a4900"><path d="M 0.226562 0 L 374.773438 0 L 374.773438 412 L 0.226562 412 Z M 0.226562 0 " clip-rule="nonzero"/></clipPath><clipPath id="4bd6a7d42d"><path d="M 0.226562 44 L 367.28125 44 L 367.28125 411.804688 L 0.226562 411.804688 Z M 0.226562 44 " clip-rule="nonzero"/></clipPath><clipPath id="5b8ccba18b"><path d="M 0.226562 44 L 367.28125 44 L 367.28125 411.804688 L 0.226562 411.804688 Z M 0.226562 44 " clip-rule="nonzero"/></clipPath></defs><g clip-path="url(#8c432a4900)"><path fill="#ffffff" d="M 0.226562 0 L 374.773438 0 L 374.773438 412 L 0.226562 412 Z M 0.226562 0 " fill-opacity="1" fill-rule="nonzero"/><path fill="#ffffff" d="M 0.226562 0 L 374.773438 0 L 374.773438 412 L 0.226562 412 Z M 0.226562 0 " fill-opacity="1" fill-rule="nonzero"/></g><path fill="#4aa5ff" d="M 347.042969 201.398438 L 323.960938 201.398438 C 322.101562 191.789062 319.292969 182.519531 315.628906 173.695312 C 311.964844 164.871094 307.441406 156.492188 302.148438 148.675781 L 310.285156 140.539062 L 318.417969 132.402344 C 321.078125 129.746094 322.40625 126.261719 322.40625 122.78125 C 322.40625 119.296875 321.078125 115.8125 318.417969 113.15625 L 299.171875 93.910156 C 296.515625 91.253906 293.035156 89.925781 289.550781 89.925781 C 286.066406 89.925781 282.585938 91.253906 279.929688 93.910156 L 271.785156 102.050781 L 263.644531 110.195312 C 255.824219 104.90625 247.441406 100.390625 238.613281 96.734375 C 229.789062 93.078125 220.511719 90.28125 210.902344 88.429688 L 210.902344 65.363281 C 210.902344 61.605469 209.378906 58.203125 206.914062 55.742188 C 204.453125 53.277344 201.050781 51.753906 197.292969 51.753906 L 170.074219 51.753906 C 166.316406 51.753906 162.914062 53.277344 160.453125 55.742188 C 157.988281 58.203125 156.464844 61.605469 156.464844 65.363281 L 156.464844 88.445312 C 146.855469 90.304688 137.582031 93.113281 128.761719 96.777344 C 119.9375 100.441406 111.5625 104.964844 103.742188 110.257812 L 87.46875 93.984375 C 84.8125 91.324219 81.328125 89.996094 77.84375 89.996094 C 74.363281 89.996094 70.878906 91.324219 68.222656 93.984375 L 58.597656 103.605469 L 48.976562 113.230469 C 46.320312 115.886719 44.992188 119.371094 44.992188 122.851562 C 44.992188 126.335938 46.320312 129.816406 48.976562 132.476562 L 57.117188 140.617188 L 65.261719 148.757812 C 59.972656 156.582031 55.457031 164.960938 51.800781 173.789062 C 48.144531 182.617188 45.347656 191.894531 43.496094 201.503906 L 20.429688 201.503906 C 16.671875 201.503906 13.269531 203.027344 10.804688 205.492188 C 8.34375 207.953125 6.820312 211.355469 6.820312 215.113281 L 6.820312 242.332031 C 6.820312 246.089844 8.34375 249.492188 10.804688 251.953125 C 13.269531 254.417969 16.671875 255.941406 20.429688 255.941406 L 43.511719 255.941406 C 45.371094 265.550781 48.175781 274.820312 51.839844 283.644531 C 55.503906 292.46875 60.027344 300.84375 65.320312 308.664062 L 57.183594 316.796875 L 49.046875 324.933594 C 46.390625 327.59375 45.0625 331.074219 45.0625 334.558594 C 45.0625 338.039062 46.390625 341.523438 49.046875 344.179688 L 68.292969 363.425781 C 70.953125 366.082031 74.433594 367.414062 77.917969 367.414062 C 81.398438 367.414062 84.882812 366.082031 87.539062 363.425781 L 103.820312 347.144531 C 111.644531 352.433594 120.027344 356.949219 128.855469 360.605469 C 137.683594 364.261719 146.957031 367.058594 156.570312 368.910156 L 156.570312 391.976562 C 156.570312 395.734375 158.09375 399.136719 160.558594 401.601562 C 163.019531 404.0625 166.421875 405.585938 170.179688 405.585938 L 197.398438 405.585938 C 201.15625 405.585938 204.558594 404.0625 207.019531 401.601562 C 209.484375 399.136719 211.007812 395.734375 211.007812 391.976562 L 211.007812 368.894531 C 220.617188 367.035156 229.886719 364.230469 238.710938 360.566406 C 247.535156 356.898438 255.910156 352.375 263.730469 347.085938 L 280 363.355469 C 282.65625 366.011719 286.140625 367.339844 289.621094 367.339844 C 293.105469 367.339844 296.589844 366.011719 299.246094 363.355469 L 308.867188 353.730469 L 318.492188 344.109375 C 321.148438 341.449219 322.476562 337.96875 322.476562 334.484375 C 322.476562 331.003906 321.148438 327.519531 318.492188 324.863281 L 302.210938 308.582031 C 307.5 300.757812 312.015625 292.378906 315.671875 283.550781 C 319.328125 274.722656 322.125 265.449219 323.976562 255.835938 L 347.042969 255.835938 C 350.800781 255.835938 354.203125 254.3125 356.664062 251.847656 C 359.128906 249.386719 360.652344 245.984375 360.652344 242.226562 L 360.652344 215.007812 C 360.652344 211.25 359.128906 207.847656 356.664062 205.386719 C 354.203125 202.921875 350.800781 201.398438 347.042969 201.398438 Z M 347.042969 201.398438 " fill-opacity="1" fill-rule="nonzero"/><path fill="#e6f3ff" d="M 306.214844 228.671875 C 306.214844 262.492188 292.507812 293.113281 270.34375 315.277344 C 248.175781 337.441406 217.558594 351.152344 183.734375 351.152344 C 102.503906 347.925781 61.898438 288.292969 61.902344 228.660156 C 61.910156 169.03125 102.527344 109.402344 183.738281 106.191406 C 217.558594 106.191406 248.179688 119.898438 270.34375 142.0625 C 292.507812 164.230469 306.214844 194.847656 306.214844 228.671875 Z M 306.214844 228.671875 " fill-opacity="1" fill-rule="nonzero"/><g clip-path="url(#4bd6a7d42d)"><path fill="#004aad" d="M 197.398438 412.390625 L 170.179688 412.390625 C 158.921875 412.390625 149.765625 403.234375 149.765625 391.976562 L 149.765625 374.429688 C 133.71875 370.714844 118.613281 364.480469 104.742188 355.847656 L 92.355469 368.234375 C 84.398438 376.1875 71.449219 376.203125 63.480469 368.234375 L 44.238281 348.992188 C 36.277344 341.03125 36.277344 328.085938 44.238281 320.125 L 56.609375 307.746094 C 47.960938 293.871094 41.71875 278.773438 38.003906 262.746094 L 20.429688 262.746094 C 9.171875 262.746094 0.015625 253.589844 0.015625 242.332031 L 0.015625 215.113281 C 0.015625 203.859375 9.171875 194.703125 20.429688 194.703125 L 37.976562 194.703125 C 41.691406 178.648438 47.925781 163.550781 56.558594 149.675781 L 44.164062 137.289062 C 36.203125 129.328125 36.203125 116.378906 44.164062 108.417969 L 63.410156 89.171875 C 71.363281 81.21875 84.3125 81.207031 92.28125 89.171875 L 104.660156 101.546875 C 118.535156 92.894531 133.632812 86.65625 149.660156 82.941406 L 149.660156 65.363281 C 149.660156 54.105469 158.816406 44.949219 170.074219 44.949219 L 197.292969 44.949219 C 208.546875 44.949219 217.703125 54.105469 217.703125 65.363281 L 217.703125 82.914062 C 233.753906 86.628906 248.855469 92.855469 262.730469 101.484375 L 275.117188 89.101562 C 283.078125 81.140625 296.023438 81.140625 303.984375 89.101562 L 323.234375 108.34375 C 331.1875 116.304688 331.1875 129.253906 323.238281 137.214844 L 310.859375 149.589844 C 319.511719 163.46875 325.753906 178.566406 329.464844 194.59375 L 347.042969 194.59375 C 358.300781 194.59375 367.457031 203.75 367.457031 215.007812 L 367.457031 242.226562 C 367.457031 253.484375 358.300781 262.640625 347.042969 262.640625 L 329.492188 262.640625 C 325.777344 278.695312 319.546875 293.792969 310.914062 307.664062 L 323.300781 320.050781 C 331.261719 328.011719 331.261719 340.957031 323.300781 348.917969 L 304.054688 368.167969 C 296.089844 376.121094 283.144531 376.117188 275.191406 368.175781 L 262.8125 355.796875 C 248.9375 364.445312 233.839844 370.6875 217.8125 374.402344 L 217.8125 391.976562 C 217.8125 403.234375 208.65625 412.390625 197.398438 412.390625 Z M 103.824219 340.339844 C 105.144531 340.339844 106.476562 340.722656 107.632812 341.507812 C 122.792969 351.753906 139.691406 358.726562 157.859375 362.234375 C 161.0625 362.84375 163.375 365.648438 163.375 368.914062 L 163.375 391.976562 C 163.375 395.730469 166.425781 398.78125 170.179688 398.78125 L 197.398438 398.78125 C 201.152344 398.78125 204.203125 395.730469 204.203125 391.976562 L 204.203125 368.890625 C 204.203125 365.628906 206.515625 362.832031 209.71875 362.214844 C 227.851562 358.707031 244.742188 351.722656 259.914062 341.449219 C 262.617188 339.628906 266.234375 339.96875 268.539062 342.273438 L 284.8125 358.546875 C 287.457031 361.191406 291.789062 361.199219 294.433594 358.539062 L 313.679688 339.296875 C 316.328125 336.644531 316.328125 332.324219 313.679688 329.675781 L 297.398438 313.394531 C 295.09375 311.089844 294.746094 307.472656 296.574219 304.773438 C 306.820312 289.613281 313.792969 272.714844 317.300781 254.546875 C 317.910156 251.34375 320.714844 249.03125 323.976562 249.03125 L 347.042969 249.03125 C 350.796875 249.03125 353.847656 245.980469 353.847656 242.226562 L 353.847656 215.007812 C 353.847656 211.253906 350.796875 208.203125 347.042969 208.203125 L 323.957031 208.203125 C 320.695312 208.203125 317.898438 205.890625 317.28125 202.6875 C 313.769531 184.554688 306.789062 167.664062 296.515625 152.484375 C 294.6875 149.78125 295.03125 146.167969 297.339844 143.859375 L 313.613281 127.59375 C 316.261719 124.941406 316.261719 120.617188 313.605469 117.964844 L 294.359375 98.722656 C 291.703125 96.078125 287.398438 96.0625 284.738281 98.722656 L 268.460938 115 C 266.152344 117.3125 262.539062 117.644531 259.839844 115.832031 C 244.675781 105.585938 227.777344 98.617188 209.609375 95.105469 C 206.410156 94.496094 204.097656 91.691406 204.097656 88.429688 L 204.097656 65.363281 C 204.097656 61.609375 201.046875 58.558594 197.292969 58.558594 L 170.074219 58.558594 C 166.320312 58.558594 163.269531 61.609375 163.269531 65.363281 L 163.269531 88.449219 C 163.269531 91.710938 160.957031 94.507812 157.753906 95.125 C 139.621094 98.636719 122.726562 105.617188 107.558594 115.890625 C 104.851562 117.71875 101.246094 117.378906 98.933594 115.066406 L 82.660156 98.792969 C 79.996094 96.128906 75.683594 96.144531 73.03125 98.792969 L 53.785156 118.039062 C 51.136719 120.695312 51.136719 125.007812 53.785156 127.667969 L 70.074219 143.945312 C 72.378906 146.253906 72.726562 149.867188 70.898438 152.566406 C 60.652344 167.730469 53.679688 184.628906 50.171875 202.796875 C 49.5625 205.996094 46.757812 208.308594 43.492188 208.308594 L 20.429688 208.308594 C 16.675781 208.308594 13.625 211.359375 13.625 215.113281 L 13.625 242.332031 C 13.625 246.085938 16.675781 249.136719 20.429688 249.136719 L 43.511719 249.136719 C 46.777344 249.136719 49.574219 251.449219 50.191406 254.652344 C 53.699219 272.785156 60.683594 289.679688 70.957031 304.847656 C 72.785156 307.546875 72.4375 311.167969 70.132812 313.472656 L 53.859375 329.746094 C 51.207031 332.398438 51.207031 336.71875 53.859375 339.367188 L 73.105469 358.613281 C 75.769531 361.277344 80.082031 361.265625 82.730469 358.613281 L 99.011719 342.332031 C 100.328125 341.015625 102.070312 340.339844 103.824219 340.339844 Z M 103.824219 340.339844 " fill-opacity="1" fill-rule="nonzero"/></g><path fill="#e6f3ff" d="M 81.667969 112.996094 C 81.667969 84.808594 93.09375 59.292969 111.5625 40.824219 C 130.035156 22.351562 155.550781 10.929688 183.734375 10.929688 C 251.429688 13.617188 285.269531 63.3125 285.261719 113.003906 C 285.257812 162.695312 251.410156 212.382812 183.734375 215.0625 C 155.550781 215.0625 130.035156 203.636719 111.5625 185.167969 C 93.09375 166.695312 81.667969 141.179688 81.667969 112.996094 Z M 81.667969 112.996094 " fill-opacity="1" fill-rule="nonzero"/><path fill="#004aad" d="M 183.734375 221.867188 C 123.707031 221.867188 74.863281 173.027344 74.863281 112.996094 C 80.847656 -31.4375 286.648438 -31.394531 292.605469 112.996094 C 292.605469 173.027344 243.765625 221.867188 183.734375 221.867188 Z M 183.734375 17.734375 C 131.207031 17.734375 88.472656 60.464844 88.472656 112.996094 C 93.707031 239.375 273.785156 239.335938 279 112.996094 C 278.996094 60.464844 236.265625 17.734375 183.734375 17.734375 Z M 183.734375 17.734375 " fill-opacity="1" fill-rule="nonzero"/><path fill="#4aa5ff" d="M 258.585938 122.890625 L 238.171875 122.890625 C 233.703125 122.816406 231.464844 119.449219 231.464844 116.085938 C 231.460938 112.71875 233.695312 109.355469 238.171875 109.28125 C 238.171875 109.28125 243.273438 109.28125 248.378906 109.28125 C 253.480469 109.28125 258.585938 109.28125 258.585938 109.28125 C 263.054688 109.351562 265.292969 112.71875 265.292969 116.085938 C 265.292969 119.449219 263.058594 122.816406 258.585938 122.890625 Z M 258.585938 122.890625 " fill-opacity="1" fill-rule="nonzero"/><path fill="#4aa5ff" d="M 231.375 89.179688 C 228.035156 89.308594 225.671875 86.933594 224.902344 84.128906 C 224.128906 81.324219 224.949219 78.085938 227.964844 76.480469 C 227.964844 76.480469 232.382812 73.929688 236.800781 71.378906 C 241.222656 68.824219 245.640625 66.273438 245.640625 66.273438 C 249.539062 64.101562 253.160156 65.898438 254.847656 68.808594 C 256.535156 71.722656 256.289062 75.757812 252.445312 78.0625 C 251.269531 78.554688 246.613281 81.496094 241.941406 84.234375 C 237.273438 86.972656 232.59375 89.503906 231.375 89.179688 Z M 231.375 89.179688 " fill-opacity="1" fill-rule="nonzero"/><path fill="#4aa5ff" d="M 249.035156 166.8125 C 247.859375 167.15625 243.15625 164.613281 238.464844 161.863281 C 233.777344 159.113281 229.097656 156.164062 227.964844 155.695312 C 224.128906 153.394531 223.875 149.359375 225.558594 146.445312 C 227.242188 143.53125 230.859375 141.734375 234.769531 143.90625 C 234.769531 143.90625 239.1875 146.460938 243.605469 149.011719 C 248.027344 151.5625 252.445312 154.113281 252.445312 154.113281 C 255.457031 155.714844 256.277344 158.957031 255.507812 161.761719 C 254.738281 164.570312 252.378906 166.941406 249.035156 166.8125 Z M 249.035156 166.8125 " fill-opacity="1" fill-rule="nonzero"/><path fill="#4aa5ff" d="M 129.300781 122.890625 L 108.886719 122.890625 C 104.417969 122.816406 102.179688 119.449219 102.179688 116.085938 C 102.179688 112.71875 104.414062 109.355469 108.886719 109.28125 C 108.886719 109.28125 113.992188 109.28125 119.09375 109.28125 C 124.195312 109.28125 129.300781 109.28125 129.300781 109.28125 C 133.769531 109.351562 136.007812 112.71875 136.007812 116.085938 C 136.007812 119.449219 133.773438 122.816406 129.300781 122.890625 Z M 129.300781 122.890625 " fill-opacity="1" fill-rule="nonzero"/><path fill="#4aa5ff" d="M 136.097656 89.179688 C 134.921875 89.523438 130.21875 86.980469 125.527344 84.230469 C 120.839844 81.480469 116.160156 78.53125 115.027344 78.0625 C 111.191406 75.761719 110.9375 71.726562 112.617188 68.8125 C 114.300781 65.898438 117.917969 64.101562 121.832031 66.273438 C 121.832031 66.273438 126.25 68.824219 130.667969 71.378906 C 135.089844 73.929688 139.507812 76.480469 139.507812 76.480469 C 142.519531 78.082031 143.339844 81.324219 142.570312 84.128906 C 141.800781 86.9375 139.441406 89.308594 136.097656 89.179688 Z M 136.097656 89.179688 " fill-opacity="1" fill-rule="nonzero"/><path fill="#4aa5ff" d="M 118.4375 166.8125 C 115.097656 166.941406 112.734375 164.566406 111.964844 161.761719 C 111.191406 158.957031 112.011719 155.71875 115.027344 154.113281 C 115.027344 154.113281 119.445312 151.5625 123.863281 149.011719 C 128.285156 146.460938 132.703125 143.90625 132.703125 143.90625 C 136.601562 141.734375 140.222656 143.53125 141.910156 146.445312 C 143.597656 149.359375 143.351562 153.390625 139.507812 155.695312 C 138.332031 156.1875 133.671875 159.128906 129.003906 161.867188 C 124.335938 164.605469 119.65625 167.136719 118.4375 166.8125 Z M 118.4375 166.8125 " fill-opacity="1" fill-rule="nonzero"/><path fill="#e6f3ff" d="M 122.496094 218.464844 C 122.496094 213.765625 124.398438 209.511719 127.476562 206.433594 C 130.554688 203.355469 134.808594 201.453125 139.507812 201.453125 L 227.964844 201.453125 C 232.664062 201.453125 236.914062 203.355469 239.992188 206.433594 C 243.070312 209.511719 244.976562 213.765625 244.976562 218.464844 C 244.976562 223.160156 243.070312 227.414062 239.992188 230.492188 C 236.914062 233.570312 232.664062 235.476562 227.964844 235.476562 L 139.507812 235.476562 C 134.808594 235.476562 130.558594 233.570312 127.476562 230.492188 C 124.398438 227.414062 122.496094 223.160156 122.496094 218.464844 Z M 122.496094 218.464844 " fill-opacity="1" fill-rule="nonzero"/><path fill="#e6f3ff" d="M 122.496094 252.484375 C 122.496094 247.789062 124.398438 243.535156 127.476562 240.457031 C 130.554688 237.378906 134.808594 235.476562 139.507812 235.476562 L 227.964844 235.476562 C 232.664062 235.476562 236.914062 237.378906 239.992188 240.457031 C 243.070312 243.535156 244.976562 247.789062 244.976562 252.484375 C 244.976562 257.183594 243.070312 261.4375 239.992188 264.515625 C 236.914062 267.59375 232.664062 269.496094 227.964844 269.496094 L 139.507812 269.496094 C 134.808594 269.496094 130.558594 267.59375 127.476562 264.515625 C 124.398438 261.4375 122.496094 257.183594 122.496094 252.484375 Z M 122.496094 252.484375 " fill-opacity="1" fill-rule="nonzero"/><path fill="#004aad" d="M 227.964844 276.300781 L 139.507812 276.300781 C 108.058594 275.308594 108.019531 229.675781 139.507812 228.671875 C 139.507812 228.671875 227.964844 228.671875 227.964844 228.671875 C 259.414062 229.660156 259.453125 275.296875 227.964844 276.300781 Z M 139.507812 242.28125 C 126.121094 242.511719 126.074219 262.453125 139.507812 262.691406 C 139.507812 262.691406 227.964844 262.691406 227.964844 262.691406 C 241.351562 262.460938 241.398438 242.519531 227.964844 242.28125 C 227.964844 242.28125 139.507812 242.28125 139.507812 242.28125 Z M 139.507812 242.28125 " fill-opacity="1" fill-rule="nonzero"/><path fill="#4aa5ff" d="M 156.519531 283.105469 L 156.519531 269.496094 L 210.953125 269.496094 L 210.953125 283.105469 C 210.398438 301.097656 197.066406 310.085938 183.734375 310.085938 C 170.402344 310.082031 157.070312 301.089844 156.519531 283.105469 Z M 156.519531 283.105469 " fill-opacity="1" fill-rule="nonzero"/><path fill="#004aad" d="M 183.734375 317.128906 C 164.976562 317.128906 149.714844 301.863281 149.714844 283.105469 L 149.714844 269.496094 C 149.714844 265.734375 152.757812 262.691406 156.519531 262.691406 L 210.953125 262.691406 C 214.714844 262.691406 217.757812 265.734375 217.757812 269.496094 L 217.757812 283.105469 C 217.757812 301.863281 202.496094 317.128906 183.734375 317.128906 Z M 163.324219 276.300781 L 163.324219 283.105469 C 163.324219 294.363281 172.480469 303.519531 183.734375 303.519531 C 194.992188 303.519531 204.148438 294.363281 204.148438 283.105469 L 204.148438 276.300781 Z M 163.324219 276.300781 " fill-opacity="1" fill-rule="nonzero"/><path fill="#4aa5ff" d="M 183.734375 126.605469 C 176.230469 126.605469 169.425781 129.65625 164.496094 134.582031 C 159.570312 139.511719 156.519531 146.316406 156.519531 153.820312 L 156.519531 201.453125 C 156.519531 203.332031 157.277344 205.035156 158.511719 206.265625 C 159.742188 207.496094 161.441406 208.257812 163.324219 208.257812 L 204.148438 208.257812 C 206.03125 208.257812 207.730469 207.496094 208.960938 206.265625 C 210.191406 205.035156 210.953125 203.332031 210.953125 201.453125 L 210.953125 153.820312 C 210.953125 146.316406 207.902344 139.511719 202.972656 134.582031 C 198.046875 129.65625 191.242188 126.605469 183.734375 126.605469 Z M 183.734375 126.605469 " fill-opacity="1" fill-rule="nonzero"/><path fill="#004aad" d="M 227.964844 242.28125 L 139.507812 242.28125 C 108.058594 241.289062 108.019531 195.652344 139.507812 194.648438 C 139.507812 194.648438 227.964844 194.648438 227.964844 194.648438 C 259.414062 195.640625 259.453125 241.277344 227.964844 242.28125 Z M 139.507812 208.257812 C 126.121094 208.488281 126.074219 228.429688 139.507812 228.671875 C 139.507812 228.671875 227.964844 228.671875 227.964844 228.671875 C 241.351562 228.441406 241.398438 208.496094 227.964844 208.257812 C 227.964844 208.257812 139.507812 208.257812 139.507812 208.257812 Z M 139.507812 208.257812 " fill-opacity="1" fill-rule="nonzero"/><path fill="#4aa5ff" d="M 347.042969 201.398438 L 323.960938 201.398438 C 322.101562 191.789062 319.292969 182.519531 315.628906 173.695312 C 311.964844 164.871094 307.441406 156.492188 302.148438 148.675781 L 310.285156 140.539062 L 318.417969 132.402344 C 321.078125 129.746094 322.40625 126.261719 322.40625 122.78125 C 322.40625 119.296875 321.078125 115.8125 318.417969 113.15625 L 299.171875 93.910156 C 296.515625 91.253906 293.035156 89.925781 289.550781 89.925781 C 286.066406 89.925781 282.585938 91.253906 279.929688 93.910156 L 271.785156 102.050781 L 263.644531 110.195312 C 255.824219 104.90625 247.441406 100.390625 238.613281 96.734375 C 229.789062 93.078125 220.511719 90.28125 210.902344 88.429688 L 210.902344 65.363281 C 210.902344 61.605469 209.378906 58.203125 206.914062 55.742188 C 204.453125 53.277344 201.050781 51.753906 197.292969 51.753906 L 170.074219 51.753906 C 166.316406 51.753906 162.914062 53.277344 160.453125 55.742188 C 157.988281 58.203125 156.464844 61.605469 156.464844 65.363281 L 156.464844 88.445312 C 146.855469 90.304688 137.582031 93.113281 128.761719 96.777344 C 119.9375 100.441406 111.5625 104.964844 103.742188 110.257812 L 87.46875 93.984375 C 84.8125 91.324219 81.328125 89.996094 77.84375 89.996094 C 74.363281 89.996094 70.878906 91.324219 68.222656 93.984375 L 58.597656 103.605469 L 48.976562 113.230469 C 46.320312 115.886719 44.992188 119.371094 44.992188 122.851562 C 44.992188 126.335938 46.320312 129.816406 48.976562 132.476562 L 57.117188 140.617188 L 65.261719 148.757812 C 59.972656 156.582031 55.457031 164.960938 51.800781 173.789062 C 48.144531 182.617188 45.347656 191.894531 43.496094 201.503906 L 20.429688 201.503906 C 16.671875 201.503906 13.269531 203.027344 10.804688 205.492188 C 8.34375 207.953125 6.820312 211.355469 6.820312 215.113281 L 6.820312 242.332031 C 6.820312 246.089844 8.34375 249.492188 10.804688 251.953125 C 13.269531 254.417969 16.671875 255.941406 20.429688 255.941406 L 43.511719 255.941406 C 45.371094 265.550781 48.175781 274.820312 51.839844 283.644531 C 55.503906 292.46875 60.027344 300.84375 65.320312 308.664062 L 57.183594 316.796875 L 49.046875 324.933594 C 46.390625 327.59375 45.0625 331.074219 45.0625 334.558594 C 45.0625 338.039062 46.390625 341.523438 49.046875 344.179688 L 68.292969 363.425781 C 70.953125 366.082031 74.433594 367.414062 77.917969 367.414062 C 81.398438 367.414062 84.882812 366.082031 87.539062 363.425781 L 103.820312 347.144531 C 111.644531 352.433594 120.027344 356.949219 128.855469 360.605469 C 137.683594 364.261719 146.957031 367.058594 156.570312 368.910156 L 156.570312 391.976562 C 156.570312 395.734375 158.09375 399.136719 160.558594 401.601562 C 163.019531 404.0625 166.421875 405.585938 170.179688 405.585938 L 197.398438 405.585938 C 201.15625 405.585938 204.558594 404.0625 207.019531 401.601562 C 209.484375 399.136719 211.007812 395.734375 211.007812 391.976562 L 211.007812 368.894531 C 220.617188 367.035156 229.886719 364.230469 238.710938 360.566406 C 247.535156 356.898438 255.910156 352.375 263.730469 347.085938 L 280 363.355469 C 282.65625 366.011719 286.140625 367.339844 289.621094 367.339844 C 293.105469 367.339844 296.589844 366.011719 299.246094 363.355469 L 308.867188 353.730469 L 318.492188 344.109375 C 321.148438 341.449219 322.476562 337.96875 322.476562 334.484375 C 322.476562 331.003906 321.148438 327.519531 318.492188 324.863281 L 302.210938 308.582031 C 307.5 300.757812 312.015625 292.378906 315.671875 283.550781 C 319.328125 274.722656 322.125 265.449219 323.976562 255.835938 L 347.042969 255.835938 C 350.800781 255.835938 354.203125 254.3125 356.664062 251.847656 C 359.128906 249.386719 360.652344 245.984375 360.652344 242.226562 L 360.652344 215.007812 C 360.652344 211.25 359.128906 207.847656 356.664062 205.386719 C 354.203125 202.921875 350.800781 201.398438 347.042969 201.398438 Z M 347.042969 201.398438 " fill-opacity="1" fill-rule="nonzero"/><path fill="#e6f3ff" d="M 306.214844 228.671875 C 306.214844 262.492188 292.507812 293.113281 270.34375 315.277344 C 248.175781 337.441406 217.558594 351.152344 183.734375 351.152344 C 102.503906 347.925781 61.898438 288.292969 61.902344 228.660156 C 61.910156 169.03125 102.527344 109.402344 183.738281 106.191406 C 217.558594 106.191406 248.179688 119.898438 270.34375 142.0625 C 292.507812 164.230469 306.214844 194.847656 306.214844 228.671875 Z M 306.214844 228.671875 " fill-opacity="1" fill-rule="nonzero"/><g clip-path="url(#5b8ccba18b)"><path fill="#004aad" d="M 197.398438 412.390625 L 170.179688 412.390625 C 158.921875 412.390625 149.765625 403.234375 149.765625 391.976562 L 149.765625 374.429688 C 133.71875 370.714844 118.613281 364.480469 104.742188 355.847656 L 92.355469 368.234375 C 84.398438 376.1875 71.449219 376.203125 63.480469 368.234375 L 44.238281 348.992188 C 36.277344 341.03125 36.277344 328.085938 44.238281 320.125 L 56.609375 307.746094 C 47.960938 293.871094 41.71875 278.773438 38.003906 262.746094 L 20.429688 262.746094 C 9.171875 262.746094 0.015625 253.589844 0.015625 242.332031 L 0.015625 215.113281 C 0.015625 203.859375 9.171875 194.703125 20.429688 194.703125 L 37.976562 194.703125 C 41.691406 178.648438 47.925781 163.550781 56.558594 149.675781 L 44.164062 137.289062 C 36.203125 129.328125 36.203125 116.378906 44.164062 108.417969 L 63.410156 89.171875 C 71.363281 81.21875 84.3125 81.207031 92.28125 89.171875 L 104.660156 101.546875 C 118.535156 92.894531 133.632812 86.65625 149.660156 82.941406 L 149.660156 65.363281 C 149.660156 54.105469 158.816406 44.949219 170.074219 44.949219 L 197.292969 44.949219 C 208.546875 44.949219 217.703125 54.105469 217.703125 65.363281 L 217.703125 82.914062 C 233.753906 86.628906 248.855469 92.855469 262.730469 101.484375 L 275.117188 89.101562 C 283.078125 81.140625 296.023438 81.140625 303.984375 89.101562 L 323.234375 108.34375 C 331.1875 116.304688 331.1875 129.253906 323.238281 137.214844 L 310.859375 149.589844 C 319.511719 163.46875 325.753906 178.566406 329.464844 194.59375 L 347.042969 194.59375 C 358.300781 194.59375 367.457031 203.75 367.457031 215.007812 L 367.457031 242.226562 C 367.457031 253.484375 358.300781 262.640625 347.042969 262.640625 L 329.492188 262.640625 C 325.777344 278.695312 319.546875 293.792969 310.914062 307.664062 L 323.300781 320.050781 C 331.261719 328.011719 331.261719 340.957031 323.300781 348.917969 L 304.054688 368.167969 C 296.089844 376.121094 283.144531 376.117188 275.191406 368.175781 L 262.8125 355.796875 C 248.9375 364.445312 233.839844 370.6875 217.8125 374.402344 L 217.8125 391.976562 C 217.8125 403.234375 208.65625 412.390625 197.398438 412.390625 Z M 103.824219 340.339844 C 105.144531 340.339844 106.476562 340.722656 107.632812 341.507812 C 122.792969 351.753906 139.691406 358.726562 157.859375 362.234375 C 161.0625 362.84375 163.375 365.648438 163.375 368.914062 L 163.375 391.976562 C 163.375 395.730469 166.425781 398.78125 170.179688 398.78125 L 197.398438 398.78125 C 201.152344 398.78125 204.203125 395.730469 204.203125 391.976562 L 204.203125 368.890625 C 204.203125 365.628906 206.515625 362.832031 209.71875 362.214844 C 227.851562 358.707031 244.742188 351.722656 259.914062 341.449219 C 262.617188 339.628906 266.234375 339.96875 268.539062 342.273438 L 284.8125 358.546875 C 287.457031 361.191406 291.789062 361.199219 294.433594 358.539062 L 313.679688 339.296875 C 316.328125 336.644531 316.328125 332.324219 313.679688 329.675781 L 297.398438 313.394531 C 295.09375 311.089844 294.746094 307.472656 296.574219 304.773438 C 306.820312 289.613281 313.792969 272.714844 317.300781 254.546875 C 317.910156 251.34375 320.714844 249.03125 323.976562 249.03125 L 347.042969 249.03125 C 350.796875 249.03125 353.847656 245.980469 353.847656 242.226562 L 353.847656 215.007812 C 353.847656 211.253906 350.796875 208.203125 347.042969 208.203125 L 323.957031 208.203125 C 320.695312 208.203125 317.898438 205.890625 317.28125 202.6875 C 313.769531 184.554688 306.789062 167.664062 296.515625 152.484375 C 294.6875 149.78125 295.03125 146.167969 297.339844 143.859375 L 313.613281 127.59375 C 316.261719 124.941406 316.261719 120.617188 313.605469 117.964844 L 294.359375 98.722656 C 291.703125 96.078125 287.398438 96.0625 284.738281 98.722656 L 268.460938 115 C 266.152344 117.3125 262.539062 117.644531 259.839844 115.832031 C 244.675781 105.585938 227.777344 98.617188 209.609375 95.105469 C 206.410156 94.496094 204.097656 91.691406 204.097656 88.429688 L 204.097656 65.363281 C 204.097656 61.609375 201.046875 58.558594 197.292969 58.558594 L 170.074219 58.558594 C 166.320312 58.558594 163.269531 61.609375 163.269531 65.363281 L 163.269531 88.449219 C 163.269531 91.710938 160.957031 94.507812 157.753906 95.125 C 139.621094 98.636719 122.726562 105.617188 107.558594 115.890625 C 104.851562 117.71875 101.246094 117.378906 98.933594 115.066406 L 82.660156 98.792969 C 79.996094 96.128906 75.683594 96.144531 73.03125 98.792969 L 53.785156 118.039062 C 51.136719 120.695312 51.136719 125.007812 53.785156 127.667969 L 70.074219 143.945312 C 72.378906 146.253906 72.726562 149.867188 70.898438 152.566406 C 60.652344 167.730469 53.679688 184.628906 50.171875 202.796875 C 49.5625 205.996094 46.757812 208.308594 43.492188 208.308594 L 20.429688 208.308594 C 16.675781 208.308594 13.625 211.359375 13.625 215.113281 L 13.625 242.332031 C 13.625 246.085938 16.675781 249.136719 20.429688 249.136719 L 43.511719 249.136719 C 46.777344 249.136719 49.574219 251.449219 50.191406 254.652344 C 53.699219 272.785156 60.683594 289.679688 70.957031 304.847656 C 72.785156 307.546875 72.4375 311.167969 70.132812 313.472656 L 53.859375 329.746094 C 51.207031 332.398438 51.207031 336.71875 53.859375 339.367188 L 73.105469 358.613281 C 75.769531 361.277344 80.082031 361.265625 82.730469 358.613281 L 99.011719 342.332031 C 100.328125 341.015625 102.070312 340.339844 103.824219 340.339844 Z M 103.824219 340.339844 " fill-opacity="1" fill-rule="nonzero"/></g><path fill="#e6f3ff" d="M 81.667969 112.996094 C 81.667969 84.808594 93.09375 59.292969 111.5625 40.824219 C 130.035156 22.351562 155.550781 10.929688 183.734375 10.929688 C 251.429688 13.617188 285.269531 63.3125 285.261719 113.003906 C 285.257812 162.695312 251.410156 212.382812 183.734375 215.0625 C 155.550781 215.0625 130.035156 203.636719 111.5625 185.167969 C 93.09375 166.695312 81.667969 141.179688 81.667969 112.996094 Z M 81.667969 112.996094 " fill-opacity="1" fill-rule="nonzero"/><path fill="#004aad" d="M 183.734375 221.867188 C 123.707031 221.867188 74.863281 173.027344 74.863281 112.996094 C 80.847656 -31.4375 286.648438 -31.394531 292.605469 112.996094 C 292.605469 173.027344 243.765625 221.867188 183.734375 221.867188 Z M 183.734375 17.734375 C 131.207031 17.734375 88.472656 60.464844 88.472656 112.996094 C 93.707031 239.375 273.785156 239.335938 279 112.996094 C 278.996094 60.464844 236.265625 17.734375 183.734375 17.734375 Z M 183.734375 17.734375 " fill-opacity="1" fill-rule="nonzero"/><path fill="#4aa5ff" d="M 258.585938 122.890625 L 238.171875 122.890625 C 233.703125 122.816406 231.464844 119.449219 231.464844 116.085938 C 231.460938 112.71875 233.695312 109.355469 238.171875 109.28125 C 238.171875 109.28125 243.273438 109.28125 248.378906 109.28125 C 253.480469 109.28125 258.585938 109.28125 258.585938 109.28125 C 263.054688 109.351562 265.292969 112.71875 265.292969 116.085938 C 265.292969 119.449219 263.058594 122.816406 258.585938 122.890625 Z M 258.585938 122.890625 " fill-opacity="1" fill-rule="nonzero"/><path fill="#4aa5ff" d="M 231.375 89.179688 C 228.035156 89.308594 225.671875 86.933594 224.902344 84.128906 C 224.128906 81.324219 224.949219 78.085938 227.964844 76.480469 C 227.964844 76.480469 232.382812 73.929688 236.800781 71.378906 C 241.222656 68.824219 245.640625 66.273438 245.640625 66.273438 C 249.539062 64.101562 253.160156 65.898438 254.847656 68.808594 C 256.535156 71.722656 256.289062 75.757812 252.445312 78.0625 C 251.269531 78.554688 246.613281 81.496094 241.941406 84.234375 C 237.273438 86.972656 232.59375 89.503906 231.375 89.179688 Z M 231.375 89.179688 " fill-opacity="1" fill-rule="nonzero"/><path fill="#4aa5ff" d="M 249.035156 166.8125 C 247.859375 167.15625 243.15625 164.613281 238.464844 161.863281 C 233.777344 159.113281 229.097656 156.164062 227.964844 155.695312 C 224.128906 153.394531 223.875 149.359375 225.558594 146.445312 C 227.242188 143.53125 230.859375 141.734375 234.769531 143.90625 C 234.769531 143.90625 239.1875 146.460938 243.605469 149.011719 C 248.027344 151.5625 252.445312 154.113281 252.445312 154.113281 C 255.457031 155.714844 256.277344 158.957031 255.507812 161.761719 C 254.738281 164.570312 252.378906 166.941406 249.035156 166.8125 Z M 249.035156 166.8125 " fill-opacity="1" fill-rule="nonzero"/><path fill="#4aa5ff" d="M 129.300781 122.890625 L 108.886719 122.890625 C 104.417969 122.816406 102.179688 119.449219 102.179688 116.085938 C 102.179688 112.71875 104.414062 109.355469 108.886719 109.28125 C 108.886719 109.28125 113.992188 109.28125 119.09375 109.28125 C 124.195312 109.28125 129.300781 109.28125 129.300781 109.28125 C 133.769531 109.351562 136.007812 112.71875 136.007812 116.085938 C 136.007812 119.449219 133.773438 122.816406 129.300781 122.890625 Z M 129.300781 122.890625 " fill-opacity="1" fill-rule="nonzero"/><path fill="#4aa5ff" d="M 136.097656 89.179688 C 134.921875 89.523438 130.21875 86.980469 125.527344 84.230469 C 120.839844 81.480469 116.160156 78.53125 115.027344 78.0625 C 111.191406 75.761719 110.9375 71.726562 112.617188 68.8125 C 114.300781 65.898438 117.917969 64.101562 121.832031 66.273438 C 121.832031 66.273438 126.25 68.824219 130.667969 71.378906 C 135.089844 73.929688 139.507812 76.480469 139.507812 76.480469 C 142.519531 78.082031 143.339844 81.324219 142.570312 84.128906 C 141.800781 86.9375 139.441406 89.308594 136.097656 89.179688 Z M 136.097656 89.179688 " fill-opacity="1" fill-rule="nonzero"/><path fill="#4aa5ff" d="M 118.4375 166.8125 C 115.097656 166.941406 112.734375 164.566406 111.964844 161.761719 C 111.191406 158.957031 112.011719 155.71875 115.027344 154.113281 C 115.027344 154.113281 119.445312 151.5625 123.863281 149.011719 C 128.285156 146.460938 132.703125 143.90625 132.703125 143.90625 C 136.601562 141.734375 140.222656 143.53125 141.910156 146.445312 C 143.597656 149.359375 143.351562 153.390625 139.507812 155.695312 C 138.332031 156.1875 133.671875 159.128906 129.003906 161.867188 C 124.335938 164.605469 119.65625 167.136719 118.4375 166.8125 Z M 118.4375 166.8125 " fill-opacity="1" fill-rule="nonzero"/><path fill="#e6f3ff" d="M 122.496094 218.464844 C 122.496094 213.765625 124.398438 209.511719 127.476562 206.433594 C 130.554688 203.355469 134.808594 201.453125 139.507812 201.453125 L 227.964844 201.453125 C 232.664062 201.453125 236.914062 203.355469 239.992188 206.433594 C 243.070312 209.511719 244.976562 213.765625 244.976562 218.464844 C 244.976562 223.160156 243.070312 227.414062 239.992188 230.492188 C 236.914062 233.570312 232.664062 235.476562 227.964844 235.476562 L 139.507812 235.476562 C 134.808594 235.476562 130.558594 233.570312 127.476562 230.492188 C 124.398438 227.414062 122.496094 223.160156 122.496094 218.464844 Z M 122.496094 218.464844 " fill-opacity="1" fill-rule="nonzero"/><path fill="#e6f3ff" d="M 122.496094 252.484375 C 122.496094 247.789062 124.398438 243.535156 127.476562 240.457031 C 130.554688 237.378906 134.808594 235.476562 139.507812 235.476562 L 227.964844 235.476562 C 232.664062 235.476562 236.914062 237.378906 239.992188 240.457031 C 243.070312 243.535156 244.976562 247.789062 244.976562 252.484375 C 244.976562 257.183594 243.070312 261.4375 239.992188 264.515625 C 236.914062 267.59375 232.664062 269.496094 227.964844 269.496094 L 139.507812 269.496094 C 134.808594 269.496094 130.558594 267.59375 127.476562 264.515625 C 124.398438 261.4375 122.496094 257.183594 122.496094 252.484375 Z M 122.496094 252.484375 " fill-opacity="1" fill-rule="nonzero"/><path fill="#004aad" d="M 227.964844 276.300781 L 139.507812 276.300781 C 108.058594 275.308594 108.019531 229.675781 139.507812 228.671875 C 139.507812 228.671875 227.964844 228.671875 227.964844 228.671875 C 259.414062 229.660156 259.453125 275.296875 227.964844 276.300781 Z M 139.507812 242.28125 C 126.121094 242.511719 126.074219 262.453125 139.507812 262.691406 C 139.507812 262.691406 227.964844 262.691406 227.964844 262.691406 C 241.351562 262.460938 241.398438 242.519531 227.964844 242.28125 C 227.964844 242.28125 139.507812 242.28125 139.507812 242.28125 Z M 139.507812 242.28125 " fill-opacity="1" fill-rule="nonzero"/><path fill="#4aa5ff" d="M 156.519531 283.105469 L 156.519531 269.496094 L 210.953125 269.496094 L 210.953125 283.105469 C 210.398438 301.097656 197.066406 310.085938 183.734375 310.085938 C 170.402344 310.082031 157.070312 301.089844 156.519531 283.105469 Z M 156.519531 283.105469 " fill-opacity="1" fill-rule="nonzero"/><path fill="#004aad" d="M 183.734375 317.128906 C 164.976562 317.128906 149.714844 301.863281 149.714844 283.105469 L 149.714844 269.496094 C 149.714844 265.734375 152.757812 262.691406 156.519531 262.691406 L 210.953125 262.691406 C 214.714844 262.691406 217.757812 265.734375 217.757812 269.496094 L 217.757812 283.105469 C 217.757812 301.863281 202.496094 317.128906 183.734375 317.128906 Z M 163.324219 276.300781 L 163.324219 283.105469 C 163.324219 294.363281 172.480469 303.519531 183.734375 303.519531 C 194.992188 303.519531 204.148438 294.363281 204.148438 283.105469 L 204.148438 276.300781 Z M 163.324219 276.300781 " fill-opacity="1" fill-rule="nonzero"/><path fill="#4aa5ff" d="M 183.734375 126.605469 C 176.230469 126.605469 169.425781 129.65625 164.496094 134.582031 C 159.570312 139.511719 156.519531 146.316406 156.519531 153.820312 L 156.519531 201.453125 C 156.519531 203.332031 157.277344 205.035156 158.511719 206.265625 C 159.742188 207.496094 161.441406 208.257812 163.324219 208.257812 L 204.148438 208.257812 C 206.03125 208.257812 207.730469 207.496094 208.960938 206.265625 C 210.191406 205.035156 210.953125 203.332031 210.953125 201.453125 L 210.953125 153.820312 C 210.953125 146.316406 207.902344 139.511719 202.972656 134.582031 C 198.046875 129.65625 191.242188 126.605469 183.734375 126.605469 Z M 183.734375 126.605469 " fill-opacity="1" fill-rule="nonzero"/><path fill="#004aad" d="M 227.964844 242.28125 L 139.507812 242.28125 C 108.058594 241.289062 108.019531 195.652344 139.507812 194.648438 C 139.507812 194.648438 227.964844 194.648438 227.964844 194.648438 C 259.414062 195.640625 259.453125 241.277344 227.964844 242.28125 Z M 139.507812 208.257812 C 126.121094 208.488281 126.074219 228.429688 139.507812 228.671875 C 139.507812 228.671875 227.964844 228.671875 227.964844 228.671875 C 241.351562 228.441406 241.398438 208.496094 227.964844 208.257812 C 227.964844 208.257812 139.507812 208.257812 139.507812 208.257812 Z M 139.507812 208.257812 " fill-opacity="1" fill-rule="nonzero"/></svg>