<svg width="300" height="262" viewBox="0 0 300 262" fill="none" xmlns="http://www.w3.org/2000/svg">
<path fill-rule="evenodd" clip-rule="evenodd" d="M150.823 45.9463C159.837 48.0939 168.446 51.6692 176.336 56.5344L192.916 49.1615L212.455 68.7222L205.094 85.3119C209.953 93.2107 213.528 101.83 215.673 110.855L232.588 117.374V145.033L215.67 151.552C213.525 160.574 209.95 169.19 205.094 177.089L212.458 193.685L192.916 213.242L176.342 205.873C168.452 210.738 159.84 214.316 150.823 216.464L144.311 233.395H116.68L110.165 216.461C101.151 214.313 92.5419 210.735 84.6524 205.873L68.0753 213.242L48.5365 193.685L55.8968 177.095C51.0379 169.196 47.4626 160.574 45.3181 151.549L28.4028 145.033V117.374L45.3212 110.855C47.4658 101.833 51.0411 93.2138 55.8999 85.315L48.5365 68.7222L68.0753 49.1615L84.6524 56.5344C92.545 51.6692 101.151 48.0939 110.168 45.9463L116.68 29.0122H144.311L150.823 45.9463Z" fill="#00305C"/>
<path fill-rule="evenodd" clip-rule="evenodd" d="M84.6523 205.873L68.0752 213.242L65.5236 210.688L81.0645 203.778C82.2448 204.505 83.4407 205.203 84.6523 205.873ZM150.823 45.9463C159.837 48.0939 168.446 51.6692 176.335 56.5344L171.624 58.6288C163.734 53.7668 151.537 48.0939 142.524 45.9463L136.012 29.0122H144.311L150.823 45.9463ZM176.342 205.876C168.452 210.738 159.837 214.316 150.823 216.464L144.311 233.395H136.012L142.521 216.464C151.537 214.316 163.737 208.643 171.63 203.778L176.342 205.876ZM65.5205 51.7193L68.0752 49.1646L84.6523 56.5344C83.4407 57.2043 82.2448 57.9025 81.0645 58.6288L65.5205 51.7193ZM187.168 51.7193L192.916 49.1646L212.455 68.7222L205.094 85.3119C209.953 93.2107 213.528 101.833 215.673 110.855L232.588 117.374V145.033L215.67 151.552C213.525 160.574 209.95 169.19 205.094 177.089L212.458 193.685L192.916 213.242L187.168 210.688L204.155 193.685L196.792 177.089C201.65 169.19 205.223 160.574 207.37 151.552L224.285 145.033V117.374L207.373 110.855C205.226 101.833 201.654 93.2107 196.795 85.3119L204.155 68.7222L187.168 51.7193Z" fill="#296BAA"/>
<path d="M198.213 103.123C198.673 104.234 199.105 105.352 199.509 106.482C199.913 107.612 200.289 108.755 200.636 109.904C200.987 111.053 201.306 112.208 201.597 113.373C201.888 114.537 202.151 115.708 202.386 116.885C202.618 118.065 202.825 119.246 203 120.435C203.175 121.622 203.322 122.815 203.441 124.008C203.557 125.204 203.648 126.399 203.704 127.599C203.764 128.798 203.792 130 203.795 131.199C203.795 132.401 203.764 133.6 203.704 134.799C203.645 135.998 203.557 137.197 203.441 138.39C203.322 139.586 203.175 140.779 203 141.965C202.825 143.152 202.618 144.335 202.386 145.512C202.151 146.69 201.888 147.861 201.597 149.025C201.306 150.193 200.987 151.348 200.636 152.497C200.289 153.646 199.913 154.786 199.509 155.916C199.105 157.046 198.673 158.167 198.213 159.275C197.756 160.387 197.271 161.482 196.757 162.569C196.244 163.655 195.705 164.726 195.139 165.784C194.572 166.845 193.983 167.888 193.367 168.918C192.75 169.948 192.108 170.962 191.441 171.961C190.774 172.959 190.083 173.939 189.369 174.904C188.655 175.868 187.916 176.817 187.155 177.743C186.395 178.673 185.612 179.581 184.807 180.47C184 181.359 183.173 182.23 182.325 183.078C181.476 183.926 180.609 184.756 179.72 185.561C178.831 186.368 177.923 187.151 176.996 187.915C176.069 188.676 175.124 189.415 174.16 190.128C173.195 190.845 172.216 191.537 171.217 192.204C170.221 192.871 169.207 193.513 168.18 194.129C167.15 194.746 166.108 195.338 165.049 195.905C163.991 196.471 162.92 197.01 161.834 197.523C160.751 198.037 159.655 198.522 158.547 198.982C157.439 199.442 156.318 199.874 155.191 200.278C154.061 200.682 152.921 201.061 151.775 201.408C150.626 201.756 149.471 202.078 148.306 202.369C147.142 202.661 145.974 202.924 144.797 203.158C143.62 203.393 142.439 203.597 141.253 203.772C140.066 203.95 138.877 204.098 137.681 204.213C136.488 204.332 135.292 204.42 134.093 204.48C132.894 204.539 131.698 204.567 130.496 204.567C129.297 204.567 128.097 204.539 126.902 204.48C125.702 204.42 124.507 204.332 123.314 204.213C122.118 204.098 120.928 203.95 119.742 203.772C118.555 203.597 117.375 203.393 116.198 203.158C115.02 202.924 113.85 202.661 112.688 202.369C111.523 202.078 110.368 201.756 109.219 201.408C108.073 201.061 106.934 200.682 105.804 200.278C104.673 199.874 103.556 199.442 102.447 198.982C101.339 198.522 100.243 198.037 99.1571 197.523C98.0739 197.01 97.0032 196.471 95.945 195.905C94.8868 195.338 93.8443 194.746 92.8143 194.129C91.7874 193.513 90.773 192.871 89.7743 192.204C88.7788 191.537 87.7989 190.845 86.8346 190.128C85.8703 189.415 84.9249 188.676 83.9982 187.915C83.0715 187.151 82.1636 186.368 81.2744 185.561C80.3853 184.756 79.515 183.926 78.6697 183.078C77.8213 182.23 76.9916 181.359 76.187 180.47C75.3824 179.581 74.5998 178.673 73.839 177.743C73.0782 176.817 72.3394 175.868 71.6256 174.904C70.9086 173.939 70.2199 172.959 69.553 171.961C68.8862 170.962 68.2444 169.948 67.6276 168.918C67.0109 167.888 66.4192 166.845 65.8557 165.784C65.289 164.726 64.7505 163.655 64.2371 162.569C63.7236 161.482 63.2384 160.387 62.7782 159.275C62.3211 158.167 61.889 157.046 61.4852 155.916C61.0813 154.786 60.7056 153.646 60.355 152.497C60.0075 151.348 59.6881 150.193 59.397 149.025C59.1058 147.861 58.8428 146.69 58.608 145.512C58.3732 144.335 58.1697 143.152 57.9944 141.965C57.816 140.779 57.672 139.586 57.553 138.39C57.434 137.197 57.3464 135.998 57.29 134.799C57.2305 133.6 57.1992 132.401 57.1992 131.199C57.1992 130 57.2305 128.798 57.29 127.599C57.3464 126.399 57.434 125.204 57.553 124.008C57.672 122.815 57.816 121.622 57.9944 120.435C58.1697 119.246 58.3732 118.065 58.608 116.885C58.8428 115.708 59.1058 114.537 59.397 113.373C59.6881 112.208 60.0075 111.053 60.355 109.904C60.7056 108.755 61.0813 107.612 61.4852 106.482C61.889 105.352 62.3211 104.234 62.7782 103.123C63.2384 102.014 63.7236 100.915 64.2371 99.8322C64.7505 98.7458 65.289 97.672 65.8557 96.6138C66.4192 95.5556 67.0109 94.5099 67.6276 93.4799C68.2444 92.4499 68.8862 91.4356 69.553 90.44C70.2199 89.4413 70.9086 88.4583 71.6256 87.494C72.3394 86.5297 73.0782 85.5843 73.839 84.6544C74.5998 83.7277 75.3824 82.8198 76.187 81.9276C76.9916 81.0385 77.8213 80.1713 78.6697 79.3197C79.515 78.4713 80.3853 77.6448 81.2744 76.837C82.1636 76.0324 83.0715 75.2466 83.9982 74.4859C84.9249 73.7251 85.8703 72.9863 86.8346 72.2693C87.7989 71.5555 88.7788 70.8636 89.7743 70.1968C90.773 69.5299 91.7874 68.8881 92.8143 68.2714C93.8443 67.6515 94.8868 67.0598 95.945 66.4963C97.0032 65.9296 98.0739 65.388 99.1571 64.8746C100.243 64.3611 101.339 63.8759 102.447 63.4156C103.556 62.9586 104.673 62.5265 105.804 62.1195C106.934 61.7157 108.073 61.34 109.219 60.9925C110.368 60.6418 111.523 60.3225 112.688 60.0313C113.85 59.7402 115.02 59.4772 116.198 59.2424C117.375 59.0076 118.555 58.801 119.742 58.6256C120.928 58.4503 122.118 58.3032 123.314 58.1842C124.507 58.0684 125.702 57.9807 126.902 57.9212C128.097 57.8618 129.297 57.8304 130.496 57.8304C131.698 57.8304 132.894 57.8618 134.093 57.9212C135.292 57.9807 136.488 58.0684 137.681 58.1842C138.877 58.3032 140.066 58.4503 141.253 58.6256C142.439 58.801 143.62 59.0076 144.797 59.2424C145.974 59.4772 147.142 59.7402 148.306 60.0313C149.471 60.3225 150.626 60.6418 151.775 60.9925C152.921 61.34 154.061 61.7157 155.191 62.1195C156.318 62.5265 157.439 62.9586 158.547 63.4156C159.655 63.8759 160.751 64.3611 161.834 64.8746C162.92 65.388 163.991 65.9296 165.049 66.4963C166.108 67.0598 167.15 67.6515 168.18 68.2714C169.207 68.8881 170.221 69.5299 171.217 70.1968C172.216 70.8636 173.195 71.5555 174.16 72.2693C175.124 72.9863 176.069 73.7251 176.996 74.4859C177.923 75.2466 178.831 76.0324 179.72 76.837C180.609 77.6448 181.476 78.4713 182.325 79.3197C183.173 80.1713 184 81.0385 184.807 81.9276C185.612 82.8198 186.395 83.7277 187.155 84.6544C187.916 85.5843 188.655 86.5297 189.369 87.494C190.083 88.4583 190.774 89.4413 191.441 90.44C192.108 91.4356 192.75 92.4499 193.367 93.4799C193.983 94.5099 194.572 95.5556 195.139 96.6138C195.705 97.672 196.244 98.7458 196.757 99.8322C197.271 100.915 197.756 102.014 198.213 103.123Z" fill="#ECEFF1"/>
<path fill-rule="evenodd" clip-rule="evenodd" d="M130.496 57.8335C90.0091 57.8335 57.1992 90.6779 57.1992 131.202C57.1992 171.726 90.0091 204.57 130.496 204.57C131.98 204.57 133.451 204.52 134.913 204.433C96.4866 202.147 66.0341 170.242 66.0341 131.202C66.0341 92.165 96.4866 60.2567 134.913 57.9712C133.451 57.8836 131.98 57.8335 130.496 57.8335Z" fill="#D1D1D6"/>
<path fill-rule="evenodd" clip-rule="evenodd" d="M201.904 33.6299C193.01 27.0961 183.195 21.752 172.694 17.8323C159.592 12.9453 145.376 10.2716 130.495 10.2716C97.1313 10.2716 66.9293 23.8057 45.0675 45.6926C23.2025 67.5732 9.68096 97.8097 9.68096 131.202C9.68096 142.416 11.19 153.236 14.017 163.47C16.9442 174.08 21.2834 184.111 26.8154 193.34C28.1835 195.626 27.4384 198.594 25.153 199.962C22.8675 201.33 19.9059 200.585 18.5378 198.296C12.5643 188.331 7.87766 177.502 4.71564 166.044C1.6444 154.914 0.00390625 143.23 0.00390625 131.202C0.00390625 95.1329 14.6087 62.4795 38.2237 38.8426C61.8387 15.2057 94.4608 0.585205 130.495 0.585205C146.487 0.585205 161.843 3.48425 176.06 8.79082C186.798 12.7981 196.867 18.1767 206.046 24.7136L203.851 17.0058C203.119 14.4355 204.609 11.7587 207.176 11.0262C209.743 10.2936 212.42 11.7869 213.149 14.3572L219.511 36.6699C220.241 39.2402 218.75 41.9169 216.183 42.6495C215.682 42.7904 215.181 42.8468 214.687 42.8311L191.864 43.6514C189.203 43.7453 186.967 41.6602 186.873 38.996C186.779 36.3317 188.861 34.0964 191.526 34.0025L201.904 33.6299ZM57.1395 245.401L54.9418 237.693C64.4247 244.446 74.8531 249.963 85.9922 254.007C99.9051 259.064 114.895 261.822 130.495 261.822C166.53 261.822 199.152 247.201 222.767 223.564C246.379 199.927 260.987 167.271 260.987 131.202C260.987 119.443 259.428 108.035 256.504 97.171C253.492 85.9693 249.024 75.3561 243.317 65.5507C241.98 63.2434 239.025 62.4545 236.721 63.7913C234.413 65.1312 233.624 68.0866 234.961 70.394C240.24 79.4636 244.375 89.2878 247.168 99.6662C249.87 109.706 251.31 120.279 251.31 131.202C251.31 164.597 237.785 194.831 215.923 216.714C194.061 238.598 163.856 252.135 130.495 252.135C115.994 252.135 102.115 249.59 89.2795 244.928C78.4159 240.981 68.2724 235.511 59.1056 228.777L69.4652 228.404C72.1263 228.311 74.2082 226.072 74.1143 223.408C74.0204 220.744 71.7881 218.659 69.1239 218.752L46.301 219.573C45.8094 219.557 45.3054 219.613 44.8076 219.757C42.2373 220.487 40.7502 223.167 41.4797 225.737L47.8382 248.05C48.5707 250.62 51.2444 252.11 53.8116 251.378C56.3819 250.648 57.869 247.971 57.1395 245.401Z" fill="#A79BA7"/>
<path fill-rule="evenodd" clip-rule="evenodd" d="M158.121 89.3442C156.962 88.5522 156.158 87.2686 156.029 85.7627C155.798 83.0984 157.77 80.7504 160.434 80.5219L169.222 79.7486C171.883 79.52 174.228 81.4955 174.457 84.1598C174.494 84.5824 174.476 84.9988 174.407 85.3995L173.458 93.8806C173.167 96.5355 170.781 98.4515 168.13 98.1572C166.765 98.0069 165.597 97.3025 164.824 96.2944L146.058 115.238C144.821 116.481 142.946 117.004 141.162 116.431L116.576 108.454L91.5992 127.921C89.5016 129.561 86.4711 129.189 84.8306 127.088C83.1932 124.987 83.5658 121.957 85.6634 120.316L112.666 99.2686C113.971 98.248 115.64 98.0069 117.105 98.4765L117.108 98.4734L141.299 106.322L158.121 89.3442Z" fill="#0D9EE2"/>
<path fill-rule="evenodd" clip-rule="evenodd" d="M83.8168 141.499H93.45C94.8025 141.499 95.9045 142.604 95.9045 143.957V167.481C95.9045 168.833 94.8025 169.938 93.45 169.938H83.8168C82.4643 169.938 81.3623 168.836 81.3623 167.481V143.957C81.3623 142.604 82.4643 141.499 83.8168 141.499Z" fill="#FE646F"/>
<path fill-rule="evenodd" clip-rule="evenodd" d="M90.9956 141.499H93.4501C94.8026 141.499 95.9046 142.604 95.9046 143.957V167.481C95.9046 168.833 94.8026 169.938 93.4501 169.938H90.9956C92.3449 169.938 93.4501 168.836 93.4501 167.481V143.957C93.4501 142.604 92.3481 141.499 90.9956 141.499Z" fill="#FD4755"/>
<path fill-rule="evenodd" clip-rule="evenodd" d="M110.819 123.479H120.452C121.805 123.479 122.907 124.581 122.907 125.936V167.481C122.907 168.833 121.805 169.938 120.452 169.938H110.819C109.467 169.938 108.365 168.836 108.365 167.481V125.936C108.365 124.581 109.467 123.479 110.819 123.479Z" fill="#FFE177"/>
<path fill-rule="evenodd" clip-rule="evenodd" d="M117.998 123.479H120.453C121.805 123.479 122.907 124.581 122.907 125.936V167.481C122.907 168.833 121.805 169.938 120.453 169.938H117.998C119.347 169.938 120.453 168.836 120.453 167.481V125.936C120.453 124.581 119.351 123.479 117.998 123.479Z" fill="#FFD064"/>
<path fill-rule="evenodd" clip-rule="evenodd" d="M137.822 129.546C141.034 129.546 144.243 129.546 147.455 129.546C148.807 129.546 149.909 130.651 149.909 132.003C149.909 146.308 149.909 153.173 149.909 167.481C149.909 168.836 148.807 169.938 147.455 169.938C144.243 169.938 141.034 169.938 137.822 169.938C136.469 169.938 135.367 168.836 135.367 167.481C135.367 153.176 135.367 146.311 135.367 132.003C135.367 130.648 136.469 129.546 137.822 129.546Z" fill="#6CF5C2"/>
<path fill-rule="evenodd" clip-rule="evenodd" d="M145 129.546H147.455C148.807 129.546 149.909 130.651 149.909 132.003C149.909 146.308 149.909 153.173 149.909 167.481C149.909 168.836 148.807 169.938 147.455 169.938H145C146.35 169.938 147.455 168.836 147.455 167.481C147.455 153.176 147.455 146.311 147.455 132.003C147.455 130.648 146.353 129.546 145 129.546Z" fill="#00E499"/>
<path fill-rule="evenodd" clip-rule="evenodd" d="M164.824 110.439H174.454C175.807 110.439 176.912 111.544 176.912 112.897V167.481C176.912 168.833 175.807 169.938 174.454 169.938H164.824C163.472 169.938 162.37 168.836 162.37 167.481V112.897C162.37 111.544 163.472 110.439 164.824 110.439Z" fill="#8AC9FE"/>
<path fill-rule="evenodd" clip-rule="evenodd" d="M172 110.439H174.454C175.806 110.439 176.912 111.544 176.912 112.897V167.481C176.912 168.833 175.806 169.938 174.454 169.938H172C173.352 169.938 174.454 168.836 174.454 167.481V112.897C174.454 111.544 173.352 110.439 172 110.439Z" fill="#60B7FF"/>
<path fill-rule="evenodd" clip-rule="evenodd" d="M296.417 56.2558C298.994 56.9446 300.528 59.5963 299.839 62.176C299.15 64.7557 296.499 66.2898 293.922 65.601L286.765 63.6819C284.186 62.99 282.655 60.3414 283.343 57.7585C284.032 55.1788 286.681 53.6448 289.261 54.3335L296.417 56.2558ZM275.642 29.0718C274.953 31.6515 272.305 33.1855 269.725 32.4968C267.148 31.8049 265.617 29.1532 266.306 26.5735L268.222 19.4104C268.911 16.8275 271.559 15.2966 274.139 15.9854C276.719 16.6741 278.25 19.3259 277.561 21.9056L275.642 29.0718ZM288.537 43.9646C286.23 45.3014 283.275 44.5156 281.938 42.2051C280.604 39.8978 281.39 36.9393 283.697 35.6025L290.115 31.8957C292.419 30.5589 295.375 31.3447 296.712 33.6551C298.045 35.9625 297.259 38.921 294.952 40.2578L288.537 43.9646Z" fill="#1B3280"/>
<path fill-rule="evenodd" clip-rule="evenodd" d="M243.608 120.285L226.123 89.9673L214.706 96.5668L228.096 119.781C230.785 124.443 236.777 126.049 241.433 123.356L243.035 122.433C243.784 122.001 244.04 121.037 243.608 120.285Z" fill="#8192A5"/>
<path fill-rule="evenodd" clip-rule="evenodd" d="M243.608 120.285L226.123 89.9673L214.706 96.5668L224.52 90.894L242.009 121.212C242.441 121.96 242.184 122.924 241.433 123.356L243.035 122.433C243.784 122.001 244.04 121.037 243.608 120.285Z" fill="#65788E"/>
<path fill-rule="evenodd" clip-rule="evenodd" d="M273.742 46.9356C270.843 41.9077 264.421 40.1858 259.4 43.0879C259.249 43.1756 258.025 43.8863 257.881 43.9802L268.369 62.1634C268.52 62.0851 269.75 61.3807 269.897 61.2931C274.922 58.3909 276.641 51.9635 273.742 46.9356Z" fill="#8192A5"/>
<path fill-rule="evenodd" clip-rule="evenodd" d="M273.742 46.9356C270.843 41.9077 264.421 40.1858 259.4 43.0879C259.249 43.1756 258.025 43.8863 257.881 43.9802L259.09 46.0746C259.234 45.9839 260.458 45.2701 260.608 45.1855C265.276 42.4868 271.152 43.7861 274.286 48.0188C274.127 47.6525 273.945 47.2894 273.742 46.9356Z" fill="#65788E"/>
<path fill-rule="evenodd" clip-rule="evenodd" d="M228.18 93.5363L212.01 102.881C203.544 107.775 192.621 104.844 187.734 96.3696C182.847 87.8978 185.774 76.9654 194.24 72.0752L210.41 62.73C222.52 51.9603 230.672 35.9686 238.139 23.355C239.144 21.6581 240.841 20.697 242.813 20.7064C244.782 20.7189 246.47 21.6988 247.456 23.4082L280.372 80.4812C281.383 82.2312 281.362 84.2474 280.316 85.9756C279.27 87.7069 277.498 88.6617 275.479 88.5772C259.991 87.9385 243.737 87.7288 228.18 93.5363Z" fill="#FFE177"/>
<path fill-rule="evenodd" clip-rule="evenodd" d="M189.284 98.6331C188.718 97.9287 188.201 97.1742 187.738 96.3696C182.851 87.8978 185.778 76.9654 194.24 72.0752L210.41 62.73C222.52 51.9603 230.672 35.9686 238.139 23.355C239.144 21.6581 240.841 20.697 242.813 20.7064C244.783 20.7189 246.47 21.6988 247.456 23.4082L280.373 80.4812L280.379 80.4906L250.186 28.1418C249.2 26.4356 247.513 25.4525 245.543 25.4431C243.574 25.4306 241.877 26.3918 240.872 28.0886C233.402 40.7054 225.25 56.694 213.144 67.4636L196.97 76.8088C189.309 81.2357 186.185 90.6122 189.284 98.6331Z" fill="#FFD064"/>
<path fill-rule="evenodd" clip-rule="evenodd" d="M258.961 43.3571L247.456 23.4082C246.47 21.6988 244.782 20.7189 242.813 20.7064C240.841 20.697 239.144 21.6581 238.139 23.355C236.912 25.4244 235.669 27.5877 234.392 29.8042L268.15 88.3299C270.608 88.3894 273.053 88.477 275.479 88.5772C277.498 88.6586 279.27 87.7069 280.319 85.9756C281.365 84.2474 281.384 82.2312 280.372 80.4812L269.449 61.5372L258.961 43.3571Z" fill="#FE646F"/>
<path fill-rule="evenodd" clip-rule="evenodd" d="M250.183 28.1387L247.453 23.4082C246.47 21.6988 244.782 20.7189 242.813 20.7064C240.841 20.697 239.144 21.6581 238.139 23.355C236.912 25.4275 235.669 27.5877 234.392 29.8042L237.122 34.5379C238.399 32.3245 239.645 30.1611 240.869 28.0886C241.874 26.3918 243.571 25.4306 245.543 25.4431C247.512 25.4525 249.197 26.4325 250.183 28.1387Z" fill="#FD4755"/>
<path fill-rule="evenodd" clip-rule="evenodd" d="M226.123 89.9673L210.41 62.7269L194.24 72.0753C185.774 76.9654 182.847 87.8979 187.734 96.3696C192.621 104.844 203.544 107.775 212.01 102.882L216.762 100.136L228.18 93.5363L226.123 89.9673Z" fill="#FE646F"/>
<path fill-rule="evenodd" clip-rule="evenodd" d="M213.14 67.4636L210.41 62.73L194.24 72.0752C185.774 76.9654 182.847 87.8978 187.734 96.3695C188.198 97.1741 188.717 97.9286 189.284 98.6331C186.185 90.6122 189.309 81.2357 196.97 76.8088L213.14 67.4636Z" fill="#FD4755"/>
</svg>
