<svg xmlns="http://www.w3.org/2000/svg" xmlns:xlink="http://www.w3.org/1999/xlink" width="50" zoomAndPan="magnify" viewBox="0 0 37.5 37.499999" height="50" preserveAspectRatio="xMidYMid meet" version="1.0"><defs><clipPath id="e8bbc07242"><path d="M 27 27 L 37.007812 27 L 37.007812 37.007812 L 27 37.007812 Z M 27 27 " clip-rule="nonzero"/></clipPath><clipPath id="5e29282a1e"><path d="M 27 0 L 37.007812 0 L 37.007812 10 L 27 10 Z M 27 0 " clip-rule="nonzero"/></clipPath><clipPath id="c026aab1b2"><path d="M 0 27 L 10 27 L 10 37.007812 L 0 37.007812 Z M 0 27 " clip-rule="nonzero"/></clipPath></defs><path fill="#004aad" d="M 4.625 0 C 2.082031 0 0 2.082031 0 4.625 C 0 7.171875 2.082031 9.25 4.625 9.25 C 7.171875 9.25 9.25 7.171875 9.25 4.625 C 9.25 2.082031 7.171875 0 4.625 0 Z M 4.625 8.09375 C 2.71875 8.09375 1.15625 6.535156 1.15625 4.625 C 1.15625 2.71875 2.71875 1.15625 4.625 1.15625 C 6.535156 1.15625 8.09375 2.71875 8.09375 4.625 C 8.09375 6.535156 6.535156 8.09375 4.625 8.09375 Z M 4.625 8.09375 " fill-opacity="1" fill-rule="nonzero"/><g clip-path="url(#e8bbc07242)"><path fill="#004aad" d="M 37.007812 32.378906 C 37.007812 32.683594 36.976562 32.984375 36.917969 33.285156 C 36.859375 33.582031 36.769531 33.871094 36.65625 34.152344 C 36.539062 34.429688 36.394531 34.699219 36.226562 34.949219 C 36.058594 35.203125 35.867188 35.4375 35.652344 35.652344 C 35.4375 35.867188 35.203125 36.058594 34.949219 36.226562 C 34.699219 36.394531 34.429688 36.539062 34.152344 36.65625 C 33.871094 36.769531 33.582031 36.859375 33.285156 36.917969 C 32.984375 36.976562 32.683594 37.007812 32.378906 37.007812 C 32.078125 37.007812 31.777344 36.976562 31.476562 36.917969 C 31.179688 36.859375 30.890625 36.769531 30.609375 36.65625 C 30.328125 36.539062 30.0625 36.394531 29.8125 36.226562 C 29.558594 36.058594 29.324219 35.867188 29.109375 35.652344 C 28.894531 35.4375 28.703125 35.203125 28.535156 34.949219 C 28.367188 34.699219 28.222656 34.429688 28.105469 34.152344 C 27.992188 33.871094 27.902344 33.582031 27.84375 33.285156 C 27.785156 32.984375 27.753906 32.683594 27.753906 32.378906 C 27.753906 32.078125 27.785156 31.777344 27.84375 31.476562 C 27.902344 31.179688 27.992188 30.890625 28.105469 30.609375 C 28.222656 30.328125 28.367188 30.0625 28.535156 29.8125 C 28.703125 29.558594 28.894531 29.324219 29.109375 29.109375 C 29.324219 28.894531 29.558594 28.703125 29.8125 28.535156 C 30.0625 28.367188 30.328125 28.222656 30.609375 28.105469 C 30.890625 27.992188 31.179688 27.902344 31.476562 27.84375 C 31.777344 27.785156 32.078125 27.753906 32.378906 27.753906 C 32.683594 27.753906 32.984375 27.785156 33.285156 27.84375 C 33.582031 27.902344 33.871094 27.992188 34.152344 28.105469 C 34.429688 28.222656 34.699219 28.367188 34.949219 28.535156 C 35.203125 28.703125 35.4375 28.894531 35.652344 29.109375 C 35.867188 29.324219 36.058594 29.558594 36.226562 29.8125 C 36.394531 30.0625 36.539062 30.328125 36.65625 30.609375 C 36.769531 30.890625 36.859375 31.179688 36.917969 31.476562 C 36.976562 31.777344 37.007812 32.078125 37.007812 32.378906 Z M 37.007812 32.378906 " fill-opacity="1" fill-rule="nonzero"/></g><g clip-path="url(#5e29282a1e)"><path fill="#004aad" d="M 35.851562 9.25 L 28.910156 9.25 C 28.273438 9.25 27.753906 8.730469 27.753906 8.09375 L 27.753906 1.15625 C 27.753906 0.519531 28.273438 0 28.910156 0 L 35.851562 0 C 36.484375 0 37.007812 0.519531 37.007812 1.15625 L 37.007812 8.09375 C 37.007812 8.730469 36.484375 9.25 35.851562 9.25 Z M 35.851562 9.25 " fill-opacity="1" fill-rule="nonzero"/></g><g clip-path="url(#c026aab1b2)"><path fill="#004aad" d="M 8.09375 37.007812 L 1.15625 37.007812 C 0.519531 37.007812 0 36.484375 0 35.851562 L 0 28.910156 C 0 28.273438 0.519531 27.753906 1.15625 27.753906 L 8.09375 27.753906 C 8.730469 27.753906 9.25 28.273438 9.25 28.910156 L 9.25 35.851562 C 9.25 36.484375 8.730469 37.007812 8.09375 37.007812 Z M 8.09375 37.007812 " fill-opacity="1" fill-rule="nonzero"/></g><path fill="#004aad" d="M 21.972656 23.128906 L 15.035156 23.128906 C 14.398438 23.128906 13.878906 22.609375 13.878906 21.972656 L 13.878906 15.035156 C 13.878906 14.398438 14.398438 13.878906 15.035156 13.878906 L 21.972656 13.878906 C 22.609375 13.878906 23.128906 14.398438 23.128906 15.035156 L 23.128906 21.972656 C 23.128906 22.609375 22.609375 23.128906 21.972656 23.128906 Z M 21.972656 23.128906 " fill-opacity="1" fill-rule="nonzero"/><path fill="#004aad" d="M 10.40625 3.46875 L 12.722656 3.46875 L 12.722656 5.78125 L 10.40625 5.78125 Z M 10.40625 3.46875 " fill-opacity="1" fill-rule="nonzero"/><path fill="#004aad" d="M 13.878906 3.46875 L 16.191406 3.46875 L 16.191406 5.78125 L 13.878906 5.78125 Z M 13.878906 3.46875 " fill-opacity="1" fill-rule="nonzero"/><path fill="#004aad" d="M 17.347656 3.46875 L 19.660156 3.46875 L 19.660156 5.78125 L 17.347656 5.78125 Z M 17.347656 3.46875 " fill-opacity="1" fill-rule="nonzero"/><path fill="#004aad" d="M 20.816406 3.46875 L 23.128906 3.46875 L 23.128906 5.78125 L 20.816406 5.78125 Z M 20.816406 3.46875 " fill-opacity="1" fill-rule="nonzero"/><path fill="#004aad" d="M 24.285156 2.3125 L 24.285156 6.9375 L 26.597656 4.625 Z M 24.285156 2.3125 " fill-opacity="1" fill-rule="nonzero"/><path fill="#004aad" d="M 10.40625 31.222656 L 12.722656 31.222656 L 12.722656 33.539062 L 10.40625 33.539062 Z M 10.40625 31.222656 " fill-opacity="1" fill-rule="nonzero"/><path fill="#004aad" d="M 13.878906 31.222656 L 16.191406 31.222656 L 16.191406 33.539062 L 13.878906 33.539062 Z M 13.878906 31.222656 " fill-opacity="1" fill-rule="nonzero"/><path fill="#004aad" d="M 17.347656 31.222656 L 19.660156 31.222656 L 19.660156 33.539062 L 17.347656 33.539062 Z M 17.347656 31.222656 " fill-opacity="1" fill-rule="nonzero"/><path fill="#004aad" d="M 20.816406 31.222656 L 23.128906 31.222656 L 23.128906 33.539062 L 20.816406 33.539062 Z M 20.816406 31.222656 " fill-opacity="1" fill-rule="nonzero"/><path fill="#004aad" d="M 24.285156 30.066406 L 24.285156 34.695312 L 26.597656 32.378906 Z M 24.285156 30.066406 " fill-opacity="1" fill-rule="nonzero"/><path fill="#004aad" d="M 31.222656 12.722656 L 31.222656 10.40625 L 33.539062 10.40625 L 33.539062 12.722656 Z M 31.222656 12.722656 " fill-opacity="1" fill-rule="nonzero"/><path fill="#004aad" d="M 31.222656 16.191406 L 31.222656 13.878906 L 33.539062 13.878906 L 33.539062 16.191406 Z M 31.222656 16.191406 " fill-opacity="1" fill-rule="nonzero"/><path fill="#004aad" d="M 33.539062 19.660156 L 31.222656 19.660156 L 31.222656 17.347656 L 33.539062 17.347656 Z M 33.539062 19.660156 " fill-opacity="1" fill-rule="nonzero"/><path fill="#004aad" d="M 26.597656 20.816406 L 26.597656 16.191406 L 24.285156 18.503906 Z M 26.597656 20.816406 " fill-opacity="1" fill-rule="nonzero"/><path fill="#004aad" d="M 27.753906 17.347656 L 30.066406 17.347656 L 30.066406 19.660156 L 27.753906 19.660156 Z M 27.753906 17.347656 " fill-opacity="1" fill-rule="nonzero"/><path fill="#004aad" d="M 10.40625 17.347656 L 12.722656 17.347656 L 12.722656 19.660156 L 10.40625 19.660156 Z M 10.40625 17.347656 " fill-opacity="1" fill-rule="nonzero"/><path fill="#004aad" d="M 6.9375 17.347656 L 9.25 17.347656 L 9.25 19.660156 L 6.9375 19.660156 Z M 6.9375 17.347656 " fill-opacity="1" fill-rule="nonzero"/><path fill="#004aad" d="M 5.78125 17.347656 L 5.78125 19.660156 L 3.46875 19.660156 L 3.46875 17.347656 Z M 5.78125 17.347656 " fill-opacity="1" fill-rule="nonzero"/><path fill="#004aad" d="M 2.3125 24.285156 L 6.9375 24.285156 L 4.625 26.597656 Z M 2.3125 24.285156 " fill-opacity="1" fill-rule="nonzero"/><path fill="#004aad" d="M 3.46875 23.128906 L 3.46875 20.816406 L 5.78125 20.816406 L 5.78125 23.128906 Z M 3.46875 23.128906 " fill-opacity="1" fill-rule="nonzero"/></svg>