<svg width="50" height="50" viewBox="0 0 50 50" fill="none" xmlns="http://www.w3.org/2000/svg">
<path d="M16.7633 40.382L17.2425 40.6468C19.5073 41.895 22.0793 42.5547 24.6817 42.5547C28.8041 42.5547 32.68 40.9497 35.5949 38.0339C38.5107 35.1198 40.1158 31.2431 40.1158 27.1207C40.1158 22.9983 38.5107 19.1216 35.5949 16.2075C32.68 13.2917 28.8041 11.6858 24.6817 11.6858C20.5594 11.6858 16.6826 13.2917 13.7677 16.2075C10.8528 19.1216 9.24685 22.9983 9.24685 27.1207C9.24685 29.7032 9.89703 32.2579 11.1271 34.5096L11.3883 34.987L9.41526 42.3516L16.7633 40.382ZM24.6817 44.0964C21.8449 44.0964 19.0394 43.3829 16.5628 42.0322L9.57932 43.9028C9.45779 43.9358 9.33366 43.9523 9.21039 43.9523C8.78244 43.9523 8.36751 43.7457 8.10276 43.4002C7.83713 43.0539 7.74946 42.6112 7.86317 42.1867L9.73904 35.1841C8.40831 32.7223 7.70605 29.9358 7.70605 27.1207C7.70605 22.586 9.47168 18.323 12.6774 15.1172C15.884 11.9106 20.147 10.145 24.6817 10.145C29.2165 10.145 33.4795 11.9106 36.6852 15.1172C39.8918 18.323 41.6574 22.586 41.6574 27.1207C41.6574 31.6554 39.8918 35.9185 36.6852 39.1242C33.4795 42.3308 29.2165 44.0964 24.6817 44.0964Z" fill="#004AAD"/>
<path d="M39.9889 12.1979C35.9004 8.1094 30.4638 5.85767 24.6816 5.85767C18.8987 5.85767 13.4629 8.1094 9.37435 12.1979C5.28494 16.2874 3.0332 21.724 3.0332 27.5061C3.0332 29.5113 3.30404 31.4757 3.82921 33.3559L5.17904 32.9775C4.69032 31.2361 4.42817 29.4011 4.42817 27.5061C4.42817 16.3377 13.5132 7.25263 24.6816 7.25263C35.8492 7.25263 44.9342 16.3377 44.9342 27.5061C44.9342 38.6736 35.8492 47.7596 24.6816 47.7596V49.1545C30.4638 49.1545 35.9004 46.9028 39.9889 42.8134C44.0775 38.7249 46.3292 33.2882 46.3292 27.5061C46.3292 21.724 44.0775 16.2874 39.9889 12.1979Z" fill="#004AAD"/>
<mask id="mask0_434_534" style="mask-type:luminance" maskUnits="userSpaceOnUse" x="43" y="21" width="7" height="13">
<path d="M43.4834 21.9644H49.4877V33.9999H43.4834V21.9644Z" fill="white"/>
</mask>
<g mask="url(#mask0_434_534)">
<path d="M49.1089 25.6432L49.1106 25.4982C49.1271 24.1163 48.1366 22.96 46.8059 22.7413L45.5047 22.5711C45.483 22.5104 45.4543 22.4513 45.4179 22.3984C45.3519 22.3046 45.2677 22.2222 45.1688 22.1553C44.9786 22.0269 44.746 21.9791 44.5177 22.0043L44.5108 22.0051C44.0056 22.0703 43.6453 22.5182 43.6905 23.0251C43.9856 26.3038 43.9231 29.6206 43.5047 32.8845C43.4396 33.3914 43.799 33.8637 44.3068 33.9383L44.3172 33.94C44.4023 33.9513 44.4891 33.9531 44.575 33.9418C44.9422 33.8949 45.2417 33.638 45.3528 33.2933C45.4708 33.2977 45.6019 33.2959 45.6019 33.2959C45.8953 33.3133 46.4613 33.3003 46.6175 33.2751C46.6262 33.2742 46.6349 33.2751 46.6444 33.2725C47.9995 33.098 49.0333 31.9348 49.0498 30.5668L49.0516 30.4331C49.3076 30.1241 49.4509 29.7387 49.4596 29.3341L49.5073 26.7986C49.5151 26.3741 49.3745 25.9687 49.1089 25.6432Z" fill="#004AAD"/>
</g>
<path d="M0.42609 25.6432L0.424354 25.4982C0.406993 24.1163 1.39831 22.96 2.72817 22.7413L4.03113 22.5711C4.05196 22.5104 4.07974 22.4513 4.11706 22.3984C4.18303 22.3046 4.26724 22.2222 4.36619 22.1553C4.5563 22.0269 4.78981 21.9791 5.01724 22.0043L5.02418 22.0051C5.52939 22.0703 5.88963 22.5182 5.84363 23.0251C5.54849 26.3038 5.61099 29.6206 6.03026 32.8845C6.09536 33.3914 5.73599 33.8637 5.22817 33.9383L5.21689 33.94C5.13182 33.9513 5.04501 33.9531 4.95994 33.9418C4.59276 33.8949 4.29241 33.638 4.18217 33.2933C4.06411 33.2977 3.93303 33.2959 3.93303 33.2959C3.63963 33.3133 3.07366 33.3003 2.91741 33.2751C2.90873 33.2742 2.90005 33.2751 2.8905 33.2725C1.53546 33.098 0.501611 31.9348 0.485118 30.5668L0.483382 30.4331C0.227305 30.1241 0.0832081 29.7387 0.0762636 29.3341L0.0276526 26.7986C0.0198401 26.3741 0.160465 25.9687 0.42609 25.6432Z" fill="#004AAD"/>
<mask id="mask1_434_534" style="mask-type:luminance" maskUnits="userSpaceOnUse" x="10" y="5" width="29" height="8">
<path d="M10.6797 5.0105H38.6797V12.2223H10.6797V5.0105Z" fill="white"/>
</mask>
<g mask="url(#mask1_434_534)">
<path d="M38.5452 10.4004C38.494 9.99064 38.2839 9.62953 37.9514 9.38647C34.0955 6.54967 29.507 5.05054 24.6815 5.05054C19.8551 5.05054 15.2665 6.54967 11.4106 9.38647C11.079 9.62953 10.8681 9.99064 10.8169 10.4004C10.7665 10.8083 10.8872 11.225 11.1485 11.5419L11.1632 11.5601C11.4497 11.9073 11.8707 12.1061 12.3212 12.1061C12.6415 12.1061 12.9462 12.0054 13.2049 11.817C16.5556 9.35957 20.5243 8.06009 24.6815 8.06009C28.8386 8.06009 32.8065 9.35957 36.1572 11.817C36.415 12.0054 36.7214 12.1061 37.0408 12.1061C37.4905 12.1061 37.9124 11.9073 38.1988 11.5601L38.2145 11.5419C38.4749 11.225 38.5964 10.8083 38.5452 10.4004Z" fill="#004AAD"/>
</g>
<mask id="mask2_434_534" style="mask-type:luminance" maskUnits="userSpaceOnUse" x="19" y="46" width="11" height="4">
<path d="M19.8594 46.6667H29.4835V49.9497H19.8594V46.6667Z" fill="white"/>
</mask>
<g mask="url(#mask2_434_534)">
<path d="M27.8816 49.9497H21.4867C20.6038 49.9497 19.8877 49.2335 19.8877 48.3507V48.3177C19.8877 47.4349 20.6038 46.7188 21.4867 46.7188H27.8816C28.7653 46.7188 29.4806 47.4349 29.4806 48.3177V48.3507C29.4806 49.2335 28.7653 49.9497 27.8816 49.9497Z" fill="#004AAD"/>
</g>
<path d="M18.2643 29.4584H15.7826L17.8503 27.1104C18.1011 26.8265 18.3138 26.5235 18.4822 26.2093C18.6558 25.8864 18.7435 25.5696 18.7435 25.2675C18.7435 24.7848 18.6497 24.3577 18.464 23.9966C18.2765 23.6321 18.0065 23.3465 17.6619 23.1494C17.319 22.9524 16.9162 22.8525 16.464 22.8525C16.0126 22.8525 15.5994 22.9584 15.2374 23.1685C14.8754 23.3786 14.5855 23.6702 14.3754 24.0357C14.1654 24.4012 14.0586 24.8161 14.0586 25.2675C14.0586 25.4263 14.1194 25.5669 14.2374 25.6859C14.3546 25.8031 14.4987 25.863 14.6645 25.863C14.8372 25.863 14.9831 25.8031 15.0985 25.6841C15.2131 25.5661 15.2704 25.4255 15.2704 25.2675C15.2704 25.04 15.3234 24.8248 15.4275 24.6277C15.5317 24.4324 15.6775 24.2744 15.8607 24.1581C16.043 24.0444 16.247 23.9862 16.464 23.9862C16.8103 23.9862 17.0742 24.0973 17.2713 24.3274C17.4701 24.5583 17.5707 24.8742 17.5707 25.2675C17.5707 25.5826 17.3737 25.9671 16.9839 26.4124L14.2244 29.639C14.115 29.7501 14.0586 29.8933 14.0586 30.0635C14.0586 30.2284 14.1168 30.3716 14.2305 30.4897C14.3459 30.6086 14.4918 30.6694 14.6645 30.6694H18.2643C18.4362 30.6694 18.5829 30.6095 18.7018 30.4914C18.8199 30.3734 18.8798 30.2293 18.8798 30.0635C18.8798 29.8977 18.8199 29.7536 18.7018 29.6355C18.5829 29.5183 18.4362 29.4584 18.2643 29.4584Z" fill="#004AAD"/>
<path d="M23.0779 25.047V27.8334H20.9564L23.0779 25.047ZM25.1517 27.9637C25.0415 27.8777 24.8974 27.8334 24.7246 27.8334H24.2498V23.4671C24.2498 23.2987 24.1986 23.1538 24.097 23.0357C23.9911 22.9142 23.8522 22.8525 23.6829 22.8525C23.4859 22.8525 23.3201 22.9385 23.1873 23.1095L19.4616 27.9932C19.3817 28.0965 19.3418 28.2171 19.3418 28.3517C19.3418 28.5088 19.3974 28.6494 19.5076 28.7666C19.6196 28.8864 19.7671 28.9472 19.9477 28.9472H23.0779V30.0635C23.0779 30.2275 23.1335 30.3708 23.2437 30.4888C23.3548 30.6086 23.4937 30.6694 23.6543 30.6694C23.8201 30.6694 23.9633 30.6086 24.0779 30.4897C24.1925 30.3716 24.2498 30.2284 24.2498 30.0635V28.9472H24.7246C24.8878 28.9472 25.0302 28.8933 25.1474 28.7874C25.2689 28.6789 25.3296 28.5452 25.3296 28.3899C25.3296 28.2006 25.2706 28.0565 25.1517 27.9637Z" fill="#004AAD"/>
<path d="M29.4036 22.8525C29.2856 22.8525 29.1745 22.8838 29.0738 22.9463C28.9696 23.0105 28.8932 23.0991 28.8438 23.2128L25.9167 30.5366C25.8785 30.6277 25.8594 30.7136 25.8594 30.7935C25.8594 30.9593 25.9193 31.1017 26.0391 31.2171C26.1571 31.3317 26.3003 31.389 26.4653 31.389C26.5816 31.389 26.691 31.3595 26.7925 31.3013C26.8984 31.2406 26.9757 31.1485 27.0243 31.0288L29.9523 23.7024L29.9531 23.6998C29.9835 23.6164 29.9991 23.5322 29.9991 23.448C29.9991 23.2822 29.941 23.1407 29.8255 23.0253C29.7109 22.9107 29.5686 22.8525 29.4036 22.8525Z" fill="#004AAD"/>
<path d="M35.133 23.0296C35.015 22.9124 34.8709 22.8525 34.7051 22.8525H30.9993C30.8266 22.8525 30.6808 22.9107 30.5662 23.0253C30.4516 23.1407 30.3926 23.2857 30.3926 23.4576C30.3926 23.6303 30.4516 23.7753 30.5662 23.8899C30.6808 24.0053 30.8266 24.0635 30.9993 24.0635H33.7823L31.0662 29.7032C31.0002 29.8343 30.9672 29.9558 30.9672 30.0635C30.9672 30.2293 31.0271 30.3734 31.1452 30.4914C31.2632 30.6095 31.4039 30.6694 31.5627 30.6694C31.673 30.6694 31.7797 30.6399 31.8804 30.5817C31.982 30.5227 32.0618 30.4411 32.1165 30.3395L32.1174 30.3369L35.232 23.7675L35.2337 23.764C35.2849 23.6451 35.311 23.5452 35.311 23.4576C35.311 23.2918 35.2511 23.1485 35.133 23.0296Z" fill="#004AAD"/>
</svg>
