<svg xmlns="http://www.w3.org/2000/svg" xmlns:xlink="http://www.w3.org/1999/xlink" width="300" zoomAndPan="magnify" viewBox="0 0 224.87999 225" height="300" preserveAspectRatio="xMidYMid meet" version="1.0"><defs><clipPath id="be00deec22"><path d="M 195.613281 98.839844 L 222.632812 98.839844 L 222.632812 153 L 195.613281 153 Z M 195.613281 98.839844 " clip-rule="nonzero"/></clipPath><clipPath id="899557091d"><path d="M 48 22.546875 L 174 22.546875 L 174 55 L 48 55 Z M 48 22.546875 " clip-rule="nonzero"/></clipPath><clipPath id="0101e99355"><path d="M 89.308594 210 L 132.617188 210 L 132.617188 224.773438 L 89.308594 224.773438 Z M 89.308594 210 " clip-rule="nonzero"/></clipPath></defs><path fill="#004aad" d="M 75.375 181.71875 L 77.53125 182.910156 C 87.722656 188.527344 99.296875 191.496094 111.007812 191.496094 C 129.558594 191.496094 147 184.273438 160.117188 171.152344 C 173.238281 158.039062 180.460938 140.59375 180.460938 122.042969 C 180.460938 103.492188 173.238281 86.046875 160.117188 72.933594 C 147 59.8125 129.558594 52.585938 111.007812 52.585938 C 92.457031 52.585938 75.011719 59.8125 61.894531 72.933594 C 48.777344 86.046875 41.550781 103.492188 41.550781 122.042969 C 41.550781 133.664062 44.476562 145.160156 50.011719 155.292969 L 51.1875 157.441406 L 42.308594 190.582031 Z M 111.007812 198.433594 C 98.242188 198.433594 85.617188 195.222656 74.472656 189.144531 L 43.046875 197.5625 C 42.5 197.710938 41.941406 197.785156 41.386719 197.785156 C 39.460938 197.785156 37.59375 196.855469 36.402344 195.300781 C 35.207031 193.742188 34.8125 191.75 35.324219 189.839844 L 43.765625 158.328125 C 37.777344 147.25 34.617188 134.710938 34.617188 122.042969 C 34.617188 101.636719 42.5625 82.453125 56.988281 68.027344 C 71.417969 53.597656 90.601562 45.652344 111.007812 45.652344 C 131.414062 45.652344 150.597656 53.597656 165.023438 68.027344 C 179.453125 82.453125 187.398438 101.636719 187.398438 122.042969 C 187.398438 142.449219 179.453125 161.632812 165.023438 176.058594 C 150.597656 190.488281 131.414062 198.433594 111.007812 198.433594 " fill-opacity="1" fill-rule="nonzero"/><path fill="#004aad" d="M 179.890625 54.890625 C 161.492188 36.492188 137.027344 26.359375 111.007812 26.359375 C 84.984375 26.359375 60.523438 36.492188 42.125 54.890625 C 23.722656 73.292969 13.589844 97.757812 13.589844 123.777344 C 13.589844 132.800781 14.808594 141.640625 17.171875 150.101562 L 23.246094 148.398438 C 21.046875 140.5625 19.867188 132.304688 19.867188 123.777344 C 19.867188 73.519531 60.75 32.636719 111.007812 32.636719 C 161.261719 32.636719 202.144531 73.519531 202.144531 123.777344 C 202.144531 174.03125 161.261719 214.917969 111.007812 214.917969 L 111.007812 221.195312 C 137.027344 221.195312 161.492188 211.0625 179.890625 192.660156 C 198.289062 174.261719 208.421875 149.796875 208.421875 123.777344 C 208.421875 97.757812 198.289062 73.292969 179.890625 54.890625 " fill-opacity="1" fill-rule="nonzero"/><g clip-path="url(#be00deec22)"><path fill="#004aad" d="M 220.929688 115.394531 L 220.9375 114.742188 C 221.011719 108.523438 216.554688 103.320312 210.566406 102.335938 L 204.710938 101.570312 C 204.613281 101.296875 204.484375 101.03125 204.320312 100.792969 C 204.023438 100.371094 203.644531 100 203.199219 99.699219 C 202.34375 99.121094 201.296875 98.90625 200.269531 99.019531 L 200.238281 99.023438 C 197.964844 99.316406 196.34375 101.332031 196.546875 103.613281 C 197.875 118.367188 197.59375 133.292969 195.710938 147.980469 C 195.417969 150.261719 197.035156 152.386719 199.320312 152.722656 L 199.367188 152.730469 C 199.75 152.78125 200.140625 152.789062 200.527344 152.738281 C 202.179688 152.527344 203.527344 151.371094 204.027344 149.820312 C 204.558594 149.839844 205.148438 149.832031 205.148438 149.832031 C 206.46875 149.910156 209.015625 149.851562 209.71875 149.738281 C 209.757812 149.734375 209.796875 149.738281 209.839844 149.726562 C 215.9375 148.941406 220.589844 143.707031 220.664062 137.550781 L 220.671875 136.949219 C 221.824219 135.558594 222.46875 133.824219 222.507812 132.003906 L 222.722656 120.59375 C 222.757812 118.683594 222.125 116.859375 220.929688 115.394531 " fill-opacity="1" fill-rule="nonzero"/></g><path fill="#004aad" d="M 1.859375 115.394531 L 1.851562 114.742188 C 1.773438 108.523438 6.234375 103.320312 12.21875 102.335938 L 18.082031 101.570312 C 18.175781 101.296875 18.300781 101.03125 18.46875 100.792969 C 18.765625 100.371094 19.144531 100 19.589844 99.699219 C 20.445312 99.121094 21.496094 98.90625 22.519531 99.019531 L 22.550781 99.023438 C 24.824219 99.316406 26.445312 101.332031 26.238281 103.613281 C 24.910156 118.367188 25.191406 133.292969 27.078125 147.980469 C 27.371094 150.261719 25.753906 152.386719 23.46875 152.722656 L 23.417969 152.730469 C 23.035156 152.78125 22.644531 152.789062 22.261719 152.738281 C 20.609375 152.527344 19.257812 151.371094 18.761719 149.820312 C 18.230469 149.839844 17.640625 149.832031 17.640625 149.832031 C 16.320312 149.910156 13.773438 149.851562 13.070312 149.738281 C 13.03125 149.734375 12.992188 149.738281 12.949219 149.726562 C 6.851562 148.941406 2.199219 143.707031 2.125 137.550781 L 2.117188 136.949219 C 0.964844 135.558594 0.316406 133.824219 0.285156 132.003906 L 0.0664062 120.59375 C 0.03125 118.683594 0.664062 116.859375 1.859375 115.394531 " fill-opacity="1" fill-rule="nonzero"/><g clip-path="url(#899557091d)"><path fill="#004aad" d="M 173.394531 46.800781 C 173.164062 44.957031 172.21875 43.332031 170.722656 42.238281 C 153.371094 29.472656 132.722656 22.726562 111.007812 22.726562 C 89.289062 22.726562 68.640625 29.472656 51.289062 42.238281 C 49.796875 43.332031 48.847656 44.957031 48.617188 46.800781 C 48.390625 48.636719 48.933594 50.511719 50.109375 51.9375 L 50.175781 52.019531 C 51.464844 53.582031 53.359375 54.476562 55.386719 54.476562 C 56.828125 54.476562 58.199219 54.023438 59.363281 53.175781 C 74.441406 42.117188 92.300781 36.269531 111.007812 36.269531 C 129.714844 36.269531 147.570312 42.117188 162.648438 53.175781 C 163.808594 54.023438 165.1875 54.476562 166.625 54.476562 C 168.648438 54.476562 170.546875 53.582031 171.835938 52.019531 L 171.90625 51.9375 C 173.078125 50.511719 173.625 48.636719 173.394531 46.800781 " fill-opacity="1" fill-rule="nonzero"/></g><g clip-path="url(#0101e99355)"><path fill="#004aad" d="M 125.410156 224.773438 L 96.632812 224.773438 C 92.660156 224.773438 89.4375 221.550781 89.4375 217.578125 L 89.4375 217.429688 C 89.4375 213.457031 92.660156 210.234375 96.632812 210.234375 L 125.410156 210.234375 C 129.386719 210.234375 132.605469 213.457031 132.605469 217.429688 L 132.605469 217.578125 C 132.605469 221.550781 129.386719 224.773438 125.410156 224.773438 " fill-opacity="1" fill-rule="nonzero"/></g><path fill="#004aad" d="M 82.128906 132.5625 L 70.960938 132.5625 L 80.265625 121.996094 C 81.394531 120.71875 82.351562 119.355469 83.109375 117.941406 C 83.890625 116.488281 84.285156 115.0625 84.285156 113.703125 C 84.285156 111.53125 83.863281 109.609375 83.027344 107.984375 C 82.183594 106.34375 80.96875 105.058594 79.417969 104.171875 C 77.875 103.285156 76.0625 102.835938 74.027344 102.835938 C 71.996094 102.835938 70.136719 103.3125 68.507812 104.257812 C 66.878906 105.203125 65.574219 106.515625 64.628906 108.160156 C 63.683594 109.804688 63.203125 111.671875 63.203125 113.703125 C 63.203125 114.417969 63.476562 115.050781 64.007812 115.585938 C 64.535156 116.113281 65.183594 116.382812 65.929688 116.382812 C 66.707031 116.382812 67.363281 116.113281 67.882812 115.578125 C 68.398438 115.046875 68.65625 114.414062 68.65625 113.703125 C 68.65625 112.679688 68.894531 111.710938 69.363281 110.824219 C 69.832031 109.945312 70.488281 109.234375 71.3125 108.710938 C 72.132812 108.199219 73.050781 107.9375 74.027344 107.9375 C 75.585938 107.9375 76.773438 108.4375 77.660156 109.472656 C 78.554688 110.511719 79.007812 111.933594 79.007812 113.703125 C 79.007812 115.121094 78.121094 116.851562 76.367188 118.855469 L 63.949219 133.375 C 63.457031 133.875 63.203125 134.519531 63.203125 135.285156 C 63.203125 136.027344 63.464844 136.671875 63.976562 137.203125 C 64.496094 137.738281 65.152344 138.011719 65.929688 138.011719 L 82.128906 138.011719 C 82.902344 138.011719 83.5625 137.742188 84.097656 137.210938 C 84.628906 136.679688 84.898438 136.03125 84.898438 135.285156 C 84.898438 134.539062 84.628906 133.890625 84.097656 133.359375 C 83.5625 132.832031 82.902344 132.5625 82.128906 132.5625 " fill-opacity="1" fill-rule="nonzero"/><path fill="#004aad" d="M 103.789062 112.710938 L 103.789062 125.25 L 94.242188 125.25 Z M 113.121094 125.835938 C 112.625 125.449219 111.976562 125.25 111.199219 125.25 L 109.0625 125.25 L 109.0625 105.601562 C 109.0625 104.84375 108.832031 104.191406 108.375 103.660156 C 107.898438 103.113281 107.273438 102.835938 106.511719 102.835938 C 105.625 102.835938 104.878906 103.222656 104.28125 103.992188 L 87.515625 125.96875 C 87.15625 126.433594 86.976562 126.976562 86.976562 127.582031 C 86.976562 128.289062 87.226562 128.921875 87.722656 129.449219 C 88.226562 129.988281 88.890625 130.261719 89.703125 130.261719 L 103.789062 130.261719 L 103.789062 135.285156 C 103.789062 136.023438 104.039062 136.667969 104.535156 137.199219 C 105.035156 137.738281 105.660156 138.011719 106.382812 138.011719 C 107.128906 138.011719 107.773438 137.738281 108.289062 137.203125 C 108.804688 136.671875 109.0625 136.027344 109.0625 135.285156 L 109.0625 130.261719 L 111.199219 130.261719 C 111.933594 130.261719 112.574219 130.019531 113.101562 129.542969 C 113.648438 129.054688 113.921875 128.453125 113.921875 127.753906 C 113.921875 126.902344 113.65625 126.253906 113.121094 125.835938 " fill-opacity="1" fill-rule="nonzero"/><path fill="#004aad" d="M 132.257812 102.835938 C 131.726562 102.835938 131.226562 102.976562 130.773438 103.257812 C 130.304688 103.546875 129.960938 103.945312 129.738281 104.457031 L 116.566406 137.414062 C 116.394531 137.824219 116.308594 138.210938 116.308594 138.570312 C 116.308594 139.316406 116.578125 139.957031 117.117188 140.476562 C 117.648438 140.992188 118.292969 141.25 119.035156 141.25 C 119.558594 141.25 120.050781 141.117188 120.507812 140.855469 C 120.984375 140.582031 121.332031 140.167969 121.550781 139.628906 L 134.726562 106.660156 L 134.730469 106.648438 C 134.867188 106.273438 134.9375 105.894531 134.9375 105.515625 C 134.9375 104.769531 134.675781 104.132812 134.15625 103.613281 C 133.640625 103.097656 133 102.835938 132.257812 102.835938 " fill-opacity="1" fill-rule="nonzero"/><path fill="#004aad" d="M 158.039062 103.632812 C 157.507812 103.105469 156.859375 102.835938 156.113281 102.835938 L 139.4375 102.835938 C 138.660156 102.835938 138.003906 103.097656 137.488281 103.613281 C 136.972656 104.132812 136.707031 104.785156 136.707031 105.558594 C 136.707031 106.335938 136.972656 106.988281 137.488281 107.503906 C 138.003906 108.023438 138.660156 108.285156 139.4375 108.285156 L 151.960938 108.285156 L 139.738281 133.664062 C 139.441406 134.253906 139.292969 134.800781 139.292969 135.285156 C 139.292969 136.03125 139.5625 136.679688 140.09375 137.210938 C 140.625 137.742188 141.257812 138.011719 141.972656 138.011719 C 142.46875 138.011719 142.949219 137.878906 143.402344 137.617188 C 143.859375 137.351562 144.21875 136.984375 144.464844 136.527344 L 144.46875 136.515625 L 158.484375 106.953125 L 158.492188 106.9375 C 158.722656 106.402344 158.839844 105.953125 158.839844 105.558594 C 158.839844 104.8125 158.570312 104.167969 158.039062 103.632812 " fill-opacity="1" fill-rule="nonzero"/></svg>