<svg xmlns="http://www.w3.org/2000/svg" xmlns:xlink="http://www.w3.org/1999/xlink" width="500" zoomAndPan="magnify" viewBox="0 0 375 374.999991" height="500" preserveAspectRatio="xMidYMid meet" version="1.0"><defs><clipPath id="992bfea763"><path d="M 1.902344 2 L 373.152344 2 L 373.152344 373 L 1.902344 373 Z M 1.902344 2 " clip-rule="nonzero"/></clipPath></defs><g clip-path="url(#992bfea763)"><path fill="#004aad" d="M 24.195312 213.265625 C 25.933594 224.558594 28.828125 235.558594 32.882812 245.984375 L 23.617188 251.195312 C 21.011719 252.644531 18.984375 255.25 18.113281 258.144531 C 17.246094 261.039062 17.824219 264.226562 19.273438 266.832031 L 33.75 291.730469 C 36.933594 297.234375 44.175781 299.257812 49.675781 296.074219 L 58.941406 290.574219 C 66.179688 299.257812 74.285156 307.367188 82.972656 314.605469 L 77.472656 323.871094 C 76.023438 326.476562 75.445312 329.660156 76.3125 332.554688 C 77.179688 335.453125 78.917969 338.058594 81.8125 339.503906 L 107.003906 353.984375 C 108.742188 355.140625 110.769531 355.429688 112.796875 355.429688 C 116.847656 355.429688 120.613281 353.402344 122.929688 349.640625 L 128.429688 340.375 C 139.144531 344.429688 150.144531 347.324219 161.4375 349.058594 L 161.4375 360.929688 C 161.4375 367.300781 166.648438 372.511719 173.019531 372.511719 L 201.972656 372.511719 C 208.34375 372.511719 213.554688 367.300781 213.554688 360.929688 L 213.554688 349.058594 C 224.847656 347.324219 235.851562 344.429688 246.5625 340.375 L 252.0625 349.640625 C 255.25 355.140625 262.488281 357.167969 267.988281 353.984375 L 293.179688 339.503906 C 295.785156 338.058594 297.8125 335.453125 298.679688 332.554688 C 299.550781 329.660156 298.96875 326.476562 297.523438 323.871094 L 292.019531 314.605469 C 300.707031 307.367188 308.8125 299.550781 316.054688 290.574219 L 325.316406 296.074219 C 330.820312 299.257812 338.058594 297.234375 341.242188 291.730469 L 355.71875 266.832031 C 357.167969 264.226562 357.746094 261.039062 356.878906 258.144531 C 356.007812 255.25 354.273438 252.644531 351.375 251.195312 L 342.113281 245.984375 C 346.164062 235.558594 349.058594 224.558594 350.796875 213.265625 L 361.511719 213.265625 C 367.878906 213.265625 373.09375 208.054688 373.09375 201.683594 L 373.09375 172.730469 C 373.09375 166.359375 367.878906 161.148438 361.511719 161.148438 L 350.796875 161.148438 C 349.058594 149.855469 346.164062 138.855469 342.113281 128.429688 L 351.375 123.21875 C 353.984375 121.769531 356.007812 119.164062 356.878906 116.269531 C 357.746094 113.375 357.167969 110.1875 355.71875 107.582031 L 341.242188 82.683594 C 338.058594 77.179688 330.820312 75.15625 325.316406 78.339844 L 316.054688 83.839844 C 308.8125 75.15625 300.707031 67.046875 292.019531 59.808594 L 297.523438 50.542969 C 298.96875 47.9375 299.550781 44.753906 298.679688 41.859375 C 297.8125 38.960938 296.074219 36.355469 293.179688 34.910156 L 267.988281 20.429688 C 262.488281 17.246094 255.25 19.273438 252.0625 24.773438 L 246.5625 34.039062 C 235.851562 29.988281 224.847656 27.089844 213.554688 25.355469 L 213.554688 14.0625 C 213.554688 7.691406 208.34375 2.480469 201.972656 2.480469 L 172.730469 2.480469 C 166.359375 2.480469 161.148438 7.691406 161.148438 14.0625 L 161.148438 24.773438 C 149.855469 26.511719 138.855469 29.40625 128.140625 33.460938 L 122.640625 24.195312 C 119.453125 18.695312 112.214844 16.667969 106.714844 19.851562 L 81.523438 34.328125 C 78.917969 35.777344 76.890625 38.382812 76.023438 41.277344 C 75.15625 44.175781 75.734375 47.359375 77.179688 49.964844 L 82.683594 59.230469 C 73.996094 66.46875 65.890625 74.285156 58.652344 83.261719 L 49.386719 77.761719 C 43.882812 74.574219 36.644531 76.601562 33.460938 82.105469 L 18.984375 107.003906 C 17.535156 109.609375 16.957031 112.796875 17.824219 115.691406 C 18.695312 118.585938 20.429688 121.191406 23.328125 122.640625 L 32.59375 127.851562 C 28.539062 138.273438 25.644531 149.277344 23.90625 160.570312 L 13.484375 160.570312 C 7.113281 160.570312 1.902344 165.78125 1.902344 172.152344 L 1.902344 201.105469 C 1.902344 207.476562 7.113281 212.6875 13.484375 212.6875 L 24.195312 212.6875 Z M 13.484375 172.730469 L 29.117188 172.730469 C 32.011719 172.730469 34.617188 170.703125 34.910156 167.808594 C 36.644531 154.199219 40.121094 140.878906 45.621094 128.429688 C 46.78125 125.824219 45.621094 122.640625 43.304688 121.191406 L 29.695312 113.375 L 44.175781 88.472656 L 57.78125 96.292969 C 60.386719 97.738281 63.574219 97.160156 65.308594 94.84375 C 73.707031 83.839844 83.261719 74.285156 94.265625 65.890625 C 96.582031 64.152344 97.160156 60.96875 95.710938 58.363281 L 87.894531 44.753906 L 113.085938 30.277344 L 120.902344 43.882812 C 122.351562 46.488281 125.535156 47.359375 128.140625 46.199219 C 140.878906 40.988281 154.199219 37.226562 167.808594 35.488281 C 170.703125 35.199219 173.019531 32.59375 173.019531 29.695312 L 173.019531 14.0625 L 201.972656 14.0625 L 201.972656 29.695312 C 201.972656 32.59375 204.289062 35.199219 207.183594 35.488281 C 220.792969 37.226562 234.113281 40.699219 246.851562 46.199219 C 249.457031 47.359375 252.644531 46.199219 254.089844 43.882812 L 261.910156 30.277344 L 287.097656 44.753906 L 279.28125 58.363281 C 277.832031 60.96875 278.414062 64.152344 280.730469 65.890625 C 291.730469 74.285156 301.285156 83.839844 309.683594 94.84375 C 311.421875 97.160156 314.605469 97.738281 317.210938 96.292969 L 330.820312 88.472656 L 345.296875 113.375 L 331.6875 121.191406 C 329.082031 122.640625 328.214844 125.824219 329.371094 128.429688 C 334.582031 141.171875 338.347656 154.199219 340.085938 167.808594 C 340.375 170.703125 342.980469 172.730469 345.875 172.730469 L 361.511719 172.730469 L 361.511719 201.683594 L 345.875 201.683594 C 342.980469 201.683594 340.375 203.710938 340.085938 206.605469 C 338.347656 220.214844 334.871094 233.535156 329.371094 245.984375 C 328.214844 248.589844 329.371094 251.773438 331.6875 253.222656 L 345.296875 261.039062 L 330.820312 285.941406 L 317.210938 278.121094 C 314.605469 276.675781 311.421875 277.253906 309.683594 279.570312 C 301.285156 290.574219 291.730469 300.128906 280.730469 308.523438 C 278.414062 310.261719 277.832031 313.445312 279.28125 316.050781 L 287.097656 329.660156 L 261.910156 344.136719 L 254.089844 330.53125 C 252.644531 327.925781 249.457031 327.054688 246.851562 328.214844 C 234.113281 333.425781 220.792969 337.1875 207.183594 338.925781 C 204 339.214844 201.683594 342.113281 202.261719 345.296875 C 202.261719 345.585938 202.261719 345.585938 202.261719 345.875 L 202.261719 361.511719 L 173.308594 361.511719 L 173.308594 345.875 C 173.308594 345.585938 173.308594 345.585938 173.308594 345.296875 C 173.597656 342.113281 171.570312 339.214844 168.386719 338.925781 C 154.777344 337.1875 141.460938 333.714844 128.71875 328.214844 C 126.113281 327.054688 122.929688 328.214844 121.480469 330.53125 L 113.664062 344.136719 L 88.472656 329.660156 L 96.292969 316.050781 C 97.738281 313.445312 97.160156 310.261719 94.84375 308.523438 C 83.839844 300.128906 74.285156 290.574219 65.890625 279.570312 C 64.152344 277.253906 60.96875 276.675781 58.363281 278.121094 L 43.882812 286.230469 L 29.40625 261.328125 L 43.015625 253.511719 C 45.621094 252.0625 46.488281 248.878906 45.332031 246.273438 C 40.121094 233.535156 36.355469 220.503906 34.617188 206.894531 C 34.328125 204 31.722656 201.972656 28.828125 201.972656 L 13.191406 201.972656 L 13.191406 172.730469 Z M 13.484375 172.730469 " fill-opacity="1" fill-rule="nonzero"/></g><path fill="#004aad" d="M 156.804688 316.921875 C 156.804688 316.050781 157.09375 314.894531 157.09375 314.027344 C 153.910156 311.421875 151.882812 307.65625 151.015625 303.601562 C 101.792969 288.257812 65.601562 242.21875 65.601562 187.785156 C 65.601562 120.902344 120.035156 66.757812 187.207031 66.757812 C 254.378906 66.757812 308.8125 121.191406 308.8125 187.785156 C 308.8125 241.0625 274.070312 286.230469 226.003906 302.445312 C 225.425781 307.078125 223.109375 311.128906 219.925781 314.027344 C 220.214844 314.894531 220.214844 315.472656 220.214844 316.34375 C 277.832031 301.574219 320.394531 249.746094 320.394531 187.785156 C 320.394531 114.53125 260.75 55.175781 187.207031 55.175781 C 113.664062 55.175781 54.019531 114.53125 54.019531 187.785156 C 54.019531 250.617188 98.027344 303.3125 156.804688 316.921875 Z M 156.804688 316.921875 " fill-opacity="1" fill-rule="nonzero"/><path fill="#004aad" d="M 228.902344 243.378906 C 246.273438 230.347656 256.117188 210.660156 256.117188 189.234375 C 256.117188 170.414062 248.589844 153.042969 234.691406 140.011719 C 220.503906 126.984375 201.394531 120.035156 181.707031 121.480469 C 147.25 123.796875 119.453125 151.015625 117.136719 184.890625 C 115.691406 207.765625 125.824219 229.480469 144.066406 243.378906 C 150.433594 248.011719 153.910156 254.960938 153.910156 262.199219 L 153.910156 275.226562 C 153.910156 281.886719 159.410156 289.125 166.648438 289.125 L 206.316406 289.125 C 213.554688 289.125 218.476562 281.886719 218.476562 275.226562 L 218.476562 262.777344 C 218.765625 255.539062 222.53125 248.011719 228.902344 243.378906 Z M 207.183594 262.777344 L 207.183594 275.226562 C 207.183594 276.097656 206.605469 277.253906 206.316406 277.542969 L 167.230469 277.542969 C 166.648438 277.253906 165.78125 276.097656 165.78125 275.226562 L 165.78125 262.199219 C 165.78125 251.195312 160.570312 241.0625 151.304688 234.113281 C 135.957031 222.53125 127.5625 204.289062 128.71875 185.46875 C 130.457031 157.382812 153.621094 134.800781 182.285156 132.773438 C 183.734375 132.773438 185.179688 132.773438 186.339844 132.773438 C 201.394531 132.773438 215.292969 138.273438 226.296875 148.410156 C 237.875 159.121094 244.246094 173.597656 244.246094 189.234375 C 244.246094 206.894531 236.140625 223.109375 221.664062 234.113281 C 212.6875 241.0625 207.183594 251.773438 207.183594 262.777344 Z M 207.183594 262.777344 " fill-opacity="1" fill-rule="nonzero"/><path fill="#004aad" d="M 194.445312 104.6875 L 194.445312 92.238281 C 194.445312 89.050781 191.839844 86.445312 188.65625 86.445312 C 185.46875 86.445312 182.863281 89.050781 182.863281 92.238281 L 182.863281 104.6875 C 182.863281 107.871094 185.46875 110.480469 188.65625 110.480469 C 191.839844 110.480469 194.445312 107.871094 194.445312 104.6875 Z M 194.445312 104.6875 " fill-opacity="1" fill-rule="nonzero"/><path fill="#004aad" d="M 146.960938 122.058594 C 147.828125 122.058594 148.988281 121.769531 149.855469 121.191406 C 152.75 119.742188 153.621094 115.980469 152.171875 113.375 L 146.09375 102.371094 C 144.644531 99.476562 140.878906 98.609375 138.273438 100.054688 C 135.378906 101.503906 134.511719 105.265625 135.957031 107.871094 L 142.039062 118.875 C 142.90625 120.902344 144.933594 122.058594 146.960938 122.058594 Z M 146.960938 122.058594 " fill-opacity="1" fill-rule="nonzero"/><path fill="#004aad" d="M 230.347656 122.058594 C 232.375 122.058594 234.402344 120.902344 235.269531 119.164062 L 241.351562 108.164062 C 242.800781 105.265625 241.929688 101.792969 239.035156 100.34375 C 236.140625 98.898438 232.664062 99.765625 231.21875 102.660156 L 225.136719 113.664062 C 223.6875 116.558594 224.558594 120.035156 227.453125 121.480469 C 228.320312 121.769531 229.191406 122.058594 230.347656 122.058594 Z M 230.347656 122.058594 " fill-opacity="1" fill-rule="nonzero"/><path fill="#004aad" d="M 208.921875 294.917969 L 168.386719 294.917969 C 165.203125 294.917969 162.597656 297.523438 162.597656 300.707031 C 162.597656 303.890625 165.203125 306.496094 168.386719 306.496094 L 208.921875 306.496094 C 212.109375 306.496094 214.714844 303.890625 214.714844 300.707031 C 214.714844 297.523438 212.109375 294.917969 208.921875 294.917969 Z M 208.921875 294.917969 " fill-opacity="1" fill-rule="nonzero"/><path fill="#004aad" d="M 203.132812 312.289062 L 174.179688 312.289062 C 170.992188 312.289062 168.386719 314.894531 168.386719 318.078125 C 168.386719 321.265625 170.992188 323.871094 174.179688 323.871094 L 203.132812 323.871094 C 206.316406 323.871094 208.921875 321.265625 208.921875 318.078125 C 208.921875 314.894531 206.316406 312.289062 203.132812 312.289062 Z M 203.132812 312.289062 " fill-opacity="1" fill-rule="nonzero"/><path fill="#004aad" d="M 116.269531 153.621094 C 118.296875 153.621094 120.035156 152.75 121.191406 150.726562 C 122.929688 148.117188 122.058594 144.355469 119.164062 142.90625 L 108.742188 136.539062 C 106.136719 134.800781 102.371094 135.667969 100.925781 138.5625 C 99.476562 141.460938 100.054688 144.933594 102.949219 146.382812 L 113.375 152.75 C 114.242188 153.332031 115.402344 153.621094 116.269531 153.621094 Z M 116.269531 153.621094 " fill-opacity="1" fill-rule="nonzero"/><path fill="#004aad" d="M 93.105469 184.890625 C 89.921875 184.890625 87.316406 187.496094 87.316406 190.679688 C 87.316406 193.867188 89.921875 196.472656 93.105469 196.472656 L 105.265625 196.472656 C 108.453125 196.472656 111.058594 193.867188 111.058594 190.679688 C 111.058594 187.496094 108.453125 184.890625 105.265625 184.890625 Z M 93.105469 184.890625 " fill-opacity="1" fill-rule="nonzero"/><path fill="#004aad" d="M 265.671875 136.539062 L 255.25 142.90625 C 252.644531 144.644531 251.484375 148.117188 253.222656 150.726562 C 254.378906 152.460938 256.117188 153.621094 258.144531 153.621094 C 259.011719 153.621094 260.171875 153.332031 261.039062 152.75 L 271.464844 146.382812 C 274.070312 144.644531 275.226562 141.171875 273.492188 138.5625 C 271.753906 135.957031 268.277344 134.800781 265.671875 136.539062 Z M 265.671875 136.539062 " fill-opacity="1" fill-rule="nonzero"/><path fill="#004aad" d="M 263.355469 190.679688 C 263.355469 193.867188 265.960938 196.472656 269.148438 196.472656 L 281.308594 196.472656 C 284.492188 196.472656 287.097656 193.867188 287.097656 190.679688 C 287.097656 187.496094 284.492188 184.890625 281.308594 184.890625 L 269.148438 184.890625 C 265.960938 184.890625 263.355469 187.496094 263.355469 190.679688 Z M 263.355469 190.679688 " fill-opacity="1" fill-rule="nonzero"/><path fill="#004aad" d="M 209.210938 166.359375 L 178.519531 197.050781 L 165.203125 183.734375 C 162.886719 181.417969 159.410156 181.417969 157.09375 183.734375 C 154.777344 186.050781 154.777344 189.523438 157.09375 191.839844 L 174.46875 209.210938 C 175.625 210.371094 177.074219 210.949219 178.519531 210.949219 C 179.96875 210.949219 181.417969 210.371094 182.574219 209.210938 L 217.320312 174.46875 C 219.636719 172.152344 219.636719 168.675781 217.320312 166.359375 C 215.003906 164.042969 211.527344 164.042969 209.210938 166.359375 Z M 209.210938 166.359375 " fill-opacity="1" fill-rule="nonzero"/></svg>