<svg xmlns="http://www.w3.org/2000/svg" xmlns:xlink="http://www.w3.org/1999/xlink" width="300" zoomAndPan="magnify" viewBox="0 0 224.87999 225" height="300" preserveAspectRatio="xMidYMid meet" version="1.0"><defs><clipPath id="2b07663b33"><path d="M 10.777344 19 L 187 19 L 187 224.9375 L 10.777344 224.9375 Z M 10.777344 19 " clip-rule="nonzero"/></clipPath><clipPath id="1ad81403a7"><path d="M 163 19 L 187 19 L 187 224.9375 L 163 224.9375 Z M 163 19 " clip-rule="nonzero"/></clipPath><clipPath id="0c2637bb5f"><path d="M 59 0.0585938 L 138 0.0585938 L 138 40 L 59 40 Z M 59 0.0585938 " clip-rule="nonzero"/></clipPath></defs><g clip-path="url(#2b07663b33)"><path fill="#837683" d="M 176.078125 19.261719 C 181.628906 19.261719 186.152344 23.789062 186.152344 29.34375 L 186.152344 214.859375 C 186.152344 220.410156 181.628906 224.941406 176.078125 224.941406 L 20.949219 224.941406 C 15.402344 224.941406 10.878906 220.410156 10.878906 214.859375 L 10.878906 29.34375 C 10.878906 23.789062 15.402344 19.261719 20.949219 19.261719 Z M 176.078125 19.261719 " fill-opacity="1" fill-rule="evenodd"/></g><g clip-path="url(#1ad81403a7)"><path fill="#685e68" d="M 163.078125 224.941406 L 176.078125 224.941406 C 181.628906 224.941406 186.152344 220.410156 186.152344 214.859375 L 186.152344 29.34375 C 186.152344 23.789062 181.628906 19.261719 176.078125 19.261719 L 163.078125 19.261719 Z M 163.078125 224.941406 " fill-opacity="1" fill-rule="evenodd"/></g><path fill="#eceff1" d="M 167.609375 33.285156 L 29.421875 33.285156 C 26.925781 33.285156 24.890625 35.324219 24.890625 37.820312 L 24.890625 206.382812 C 24.890625 208.878906 26.925781 210.914062 29.421875 210.914062 L 167.609375 210.914062 C 170.105469 210.914062 172.140625 208.878906 172.140625 206.382812 L 172.140625 37.820312 C 172.140625 35.324219 170.105469 33.285156 167.609375 33.285156 Z M 167.609375 33.285156 " fill-opacity="1" fill-rule="evenodd"/><path fill="#d1d1d6" d="M 163.078125 210.914062 L 167.609375 210.914062 C 167.753906 210.914062 167.894531 210.90625 168.03125 210.894531 C 170.332031 210.679688 172.140625 208.734375 172.140625 206.382812 L 172.140625 37.820312 C 172.140625 35.464844 170.332031 33.519531 168.03125 33.304688 C 167.894531 33.292969 167.753906 33.285156 167.609375 33.285156 L 163.078125 33.285156 Z M 163.078125 210.914062 " fill-opacity="1" fill-rule="evenodd"/><g clip-path="url(#0c2637bb5f)"><path fill="#e3a76f" d="M 64.261719 13.167969 L 78.621094 13.167969 C 80.46875 13.167969 82.050781 12.125 82.78125 10.425781 C 85.402344 4.328125 91.460938 0.0585938 98.515625 0.0585938 C 105.570312 0.0585938 111.625 4.328125 114.25 10.425781 C 114.980469 12.125 116.558594 13.167969 118.410156 13.167969 L 132.765625 13.167969 C 135.261719 13.167969 137.296875 15.203125 137.296875 17.699219 L 137.296875 34.847656 C 137.296875 37.34375 135.261719 39.382812 132.765625 39.382812 L 64.261719 39.382812 C 61.765625 39.382812 59.734375 37.34375 59.734375 34.847656 L 59.734375 17.699219 C 59.734375 15.203125 61.765625 13.167969 64.261719 13.167969 Z M 64.261719 13.167969 " fill-opacity="1" fill-rule="evenodd"/></g><path fill="#c48958" d="M 128.238281 34.847656 L 59.734375 34.847656 C 59.734375 37.34375 61.765625 39.382812 64.261719 39.382812 L 132.769531 39.382812 C 135.261719 39.382812 137.296875 37.34375 137.296875 34.847656 L 137.296875 17.699219 C 137.296875 15.203125 135.261719 13.167969 132.769531 13.167969 L 132.769531 30.3125 C 132.769531 31.449219 132.347656 32.488281 131.652344 33.285156 C 130.820312 34.242188 129.597656 34.847656 128.238281 34.847656 Z M 128.238281 34.847656 " fill-opacity="1" fill-rule="evenodd"/><path fill="#eceff1" d="M 102.199219 10.425781 C 102.4375 10.667969 102.65625 10.929688 102.84375 11.214844 C 103.035156 11.5 103.195312 11.800781 103.328125 12.117188 C 103.457031 12.433594 103.554688 12.757812 103.625 13.09375 C 103.691406 13.429688 103.722656 13.769531 103.722656 14.113281 C 103.722656 14.453125 103.691406 14.792969 103.625 15.128906 C 103.554688 15.464844 103.457031 15.789062 103.328125 16.105469 C 103.195312 16.421875 103.035156 16.722656 102.84375 17.007812 C 102.65625 17.292969 102.441406 17.554688 102.199219 17.796875 C 101.957031 18.039062 101.691406 18.257812 101.410156 18.445312 C 101.125 18.636719 100.824219 18.796875 100.507812 18.929688 C 100.191406 19.058594 99.867188 19.160156 99.53125 19.226562 C 99.195312 19.292969 98.855469 19.324219 98.515625 19.324219 C 98.171875 19.324219 97.832031 19.292969 97.496094 19.226562 C 97.164062 19.160156 96.835938 19.058594 96.519531 18.929688 C 96.203125 18.796875 95.90625 18.636719 95.621094 18.445312 C 95.335938 18.257812 95.074219 18.039062 94.832031 17.796875 C 94.589844 17.554688 94.371094 17.292969 94.183594 17.007812 C 93.992188 16.722656 93.832031 16.421875 93.703125 16.105469 C 93.570312 15.789062 93.472656 15.464844 93.40625 15.128906 C 93.339844 14.792969 93.304688 14.453125 93.304688 14.113281 C 93.304688 13.769531 93.339844 13.429688 93.40625 13.09375 C 93.472656 12.757812 93.570312 12.433594 93.703125 12.117188 C 93.832031 11.800781 93.992188 11.5 94.183594 11.214844 C 94.371094 10.929688 94.589844 10.667969 94.832031 10.425781 C 95.074219 10.183594 95.335938 9.964844 95.621094 9.777344 C 95.902344 9.585938 96.203125 9.425781 96.519531 9.292969 C 96.835938 9.164062 97.164062 9.066406 97.496094 8.996094 C 97.832031 8.929688 98.171875 8.898438 98.515625 8.898438 C 98.855469 8.898438 99.195312 8.929688 99.53125 8.996094 C 99.867188 9.066406 100.191406 9.164062 100.507812 9.292969 C 100.824219 9.425781 101.125 9.585938 101.40625 9.777344 C 101.691406 9.964844 101.957031 10.183594 102.199219 10.425781 Z M 102.199219 10.425781 " fill-opacity="1" fill-rule="nonzero"/><path fill="#fe646f" d="M 53.164062 61.9375 L 70.742188 61.9375 C 73.929688 61.9375 76.542969 64.550781 76.542969 67.746094 L 76.542969 85.339844 C 76.542969 88.53125 73.929688 91.144531 70.742188 91.144531 L 53.164062 91.144531 C 49.972656 91.144531 47.363281 88.53125 47.363281 85.339844 L 47.363281 67.746094 C 47.359375 64.550781 49.972656 61.9375 53.164062 61.9375 Z M 53.164062 61.9375 " fill-opacity="1" fill-rule="evenodd"/><path fill="#fd4755" d="M 73.113281 62.449219 C 75.128906 63.363281 76.542969 65.394531 76.542969 67.746094 L 76.542969 85.339844 C 76.542969 88.53125 73.929688 91.144531 70.738281 91.144531 L 53.160156 91.144531 C 50.816406 91.144531 48.78125 89.730469 47.871094 87.710938 C 48.597656 88.039062 49.398438 88.222656 50.242188 88.222656 L 67.820312 88.222656 C 71.011719 88.222656 73.621094 85.609375 73.621094 82.417969 L 73.621094 64.824219 C 73.621094 63.980469 73.441406 63.175781 73.113281 62.449219 Z M 73.113281 62.449219 " fill-opacity="1" fill-rule="evenodd"/><path fill="#ffe177" d="M 56.304688 74.960938 C 54.886719 73.546875 54.886719 71.25 56.304688 69.832031 C 57.71875 68.417969 60.011719 68.417969 61.425781 69.832031 L 67.527344 75.9375 L 85.695312 59.433594 C 87.171875 58.085938 89.460938 58.195312 90.804688 59.671875 C 92.148438 61.152344 92.042969 63.441406 90.566406 64.789062 L 69.980469 83.484375 L 69.960938 83.503906 C 68.546875 84.921875 66.253906 84.921875 64.835938 83.503906 Z M 56.304688 74.960938 " fill-opacity="1" fill-rule="evenodd"/><path fill="#6cf5c2" d="M 53.164062 111.285156 L 70.742188 111.285156 C 73.929688 111.285156 76.542969 113.898438 76.542969 117.09375 L 76.542969 134.6875 C 76.542969 137.878906 73.929688 140.492188 70.742188 140.492188 L 53.164062 140.492188 C 49.972656 140.492188 47.363281 137.878906 47.363281 134.6875 L 47.363281 117.09375 C 47.359375 113.898438 49.972656 111.285156 53.164062 111.285156 Z M 53.164062 111.285156 " fill-opacity="1" fill-rule="evenodd"/><path fill="#00e499" d="M 73.113281 111.796875 C 75.128906 112.710938 76.542969 114.742188 76.542969 117.09375 L 76.542969 134.6875 C 76.542969 137.878906 73.929688 140.492188 70.738281 140.492188 L 53.160156 140.492188 C 50.816406 140.492188 48.78125 139.078125 47.871094 137.058594 C 48.597656 137.386719 49.398438 137.570312 50.242188 137.570312 L 67.820312 137.570312 C 71.011719 137.570312 73.621094 134.957031 73.621094 131.765625 L 73.621094 114.171875 C 73.621094 113.328125 73.441406 112.523438 73.113281 111.796875 Z M 73.113281 111.796875 " fill-opacity="1" fill-rule="evenodd"/><path fill="#ffe177" d="M 56.304688 124.308594 C 54.886719 122.894531 54.886719 120.597656 56.304688 119.179688 C 57.71875 117.765625 60.011719 117.765625 61.425781 119.179688 L 67.527344 125.285156 L 85.695312 108.78125 C 87.171875 107.433594 89.460938 107.542969 90.804688 109.019531 C 92.148438 110.5 92.042969 112.789062 90.566406 114.136719 L 69.980469 132.832031 L 69.960938 132.851562 C 68.546875 134.269531 66.253906 134.269531 64.835938 132.851562 Z M 56.304688 124.308594 " fill-opacity="1" fill-rule="evenodd"/><path fill="#8ac9fe" d="M 53.164062 160.632812 L 70.742188 160.632812 C 73.929688 160.632812 76.542969 163.246094 76.542969 166.441406 L 76.542969 184.035156 C 76.542969 187.226562 73.929688 189.839844 70.742188 189.839844 L 53.164062 189.839844 C 49.972656 189.839844 47.363281 187.226562 47.363281 184.035156 L 47.363281 166.441406 C 47.359375 163.246094 49.972656 160.632812 53.164062 160.632812 Z M 53.164062 160.632812 " fill-opacity="1" fill-rule="evenodd"/><path fill="#60b7ff" d="M 73.113281 161.144531 C 75.128906 162.054688 76.542969 164.089844 76.542969 166.441406 L 76.542969 184.035156 C 76.542969 187.226562 73.929688 189.839844 70.738281 189.839844 L 53.160156 189.839844 C 50.816406 189.839844 48.78125 188.425781 47.871094 186.40625 C 48.597656 186.734375 49.398438 186.917969 50.242188 186.917969 L 67.820312 186.917969 C 71.011719 186.917969 73.621094 184.304688 73.621094 181.113281 L 73.621094 163.519531 C 73.621094 162.675781 73.441406 161.871094 73.113281 161.144531 Z M 73.113281 161.144531 " fill-opacity="1" fill-rule="evenodd"/><path fill="#ffe177" d="M 56.304688 173.65625 C 54.886719 172.242188 54.886719 169.945312 56.304688 168.527344 C 57.71875 167.113281 60.011719 167.113281 61.425781 168.527344 L 67.527344 174.632812 L 85.695312 158.128906 C 87.171875 156.78125 89.460938 156.890625 90.804688 158.371094 C 92.148438 159.847656 92.042969 162.136719 90.566406 163.484375 L 69.980469 182.179688 L 69.960938 182.199219 C 68.546875 183.617188 66.253906 183.617188 64.835938 182.199219 Z M 56.304688 173.65625 " fill-opacity="1" fill-rule="evenodd"/><path fill="#a79ba7" d="M 100.730469 72.261719 C 98.730469 72.261719 97.105469 70.640625 97.105469 68.636719 C 97.105469 66.632812 98.730469 65.007812 100.730469 65.007812 L 142.179688 65.007812 C 144.179688 65.007812 145.800781 66.632812 145.800781 68.636719 C 145.800781 70.640625 144.179688 72.261719 142.179688 72.261719 Z M 100.730469 88.074219 C 98.730469 88.074219 97.105469 86.449219 97.105469 84.449219 C 97.105469 82.445312 98.730469 80.820312 100.730469 80.820312 L 121.453125 80.820312 C 123.457031 80.820312 125.078125 82.445312 125.078125 84.449219 C 125.078125 86.449219 123.457031 88.074219 121.453125 88.074219 Z M 100.730469 88.074219 " fill-opacity="1" fill-rule="evenodd"/><path fill="#a79ba7" d="M 100.730469 116.59375 C 98.730469 116.59375 97.105469 114.96875 97.105469 112.96875 C 97.105469 110.964844 98.730469 109.339844 100.730469 109.339844 L 142.179688 109.339844 C 144.179688 109.339844 145.800781 110.964844 145.800781 112.96875 C 145.800781 114.96875 144.179688 116.59375 142.179688 116.59375 Z M 100.730469 132.40625 C 98.730469 132.40625 97.105469 130.78125 97.105469 128.78125 C 97.105469 126.777344 98.730469 125.152344 100.730469 125.152344 L 121.453125 125.152344 C 123.457031 125.152344 125.078125 126.777344 125.078125 128.78125 C 125.078125 130.78125 123.457031 132.40625 121.453125 132.40625 Z M 100.730469 132.40625 " fill-opacity="1" fill-rule="evenodd"/><path fill="#a79ba7" d="M 100.730469 170.957031 C 98.730469 170.957031 97.105469 169.335938 97.105469 167.332031 C 97.105469 165.328125 98.730469 163.703125 100.730469 163.703125 L 142.179688 163.703125 C 144.179688 163.703125 145.800781 165.328125 145.800781 167.332031 C 145.800781 169.335938 144.179688 170.957031 142.179688 170.957031 Z M 100.730469 186.769531 C 98.730469 186.769531 97.105469 185.144531 97.105469 183.144531 C 97.105469 181.140625 98.730469 179.515625 100.730469 179.515625 L 121.453125 179.515625 C 123.457031 179.515625 125.078125 181.140625 125.078125 183.144531 C 125.078125 185.144531 123.457031 186.769531 121.453125 186.769531 Z M 100.730469 186.769531 " fill-opacity="1" fill-rule="evenodd"/><path fill="#e3a76f" d="M 148.703125 130.894531 L 198.339844 44.847656 C 201.03125 40.179688 207.027344 38.574219 211.6875 41.265625 L 215.070312 43.222656 C 219.730469 45.914062 221.339844 51.917969 218.648438 56.582031 L 169.011719 142.632812 L 152.203125 152.34375 C 151.460938 152.773438 150.613281 152.773438 149.871094 152.34375 C 149.128906 151.914062 148.703125 151.179688 148.703125 150.320312 Z M 148.703125 130.894531 " fill-opacity="1" fill-rule="evenodd"/><path fill="#c48958" d="M 217.089844 44.773438 C 220.140625 47.824219 220.902344 52.671875 218.648438 56.582031 L 169.011719 142.632812 L 156.457031 149.886719 Z M 217.089844 44.773438 " fill-opacity="1" fill-rule="evenodd"/><path fill="#685e68" d="M 148.703125 150.320312 L 148.703125 130.894531 L 169.011719 142.632812 L 152.203125 152.34375 C 151.460938 152.773438 150.613281 152.773438 149.871094 152.34375 C 149.128906 151.914062 148.703125 151.179688 148.703125 150.320312 Z M 148.703125 150.320312 " fill-opacity="1" fill-rule="evenodd"/></svg>