<svg width="50" height="50" viewBox="0 0 50 50" fill="none" xmlns="http://www.w3.org/2000/svg">
<g clip-path="url(#clip0_433_209)">
<path d="M24.5769 14.5359L13.9904 21.0505C13.9123 21.0942 13.843 21.1494 13.7831 21.2161C13.7232 21.2828 13.6753 21.3578 13.6399 21.4401C13.605 21.5224 13.5836 21.6083 13.5769 21.6979C13.5696 21.7875 13.5774 21.8755 13.5998 21.9625C13.6243 22.0505 13.6628 22.1323 13.7149 22.2073C13.767 22.2823 13.83 22.3468 13.9039 22.401C13.9774 22.4547 14.0581 22.4953 14.1456 22.5218C14.2331 22.5484 14.3227 22.5604 14.4138 22.5567H16.8571V30.7005H15.2284C15.1748 30.7005 15.1217 30.7057 15.0696 30.7161C15.017 30.7265 14.9659 30.7416 14.9164 30.7625C14.8675 30.7828 14.8201 30.8078 14.7758 30.8375C14.7316 30.8672 14.6904 30.901 14.6524 30.939C14.6149 30.9765 14.581 31.0177 14.5513 31.0619C14.5217 31.1067 14.4967 31.1536 14.4758 31.2031C14.4555 31.2526 14.4399 31.3031 14.4295 31.3557C14.4191 31.4083 14.4138 31.4609 14.4138 31.5146V34.7718C14.4138 34.8255 14.4191 34.8786 14.4295 34.9307C14.4399 34.9833 14.4555 35.0343 14.4758 35.0838C14.4967 35.1328 14.5217 35.1797 14.5513 35.2244C14.581 35.2687 14.6149 35.3099 14.6524 35.3479C14.6904 35.3854 14.7316 35.4192 14.7758 35.4489C14.8201 35.4786 14.8675 35.5036 14.9164 35.5244C14.9659 35.5448 15.017 35.5604 15.0696 35.5708C15.1217 35.5812 15.1748 35.5864 15.2284 35.5864H34.7722C34.8258 35.5864 34.8789 35.5812 34.931 35.5708C34.9836 35.5604 35.0347 35.5448 35.0842 35.5244C35.1331 35.5036 35.18 35.4786 35.2248 35.4489C35.2691 35.4192 35.3102 35.3854 35.3482 35.3479C35.3857 35.3099 35.4196 35.2687 35.4493 35.2244C35.4789 35.1797 35.5039 35.1328 35.5248 35.0838C35.5451 35.0343 35.5607 34.9833 35.5711 34.9307C35.5816 34.8786 35.5868 34.8255 35.5868 34.7718V31.5146C35.5868 31.4609 35.5816 31.4083 35.5711 31.3557C35.5607 31.3031 35.5451 31.2526 35.5248 31.2031C35.5039 31.1536 35.4789 31.1067 35.4493 31.0619C35.4196 31.0177 35.3857 30.9765 35.3482 30.939C35.3102 30.901 35.2691 30.8672 35.2248 30.8375C35.18 30.8078 35.1331 30.7828 35.0842 30.7625C35.0347 30.7416 34.9836 30.7265 34.931 30.7161C34.8789 30.7057 34.8258 30.7005 34.7722 30.7005H33.1435V22.5567H35.5868C35.6779 22.5604 35.7675 22.5484 35.855 22.5218C35.9425 22.4953 36.0232 22.4547 36.0967 22.401C36.1706 22.3468 36.2336 22.2823 36.2857 22.2073C36.3378 22.1323 36.3763 22.0505 36.4008 21.9625C36.4248 21.8776 36.4342 21.7906 36.4295 21.7026C36.4253 21.614 36.4066 21.5286 36.3743 21.4463C36.342 21.364 36.2977 21.289 36.2409 21.2213C36.1842 21.1536 36.118 21.0968 36.0425 21.0505L25.4566 14.5359C25.3909 14.4937 25.3206 14.4619 25.2456 14.4396C25.1711 14.4177 25.0946 14.4067 25.0164 14.4067C24.9388 14.4067 24.8623 14.4177 24.7873 14.4396C24.7128 14.4619 24.6425 14.4937 24.5769 14.5359ZM18.4857 22.5567H21.743V30.7005H18.4857V22.5567ZM23.3717 30.7005V22.5567H26.6289V30.7005H23.3717ZM33.9581 33.9578H16.0425V32.3291H33.9581V33.9578ZM31.5149 30.7005H28.2576V22.5567H31.5149V30.7005ZM17.2883 20.9281L25.0003 16.1807L32.7123 20.9281H17.2883Z" fill="#004AAD"/>
<path d="M43.7301 0.569685C43.4676 0.570726 43.2061 0.588956 42.9457 0.625935C42.6858 0.662393 42.429 0.717081 42.1764 0.788956C41.9238 0.861352 41.6775 0.950414 41.4374 1.05666C41.1973 1.16291 40.9655 1.28531 40.7421 1.42333C40.5186 1.56187 40.3056 1.71448 40.1035 1.88218C39.9014 2.04989 39.7113 2.23062 39.5342 2.42489C39.3572 2.61864 39.1941 2.82385 39.0452 3.04052C38.8962 3.25666 38.7629 3.48218 38.6457 3.71708C38.528 3.95198 38.4269 4.19416 38.3426 4.44312C38.2587 4.69156 38.1915 4.94521 38.1426 5.20302C38.0936 5.46135 38.0624 5.72177 38.0488 5.98375C38.0358 6.24625 38.041 6.50823 38.0639 6.77021C38.0868 7.03166 38.128 7.29052 38.1868 7.54677C38.2452 7.8025 38.3217 8.05354 38.415 8.29885C38.5087 8.54416 38.6186 8.78219 38.7447 9.01239C38.8712 9.24312 39.0129 9.46344 39.1697 9.67437L36.4827 12.3614C36.2889 12.1843 36.091 12.0114 35.8894 11.8431C35.6874 11.6749 35.4822 11.5114 35.2728 11.3525C35.0634 11.1942 34.8504 11.0405 34.6342 10.8916C34.4176 10.7426 34.1978 10.5989 33.9749 10.4603C33.7519 10.3218 33.5254 10.1884 33.2962 10.0603C33.067 9.93219 32.8348 9.80927 32.5999 9.69208C32.365 9.57437 32.1275 9.46239 31.8874 9.35614C31.6473 9.24989 31.4045 9.14885 31.1598 9.05406C30.915 8.95875 30.6681 8.86916 30.4191 8.78583C30.1702 8.70198 29.9191 8.62385 29.6665 8.55198C29.4144 8.47958 29.1603 8.41344 28.9045 8.35354C28.6488 8.29312 28.392 8.23844 28.1337 8.19C27.8754 8.14208 27.6165 8.09937 27.3561 8.06291C27.0962 8.02646 26.8353 7.99625 26.5738 7.97177C26.3124 7.94781 26.0504 7.92958 25.7879 7.91708C25.5254 7.9051 25.2629 7.89885 25.0004 7.89885C24.7379 7.89885 24.4754 7.9051 24.2129 7.91708C23.9504 7.92958 23.6884 7.94781 23.4269 7.97177C23.1655 7.99625 22.9045 8.02646 22.6447 8.06291C22.3842 8.09937 22.1254 8.14208 21.867 8.19C21.6087 8.23844 21.3519 8.29312 21.0962 8.35354C20.8405 8.41344 20.5863 8.47958 20.3342 8.55198C20.0816 8.62385 19.8306 8.70198 19.5816 8.78583C19.3327 8.86916 19.0858 8.95875 18.841 9.05406C18.5962 9.14885 18.3535 9.24989 18.1134 9.35614C17.8733 9.46239 17.6358 9.57437 17.4009 9.69208C17.166 9.80927 16.9337 9.93219 16.7045 10.0603C16.4754 10.1884 16.2488 10.3218 16.0259 10.4603C15.803 10.5989 15.5832 10.7426 15.3665 10.8916C15.1504 11.0405 14.9374 11.1942 14.728 11.3525C14.5186 11.5114 14.3134 11.6749 14.1113 11.8431C13.9098 12.0114 13.7118 12.1843 13.5181 12.3614L10.8311 9.67437C10.9019 9.57906 10.9702 9.48166 11.0348 9.38271C11.0999 9.28323 11.1618 9.18166 11.2202 9.07854C11.279 8.97541 11.3342 8.87021 11.3863 8.76396C11.4384 8.65719 11.4874 8.54885 11.5327 8.43896C11.578 8.32958 11.6197 8.21864 11.6582 8.10614C11.6962 7.99364 11.7311 7.88062 11.7624 7.76604C11.7936 7.65146 11.8212 7.53583 11.8457 7.41969C11.8697 7.30354 11.89 7.18687 11.9066 7.06916C11.9238 6.95146 11.9368 6.83375 11.9462 6.71552C11.9556 6.59729 11.9613 6.47854 11.9634 6.35979C11.9655 6.24104 11.9634 6.12281 11.9582 6.00406C11.953 5.88531 11.9436 5.76708 11.9311 5.64885C11.9181 5.53114 11.9014 5.41344 11.8816 5.29677C11.8613 5.17958 11.8379 5.06344 11.8103 4.94781C11.7827 4.83219 11.7519 4.7176 11.7176 4.60406C11.6827 4.49052 11.6447 4.37854 11.603 4.26708C11.5618 4.15614 11.5165 4.04625 11.4681 3.93791C11.4197 3.82958 11.3681 3.72281 11.3129 3.6176C11.2577 3.51239 11.1993 3.40927 11.1379 3.30771C11.0764 3.20614 11.0118 3.10666 10.9441 3.00927C10.8764 2.91187 10.8056 2.81656 10.7316 2.72333C10.6582 2.6301 10.5816 2.53948 10.5019 2.45146C10.4228 2.36343 10.3405 2.2775 10.2561 2.19416C10.1712 2.11135 10.0842 2.03062 9.99413 1.95302C9.90455 1.87541 9.81236 1.80041 9.71809 1.72854C9.6233 1.65666 9.52694 1.58791 9.42799 1.52177C9.32955 1.45614 9.22903 1.39312 9.1259 1.33375C9.0233 1.27437 8.91913 1.2176 8.81288 1.16448C8.70663 1.11187 8.59882 1.06187 8.48997 1.01552C8.38059 0.969164 8.26965 0.926456 8.15767 0.886872C8.04569 0.847289 7.93267 0.811351 7.81861 0.77906C7.70455 0.746768 7.58944 0.718122 7.4733 0.692601C7.35715 0.667601 7.24049 0.646247 7.1233 0.628018C7.00611 0.61031 6.8884 0.596247 6.77017 0.58531C6.65194 0.574893 6.53319 0.568122 6.41444 0.564997C6.29622 0.561872 6.17747 0.562393 6.05872 0.56656C5.93997 0.570726 5.82174 0.57906 5.70351 0.590518C5.58528 0.601976 5.46757 0.617601 5.35038 0.636351C5.23319 0.655622 5.11705 0.678018 5.00142 0.704581C4.88528 0.730622 4.77069 0.760831 4.65663 0.794164C4.54309 0.827497 4.43007 0.864476 4.31861 0.905101C4.20715 0.945726 4.09674 0.989476 3.98788 1.03687C3.87903 1.08427 3.77174 1.13531 3.66601 1.18896C3.5608 1.24312 3.45663 1.30041 3.35455 1.36135C3.25246 1.42177 3.15246 1.48531 3.05455 1.5525C2.95611 1.61916 2.86028 1.68896 2.76653 1.76187C2.67278 1.83479 2.58163 1.91031 2.49257 1.98896C2.40351 2.0676 2.31705 2.14885 2.23319 2.23271C2.14934 2.31656 2.06809 2.40302 1.98944 2.49208C1.9108 2.58114 1.83528 2.67229 1.76236 2.76604C1.68944 2.85979 1.61965 2.95562 1.55299 3.05406C1.4858 3.15198 1.42226 3.25198 1.36184 3.35406C1.3009 3.45614 1.24361 3.56031 1.18944 3.66552C1.1358 3.77125 1.08476 3.87854 1.03736 3.98739C0.989965 4.09625 0.946215 4.20666 0.90559 4.31812C0.864965 4.42958 0.827985 4.5426 0.794652 4.65614C0.761319 4.77021 0.731111 4.88479 0.705069 5.00094C0.678506 5.11656 0.656111 5.23271 0.63684 5.34989C0.61809 5.46708 0.602465 5.58479 0.591006 5.70302C0.579548 5.82125 0.571215 5.93948 0.567048 6.05823C0.562881 6.17698 0.562361 6.29573 0.565485 6.41396C0.568611 6.53271 0.575381 6.65146 0.585798 6.76969C0.596735 6.88791 0.610798 7.00562 0.628506 7.12281C0.646735 7.24 0.66809 7.35666 0.69309 7.47281C0.718611 7.58896 0.747256 7.70406 0.779548 7.81812C0.81184 7.93219 0.847777 8.04521 0.887361 8.15719C0.926944 8.26916 0.969652 8.3801 1.01601 8.48948C1.06236 8.59833 1.11236 8.70614 1.16496 8.81239C1.21809 8.91864 1.27486 9.02281 1.33424 9.12541C1.39361 9.22854 1.45663 9.32906 1.52226 9.4275C1.5884 9.52646 1.65715 9.62281 1.72903 9.7176C1.8009 9.81187 1.8759 9.90406 1.95351 9.99364C2.03111 10.0837 2.11184 10.1707 2.19465 10.2556C2.27799 10.34 2.36392 10.4223 2.45194 10.5015C2.53996 10.5811 2.63059 10.6577 2.72382 10.7311C2.81705 10.8051 2.91236 10.8759 3.00976 10.9436C3.10715 11.0114 3.20663 11.0759 3.30819 11.1374C3.40976 11.1989 3.51288 11.2572 3.61809 11.3124C3.7233 11.3676 3.83007 11.4192 3.9384 11.4676C4.04674 11.516 4.15663 11.5614 4.26757 11.6025C4.37903 11.6442 4.49101 11.6822 4.60455 11.7171C4.71809 11.7515 4.83267 11.7822 4.9483 11.8098C5.06392 11.8374 5.18007 11.8608 5.29726 11.8811C5.41392 11.9009 5.53163 11.9176 5.64934 11.9306C5.76757 11.9431 5.8858 11.9525 6.00455 11.9577C6.1233 11.9629 6.24153 11.965 6.36028 11.9629C6.47903 11.9608 6.59778 11.9551 6.71601 11.9457C6.83424 11.9364 6.95194 11.9233 7.06965 11.9061C7.18736 11.8895 7.30403 11.8692 7.42017 11.8452C7.53632 11.8207 7.65194 11.7931 7.76653 11.7619C7.88111 11.7306 7.99413 11.6957 8.10663 11.6577C8.21913 11.6192 8.33007 11.5775 8.43944 11.5322C8.54934 11.4869 8.65767 11.4379 8.76444 11.3858C8.87069 11.3337 8.9759 11.2785 9.07903 11.2197C9.18215 11.1614 9.28372 11.0994 9.38319 11.0343C9.48215 10.9697 9.57955 10.9015 9.67486 10.8306L12.3618 13.5176C12.1848 13.7114 12.0118 13.9093 11.8436 14.1108C11.6754 14.3129 11.5118 14.5181 11.353 14.7275C11.1947 14.9369 11.041 15.1499 10.892 15.366C10.7431 15.5827 10.5993 15.8025 10.4608 16.0254C10.3223 16.2483 10.1889 16.4749 10.0608 16.7041C9.93267 16.9332 9.80976 17.1655 9.69257 17.4004C9.57486 17.6353 9.46288 17.8728 9.35663 18.1129C9.25038 18.353 9.14934 18.5957 9.05455 18.8405C8.95924 19.0853 8.86965 19.3322 8.78632 19.5811C8.70247 19.8301 8.62434 20.0811 8.55247 20.3337C8.48007 20.5858 8.41392 20.84 8.35403 21.0957C8.29361 21.3515 8.23892 21.6082 8.19049 21.8666C8.14257 22.1249 8.09986 22.3837 8.0634 22.6442C8.02694 22.9041 7.99674 23.165 7.97226 23.4265C7.9483 23.6879 7.93007 23.9499 7.91757 24.2124C7.90559 24.4749 7.89934 24.7374 7.89934 24.9999C7.89934 25.2624 7.90559 25.5249 7.91757 25.7874C7.93007 26.0499 7.9483 26.3119 7.97226 26.5733C7.99674 26.8348 8.02694 27.0957 8.0634 27.3556C8.09986 27.616 8.14257 27.8749 8.19049 28.1332C8.23892 28.3916 8.29361 28.6483 8.35403 28.9041C8.41392 29.1598 8.48007 29.4134 8.55247 29.666C8.62434 29.9186 8.70247 30.1697 8.78632 30.4186C8.86965 30.6676 8.95924 30.9145 9.05455 31.1593C9.14934 31.4041 9.25038 31.6468 9.35663 31.8869C9.46288 32.127 9.57486 32.3645 9.69257 32.5994C9.80976 32.8343 9.93267 33.0666 10.0608 33.2957C10.1889 33.5249 10.3223 33.7515 10.4608 33.9744C10.5993 34.1973 10.7431 34.4171 10.892 34.6337C11.041 34.8499 11.1947 35.0629 11.353 35.2723C11.5118 35.4817 11.6754 35.6869 11.8436 35.889C12.0118 36.0905 12.1848 36.2884 12.3618 36.4822L9.67486 39.1692C9.57955 39.0983 9.48215 39.0301 9.38319 38.9655C9.28372 38.9004 9.18215 38.8384 9.07903 38.7801C8.9759 38.7213 8.87069 38.666 8.76444 38.614C8.65767 38.5619 8.54934 38.5129 8.43944 38.4676C8.33007 38.4223 8.21913 38.3806 8.10663 38.3421C7.99413 38.3041 7.88111 38.2692 7.76653 38.2379C7.65194 38.2067 7.53632 38.1791 7.42017 38.1546C7.30403 38.1306 7.18736 38.1103 7.06965 38.0936C6.95194 38.0765 6.83424 38.0634 6.71601 38.0541C6.59778 38.0447 6.47903 38.039 6.36028 38.0369C6.24153 38.0348 6.1233 38.0369 6.00455 38.0421C5.8858 38.0473 5.76757 38.0567 5.64934 38.0692C5.53163 38.0822 5.41392 38.0989 5.29726 38.1186C5.18007 38.139 5.06392 38.1624 4.9483 38.19C4.83267 38.2176 4.71809 38.2483 4.60455 38.2827C4.49101 38.3176 4.37903 38.3556 4.26757 38.3973C4.15663 38.4384 4.04674 38.4838 3.9384 38.5322C3.83007 38.5806 3.7233 38.6322 3.61809 38.6874C3.51288 38.7426 3.40976 38.8009 3.30819 38.8624C3.20663 38.9239 3.10715 38.9884 3.00976 39.0561C2.91236 39.1239 2.81705 39.1947 2.72382 39.2686C2.63059 39.3421 2.53996 39.4186 2.45194 39.4983C2.36392 39.5775 2.27799 39.6598 2.19465 39.7442C2.11184 39.8291 2.03111 39.916 1.95351 40.0061C1.8759 40.0957 1.8009 40.1879 1.72903 40.2822C1.65715 40.377 1.5884 40.4733 1.52226 40.5723C1.45663 40.6707 1.39361 40.7713 1.33424 40.8739C1.27486 40.977 1.21809 41.0811 1.16496 41.1874C1.11236 41.2936 1.06236 41.4015 1.01601 41.5103C0.969652 41.6197 0.926944 41.7306 0.887361 41.8426C0.847777 41.9546 0.81184 42.0676 0.779548 42.1817C0.747256 42.2957 0.718611 42.4108 0.69309 42.527C0.66809 42.6431 0.646735 42.7598 0.628506 42.877C0.610798 42.9942 0.596735 43.1119 0.585798 43.2301C0.575381 43.3483 0.568611 43.4671 0.565485 43.5858C0.562361 43.7041 0.562881 43.8228 0.567048 43.9416C0.571215 44.0603 0.579548 44.1785 0.591006 44.2968C0.602465 44.415 0.61809 44.5327 0.63684 44.6499C0.656111 44.7666 0.678506 44.8832 0.705069 44.9989C0.731111 45.115 0.761319 45.2296 0.794652 45.3436C0.827985 45.4572 0.864965 45.5702 0.90559 45.6817C0.946215 45.7931 0.989965 45.9035 1.03736 46.0124C1.08476 46.1213 1.1358 46.2285 1.18944 46.3343C1.24361 46.4395 1.3009 46.5436 1.36184 46.6457C1.42226 46.7478 1.4858 46.8478 1.55299 46.9457C1.61965 47.0442 1.68944 47.14 1.76236 47.2338C1.83528 47.3275 1.9108 47.4186 1.98944 47.5077C2.06809 47.5968 2.14934 47.6832 2.23319 47.7671C2.31705 47.8509 2.40351 47.9322 2.49257 48.0108C2.58163 48.0895 2.67278 48.165 2.76653 48.2379C2.86028 48.3108 2.95611 48.3806 3.05455 48.4473C3.15246 48.5145 3.25246 48.578 3.35455 48.6384C3.45663 48.6994 3.5608 48.7567 3.66601 48.8108C3.77174 48.8645 3.87903 48.9155 3.98788 48.9629C4.09674 49.0103 4.20715 49.0541 4.31861 49.0947C4.43007 49.1353 4.54309 49.1723 4.65663 49.2056C4.77069 49.239 4.88528 49.2692 5.00142 49.2952C5.11705 49.3218 5.23319 49.3442 5.35038 49.3634C5.46757 49.3822 5.58528 49.3978 5.70351 49.4093C5.82174 49.4207 5.93997 49.4291 6.05872 49.4332C6.17747 49.4374 6.29569 49.4379 6.41444 49.4348C6.53319 49.4317 6.65194 49.4249 6.77017 49.4145C6.8884 49.4035 7.00611 49.3895 7.1233 49.3718C7.24049 49.3535 7.35715 49.3322 7.4733 49.3072C7.58944 49.2817 7.70455 49.253 7.81861 49.2207C7.93267 49.1884 8.04569 49.1525 8.15767 49.1129C8.26965 49.0733 8.38059 49.0306 8.48997 48.9843C8.59882 48.9379 8.70663 48.8879 8.81288 48.8353C8.91913 48.7822 9.0233 48.7254 9.1259 48.666C9.22903 48.6067 9.32955 48.5436 9.42799 48.478C9.52694 48.4119 9.6233 48.3431 9.71809 48.2713C9.81236 48.1994 9.90455 48.1244 9.99413 48.0468C10.0842 47.9692 10.1712 47.8884 10.2561 47.8056C10.3405 47.7223 10.4228 47.6364 10.5019 47.5483C10.5816 47.4603 10.6582 47.3692 10.7316 47.2765C10.8056 47.1832 10.8764 47.0879 10.9441 46.9905C11.0118 46.8931 11.0764 46.7936 11.1379 46.6921C11.1993 46.5905 11.2577 46.4874 11.3129 46.3822C11.3681 46.277 11.4197 46.1702 11.4681 46.0619C11.5165 45.9535 11.5618 45.8436 11.603 45.7327C11.6447 45.6213 11.6827 45.5093 11.7176 45.3957C11.7519 45.2817 11.7827 45.1676 11.8103 45.052C11.8379 44.9364 11.8613 44.8202 11.8816 44.703C11.9014 44.5864 11.9181 44.4686 11.9311 44.3504C11.9436 44.2327 11.953 44.1145 11.9582 43.9957C11.9634 43.877 11.9655 43.7588 11.9634 43.64C11.9613 43.5213 11.9556 43.4025 11.9462 43.2843C11.9368 43.166 11.9238 43.0483 11.9066 42.9306C11.89 42.8129 11.8697 42.6963 11.8457 42.5801C11.8212 42.464 11.7936 42.3483 11.7624 42.2338C11.7311 42.1192 11.6962 42.0061 11.6582 41.8936C11.6197 41.7811 11.578 41.6702 11.5327 41.5608C11.4874 41.4509 11.4384 41.3426 11.3863 41.2358C11.3342 41.1296 11.279 41.0244 11.2202 40.9213C11.1618 40.8181 11.0999 40.7166 11.0348 40.6171C10.9702 40.5181 10.9019 40.4207 10.8311 40.3254L13.5181 37.6384C13.7118 37.8155 13.9098 37.9884 14.1113 38.1567C14.3134 38.3249 14.5186 38.4884 14.728 38.6468C14.9374 38.8056 15.1504 38.9593 15.3665 39.1082C15.5832 39.2572 15.803 39.4009 16.0259 39.5395C16.2488 39.678 16.4754 39.8114 16.7045 39.9395C16.9337 40.0676 17.166 40.1905 17.4009 40.3077C17.6358 40.4254 17.8733 40.5374 18.1134 40.6436C18.3535 40.7499 18.5962 40.8509 18.841 40.9457C19.0858 41.041 19.3327 41.1306 19.5816 41.214C19.8306 41.2978 20.0816 41.3759 20.3342 41.4478C20.5863 41.5202 20.8405 41.5864 21.0962 41.6463C21.3519 41.7067 21.6087 41.7614 21.867 41.8098C22.1254 41.8577 22.3842 41.9004 22.6447 41.9369C22.9045 41.9733 23.1655 42.0035 23.4269 42.028C23.6884 42.052 23.9504 42.0702 24.2129 42.0827C24.4754 42.0947 24.7379 42.1009 25.0004 42.1009C25.2629 42.1009 25.5254 42.0947 25.7879 42.0827C26.0504 42.0702 26.3124 42.052 26.5738 42.028C26.8353 42.0035 27.0962 41.9733 27.3561 41.9369C27.6165 41.9004 27.8754 41.8577 28.1337 41.8098C28.392 41.7614 28.6488 41.7067 28.9045 41.6463C29.1603 41.5864 29.4144 41.5202 29.6665 41.4478C29.9191 41.3759 30.1702 41.2978 30.4191 41.214C30.6681 41.1306 30.915 41.041 31.1598 40.9457C31.4045 40.8509 31.6473 40.7499 31.8874 40.6436C32.1275 40.5374 32.365 40.4254 32.5999 40.3077C32.8348 40.1905 33.067 40.0676 33.2962 39.9395C33.5254 39.8114 33.7519 39.678 33.9749 39.5395C34.1978 39.4009 34.4176 39.2572 34.6342 39.1082C34.8504 38.9593 35.0634 38.8056 35.2728 38.6468C35.4822 38.4884 35.6874 38.3249 35.8894 38.1567C36.091 37.9884 36.2889 37.8155 36.4827 37.6384L39.1697 40.3254C39.0988 40.4207 39.0306 40.5181 38.966 40.6171C38.9009 40.7166 38.8389 40.8181 38.7806 40.9213C38.7217 41.0244 38.6665 41.1296 38.6144 41.2358C38.5624 41.3426 38.5134 41.4509 38.4681 41.5608C38.4228 41.6702 38.3811 41.7811 38.3426 41.8936C38.3046 42.0061 38.2697 42.1192 38.2384 42.2338C38.2072 42.3483 38.1796 42.464 38.1551 42.5801C38.1311 42.6963 38.1108 42.8129 38.0941 42.9306C38.0769 43.0483 38.0639 43.166 38.0546 43.2843C38.0452 43.4025 38.0394 43.5213 38.0374 43.64C38.0353 43.7588 38.0374 43.877 38.0426 43.9957C38.0478 44.1145 38.0572 44.2327 38.0697 44.3504C38.0827 44.4686 38.0993 44.5864 38.1191 44.703C38.1394 44.8202 38.1629 44.9364 38.1905 45.052C38.2181 45.1676 38.2488 45.2817 38.2832 45.3957C38.3181 45.5093 38.3561 45.6213 38.3978 45.7327C38.4389 45.8436 38.4842 45.9535 38.5327 46.0619C38.5811 46.1702 38.6327 46.277 38.6879 46.3822C38.7431 46.4874 38.8014 46.5905 38.8629 46.6921C38.9243 46.7936 38.9889 46.8931 39.0566 46.9905C39.1243 47.0879 39.1952 47.1832 39.2691 47.2765C39.3426 47.3692 39.4191 47.4603 39.4988 47.5483C39.578 47.6364 39.6603 47.7223 39.7447 47.8056C39.8296 47.8884 39.9165 47.9692 40.0066 48.0468C40.0962 48.1244 40.1884 48.1994 40.2827 48.2713C40.3775 48.3431 40.4738 48.4119 40.5728 48.478C40.6712 48.5436 40.7717 48.6067 40.8749 48.666C40.9775 48.7254 41.0816 48.7822 41.1879 48.8353C41.2941 48.8879 41.4019 48.9379 41.5108 48.9843C41.6202 49.0306 41.7311 49.0733 41.8431 49.1129C41.9551 49.1525 42.0681 49.1884 42.1822 49.2207C42.2962 49.253 42.4113 49.2817 42.5275 49.3072C42.6436 49.3322 42.7603 49.3535 42.8775 49.3718C42.9947 49.3895 43.1124 49.4035 43.2306 49.4145C43.3488 49.4249 43.4676 49.4317 43.5863 49.4348C43.7046 49.4379 43.8233 49.4374 43.9421 49.4332C44.0608 49.4291 44.179 49.4207 44.2973 49.4093C44.4155 49.3978 44.5332 49.3822 44.6504 49.3634C44.7676 49.3442 44.8837 49.3218 44.9993 49.2952C45.1155 49.2692 45.2301 49.239 45.3441 49.2056C45.4577 49.1723 45.5707 49.1353 45.6822 49.0947C45.7936 49.0541 45.904 49.0103 46.0129 48.9629C46.1217 48.9155 46.229 48.8645 46.3348 48.8108C46.44 48.7567 46.5441 48.6994 46.6462 48.6384C46.7483 48.578 46.8483 48.5145 46.9462 48.4473C47.0447 48.3806 47.1405 48.3108 47.2342 48.2379C47.328 48.165 47.4191 48.0895 47.5082 48.0108C47.5973 47.9322 47.6837 47.8509 47.7676 47.7671C47.8514 47.6832 47.9327 47.5968 48.0113 47.5077C48.09 47.4186 48.1655 47.3275 48.2384 47.2338C48.3113 47.14 48.3811 47.0442 48.4478 46.9457C48.515 46.8478 48.5785 46.7478 48.6389 46.6457C48.6999 46.5436 48.7572 46.4395 48.8113 46.3343C48.865 46.2285 48.916 46.1213 48.9634 46.0124C49.0108 45.9035 49.0546 45.7931 49.0952 45.6817C49.1358 45.5702 49.1728 45.4572 49.2061 45.3436C49.2394 45.2296 49.2697 45.115 49.2957 44.9989C49.3223 44.8832 49.3447 44.7671 49.3639 44.6499C49.3827 44.5327 49.3983 44.415 49.4098 44.2968C49.4212 44.1785 49.4296 44.0603 49.4337 43.9416C49.4379 43.8228 49.4384 43.7041 49.4353 43.5858C49.4322 43.4671 49.4254 43.3483 49.415 43.2301C49.404 43.1119 49.39 42.9942 49.3723 42.877C49.354 42.7598 49.3327 42.6431 49.3077 42.527C49.2822 42.4108 49.2535 42.2957 49.2212 42.1817C49.1889 42.0676 49.153 41.9546 49.1134 41.8426C49.0738 41.7306 49.0311 41.6197 48.9848 41.5103C48.9384 41.4015 48.8884 41.2936 48.8358 41.1874C48.7827 41.0811 48.7259 40.977 48.6665 40.8744C48.6072 40.7713 48.5441 40.6707 48.4785 40.5723C48.4124 40.4733 48.3436 40.377 48.2717 40.2822C48.1999 40.1879 48.1249 40.0957 48.0473 40.0061C47.9697 39.916 47.8889 39.8291 47.8061 39.7442C47.7228 39.6598 47.6368 39.5775 47.5488 39.4983C47.4608 39.4186 47.3697 39.3421 47.2769 39.2686C47.1837 39.1947 47.0884 39.1239 46.991 39.0561C46.8936 38.9884 46.7941 38.9239 46.6926 38.8624C46.591 38.8009 46.4879 38.7426 46.3827 38.6874C46.2775 38.6322 46.1707 38.5806 46.0624 38.5322C45.954 38.4838 45.8441 38.4384 45.7332 38.3973C45.6217 38.3556 45.5098 38.3176 45.3962 38.2827C45.2822 38.2483 45.1681 38.2176 45.0525 38.19C44.9368 38.1624 44.8207 38.139 44.7035 38.1186C44.5868 38.0989 44.4691 38.0822 44.3514 38.0692C44.2332 38.0567 44.115 38.0473 43.9962 38.0421C43.8775 38.0369 43.7592 38.0348 43.6405 38.0369C43.5217 38.039 43.403 38.0447 43.2848 38.0541C43.1665 38.0634 43.0488 38.0765 42.9311 38.0936C42.8134 38.1103 42.6967 38.1306 42.5806 38.1546C42.4644 38.1791 42.3488 38.2067 42.2342 38.2379C42.1197 38.2692 42.0066 38.3041 41.8941 38.3421C41.7816 38.3806 41.6707 38.4223 41.5613 38.4676C41.4514 38.5129 41.3431 38.5619 41.2363 38.614C41.1301 38.666 41.0249 38.7213 40.9217 38.7801C40.8186 38.8384 40.7171 38.9004 40.6176 38.9655C40.5186 39.0301 40.4212 39.0983 40.3259 39.1692L37.6389 36.4822C37.816 36.2884 37.9889 36.0905 38.1572 35.889C38.3254 35.6869 38.4889 35.4817 38.6478 35.2723C38.8061 35.0629 38.9598 34.8499 39.1087 34.6337C39.2577 34.4171 39.4014 34.1973 39.54 33.9744C39.6785 33.7515 39.8118 33.5249 39.94 33.2957C40.0681 33.0666 40.191 32.8343 40.3082 32.5994C40.4259 32.3645 40.5379 32.127 40.6441 31.8869C40.7504 31.6468 40.8514 31.4041 40.9462 31.1593C41.0415 30.9145 41.1311 30.6676 41.2144 30.4186C41.2983 30.1697 41.3764 29.9186 41.4483 29.666C41.5207 29.414 41.5868 29.1598 41.6467 28.9041C41.7072 28.6483 41.7618 28.3916 41.8103 28.1332C41.8582 27.8749 41.9009 27.616 41.9374 27.3556C41.9738 27.0957 42.004 26.8348 42.0285 26.5733C42.0525 26.3119 42.0707 26.0499 42.0832 25.7874C42.0952 25.5249 42.1014 25.2624 42.1014 24.9999C42.1014 24.7374 42.0952 24.4749 42.0832 24.2124C42.0707 23.9499 42.0525 23.6879 42.0285 23.4265C42.004 23.165 41.9738 22.9041 41.9374 22.6442C41.9009 22.3837 41.8582 22.1249 41.8103 21.8666C41.7618 21.6082 41.7072 21.3515 41.6467 21.0957C41.5868 20.84 41.5207 20.5858 41.4483 20.3337C41.3764 20.0811 41.2983 19.8301 41.2144 19.5811C41.1311 19.3322 41.0415 19.0853 40.9462 18.8405C40.8514 18.5957 40.7504 18.353 40.6441 18.1129C40.5379 17.8728 40.4259 17.6353 40.3082 17.4004C40.191 17.1655 40.0681 16.9332 39.94 16.7041C39.8118 16.4749 39.6785 16.2483 39.54 16.0254C39.4014 15.8025 39.2577 15.5827 39.1087 15.366C38.9598 15.1499 38.8061 14.9369 38.6478 14.7275C38.4889 14.5181 38.3254 14.3129 38.1572 14.1108C37.9889 13.9093 37.816 13.7114 37.6389 13.5176L40.3259 10.8306C40.416 10.8978 40.5082 10.9629 40.6019 11.0249C40.6957 11.0869 40.791 11.1462 40.8884 11.2025C40.9858 11.2587 41.0848 11.3124 41.1853 11.3629C41.2858 11.4134 41.3879 11.4608 41.491 11.5056C41.5947 11.5499 41.6988 11.5916 41.8046 11.6296C41.9103 11.6681 42.0171 11.703 42.1254 11.7353C42.2332 11.7671 42.3415 11.7957 42.4514 11.8212C42.5608 11.8473 42.6712 11.8692 42.7816 11.8884C42.8926 11.9072 43.004 11.9233 43.116 11.9358C43.2275 11.9478 43.34 11.9572 43.4519 11.9629C43.5644 11.9686 43.6769 11.9712 43.7894 11.9702C43.9019 11.9697 44.0144 11.9655 44.1264 11.9577C44.2389 11.9504 44.3504 11.9395 44.4624 11.9254C44.5738 11.9114 44.6848 11.8936 44.7957 11.8733C44.9061 11.8525 45.016 11.8285 45.1249 11.8015C45.2342 11.7739 45.3426 11.7436 45.4499 11.7098C45.5572 11.6765 45.6634 11.6395 45.7686 11.5999C45.8738 11.5598 45.9775 11.5171 46.0806 11.4707C46.1832 11.4249 46.2842 11.3754 46.3837 11.3239C46.4837 11.2718 46.5816 11.2166 46.678 11.1587C46.7749 11.1009 46.8691 11.04 46.9624 10.977C47.0551 10.9134 47.1462 10.8473 47.2348 10.7785C47.3238 10.7093 47.4108 10.6379 47.4957 10.564C47.5801 10.49 47.6629 10.4134 47.7431 10.3348C47.8233 10.2556 47.9009 10.1749 47.9764 10.091C48.0519 10.0077 48.1249 9.92229 48.1952 9.83427C48.2655 9.74677 48.3332 9.65666 48.3978 9.565C48.4629 9.47333 48.5254 9.37958 48.5848 9.28375C48.6441 9.18844 48.7009 9.09156 48.7546 8.9926C48.8082 8.89364 48.8592 8.79312 48.9066 8.69156C48.9546 8.58948 48.9993 8.48635 49.041 8.38219C49.0827 8.2775 49.1212 8.17177 49.1566 8.065C49.1921 7.95823 49.2243 7.85041 49.2535 7.74208C49.2822 7.63323 49.3082 7.52385 49.3306 7.41344C49.3535 7.30354 49.3728 7.1926 49.3884 7.08114C49.4046 6.96969 49.4176 6.85823 49.4269 6.74625C49.4363 6.63375 49.4421 6.52177 49.4447 6.40927C49.4478 6.29677 49.4473 6.18427 49.4431 6.07177C49.4394 5.95927 49.4322 5.84729 49.4212 5.73531C49.4108 5.62333 49.3973 5.51187 49.3801 5.40041C49.3629 5.28948 49.3421 5.17854 49.3186 5.06864C49.2947 4.95875 49.2681 4.84989 49.2379 4.74104C49.2077 4.63271 49.1743 4.52541 49.1379 4.41916C49.1009 4.31291 49.0613 4.20771 49.0186 4.10354C48.9759 3.99937 48.9301 3.89677 48.8811 3.79521C48.8327 3.69416 48.7806 3.59416 48.7259 3.49573C48.6712 3.39781 48.6134 3.30093 48.553 3.20614C48.4926 3.11135 48.4296 3.01864 48.3634 2.9275C48.2973 2.83635 48.229 2.74729 48.1577 2.65979C48.0863 2.57281 48.0129 2.48791 47.9363 2.40562C47.8603 2.32281 47.7816 2.2426 47.7004 2.16448C47.6197 2.08635 47.5363 2.01083 47.4504 1.93739C47.365 1.86448 47.2775 1.79416 47.1879 1.72593C47.0983 1.65823 47.0066 1.59312 46.9129 1.53062C46.8197 1.46812 46.7243 1.40823 46.6269 1.35146C46.5301 1.29468 46.4316 1.24052 46.3311 1.18948C46.2311 1.13843 46.129 1.09052 46.0259 1.04573C45.9228 1.00041 45.8186 0.958747 45.7129 0.919685C45.6077 0.881143 45.5009 0.845726 45.3931 0.812914C45.2853 0.780622 45.1769 0.750935 45.0676 0.724893C44.9582 0.698851 44.8478 0.676456 44.7374 0.656664C44.6264 0.636872 44.515 0.620726 44.4035 0.607706C44.2915 0.594685 44.1796 0.58531 44.0671 0.57906C43.9551 0.57281 43.8426 0.569685 43.7301 0.569685ZM2.19882 6.27021C2.19882 6.13687 2.20559 6.00406 2.21861 5.87125C2.23163 5.73844 2.25142 5.60666 2.27746 5.47594C2.30351 5.34521 2.3358 5.21604 2.37434 5.08844C2.41288 4.96083 2.45819 4.83531 2.50924 4.71187C2.56028 4.58896 2.61705 4.46864 2.68007 4.35093C2.74257 4.23323 2.81132 4.11916 2.88528 4.00823C2.95924 3.89729 3.03892 3.79052 3.1233 3.68739C3.20767 3.58427 3.29726 3.48531 3.39153 3.39104C3.4858 3.29677 3.58476 3.20718 3.68788 3.12281C3.79101 3.03843 3.89778 2.95875 4.00871 2.88479C4.11965 2.81083 4.23371 2.74208 4.35142 2.67958C4.46913 2.61656 4.58944 2.55979 4.71236 2.50875C4.8358 2.45771 4.96132 2.41239 5.08892 2.37385C5.21653 2.33531 5.34569 2.30302 5.47642 2.27698C5.60715 2.25093 5.73892 2.23114 5.87174 2.21812C6.00455 2.2051 6.13736 2.19833 6.27069 2.19833C6.40403 2.19833 6.53736 2.2051 6.66965 2.21812C6.80247 2.23114 6.93424 2.25093 7.06497 2.27698C7.19569 2.30302 7.32486 2.33531 7.45247 2.37385C7.58007 2.41239 7.70559 2.45771 7.82903 2.50875C7.95194 2.55979 8.07226 2.61656 8.18997 2.67958C8.30767 2.74208 8.42174 2.81083 8.53267 2.88479C8.64361 2.95875 8.7509 3.03843 8.85403 3.12281C8.95663 3.20718 9.05559 3.29677 9.14986 3.39104C9.24413 3.48531 9.33372 3.58427 9.41809 3.68739C9.50299 3.79052 9.58215 3.89729 9.65611 4.00823C9.73007 4.11916 9.79882 4.23323 9.86184 4.35093C9.92434 4.46864 9.98163 4.58896 10.0327 4.71187C10.0837 4.83531 10.1285 4.96083 10.167 5.08844C10.2056 5.21604 10.2384 5.34521 10.2639 5.47594C10.29 5.60666 10.3098 5.73844 10.3228 5.87125C10.3358 6.00406 10.3426 6.13687 10.3426 6.27021C10.3426 6.40354 10.3358 6.53687 10.3228 6.66916C10.3098 6.80198 10.29 6.93375 10.2639 7.06448C10.2384 7.19521 10.2056 7.32437 10.167 7.45198C10.1285 7.57958 10.0837 7.7051 10.0327 7.82854C9.98163 7.95146 9.92434 8.07177 9.86184 8.18948C9.79882 8.30719 9.73007 8.42125 9.65611 8.53219C9.58215 8.64312 9.50299 8.75041 9.41809 8.85354C9.33372 8.95614 9.24413 9.0551 9.14986 9.14937C9.05559 9.24364 8.95663 9.33323 8.85403 9.4176C8.7509 9.5025 8.64361 9.58166 8.53267 9.65562C8.42174 9.72958 8.30767 9.79833 8.18997 9.86135C8.07226 9.92385 7.95194 9.98114 7.82903 10.0322C7.70559 10.0832 7.58007 10.128 7.45247 10.1666C7.32486 10.2051 7.19569 10.2379 7.06497 10.2634C6.93424 10.2895 6.80247 10.3093 6.66965 10.3223C6.53736 10.3353 6.40403 10.3421 6.27069 10.3421C6.13736 10.3421 6.00455 10.3353 5.87174 10.3223C5.73892 10.3093 5.60715 10.2895 5.47642 10.2634C5.34569 10.2379 5.21653 10.2051 5.08892 10.1666C4.96132 10.128 4.8358 10.0832 4.71236 10.0322C4.58944 9.98114 4.46913 9.92385 4.35142 9.86135C4.23371 9.79833 4.11965 9.72958 4.00871 9.65562C3.89778 9.58166 3.79101 9.5025 3.68788 9.4176C3.58476 9.33323 3.4858 9.24364 3.39153 9.14937C3.29726 9.0551 3.20767 8.95614 3.1233 8.85354C3.03892 8.75041 2.95924 8.64312 2.88528 8.53219C2.81132 8.42125 2.74257 8.30719 2.68007 8.18948C2.61705 8.07177 2.56028 7.95146 2.50924 7.82854C2.45819 7.7051 2.41288 7.57958 2.37434 7.45198C2.3358 7.32437 2.30351 7.19521 2.27746 7.06448C2.25142 6.93375 2.23163 6.80198 2.21861 6.66916C2.20559 6.53687 2.19882 6.40354 2.19882 6.27021ZM6.27069 47.8009C6.13736 47.8009 6.00455 47.7947 5.87174 47.7817C5.73892 47.7686 5.60715 47.7489 5.47642 47.7228C5.34569 47.6968 5.21653 47.6645 5.08892 47.6259C4.96132 47.5874 4.8358 47.5421 4.71236 47.491C4.58944 47.44 4.46913 47.3832 4.35142 47.3202C4.23371 47.2577 4.11965 47.189 4.00871 47.115C3.89778 47.041 3.79101 46.9614 3.68788 46.877C3.58476 46.7926 3.4858 46.703 3.39153 46.6088C3.29726 46.5145 3.20767 46.4155 3.1233 46.3124C3.03892 46.2093 2.95924 46.1025 2.88528 45.9916C2.81132 45.8806 2.74257 45.7666 2.68007 45.6489C2.61705 45.5311 2.56028 45.4108 2.50924 45.2879C2.45819 45.1645 2.41288 45.039 2.37434 44.9114C2.3358 44.7838 2.30351 44.6546 2.27746 44.5239C2.25142 44.3931 2.23163 44.2614 2.21861 44.1285C2.20559 43.9957 2.19882 43.8629 2.19882 43.7296C2.19882 43.5963 2.20559 43.4629 2.21861 43.3306C2.23163 43.1978 2.25142 43.066 2.27746 42.9353C2.30351 42.8046 2.3358 42.6754 2.37434 42.5478C2.41288 42.4202 2.45819 42.2947 2.50924 42.1713C2.56028 42.0483 2.61705 41.928 2.68007 41.8103C2.74257 41.6926 2.81132 41.5785 2.88528 41.4676C2.95924 41.3567 3.03892 41.2494 3.1233 41.1463C3.20767 41.0436 3.29726 40.9447 3.39153 40.8504C3.4858 40.7561 3.58476 40.6666 3.68788 40.5822C3.79101 40.4973 3.89778 40.4181 4.00871 40.3442C4.11965 40.2702 4.23371 40.2015 4.35142 40.1384C4.46913 40.0759 4.58944 40.0186 4.71236 39.9676C4.8358 39.9166 4.96132 39.8718 5.08892 39.8332C5.21653 39.7947 5.34569 39.7619 5.47642 39.7364C5.60715 39.7103 5.73892 39.6905 5.87174 39.6775C6.00455 39.6645 6.13736 39.6577 6.27069 39.6577C6.40403 39.6577 6.53736 39.6645 6.66965 39.6775C6.80247 39.6905 6.93424 39.7103 7.06497 39.7364C7.19569 39.7619 7.32486 39.7947 7.45247 39.8332C7.58007 39.8718 7.70559 39.9166 7.82903 39.9676C7.95194 40.0186 8.07226 40.0759 8.18997 40.1384C8.30767 40.2015 8.42174 40.2702 8.53267 40.3442C8.64361 40.4181 8.7509 40.4973 8.85403 40.5822C8.95663 40.6666 9.05559 40.7561 9.14986 40.8504C9.24413 40.9447 9.33372 41.0436 9.41809 41.1463C9.50299 41.2494 9.58215 41.3567 9.65611 41.4676C9.73007 41.5785 9.79882 41.6926 9.86184 41.8103C9.92434 41.928 9.98163 42.0483 10.0327 42.1713C10.0837 42.2947 10.1285 42.4202 10.167 42.5478C10.2056 42.6754 10.2384 42.8046 10.2639 42.9353C10.29 43.066 10.3098 43.1978 10.3228 43.3306C10.3358 43.4629 10.3426 43.5963 10.3426 43.7296C10.3426 43.8629 10.3358 43.9957 10.3228 44.1285C10.3098 44.2614 10.29 44.3931 10.2639 44.5239C10.2384 44.6546 10.2056 44.7838 10.167 44.9114C10.1285 45.039 10.0837 45.1645 10.0327 45.2879C9.98163 45.4108 9.92434 45.5311 9.86184 45.6489C9.79882 45.7666 9.73007 45.8806 9.65611 45.9916C9.58215 46.1025 9.50299 46.2093 9.41809 46.3124C9.33372 46.4155 9.24413 46.5145 9.14986 46.6088C9.05559 46.703 8.95663 46.7926 8.85403 46.877C8.7509 46.9614 8.64361 47.041 8.53267 47.115C8.42174 47.189 8.30767 47.2577 8.18997 47.3202C8.07226 47.3832 7.95194 47.44 7.82903 47.491C7.70559 47.5421 7.58007 47.5874 7.45247 47.6259C7.32486 47.6645 7.19569 47.6968 7.06497 47.7228C6.93424 47.7489 6.80247 47.7686 6.66965 47.7817C6.53736 47.7947 6.40403 47.8009 6.27069 47.8009ZM47.8014 43.7296C47.8014 43.8629 47.7952 43.9957 47.7822 44.1285C47.7691 44.2614 47.7493 44.3931 47.7233 44.5239C47.6973 44.6546 47.665 44.7838 47.6264 44.9114C47.5879 45.039 47.5426 45.1645 47.4915 45.2879C47.4405 45.4108 47.3837 45.5311 47.3207 45.6489C47.2582 45.7666 47.1894 45.8806 47.1155 45.9916C47.0415 46.1025 46.9618 46.2093 46.8775 46.3124C46.7931 46.4155 46.7035 46.5145 46.6092 46.6088C46.515 46.703 46.416 46.7926 46.3129 46.877C46.2098 46.9614 46.103 47.041 45.9921 47.115C45.8811 47.189 45.7671 47.2577 45.6493 47.3202C45.5316 47.3832 45.4113 47.44 45.2884 47.491C45.165 47.5421 45.0394 47.5874 44.9118 47.6259C44.7842 47.6645 44.6551 47.6968 44.5243 47.7228C44.3936 47.7489 44.2618 47.7686 44.129 47.7817C43.9962 47.7947 43.8634 47.8009 43.7301 47.8009C43.5967 47.8009 43.4634 47.7947 43.3311 47.7817C43.1983 47.7686 43.0665 47.7489 42.9358 47.7228C42.8051 47.6968 42.6759 47.6645 42.5483 47.6259C42.4207 47.5874 42.2952 47.5421 42.1717 47.491C42.0488 47.44 41.9285 47.3832 41.8108 47.3202C41.6931 47.2577 41.579 47.189 41.4681 47.115C41.3572 47.041 41.2499 46.9614 41.1467 46.877C41.0441 46.7926 40.9452 46.703 40.8509 46.6088C40.7566 46.5145 40.6671 46.4155 40.5827 46.3124C40.4978 46.2093 40.4186 46.1025 40.3447 45.9916C40.2707 45.8806 40.2019 45.7666 40.1389 45.6489C40.0764 45.5311 40.0191 45.4108 39.9681 45.2879C39.9171 45.1645 39.8723 45.039 39.8337 44.9114C39.7952 44.7838 39.7624 44.6546 39.7368 44.5239C39.7108 44.3931 39.691 44.2614 39.678 44.1285C39.665 43.9957 39.6582 43.8629 39.6582 43.7296C39.6582 43.5963 39.665 43.4629 39.678 43.3306C39.691 43.1978 39.7108 43.066 39.7368 42.9353C39.7624 42.8046 39.7952 42.6754 39.8337 42.5478C39.8723 42.4202 39.9171 42.2947 39.9681 42.1713C40.0191 42.0483 40.0764 41.928 40.1389 41.8103C40.2019 41.6926 40.2707 41.5785 40.3447 41.4676C40.4186 41.3567 40.4978 41.2494 40.5827 41.1463C40.6671 41.0436 40.7566 40.9447 40.8509 40.8504C40.9452 40.7561 41.0441 40.6666 41.1467 40.5822C41.2499 40.4973 41.3572 40.4181 41.4681 40.3442C41.579 40.2702 41.6931 40.2015 41.8108 40.1384C41.9285 40.0759 42.0488 40.0186 42.1717 39.9676C42.2952 39.9166 42.4207 39.8718 42.5483 39.8332C42.6759 39.7947 42.8051 39.7619 42.9358 39.7364C43.0665 39.7103 43.1983 39.6905 43.3311 39.6775C43.4634 39.6645 43.5967 39.6577 43.7301 39.6577C43.8634 39.6577 43.9962 39.6645 44.129 39.6775C44.2618 39.6905 44.3936 39.7103 44.5243 39.7364C44.6551 39.7619 44.7842 39.7947 44.9118 39.8332C45.0394 39.8718 45.165 39.9166 45.2884 39.9676C45.4113 40.0186 45.5316 40.0759 45.6493 40.1384C45.7671 40.2015 45.8811 40.2702 45.9921 40.3442C46.103 40.4181 46.2098 40.4973 46.3129 40.5822C46.416 40.6666 46.515 40.7561 46.6092 40.8504C46.7035 40.9447 46.7931 41.0436 46.8775 41.1463C46.9618 41.2494 47.0415 41.3567 47.1155 41.4676C47.1894 41.5785 47.2582 41.6926 47.3207 41.8103C47.3837 41.928 47.4405 42.0483 47.4915 42.1713C47.5426 42.2947 47.5879 42.4202 47.6264 42.5478C47.665 42.6754 47.6973 42.8046 47.7233 42.9353C47.7493 43.066 47.7691 43.1978 47.7822 43.3306C47.7952 43.4629 47.8014 43.5963 47.8014 43.7296ZM25.0004 40.4723C24.7473 40.4723 24.4941 40.466 24.241 40.4535C23.9884 40.441 23.7358 40.4223 23.4837 40.3978C23.2316 40.3728 22.9806 40.3421 22.7301 40.3046C22.4795 40.2676 22.2301 40.2244 21.9816 40.1749C21.7337 40.1254 21.4863 40.0702 21.241 40.0088C20.9952 39.9468 20.7514 39.8796 20.5092 39.8061C20.2665 39.7327 20.0264 39.653 19.7879 39.5676C19.5493 39.4822 19.3134 39.3916 19.0795 39.2947C18.8457 39.1973 18.6139 39.0952 18.3853 38.9869C18.1561 38.8785 17.9301 38.7645 17.7066 38.6452C17.4837 38.5259 17.2634 38.4009 17.0462 38.2707C16.829 38.1405 16.615 38.0051 16.4045 37.8645C16.1941 37.7239 15.9868 37.578 15.7837 37.4275C15.5801 37.2765 15.3806 37.1207 15.1848 36.9603C14.9889 36.7994 14.7973 36.6343 14.6098 36.464C14.4223 36.2942 14.2389 36.1197 14.0598 35.9405C13.8806 35.7614 13.7061 35.578 13.5363 35.3905C13.366 35.203 13.2009 35.0114 13.04 34.8155C12.8795 34.6197 12.7238 34.4202 12.5728 34.2166C12.4223 34.0134 12.2764 33.8061 12.1358 33.5957C11.9952 33.3853 11.8598 33.1712 11.7295 32.9541C11.5993 32.7369 11.4743 32.5166 11.3551 32.2936C11.2358 32.0702 11.1217 31.8442 11.0134 31.615C10.9051 31.3864 10.803 31.1546 10.7056 30.9207C10.6087 30.6869 10.5176 30.4509 10.4327 30.2124C10.3473 29.9739 10.2676 29.7337 10.1941 29.491C10.1207 29.2489 10.0535 29.0051 9.99153 28.7593C9.93007 28.514 9.87486 28.2666 9.82538 28.0186C9.7759 27.7702 9.73267 27.5207 9.69569 27.2702C9.65819 27.0197 9.62747 26.7686 9.60247 26.5166C9.57799 26.2645 9.55924 26.0119 9.54674 25.7593C9.53424 25.5061 9.52799 25.253 9.52799 24.9999C9.52799 24.7468 9.53424 24.4936 9.54674 24.2405C9.55924 23.9879 9.57799 23.7353 9.60247 23.4832C9.62747 23.2311 9.65819 22.9801 9.69569 22.7296C9.73267 22.4791 9.7759 22.2296 9.82538 21.9811C9.87486 21.7332 9.93007 21.4858 9.99153 21.2405C10.0535 20.9947 10.1207 20.7509 10.1941 20.5087C10.2676 20.266 10.3473 20.0259 10.4327 19.7874C10.5176 19.5489 10.6087 19.3129 10.7056 19.0791C10.803 18.8452 10.9051 18.6134 11.0134 18.3848C11.1217 18.1556 11.2358 17.9296 11.3551 17.7061C11.4743 17.4832 11.5993 17.2629 11.7295 17.0457C11.8598 16.8285 11.9952 16.6145 12.1358 16.4041C12.2764 16.1936 12.4223 15.9864 12.5728 15.7832C12.7238 15.5796 12.8795 15.3801 13.04 15.1843C13.2009 14.9884 13.366 14.7968 13.5363 14.6093C13.7061 14.4218 13.8806 14.2384 14.0598 14.0593C14.2389 13.8801 14.4223 13.7056 14.6098 13.5358C14.7973 13.3655 14.9889 13.2004 15.1848 13.0395C15.3806 12.8791 15.5801 12.7233 15.7837 12.5723C15.9868 12.4218 16.1941 12.2759 16.4045 12.1353C16.615 11.9947 16.829 11.8593 17.0462 11.7291C17.2634 11.5989 17.4837 11.4739 17.7066 11.3546C17.9301 11.2353 18.1561 11.1212 18.3853 11.0129C18.6139 10.9046 18.8457 10.8025 19.0795 10.7051C19.3134 10.6082 19.5493 10.5171 19.7879 10.4322C20.0264 10.3468 20.2665 10.2671 20.5092 10.1936C20.7514 10.1202 20.9952 10.053 21.241 9.99104C21.4863 9.92958 21.7337 9.87437 21.9816 9.82489C22.2301 9.77541 22.4795 9.73219 22.7301 9.69521C22.9806 9.65771 23.2316 9.62698 23.4837 9.60198C23.7358 9.5775 23.9884 9.55875 24.241 9.54625C24.4941 9.53375 24.7473 9.5275 25.0004 9.5275C25.2535 9.5275 25.5066 9.53375 25.7598 9.54625C26.0124 9.55875 26.265 9.5775 26.517 9.60198C26.7691 9.62698 27.0202 9.65771 27.2707 9.69521C27.5212 9.73219 27.7707 9.77541 28.0191 9.82489C28.267 9.87437 28.5144 9.92958 28.7598 9.99104C29.0056 10.053 29.2493 10.1202 29.4915 10.1936C29.7342 10.2671 29.9743 10.3468 30.2129 10.4322C30.4514 10.5171 30.6874 10.6082 30.9212 10.7051C31.1551 10.8025 31.3868 10.9046 31.6155 11.0129C31.8447 11.1212 32.0707 11.2353 32.2941 11.3546C32.517 11.4739 32.7374 11.5989 32.9545 11.7291C33.1717 11.8593 33.3858 11.9947 33.5962 12.1353C33.8066 12.2759 34.0139 12.4218 34.217 12.5723C34.4207 12.7233 34.6202 12.8791 34.816 13.0395C35.0118 13.2004 35.2035 13.3655 35.391 13.5358C35.5785 13.7056 35.7618 13.8801 35.941 14.0593C36.1202 14.2384 36.2947 14.4218 36.4644 14.6093C36.6348 14.7968 36.7999 14.9884 36.9608 15.1843C37.1212 15.3801 37.2769 15.5796 37.428 15.7832C37.5785 15.9864 37.7243 16.1936 37.865 16.4041C38.0056 16.6145 38.141 16.8285 38.2712 17.0457C38.4014 17.2629 38.5264 17.4832 38.6457 17.7061C38.765 17.9296 38.879 18.1556 38.9874 18.3848C39.0957 18.6134 39.1978 18.8452 39.2952 19.0791C39.3921 19.3129 39.4827 19.5489 39.5681 19.7874C39.6535 20.0259 39.7332 20.266 39.8066 20.5087C39.8801 20.7509 39.9473 20.9947 40.0092 21.2405C40.0707 21.4858 40.1259 21.7332 40.1754 21.9811C40.2249 22.2296 40.2681 22.4791 40.3051 22.7296C40.3426 22.9801 40.3733 23.2311 40.3983 23.4832C40.4228 23.7353 40.4415 23.9879 40.454 24.2405C40.4665 24.4936 40.4728 24.7468 40.4728 24.9999C40.4728 25.253 40.4665 25.5061 40.454 25.7593C40.4415 26.0119 40.4228 26.2645 40.3983 26.5166C40.3733 26.7686 40.3426 27.0197 40.3051 27.2702C40.2681 27.5207 40.2249 27.7702 40.1754 28.0186C40.1259 28.2666 40.0707 28.514 40.0092 28.7593C39.9473 29.0051 39.8801 29.2489 39.8066 29.491C39.7332 29.7337 39.6535 29.9739 39.5681 30.2124C39.4827 30.4509 39.3921 30.6869 39.2952 30.9207C39.1978 31.1546 39.0957 31.3864 38.9874 31.615C38.879 31.8442 38.765 32.0702 38.6457 32.2936C38.5264 32.5166 38.4014 32.7369 38.2712 32.9541C38.141 33.1712 38.0056 33.3853 37.865 33.5957C37.7243 33.8061 37.5785 34.0134 37.428 34.2166C37.2769 34.4202 37.1212 34.6197 36.9608 34.8155C36.7999 35.0114 36.6348 35.203 36.4644 35.3905C36.2947 35.578 36.1202 35.7614 35.941 35.9405C35.7618 36.1197 35.5785 36.2942 35.391 36.464C35.2035 36.6343 35.0118 36.7994 34.816 36.9603C34.6202 37.1207 34.4207 37.2765 34.217 37.4275C34.0139 37.578 33.8066 37.7239 33.5962 37.8645C33.3858 38.0051 33.1717 38.1405 32.9545 38.2707C32.7374 38.4009 32.517 38.5259 32.2941 38.6452C32.0707 38.7645 31.8447 38.8785 31.6155 38.9869C31.3868 39.0952 31.1551 39.1973 30.9212 39.2947C30.6874 39.3916 30.4514 39.4822 30.2129 39.5676C29.9743 39.653 29.7342 39.7327 29.4915 39.8061C29.2493 39.8796 29.0056 39.9468 28.7598 40.0088C28.5144 40.0702 28.267 40.1254 28.0191 40.1749C27.7707 40.2244 27.5212 40.2676 27.2707 40.3046C27.0202 40.3421 26.7691 40.3728 26.517 40.3978C26.265 40.4223 26.0124 40.441 25.7598 40.4535C25.5066 40.466 25.2535 40.4723 25.0004 40.4723ZM43.7301 10.3421C43.5967 10.3421 43.4634 10.3353 43.3311 10.3223C43.1983 10.3093 43.0665 10.2895 42.9358 10.2634C42.8051 10.2379 42.6759 10.2051 42.5483 10.1666C42.4207 10.128 42.2952 10.0832 42.1717 10.0322C42.0488 9.98114 41.9285 9.92385 41.8108 9.86135C41.6931 9.79833 41.579 9.72958 41.4681 9.65562C41.3572 9.58166 41.2499 9.5025 41.1467 9.4176C41.0441 9.33323 40.9452 9.24364 40.8509 9.14937C40.7566 9.0551 40.6671 8.95614 40.5827 8.85354C40.4978 8.75041 40.4186 8.64312 40.3447 8.53219C40.2707 8.42125 40.2019 8.30719 40.1389 8.18948C40.0764 8.07177 40.0191 7.95146 39.9681 7.82854C39.9171 7.7051 39.8723 7.57958 39.8337 7.45198C39.7952 7.32437 39.7624 7.19521 39.7368 7.06448C39.7108 6.93375 39.691 6.80198 39.678 6.66916C39.665 6.53687 39.6582 6.40354 39.6582 6.27021C39.6582 6.13687 39.665 6.00406 39.678 5.87125C39.691 5.73844 39.7108 5.60666 39.7368 5.47594C39.7624 5.34521 39.7952 5.21604 39.8337 5.08844C39.8723 4.96083 39.9171 4.83531 39.9681 4.71187C40.0191 4.58896 40.0764 4.46864 40.1389 4.35093C40.2019 4.23323 40.2707 4.11916 40.3447 4.00823C40.4186 3.89729 40.4978 3.79052 40.5827 3.68739C40.6671 3.58427 40.7566 3.48531 40.8509 3.39104C40.9452 3.29677 41.0441 3.20718 41.1467 3.12281C41.2499 3.03843 41.3572 2.95875 41.4681 2.88479C41.579 2.81083 41.6931 2.74208 41.8108 2.67958C41.9285 2.61656 42.0488 2.55979 42.1717 2.50875C42.2952 2.45771 42.4207 2.41239 42.5483 2.37385C42.6759 2.33531 42.8051 2.30302 42.9358 2.27698C43.0665 2.25093 43.1983 2.23114 43.3311 2.21812C43.4634 2.2051 43.5967 2.19833 43.7301 2.19833C43.8634 2.19833 43.9962 2.2051 44.129 2.21812C44.2618 2.23114 44.3936 2.25093 44.5243 2.27698C44.6551 2.30302 44.7842 2.33531 44.9118 2.37385C45.0394 2.41239 45.165 2.45771 45.2884 2.50875C45.4113 2.55979 45.5316 2.61656 45.6493 2.67958C45.7671 2.74208 45.8811 2.81083 45.9921 2.88479C46.103 2.95875 46.2098 3.03843 46.3129 3.12281C46.416 3.20718 46.515 3.29677 46.6092 3.39104C46.7035 3.48531 46.7931 3.58427 46.8775 3.68739C46.9618 3.79052 47.0415 3.89729 47.1155 4.00823C47.1894 4.11916 47.2582 4.23323 47.3207 4.35093C47.3837 4.46864 47.4405 4.58896 47.4915 4.71187C47.5426 4.83531 47.5879 4.96083 47.6264 5.08844C47.665 5.21604 47.6973 5.34521 47.7233 5.47594C47.7493 5.60666 47.7691 5.73844 47.7822 5.87125C47.7952 6.00406 47.8014 6.13687 47.8014 6.27021C47.8014 6.40354 47.7952 6.53687 47.7822 6.66916C47.7691 6.80198 47.7493 6.93375 47.7233 7.06448C47.6973 7.19521 47.665 7.32437 47.6264 7.45198C47.5879 7.57958 47.5426 7.7051 47.4915 7.82854C47.4405 7.95146 47.3837 8.07177 47.3207 8.18948C47.2582 8.30719 47.1894 8.42125 47.1155 8.53219C47.0415 8.64312 46.9618 8.75041 46.8775 8.85354C46.7931 8.95614 46.7035 9.0551 46.6092 9.14937C46.515 9.24364 46.416 9.33323 46.3129 9.4176C46.2098 9.5025 46.103 9.58166 45.9921 9.65562C45.8811 9.72958 45.7671 9.79833 45.6493 9.86135C45.5316 9.92385 45.4113 9.98114 45.2884 10.0322C45.165 10.0832 45.0394 10.128 44.9118 10.1666C44.7842 10.2051 44.6551 10.2379 44.5243 10.2634C44.3936 10.2895 44.2618 10.3093 44.129 10.3223C43.9962 10.3353 43.8634 10.3421 43.7301 10.3421Z" fill="#004AAD"/>
<path d="M7.08444 3.82764H5.45579V5.45628H3.82715V7.08493H5.45579V8.71357H7.08444V7.08493H8.71309V5.45628H7.08444V3.82764Z" fill="#004AAD"/>
<path d="M44.5434 3.82764H42.9148V5.45628H41.2861V7.08493H42.9148V8.71357H44.5434V7.08493H46.1721V5.45628H44.5434V3.82764Z" fill="#004AAD"/>
<path d="M7.08444 41.2864H5.45579V42.915H3.82715V44.5437H5.45579V46.1723H7.08444V44.5437H8.71309V42.915H7.08444V41.2864Z" fill="#004AAD"/>
<path d="M42.9148 46.1723H44.5434V44.5437H46.1721V42.915H44.5434V41.2864H42.9148V42.915H41.2861V44.5437H42.9148V46.1723Z" fill="#004AAD"/>
<path d="M43.7295 19.2996H45.3581V20.9282H43.7295V19.2996Z" fill="#004AAD"/>
<path d="M43.7295 22.5569H45.3581V24.1855H43.7295V22.5569Z" fill="#004AAD"/>
<path d="M43.7295 25.8147H45.3581V27.4433H43.7295V25.8147Z" fill="#004AAD"/>
<path d="M43.7295 29.0718H45.3581V30.7004H43.7295V29.0718Z" fill="#004AAD"/>
<path d="M46.9873 20.9282H48.616V22.5569H46.9873V20.9282Z" fill="#004AAD"/>
<path d="M46.9873 24.1853H48.616V25.8145H46.9873V24.1853Z" fill="#004AAD"/>
<path d="M46.9873 27.4431H48.616V29.0718H46.9873V27.4431Z" fill="#004AAD"/>
<path d="M4.6416 19.2996H6.27025V20.9282H4.6416V19.2996Z" fill="#004AAD"/>
<path d="M4.6416 22.5569H6.27025V24.1855H4.6416V22.5569Z" fill="#004AAD"/>
<path d="M4.6416 25.8147H6.27025V27.4433H4.6416V25.8147Z" fill="#004AAD"/>
<path d="M4.6416 29.0718H6.27025V30.7004H4.6416V29.0718Z" fill="#004AAD"/>
<path d="M1.38477 20.9282H3.01341V22.5569H1.38477V20.9282Z" fill="#004AAD"/>
<path d="M1.38477 24.1853H3.01341V25.8145H1.38477V24.1853Z" fill="#004AAD"/>
<path d="M1.38477 27.4431H3.01341V29.0718H1.38477V27.4431Z" fill="#004AAD"/>
<path d="M19.2998 4.6416H20.9285V6.27025H19.2998V4.6416Z" fill="#004AAD"/>
<path d="M22.5566 4.6416H24.1853V6.27025H22.5566V4.6416Z" fill="#004AAD"/>
<path d="M25.8145 4.6416H27.4431V6.27025H25.8145V4.6416Z" fill="#004AAD"/>
<path d="M29.0723 4.6416H30.7009V6.27025H29.0723V4.6416Z" fill="#004AAD"/>
<path d="M20.9277 1.38428H22.5564V3.01292H20.9277V1.38428Z" fill="#004AAD"/>
<path d="M24.1855 1.38428H25.8147V3.01292H24.1855V1.38428Z" fill="#004AAD"/>
<path d="M27.4434 1.38428H29.072V3.01292H27.4434V1.38428Z" fill="#004AAD"/>
<path d="M19.2998 43.7297H20.9285V45.3584H19.2998V43.7297Z" fill="#004AAD"/>
<path d="M22.5566 43.7297H24.1853V45.3584H22.5566V43.7297Z" fill="#004AAD"/>
<path d="M25.8145 43.7297H27.4431V45.3584H25.8145V43.7297Z" fill="#004AAD"/>
<path d="M29.0723 43.7297H30.7009V45.3584H29.0723V43.7297Z" fill="#004AAD"/>
<path d="M20.9277 46.9871H22.5564V48.6157H20.9277V46.9871Z" fill="#004AAD"/>
<path d="M24.1855 46.9871H25.8147V48.6157H24.1855V46.9871Z" fill="#004AAD"/>
<path d="M27.4434 46.9871H29.072V48.6157H27.4434V46.9871Z" fill="#004AAD"/>
</g>
<defs>
<clipPath id="clip0_433_209">
<rect width="50" height="50" fill="white"/>
</clipPath>
</defs>
</svg>
