<svg width="50" height="50" viewBox="0 0 50 50" fill="none" xmlns="http://www.w3.org/2000/svg">
<mask id="mask0_440_881" style="mask-type:luminance" maskUnits="userSpaceOnUse" x="0" y="41" width="50" height="9">
<path d="M0.0136719 41.5557H49.9607V49.9862H0.0136719V41.5557Z" fill="white"/>
</mask>
<g mask="url(#mask0_440_881)">
<path d="M49.9812 41.7109C49.9812 46.316 46.2529 50.0495 41.654 50.0495H8.34581C6.04633 50.0495 3.96474 49.1163 2.45779 47.6068C0.950846 46.0981 0.0185547 44.0139 0.0185547 41.7109H17.2278L18.338 45.046H31.6618L32.772 41.7109H49.9812Z" fill="#0B7598"/>
</g>
<path d="M35.8248 38.3758V33.3732H14.1746V38.3758H35.8248ZM2.5166 41.7109V15.8628H16.6729V22.4505C16.6729 22.4782 16.6729 22.506 16.6737 22.5338C16.685 23.4835 16.8916 24.3854 17.2562 25.2013C18.3083 27.5607 20.6711 29.2039 23.4176 29.2039H26.5817C29.3282 29.2039 31.6911 27.5607 32.744 25.2013C33.1077 24.3854 33.3143 23.4835 33.3265 22.5338C33.3265 22.506 33.3265 22.4782 33.3265 22.4505V15.8628H47.4827V41.7109H32.7718L31.6616 45.046H18.3378L17.2275 41.7109H2.5166Z" fill="#CDDBF9"/>
<path d="M14.1748 33.3733H35.825V38.3759H14.1748V33.3733Z" fill="#79B85D"/>
<mask id="mask1_440_881" style="mask-type:luminance" maskUnits="userSpaceOnUse" x="17" y="2" width="7" height="6">
<path d="M17.3467 2.57471H23.5689V7.11117H17.3467V2.57471Z" fill="white"/>
</mask>
<g mask="url(#mask1_440_881)">
<path d="M22.6557 7.10249C22.3293 7.10249 22.0246 6.89502 21.9153 6.56776L21.1062 4.13807H18.338C17.9074 4.13807 17.5576 3.78825 17.5576 3.35596C17.5576 2.92453 17.9074 2.57471 18.338 2.57471H21.6696C22.0055 2.57471 22.3033 2.78998 22.41 3.10943L23.397 6.07297C23.5333 6.48269 23.312 6.9254 22.9031 7.06169C22.8206 7.08946 22.7382 7.10249 22.6557 7.10249Z" fill="#09607D"/>
</g>
<mask id="mask2_440_881" style="mask-type:luminance" maskUnits="userSpaceOnUse" x="26" y="2" width="7" height="6">
<path d="M26.458 2.57471H32.458V7.11117H26.458V2.57471Z" fill="white"/>
</mask>
<g mask="url(#mask2_440_881)">
<path d="M27.3442 7.10249C27.2626 7.10249 27.1793 7.08946 27.0968 7.06169C26.688 6.9254 26.4675 6.48269 26.6038 6.07297L27.5908 3.10943C27.6967 2.78998 27.9953 2.57471 28.3312 2.57471H31.6619C32.0934 2.57471 32.4423 2.92453 32.4423 3.35596C32.4423 3.78825 32.0934 4.13807 31.6619 4.13807H28.8937L28.0847 6.56776C27.9753 6.89502 27.6706 7.10249 27.3442 7.10249Z" fill="#09607D"/>
</g>
<path d="M17.4765 16.3812C17.3298 16.3812 17.1805 16.3395 17.0486 16.2519L17.0199 16.2336C17.0191 16.2328 17.0173 16.2319 17.0165 16.231L12.0763 13.1789C11.9314 13.0817 11.8237 12.9402 11.7682 12.7753L10.9357 10.2736C10.7994 9.8647 11.0208 9.42199 11.4296 9.28484C11.8385 9.14855 12.2803 9.36991 12.4166 9.77963L13.1649 12.0262L17.9071 14.9463C18.2673 15.1833 18.3671 15.6685 18.1302 16.0288C17.98 16.2571 17.7309 16.3812 17.4765 16.3812Z" fill="#09607D"/>
<path d="M11.6762 31.6537C11.5946 31.6537 11.5112 31.6407 11.4296 31.6129C11.0208 31.4766 10.7994 31.0339 10.9357 30.6242L11.7682 28.1233C11.8237 27.9584 11.9314 27.816 12.0763 27.7197L16.947 24.4688C17.3055 24.2292 17.7899 24.3256 18.0295 24.685C18.2691 25.0435 18.1718 25.5296 17.8133 25.7692L17.6892 25.8516L13.1649 28.8716L12.4166 31.119C12.3081 31.4463 12.0034 31.6537 11.6762 31.6537Z" fill="#09607D"/>
<path d="M16.6734 21.6475H10.8444C10.6899 21.6475 10.5397 21.6023 10.4113 21.5164L7.91301 19.8489C7.55451 19.6093 7.45728 19.124 7.69687 18.7647C7.93558 18.4053 8.42083 18.3081 8.77933 18.5477L11.0805 20.0841H16.6734C17.1049 20.0841 17.4538 20.4339 17.4538 20.8662C17.4538 21.2977 17.1049 21.6475 16.6734 21.6475Z" fill="#09607D"/>
<path d="M32.4093 16.6069C32.1558 16.6069 31.9067 16.4836 31.7565 16.2553C31.5195 15.8951 31.6194 15.4098 31.9796 15.1729L32.0057 15.1555L36.8347 12.0262L37.5829 9.77963C37.7192 9.36991 38.161 9.14855 38.5699 9.28484C38.9796 9.42199 39.2001 9.8647 39.0638 10.2736L38.2314 12.7753C38.1767 12.9402 38.0682 13.0817 37.9241 13.1781L32.8702 16.4567C32.8694 16.4576 32.8676 16.4584 32.8668 16.4593L32.8381 16.4784C32.7062 16.5652 32.5569 16.6069 32.4093 16.6069Z" fill="#09607D"/>
<path d="M38.323 31.6537C37.9957 31.6537 37.6919 31.4463 37.5826 31.119L36.8343 28.8716L32.1859 25.7692C31.8273 25.5296 31.731 25.0435 31.9706 24.685C32.2093 24.3256 32.6945 24.2292 33.053 24.4688L33.1772 24.5522L37.9237 27.7197C38.0678 27.816 38.1763 27.9584 38.231 28.1233L39.0635 30.6242C39.1997 31.0339 38.9793 31.4766 38.5695 31.6129C38.4879 31.6407 38.4046 31.6537 38.323 31.6537Z" fill="#09607D"/>
<path d="M39.1553 21.6475H33.3263C32.8957 21.6475 32.5459 21.2977 32.5459 20.8662C32.5459 20.4339 32.8957 20.0841 33.3263 20.0841H38.9192L41.2204 18.5477C41.5798 18.3081 42.0641 18.4053 42.3028 18.7647C42.5424 19.124 42.4452 19.6093 42.0867 19.8489L39.5884 21.5164C39.46 21.6023 39.3098 21.6475 39.1553 21.6475Z" fill="#09607D"/>
<path d="M10.8443 38.3239H5.84776C5.41721 38.3239 5.06738 37.974 5.06738 37.5417C5.06738 37.1103 5.41721 36.7605 5.84776 36.7605H10.8443C11.2757 36.7605 11.6247 37.1103 11.6247 37.5417C11.6247 37.974 11.2757 38.3239 10.8443 38.3239Z" fill="#4DB8E5"/>
<path d="M10.8443 34.9887H5.84776C5.41721 34.9887 5.06738 34.6388 5.06738 34.2065C5.06738 33.7751 5.41721 33.4253 5.84776 33.4253H10.8443C11.2757 33.4253 11.6247 33.7751 11.6247 34.2065C11.6247 34.6388 11.2757 34.9887 10.8443 34.9887Z" fill="#4DB8E5"/>
<path d="M44.1519 38.3239H39.1554C38.7248 38.3239 38.375 37.974 38.375 37.5417C38.375 37.1103 38.7248 36.7605 39.1554 36.7605H44.1519C44.5833 36.7605 44.9323 37.1103 44.9323 37.5417C44.9323 37.974 44.5833 38.3239 44.1519 38.3239Z" fill="#4DB8E5"/>
<path d="M44.1519 34.9887H39.1554C38.7248 34.9887 38.375 34.6388 38.375 34.2065C38.375 33.7751 38.7248 33.4253 39.1554 33.4253H44.1519C44.5833 33.4253 44.9323 33.7751 44.9323 34.2065C44.9323 34.6388 44.5833 34.9887 44.1519 34.9887Z" fill="#4DB8E5"/>
<path d="M44.1525 27.4843H39.9893C39.5578 27.4843 39.208 27.1344 39.208 26.7021C39.208 26.2707 39.5578 25.9209 39.9893 25.9209H44.1525C44.5839 25.9209 44.9328 26.2707 44.9328 26.7021C44.9328 27.1344 44.5839 27.4843 44.1525 27.4843Z" fill="#4DB8E5"/>
<path d="M44.1527 30.8195H41.6544C41.223 30.8195 40.874 30.4696 40.874 30.0382C40.874 29.6059 41.223 29.2561 41.6544 29.2561H44.1527C44.5841 29.2561 44.9331 29.6059 44.9331 30.0382C44.9331 30.4696 44.5841 30.8195 44.1527 30.8195Z" fill="#4DB8E5"/>
<path d="M8.34603 30.8195H5.84776C5.41721 30.8195 5.06738 30.4696 5.06738 30.0382C5.06738 29.6059 5.41721 29.2561 5.84776 29.2561H8.34603C8.77745 29.2561 9.12641 29.6059 9.12641 30.0382C9.12641 30.4696 8.77745 30.8195 8.34603 30.8195Z" fill="#4DB8E5"/>
<path d="M44.1519 24.1493H39.1554C38.7248 24.1493 38.375 23.7995 38.375 23.3672C38.375 22.9358 38.7248 22.5859 39.1554 22.5859H44.1519C44.5833 22.5859 44.9323 22.9358 44.9323 23.3672C44.9323 23.7995 44.5833 24.1493 44.1519 24.1493Z" fill="#4DB8E5"/>
<path d="M10.0118 27.4843H5.84776C5.41721 27.4843 5.06738 27.1344 5.06738 26.7021C5.06738 26.2707 5.41721 25.9209 5.84776 25.9209H10.0118C10.4424 25.9209 10.7922 26.2707 10.7922 26.7021C10.7922 27.1344 10.4424 27.4843 10.0118 27.4843Z" fill="#4DB8E5"/>
<path d="M10.8443 24.1493H5.84776C5.41721 24.1493 5.06738 23.7995 5.06738 23.3672C5.06738 22.9358 5.41721 22.5859 5.84776 22.5859H10.8443C11.2757 22.5859 11.6247 22.9358 11.6247 23.3672C11.6247 23.7995 11.2757 24.1493 10.8443 24.1493Z" fill="#4DB8E5"/>
<path d="M29.9961 12.5278H20.0039V10.5478C20.0039 8.68666 21.0864 7.07815 22.6558 6.32034C23.2704 6.02433 23.9596 5.85767 24.6879 5.85767H25.3121C26.0404 5.85767 26.7296 6.02433 27.3442 6.32034C28.9136 7.07815 29.9961 8.68666 29.9961 10.5478V12.5278Z" fill="#FA5A72"/>
<path d="M25.0001 12.5278V29.204H23.4176C22.4697 29.204 21.5669 29.0079 20.7484 28.6546C20.2718 28.4488 19.8239 28.1893 19.4116 27.8846C18.6902 27.3499 18.0782 26.6754 17.6173 25.9002C17.4836 25.6754 17.363 25.4419 17.2562 25.2014C17.1477 24.9593 17.0531 24.7084 16.9741 24.4514C16.8604 24.0843 16.777 23.704 16.7275 23.3134C16.6946 23.0573 16.6763 22.7978 16.6737 22.5339C16.6729 22.5061 16.6729 22.4784 16.6729 22.4506V15.7561C16.6729 15.6112 16.6824 15.4671 16.7006 15.3264C16.9107 13.7466 18.2614 12.5278 19.8968 12.5278H25.0001Z" fill="#EA3F57"/>
<path d="M33.3264 15.7561V22.4506C33.3264 22.4784 33.3264 22.5061 33.3264 22.5339C33.3229 22.7978 33.3047 23.0573 33.2717 23.3134C33.2222 23.704 33.1398 24.0843 33.0252 24.4514C32.9462 24.7084 32.8516 24.9593 32.7439 25.2014C32.6363 25.4419 32.5156 25.6754 32.3819 25.9002C31.921 26.6754 31.309 27.3499 30.5877 27.8846C30.1762 28.1893 29.7283 28.4488 29.2509 28.6546C28.4323 29.0079 27.5304 29.204 26.5816 29.204H25V12.5278H30.1033C31.4497 12.5278 32.6033 13.3551 33.0851 14.5296C33.1892 14.7804 33.2613 15.0478 33.2986 15.3264C33.3168 15.4671 33.3264 15.6112 33.3264 15.7561Z" fill="#C1191F"/>
<path d="M22.3673 20.382L21.5348 22.0495C21.4263 22.2657 21.2258 22.4193 20.9897 22.4662L16.8265 23.3004C16.7935 23.3065 16.7605 23.3108 16.7275 23.3134C16.6946 23.0573 16.6763 22.7978 16.6737 22.5339C16.6729 22.5061 16.6729 22.4783 16.6729 22.4506V21.737L20.3083 21.0087L20.9706 19.6832C21.1633 19.2969 21.6329 19.1398 22.0183 19.3334C22.4038 19.5261 22.56 19.9957 22.3673 20.382Z" fill="#A5141F"/>
<path d="M22.3673 16.2127L21.5348 17.8802C21.4263 18.0963 21.2258 18.25 20.9897 18.2969L16.8256 19.1311C16.7744 19.1415 16.7232 19.1467 16.6729 19.1467V17.5677L20.3083 16.8394L20.9706 15.5139C21.1633 15.1276 21.6329 14.9713 22.0183 15.1641C22.4038 15.3568 22.56 15.8264 22.3673 16.2127Z" fill="#A5141F"/>
<path d="M22.4503 25.0347V25.8689C22.4503 26.0234 22.4043 26.1736 22.3192 26.302L20.7906 28.5972C20.7776 28.6171 20.7637 28.6362 20.7489 28.6545C20.2724 28.4487 19.8244 28.1892 19.4121 27.8845C19.4329 27.8307 19.459 27.7795 19.492 27.73L20.8887 25.6319V25.0347C20.8887 24.6032 21.2385 24.2534 21.6699 24.2534C22.1005 24.2534 22.4503 24.6032 22.4503 25.0347Z" fill="#A5141F"/>
<path d="M33.3268 21.737V22.4506C33.3268 22.4783 33.3268 22.5061 33.3268 22.5339C33.3233 22.7978 33.3051 23.0573 33.2721 23.3134C33.2391 23.3108 33.2061 23.3065 33.1731 23.3004L29.0108 22.4662C28.7738 22.4193 28.5733 22.2657 28.4657 22.0495L27.6323 20.382C27.4396 19.9957 27.5959 19.5261 27.9821 19.3334C28.3676 19.1398 28.8363 19.2969 29.029 19.6832L29.6913 21.0087L33.3268 21.737Z" fill="#A5141F"/>
<path d="M33.3268 17.5677V19.1467C33.2764 19.1467 33.2252 19.1415 33.174 19.1311L29.0108 18.2969C28.7738 18.25 28.5733 18.0963 28.4657 17.8802L27.6323 16.2127C27.4396 15.8264 27.5959 15.3568 27.9821 15.1641C28.3676 14.9713 28.8363 15.1276 29.029 15.5139L29.6913 16.8394L33.3268 17.5677Z" fill="#A5141F"/>
<path d="M30.588 27.8845C30.1765 28.1892 29.7286 28.4487 29.2512 28.6545C29.2364 28.6362 29.2225 28.6171 29.2095 28.5972L27.6809 26.302C27.5958 26.1736 27.5498 26.0234 27.5498 25.8689V25.0347C27.5498 24.6032 27.8996 24.2534 28.3311 24.2534C28.7625 24.2534 29.1114 24.6032 29.1114 25.0347V25.6319L30.5081 27.73C30.5411 27.7795 30.568 27.8307 30.588 27.8845Z" fill="#A5141F"/>
</svg>
