<svg width="50" height="50" viewBox="0 0 50 50" fill="none" xmlns="http://www.w3.org/2000/svg">
<g clip-path="url(#clip0_433_136)">
<mask id="mask0_433_136" style="mask-type:luminance" maskUnits="userSpaceOnUse" x="33" y="27" width="17" height="17">
<path d="M33.6895 27.7231H49.9998V43.361H33.6895V27.7231Z" fill="white"/>
</mask>
<g mask="url(#mask0_433_136)">
<path fill-rule="evenodd" clip-rule="evenodd" d="M48.2792 42.554H35.6215C34.6724 42.554 33.8945 41.8273 33.8945 40.94V35.9118C33.8945 31.7773 37.5199 28.3918 41.9504 28.3918C46.3809 28.3918 50.0062 31.7773 50.0062 35.9118V40.94C50.0062 41.8273 49.2284 42.554 48.2792 42.554Z" fill="#19CFBA"/>
</g>
<path fill-rule="evenodd" clip-rule="evenodd" d="M39.8672 37.3553L41.9505 39.7087L44.0339 37.3553L41.9505 28.3918L39.8672 37.3553Z" fill="#FFBF31"/>
<path fill-rule="evenodd" clip-rule="evenodd" d="M8.06291 28.3918C10.1976 28.3918 11.9246 26.7778 11.9246 24.7878C11.9246 22.7944 10.1976 21.1804 8.06291 21.1804C5.93159 21.1804 4.20117 22.7944 4.20117 24.7878C4.20117 26.7778 5.93159 28.3918 8.06291 28.3918Z" fill="#F0B16E"/>
<mask id="mask1_433_136" style="mask-type:luminance" maskUnits="userSpaceOnUse" x="0" y="27" width="17" height="17">
<path d="M0 27.7231H16.1459V43.361H0V27.7231Z" fill="white"/>
</mask>
<g mask="url(#mask1_433_136)">
<path fill-rule="evenodd" clip-rule="evenodd" d="M14.391 42.554H1.73675C0.784165 42.554 0.00976562 41.8273 0.00976562 40.94V35.9118C0.00976562 31.7773 3.63163 28.3918 8.06216 28.3918C12.4927 28.3918 16.118 31.7773 16.118 35.9118V40.94C16.118 41.8273 15.3436 42.554 14.391 42.554Z" fill="#4187B5"/>
</g>
<path fill-rule="evenodd" clip-rule="evenodd" d="M5.97949 37.3553L8.06283 39.7087L10.1462 37.3553L8.06283 28.3918L5.97949 37.3553Z" fill="#FFBF31"/>
<path fill-rule="evenodd" clip-rule="evenodd" d="M12.3563 2.99951H26.2475C28.252 2.99951 29.8968 4.34659 29.8968 5.99269V11.6479C29.8968 13.294 28.252 14.6411 26.2475 14.6411H15.3203C13.9873 14.6411 12.8429 15.0365 11.9143 15.8178L8.70703 18.5056V5.99269C8.70703 4.34659 10.3483 2.99951 12.3563 2.99951Z" fill="#4187B5"/>
<mask id="mask2_433_136" style="mask-type:luminance" maskUnits="userSpaceOnUse" x="20" y="0" width="23" height="19">
<path d="M20.5312 0H42.4612V18.6697H20.5312V0Z" fill="white"/>
</mask>
<g mask="url(#mask2_433_136)">
<path fill-rule="evenodd" clip-rule="evenodd" d="M38.2466 0.00317383H24.3587C22.3509 0.00317383 20.7061 1.35027 20.7061 2.99957V8.65158C20.7061 10.2977 22.3509 11.6448 24.3587 11.6448H35.2827C36.6156 11.6448 38.0821 11.8023 38.6886 12.8215L41.8959 18.1938V2.99957C41.8959 1.35027 40.2546 0.00317383 38.2466 0.00317383Z" fill="#19CFBA"/>
</g>
<path fill-rule="evenodd" clip-rule="evenodd" d="M30.1942 16.6826H33.1102V33.5745H30.2114L30.1942 33.5616V16.6826ZM23.7832 20.3993H26.6992V31.8545C25.7432 31.6551 24.7529 31.6261 23.7832 31.7708V20.3993ZM17.3721 24.1158H20.2847V33.1918C20.1202 33.314 19.9592 33.4395 19.8049 33.5745H17.3721V24.1158Z" fill="#60B7FE"/>
<mask id="mask3_433_136" style="mask-type:luminance" maskUnits="userSpaceOnUse" x="13" y="26" width="25" height="24">
<path d="M13.5146 26.8999H37.199V49.9999H13.5146V26.8999Z" fill="white"/>
</mask>
<g mask="url(#mask3_433_136)">
<path fill-rule="evenodd" clip-rule="evenodd" d="M28.308 30.6424C29.2845 30.9832 30.1857 31.475 30.9738 32.0827L34.0268 31.475C34.1433 31.4525 34.253 31.5009 34.3113 31.594L36.3947 34.9634C36.4528 35.0599 36.4427 35.1724 36.3638 35.2527L34.277 37.4164C34.445 38.3714 34.445 39.3422 34.277 40.297L36.3638 42.4609C36.4427 42.5412 36.4528 42.6537 36.3947 42.7502L34.3113 46.1195C34.253 46.2127 34.1433 46.261 34.0268 46.2352L30.9773 45.6309C30.1857 46.2384 29.2845 46.7304 28.308 47.0712L27.3452 49.8392C27.3075 49.9422 27.208 50.0097 27.0915 50.0097H22.9248C22.8083 50.0097 22.709 49.9422 22.6747 49.8392L21.7118 47.0712C20.7318 46.7304 19.8342 46.2384 19.0427 45.6309L15.9895 46.2352C15.8764 46.2577 15.7634 46.2127 15.7051 46.1195L13.6218 42.7502C13.5635 42.6537 13.5772 42.5412 13.656 42.4609L15.7428 40.297C15.5715 39.3422 15.5715 38.3714 15.7428 37.4164L13.656 35.2527C13.5772 35.1724 13.5635 35.0599 13.6218 34.9634L15.7051 31.594C15.7634 31.5009 15.8764 31.4525 15.9895 31.475L19.0427 32.0827C19.8342 31.475 20.7318 30.9832 21.7118 30.6424L22.6747 27.8742C22.709 27.7682 22.8083 27.7039 22.9248 27.7039C24.3127 27.7039 25.7038 27.7039 27.0915 27.7039C27.208 27.7039 27.3075 27.7682 27.3452 27.8742L28.308 30.6424ZM25.0082 33.2465C21.6913 33.2465 19.0015 35.7575 19.0015 38.8567C19.0015 41.956 21.6913 44.467 25.0082 44.467C28.3285 44.467 31.0183 41.956 31.0183 38.8567C31.0183 35.7575 28.3285 33.2465 25.0082 33.2465Z" fill="#FFBF31"/>
</g>
<path fill-rule="evenodd" clip-rule="evenodd" d="M27.3103 36.1722C27.7248 36.3619 27.8997 36.828 27.6975 37.217C27.4953 37.6029 26.9917 37.7637 26.577 37.5772C25.9637 37.2975 24.9733 37.1045 24.2743 37.381V37.3844C23.7843 37.5772 23.8597 37.7444 24.2812 37.9405V37.9372C24.9768 38.217 25.3605 37.9212 26.4228 38.3392C27.1868 38.6445 27.7385 39.2394 27.7865 40.0077C27.79 40.0399 27.79 40.072 27.7865 40.1042C27.7112 41.1137 26.8477 41.7245 25.8437 41.94C25.8437 43.0427 24.1715 43.0105 24.1715 41.9625C23.6678 41.8885 23.171 41.747 22.7118 41.5477C22.2903 41.3645 22.1088 40.9015 22.304 40.5094C22.4993 40.117 22.9962 39.9499 23.4177 40.1299C24.0345 40.4 25.0762 40.625 25.7547 40.3357C25.8952 40.2779 26.1143 40.1492 26.111 40.0495C26.111 39.966 25.902 39.8277 25.7683 39.7762C25.0557 39.4965 24.6443 39.7827 23.6198 39.3744L23.6233 39.3712C21.7798 38.5995 21.8243 36.6609 23.6267 35.9472V35.9504C23.8015 35.8764 23.983 35.8218 24.1715 35.78C24.1715 34.6643 25.8437 34.7062 25.8437 35.751C26.368 35.825 26.858 35.9665 27.3103 36.1722Z" fill="#60B7FE"/>
<path fill-rule="evenodd" clip-rule="evenodd" d="M41.9505 28.3918C44.0819 28.3918 45.8124 26.7778 45.8124 24.7878C45.8124 22.7944 44.0819 21.1804 41.9505 21.1804C39.8194 21.1804 38.0889 22.7944 38.0889 24.7878C38.0889 26.7778 39.8194 28.3918 41.9505 28.3918Z" fill="#F0B16E"/>
</g>
<defs>
<clipPath id="clip0_433_136">
<rect width="50" height="50" fill="white"/>
</clipPath>
</defs>
</svg>
