<svg width="50" height="50" viewBox="0 0 50 50" fill="none" xmlns="http://www.w3.org/2000/svg">
<mask id="mask0_434_528" style="mask-type:luminance" maskUnits="userSpaceOnUse" x="0" y="2" width="50" height="48">
<path d="M0.235352 2.44434H49.9602V49.5555H0.235352V2.44434Z" fill="white"/>
</mask>
<g mask="url(#mask0_434_528)">
<path d="M25.5612 2.5763C25.234 2.56589 24.9111 2.77248 24.7843 3.0737L24.0534 4.81849L22.1211 5.20912C21.8 5.27335 21.5335 5.55026 21.4805 5.87405C21.431 6.18047 21.5708 6.5086 21.8269 6.68134L23.0213 7.48776L22.6776 9.28117C22.6151 9.60235 22.7713 9.95564 23.05 10.1275C23.313 10.2898 23.6689 10.2803 23.9258 10.1093L25.55 9.02769L27.1732 10.1093C27.431 10.2803 27.7861 10.2898 28.0491 10.1275C28.3295 9.95564 28.484 9.60235 28.4215 9.28117L28.0777 7.48776L29.2722 6.68134C29.5283 6.5086 29.6715 6.18047 29.6211 5.87405C29.5673 5.55026 29.2991 5.27335 28.9779 5.20912L27.0152 4.81155L26.2861 3.07544C26.1663 2.78898 25.872 2.58498 25.5612 2.5763ZM25.5352 3.98603L26.1081 5.34974C26.2071 5.58585 26.4163 5.75686 26.6671 5.80808L28.2323 6.12231L27.3486 6.71953C27.0925 6.89315 26.964 7.20217 27.023 7.50599L27.2956 8.93568L25.9805 8.05721C25.721 7.8836 25.3816 7.8836 25.1211 8.05721L23.8052 8.93568L24.0786 7.50773C24.1359 7.20478 24.0074 6.89662 23.7522 6.72387L22.8694 6.12492L24.4024 5.81676C24.6541 5.76641 24.8633 5.59367 24.9614 5.35669L25.5352 3.98603ZM17.0699 5.11624C16.7618 5.12665 16.4675 5.32978 16.3494 5.61363L15.8199 6.87839L14.3842 7.16919C14.0656 7.23342 13.8008 7.51033 13.7479 7.83065C13.6984 8.1336 13.8364 8.46085 14.0916 8.63273L14.9241 9.19176L14.6776 10.4747C14.6159 10.7942 14.7722 11.144 15.0491 11.3142C15.3112 11.4756 15.6645 11.4687 15.9189 11.2985L17.0847 10.5207L18.2496 11.2985C18.5057 11.4687 18.859 11.4739 19.1194 11.3142C19.3972 11.144 19.5526 10.7942 19.4918 10.4747L19.247 9.19176L20.0795 8.63273C20.3347 8.46085 20.4736 8.1336 20.4232 7.83065C20.3703 7.51033 20.1055 7.23342 19.7878 7.16919L18.3746 6.88273L17.8416 5.61363C17.7175 5.31415 17.3972 5.10582 17.0725 5.11624H17.0699ZM34.03 5.11624C33.7053 5.10582 33.3842 5.31415 33.2592 5.61363L32.7253 6.88273L31.313 7.16919C30.9944 7.23342 30.7288 7.51033 30.6767 7.83065C30.6255 8.1336 30.767 8.46085 31.023 8.63273L31.8529 9.19176L31.6064 10.4747C31.5439 10.7942 31.701 11.144 31.9788 11.3142C32.2401 11.4756 32.5951 11.4687 32.8503 11.2985L34.0135 10.5207L35.1784 11.2985C35.4345 11.4687 35.7869 11.4739 36.0482 11.3142C36.326 11.144 36.4831 10.7942 36.4206 10.4747L36.1758 9.19176L37.0083 8.63273C37.2644 8.46085 37.4059 8.1336 37.3546 7.83065C37.3017 7.51033 37.0343 7.23342 36.7166 7.16919L35.2826 6.87839L34.7513 5.61363C34.6316 5.32978 34.339 5.12578 34.03 5.11624ZM17.096 6.59453L17.4684 7.48603C17.556 7.69523 17.7401 7.8454 17.9623 7.8888L18.9692 8.09193L18.438 8.4513C18.214 8.60321 18.1012 8.87405 18.1515 9.14054L18.3303 10.0694L17.4614 9.4895C17.2331 9.33759 16.9354 9.33759 16.7079 9.4895L15.839 10.0676L16.017 9.14054C16.0673 8.87405 15.9527 8.60321 15.7288 8.45304L15.1949 8.09193L16.2279 7.88273C16.4493 7.83846 16.6342 7.68742 16.7227 7.47995L17.096 6.59453ZM34.0048 6.59453L34.3763 7.47995C34.4649 7.68828 34.6489 7.83846 34.8711 7.88273L35.9041 8.09193L35.3703 8.45304C35.1472 8.60582 35.0343 8.87492 35.0838 9.14054L35.26 10.0676L34.3911 9.4895C34.1637 9.33759 33.8659 9.33759 33.6376 9.4895L32.7696 10.0694L32.9475 9.14054C32.9979 8.87405 32.885 8.60235 32.6611 8.4513L32.1298 8.09193L33.1368 7.8888C33.3581 7.8454 33.5421 7.69436 33.6307 7.48603L34.0048 6.59453ZM10.2487 8.56155C9.92322 8.55113 9.60465 8.7586 9.47878 9.05894L8.94666 10.3315L7.53433 10.6154C7.21662 10.6796 6.951 10.9565 6.89805 11.2768C6.84857 11.5798 6.98746 11.907 7.2418 12.0789L8.07426 12.6379L7.82774 13.9235C7.76697 14.2421 7.92235 14.5919 8.20013 14.7621C8.46142 14.9235 8.81472 14.9148 9.06992 14.7447L10.2349 13.9687L11.3998 14.7447C11.6559 14.9148 12.0092 14.9227 12.2696 14.7621C12.5474 14.5919 12.7027 14.2421 12.642 13.9235L12.3954 12.6379L13.2279 12.0789C13.4822 11.907 13.6211 11.5798 13.5717 11.2768C13.5187 10.9565 13.254 10.6796 12.9354 10.6154L11.4996 10.3246L10.9701 9.05981C10.852 8.77596 10.5578 8.57196 10.2496 8.56242C10.2505 8.56155 10.2496 8.56155 10.2487 8.56155ZM40.9215 8.56155C40.5968 8.55113 40.2757 8.7586 40.1498 9.05894L39.6203 10.3315L38.2079 10.6154C37.8894 10.6796 37.6211 10.9565 37.5691 11.2768C37.5187 11.5798 37.6593 11.907 37.9154 12.0789L38.7479 12.6379L38.5005 13.9235C38.4388 14.2421 38.596 14.5919 38.8729 14.7621C39.135 14.9235 39.4883 14.9148 39.7427 14.7447L40.9059 13.9687L42.0708 14.7447C42.3269 14.9148 42.6819 14.9227 42.9432 14.7621C43.221 14.5919 43.3772 14.2421 43.3156 13.9235L43.0682 12.6379L43.8989 12.0789C44.155 11.907 44.2956 11.5798 44.2453 11.2768C44.1923 10.9565 43.9267 10.6796 43.609 10.6154L42.1724 10.3246L41.6411 9.05981C41.5248 8.77509 41.2331 8.57196 40.9241 8.56155H40.9215ZM10.2244 10.0407L10.5968 10.9279C10.6854 11.1371 10.8685 11.2872 11.0908 11.3306L12.1246 11.5381L11.5908 11.8992C11.3651 12.0503 11.2522 12.3228 11.3017 12.5885L11.4805 13.5155L10.6116 12.9357C10.3842 12.7838 10.0864 12.7838 9.85812 12.9357L8.98919 13.5155L9.16801 12.5885C9.21923 12.3211 9.10725 12.0494 8.88156 11.8975L8.35117 11.5381L9.35812 11.335C9.57947 11.2916 9.76437 11.1405 9.85291 10.9331L10.2244 10.0407ZM40.898 10.0407L41.2704 10.9279C41.3572 11.1353 41.5413 11.2872 41.7618 11.3306L42.7956 11.5381L42.2644 11.8992C42.0395 12.0503 41.925 12.3228 41.9753 12.5885L42.1515 13.5155L41.2826 12.9357C41.0552 12.7838 40.7574 12.7838 40.5291 12.9357L39.6602 13.5155L39.839 12.5885C39.892 12.3228 39.7791 12.0494 39.5543 11.8975L39.023 11.5381L40.0309 11.335C40.2505 11.2898 40.4345 11.1405 40.5222 10.9331L40.898 10.0407ZM25.3668 12.3359C25.0491 12.3532 24.7305 12.4183 24.4258 12.5563C24.2375 12.6414 24.0821 12.7655 23.9406 12.8819C23.9388 12.8819 23.9362 12.8819 23.9345 12.8819C23.9319 12.8827 23.9293 12.8862 23.9276 12.8888C23.7618 12.9201 23.5899 12.9609 23.425 13.0459C23.0048 13.2595 22.6819 13.6197 22.4961 14.0329C22.2817 14.5077 22.267 14.9904 22.2574 15.3966C22.2522 15.6562 22.2566 15.9157 22.2644 16.1735C22.1915 16.236 22.0855 16.3306 22.0126 16.5017C21.9232 16.7178 21.9423 16.9175 21.9423 16.96C21.9467 17.1197 21.9553 17.2855 21.9788 17.4496C22.0291 17.782 22.135 18.1892 22.4258 18.5494C22.5022 18.644 22.5847 18.7048 22.6524 18.7569C22.7279 19.0103 22.8147 19.2916 22.9901 19.5615C23.3607 20.1319 23.9171 20.5416 24.543 20.749C24.8503 20.8506 25.1828 20.9036 25.51 20.9062H25.517C25.8425 20.9044 26.1645 20.8506 26.471 20.749C27.0968 20.5416 27.648 20.1319 28.0178 19.5615C28.1776 19.315 28.2739 19.065 28.3503 18.828C28.3503 18.8272 28.3503 18.8237 28.3503 18.8211C28.4519 18.7534 28.5682 18.6744 28.6698 18.5503C28.9605 18.1918 29.0682 17.7846 29.1168 17.4504C29.1402 17.2846 29.1489 17.1188 29.1541 16.9609C29.1541 16.94 29.1602 16.881 29.1541 16.7977C29.1472 16.7143 29.129 16.6093 29.0829 16.5017C29.023 16.3602 28.9371 16.2855 28.8755 16.2308C28.8763 16.2187 28.8798 16.2065 28.8816 16.1944C28.9232 15.8142 28.9371 15.3984 28.8755 14.9869C28.8138 14.5737 28.681 14.1579 28.4293 13.782C28.0343 13.1918 27.4423 12.8211 26.852 12.5945C26.4901 12.4556 26.0925 12.3576 25.6784 12.3359C25.5777 12.3315 25.4727 12.3306 25.3668 12.3359ZM25.431 13.3975C25.4987 13.394 25.5621 13.394 25.6316 13.3975C25.9093 13.4114 26.1941 13.4843 26.4736 13.5919C26.925 13.7655 27.326 14.0216 27.5552 14.3654C27.701 14.5815 27.7887 14.8636 27.8303 15.1518C27.8737 15.4418 27.8651 15.7395 27.8303 16.0615C27.8286 16.0763 27.8182 16.1501 27.8069 16.2378C27.7722 16.4826 27.879 16.7291 28.0682 16.8853C28.0699 16.8862 28.0673 16.8888 28.0682 16.8897C28.0708 16.8975 28.0751 16.9044 28.0821 16.9105L28.089 16.9175L28.096 16.9235C28.096 16.9261 28.096 16.9261 28.096 16.9348V16.9418C28.0908 17.0659 28.0821 17.1779 28.0647 17.2951C28.0283 17.5416 27.9571 17.7612 27.8451 17.8984H27.8382L27.8312 17.9027C27.8251 17.9088 27.8138 17.9209 27.8008 17.9287C27.7748 17.947 27.7366 17.973 27.6862 18.0034C27.5387 18.0971 27.4345 18.2517 27.3859 18.4175C27.3182 18.6362 27.2375 18.8254 27.1342 18.9834C26.9059 19.3367 26.5352 19.6015 26.1272 19.7369C25.9241 19.8046 25.7296 19.8367 25.5187 19.8385H25.5126C25.3 19.8376 25.0916 19.8037 24.8911 19.7369C24.4823 19.6015 24.1125 19.3367 23.8833 18.9834C23.7739 18.8159 23.6949 18.6067 23.6255 18.3619C23.6255 18.3602 23.6255 18.3576 23.6255 18.355C23.5803 18.2056 23.4909 18.072 23.3633 17.9782C23.293 17.9279 23.2678 17.9062 23.2548 17.8905C23.142 17.7508 23.0708 17.5398 23.0352 17.2942C23.0178 17.1761 23.0083 17.0589 23.0048 16.9348C23.0048 16.927 23.0048 16.927 23.0048 16.9235V16.9175C23.017 16.9088 23.0257 16.901 23.0309 16.8966C23.214 16.7569 23.3364 16.5277 23.3303 16.2951C23.3303 16.2933 23.3303 16.2838 23.3303 16.282C23.3182 15.9886 23.3208 15.6978 23.326 15.4131C23.3338 15.0346 23.3642 14.7143 23.4762 14.4661C23.5699 14.2595 23.7236 14.0902 23.9102 13.9938C23.977 13.96 24.0743 13.9287 24.1854 13.9131C24.3199 13.8914 24.4484 13.8332 24.5508 13.7438C24.6689 13.6423 24.7678 13.578 24.8573 13.5364C25.0265 13.4609 25.2288 13.4088 25.431 13.3975ZM16.6168 14.8489C16.1611 14.8706 15.714 15.0633 15.3824 15.427C15.3677 15.4426 15.359 15.46 15.3477 15.4773C15.3477 15.4791 15.3477 15.4826 15.3477 15.4843C14.8191 16.1084 14.7791 17.0199 15.2618 17.6857C16.5456 19.5451 18.043 21.2499 19.734 22.7525C20.4033 23.3471 21.1046 23.901 21.8269 24.427C21.8382 24.4331 21.8442 24.4444 21.8451 24.4574V30.7673C21.8451 30.8263 21.8468 30.8246 21.852 30.8445C21.852 30.8489 21.852 30.8532 21.852 30.8576C21.4953 32.4322 21.1802 34.0199 20.918 35.6145C20.5309 37.9609 20.2592 40.3185 20.0786 42.6874V42.6926C20.0786 42.6944 20.0786 42.697 20.0786 42.6987C20.076 42.7213 20.0725 42.7378 20.0717 42.7456C20.0717 42.7473 20.0717 42.7499 20.0717 42.7517C19.9423 43.8133 20.7079 44.7855 21.7704 44.9157C22.8295 45.0451 23.7991 44.2864 23.9319 43.2282V43.2213C23.9319 43.2187 23.9319 43.2169 23.9319 43.2143C23.9388 43.157 23.9501 43.0893 23.9519 43.0112C24.1237 40.7464 24.3902 38.4912 24.7592 36.2525C24.9362 35.1796 25.1533 34.1084 25.3781 33.039C25.3807 33.0199 25.3963 33.0051 25.4154 33.0069H25.688C25.7088 33.0051 25.7253 33.0216 25.7279 33.039C25.9519 34.1076 26.1663 35.1779 26.3425 36.2525C26.7114 38.4912 26.9788 40.7464 27.1515 43.0112C27.1533 43.0902 27.1585 43.1605 27.1645 43.2143C27.1645 43.2169 27.1645 43.2187 27.1645 43.2213V43.2282C27.2982 44.2864 28.273 45.0451 29.3329 44.9157C30.3937 44.7855 31.1524 43.8124 31.0248 42.7517C31.0248 42.7499 31.0248 42.7473 31.0248 42.7456C31.0239 42.736 31.0222 42.7213 31.0187 42.6987C31.0187 42.697 31.0187 42.6944 31.0187 42.6926C30.8382 40.322 30.5673 37.9635 30.1793 35.6162C29.9171 34.0208 29.6012 32.4348 29.2453 30.8584C29.2453 30.8541 29.2453 30.8497 29.2453 30.8454C29.2522 30.8168 29.2566 30.8298 29.2566 30.7681V24.4583C29.2566 24.4444 29.2644 24.4313 29.2765 24.4253C29.9987 23.8984 30.6949 23.348 31.3633 22.7534C33.0534 21.2499 34.5569 19.5468 35.8408 17.6865C36.3364 17.0051 36.2852 16.0589 35.7201 15.4348C35.7201 15.4322 35.7201 15.4305 35.7201 15.4279L35.7158 15.4209C35.0534 14.7013 33.9171 14.6544 33.1958 15.3133C33.0908 15.4088 32.9944 15.5164 32.9111 15.6431C31.7904 17.2716 30.4701 18.769 28.9935 20.0832C28.4085 20.6032 27.7887 21.0919 27.1533 21.5537C27.1472 21.5581 27.1359 21.5615 27.1281 21.5598C27.0838 21.5555 27.0621 21.5468 27.0126 21.5468H24.089C24.0387 21.5468 24.0187 21.5546 23.9736 21.5598C23.9649 21.5615 23.9545 21.5589 23.9475 21.5537C23.313 21.0919 22.6941 20.6032 22.1099 20.0832C20.6333 18.7707 19.3217 17.2716 18.1993 15.6431C18.1185 15.5225 18.0291 15.4175 17.9302 15.3263C17.9206 15.3254 17.9128 15.3211 17.9067 15.3133C17.5395 14.9826 17.0708 14.8289 16.6168 14.8489ZM16.6724 15.9183C16.8564 15.9105 17.0361 15.973 17.1836 16.1084C17.2357 16.157 17.2722 16.1961 17.2965 16.2334C17.3 16.2395 17.306 16.2473 17.3104 16.2534C18.4814 17.9539 19.8494 19.5181 21.3946 20.8914C22.0421 21.4669 22.7201 21.9964 23.4171 22.4999C23.5691 22.6067 23.8165 22.6171 24.0586 22.6206L27.0083 22.6136C27.1923 22.6362 27.5335 22.6067 27.6854 22.499C28.3833 21.9964 29.0543 21.4652 29.701 20.8897C31.2427 19.5181 32.6133 17.9574 33.7835 16.2603L33.7904 16.2517C33.7913 16.2482 33.7887 16.2421 33.7904 16.2378C33.7921 16.236 33.7947 16.2334 33.7965 16.2308C33.8208 16.1926 33.859 16.1544 33.9119 16.1058C34.0604 15.9704 34.2444 15.9088 34.425 15.9166C34.5986 15.9244 34.7644 16.0025 34.8963 16.1388C34.9015 16.1397 34.9067 16.1423 34.9102 16.1457C34.9128 16.1475 34.9145 16.1475 34.9171 16.1501C34.9189 16.1501 34.9215 16.1501 34.9241 16.1501C35.1524 16.4036 35.1732 16.7716 34.9727 17.0468C34.9675 17.052 34.9658 17.0607 34.9614 17.0668C33.7244 18.8619 32.2817 20.5051 30.6559 21.9513C29.9701 22.5615 29.2418 23.1371 28.4927 23.6761C28.2982 23.815 28.1828 24.0468 28.1828 24.2846V30.7135C28.1828 30.7187 28.1767 30.7508 28.1758 30.7708C28.175 30.7907 28.1776 30.7942 28.1758 30.828C28.1724 30.8975 28.1776 30.973 28.1941 31.0407C28.5517 32.6154 28.8616 34.1944 29.1229 35.7864C29.5066 38.1067 29.7774 40.453 29.9553 42.802H29.9163L29.9553 42.8063C29.9571 42.8185 29.9605 42.8333 29.9623 42.8454H29.9493C29.9536 42.855 29.9614 42.861 29.9623 42.8714C29.9623 42.8741 29.9623 42.8758 29.9623 42.8784V42.8853C30.0178 43.368 29.6897 43.7907 29.2045 43.8497C28.7175 43.9096 28.2861 43.5815 28.2262 43.0937C28.2227 43.0633 28.2201 43.0355 28.2201 43.0173C28.2201 43.0077 28.2201 42.9956 28.2201 42.9912V42.9843C28.2184 42.9643 28.2149 42.947 28.2132 42.927C28.2132 42.9244 28.2132 42.9227 28.2132 42.9201C28.0395 40.6241 27.767 38.3437 27.3928 36.0728C27.1967 34.8819 26.9623 33.7013 26.7114 32.5294C26.6767 32.3636 26.5838 32.2091 26.4519 32.1023C26.3199 31.9947 26.1498 31.9374 25.9805 31.9374H25.1142C24.9441 31.9374 24.7748 31.9956 24.6428 32.1023C24.5109 32.2083 24.418 32.3628 24.3833 32.5294C24.1324 33.7013 23.898 34.8819 23.7019 36.0728C23.3269 38.3445 23.0569 40.6241 22.8816 42.9201C22.8816 42.94 22.8816 42.9643 22.8816 42.9843H22.8052C22.8052 42.9843 22.8816 42.9904 22.8816 42.9912V42.9999C22.8816 43.0051 22.8763 43.0095 22.8746 43.0181C22.8729 43.0364 22.8711 43.0659 22.8685 43.0945C22.8086 43.5815 22.3807 43.9105 21.8946 43.8506C21.4085 43.7907 21.0725 43.3654 21.1324 42.8793C21.1333 42.8749 21.135 42.8706 21.1385 42.8662C21.1385 42.8636 21.1385 42.861 21.1385 42.8593C21.1385 42.855 21.1385 42.8497 21.1385 42.8454C21.1385 42.8306 21.1385 42.815 21.1385 42.802C21.3173 40.453 21.589 38.1067 21.971 35.7864C22.234 34.1944 22.5474 32.6145 22.905 31.0407C22.9215 30.973 22.9293 30.8992 22.9258 30.8306C22.925 30.802 22.9198 30.7846 22.9189 30.7664H22.9137V24.2846C22.9145 24.0477 22.8008 23.8159 22.609 23.6761C21.8581 23.1362 21.1342 22.5615 20.4475 21.9513C18.8208 20.5051 17.3703 18.8619 16.1333 17.0668C16.1316 17.065 16.129 17.0624 16.1272 17.0607C16.1255 17.0572 16.1281 17.0511 16.1272 17.0468L16.122 17.0398C15.9284 16.7655 15.9527 16.4001 16.1802 16.1501C16.3138 16.006 16.4901 15.927 16.6724 15.9183ZM9.64284 17.6345C9.30864 17.6258 8.98833 17.6874 8.68798 17.7959C8.58902 17.8315 8.4918 17.8714 8.39718 17.9166C8.02305 18.0963 7.69579 18.3411 7.41454 18.6093C6.95794 19.0459 6.5543 19.618 6.41888 20.315C6.33208 20.7595 6.37027 21.1944 6.47357 21.5997C6.57687 22.0034 6.74961 22.3793 6.93451 22.7143C6.93972 22.7256 6.94753 22.7343 6.95447 22.7447C6.91801 22.8194 6.86506 22.9209 6.8668 23.0754C6.8668 23.1918 6.8911 23.2959 6.91715 23.3749C6.94319 23.4539 6.9727 23.506 6.98138 23.5251C7.04735 23.6683 7.1194 23.8211 7.20621 23.9643C7.38069 24.2525 7.63329 24.5867 8.04041 24.8055C8.1819 24.881 8.32166 24.9062 8.44145 24.9287C8.44232 24.9296 8.44232 24.9331 8.44319 24.9357C8.60638 25.124 8.79215 25.3185 9.03347 25.4834C9.5951 25.8662 10.26 26.032 10.9171 25.9808C11.2392 25.9565 11.556 25.8827 11.8581 25.7586L11.8651 25.7569C12.1663 25.6293 12.4519 25.4496 12.6949 25.2369C13.1923 24.8037 13.5482 24.2126 13.6689 23.5425C13.7262 23.2265 13.6993 22.9331 13.6706 22.6701C13.7149 22.5971 13.7644 22.5103 13.7982 22.3923C13.9284 21.9478 13.8685 21.532 13.7852 21.2048C13.7444 21.0451 13.688 20.8871 13.6307 20.7378C13.6142 20.697 13.556 20.5051 13.3902 20.3411C13.2583 20.21 13.1229 20.1666 13.0317 20.1379C12.9388 19.8966 12.8416 19.6544 12.7357 19.4166C12.5708 19.0459 12.3703 18.6067 11.9892 18.2517C11.6576 17.9426 11.221 17.736 10.7505 17.7013C10.5656 17.6874 10.392 17.7143 10.2262 17.7499C10.2236 17.7482 10.2201 17.7482 10.2166 17.7473C10.2149 17.7473 10.2149 17.7482 10.2123 17.7499C10.0413 17.697 9.85031 17.6414 9.64284 17.6345ZM40.4701 17.6345C40.2626 17.6405 40.0708 17.697 39.8972 17.7499C39.8954 17.7499 39.8954 17.7482 39.8928 17.7473C39.8902 17.7482 39.8859 17.7482 39.8842 17.7499C39.7192 17.7143 39.5447 17.6874 39.359 17.7013C38.8885 17.736 38.4527 17.9426 38.1203 18.2517C37.7392 18.6067 37.5387 19.0459 37.3737 19.4166C37.2678 19.6536 37.1706 19.8966 37.0786 20.1379C36.9866 20.1657 36.8538 20.21 36.7218 20.3411C36.5569 20.5051 36.4953 20.6961 36.4796 20.7378C36.4215 20.8871 36.3651 21.0451 36.3251 21.2048C36.2409 21.532 36.1819 21.9478 36.3112 22.3923C36.3451 22.5103 36.3946 22.5971 36.4388 22.6701C36.4102 22.9331 36.3833 23.2265 36.4406 23.5425C36.5621 24.2126 36.9171 24.8037 37.4145 25.2369C37.6593 25.4487 37.9432 25.6293 38.2444 25.7569L38.2513 25.7586C38.5543 25.8827 38.8711 25.9565 39.1923 25.9808C39.8503 26.032 40.5144 25.8662 41.076 25.4834C41.3191 25.3185 41.5074 25.124 41.6689 24.9357C41.6697 24.9339 41.6697 24.9305 41.6706 24.9287C41.7904 24.9062 41.9293 24.881 42.0699 24.8055C42.477 24.5867 42.7331 24.2525 42.9067 23.9643C42.9935 23.8211 43.0647 23.6683 43.129 23.5251C43.1385 23.506 43.168 23.4539 43.1932 23.3749C43.2192 23.2959 43.2444 23.1918 43.2444 23.0754C43.2444 22.9209 43.1923 22.8194 43.1567 22.7447C43.1628 22.7334 43.1724 22.7247 43.1793 22.7143C43.3642 22.3793 43.5352 22.0034 43.6394 21.5997C43.7427 21.1944 43.7783 20.7595 43.6923 20.315C43.5569 19.618 43.1515 19.0459 42.6958 18.6093C42.4163 18.3411 42.0882 18.0963 41.714 17.9175C41.6185 17.8723 41.5222 17.8315 41.4224 17.7968C41.1246 17.6883 40.8052 17.6258 40.4701 17.6345ZM9.62027 18.7048C9.71836 18.7074 9.83815 18.7291 9.98572 18.7768C10.1151 18.8211 10.254 18.8246 10.3859 18.7933C10.4953 18.7647 10.5986 18.7569 10.6724 18.7629C10.8824 18.7786 11.089 18.8758 11.2548 19.0286C11.4536 19.2152 11.6055 19.499 11.7592 19.8463C11.8737 20.1058 11.9866 20.3732 12.089 20.6484C12.089 20.651 12.0925 20.6579 12.0942 20.6596C12.1776 20.8775 12.3816 21.0433 12.6046 21.1006C12.6116 21.1023 12.622 21.1058 12.635 21.1076L12.6376 21.1145C12.6385 21.118 12.6385 21.118 12.642 21.1258C12.6871 21.243 12.7236 21.3541 12.7531 21.4678C12.8147 21.7091 12.8295 21.9322 12.7791 22.1041C12.773 22.1232 12.7583 22.151 12.714 22.2247C12.6324 22.3602 12.6003 22.5181 12.6177 22.6735C12.6177 22.6761 12.6185 22.6779 12.6194 22.6805C12.6498 22.9322 12.6576 23.1562 12.622 23.355C12.5474 23.7681 12.3095 24.1536 11.9857 24.4365C11.8251 24.5763 11.6472 24.6892 11.4519 24.7716L11.4449 24.7742C11.2505 24.8541 11.056 24.8984 10.8442 24.9148C10.4154 24.9478 9.97357 24.8454 9.62548 24.6093C9.4701 24.5034 9.3234 24.3602 9.17669 24.1839C9.06819 24.0485 8.9102 23.9496 8.73833 23.9201C8.6793 23.9114 8.63763 23.9001 8.60638 23.894C8.58989 23.8905 8.57513 23.8853 8.56645 23.8827L8.55777 23.881L8.55256 23.8827C8.39631 23.7985 8.24614 23.6249 8.1168 23.4114C8.05517 23.3107 8.00222 23.2117 7.95187 23.0989L7.951 23.0902C7.94753 23.0833 7.94753 23.0815 7.94579 23.0789L7.9484 23.0694L7.95274 23.0624C7.95708 23.0563 7.95881 23.0468 7.95708 23.039C7.95708 23.0381 7.95534 23.0355 7.95534 23.0346C8.06906 22.8168 8.07426 22.5485 7.9484 22.3359C7.90326 22.2595 7.86246 22.1952 7.85551 22.1813C7.69753 21.8975 7.5786 21.6267 7.50482 21.3428C7.43277 21.0607 7.40673 20.7673 7.45621 20.5121C7.5352 20.1076 7.80256 19.7169 8.15239 19.3819C8.3694 19.1744 8.60465 18.9973 8.85551 18.8775C8.91888 18.848 8.97704 18.8237 9.04041 18.8011C9.23225 18.7317 9.43624 18.7004 9.62027 18.7048ZM40.4927 18.7048C40.6767 18.6996 40.8807 18.7317 41.0725 18.7994C41.1368 18.822 41.1967 18.8471 41.26 18.8767C41.5109 18.9964 41.7444 19.1744 41.9605 19.381C42.3112 19.7161 42.5803 20.1058 42.6593 20.5112C42.7097 20.7673 42.6828 21.0589 42.6107 21.3411C42.5378 21.6258 42.4154 21.8966 42.2574 22.1805C42.2505 22.1926 42.2123 22.2586 42.1671 22.335C42.0404 22.5468 42.0474 22.8159 42.1602 23.0338C42.1602 23.0346 42.1585 23.0364 42.1585 23.0364C42.1559 23.0459 42.1559 23.0546 42.1602 23.0615L42.1645 23.0685L42.1697 23.0789C42.168 23.0806 42.1663 23.0815 42.1628 23.0902L42.1602 23.0963C42.1099 23.2091 42.0552 23.3089 41.9953 23.4088C41.8659 23.6223 41.7184 23.7959 41.5612 23.881L41.5543 23.8784L41.5456 23.881C41.5361 23.8827 41.523 23.8888 41.5083 23.8923C41.4779 23.8984 41.4328 23.9088 41.3737 23.9175C41.2027 23.9487 41.0439 24.0477 40.9354 24.1822C40.7878 24.3576 40.6411 24.5008 40.4866 24.6067C40.1376 24.8437 39.6967 24.947 39.2678 24.9131C39.056 24.8958 38.8616 24.8515 38.6663 24.7716L38.6602 24.7708C38.4649 24.6883 38.2869 24.5754 38.1263 24.4357C37.8026 24.1536 37.5647 23.7664 37.4901 23.3541C37.4553 23.1562 37.4623 22.9305 37.4927 22.6796C37.4935 22.677 37.4944 22.6744 37.4944 22.6727C37.5126 22.5164 37.4788 22.3584 37.3972 22.2239C37.3538 22.1501 37.339 22.1206 37.3329 22.1023C37.2826 21.9305 37.2982 21.7083 37.359 21.4669C37.3876 21.3523 37.4258 21.2421 37.4701 21.1249C37.4718 21.1171 37.4736 21.1171 37.4744 21.1136L37.4762 21.1067C37.4909 21.1041 37.5005 21.1023 37.5074 21.0997C37.7305 21.0425 37.9345 20.8767 38.0178 20.6588C38.0196 20.6562 38.0222 20.6501 38.0222 20.6475C38.1255 20.3723 38.2383 20.105 38.3529 19.8454C38.5074 19.499 38.6585 19.2135 38.8572 19.0277C39.0222 18.8732 39.2296 18.7768 39.4397 18.7612C39.5126 18.756 39.6151 18.7638 39.7262 18.7916C39.8581 18.8237 39.9987 18.8202 40.129 18.776C40.2765 18.73 40.3937 18.7082 40.4927 18.7048ZM15.9883 20.3341C15.635 21.4791 15.2088 22.6006 14.6906 23.6813C14.352 24.3862 13.9718 25.0754 13.5647 25.7456C13.5604 25.7534 13.55 25.7603 13.5413 25.7629C13.4987 25.776 13.477 25.7742 13.431 25.7942L10.7314 26.9244C10.6854 26.9444 10.6715 26.9591 10.6316 26.9817C10.6237 26.986 10.6142 26.986 10.6064 26.9843C9.84336 26.8037 9.08294 26.5937 8.34336 26.3411C6.47357 25.7004 4.67669 24.8272 3.01263 23.7586C2.8859 23.6727 2.75482 23.6136 2.62027 23.565C1.69926 23.2352 0.672354 23.7204 0.340757 24.6397L0.336417 24.6466C0.337285 24.6492 0.339889 24.6492 0.340757 24.651C0.0595069 25.4452 0.378951 26.3376 1.09857 26.7751C3.00135 27.9956 5.04822 28.9878 7.18798 29.7204C8.03433 30.0121 8.8859 30.2499 9.75395 30.4565C9.76784 30.4574 9.78173 30.4661 9.78694 30.4791L12.2236 36.2994C12.247 36.3567 12.2461 36.3411 12.2635 36.3662C12.2652 36.3706 12.2687 36.3732 12.2696 36.3775C12.55 37.9678 12.872 39.5537 13.2461 41.1275C13.7965 43.4435 14.4571 45.7247 15.2062 47.9791C15.2071 47.9817 15.2071 47.9843 15.2088 47.986C15.214 48.0086 15.2175 48.0225 15.2201 48.0303C15.221 48.0329 15.221 48.0346 15.2218 48.0372C15.5144 49.0659 16.5882 49.6657 17.6168 49.3775C18.6446 49.0859 19.254 48.0121 18.9675 46.9843L18.9649 46.9756C18.964 46.973 18.964 46.9713 18.9632 46.9687C18.9484 46.9157 18.9258 46.8506 18.8963 46.7768C18.1802 44.6223 17.5552 42.4366 17.03 40.2282C16.7791 39.1701 16.563 38.0989 16.3581 37.0268C16.3538 37.0077 16.3616 36.9921 16.3807 36.9852L16.6324 36.8767C16.6507 36.868 16.6706 36.8758 16.681 36.8931C17.3008 37.7916 17.9137 38.697 18.4909 39.618C18.7435 40.0208 18.9788 40.4339 19.2218 40.8411C19.2783 40.2421 19.3251 39.6423 19.3937 39.0451V39.0433C18.7531 38.0208 18.0803 37.0251 17.3972 36.0398C17.3 35.901 17.1541 35.7942 16.9918 35.7464C16.8295 35.6996 16.6515 35.7117 16.4944 35.7768L15.6967 36.1102C15.5404 36.1761 15.4067 36.2951 15.3269 36.4452C15.247 36.5954 15.221 36.7734 15.2522 36.94C15.4744 38.1188 15.714 39.2959 15.9927 40.4695C16.5248 42.7091 17.1567 44.9201 17.8833 47.1041C17.8842 47.1067 17.8833 47.1084 17.8833 47.111C17.8876 47.131 17.8963 47.1458 17.9033 47.1657L17.9059 47.1727C17.9076 47.177 17.9111 47.1866 17.9145 47.1952C17.9215 47.2135 17.9302 47.2404 17.9388 47.2699C18.0708 47.7412 17.8 48.2117 17.3286 48.3454C16.8581 48.4773 16.3911 48.2126 16.2557 47.7456L16.2505 47.7395C16.2496 47.7369 16.2505 47.7369 16.2505 47.7343C16.2479 47.723 16.2496 47.7143 16.2505 47.7065L16.2392 47.7109C16.2375 47.6987 16.234 47.6839 16.2305 47.6718L16.2652 47.6536L16.2305 47.6692C15.4875 45.4348 14.8303 43.1622 14.2869 40.8749C13.9137 39.3046 13.5864 37.7308 13.3086 36.1405C13.2974 36.072 13.2748 35.999 13.2444 35.9374C13.2296 35.907 13.2314 35.9044 13.2218 35.8862C13.2132 35.8688 13.1958 35.8402 13.1941 35.8359V35.8315L10.7105 29.9044C10.6185 29.6848 10.4189 29.5138 10.1862 29.4609C9.28694 29.2525 8.39631 29.0034 7.52739 28.7056C5.46923 27.9999 3.50395 27.0425 1.66975 25.8645C1.66367 25.8602 1.65847 25.8558 1.65152 25.8515C1.36072 25.6744 1.23659 25.328 1.34944 25.0051C1.35117 25.0043 1.35378 25.0017 1.35551 25.0008C1.35725 24.9982 1.35899 24.9973 1.36072 24.9938C1.36246 24.9921 1.36419 24.9886 1.3668 24.9852C1.43711 24.8081 1.56038 24.6718 1.71836 24.5971C1.88156 24.5199 2.07687 24.5069 2.2661 24.5746C2.33381 24.598 2.38329 24.6197 2.42062 24.6458C2.42409 24.6466 2.42669 24.6501 2.43017 24.6518C2.4319 24.6544 2.43277 24.6605 2.43624 24.6631L2.44579 24.6683C4.1793 25.7812 6.04388 26.6909 7.99787 27.361C8.81732 27.6405 9.64284 27.8714 10.4805 28.0659C10.6611 28.1067 10.9849 28.0017 11.1463 27.9088L13.872 26.776C14.0925 26.6796 14.3182 26.572 14.4154 26.4157C14.8642 25.6831 15.2852 24.9305 15.6611 24.1501C16.1055 23.2256 16.4901 22.2716 16.8173 21.302C16.5317 20.9852 16.2592 20.6614 15.9883 20.3341ZM34.4007 21.1779C34.1342 21.4765 33.8564 21.7664 33.5769 22.0546C33.8408 22.7638 34.1255 23.4652 34.4536 24.1492C34.8277 24.9296 35.2505 25.6813 35.7001 26.414C35.7982 26.572 36.0213 26.6779 36.2409 26.7751L38.9692 27.9079C39.1307 27.9999 39.4545 28.105 39.6342 28.065C40.4718 27.8706 41.2965 27.6397 42.1151 27.3593C44.0682 26.6892 45.9362 25.7803 47.6697 24.6666L47.6784 24.6622C47.681 24.6605 47.681 24.6544 47.6836 24.651C47.6854 24.6501 47.6897 24.6458 47.6923 24.644C47.7296 24.6197 47.7791 24.598 47.8468 24.5728C48.0361 24.5051 48.2331 24.5181 48.3954 24.5954C48.5517 24.6701 48.6758 24.8063 48.7461 24.9834C48.7496 24.9869 48.7505 24.9904 48.7531 24.9947C48.754 24.9973 48.7557 24.9982 48.7574 25.0017C48.7592 25.0017 48.7618 25.0051 48.7644 25.006C48.8781 25.3289 48.7548 25.6753 48.464 25.8523C48.4571 25.8558 48.4527 25.8619 48.4458 25.8662C46.6107 27.0425 44.6446 28.0017 42.5855 28.7065C41.7158 29.0043 40.8225 29.2534 39.9241 29.4626C39.6923 29.5155 39.497 29.6848 39.4041 29.9053L36.9197 35.8324V35.8367C36.9171 35.8411 36.8989 35.8697 36.8911 35.8879C36.8833 35.9062 36.8833 35.9079 36.8685 35.9383C36.839 36.0008 36.8156 36.0728 36.8043 36.1414C36.5265 37.7317 36.201 39.3072 35.8286 40.8758C35.2843 43.164 34.6281 45.4366 33.885 47.6701L33.8494 47.6544L33.8824 47.6727C33.879 47.6839 33.8755 47.6996 33.8737 47.7117L33.8599 47.7074C33.8607 47.7169 33.8677 47.723 33.8642 47.7334C33.8642 47.736 33.8607 47.7404 33.8599 47.743V47.7473C33.7244 48.2143 33.2566 48.4782 32.7869 48.3463C32.3156 48.2126 32.043 47.743 32.175 47.2708C32.1836 47.2421 32.1923 47.2135 32.1984 47.197C32.2019 47.1874 32.2053 47.1761 32.2071 47.1727L32.2123 47.1657C32.2184 47.1458 32.2253 47.1336 32.2296 47.1128C32.2296 47.111 32.2314 47.1084 32.2322 47.1067C32.9597 44.9227 33.5882 42.7117 34.1203 40.4721C34.3989 39.2977 34.6402 38.1214 34.8625 36.9426C34.8937 36.7751 34.8685 36.5963 34.7887 36.447C34.7079 36.2985 34.5725 36.1787 34.4163 36.1119L33.6185 35.7794C33.4614 35.7126 33.2835 35.7013 33.1211 35.749C32.9588 35.7959 32.813 35.9036 32.7158 36.0425C32.3156 36.6197 31.9206 37.203 31.5326 37.7916C31.6046 38.3393 31.6854 38.8853 31.7461 39.4331C32.2887 38.5763 32.8564 37.7317 33.4336 36.8949C33.4441 36.8784 33.464 36.8714 33.4822 36.8793L33.734 36.9852C33.7513 36.9921 33.76 37.0103 33.7566 37.0294C33.5508 38.1006 33.3373 39.1718 33.0864 40.2308C32.5612 42.4383 31.9345 44.6249 31.2184 46.7794C31.1897 46.8515 31.1671 46.9201 31.1515 46.973C31.1515 46.9756 31.148 46.9756 31.1472 46.9773V46.9843C30.8607 48.0121 31.4684 49.0859 32.4953 49.3775C33.5239 49.6675 34.5977 49.0668 34.8902 48.0372C34.8902 48.0346 34.8937 48.0303 34.8946 48.0277C34.8963 48.019 34.8963 48.0077 34.9033 47.986C34.9033 47.9843 34.9067 47.9791 34.9076 47.9773C35.6567 45.7221 36.3182 43.4409 36.8685 41.1249C37.2418 39.552 37.5647 37.9678 37.8442 36.3775C37.8451 36.3732 37.8468 36.3706 37.8486 36.3662C37.8668 36.3419 37.8651 36.3567 37.8885 36.2994L40.3269 30.4782C40.3329 30.4661 40.3451 30.4574 40.3572 30.4565C41.227 30.2482 42.0803 30.0103 42.9267 29.7204C45.0647 28.9878 47.1116 27.9956 49.0135 26.7751C49.734 26.3376 50.0508 25.4452 49.7713 24.651C49.7713 24.6492 49.7748 24.6492 49.7757 24.6466L49.7713 24.6397C49.4388 23.7204 48.4119 23.2352 47.4918 23.565C47.3581 23.6119 47.2279 23.6727 47.0986 23.7586C45.4354 24.8272 43.6394 25.7004 41.7687 26.3411C41.0291 26.5945 40.2687 26.8037 39.5057 26.9843C39.497 26.986 39.4892 26.986 39.4822 26.9817C39.4432 26.9591 39.4267 26.9444 39.3807 26.9244L36.681 25.7942C36.635 25.7742 36.6133 25.776 36.5708 25.7629C36.5621 25.7612 36.5526 25.7543 36.5482 25.7456C36.1411 25.0754 35.7583 24.3862 35.4197 23.6813C35.0335 22.868 34.6984 22.0294 34.4007 21.1779ZM17.9093 22.4539C17.6194 23.2369 17.3034 24.0112 16.9423 24.7647C16.5439 25.5928 16.0986 26.4044 15.6159 27.19C15.4927 27.3931 15.4762 27.651 15.5699 27.8697L18.0751 33.8497L18.0682 33.8515C18.0743 33.8688 18.076 33.8862 18.0864 33.914C18.1099 33.9791 18.1446 34.0425 18.1854 34.0989C18.7227 34.8497 19.2435 35.6136 19.7548 36.381C19.8017 36.072 19.8451 35.7603 19.8954 35.4513C19.9293 35.2482 19.9701 35.0459 20.0066 34.8428C19.7027 34.4001 19.4007 33.9574 19.089 33.5208C19.0864 33.5164 19.0838 33.5147 19.0821 33.5095C19.0777 33.4895 19.0821 33.4904 19.0595 33.4374L16.6211 27.6171C16.6168 27.6041 16.6194 27.5919 16.6281 27.5815C17.0899 26.8168 17.5248 26.0355 17.9128 25.2282C18.2227 24.5824 18.4979 23.9201 18.7566 23.2525C18.4701 22.9895 18.1845 22.7265 17.9093 22.4539ZM32.4597 23.1431C32.3217 23.2699 32.1915 23.4044 32.0508 23.5312C31.9076 23.657 31.7592 23.776 31.6142 23.8966C31.8017 24.3445 31.9927 24.7898 32.2019 25.2273C32.5899 26.0338 33.0239 26.8159 33.4866 27.5806C33.4944 27.5911 33.4979 27.6041 33.4935 27.6154L31.0543 33.4365C31.0317 33.4904 31.0361 33.4895 31.0317 33.5086C31.0309 33.5129 31.0274 33.5155 31.0248 33.5199C30.9788 33.5867 30.9345 33.6518 30.8885 33.7187C30.9831 34.2135 31.076 34.71 31.1593 35.2074C31.4154 34.8376 31.6663 34.4643 31.9284 34.0971C31.9684 34.0407 32.0031 33.9782 32.0283 33.9122C32.0369 33.8862 32.0404 33.8671 32.0465 33.8506L32.0395 33.848L34.5474 27.868C34.6394 27.651 34.6211 27.3923 34.4987 27.1892C34.0152 26.4018 33.5699 25.5919 33.1715 24.7638C32.9154 24.2326 32.6802 23.69 32.4597 23.1431Z" fill="#004AAD"/>
</g>
</svg>
