<svg xmlns="http://www.w3.org/2000/svg" xmlns:xlink="http://www.w3.org/1999/xlink" width="50" zoomAndPan="magnify" viewBox="0 0 37.5 37.499999" height="50" preserveAspectRatio="xMidYMid meet" version="1.0"><path fill="#004aad" d="M 5.375 3.523438 C 4.261719 3.523438 3.703125 4.875 4.488281 5.660156 C 5.277344 6.449219 6.628906 5.886719 6.628906 4.773438 C 6.628906 4.609375 6.597656 4.449219 6.535156 4.296875 C 6.46875 4.140625 6.378906 4.007812 6.261719 3.890625 C 6.144531 3.773438 6.007812 3.679688 5.855469 3.617188 C 5.703125 3.554688 5.542969 3.523438 5.375 3.523438 Z M 25.566406 30.285156 C 25.445312 30.164062 25.386719 30.019531 25.386719 29.847656 C 25.386719 29.679688 25.449219 29.535156 25.570312 29.414062 C 25.691406 29.292969 25.835938 29.234375 26.007812 29.234375 C 26.175781 29.234375 26.320312 29.292969 26.441406 29.414062 L 28.109375 31.082031 L 32.320312 27.070312 C 32.441406 26.957031 32.589844 26.902344 32.757812 26.90625 C 32.929688 26.910156 33.070312 26.972656 33.1875 27.097656 C 33.304688 27.21875 33.363281 27.367188 33.359375 27.535156 C 33.355469 27.707031 33.292969 27.847656 33.171875 27.964844 L 28.523438 32.394531 C 28.402344 32.507812 28.257812 32.566406 28.089844 32.5625 C 27.921875 32.5625 27.78125 32.5 27.660156 32.382812 Z M 30.199219 22.351562 L 30.199219 13.117188 C 30.199219 12.945312 30.136719 12.796875 30.015625 12.679688 C 29.894531 12.558594 29.75 12.496094 29.578125 12.496094 L 24.578125 12.496094 C 24.40625 12.496094 24.261719 12.558594 24.140625 12.679688 C 24.019531 12.796875 23.957031 12.945312 23.957031 13.117188 L 23.957031 22.335938 C 23.957031 22.507812 24.019531 22.652344 24.140625 22.773438 C 24.261719 22.894531 24.40625 22.953125 24.578125 22.953125 C 24.75 22.953125 24.894531 22.894531 25.015625 22.773438 C 25.136719 22.652344 25.195312 22.507812 25.195312 22.335938 L 25.195312 13.734375 L 28.960938 13.734375 L 28.960938 22.351562 C 28.652344 22.375 28.347656 22.421875 28.042969 22.488281 C 27.742188 22.550781 27.445312 22.636719 27.152344 22.738281 C 26.863281 22.84375 26.578125 22.964844 26.304688 23.101562 C 26.027344 23.242188 25.761719 23.398438 25.503906 23.570312 C 25.25 23.746094 25.003906 23.933594 24.773438 24.136719 C 24.539062 24.34375 24.324219 24.558594 24.117188 24.792969 C 23.914062 25.023438 23.726562 25.269531 23.554688 25.523438 C 23.378906 25.78125 23.222656 26.046875 23.085938 26.324219 C 22.945312 26.597656 22.824219 26.882812 22.722656 27.175781 C 22.617188 27.464844 22.535156 27.761719 22.46875 28.066406 C 22.40625 28.367188 22.359375 28.671875 22.332031 28.980469 C 22.308594 29.289062 22.300781 29.597656 22.3125 29.90625 C 22.328125 30.214844 22.359375 30.519531 22.410156 30.824219 C 22.464844 31.128906 22.535156 31.429688 22.625 31.726562 C 22.714844 32.019531 22.824219 32.308594 22.953125 32.589844 C 23.078125 32.875 23.226562 33.144531 23.386719 33.410156 C 23.550781 33.671875 23.726562 33.925781 23.921875 34.164062 C 24.117188 34.40625 24.324219 34.632812 24.546875 34.847656 C 24.769531 35.058594 25.007812 35.257812 25.253906 35.441406 C 25.503906 35.625 25.761719 35.792969 26.03125 35.945312 C 26.300781 36.09375 26.582031 36.226562 26.867188 36.34375 C 27.15625 36.457031 27.449219 36.554688 27.746094 36.632812 C 28.046875 36.710938 28.347656 36.769531 28.65625 36.808594 C 28.960938 36.847656 29.269531 36.867188 29.578125 36.867188 C 29.886719 36.867188 30.195312 36.847656 30.503906 36.808594 C 30.808594 36.769531 31.113281 36.710938 31.410156 36.632812 C 31.710938 36.554688 32.003906 36.457031 32.289062 36.34375 C 32.578125 36.226562 32.855469 36.09375 33.125 35.945312 C 33.394531 35.792969 33.652344 35.625 33.902344 35.441406 C 34.152344 35.257812 34.386719 35.058594 34.609375 34.847656 C 34.832031 34.632812 35.042969 34.40625 35.238281 34.164062 C 35.429688 33.925781 35.609375 33.671875 35.769531 33.410156 C 35.933594 33.144531 36.078125 32.875 36.203125 32.589844 C 36.332031 32.308594 36.441406 32.019531 36.53125 31.726562 C 36.621094 31.429688 36.695312 31.128906 36.746094 30.824219 C 36.796875 30.519531 36.832031 30.214844 36.84375 29.90625 C 36.859375 29.597656 36.851562 29.289062 36.824219 28.980469 C 36.796875 28.671875 36.753906 28.367188 36.6875 28.066406 C 36.621094 27.761719 36.539062 27.464844 36.4375 27.175781 C 36.332031 26.882812 36.210938 26.597656 36.074219 26.324219 C 35.933594 26.046875 35.777344 25.78125 35.605469 25.523438 C 35.433594 25.269531 35.242188 25.023438 35.039062 24.792969 C 34.835938 24.558594 34.617188 24.34375 34.386719 24.136719 C 34.152344 23.933594 33.910156 23.746094 33.652344 23.570312 C 33.398438 23.398438 33.128906 23.242188 32.855469 23.101562 C 32.578125 22.964844 32.296875 22.84375 32.003906 22.738281 C 31.710938 22.636719 31.414062 22.550781 31.113281 22.488281 C 30.8125 22.421875 30.507812 22.375 30.199219 22.351562 Z M 33.84375 25.328125 C 33.566406 25.050781 33.261719 24.796875 32.929688 24.578125 C 32.601562 24.359375 32.253906 24.171875 31.886719 24.019531 C 31.523438 23.871094 31.144531 23.753906 30.757812 23.679688 C 30.367188 23.601562 29.976562 23.5625 29.578125 23.5625 C 29.183594 23.5625 28.789062 23.601562 28.402344 23.679688 C 28.011719 23.753906 27.636719 23.871094 27.269531 24.019531 C 26.902344 24.171875 26.554688 24.359375 26.226562 24.578125 C 25.898438 24.800781 25.59375 25.050781 25.3125 25.328125 C 25.03125 25.609375 24.78125 25.914062 24.5625 26.242188 C 24.339844 26.574219 24.15625 26.921875 24.003906 27.285156 C 23.851562 27.652344 23.738281 28.03125 23.660156 28.417969 C 23.582031 28.808594 23.542969 29.199219 23.542969 29.597656 C 23.542969 29.992188 23.582031 30.382812 23.660156 30.773438 C 23.738281 31.160156 23.851562 31.539062 24.003906 31.90625 C 24.15625 32.269531 24.339844 32.617188 24.5625 32.949219 C 24.78125 33.277344 25.03125 33.582031 25.3125 33.863281 C 25.59375 34.140625 25.898438 34.394531 26.226562 34.613281 C 26.554688 34.832031 26.902344 35.019531 27.269531 35.171875 C 27.636719 35.320312 28.011719 35.4375 28.402344 35.515625 C 28.789062 35.589844 29.183594 35.628906 29.578125 35.628906 C 29.976562 35.628906 30.367188 35.589844 30.757812 35.515625 C 31.144531 35.4375 31.523438 35.320312 31.886719 35.171875 C 32.253906 35.019531 32.601562 34.832031 32.929688 34.613281 C 33.261719 34.394531 33.566406 34.144531 33.84375 33.863281 C 34.125 33.582031 34.375 33.277344 34.597656 32.949219 C 34.816406 32.617188 35 32.269531 35.152344 31.90625 C 35.304688 31.539062 35.417969 31.160156 35.496094 30.773438 C 35.574219 30.382812 35.613281 29.992188 35.613281 29.597656 C 35.613281 29.199219 35.574219 28.808594 35.496094 28.417969 C 35.417969 28.03125 35.304688 27.652344 35.152344 27.285156 C 35 26.921875 34.816406 26.574219 34.597656 26.242188 C 34.375 25.914062 34.125 25.609375 33.84375 25.328125 Z M 8.585938 22.261719 L 8.585938 28.976562 L 12.351562 28.976562 L 12.351562 22.261719 Z M 7.347656 29.59375 L 7.347656 21.640625 C 7.347656 21.46875 7.410156 21.324219 7.53125 21.203125 C 7.652344 21.082031 7.796875 21.023438 7.96875 21.023438 L 12.96875 21.023438 C 13.140625 21.023438 13.285156 21.082031 13.40625 21.203125 C 13.527344 21.324219 13.589844 21.46875 13.589844 21.640625 L 13.589844 29.59375 C 13.589844 29.765625 13.527344 29.914062 13.40625 30.035156 C 13.285156 30.152344 13.140625 30.214844 12.96875 30.214844 L 7.96875 30.214844 C 7.796875 30.214844 7.652344 30.152344 7.53125 30.035156 C 7.410156 29.914062 7.347656 29.765625 7.347656 29.59375 Z M 21.894531 17.714844 L 21.894531 29.59375 C 21.894531 29.765625 21.832031 29.914062 21.710938 30.035156 C 21.589844 30.152344 21.445312 30.214844 21.273438 30.214844 L 16.273438 30.214844 C 16.101562 30.214844 15.957031 30.152344 15.835938 30.035156 C 15.714844 29.914062 15.652344 29.765625 15.652344 29.59375 L 15.652344 17.714844 C 15.652344 17.546875 15.714844 17.398438 15.835938 17.277344 C 15.957031 17.15625 16.101562 17.097656 16.273438 17.097656 L 21.273438 17.097656 C 21.445312 17.097656 21.589844 17.15625 21.710938 17.277344 C 21.832031 17.398438 21.894531 17.546875 21.894531 17.714844 Z M 20.65625 28.976562 L 20.65625 18.335938 L 16.890625 18.335938 L 16.890625 28.976562 Z M 21.726562 6.894531 C 21.820312 6.746094 21.84375 6.585938 21.800781 6.417969 C 21.761719 6.246094 21.664062 6.117188 21.511719 6.03125 L 20.25 5.304688 L 26.460938 1.71875 L 26.460938 8.886719 L 25.222656 8.171875 C 25.089844 8.085938 24.945312 8.054688 24.789062 8.078125 C 24.632812 8.101562 24.503906 8.175781 24.402344 8.296875 C 21.621094 11.699219 17.105469 14.109375 12.839844 15.179688 C 14.671875 14.230469 16.339844 13.050781 17.851562 11.644531 C 19.359375 10.238281 20.652344 8.652344 21.726562 6.894531 Z M 15.175781 12.269531 C 15.703125 11.875 16.21875 11.457031 16.710938 11.015625 C 15.140625 7.917969 11.046875 7.15625 8.472656 9.488281 C 7.65625 10.226562 7.125 11.128906 6.878906 12.199219 L 12.007812 12.199219 C 12.179688 12.199219 12.324219 12.257812 12.445312 12.378906 C 12.566406 12.5 12.628906 12.648438 12.628906 12.816406 C 12.628906 12.988281 12.566406 13.132812 12.445312 13.253906 C 12.324219 13.375 12.179688 13.4375 12.007812 13.4375 L 0.632812 13.4375 L 0.632812 13.433594 C 0.453125 13.433594 0.300781 13.367188 0.175781 13.230469 C 0.0546875 13.097656 0.00390625 12.9375 0.0195312 12.757812 C 0.347656 9.453125 3.597656 7.214844 6.828125 8.117188 C 7.148438 8.207031 7.457031 8.328125 7.757812 8.472656 C 10.851562 5.792969 15.59375 6.617188 17.632812 10.132812 C 18.648438 9.105469 19.550781 7.988281 20.335938 6.78125 L 18.707031 5.839844 L 18.707031 5.835938 C 18.613281 5.78125 18.539062 5.707031 18.484375 5.609375 C 18.429688 5.515625 18.402344 5.414062 18.402344 5.304688 C 18.402344 5.191406 18.429688 5.089844 18.484375 4.996094 C 18.539062 4.898438 18.617188 4.824219 18.710938 4.769531 L 26.753906 0.125 C 26.957031 0 27.167969 -0.00390625 27.378906 0.113281 C 27.589844 0.230469 27.695312 0.410156 27.695312 0.648438 L 27.695312 9.921875 C 27.707031 10.167969 27.609375 10.355469 27.402344 10.484375 C 27.191406 10.613281 26.980469 10.617188 26.769531 10.492188 L 25.019531 9.484375 C 23.042969 11.746094 20.386719 13.542969 17.597656 14.8125 C 14.285156 16.320312 10.769531 17.085938 7.972656 17.007812 C 7.238281 17 7.125 15.972656 7.8125 15.792969 C 10.496094 15.097656 12.949219 13.921875 15.171875 12.269531 Z M 5.617188 12.199219 C 5.808594 11.175781 6.222656 10.25 6.859375 9.425781 C 6.585938 9.324219 6.308594 9.25 6.023438 9.207031 C 5.738281 9.160156 5.453125 9.148438 5.164062 9.164062 C 4.875 9.175781 4.589844 9.222656 4.3125 9.296875 C 4.03125 9.371094 3.761719 9.472656 3.503906 9.605469 C 3.246094 9.734375 3.007812 9.890625 2.78125 10.070312 C 2.554688 10.25 2.351562 10.453125 2.167969 10.675781 C 1.984375 10.898438 1.824219 11.140625 1.691406 11.394531 C 1.558594 11.652344 1.453125 11.921875 1.375 12.199219 Z M 12.007812 1.269531 C 10.449219 1.269531 9.667969 3.160156 10.769531 4.261719 C 11.871094 5.363281 13.761719 4.582031 13.761719 3.023438 C 13.761719 2.789062 13.71875 2.566406 13.628906 2.351562 C 13.539062 2.136719 13.414062 1.949219 13.25 1.78125 C 13.085938 1.617188 12.894531 1.492188 12.679688 1.402344 C 12.464844 1.3125 12.242188 1.269531 12.007812 1.269531 Z M 9.894531 0.90625 C 9.613281 1.1875 9.394531 1.511719 9.246094 1.878906 C 9.09375 2.246094 9.015625 2.625 9.015625 3.023438 C 9.015625 3.417969 9.09375 3.800781 9.246094 4.167969 C 9.394531 4.535156 9.613281 4.859375 9.894531 5.136719 C 10.171875 5.417969 10.496094 5.636719 10.863281 5.785156 C 11.230469 5.9375 11.613281 6.015625 12.007812 6.015625 C 12.40625 6.015625 12.785156 5.9375 13.152344 5.785156 C 13.519531 5.636719 13.84375 5.417969 14.125 5.136719 C 14.40625 4.859375 14.621094 4.535156 14.773438 4.167969 C 14.925781 3.800781 15 3.417969 15 3.023438 C 15 2.625 14.925781 2.246094 14.773438 1.878906 C 14.621094 1.511719 14.40625 1.1875 14.125 0.90625 C 13.84375 0.625 13.519531 0.410156 13.152344 0.257812 C 12.785156 0.105469 12.40625 0.03125 12.007812 0.03125 C 11.613281 0.03125 11.230469 0.105469 10.863281 0.257812 C 10.496094 0.410156 10.171875 0.625 9.894531 0.90625 Z M 3.613281 3.015625 C 3.847656 2.78125 4.117188 2.601562 4.421875 2.472656 C 4.726562 2.347656 5.046875 2.285156 5.375 2.285156 C 5.707031 2.285156 6.023438 2.347656 6.328125 2.472656 C 6.632812 2.601562 6.902344 2.78125 7.136719 3.015625 C 7.371094 3.246094 7.550781 3.515625 7.675781 3.820312 C 7.804688 4.128906 7.867188 4.445312 7.867188 4.773438 C 7.867188 5.105469 7.804688 5.421875 7.675781 5.730469 C 7.550781 6.035156 7.371094 6.304688 7.136719 6.535156 C 6.902344 6.769531 6.632812 6.949219 6.328125 7.078125 C 6.023438 7.203125 5.707031 7.265625 5.375 7.265625 C 5.046875 7.265625 4.726562 7.203125 4.421875 7.078125 C 4.117188 6.949219 3.847656 6.769531 3.613281 6.535156 C 3.378906 6.304688 3.199219 6.035156 3.074219 5.730469 C 2.949219 5.421875 2.882812 5.105469 2.882812 4.773438 C 2.882812 4.445312 2.949219 4.128906 3.074219 3.820312 C 3.199219 3.515625 3.378906 3.246094 3.613281 3.015625 Z M 3.613281 3.015625 " fill-opacity="1" fill-rule="evenodd"/></svg>