<svg xmlns="http://www.w3.org/2000/svg" xmlns:xlink="http://www.w3.org/1999/xlink" width="50" zoomAndPan="magnify" viewBox="0 0 37.5 37.499999" height="50" preserveAspectRatio="xMidYMid meet" version="1.0"><defs><clipPath id="2c80b01130"><path d="M 0.578125 2.261719 L 36.105469 2.261719 L 36.105469 36.304688 L 0.578125 36.304688 Z M 0.578125 2.261719 " clip-rule="nonzero"/></clipPath></defs><g clip-path="url(#2c80b01130)"><path fill="#004aad" d="M 29.398438 25.996094 C 28.277344 26.398438 27.15625 26.804688 26.035156 27.207031 C 25.285156 27.480469 24.535156 27.75 23.785156 28.019531 C 23.839844 27.660156 23.816406 27.308594 23.714844 26.960938 C 23.613281 26.613281 23.445312 26.304688 23.207031 26.03125 C 22.972656 25.757812 22.6875 25.542969 22.359375 25.394531 C 22.03125 25.242188 21.6875 25.167969 21.324219 25.167969 L 17.507812 25.167969 C 17.234375 25.171875 16.976562 25.113281 16.734375 25 C 12.09375 22.875 10.421875 22.910156 6.75 22.996094 C 6.605469 23 6.457031 23.003906 6.304688 23.003906 L 6.304688 21.847656 C 6.304688 21.710938 6.257812 21.597656 6.160156 21.5 C 6.066406 21.40625 5.949219 21.359375 5.8125 21.359375 L 1.074219 21.359375 C 0.941406 21.359375 0.824219 21.40625 0.730469 21.5 C 0.632812 21.597656 0.585938 21.710938 0.585938 21.847656 L 0.585938 34.679688 C 0.585938 34.8125 0.632812 34.929688 0.730469 35.027344 C 0.824219 35.121094 0.941406 35.167969 1.074219 35.167969 L 5.8125 35.167969 C 5.949219 35.167969 6.066406 35.121094 6.160156 35.027344 C 6.257812 34.929688 6.304688 34.8125 6.304688 34.679688 L 6.304688 33.289062 C 8.402344 33.324219 8.796875 33.523438 11.160156 34.71875 C 11.488281 34.886719 11.859375 35.074219 12.273438 35.28125 C 13.425781 35.910156 14.660156 36.226562 15.976562 36.226562 C 17.019531 36.226562 18.105469 36.023438 19.25 35.617188 C 19.253906 35.613281 19.261719 35.613281 19.265625 35.613281 L 31.203125 30.980469 C 31.53125 30.859375 31.828125 30.683594 32.085938 30.445312 C 32.34375 30.207031 32.550781 29.929688 32.699219 29.613281 C 32.847656 29.292969 32.929688 28.960938 32.945312 28.609375 C 32.960938 28.257812 32.910156 27.917969 32.789062 27.585938 C 32.671875 27.257812 32.492188 26.960938 32.253906 26.703125 C 32.019531 26.441406 31.742188 26.238281 31.421875 26.089844 C 31.105469 25.941406 30.769531 25.859375 30.421875 25.84375 C 30.070312 25.824219 29.730469 25.878906 29.398438 25.996094 Z M 5.324219 34.1875 L 1.566406 34.1875 L 1.566406 22.335938 L 5.324219 22.335938 Z M 30.863281 30.0625 L 30.851562 30.066406 L 18.917969 34.695312 C 16.621094 35.507812 14.597656 35.414062 12.730469 34.414062 C 12.726562 34.410156 12.722656 34.410156 12.71875 34.40625 C 12.300781 34.199219 11.933594 34.011719 11.601562 33.84375 C 9.15625 32.605469 8.652344 32.351562 6.304688 32.308594 L 6.304688 23.984375 C 6.464844 23.980469 6.621094 23.980469 6.773438 23.976562 C 10.394531 23.890625 11.890625 23.859375 16.324219 25.890625 C 16.699219 26.066406 17.09375 26.152344 17.507812 26.148438 L 21.324219 26.148438 C 21.523438 26.148438 21.71875 26.1875 21.902344 26.261719 C 22.085938 26.339844 22.25 26.449219 22.390625 26.589844 C 22.53125 26.730469 22.640625 26.894531 22.71875 27.078125 C 22.792969 27.261719 22.832031 27.453125 22.832031 27.652344 C 22.832031 27.988281 22.730469 28.289062 22.527344 28.554688 C 22.527344 28.558594 22.523438 28.566406 22.519531 28.570312 C 22.519531 28.574219 22.511719 28.578125 22.507812 28.582031 C 22.210938 28.96875 21.8125 29.160156 21.324219 29.160156 L 15.105469 29.160156 C 14.972656 29.160156 14.855469 29.210938 14.761719 29.304688 C 14.664062 29.402344 14.617188 29.515625 14.617188 29.652344 C 14.617188 29.785156 14.664062 29.902344 14.761719 29.996094 C 14.855469 30.09375 14.972656 30.140625 15.105469 30.140625 L 21.324219 30.140625 C 22.089844 30.140625 22.71875 29.847656 23.214844 29.265625 C 24.265625 28.886719 25.316406 28.507812 26.367188 28.128906 C 27.488281 27.726562 28.609375 27.320312 29.730469 26.917969 C 29.9375 26.84375 30.15625 26.808594 30.375 26.820312 C 30.597656 26.828125 30.808594 26.878906 31.011719 26.972656 C 31.210938 27.070312 31.386719 27.199219 31.535156 27.363281 C 31.6875 27.523438 31.796875 27.710938 31.875 27.921875 C 31.949219 28.128906 31.980469 28.34375 31.972656 28.566406 C 31.960938 28.789062 31.910156 29 31.8125 29.199219 C 31.71875 29.402344 31.589844 29.574219 31.425781 29.726562 C 31.261719 29.875 31.074219 29.984375 30.863281 30.058594 Z M 35.921875 2.261719 L 17.46875 2.261719 C 17.332031 2.261719 17.214844 2.308594 17.121094 2.402344 L 12.953125 6.574219 C 12.855469 6.671875 12.808594 6.785156 12.808594 6.921875 L 12.808594 21.738281 C 12.808594 21.871094 12.855469 21.988281 12.953125 22.082031 C 13.046875 22.179688 13.164062 22.226562 13.296875 22.226562 L 31.753906 22.226562 C 31.886719 22.226562 32.003906 22.179688 32.097656 22.082031 L 36.269531 17.914062 C 36.363281 17.816406 36.410156 17.703125 36.410156 17.566406 L 36.410156 2.75 C 36.410156 2.613281 36.363281 2.5 36.269531 2.402344 C 36.171875 2.308594 36.058594 2.261719 35.921875 2.261719 Z M 27.464844 3.238281 L 24.273438 6.429688 L 21.753906 6.429688 L 24.945312 3.238281 Z M 23.988281 7.410156 L 23.988281 9.265625 L 21.0625 9.265625 L 21.0625 7.410156 Z M 17.671875 3.238281 L 23.558594 3.238281 L 20.367188 6.433594 L 14.480469 6.433594 Z M 31.261719 21.246094 L 13.789062 21.246094 L 13.789062 7.410156 L 20.082031 7.410156 L 20.082031 9.753906 C 20.082031 9.890625 20.128906 10.003906 20.226562 10.101562 C 20.320312 10.195312 20.4375 10.242188 20.570312 10.242188 L 24.476562 10.242188 C 24.613281 10.242188 24.726562 10.195312 24.824219 10.101562 C 24.917969 10.003906 24.964844 9.890625 24.964844 9.753906 L 24.964844 7.410156 L 31.261719 7.410156 Z M 31.550781 6.429688 L 25.660156 6.429688 L 28.851562 3.238281 L 34.738281 3.238281 Z M 35.433594 17.363281 L 32.242188 20.554688 L 32.242188 7.125 L 35.433594 3.933594 Z M 21.648438 16.449219 L 24.273438 13.820312 C 24.371094 13.726562 24.488281 13.679688 24.621094 13.679688 C 24.757812 13.679688 24.871094 13.726562 24.96875 13.820312 C 25.0625 13.917969 25.113281 14.03125 25.113281 14.167969 C 25.113281 14.304688 25.0625 14.417969 24.96875 14.515625 L 21.992188 17.488281 C 21.898438 17.582031 21.78125 17.628906 21.644531 17.628906 C 21.511719 17.628906 21.394531 17.582031 21.300781 17.488281 L 20.082031 16.269531 C 19.988281 16.171875 19.9375 16.058594 19.9375 15.921875 C 19.9375 15.789062 19.988281 15.671875 20.082031 15.578125 C 20.179688 15.480469 20.292969 15.433594 20.429688 15.433594 C 20.5625 15.433594 20.679688 15.480469 20.773438 15.578125 Z M 17.796875 15.652344 C 17.796875 15.964844 17.828125 16.269531 17.886719 16.574219 C 17.949219 16.878906 18.039062 17.175781 18.15625 17.464844 C 18.273438 17.75 18.421875 18.023438 18.59375 18.28125 C 18.765625 18.539062 18.960938 18.777344 19.179688 18.996094 C 19.402344 19.214844 19.640625 19.414062 19.898438 19.585938 C 20.15625 19.757812 20.429688 19.902344 20.714844 20.023438 C 21.003906 20.140625 21.296875 20.230469 21.601562 20.292969 C 21.90625 20.351562 22.214844 20.382812 22.523438 20.382812 C 22.835938 20.382812 23.144531 20.351562 23.449219 20.292969 C 23.753906 20.230469 24.046875 20.140625 24.335938 20.023438 C 24.621094 19.902344 24.894531 19.757812 25.152344 19.585938 C 25.410156 19.414062 25.648438 19.214844 25.867188 18.996094 C 26.089844 18.777344 26.285156 18.539062 26.457031 18.28125 C 26.628906 18.023438 26.773438 17.75 26.894531 17.464844 C 27.011719 17.175781 27.101562 16.878906 27.164062 16.574219 C 27.222656 16.269531 27.253906 15.964844 27.253906 15.652344 C 27.253906 15.34375 27.222656 15.035156 27.164062 14.730469 C 27.101562 14.425781 27.011719 14.128906 26.894531 13.84375 C 26.773438 13.558594 26.628906 13.285156 26.457031 13.027344 C 26.285156 12.769531 26.089844 12.527344 25.867188 12.308594 C 25.648438 12.089844 25.410156 11.894531 25.152344 11.722656 C 24.894531 11.550781 24.621094 11.402344 24.335938 11.285156 C 24.046875 11.164062 23.753906 11.074219 23.449219 11.015625 C 23.144531 10.953125 22.835938 10.925781 22.523438 10.925781 C 22.214844 10.925781 21.90625 10.957031 21.601562 11.015625 C 21.296875 11.078125 21.003906 11.167969 20.714844 11.285156 C 20.429688 11.40625 20.15625 11.550781 19.898438 11.722656 C 19.640625 11.894531 19.402344 12.089844 19.183594 12.3125 C 18.964844 12.53125 18.765625 12.769531 18.59375 13.027344 C 18.421875 13.285156 18.277344 13.558594 18.15625 13.84375 C 18.039062 14.132812 17.949219 14.425781 17.886719 14.730469 C 17.828125 15.035156 17.796875 15.34375 17.796875 15.652344 Z M 26.273438 15.652344 C 26.273438 16.152344 26.179688 16.628906 25.988281 17.089844 C 25.796875 17.546875 25.527344 17.953125 25.175781 18.304688 C 24.824219 18.65625 24.417969 18.925781 23.960938 19.117188 C 23.5 19.308594 23.023438 19.402344 22.523438 19.402344 C 22.027344 19.402344 21.550781 19.308594 21.089844 19.117188 C 20.632812 18.925781 20.226562 18.65625 19.875 18.304688 C 19.523438 17.953125 19.25 17.546875 19.0625 17.089844 C 18.871094 16.628906 18.777344 16.152344 18.777344 15.652344 C 18.777344 15.15625 18.871094 14.679688 19.0625 14.21875 C 19.25 13.757812 19.523438 13.355469 19.875 13.003906 C 20.226562 12.652344 20.632812 12.378906 21.089844 12.191406 C 21.550781 12 22.027344 11.90625 22.523438 11.90625 C 23.023438 11.90625 23.5 12 23.960938 12.191406 C 24.417969 12.382812 24.824219 12.652344 25.175781 13.003906 C 25.527344 13.355469 25.796875 13.761719 25.988281 14.21875 C 26.179688 14.679688 26.273438 15.15625 26.273438 15.652344 Z M 26.273438 15.652344 " fill-opacity="1" fill-rule="nonzero"/></g></svg>