<svg width="50" height="50" viewBox="0 0 50 50" fill="none" xmlns="http://www.w3.org/2000/svg">
<g clip-path="url(#clip0_433_185)">
<mask id="mask0_433_185" style="mask-type:luminance" maskUnits="userSpaceOnUse" x="0" y="0" width="50" height="50">
<path d="M0 0H49.3V50H0V0Z" fill="white"/>
</mask>
<g mask="url(#mask0_433_185)">
<path d="M29.9924 23.9182C29.8742 23.7667 29.6935 23.6786 29.5018 23.6786C29.3101 23.6786 29.1284 23.7667 29.0112 23.9182L24.6752 29.4854C24.5289 29.6734 24.5028 29.9276 24.6065 30.1411C24.7101 30.3547 24.9284 30.4906 25.1659 30.4906H27.1617V35.7875C27.1617 36.1307 27.4403 36.4099 27.7841 36.4099H31.2185C31.5622 36.4099 31.8409 36.1307 31.8409 35.7875V30.4906H33.8367C34.0742 30.4906 34.2914 30.3547 34.3961 30.1411C34.5007 29.9276 34.4737 29.6734 34.3273 29.4854L29.9924 23.9182ZM31.2185 29.2458C30.8752 29.2458 30.5961 29.525 30.5961 29.8682V35.1651H28.4065V29.8682C28.4065 29.525 28.1273 29.2458 27.7841 29.2458H26.4393L29.5018 25.3141L32.5638 29.2458H31.2185ZM13.2341 4.14948V0.622396C13.2341 0.279167 13.5132 0 13.8565 0C14.1997 0 14.4789 0.279167 14.4789 0.622396V4.14948C14.4789 4.49271 14.1997 4.77188 13.8565 4.77188C13.5132 4.77188 13.2341 4.49375 13.2341 4.14948ZM5.7372 2.96458C5.56481 2.66719 5.66793 2.28646 5.96533 2.11406C6.26324 1.94167 6.64397 2.04479 6.81585 2.34219L8.57939 5.3974C8.75179 5.69479 8.64918 6.07552 8.35126 6.24792C8.25387 6.30521 8.14606 6.33073 8.04137 6.33073C7.82626 6.33073 7.61689 6.21875 7.50179 6.01979L5.7372 2.96458ZM3.47054 10.5052L0.415848 8.74167C0.117931 8.56927 0.0163688 8.18854 0.187723 7.89115C0.359598 7.59323 0.739285 7.49167 1.03824 7.66302L4.09293 9.42656C4.39085 9.59844 4.49241 9.97917 4.32106 10.2771C4.20595 10.476 3.99658 10.588 3.78199 10.588C3.67626 10.5891 3.56793 10.5625 3.47054 10.5052ZM19.1346 5.3974L20.8981 2.34219C21.07 2.04479 21.4507 1.94271 21.7487 2.11406C22.0466 2.28646 22.1481 2.66719 21.9768 2.96458L20.2132 6.01979C20.0981 6.21875 19.8888 6.33073 19.6742 6.33073C19.5679 6.33073 19.4612 6.30417 19.3638 6.24792C19.0648 6.07552 18.9622 5.69479 19.1346 5.3974ZM23.3929 10.2781C23.2205 9.98021 23.3231 9.59948 23.6211 9.4276L26.6763 7.66406C26.9737 7.49167 27.3544 7.59427 27.5268 7.89219C27.6987 8.18958 27.5961 8.57031 27.2987 8.74271L24.2435 10.5063C24.1461 10.563 24.0382 10.5891 23.9336 10.5891C23.7174 10.5891 23.508 10.4771 23.3929 10.2781ZM48.4789 15.4719L46.9997 15.4266C46.8304 14.8578 46.6034 14.3094 46.3211 13.7875L47.3346 12.7094C47.6273 12.3984 47.62 11.9193 47.3179 11.6172L44.9726 9.27188C44.6721 8.96979 44.1914 8.9625 43.8804 9.25521L42.8028 10.2688C42.281 9.98646 41.731 9.75938 41.1617 9.58906L41.1169 8.11094C41.1044 7.68385 40.7591 7.34948 40.3325 7.34948H37.0164C36.5888 7.34948 36.2445 7.68385 36.232 8.11094L36.1872 9.58906C35.6179 9.75938 35.0679 9.98646 34.5455 10.2698L33.4695 9.25625C33.1586 8.96354 32.6794 8.97083 32.3763 9.27292L30.031 11.6182C29.7289 11.9203 29.7216 12.4005 30.0143 12.7115L31.0278 13.7875C30.7455 14.3104 30.5174 14.8599 30.3481 15.4307L28.87 15.475C28.4424 15.4875 28.1086 15.8328 28.1086 16.2594V17.3651C26.7174 17.6568 25.4221 18.2823 24.319 19.2031C23.7903 18.4255 23.1211 17.7479 22.3502 17.2063C22.5393 16.4604 22.6429 15.6245 22.6211 14.6661C22.6169 9.83802 18.6882 5.91198 13.8596 5.91198C9.03095 5.91198 5.10231 9.83802 5.09814 14.6661C5.01741 18.2208 6.64397 20.1193 8.08043 21.7948C9.01845 22.8891 9.82835 23.8359 10.0195 25.0922V25.1875C8.10022 25.4479 6.36689 26.3714 5.08981 27.8307C3.71533 29.4026 2.95908 31.4823 2.95908 33.6885C2.95908 38.4193 6.80804 42.2688 11.5393 42.2688H14.119V47.6948C14.119 48.9688 15.1554 50.0042 16.4283 50.0042H32.5455C33.819 50.0042 34.8544 48.9677 34.8544 47.6948V42.2688H37.4346C42.1648 42.2688 46.0143 38.4203 46.0143 33.6885C46.0143 30.3307 44.0351 27.3682 41.1575 25.9677L41.1648 25.7417C41.7341 25.5714 42.2841 25.3443 42.806 25.0625L43.8846 26.0755C44.1955 26.3672 44.6752 26.3599 44.9768 26.0583L47.3221 23.7125C47.6242 23.4109 47.6315 22.9318 47.3388 22.6203L46.3252 21.5427C46.6075 21.0208 46.8346 20.4719 47.0039 19.9026L48.483 19.8568C48.9096 19.8432 49.2435 19.499 49.2435 19.0724V16.2615C49.2393 15.8297 48.9054 15.4854 48.4789 15.4719ZM6.33981 14.6839C6.33981 14.6786 6.33981 14.6745 6.33981 14.6693C6.33981 10.525 9.71116 7.1526 13.8565 7.1526C18.0018 7.1526 21.3731 10.524 21.3731 14.6693C21.3731 14.6745 21.3731 14.6786 21.3731 14.6839C21.4455 17.7667 20.0455 19.4005 18.6903 20.9802C17.7778 22.0458 16.9117 23.0583 16.5648 24.4141H16.2382V22.8786C16.2382 22.5354 15.9591 22.2563 15.6158 22.2563H15.2247L15.8721 19.4339C16.1544 19.6026 16.4778 19.6948 16.8148 19.6948C17.307 19.6948 17.7695 19.5031 18.1169 19.1557C18.4643 18.8083 18.6565 18.3453 18.6565 17.8536C18.6565 17.362 18.4643 16.8995 18.1169 16.5521C17.7695 16.2042 17.307 16.0125 16.8148 16.0125C16.3231 16.0125 15.8606 16.2042 15.5122 16.5521C15.1773 16.887 14.9997 17.3203 14.9778 17.7615L13.9455 22.2573H13.7591L12.731 17.7865C12.7091 17.3276 12.5226 16.8995 12.1955 16.5734C11.4778 15.8557 10.3091 15.8557 9.59085 16.5734C9.24345 16.9214 9.05179 17.3839 9.05179 17.8755C9.05179 18.3672 9.24345 18.8297 9.59085 19.1776C9.9497 19.5365 10.4221 19.7156 10.8929 19.7156C11.2205 19.7156 11.5466 19.6276 11.8367 19.4542L12.481 22.2573H12.0929C11.7497 22.2573 11.4705 22.5365 11.4705 22.8797V24.4151H11.144C10.7987 23.0604 9.93147 22.0469 9.01845 20.9813C7.66793 19.4005 6.26845 17.7667 6.33981 14.6839ZM12.7185 23.501H14.9945V24.4141H12.7185V23.501ZM16.4528 25.6589V26.4203H11.2612V25.6589H16.4528ZM11.2612 27.6651H16.4528V28.4266H11.2612V27.6651ZM15.569 29.6714L15.2955 29.9438C15.0867 30.1526 14.8627 30.249 14.5919 30.249H13.1211C12.8502 30.249 12.6273 30.1526 12.4179 29.9438L12.144 29.6714H15.569ZM16.395 17.4318C16.508 17.3182 16.6575 17.2563 16.8169 17.2563C16.9768 17.2563 17.1263 17.3182 17.2393 17.4318C17.3523 17.5448 17.4148 17.6938 17.4148 17.8536C17.4148 18.0135 17.3523 18.163 17.2393 18.276C17.1263 18.3891 16.9768 18.451 16.8169 18.451C16.6575 18.451 16.508 18.3891 16.395 18.276C16.1627 18.0438 16.1627 17.6641 16.395 17.4318ZM11.4935 17.8745C11.4935 18.0344 11.4315 18.1839 11.3179 18.2969C11.2049 18.4099 11.056 18.4719 10.8961 18.4719C10.7362 18.4719 10.5867 18.4099 10.4737 18.2969C10.3606 18.1839 10.2987 18.0344 10.2987 17.8745C10.2987 17.7146 10.3606 17.5651 10.4737 17.4521C10.5898 17.3359 10.7435 17.2781 10.8961 17.2781C11.0487 17.2781 11.2018 17.3359 11.3179 17.4521C11.4315 17.5641 11.4935 17.7146 11.4935 17.8745ZM33.6054 47.6906C33.6054 48.2781 33.1284 48.7552 32.5414 48.7552H16.4242C15.8367 48.7552 15.3596 48.2781 15.3596 47.6906V37.0807C15.3596 36.4938 15.8367 36.0167 16.4242 36.0167H22.0804C22.3461 36.0167 22.5815 36.1307 22.8429 36.3859L25.6419 39.1214C25.758 39.2354 25.9148 39.299 26.0763 39.299H33.6054V47.6906ZM44.7653 33.6849C44.7653 37.7292 41.4747 41.0198 37.4304 41.0198H34.8502V38.6766C34.8502 38.3328 34.5711 38.0542 34.2278 38.0542H26.3304L23.7132 35.4958C23.2143 35.0083 22.6815 34.7719 22.0804 34.7719H16.4242C15.1502 34.7719 14.1148 35.8083 14.1148 37.0807V41.0188H11.5351C7.49033 41.0188 4.1997 37.7281 4.1997 33.6839C4.1997 29.9224 6.60856 26.9771 10.0153 26.4385V29.0479C10.0153 29.2198 10.0846 29.3755 10.1976 29.4885L11.5393 30.8245C11.9841 31.2677 12.5164 31.4927 13.1211 31.4927H14.5919C15.1966 31.4927 15.7289 31.2677 16.1742 30.8245L17.5143 29.4896C17.6273 29.3766 17.6976 29.2208 17.6976 29.049V25.088C17.8888 23.8318 18.6987 22.8849 19.6367 21.7906C20.4549 20.8349 21.3356 19.8073 21.9273 18.4396C22.6242 18.9906 23.206 19.6797 23.6315 20.4635C23.7247 20.6359 23.894 20.7542 24.0888 20.7833C24.283 20.8115 24.4789 20.7469 24.6179 20.6078C26.0362 19.1948 27.9179 18.4182 29.919 18.4182C33.9726 18.4182 37.3409 21.7135 37.4284 25.7646C37.4356 26.0839 37.6836 26.3464 38.0018 26.3714C41.7945 26.6682 44.7653 29.8797 44.7653 33.6849ZM36.1419 15.1328C36.8179 14.4563 37.7164 14.0849 38.6721 14.0849C39.6273 14.0849 40.5268 14.4573 41.2018 15.1328C42.5971 16.5281 42.5971 18.799 41.2018 20.1938C40.1096 21.2865 38.4242 21.55 37.056 20.8578C36.757 20.4385 36.42 20.0438 36.0455 19.6776C35.8367 19.4729 35.62 19.2813 35.395 19.0995C34.808 17.7542 35.0981 16.1766 36.1419 15.1328ZM47.9945 18.6224L46.6221 18.6651C46.2695 18.6766 45.9726 18.9141 45.8856 19.2552C45.7112 19.9406 45.4393 20.5974 45.0784 21.2042C44.8981 21.5083 44.9393 21.8849 45.1815 22.1432L46.1211 23.1432L44.4065 24.8578L43.4065 23.9182C43.1492 23.6766 42.7716 23.6349 42.4685 23.8151C41.8596 24.1766 41.2028 24.4479 40.5174 24.6234C40.1742 24.7104 39.9362 25.0073 39.9263 25.3609L39.9231 25.4792C39.5091 25.3526 39.0825 25.2542 38.644 25.1917C38.5638 24.2281 38.3252 23.2979 37.9455 22.4276C38.1846 22.4625 38.4242 22.4833 38.6638 22.4833C39.9169 22.4833 41.1586 21.999 42.0836 21.0734C43.9643 19.1927 43.9643 16.1328 42.0836 14.2521C41.1731 13.3411 39.9612 12.8391 38.6731 12.8391C37.3846 12.8391 36.1731 13.3411 35.2622 14.2521C34.2268 15.2875 33.7393 16.7125 33.87 18.1151C32.6586 17.501 31.3127 17.1745 29.9179 17.1745C29.7268 17.1745 29.5382 17.1828 29.3502 17.1938V16.7031L30.7216 16.662C31.0752 16.6516 31.3711 16.4141 31.458 16.0714C31.6336 15.3839 31.9054 14.726 32.2664 14.1182C32.4466 13.8141 32.4054 13.438 32.1627 13.1797L31.2226 12.1818L32.9362 10.4677L33.9346 11.4078C34.1914 11.6505 34.569 11.6917 34.8731 11.5115C35.483 11.1495 36.1398 10.8776 36.8263 10.7021C37.169 10.6151 37.4065 10.3182 37.4179 9.96458L37.4591 8.59427H39.8836L39.9252 9.96458C39.9351 10.3193 40.1731 10.6151 40.5164 10.7021C41.2028 10.8776 41.8596 11.1495 42.4685 11.5104C42.7726 11.6906 43.1492 11.6495 43.4065 11.4078L44.4065 10.4677L46.1211 12.1828L45.1815 13.1839C44.9393 13.4406 44.8992 13.8182 45.0784 14.1214C45.4393 14.7292 45.7112 15.3859 45.8856 16.0714C45.9726 16.4141 46.2685 16.6516 46.6221 16.662L47.9945 16.7042V18.6224Z" fill="#004AAD"/>
</g>
</g>
<defs>
<clipPath id="clip0_433_185">
<rect width="50" height="50" fill="white"/>
</clipPath>
</defs>
</svg>
