<svg width="50" height="50" viewBox="0 0 50 50" fill="none" xmlns="http://www.w3.org/2000/svg">
<path fill-rule="evenodd" clip-rule="evenodd" d="M14.9082 16.4019H45.2207C46.692 16.4019 48.0523 17.5216 47.508 19.4808L43.5731 33.7013C43.2129 34.9808 42.4611 35.3732 40.9976 35.3732H20.7788C19.3153 35.3732 18.403 34.269 18.1156 32.9652L14.2042 17.2977C14.1486 17.0737 14.1964 16.8576 14.3405 16.6814C14.4759 16.4973 14.6764 16.4019 14.9082 16.4019ZM31.8639 20.4166C32.7754 20.4166 33.5271 21.1683 33.5271 22.0798V29.3741C33.5271 30.2864 32.7754 31.0303 31.8639 31.0303C30.9525 31.0303 30.2085 30.2864 30.2085 29.3741V22.0798C30.2085 21.1683 30.9525 20.4166 31.8639 20.4166ZM23.3057 20.4965C24.2016 20.3446 25.0653 20.9522 25.2172 21.848L26.4655 29.0381C26.6174 29.934 26.0097 30.7977 25.1139 30.9505C24.2181 31.1102 23.3544 30.5025 23.2025 29.6067L21.9542 22.4157C21.8023 21.5121 22.4021 20.6562 23.3057 20.4965ZM39.6217 20.473C40.5254 20.6006 41.1573 21.44 41.0297 22.3446L40.0219 29.5668C39.8943 30.4704 39.054 31.1024 38.1504 30.9817C37.2467 30.8541 36.6148 30.0147 36.7424 29.1102L37.7502 21.8802C37.8787 20.9765 38.7181 20.3446 39.6217 20.473Z" fill="#004AAD"/>
<path d="M3.40694 9.81153L8.34183 10.6032C9.22204 10.7473 9.86961 11.3627 10.1014 12.2186L16.1005 34.381C16.4998 36.0129 18.2038 37.5728 20.1309 37.5728H45.6613C48.1483 37.5728 48.1804 41.1796 45.6613 41.1796H20.1309C16.42 41.1796 13.4208 38.5641 12.6049 35.2369L6.83055 13.9938L2.84791 13.3541C0.0241244 12.9461 0.58402 9.1709 3.40694 9.81153Z" fill="#00305C"/>
<mask id="mask0_437_596" style="mask-type:luminance" maskUnits="userSpaceOnUse" x="19" y="42" width="9" height="8">
<path d="M19.5693 42.4443H27.3471V49.986H19.5693V42.4443Z" fill="white"/>
</mask>
<g mask="url(#mask0_437_596)">
<path fill-rule="evenodd" clip-rule="evenodd" d="M23.4823 42.4912C25.5457 42.4912 27.2254 44.1709 27.2254 46.2421C27.2254 48.3054 25.5457 49.9851 23.4823 49.9851C21.4111 49.9851 19.7314 48.3054 19.7314 46.2421C19.7314 44.1709 21.4111 42.4912 23.4823 42.4912ZM23.4823 44.9548C24.1863 44.9548 24.7618 45.5303 24.7618 46.2421C24.7618 46.9461 24.1863 47.5216 23.4823 47.5216C22.7705 47.5216 22.195 46.9461 22.195 46.2421C22.195 45.5303 22.7705 44.9548 23.4823 44.9548Z" fill="#004AAD"/>
</g>
<mask id="mask1_437_596" style="mask-type:luminance" maskUnits="userSpaceOnUse" x="37" y="42" width="8" height="8">
<path d="M37.124 42.4443H44.9018V49.986H37.124V42.4443Z" fill="white"/>
</mask>
<g mask="url(#mask1_437_596)">
<path fill-rule="evenodd" clip-rule="evenodd" d="M41.0048 42.4912C43.0768 42.4912 44.7478 44.1709 44.7478 46.2421C44.7478 48.3054 43.0768 49.9851 41.0048 49.9851C38.9336 49.9851 37.2539 48.3054 37.2539 46.2421C37.2539 44.1709 38.9336 42.4912 41.0048 42.4912ZM41.0048 44.9548C41.7088 44.9548 42.2852 45.5303 42.2852 46.2421C42.2852 46.9461 41.7088 47.5216 41.0048 47.5216C40.293 47.5216 39.7253 46.9461 39.7253 46.2421C39.7253 45.5303 40.293 44.9548 41.0048 44.9548Z" fill="#004AAD"/>
</g>
<mask id="mask2_437_596" style="mask-type:luminance" maskUnits="userSpaceOnUse" x="26" y="0" width="23" height="15">
<path d="M26.0137 0.0129395H48.321V14.8888H26.0137V0.0129395Z" fill="white"/>
</mask>
<g mask="url(#mask2_437_596)">
<path d="M26.2741 13.4739L30.8809 7.46002L31.3523 6.82807C31.6326 6.46783 32.1283 6.37234 32.5207 6.5963L33.2082 6.99561L36.775 9.05116C37.1752 9.28294 37.6787 9.17096 37.9512 8.80377L40.9825 4.63623C40.9981 4.6128 41.0146 4.5963 41.0302 4.57287L39.926 2.62929C39.7264 2.27686 39.4148 2.02946 39.4703 1.62148C39.5189 1.21349 39.7906 0.900991 40.1821 0.773387L46.0528 -1.1537C46.3488 -1.25786 46.6604 -1.21012 46.9243 -1.0339C47.1969 -0.86637 47.3566 -0.602481 47.3965 -0.282169L48.2446 6.0121C48.3002 6.42009 48.1083 6.79596 47.7568 7.0121C47.413 7.22825 46.9964 7.21957 46.6526 6.99561L44.6457 5.69266C44.6135 5.77252 44.5736 5.85238 44.525 5.91662L39.4382 12.8741L38.9668 13.5303C38.6951 13.9062 38.183 14.0182 37.7828 13.7864L37.0788 13.3784L33.3445 11.2352C32.9521 11.0026 32.6326 11.0989 32.3922 11.4105L30.2811 14.1701C29.953 14.5937 29.4807 14.8263 28.9451 14.8263H26.9373C26.6101 14.8263 26.3297 14.6501 26.1856 14.3541C26.0415 14.0659 26.0736 13.73 26.2741 13.4739Z" fill="#00305C"/>
</g>
</svg>
