<svg width="50" height="50" viewBox="0 0 50 50" fill="none" xmlns="http://www.w3.org/2000/svg">
<g clip-path="url(#clip0_434_410)">
<mask id="mask0_434_410" style="mask-type:luminance" maskUnits="userSpaceOnUse" x="41" y="13" width="9" height="37">
<path d="M41.7275 13.749H49.5052V49.9999H41.7275V13.749Z" fill="white"/>
</mask>
<g mask="url(#mask0_434_410)">
<path d="M42.2744 13.7976H49.0364V49.9954H42.2744V13.7976Z" fill="#5096E6"/>
</g>
<mask id="mask1_434_410" style="mask-type:luminance" maskUnits="userSpaceOnUse" x="31" y="19" width="9" height="31">
<path d="M31.7275 19.3989H39.5052V50.0001H31.7275V19.3989Z" fill="white"/>
</mask>
<g mask="url(#mask1_434_410)">
<path d="M32.127 19.8315H38.8933V49.9959H32.127V19.8315Z" fill="#7DBD59"/>
</g>
<mask id="mask2_434_410" style="mask-type:luminance" maskUnits="userSpaceOnUse" x="21" y="23" width="9" height="27">
<path d="M21.7275 23.9187H29.5052V50H21.7275V23.9187Z" fill="white"/>
</mask>
<g mask="url(#mask2_434_410)">
<path d="M21.9834 25H28.7456V49.9955H21.9834V25Z" fill="#F2B755"/>
</g>
<mask id="mask3_434_410" style="mask-type:luminance" maskUnits="userSpaceOnUse" x="11" y="28" width="9" height="22">
<path d="M11.7275 28.4382H19.5052V49.9999H11.7275V28.4382Z" fill="white"/>
</mask>
<g mask="url(#mask3_434_410)">
<path d="M11.8359 29.3076H18.6023V49.9953H11.8359V29.3076Z" fill="#E06963"/>
</g>
<mask id="mask4_434_410" style="mask-type:luminance" maskUnits="userSpaceOnUse" x="3" y="3" width="47" height="23">
<path d="M3.9502 3.57959H50V25.0485H3.9502V3.57959Z" fill="white"/>
</mask>
<g mask="url(#mask4_434_410)">
<path d="M5.5302 24.1392C5.24375 24.1392 4.96599 23.9935 4.80539 23.7242C4.56234 23.3182 4.6882 22.7885 5.0875 22.5413L12.9477 17.6375C13.334 17.3992 13.8374 17.5095 14.0892 17.8935L16.2766 21.1952L27.9735 12.5528C28.1602 12.416 28.3902 12.3586 28.6158 12.4027C28.8417 12.4425 29.0412 12.5749 29.1715 12.7691L31.3763 16.1016L48.5723 4.45783C48.9585 4.19742 49.4837 4.30335 49.7442 4.7006C50.0002 5.09785 49.896 5.63192 49.5055 5.89675L31.615 18.0084C31.2287 18.2687 30.7035 18.1672 30.4432 17.7744L28.26 14.4728L16.5587 23.1107C16.3765 23.2475 16.1421 23.305 15.9164 23.2652C15.6907 23.221 15.491 23.0887 15.3652 22.8989L13.1386 19.5399L5.96857 24.0112C5.82969 24.0993 5.67779 24.1392 5.5302 24.1392Z" fill="#36659C"/>
</g>
<mask id="mask5_434_410" style="mask-type:luminance" maskUnits="userSpaceOnUse" x="43" y="2" width="7" height="9">
<path d="M43.9492 2.44971H49.9996V10.3593H43.9492V2.44971Z" fill="white"/>
</mask>
<g mask="url(#mask5_434_410)">
<path d="M48.2327 10.2711C48.1805 10.2711 48.1242 10.2667 48.072 10.2535C47.612 10.1652 47.3125 9.71056 47.4037 9.2427L48.046 5.8617L44.7257 5.20403C44.2657 5.11135 43.9662 4.66113 44.0574 4.19326C44.1442 3.7254 44.5912 3.42085 45.0469 3.50911L49.1962 4.3301C49.6562 4.42278 49.9557 4.873 49.8689 5.34086L49.0617 9.57373C48.9835 9.98423 48.6277 10.2711 48.2327 10.2711Z" fill="#36659C"/>
</g>
<mask id="mask6_434_410" style="mask-type:luminance" maskUnits="userSpaceOnUse" x="7" y="0" width="16" height="17">
<path d="M7.2832 0H22.8387V16.009H7.2832V0Z" fill="white"/>
</mask>
<g mask="url(#mask6_434_410)">
<path d="M22.8295 7.76392C22.8295 8.27152 22.7775 8.7791 22.682 9.27787C22.5822 9.77664 22.439 10.2622 22.248 10.73C22.057 11.2023 21.8227 11.6481 21.5448 12.0718C21.2672 12.4956 20.9503 12.8884 20.5987 13.2459C20.2472 13.6079 19.8608 13.9301 19.4442 14.2126C19.0318 14.495 18.5935 14.7334 18.1292 14.9276C17.669 15.1262 17.1917 15.2719 16.7012 15.369C16.2107 15.4705 15.7159 15.519 15.2168 15.519C14.7177 15.519 14.2229 15.4705 13.7325 15.369C13.242 15.2719 12.7689 15.1262 12.3045 14.9276C11.8445 14.7334 11.4061 14.495 10.9894 14.2126C10.5771 13.9301 10.1908 13.6079 9.83928 13.2459C9.48338 12.8884 9.17088 12.4956 8.8931 12.0718C8.61533 11.6481 8.38096 11.2023 8.18998 10.73C7.99901 10.2622 7.85145 9.77664 7.75596 9.27787C7.65615 8.7791 7.6084 8.27152 7.6084 7.76392C7.6084 7.25192 7.65615 6.74874 7.75596 6.24999C7.85145 5.75122 7.99901 5.26569 8.18998 4.79342C8.38096 4.32554 8.61533 3.87534 8.8931 3.4516C9.17088 3.03229 9.48338 2.63945 9.83928 2.27752C10.1908 1.92 10.5771 1.59779 10.9894 1.3153C11.4061 1.03282 11.8445 0.790058 12.3045 0.595849C12.7689 0.401639 13.242 0.255984 13.7325 0.154465C14.2229 0.05736 14.7177 0.00439453 15.2168 0.00439453C15.7159 0.00439453 16.2107 0.05736 16.7012 0.154465C17.1917 0.255984 17.669 0.401639 18.1292 0.595849C18.5935 0.790058 19.0318 1.03282 19.4442 1.3153C19.8608 1.59779 20.2472 1.92 20.5987 2.27752C20.9503 2.63945 21.2672 3.03229 21.5448 3.4516C21.8227 3.87534 22.057 4.32554 22.248 4.79342C22.439 5.26569 22.5822 5.75122 22.682 6.24999C22.7775 6.74874 22.8295 7.25192 22.8295 7.76392Z" fill="#7DBD59"/>
</g>
<path d="M11.8356 12.0718C11.6186 12.0718 11.4016 11.9879 11.2367 11.8202C10.9068 11.4847 10.9068 10.9374 11.2367 10.602L18.003 3.70754C18.333 3.36767 18.8668 3.36767 19.1967 3.70754C19.5265 4.04299 19.5265 4.5903 19.1967 4.92575L12.4346 11.8202C12.2696 11.9879 12.0526 12.0718 11.8356 12.0718Z" fill="#42642F"/>
<path d="M12.6831 7.76384C11.2856 7.76384 10.1484 6.60299 10.1484 5.17732C10.1484 3.75165 11.2856 2.59082 12.6831 2.59082C14.0807 2.59082 15.2178 3.75165 15.2178 5.17732C15.2178 6.60299 14.0807 7.76384 12.6831 7.76384ZM12.6831 4.31662C12.2144 4.31662 11.8368 4.70064 11.8368 5.17732C11.8368 5.65402 12.2144 6.03802 12.6831 6.03802C13.1475 6.03802 13.5295 5.65402 13.5295 5.17732C13.5295 4.70064 13.1475 4.31662 12.6831 4.31662Z" fill="#42642F"/>
<path d="M17.7558 12.9325C16.3539 12.9325 15.2168 11.7761 15.2168 10.3504C15.2168 8.92475 16.3539 7.76392 17.7558 7.76392C19.1533 7.76392 20.2905 8.92475 20.2905 10.3504C20.2905 11.7761 19.1533 12.9325 17.7558 12.9325ZM17.7558 9.48532C17.287 9.48532 16.9095 9.87373 16.9095 10.3504C16.9095 10.8227 17.287 11.2111 17.7558 11.2111C18.2202 11.2111 18.6022 10.8227 18.6022 10.3504C18.6022 9.87373 18.2202 9.48532 17.7558 9.48532Z" fill="#42642F"/>
<mask id="mask7_434_410" style="mask-type:luminance" maskUnits="userSpaceOnUse" x="0" y="45" width="17" height="5">
<path d="M0 45.3875H16.1717V49.9999H0V45.3875Z" fill="white"/>
</mask>
<g mask="url(#mask7_434_410)">
<path d="M15.2169 46.2216V49.4569C15.2169 49.7528 14.9825 49.9954 14.6917 49.9954H0.529508C0.234372 49.9954 0 49.7528 0 49.4569V46.2216C0 45.9259 0.234372 45.6831 0.529508 45.6831H14.6917C14.9825 45.6831 15.2169 45.9259 15.2169 46.2216Z" fill="#D19E4A"/>
</g>
<path d="M3.38073 45.6831V46.5483C3.38073 47.0249 3.00315 47.4089 2.5344 47.4089C2.07 47.4089 1.69238 47.0249 1.69238 46.5483V45.6831H3.38073Z" fill="#957135"/>
<path d="M5.92024 45.6831V46.5483C5.92024 47.0249 5.53829 47.4089 5.07389 47.4089C4.60514 47.4089 4.22754 47.0249 4.22754 46.5483V45.6831H5.92024Z" fill="#957135"/>
<path d="M8.45538 45.6831V46.5483C8.45538 47.0249 8.07778 47.4089 7.60903 47.4089C7.1403 47.4089 6.7627 47.0249 6.7627 46.5483V45.6831H8.45538Z" fill="#957135"/>
<path d="M10.9901 45.6831V46.5483C10.9901 47.0249 10.6125 47.4089 10.1481 47.4089C9.67936 47.4089 9.30176 47.0249 9.30176 46.5483V45.6831H10.9901Z" fill="#957135"/>
<path d="M13.5286 45.6831V46.5483C13.5286 47.0249 13.151 47.4089 12.6823 47.4089C12.2135 47.4089 11.8359 47.0249 11.8359 46.5483V45.6831H13.5286Z" fill="#957135"/>
<path d="M16.0635 41.9137V45.1447C16.0635 45.4449 15.8292 45.6832 15.534 45.6832H1.37185C1.08105 45.6832 0.84668 45.4449 0.84668 45.1447V41.9137C0.84668 41.6181 1.08105 41.3752 1.37185 41.3752H15.534C15.8292 41.3752 16.0635 41.6181 16.0635 41.9137Z" fill="#F2B755"/>
<path d="M4.22784 41.3752V42.2359C4.22784 42.7126 3.85024 43.1011 3.38149 43.1011C2.91276 43.1011 2.53516 42.7126 2.53516 42.2359V41.3752H4.22784Z" fill="#957135"/>
<path d="M6.76257 41.3752V42.2359C6.76257 42.7126 6.38497 43.1011 5.92057 43.1011C5.45182 43.1011 5.07422 42.7126 5.07422 42.2359V41.3752H6.76257Z" fill="#957135"/>
<path d="M9.3011 41.3752V42.2359C9.3011 42.7126 8.9235 43.1011 8.45475 43.1011C7.986 43.1011 7.6084 42.7126 7.6084 42.2359V41.3752H9.3011Z" fill="#957135"/>
<path d="M11.8368 41.3752V42.2359C11.8368 42.7126 11.4592 43.1011 10.9904 43.1011C10.526 43.1011 10.1484 42.7126 10.1484 42.2359V41.3752H11.8368Z" fill="#957135"/>
<path d="M14.3753 41.3752V42.2359C14.3753 42.7126 13.9934 43.1011 13.529 43.1011C13.0602 43.1011 12.6826 42.7126 12.6826 42.2359V41.3752H14.3753Z" fill="#957135"/>
<mask id="mask8_434_410" style="mask-type:luminance" maskUnits="userSpaceOnUse" x="0" y="36" width="17" height="6">
<path d="M0 36.3479H16.1717V41.9976H0V36.3479Z" fill="white"/>
</mask>
<g mask="url(#mask8_434_410)">
<path d="M15.2169 37.6059V40.8367C15.2169 41.1324 14.9825 41.3752 14.6917 41.3752H0.529508C0.234372 41.3752 0 41.1324 0 40.8367V37.6059C0 37.3057 0.234372 37.0674 0.529508 37.0674H14.6917C14.9825 37.0674 15.2169 37.3057 15.2169 37.6059Z" fill="#D19E4A"/>
</g>
<path d="M3.38073 37.0674V37.928C3.38073 38.4047 3.00315 38.7887 2.5344 38.7887C2.07 38.7887 1.69238 38.4047 1.69238 37.928V37.0674H3.38073Z" fill="#957135"/>
<path d="M5.92024 37.0674V37.928C5.92024 38.4047 5.53829 38.7887 5.07389 38.7887C4.60514 38.7887 4.22754 38.4047 4.22754 37.928V37.0674H5.92024Z" fill="#957135"/>
<path d="M8.45538 37.0674V37.928C8.45538 38.4047 8.07778 38.7887 7.60903 38.7887C7.1403 38.7887 6.7627 38.4047 6.7627 37.928V37.0674H8.45538Z" fill="#957135"/>
<path d="M10.9901 37.0674V37.928C10.9901 38.4047 10.6125 38.7887 10.1481 38.7887C9.67936 38.7887 9.30176 38.4047 9.30176 37.928V37.0674H10.9901Z" fill="#957135"/>
<path d="M13.5286 37.0674V37.928C13.5286 38.4047 13.151 38.7887 12.6823 38.7887C12.2135 38.7887 11.8359 38.4047 11.8359 37.928V37.0674H13.5286Z" fill="#957135"/>
<mask id="mask9_434_410" style="mask-type:luminance" maskUnits="userSpaceOnUse" x="0" y="20" width="17" height="18">
<path d="M0 20.5288H16.1717V37.478H0V20.5288Z" fill="white"/>
</mask>
<g mask="url(#mask9_434_410)">
<path d="M15.2169 29.3077C15.2169 29.8199 15.1691 30.3231 15.0736 30.8217C14.9738 31.3206 14.8306 31.8061 14.6396 32.2784C14.4486 32.7506 14.2142 33.1964 13.9365 33.6201C13.6587 34.0439 13.3419 34.4322 12.9903 34.7942C12.6344 35.1562 12.2525 35.4739 11.8358 35.7609C11.4192 36.0434 10.9808 36.2817 10.5207 36.4759C10.0606 36.6701 9.58323 36.8157 9.09278 36.9172C8.60233 37.0187 8.10755 37.0674 7.60842 37.0674C7.1093 37.0674 6.61452 37.0187 6.12407 36.9172C5.63362 36.8157 5.16053 36.6701 4.69613 36.4759C4.23607 36.2817 3.7977 36.0434 3.38103 35.7609C2.96438 35.4739 2.58243 35.1562 2.22653 34.7942C1.87498 34.4322 1.55814 34.0439 1.28037 33.6201C1.00259 33.1964 0.768222 32.7506 0.57725 32.2784C0.38628 31.8061 0.243052 31.3206 0.147568 30.8217C0.0477423 30.3231 0 29.8199 0 29.3077C0 28.8002 0.0477423 28.2971 0.147568 27.7982C0.243052 27.2951 0.38628 26.8096 0.57725 26.3417C0.768222 25.8694 1.00259 25.4236 1.28037 24.9999C1.55814 24.5762 1.87498 24.1834 2.22653 23.8259C2.58243 23.4639 2.96438 23.1417 3.38103 22.8592C3.7977 22.5767 4.23607 22.3384 4.69613 22.1442C5.16053 21.9499 5.63362 21.7999 6.12407 21.7027C6.61452 21.6012 7.1093 21.5527 7.60842 21.5527C8.10755 21.5527 8.60233 21.6012 9.09278 21.7027C9.58323 21.7999 10.0606 21.9499 10.5207 22.1442C10.9808 22.3384 11.4192 22.5767 11.8358 22.8592C12.2525 23.1417 12.6344 23.4639 12.9903 23.8259C13.3419 24.1834 13.6587 24.5762 13.9365 24.9999C14.2142 25.4236 14.4486 25.8694 14.6396 26.3417C14.8306 26.8096 14.9738 27.2951 15.0736 27.7982C15.1691 28.2971 15.2169 28.8002 15.2169 29.3077Z" fill="#F2B755"/>
</g>
<path d="M9.3019 34.4811H5.92087C4.51897 34.4811 3.38184 33.3201 3.38184 31.8944C3.38184 31.4177 3.75944 31.0337 4.22819 31.0337C4.69259 31.0337 5.07452 31.4177 5.07452 31.8944C5.07452 32.3712 5.45212 32.7552 5.92087 32.7552H9.3019C9.76632 32.7552 10.1483 32.3712 10.1483 31.8944V31.0337C10.1483 30.5571 9.76632 30.1731 9.3019 30.1731H5.92087C4.51897 30.1731 3.38184 29.0122 3.38184 27.5866V26.7259C3.38184 25.3002 4.51897 24.1394 5.92087 24.1394H9.3019C10.6995 24.1394 11.8366 25.3002 11.8366 26.7259C11.8366 27.1982 11.459 27.5866 10.9903 27.5866C10.5259 27.5866 10.1483 27.1982 10.1483 26.7259C10.1483 26.2492 9.76632 25.8607 9.3019 25.8607H5.92087C5.45212 25.8607 5.07452 26.2492 5.07452 26.7259V27.5866C5.07452 28.0632 5.45212 28.4472 5.92087 28.4472H9.3019C10.6995 28.4472 11.8366 29.6081 11.8366 31.0337V31.8944C11.8366 33.3201 10.6995 34.4811 9.3019 34.4811Z" fill="#957135"/>
<path d="M7.60903 35.3416C7.14463 35.3416 6.7627 34.9576 6.7627 34.4809V24.1392C6.7627 23.6626 7.14463 23.2786 7.60903 23.2786C8.07778 23.2786 8.45538 23.6626 8.45538 24.1392V34.4809C8.45538 34.9576 8.07778 35.3416 7.60903 35.3416Z" fill="#957135"/>
</g>
<defs>
<clipPath id="clip0_434_410">
<rect width="50" height="50" fill="white"/>
</clipPath>
</defs>
</svg>
