<svg width="50" height="50" viewBox="0 0 50 50" fill="none" xmlns="http://www.w3.org/2000/svg">
<mask id="mask0_434_482" style="mask-type:luminance" maskUnits="userSpaceOnUse" x="0" y="1" width="49" height="48">
<path d="M0.924805 1.66675H48.9022V48.3082H0.924805V1.66675Z" fill="white"/>
</mask>
<g mask="url(#mask0_434_482)">
<path d="M48.3267 17.4845C47.581 16.1929 45.9248 15.7493 44.6349 16.4941C44.0029 16.8578 43.5741 17.4403 43.3883 18.0913H41.7746L39.5567 15.0679C39.4161 14.876 39.193 14.7632 38.956 14.7632H35.9777C36.0411 14.2389 36.0767 13.6642 36.081 13.0323H41.4413C41.502 13.2423 41.5889 13.4472 41.7008 13.6417C42.0619 14.2675 42.6444 14.7146 43.3423 14.9021C43.5758 14.9646 43.8119 14.995 44.0472 14.995C44.5159 14.995 44.9777 14.8726 45.3935 14.6321C46.0194 14.2719 46.4665 13.6894 46.654 12.9915C46.8423 12.2927 46.746 11.5627 46.384 10.9368C46.384 10.9368 46.384 10.9368 46.384 10.9359C45.6383 9.64513 43.9812 9.20068 42.6922 9.94547C42.0784 10.2988 41.6375 10.8656 41.443 11.5436H35.9977C35.9248 10.9516 35.8059 10.3743 35.6444 9.8144H38.956C39.1939 9.8144 39.417 9.70155 39.5567 9.51058L41.7755 6.48367H43.384C43.4448 6.69461 43.5316 6.8986 43.6435 7.09391C44.1444 7.96023 45.055 8.44547 45.9899 8.44547C46.4482 8.44547 46.9118 8.32916 47.3362 8.08436C47.9621 7.72412 48.41 7.14079 48.5967 6.44287C48.785 5.74409 48.6887 5.01492 48.3267 4.38818C47.581 3.09652 45.9248 2.65294 44.6349 3.39773C44.022 3.75016 43.5802 4.317 43.3857 4.99495H41.3979C41.1609 4.99495 40.9378 5.10867 40.7981 5.29964L38.5793 8.32655H35.0984C33.3389 4.41943 29.4092 1.69287 24.8545 1.69287C20.2711 1.69287 16.3206 4.45416 14.5776 8.39947H11.1297L8.9109 5.37343C8.77028 5.18159 8.54806 5.06874 8.31021 5.06874H6.32323C6.26333 4.85954 6.17653 4.65554 6.06542 4.46197H6.06455C5.31889 3.1703 3.66264 2.72673 2.37271 3.47152C1.74684 3.83176 1.29892 4.41423 1.11142 5.11214C0.923924 5.81093 1.01941 6.54096 1.38139 7.16683C1.88226 8.03402 2.79285 8.51926 3.72861 8.51926C4.18608 8.51926 4.64962 8.40294 5.0741 8.15815C5.68781 7.80485 6.12965 7.23714 6.32323 6.55745H7.93347L10.1514 9.58436C10.292 9.77534 10.5151 9.88818 10.752 9.88818H14.0428C13.8857 10.4481 13.7711 11.0262 13.7026 11.6173H8.26594C8.20604 11.4073 8.11924 11.2042 8.00726 11.0097C7.26247 9.71978 5.60448 9.27534 4.31195 10.0201C3.68608 10.3812 3.23816 10.9654 3.05153 11.6642C2.8649 12.363 2.96212 13.0922 3.3241 13.7154C3.82497 14.5826 4.73556 15.067 5.67045 15.067C6.12879 15.067 6.5932 14.9507 7.01767 14.7059C7.62965 14.3526 8.07063 13.7849 8.2642 13.1061H13.6288C13.6349 13.738 13.6731 14.3135 13.7399 14.837H10.752C10.5151 14.837 10.292 14.9498 10.1522 15.1408L7.93347 18.1651H6.32323C6.26333 17.9559 6.17653 17.7519 6.06542 17.5583H6.06455C5.31889 16.2667 3.66264 15.8231 2.37271 16.5679C1.74597 16.929 1.29806 17.5123 1.11056 18.2102C0.923925 18.9073 1.02028 19.6364 1.38139 20.2641C1.7425 20.8891 2.32583 21.337 3.02288 21.5236C3.25639 21.5861 3.49337 21.6173 3.72861 21.6173C4.19649 21.6173 4.6583 21.495 5.0741 21.2545C5.68781 20.9012 6.12965 20.3335 6.32323 19.6538H8.31021C8.54719 19.6538 8.77028 19.541 8.9109 19.35L11.1288 16.3257H14.0333C14.6401 18.5097 15.8267 19.5792 16.9126 20.5548C16.9283 20.5696 16.9439 20.5835 16.9595 20.5974C16.4621 20.962 15.9899 21.3595 15.5463 21.7892L12.66 20.1234C12.3041 19.9177 11.8493 20.0401 11.6435 20.396L8.73469 25.4342C8.52896 25.7901 8.65136 26.2458 9.00726 26.4507L11.8901 28.1165C11.6236 29.179 11.4882 30.2745 11.4882 31.3812C11.4882 32.4889 11.6236 33.5852 11.8901 34.6477L9.00726 36.3135C8.65136 36.5193 8.52896 36.9741 8.73469 37.33L11.6435 42.3682C11.8493 42.725 12.3041 42.8465 12.66 42.6408L15.5455 40.975C17.1409 42.5227 19.0767 43.6417 21.2008 44.2432V47.5705C21.2008 47.9819 21.5342 48.3153 21.9456 48.3153H27.7625C28.1739 48.3153 28.5073 47.9819 28.5073 47.5705V44.2432C30.6323 43.6417 32.568 42.5227 34.1626 40.975L37.0481 42.6408C37.4048 42.8465 37.8597 42.725 38.0645 42.3682L40.9734 37.33C41.1791 36.9741 41.0567 36.5193 40.7008 36.3135L37.818 34.6477C38.0854 33.5852 38.2199 32.4889 38.2199 31.3812C38.2199 30.2745 38.0854 29.179 37.818 28.1165L40.7008 26.4507C41.0567 26.2458 41.1791 25.7901 40.9734 25.4342L38.0645 20.396C37.8597 20.0401 37.4048 19.9177 37.0481 20.1234L34.1618 21.7892C33.7191 21.3595 33.246 20.962 32.7486 20.5974C32.7642 20.5835 32.7798 20.5696 32.7955 20.5548C33.8935 19.5679 35.0958 18.4863 35.6956 16.2519H38.5793L40.7981 19.2762C40.9378 19.4672 41.1609 19.58 41.3979 19.58H43.3857C43.4456 19.7892 43.5307 19.9941 43.6435 20.1903C44.1444 21.0566 45.055 21.5418 45.9899 21.5418C46.4482 21.5418 46.9126 21.4255 47.3371 21.1798C48.6279 20.4333 49.0724 18.7753 48.3267 17.4845ZM44.8111 5.42377C44.8953 5.11041 45.0967 4.84912 45.3779 4.68679C45.5689 4.57655 45.7772 4.52447 45.983 4.52447C46.4031 4.52447 46.8128 4.74235 47.0376 5.13211C47.2008 5.41422 47.2442 5.74235 47.1592 6.05745C47.075 6.37082 46.8744 6.63211 46.5923 6.79443C46.0125 7.1295 45.2677 6.92985 44.9326 6.34912C44.7703 6.067 44.7269 5.73888 44.8111 5.42377ZM4.89702 6.13124C4.81281 6.44461 4.61229 6.70589 4.33017 6.86822C3.75031 7.20329 3.00552 7.00363 2.67045 6.42291C2.50813 6.14079 2.46472 5.81266 2.54892 5.49843C2.63313 5.18419 2.83451 4.92291 3.11577 4.76058C3.30674 4.65034 3.51507 4.59825 3.7208 4.59825C4.14094 4.59825 4.55066 4.81613 4.77549 5.20589C4.93868 5.48801 4.98208 5.81613 4.89702 6.13124ZM4.89702 19.2276C4.81281 19.541 4.61229 19.8031 4.33017 19.9654C4.04892 20.1269 3.72254 20.1703 3.40917 20.0861C3.09493 20.0019 2.83278 19.8005 2.67132 19.5201C2.50813 19.2371 2.46472 18.909 2.54892 18.5948C2.63313 18.2814 2.83365 18.0201 3.11663 17.8569C3.30674 17.7467 3.51507 17.6946 3.7208 17.6946C4.14094 17.6946 4.55066 17.9134 4.77549 18.3031C4.93868 18.5844 4.98208 18.9134 4.89702 19.2276ZM42.8684 11.9733C42.9517 11.6599 43.1531 11.3977 43.4361 11.2354C43.6262 11.1252 43.8345 11.0731 44.0402 11.0731C44.4604 11.0731 44.8701 11.291 45.0949 11.6807C45.2581 11.9628 45.3007 12.291 45.2165 12.6052C45.1323 12.9186 44.9317 13.1807 44.6496 13.343C44.3684 13.5045 44.0411 13.5479 43.7277 13.4637C43.4144 13.3795 43.1522 13.1781 42.9908 12.8977C42.8276 12.6156 42.7842 12.2866 42.8684 11.9733ZM6.83972 12.6772C6.75552 12.9915 6.55413 13.2545 6.27288 13.4168C5.69302 13.7519 4.94823 13.5514 4.61229 12.9698C4.44997 12.6894 4.40656 12.3621 4.4899 12.0488C4.5741 11.7337 4.77462 11.4715 5.055 11.3092C5.24684 11.1989 5.45604 11.1469 5.66177 11.1469C6.08365 11.1469 6.49337 11.3647 6.7182 11.7545C6.88052 12.0358 6.92392 12.363 6.83972 12.6772ZM33.496 23.2328C33.733 23.4828 34.1106 23.5375 34.4092 23.3656L37.1479 21.7849L39.3128 25.534L36.5758 27.1156C36.2772 27.2875 36.1357 27.6425 36.2347 27.9733C36.5645 29.0731 36.7312 30.2198 36.7312 31.3812C36.7312 32.5436 36.5645 33.6911 36.2347 34.791C36.1357 35.1217 36.2772 35.4767 36.5758 35.6495L39.3128 37.2302L37.1479 40.9802L34.4092 39.3986C34.1097 39.2267 33.7321 39.2814 33.496 39.5323C31.8901 41.2319 29.8493 42.4108 27.5923 42.9429C27.2564 43.0219 27.0185 43.3222 27.0185 43.6677V46.8265H22.6904V43.6677C22.6904 43.3222 22.4526 43.0219 22.1166 42.9429C19.8597 42.4108 17.818 41.2319 16.213 39.5323C15.976 39.2814 15.5984 39.2267 15.2998 39.3986L12.5602 40.9802L10.3961 37.2302L13.1331 35.6495C13.4317 35.4767 13.5724 35.1217 13.4734 34.791C13.1435 33.6911 12.9769 32.5436 12.9769 31.3812C12.9769 30.2198 13.1435 29.0731 13.4734 27.9733C13.5724 27.6425 13.4317 27.2875 13.1331 27.1156L10.3961 25.534L12.5602 21.7849L15.2998 23.3656C15.5984 23.5384 15.976 23.4828 16.213 23.2328C16.7668 22.6469 17.3788 22.1191 18.0376 21.6564C18.4439 22.1312 18.772 22.6703 18.9751 23.3969C16.4387 25.2641 14.9378 28.2102 14.9378 31.3812C14.9378 36.85 19.3866 41.2996 24.8545 41.2996C30.3224 41.2996 34.7703 36.85 34.7703 31.3812C34.7703 28.2102 33.2703 25.2641 30.733 23.3969C30.9369 22.6703 31.2642 22.1312 31.6705 21.6564C32.3293 22.1191 32.9422 22.6469 33.496 23.2328ZM21.9751 13.6911C21.0585 12.1052 21.6036 10.0679 23.1904 9.15034C23.713 8.84999 24.2833 8.70676 24.8467 8.70676C25.9977 8.70676 27.1184 9.30311 27.733 10.3691C27.733 10.3691 27.733 10.3691 27.7338 10.3691C28.1774 11.1373 28.2955 12.0331 28.0654 12.8908C27.8354 13.7484 27.2859 14.4646 26.5168 14.9081C24.93 15.8239 22.8927 15.2779 21.9751 13.6911ZM29.0142 26.0653V29.3517C29.0142 31.1634 27.5402 32.6373 25.7277 32.6373H23.9803C22.1687 32.6373 20.6948 31.1634 20.6948 29.3517V26.0653H29.0142ZM19.206 25.3213V29.3517C19.206 31.9837 21.3475 34.126 23.9803 34.126H25.7277C28.3606 34.126 30.5029 31.9837 30.5029 29.3517V25.3213C30.5029 25.2554 30.5038 25.192 30.5047 25.1286C32.2625 26.7137 33.2816 28.9715 33.2816 31.3812C33.2816 36.0297 29.5012 39.8109 24.8545 39.8109C20.2069 39.8109 16.4265 36.0297 16.4265 31.3812C16.4265 28.9715 17.4456 26.7137 19.2034 25.1286C19.2052 25.192 19.206 25.2554 19.206 25.3213ZM31.8007 19.4481C31.5541 19.6703 31.3059 19.8934 31.0645 20.1295C31.0455 20.1469 31.0272 20.1642 31.0099 20.1833C30.0385 21.1495 29.1922 22.3483 29.0385 24.5766H25.5984V16.784C26.1687 16.6955 26.7321 16.5028 27.2607 16.1972C28.3744 15.5557 29.1705 14.5184 29.5038 13.2762C29.8362 12.034 29.6652 10.7371 29.0229 9.62429C27.6965 7.32742 24.7468 6.53662 22.4465 7.86127C20.1479 9.1894 19.3588 12.1391 20.6861 14.4368C21.4422 15.7432 22.7234 16.5601 24.1097 16.7797V24.5766H20.6696C20.5168 22.3483 19.6705 21.1495 18.6982 20.1833C18.6809 20.1642 18.6626 20.146 18.6435 20.1286C18.4022 19.8925 18.154 19.6694 17.9083 19.4481C16.4717 18.1573 15.1149 16.9377 15.1149 12.9212C15.1149 7.55051 19.4838 3.18159 24.8545 3.18159C30.2243 3.18159 34.5932 7.55051 34.5932 12.9212C34.5932 16.9377 33.2373 18.1573 31.8007 19.4481ZM46.5923 19.8908C46.0125 20.2259 45.2677 20.0262 44.9335 19.4463C44.5975 18.8639 44.7972 18.1182 45.3779 17.7831C45.5689 17.6729 45.7772 17.6208 45.983 17.6208C46.4031 17.6208 46.8128 17.8396 47.0376 18.2285C47.3727 18.8092 47.1731 19.5548 46.5923 19.8908Z" fill="#004AAD"/>
</g>
</svg>
