<svg width="50" height="51" viewBox="0 0 50 51" fill="none" xmlns="http://www.w3.org/2000/svg">
<mask id="mask0_441_1140" style="mask-type:luminance" maskUnits="userSpaceOnUse" x="0" y="24" width="50" height="27">
<path d="M0 24.4271H50V50.3332H0V24.4271Z" fill="white"/>
</mask>
<g mask="url(#mask0_441_1140)">
<path d="M49.1328 24.499H38.3069C37.849 24.499 37.4738 24.8739 37.4738 25.3322C37.4738 32.2234 31.8699 37.8317 24.9827 37.8317C18.0956 37.8317 12.4916 32.2234 12.4916 25.3322C12.4916 24.8739 12.1164 24.499 11.6585 24.499H0.8326C0.374644 24.499 0 24.8739 0 25.3322V29.7234C0 30.1072 0.258321 30.4402 0.632964 30.5319L5.41268 31.7237C5.74593 32.7404 6.14573 33.7235 6.62045 34.6568L4.08859 38.8819C3.88896 39.207 3.94712 39.6317 4.21382 39.8986L10.4177 46.1066C10.6844 46.3819 11.1088 46.4233 11.4337 46.2319L15.6559 43.6984C16.5886 44.1734 17.5711 44.5819 18.587 44.9069L19.778 49.6899C19.8697 50.0648 20.2025 50.3233 20.5855 50.3233H29.3632C29.7462 50.3233 30.0794 50.0648 30.1706 49.6899L31.3616 44.9069C32.3776 44.5735 33.3601 44.1734 34.2927 43.6984L38.5149 46.2319C38.8398 46.4233 39.2648 46.3735 39.5309 46.1066L45.7348 39.8986C46.0015 39.6317 46.0597 39.207 45.8601 38.8819L43.3282 34.6568C43.8029 33.7235 44.2111 32.7404 44.536 31.7237L49.3157 30.5319C49.6909 30.4402 49.9487 30.1072 49.9487 29.7234V25.3322C49.9487 24.8739 49.574 24.499 49.1161 24.499H49.1328ZM48.2997 29.0738L43.695 30.2236C43.4115 30.2986 43.1783 30.5152 43.095 30.7904C42.7288 32.0153 42.2457 33.1987 41.6546 34.2903C41.5131 34.5488 41.521 34.865 41.6714 35.1151L44.111 39.1818L38.823 44.4733L34.7591 42.0315C34.5097 41.8816 34.1932 41.8732 33.9349 42.0153C32.8439 42.6067 31.6613 43.0901 30.4373 43.4567C30.1544 43.54 29.9374 43.765 29.8709 44.0565L28.7218 48.6648H21.2436L20.0945 44.0565C20.0196 43.7733 19.8032 43.54 19.5281 43.4567C18.3041 43.0901 17.1215 42.6067 16.0306 42.0153C15.7722 41.8732 15.4558 41.8816 15.2063 42.0315L11.1424 44.4733L5.8544 39.1818L8.29404 35.1151C8.44442 34.865 8.45228 34.5488 8.3108 34.2903C7.71976 33.1987 7.23665 32.0153 6.87039 30.7904C6.78708 30.5068 6.56229 30.2902 6.27044 30.2236L1.66572 29.0738V26.1653H10.851C11.2838 33.5904 17.4547 39.4985 24.9827 39.4985C32.5107 39.4985 38.6816 33.5904 39.1144 26.1653H48.2997V29.0738Z" fill="#004AAD"/>
</g>
<path d="M27.4814 14.4991V20.3323C27.4814 20.7905 27.8561 21.1654 28.314 21.1654C28.772 21.1654 29.1466 20.7905 29.1466 20.3323V14.841L30.0715 13.9155C30.5043 14.2742 31.0455 14.4907 31.645 14.4907C33.0194 14.4907 34.1433 13.366 34.1433 11.9907C34.1433 10.6159 33.0194 9.49072 31.645 9.49072C30.2711 9.49072 29.1466 10.6159 29.1466 11.9907C29.1466 12.1407 29.1634 12.2906 29.1886 12.4322L27.723 13.8993C27.5648 14.0576 27.4814 14.2658 27.4814 14.4907V14.4991ZM31.645 11.166C32.1034 11.166 32.4781 11.5408 32.4781 11.9991C32.4781 12.4574 32.1034 12.8323 31.645 12.8323C31.187 12.8323 30.8124 12.4574 30.8124 11.9991C30.8124 11.5408 31.187 11.166 31.645 11.166Z" fill="#004AAD"/>
<path d="M19.8941 13.9239L20.8189 14.8488V20.3406C20.8189 20.7989 21.1936 21.1738 21.6515 21.1738C22.1095 21.1738 22.4841 20.7989 22.4841 20.3406V14.5074C22.4841 14.2825 22.3924 14.0738 22.2426 13.9155L20.777 12.4489C20.8021 12.3074 20.8184 12.1574 20.8184 12.0074C20.8184 10.6327 19.6945 9.50745 18.3206 9.50745C16.9462 9.50745 15.8223 10.6327 15.8223 12.0074C15.8223 13.3822 16.9462 14.5074 18.3206 14.5074C18.92 14.5074 19.4697 14.2825 19.8941 13.9323V13.9239ZM17.4875 11.9991C17.4875 11.5408 17.8621 11.1659 18.3206 11.1659C18.7785 11.1659 19.1532 11.5408 19.1532 11.9991C19.1532 12.4573 18.7785 12.8322 18.3206 12.8322C17.8621 12.8322 17.4875 12.4573 17.4875 11.9991Z" fill="#004AAD"/>
<path d="M17.4383 22.7826C17.813 23.0657 18.0713 23.4406 18.2044 23.8575C17.2969 24.2324 16.6555 25.1242 16.6555 26.1656C16.6555 27.2074 17.355 28.1653 18.3212 28.5156V30.3324C18.3212 31.7072 19.4452 32.8324 20.8196 32.8324H20.9023C21.2859 34.732 22.9679 36.1656 24.9831 36.1656C26.9983 36.1656 28.6724 34.732 29.0638 32.8324H29.1466C30.521 32.8324 31.6449 31.7072 31.6449 30.3324V28.5156C32.6111 28.1737 33.3107 27.2572 33.3107 26.1656C33.3107 25.0739 32.6693 24.2324 31.7618 23.8575C31.9032 23.4406 32.1616 23.0573 32.5446 22.7658C35.6759 20.3743 37.4742 16.7575 37.4742 12.8324C37.4742 9.2827 35.9588 5.88295 33.3107 3.51613C30.6289 1.11628 27.1565 0.00784665 23.5589 0.416299C17.8628 1.04969 13.2497 5.64123 12.5832 11.3328C12.0587 15.7991 13.8742 20.0739 17.4383 22.7826ZM24.9831 34.4987C23.9005 34.4987 22.9679 33.7987 22.6262 32.8324H27.3399C26.9983 33.7987 26.0656 34.4987 24.9831 34.4987ZM29.9797 30.3324C29.9797 30.7907 29.6051 31.1656 29.1466 31.1656H20.8196C20.3611 31.1656 19.9864 30.7907 19.9864 30.3324V28.6656H29.9797V30.3324ZM30.8123 26.9987H19.1538C18.6959 26.9987 18.3212 26.6238 18.3212 26.1656C18.3212 25.7073 18.6959 25.3324 19.1538 25.3324H30.8123C31.2703 25.3324 31.6449 25.7073 31.6449 26.1656C31.6449 26.6238 31.2703 26.9987 30.8123 26.9987ZM24.1505 6.99925C24.1505 6.54098 24.5251 6.16609 24.9831 6.16609C25.441 6.16609 25.8157 6.54098 25.8157 6.99925C25.8157 7.45751 25.441 7.83293 24.9831 7.83293C24.5251 7.83293 24.1505 7.45751 24.1505 6.99925ZM14.2321 11.5242C14.8069 6.59132 18.8038 2.61638 23.7339 2.06636C26.8652 1.71611 29.8713 2.67458 32.1946 4.75774C34.4849 6.81625 35.8006 9.75774 35.8006 12.8324C35.8006 16.2327 34.2433 19.3739 31.5286 21.4408C30.7709 22.0155 30.2627 22.7988 30.063 23.6656H25.8073V9.49924C25.8073 9.44943 25.7911 9.40749 25.7827 9.35768C26.7651 9.0242 27.473 8.09929 27.473 6.99925C27.473 5.62446 26.3486 4.49925 24.9747 4.49925C23.6008 4.49925 22.4764 5.62446 22.4764 6.99925C22.4764 8.0909 23.1927 9.01581 24.1667 9.35768C24.1589 9.40749 24.1421 9.44943 24.1421 9.49924V23.6656H19.8864C19.6867 22.7988 19.1868 22.0239 18.4376 21.4576C15.3482 19.1076 13.7742 15.399 14.2237 11.5326L14.2321 11.5242Z" fill="#004AAD"/>
<path d="M39.1387 12.8323C39.1387 13.2906 39.5133 13.666 39.9713 13.666H42.4696C42.9276 13.666 43.3027 13.2906 43.3027 12.8323C43.3027 12.374 42.9276 11.9991 42.4696 11.9991H39.9713C39.5133 11.9991 39.1387 12.374 39.1387 12.8323Z" fill="#004AAD"/>
<path d="M7.49523 13.666H9.99356C10.4515 13.666 10.8262 13.2906 10.8262 12.8323C10.8262 12.374 10.4515 11.9991 9.99356 11.9991H7.49523C7.03728 11.9991 6.66211 12.374 6.66211 12.8323C6.66211 13.2906 7.03728 13.666 7.49523 13.666Z" fill="#004AAD"/>
<path d="M38.2155 19.924L40.4806 20.9826C40.5969 21.0324 40.7138 21.0576 40.8301 21.0576C41.1466 21.0576 41.4463 20.8824 41.5883 20.5741C41.7795 20.1573 41.6045 19.6576 41.1885 19.4657L38.9233 18.4076C38.5068 18.2157 38.0158 18.3908 37.8157 18.8077C37.6244 19.224 37.7989 19.7242 38.2155 19.9156V19.924Z" fill="#004AAD"/>
<path d="M8.77689 6.19099L11.042 7.24909C11.1589 7.2989 11.2752 7.32407 11.3921 7.32407C11.7085 7.32407 12.0083 7.14894 12.1497 6.84064C12.341 6.42432 12.1665 5.92411 11.7499 5.73273L9.48479 4.67411C9.06822 4.48273 8.57726 4.65733 8.3771 5.07417C8.18585 5.49101 8.36085 5.9907 8.77689 6.1826V6.19099Z" fill="#004AAD"/>
<path d="M38.5652 7.32408C38.6821 7.32408 38.8068 7.29891 38.9153 7.2491L41.1804 6.191C41.597 5.9991 41.7798 5.49941 41.5802 5.08257C41.3884 4.66573 40.8891 4.48274 40.4725 4.68251L38.2074 5.7406C37.7908 5.93251 37.6079 6.43272 37.8076 6.84903C37.9491 7.14895 38.2493 7.33247 38.5652 7.33247V7.32408Z" fill="#004AAD"/>
<path d="M11.0428 18.4159L8.7776 19.474C8.36156 19.6659 8.17817 20.1656 8.3778 20.5825C8.5198 20.8824 8.81952 21.0659 9.136 21.0659C9.25232 21.0659 9.37755 21.0407 9.48549 20.9909L11.7506 19.9323C12.1672 19.7409 12.3501 19.2407 12.1504 18.8239C11.9587 18.4075 11.4593 18.224 11.0428 18.4243V18.4159Z" fill="#004AAD"/>
</svg>
