<svg width="49" height="49" viewBox="0 0 49 49" fill="none" xmlns="http://www.w3.org/2000/svg">
<path fill-rule="evenodd" clip-rule="evenodd" d="M41.7917 38.1145C41.6042 38.2291 41.4167 38.3385 41.2188 38.4426L41.7188 39.3072L42.2917 38.9791L41.7917 38.1145ZM43.6875 40.026C43.6458 39.9478 43.5781 39.9218 43.5417 39.9114C43.5 39.901 43.4271 39.8905 43.3542 39.9322L42.0156 40.703C41.901 40.7708 41.8594 40.927 41.9271 41.0416L45.4688 47.1822C45.5156 47.2551 45.5833 47.2812 45.6198 47.2968C45.6563 47.302 45.7292 47.3124 45.8073 47.2708L47.1406 46.4999C47.2604 46.4322 47.3021 46.2812 47.2344 46.1614L43.6875 40.026ZM43.8802 33.1353C42.9479 36.6197 39.349 38.6978 35.8646 37.7655C32.3802 36.828 30.3073 33.2343 31.2396 29.7499C31.6927 28.0624 32.776 26.651 34.2865 25.776C35.2969 25.1926 36.4167 24.8958 37.5469 24.8958C38.1198 24.8958 38.6875 24.9739 39.2552 25.1249C42.7396 26.0572 44.8125 29.651 43.8802 33.1353ZM31.224 42.2864C30.4427 40.3645 29.9323 37.7916 29.8906 35.4947H19.2708C19.2448 37.8228 18.7708 40.3905 18.026 42.2864H31.224ZM35.5313 43.6458H13.7344C12.9844 43.6458 12.375 44.2551 12.375 45.0051C12.375 45.7499 12.9844 46.3593 13.7344 46.3593H35.5313C36.2813 46.3593 36.8906 45.7499 36.8906 45.0051C36.8906 44.2551 36.2813 43.6458 35.5313 43.6458ZM4.66667 34.1353H30.1354C29.599 32.6666 29.4896 31.0208 29.9271 29.401C29.9792 29.2083 30.0365 29.0208 30.099 28.8385H2V31.4687C2 32.9374 3.19792 34.1353 4.66667 34.1353ZM33.6094 24.5989C33.8698 24.4478 34.1354 24.3176 34.4063 24.1978V10.6041H32.5052V24.8385H33.2188C33.349 24.7551 33.474 24.677 33.6094 24.5989ZM2 4.70304V27.4791H30.724C30.9896 27.0155 31.3073 26.578 31.6615 26.1822C31.3646 26.1041 31.1458 25.8385 31.1458 25.5208V9.92179C31.1458 9.54679 31.4531 9.2395 31.8281 9.2395H35.0885C35.4635 9.2395 35.7708 9.54679 35.7708 9.92179V23.7447C37.0208 23.4478 38.3281 23.4687 39.6042 23.8124C41.7031 24.3749 43.3802 25.7343 44.3906 27.4791H47.2656V3.81763C47.2656 2.83846 46.4688 2.03638 45.4844 2.03638H4.66667C3.19792 2.03638 2 3.23429 2 4.70304ZM47.2656 31.4687V28.8385H45.0156C45.526 30.2864 45.6198 31.8958 45.1927 33.4895C45.1354 33.6978 45.0729 33.9062 45 34.1093C46.2813 33.9114 47.2656 32.802 47.2656 31.4687ZM42.8802 37.2812L43.6146 38.5468C43.7083 38.5572 43.7969 38.5728 43.8906 38.5989C44.3073 38.7083 44.651 38.9739 44.8646 39.3437L48.4115 45.4843C48.625 45.8541 48.6823 46.2864 48.5729 46.703C48.4583 47.1197 48.1927 47.4635 47.8229 47.677L46.4896 48.4478C46.2396 48.5885 45.9688 48.6614 45.6875 48.6614C45.5469 48.6614 45.4063 48.6458 45.2708 48.6093C44.8542 48.4947 44.5052 48.2291 44.2917 47.8593L40.75 41.7239C40.5365 41.3489 40.4792 40.9166 40.5885 40.5051C40.6146 40.4114 40.6458 40.3228 40.6875 40.2395L39.9531 38.9687C39.1875 39.2187 38.3802 39.3489 37.5573 39.3489C36.8854 39.3489 36.1979 39.2603 35.5156 39.078C33.7604 38.6093 32.3021 37.578 31.2813 36.2343C31.4271 38.5572 32.0417 40.8593 32.7083 42.2864H35.5313C37.0313 42.2864 38.25 43.5051 38.25 45.0051C38.25 46.4999 37.0313 47.7239 35.5313 47.7239H13.7344C12.2344 47.7239 11.0156 46.4999 11.0156 45.0051C11.0156 43.5051 12.2344 42.2864 13.7344 42.2864H16.5469C17.2552 40.7343 17.8854 38.0989 17.9115 35.4947H4.66667C2.44792 35.4947 0.640625 33.6926 0.640625 31.4687V4.70304C0.640625 2.48429 2.44792 0.677002 4.66667 0.677002H45.4844C47.2188 0.677002 48.625 2.08846 48.625 3.81763V31.4687C48.625 33.6926 46.8177 35.4947 44.599 35.4947H44.3438C43.9427 36.1666 43.4479 36.7655 42.8802 37.2812ZM14.1771 16.4062C13.9375 16.4062 13.7031 16.276 13.5781 16.0468C13.401 15.7187 13.526 15.3072 13.8542 15.1249L33.0104 4.83325L32.1406 4.66138C31.7708 4.58846 31.5313 4.23429 31.6042 3.8645C31.6771 3.49471 32.0365 3.25513 32.401 3.32804L35.1354 3.86971C35.3333 3.90617 35.5052 4.03117 35.6042 4.21346C35.6979 4.39054 35.7083 4.60409 35.6302 4.79159L34.5729 7.36971C34.4323 7.71867 34.0313 7.88013 33.6875 7.7395C33.3385 7.59888 33.1719 7.19784 33.3177 6.85409L33.651 6.03117L14.5 16.3228C14.3958 16.3801 14.2865 16.4062 14.1771 16.4062ZM28.526 13.5468V24.8385H26.625V13.5468H28.526ZM29.8854 12.8645V25.5208C29.8854 25.8958 29.5833 26.1978 29.2031 26.1978H25.9427C25.5677 26.1978 25.2656 25.8958 25.2656 25.5208V12.8645C25.2656 12.4895 25.5677 12.1874 25.9427 12.1874H29.2031C29.5833 12.1874 29.8854 12.4895 29.8854 12.8645ZM22.6406 16.4895V24.8385H20.7396V16.4895H22.6406ZM24.0052 15.8072V25.5208C24.0052 25.8958 23.6979 26.1978 23.3229 26.1978H20.0625C19.6823 26.1978 19.3802 25.8958 19.3802 25.5208V15.8072C19.3802 15.4322 19.6823 15.1301 20.0625 15.1301H23.3229C23.6979 15.1301 24.0052 15.4322 24.0052 15.8072ZM16.7604 19.4322V24.8385H14.8594V19.4322H16.7604ZM18.1198 18.7551V25.5208C18.1198 25.8958 17.8177 26.1978 17.4375 26.1978H14.1771C13.8021 26.1978 13.5 25.8958 13.5 25.5208V18.7551C13.5 18.3801 13.8021 18.0728 14.1771 18.0728H17.4375C17.8177 18.0728 18.1198 18.3801 18.1198 18.7551ZM27.151 31.4895C27.151 31.8645 26.849 32.1666 26.474 32.1666H22.7917C22.4167 32.1666 22.1146 31.8645 22.1146 31.4895C22.1146 31.1145 22.4167 30.8072 22.7917 30.8072H26.474C26.849 30.8072 27.151 31.1145 27.151 31.4895Z" fill="#004AAD"/>
</svg>
