<svg width="50" height="50" viewBox="0 0 50 50" fill="none" xmlns="http://www.w3.org/2000/svg">
<mask id="mask0_441_1146" style="mask-type:luminance" maskUnits="userSpaceOnUse" x="0" y="0" width="50" height="50">
<path d="M0 0H50V50H0V0Z" fill="white"/>
</mask>
<g mask="url(#mask0_441_1146)">
<path fill-rule="evenodd" clip-rule="evenodd" d="M13.6353 29.1132C13.6353 29.662 13.2077 30.1075 12.6746 30.1075H12.342V29.4392C12.342 27.5646 11.3127 25.9345 9.80295 25.114C10.315 24.5544 10.6264 23.7991 10.6264 22.9732C10.6264 21.2508 9.26452 19.8434 7.58588 19.8434C5.91253 19.8434 4.54534 21.2508 4.54534 22.9732C4.54534 23.7991 4.85679 24.5544 5.36882 25.114C3.86439 25.9345 2.83504 27.5646 2.83504 29.4392V30.1075H2.4972C1.96933 30.1075 1.53648 29.662 1.53648 29.1132V18.1156C2.75586 18.898 4.35003 18.7404 5.4005 17.7243C6.62516 18.9034 8.55189 18.9034 9.77127 17.7243C10.8217 18.7404 12.4159 18.898 13.6353 18.1156V29.1132ZM6.06034 22.9732C6.06034 23.8426 6.74657 24.5435 7.58588 24.5435C8.43048 24.5435 9.11143 23.8426 9.11143 22.9732C9.11143 22.1093 8.43048 21.4029 7.58588 21.4029C6.74657 21.4029 6.06034 22.1093 6.06034 22.9732ZM10.827 30.1075V29.4392C10.827 27.6026 9.37537 26.103 7.58588 26.103C5.80168 26.103 4.34475 27.6026 4.34475 29.4392V30.1075H10.827ZM3.52127 13.1112H11.6558L13.6195 15.5781C13.498 16.4094 12.8013 17.0506 11.9567 17.0506C11.3127 17.0506 10.7373 16.6865 10.4469 16.0943C10.1725 15.5183 9.37009 15.5183 9.0956 16.0943C8.47271 17.3712 6.69906 17.3657 6.08145 16.0943C5.80168 15.5183 5.00459 15.5183 4.72482 16.0943C4.43977 16.6865 3.85911 17.0506 3.22039 17.0506C2.37579 17.0506 1.67372 16.4094 1.55231 15.5781L3.52127 13.1112ZM12.6007 11.8343C12.4529 11.655 12.2417 11.5518 12.0147 11.5518H3.16232C2.93534 11.5518 2.71891 11.655 2.57638 11.8343L0.195682 14.8282C0.084829 14.9641 0.0214844 15.1379 0.0214844 15.3173V29.1132C0.0214844 30.5205 1.13529 31.6615 2.4972 31.6615H12.6746C14.0418 31.6615 15.1503 30.5205 15.1503 29.1132V15.3173C15.1503 15.1379 15.0922 14.9641 14.9814 14.8282L12.6007 11.8343ZM48.4643 29.1132C48.4643 29.662 48.0261 30.1075 47.4983 30.1075H47.1657V29.4392C47.1657 27.5646 46.1363 25.9345 44.6266 25.114C45.1387 24.5544 45.4501 23.7991 45.4501 22.9732C45.4501 21.2508 44.0882 19.8434 42.4096 19.8434C40.7362 19.8434 39.369 21.2508 39.369 22.9732C39.369 23.7991 39.6858 24.5544 40.1925 25.114C38.6881 25.9345 37.6587 27.5646 37.6587 29.4392V30.1075H37.3262C36.793 30.1075 36.3602 29.662 36.3602 29.1132V18.1156C37.5796 18.898 39.1737 18.7404 40.2295 17.7243C41.4489 18.9034 43.3703 18.9034 44.595 17.7243C45.6454 18.7459 47.2396 18.898 48.4643 18.1156V29.1132ZM40.884 22.9732C40.884 23.8426 41.5703 24.5435 42.4096 24.5435C43.2542 24.5435 43.9351 23.8426 43.9351 22.9732C43.9351 22.1093 43.2542 21.4029 42.4096 21.4029C41.5703 21.4029 40.884 22.1093 40.884 22.9732ZM45.6507 30.1075V29.4392C45.6507 27.6026 44.1991 26.103 42.4096 26.103C40.6254 26.103 39.1684 27.6026 39.1684 29.4392V30.1075H45.6507ZM38.345 13.1112H46.4795L48.4431 15.5781C48.3217 16.4094 47.6197 17.0506 46.7804 17.0506C46.1363 17.0506 45.561 16.6865 45.2706 16.0943C44.9909 15.5183 44.1938 15.5183 43.9193 16.0943C43.2964 17.3712 41.5228 17.3712 40.9051 16.0943C40.6254 15.5183 39.8283 15.5183 39.5485 16.0943C39.2635 16.6865 38.6828 17.0506 38.0441 17.0506C37.1995 17.0506 36.4974 16.4094 36.376 15.5781L38.345 13.1112ZM49.8051 14.8282L47.4244 11.8343C47.2766 11.655 47.0654 11.5518 46.8384 11.5518H37.986C37.759 11.5518 37.5426 11.655 37.4001 11.8343L35.0194 14.8282C34.9085 14.9641 34.8452 15.1379 34.8452 15.3173V29.1132C34.8452 30.5205 35.959 31.6615 37.3209 31.6615H47.4983C48.8654 31.6615 49.974 30.5205 49.974 29.1132V15.3173C49.974 15.1379 49.9159 14.9641 49.8051 14.8282ZM32.8393 44.3544C32.4381 45.0554 32.2639 45.8758 32.3167 46.8104V48.4459H25.4121V46.8104C25.4649 45.8324 25.3963 45.0119 25.1957 44.3001C24.9106 43.3003 23.3851 41.2627 22.7252 40.0727C22.551 39.7576 22.456 39.4751 22.4085 39.1164L22.1604 37.307C21.8173 35.4107 20.7932 34.036 19.1199 33.2155C17.9533 32.645 17.494 31.9549 17.6577 31.5909C17.8266 31.2105 18.6659 30.966 19.7903 31.4822L23.1475 33.2373C23.6543 33.4981 24.2508 33.1232 24.2508 32.5418L24.2666 19.1751C24.2666 18.7404 24.6045 18.3872 25.0268 18.3872C25.4491 18.3872 25.7922 18.7404 25.7922 19.1751V31.2323C25.7922 31.6615 26.13 32.0147 26.547 32.0147C26.9641 32.0147 27.3072 31.667 27.3072 31.2323C27.3072 30.803 27.645 30.4498 28.0673 30.4498C28.4896 30.4498 28.8274 30.803 28.8274 31.2323V32.6124C28.8274 33.0417 29.1706 33.3894 29.5876 33.3894C30.0046 33.3894 30.3424 33.0417 30.3424 32.6124C30.3424 32.1777 30.6855 31.8245 31.1078 31.8245C31.5249 31.8245 31.868 32.1777 31.868 32.6124V33.9871C31.868 34.4164 32.2058 34.7641 32.6281 34.7641C33.0451 34.7641 33.383 34.4164 33.383 33.9871C33.383 33.5524 33.7261 33.1992 34.1484 33.1992C34.5654 33.1992 34.9085 33.5524 34.9085 33.9871C34.9085 37.8124 34.7554 41.0073 32.8393 44.3544ZM21.7592 18.5611H22.8308C23.0948 17.5668 23.9763 16.8332 25.0268 16.8332C26.0772 16.8332 26.9641 17.5668 27.228 18.5611H28.2415V17.8982C28.2415 16.0562 26.7846 14.562 25.0004 14.562C23.2109 14.562 21.7592 16.0562 21.7592 17.8982V18.5611ZM26.5259 11.4322C26.5259 12.2962 25.8397 13.0025 25.0004 13.0025C24.1558 13.0025 23.4748 12.2962 23.4748 11.4322C23.4748 10.5629 24.1558 9.85649 25.0004 9.85649C25.8397 9.85649 26.5259 10.5629 26.5259 11.4322ZM20.2442 17.8982C20.2442 16.0236 21.2736 14.3935 22.7833 13.5676C22.2713 13.008 21.9598 12.2581 21.9598 11.4322C21.9598 9.70435 23.3217 8.30248 25.0004 8.30248C26.6737 8.30248 28.0409 9.70435 28.0409 11.4322C28.0409 12.2581 27.7242 13.008 27.2174 13.5676C28.7219 14.3935 29.7512 16.0236 29.7512 17.8982V18.5611H30.0838C30.6169 18.5611 31.0498 18.1156 31.0498 17.5668V6.5746C29.8304 7.3516 28.2362 7.19946 27.1805 6.18338C25.9611 7.35703 24.0396 7.35703 22.815 6.18338C21.7645 7.19946 20.1703 7.3516 18.9457 6.5746V17.5668C18.9457 18.1156 19.3785 18.5611 19.9117 18.5611H20.2442V17.8982ZM20.9305 1.56482H29.065L31.0339 4.03167C30.9125 4.86844 30.2105 5.50961 29.3659 5.50961C28.7271 5.50961 28.1465 5.14012 27.8614 4.54786C27.5817 3.9719 26.7846 3.97733 26.5048 4.54786C25.8872 5.82476 24.1135 5.82476 23.4907 4.54786C23.2162 3.97733 22.4191 3.9719 22.1393 4.54786C21.849 5.14012 21.2736 5.50961 20.6296 5.50961C19.785 5.50961 19.0882 4.86844 18.9668 4.03167L20.9305 1.56482ZM34.1484 31.6452C33.8317 31.6452 33.5255 31.7104 33.2563 31.83C32.8181 30.5585 31.4246 29.9228 30.2157 30.4553C29.7987 29.2436 28.4949 28.5861 27.3072 29.0262V20.1206H30.0838C31.451 20.1206 32.5648 18.9741 32.5648 17.5668V3.77629C32.5648 3.59698 32.5014 3.42311 32.3906 3.28183L30.0099 0.293353C29.8673 0.114043 29.6509 0.00537109 29.4239 0.00537109H20.5715C20.3445 0.00537109 20.1334 0.114043 19.9856 0.293353L17.6049 3.28183C17.494 3.42311 17.436 3.59698 17.436 3.77629V17.5668C17.436 18.9741 18.5445 20.1206 19.9117 20.1206H22.7516L22.7358 31.2757L20.4607 30.0858C20.4501 30.0804 20.4396 30.0749 20.429 30.0695C18.4125 29.1295 16.7867 29.8141 16.2852 30.9389C15.8365 31.9278 16.1427 33.4872 18.4706 34.6283C19.7111 35.2314 20.4079 36.1714 20.6665 37.5733L20.9094 39.3392C20.9833 39.888 21.1416 40.3662 21.4108 40.8443C21.8806 41.6974 23.5698 44.1262 23.744 44.7402C23.8971 45.2781 23.9446 45.9356 23.8971 46.7343C23.8971 46.7506 23.8971 46.7669 23.8971 46.7832V49.2284C23.8971 49.6576 24.235 50.0054 24.652 50.0054H33.0715C33.4938 50.0054 33.8317 49.6576 33.8317 49.2284V46.7832C33.8317 46.7669 33.8317 46.7506 33.8317 46.7343C33.7894 46.104 33.8897 45.5824 34.1378 45.1477C36.2546 41.4583 36.4235 38.0569 36.4235 33.9871C36.4235 32.6939 35.3994 31.6452 34.1484 31.6452Z" fill="#004AAD"/>
</g>
</svg>
