<svg xmlns="http://www.w3.org/2000/svg" xmlns:xlink="http://www.w3.org/1999/xlink" width="50" zoomAndPan="magnify" viewBox="0 0 37.5 37.499999" height="50" preserveAspectRatio="xMidYMid meet" version="1.0"><defs><clipPath id="58e2315929"><path d="M 0.433594 0 L 36.699219 0 L 36.699219 37.007812 L 0.433594 37.007812 Z M 0.433594 0 " clip-rule="nonzero"/></clipPath></defs><path fill="#004aad" d="M 21.378906 7.125 L 23.664062 9.070312 C 23.753906 9.144531 23.867188 9.183594 23.976562 9.183594 C 24.113281 9.183594 24.25 9.125 24.34375 9.011719 C 24.515625 8.808594 24.492188 8.503906 24.289062 8.332031 L 22.175781 6.535156 L 22.175781 2.789062 C 22.175781 2.523438 21.957031 2.304688 21.691406 2.304688 C 21.425781 2.304688 21.207031 2.523438 21.207031 2.789062 L 21.207031 6.757812 C 21.207031 6.898438 21.269531 7.035156 21.378906 7.125 Z M 21.378906 7.125 " fill-opacity="1" fill-rule="nonzero"/><path fill="#004aad" d="M 12.554688 6.976562 C 12.554688 7.140625 12.496094 7.28125 12.378906 7.398438 C 12.265625 7.515625 12.125 7.570312 11.960938 7.570312 C 11.796875 7.570312 11.65625 7.515625 11.539062 7.398438 C 11.425781 7.28125 11.367188 7.140625 11.367188 6.976562 C 11.367188 6.816406 11.425781 6.675781 11.539062 6.558594 C 11.65625 6.441406 11.796875 6.386719 11.960938 6.386719 C 12.125 6.386719 12.265625 6.441406 12.378906 6.558594 C 12.496094 6.675781 12.554688 6.816406 12.554688 6.976562 Z M 12.554688 6.976562 " fill-opacity="1" fill-rule="nonzero"/><path fill="#004aad" d="M 14.726562 6.976562 C 14.726562 7.140625 14.667969 7.28125 14.554688 7.398438 C 14.4375 7.515625 14.296875 7.570312 14.132812 7.570312 C 13.96875 7.570312 13.828125 7.515625 13.714844 7.398438 C 13.597656 7.28125 13.539062 7.140625 13.539062 6.976562 C 13.539062 6.816406 13.597656 6.675781 13.714844 6.558594 C 13.828125 6.441406 13.96875 6.386719 14.132812 6.386719 C 14.296875 6.386719 14.4375 6.441406 14.554688 6.558594 C 14.667969 6.675781 14.726562 6.816406 14.726562 6.976562 Z M 14.726562 6.976562 " fill-opacity="1" fill-rule="nonzero"/><path fill="#004aad" d="M 12.554688 20.796875 C 12.554688 20.960938 12.496094 21.101562 12.378906 21.21875 C 12.265625 21.332031 12.125 21.390625 11.960938 21.390625 C 11.796875 21.390625 11.65625 21.332031 11.539062 21.21875 C 11.425781 21.101562 11.367188 20.960938 11.367188 20.796875 C 11.367188 20.632812 11.425781 20.492188 11.539062 20.378906 C 11.65625 20.261719 11.796875 20.203125 11.960938 20.203125 C 12.125 20.203125 12.265625 20.261719 12.378906 20.378906 C 12.496094 20.492188 12.554688 20.632812 12.554688 20.796875 Z M 12.554688 20.796875 " fill-opacity="1" fill-rule="nonzero"/><path fill="#004aad" d="M 14.726562 20.796875 C 14.726562 20.960938 14.667969 21.101562 14.554688 21.21875 C 14.4375 21.332031 14.296875 21.390625 14.132812 21.390625 C 13.96875 21.390625 13.828125 21.332031 13.714844 21.21875 C 13.597656 21.101562 13.539062 20.960938 13.539062 20.796875 C 13.539062 20.632812 13.597656 20.492188 13.714844 20.378906 C 13.828125 20.261719 13.96875 20.203125 14.132812 20.203125 C 14.296875 20.203125 14.4375 20.261719 14.554688 20.378906 C 14.667969 20.492188 14.726562 20.632812 14.726562 20.796875 Z M 14.726562 20.796875 " fill-opacity="1" fill-rule="nonzero"/><path fill="#004aad" d="M 17.121094 20.796875 C 17.121094 20.960938 17.0625 21.101562 16.949219 21.21875 C 16.832031 21.332031 16.691406 21.390625 16.527344 21.390625 C 16.363281 21.390625 16.222656 21.332031 16.109375 21.21875 C 15.992188 21.101562 15.933594 20.960938 15.933594 20.796875 C 15.933594 20.632812 15.992188 20.492188 16.109375 20.378906 C 16.222656 20.261719 16.363281 20.203125 16.527344 20.203125 C 16.691406 20.203125 16.832031 20.261719 16.949219 20.378906 C 17.0625 20.492188 17.121094 20.632812 17.121094 20.796875 Z M 17.121094 20.796875 " fill-opacity="1" fill-rule="nonzero"/><path fill="#004aad" d="M 3.585938 13.792969 C 3.613281 13.953125 3.578125 14.101562 3.484375 14.234375 C 3.386719 14.367188 3.257812 14.449219 3.097656 14.472656 C 2.933594 14.5 2.785156 14.464844 2.652344 14.371094 C 2.519531 14.273438 2.441406 14.144531 2.414062 13.984375 C 2.390625 13.820312 2.421875 13.675781 2.519531 13.542969 C 2.617188 13.40625 2.746094 13.328125 2.90625 13.300781 C 3.066406 13.277344 3.214844 13.3125 3.347656 13.40625 C 3.480469 13.503906 3.5625 13.632812 3.585938 13.792969 Z M 3.585938 13.792969 " fill-opacity="1" fill-rule="nonzero"/><path fill="#004aad" d="M 5.144531 13.46875 C 5.261719 13.585938 5.320312 13.722656 5.320312 13.886719 C 5.320312 14.050781 5.261719 14.191406 5.144531 14.308594 C 5.03125 14.421875 4.890625 14.480469 4.726562 14.480469 C 4.5625 14.480469 4.421875 14.421875 4.308594 14.308594 C 4.191406 14.191406 4.132812 14.050781 4.132812 13.886719 C 4.132812 13.722656 4.191406 13.585938 4.308594 13.46875 C 4.421875 13.351562 4.5625 13.292969 4.726562 13.292969 C 4.890625 13.292969 5.03125 13.351562 5.144531 13.46875 Z M 5.144531 13.46875 " fill-opacity="1" fill-rule="nonzero"/><path fill="#004aad" d="M 7.039062 13.792969 C 7.066406 13.953125 7.03125 14.101562 6.933594 14.234375 C 6.839844 14.367188 6.710938 14.449219 6.546875 14.472656 C 6.386719 14.5 6.238281 14.464844 6.105469 14.371094 C 5.972656 14.273438 5.894531 14.144531 5.867188 13.984375 C 5.839844 13.820312 5.875 13.675781 5.972656 13.539062 C 6.066406 13.40625 6.195312 13.328125 6.359375 13.300781 C 6.519531 13.277344 6.667969 13.3125 6.800781 13.40625 C 6.933594 13.503906 7.011719 13.632812 7.039062 13.792969 Z M 7.039062 13.792969 " fill-opacity="1" fill-rule="nonzero"/><path fill="#004aad" d="M 8.40625 13.339844 C 8.558594 13.402344 8.664062 13.507812 8.726562 13.660156 C 8.789062 13.8125 8.789062 13.964844 8.726562 14.113281 C 8.664062 14.265625 8.558594 14.375 8.40625 14.4375 C 8.253906 14.5 8.101562 14.5 7.953125 14.4375 C 7.800781 14.375 7.691406 14.265625 7.628906 14.113281 C 7.566406 13.964844 7.566406 13.8125 7.628906 13.660156 C 7.691406 13.507812 7.800781 13.402344 7.953125 13.339844 C 8.101562 13.277344 8.253906 13.277344 8.40625 13.339844 Z M 8.40625 13.339844 " fill-opacity="1" fill-rule="nonzero"/><path fill="#004aad" d="M 3.585938 27.613281 C 3.613281 27.773438 3.578125 27.921875 3.484375 28.054688 C 3.386719 28.1875 3.257812 28.265625 3.097656 28.292969 C 2.933594 28.320312 2.789062 28.285156 2.65625 28.1875 C 2.519531 28.09375 2.441406 27.964844 2.414062 27.800781 C 2.390625 27.640625 2.425781 27.492188 2.519531 27.359375 C 2.617188 27.226562 2.746094 27.148438 2.90625 27.121094 C 3.066406 27.09375 3.214844 27.128906 3.347656 27.226562 C 3.480469 27.320312 3.5625 27.449219 3.585938 27.613281 Z M 3.585938 27.613281 " fill-opacity="1" fill-rule="nonzero"/><path fill="#004aad" d="M 5.144531 27.289062 C 5.261719 27.402344 5.320312 27.542969 5.320312 27.707031 C 5.320312 27.871094 5.261719 28.011719 5.144531 28.125 C 5.03125 28.242188 4.890625 28.300781 4.726562 28.300781 C 4.5625 28.300781 4.421875 28.242188 4.308594 28.125 C 4.191406 28.011719 4.132812 27.871094 4.132812 27.707031 C 4.132812 27.542969 4.191406 27.402344 4.308594 27.289062 C 4.421875 27.171875 4.5625 27.113281 4.726562 27.113281 C 4.890625 27.113281 5.03125 27.171875 5.144531 27.289062 Z M 5.144531 27.289062 " fill-opacity="1" fill-rule="nonzero"/><path fill="#004aad" d="M 6.679688 27.160156 C 6.832031 27.222656 6.9375 27.328125 7 27.480469 C 7.066406 27.632812 7.066406 27.78125 7 27.933594 C 6.9375 28.085938 6.832031 28.191406 6.679688 28.253906 C 6.527344 28.316406 6.378906 28.316406 6.226562 28.253906 C 6.074219 28.191406 5.96875 28.085938 5.90625 27.933594 C 5.84375 27.78125 5.84375 27.632812 5.90625 27.480469 C 5.96875 27.328125 6.074219 27.222656 6.226562 27.160156 C 6.378906 27.09375 6.527344 27.09375 6.679688 27.160156 Z M 6.679688 27.160156 " fill-opacity="1" fill-rule="nonzero"/><path fill="#004aad" d="M 8.765625 27.613281 C 8.792969 27.773438 8.757812 27.921875 8.660156 28.054688 C 8.566406 28.1875 8.4375 28.265625 8.273438 28.292969 C 8.113281 28.320312 7.964844 28.285156 7.832031 28.1875 C 7.699219 28.09375 7.621094 27.964844 7.59375 27.800781 C 7.566406 27.640625 7.601562 27.492188 7.699219 27.359375 C 7.792969 27.226562 7.921875 27.148438 8.085938 27.121094 C 8.246094 27.09375 8.394531 27.128906 8.527344 27.226562 C 8.660156 27.320312 8.738281 27.449219 8.765625 27.613281 Z M 8.765625 27.613281 " fill-opacity="1" fill-rule="nonzero"/><g clip-path="url(#58e2315929)"><path fill="#004aad" d="M 36.273438 15.046875 L 34.878906 14.402344 L 34.621094 13.578125 L 35.40625 12.257812 C 35.511719 12.082031 35.492188 11.859375 35.363281 11.699219 L 34.3125 10.4375 C 34.179688 10.28125 33.964844 10.222656 33.773438 10.296875 L 32.332031 10.824219 L 31.566406 10.421875 L 31.1875 8.933594 C 31.136719 8.738281 30.964844 8.59375 30.761719 8.574219 L 29.128906 8.421875 C 28.921875 8.40625 28.730469 8.515625 28.644531 8.703125 L 28 10.097656 L 27.175781 10.351562 L 27.097656 10.308594 C 27.371094 9.921875 27.597656 9.511719 27.785156 9.074219 C 28.125 8.265625 28.296875 7.414062 28.296875 6.53125 C 28.296875 5.648438 28.125 4.792969 27.785156 3.988281 C 27.457031 3.210938 26.984375 2.511719 26.386719 1.914062 C 25.785156 1.316406 25.085938 0.84375 24.308594 0.515625 C 23.503906 0.175781 22.648438 0 21.769531 0 C 20.886719 0 20.03125 0.175781 19.226562 0.515625 C 18.449219 0.84375 17.75 1.316406 17.152344 1.914062 C 16.550781 2.511719 16.082031 3.210938 15.753906 3.988281 C 15.671875 4.175781 15.605469 4.363281 15.542969 4.554688 L 10.839844 4.554688 C 10.152344 4.554688 9.59375 5.113281 9.59375 5.800781 L 9.59375 6.496094 L 6.796875 6.496094 C 5.867188 6.496094 5.105469 7.253906 5.105469 8.1875 L 5.105469 11.464844 L 1.679688 11.464844 C 0.992188 11.464844 0.429688 12.023438 0.429688 12.710938 L 0.429688 15.066406 C 0.429688 15.753906 0.992188 16.3125 1.679688 16.3125 L 5.105469 16.3125 L 5.105469 19.589844 C 5.105469 20.523438 5.867188 21.28125 6.796875 21.28125 L 9.59375 21.28125 L 9.59375 21.976562 C 9.59375 22.664062 10.152344 23.222656 10.839844 23.222656 L 13.648438 23.222656 L 13.648438 26.5 C 13.648438 26.898438 13.324219 27.222656 12.925781 27.222656 L 10.75 27.222656 L 10.75 26.527344 C 10.75 25.839844 10.1875 25.28125 9.5 25.28125 L 1.679688 25.28125 C 0.992188 25.28125 0.429688 25.839844 0.429688 26.527344 L 0.429688 28.886719 C 0.429688 29.574219 0.992188 30.132812 1.679688 30.132812 L 9.5 30.132812 C 10.1875 30.132812 10.75 29.574219 10.75 28.886719 L 10.75 28.191406 L 12.925781 28.191406 C 13.855469 28.191406 14.617188 27.429688 14.617188 26.5 L 14.617188 23.222656 L 17.847656 23.222656 L 17.847656 30.566406 C 17.847656 30.574219 17.847656 30.585938 17.847656 30.59375 C 17.847656 30.597656 17.847656 30.597656 17.847656 30.601562 C 17.847656 30.609375 17.847656 30.617188 17.851562 30.625 C 17.851562 30.625 17.851562 30.628906 17.851562 30.628906 C 17.855469 30.660156 17.863281 30.691406 17.871094 30.71875 C 17.882812 30.75 17.894531 30.777344 17.910156 30.804688 L 21.351562 36.761719 C 21.4375 36.910156 21.59375 37.003906 21.769531 37.003906 C 21.941406 37.003906 22.101562 36.910156 22.1875 36.761719 L 25.625 30.804688 C 25.640625 30.777344 25.65625 30.75 25.664062 30.71875 C 25.671875 30.699219 25.675781 30.679688 25.679688 30.65625 C 25.683594 30.648438 25.683594 30.640625 25.6875 30.628906 C 25.6875 30.628906 25.6875 30.625 25.6875 30.625 C 25.6875 30.617188 25.6875 30.609375 25.6875 30.601562 C 25.6875 30.597656 25.6875 30.597656 25.6875 30.59375 C 25.691406 30.585938 25.691406 30.574219 25.691406 30.566406 L 25.691406 20.757812 L 26.242188 20.554688 L 27.007812 20.957031 L 27.386719 22.445312 C 27.4375 22.640625 27.605469 22.789062 27.8125 22.804688 L 29.445312 22.957031 C 29.460938 22.957031 29.476562 22.957031 29.488281 22.957031 C 29.675781 22.957031 29.847656 22.847656 29.929688 22.675781 L 30.574219 21.28125 L 31.398438 21.027344 L 32.71875 21.808594 C 32.894531 21.914062 33.117188 21.894531 33.273438 21.765625 L 34.535156 20.714844 C 34.695312 20.582031 34.75 20.367188 34.679688 20.175781 L 34.152344 18.734375 L 34.550781 17.96875 L 36.042969 17.589844 C 36.238281 17.539062 36.382812 17.367188 36.402344 17.164062 L 36.550781 15.53125 C 36.570312 15.328125 36.460938 15.132812 36.273438 15.046875 Z M 9.78125 28.886719 C 9.78125 29.039062 9.65625 29.164062 9.5 29.164062 L 1.679688 29.164062 C 1.523438 29.164062 1.398438 29.039062 1.398438 28.886719 L 1.398438 26.527344 C 1.398438 26.375 1.523438 26.25 1.679688 26.25 L 9.5 26.25 C 9.65625 26.25 9.78125 26.375 9.78125 26.527344 Z M 17.835938 2.597656 C 18.347656 2.085938 18.941406 1.683594 19.601562 1.40625 C 20.289062 1.117188 21.015625 0.96875 21.769531 0.96875 C 22.519531 0.96875 23.25 1.117188 23.933594 1.40625 C 24.597656 1.683594 25.191406 2.085938 25.703125 2.597656 C 26.214844 3.109375 26.613281 3.703125 26.894531 4.367188 C 27.183594 5.050781 27.332031 5.78125 27.332031 6.53125 C 27.332031 7.28125 27.183594 8.011719 26.894531 8.695312 C 26.613281 9.359375 26.214844 9.953125 25.703125 10.464844 C 25.191406 10.976562 24.597656 11.378906 23.933594 11.65625 C 23.25 11.945312 22.519531 12.09375 21.769531 12.09375 C 21.015625 12.09375 20.289062 11.945312 19.601562 11.65625 C 18.941406 11.378906 18.347656 10.976562 17.835938 10.464844 C 17.324219 9.953125 16.921875 9.359375 16.640625 8.695312 C 16.351562 8.011719 16.207031 7.28125 16.207031 6.53125 C 16.207031 5.78125 16.351562 5.050781 16.640625 4.367188 C 16.921875 3.703125 17.324219 3.109375 17.835938 2.597656 Z M 24.722656 20.414062 C 24.722656 20.417969 24.722656 20.421875 24.722656 20.425781 L 24.722656 30.082031 L 22.25 30.082031 L 22.25 13.042969 C 22.960938 12.992188 23.652344 12.824219 24.308594 12.546875 C 24.449219 12.488281 24.589844 12.421875 24.722656 12.355469 Z M 18.8125 30.082031 L 18.8125 12.355469 C 18.949219 12.421875 19.085938 12.488281 19.226562 12.546875 C 19.882812 12.824219 20.574219 12.992188 21.285156 13.042969 L 21.285156 30.082031 Z M 10.558594 5.800781 C 10.558594 5.644531 10.6875 5.519531 10.839844 5.519531 L 15.316406 5.519531 C 15.265625 5.851562 15.238281 6.191406 15.238281 6.53125 C 15.238281 7.183594 15.332031 7.824219 15.519531 8.4375 L 10.839844 8.4375 C 10.6875 8.4375 10.558594 8.3125 10.558594 8.15625 Z M 1.398438 15.066406 L 1.398438 12.710938 C 1.398438 12.554688 1.523438 12.429688 1.679688 12.429688 L 9.5 12.429688 C 9.65625 12.429688 9.78125 12.554688 9.78125 12.710938 L 9.78125 15.066406 C 9.78125 15.222656 9.65625 15.347656 9.5 15.347656 L 1.679688 15.347656 C 1.523438 15.347656 1.398438 15.222656 1.398438 15.066406 Z M 6.796875 20.3125 C 6.398438 20.3125 6.074219 19.988281 6.074219 19.589844 L 6.074219 16.3125 L 9.5 16.3125 C 10.1875 16.3125 10.75 15.753906 10.75 15.066406 L 10.75 12.710938 C 10.75 12.023438 10.1875 11.464844 9.5 11.464844 L 6.074219 11.464844 L 6.074219 8.1875 C 6.074219 7.789062 6.398438 7.460938 6.796875 7.460938 L 9.59375 7.460938 L 9.59375 8.15625 C 9.59375 8.84375 10.152344 9.402344 10.839844 9.402344 L 15.902344 9.402344 C 16.21875 10.050781 16.636719 10.636719 17.152344 11.148438 C 17.371094 11.367188 17.601562 11.570312 17.847656 11.753906 C 17.847656 11.757812 17.847656 11.761719 17.847656 11.761719 L 17.847656 18.371094 L 10.839844 18.371094 C 10.152344 18.371094 9.59375 18.933594 9.59375 19.621094 L 9.59375 20.3125 Z M 10.839844 22.257812 C 10.6875 22.257812 10.558594 22.128906 10.558594 21.976562 L 10.558594 19.621094 C 10.558594 19.464844 10.6875 19.339844 10.839844 19.339844 L 17.847656 19.339844 L 17.847656 22.257812 Z M 22.53125 34.234375 L 21.007812 34.234375 L 19.167969 31.046875 L 24.371094 31.046875 Z M 35.472656 16.738281 L 34.105469 17.085938 C 33.972656 17.121094 33.859375 17.210938 33.796875 17.332031 L 33.195312 18.476562 C 33.132812 18.597656 33.121094 18.738281 33.167969 18.867188 L 33.65625 20.191406 L 32.917969 20.804688 L 31.707031 20.085938 C 31.585938 20.015625 31.445312 20 31.316406 20.039062 L 30.082031 20.421875 C 29.949219 20.464844 29.84375 20.558594 29.785156 20.679688 L 29.195312 21.960938 L 28.238281 21.875 L 27.890625 20.507812 C 27.855469 20.375 27.765625 20.261719 27.644531 20.199219 L 26.5 19.597656 C 26.378906 19.535156 26.238281 19.523438 26.109375 19.574219 L 25.691406 19.726562 L 25.691406 16.484375 C 25.710938 16.582031 25.738281 16.683594 25.769531 16.78125 C 26.0625 17.722656 26.703125 18.492188 27.574219 18.949219 C 28.109375 19.230469 28.691406 19.375 29.28125 19.375 C 29.648438 19.375 30.019531 19.316406 30.378906 19.207031 C 31.320312 18.914062 32.089844 18.273438 32.546875 17.402344 C 33.003906 16.53125 33.09375 15.535156 32.804688 14.597656 C 32.511719 13.65625 31.871094 12.886719 31 12.429688 C 30.128906 11.972656 29.132812 11.882812 28.191406 12.171875 C 27.253906 12.464844 26.484375 13.105469 26.027344 13.976562 C 25.871094 14.269531 25.761719 14.574219 25.691406 14.890625 L 25.691406 11.753906 C 25.933594 11.570312 26.167969 11.367188 26.386719 11.148438 C 26.417969 11.117188 26.449219 11.085938 26.480469 11.050781 C 26.503906 11.074219 26.53125 11.097656 26.5625 11.113281 L 26.867188 11.292969 C 26.984375 11.363281 27.125 11.378906 27.257812 11.339844 L 28.492188 10.957031 C 28.621094 10.914062 28.730469 10.820312 28.785156 10.699219 L 29.378906 9.417969 L 30.335938 9.503906 L 30.683594 10.871094 C 30.71875 11.003906 30.804688 11.117188 30.925781 11.179688 L 32.070312 11.78125 C 32.191406 11.84375 32.335938 11.855469 32.464844 11.804688 L 33.785156 11.320312 L 34.402344 12.058594 L 33.679688 13.269531 C 33.613281 13.386719 33.59375 13.53125 33.636719 13.660156 L 34.019531 14.894531 C 34.058594 15.027344 34.152344 15.132812 34.277344 15.191406 L 35.558594 15.78125 Z M 26.882812 14.425781 C 27.21875 13.785156 27.789062 13.3125 28.480469 13.097656 C 28.746094 13.011719 29.019531 12.972656 29.289062 12.972656 C 29.722656 12.972656 30.15625 13.078125 30.550781 13.285156 C 31.191406 13.625 31.664062 14.191406 31.878906 14.882812 C 32.09375 15.574219 32.027344 16.3125 31.691406 16.953125 C 31.351562 17.59375 30.785156 18.066406 30.09375 18.285156 C 29.398438 18.5 28.664062 18.429688 28.023438 18.09375 C 27.378906 17.757812 26.910156 17.1875 26.691406 16.496094 C 26.476562 15.804688 26.542969 15.066406 26.882812 14.425781 Z M 26.882812 14.425781 " fill-opacity="1" fill-rule="nonzero"/></g></svg>