<svg width="50" height="50" viewBox="0 0 50 50" fill="none" xmlns="http://www.w3.org/2000/svg">
<g clip-path="url(#clip0_433_191)">
<mask id="mask0_433_191" style="mask-type:luminance" maskUnits="userSpaceOnUse" x="0" y="0" width="50" height="50">
<path d="M0.253906 0.266602H49.7539V49.7333H0.253906V0.266602Z" fill="white"/>
</mask>
<g mask="url(#mask0_433_191)">
<path d="M3.2263 28.4353C3.45807 29.941 3.84401 31.4077 4.38464 32.7978L3.14922 33.4925C2.80182 33.6858 2.53151 34.0332 2.41536 34.4191C2.29974 34.805 2.37682 35.23 2.57005 35.5774L4.50026 38.8972C4.92474 39.6311 5.89036 39.9009 6.6237 39.4764L7.85911 38.7431C8.82422 39.9009 9.90495 40.9821 11.0633 41.9472L10.3299 43.1827C10.1367 43.53 10.0596 43.9545 10.1753 44.3405C10.2909 44.7269 10.5227 45.0743 10.9086 45.267L14.2674 47.1978C14.4992 47.3519 14.7695 47.3905 15.0398 47.3905C15.5799 47.3905 16.082 47.1202 16.3909 46.6186L17.1242 45.3832C18.5529 45.9238 20.0195 46.3097 21.5253 46.541V48.1238C21.5253 48.9733 22.2201 49.6681 23.0695 49.6681H26.9299C27.7794 49.6681 28.4742 48.9733 28.4742 48.1238V46.541C29.9799 46.3097 31.4471 45.9238 32.8753 45.3832L33.6086 46.6186C34.0336 47.3519 34.9987 47.6222 35.732 47.1978L39.0909 45.267C39.4383 45.0743 39.7086 44.7269 39.8242 44.3405C39.9404 43.9545 39.8628 43.53 39.6701 43.1827L38.9362 41.9472C40.0945 40.9821 41.1753 39.9399 42.1409 38.7431L43.3758 39.4764C44.1096 39.9009 45.0747 39.6311 45.4992 38.8972L47.4294 35.5774C47.6227 35.23 47.6997 34.805 47.5841 34.4191C47.468 34.0332 47.2367 33.6858 46.8503 33.4925L45.6154 32.7978C46.1555 31.4077 46.5414 29.941 46.7732 28.4353H48.2018C49.0508 28.4353 49.7461 27.7405 49.7461 26.891V23.0306C49.7461 22.1811 49.0508 21.4863 48.2018 21.4863H46.7732C46.5414 19.9806 46.1555 18.5139 45.6154 17.1238L46.8503 16.429C47.1982 16.2358 47.468 15.8884 47.5841 15.5024C47.6997 15.1165 47.6227 14.6915 47.4294 14.3441L45.4992 11.0243C45.0747 10.2905 44.1096 10.0207 43.3758 10.4452L42.1409 11.1785C41.1753 10.0207 40.0945 8.93942 38.9362 7.97432L39.6701 6.7389C39.8628 6.3915 39.9404 5.96703 39.8242 5.58109C39.7086 5.19463 39.4768 4.84723 39.0909 4.65452L35.732 2.7238C34.9987 2.29932 34.0336 2.56963 33.6086 3.30296L32.8753 4.53838C31.4471 3.99827 29.9799 3.61182 28.4742 3.38057V1.87484C28.4742 1.02536 27.7794 0.330566 26.9299 0.330566H23.031C22.1815 0.330566 21.4867 1.02536 21.4867 1.87484V3.30296C19.981 3.53473 18.5143 3.92067 17.0857 4.4613L16.3523 3.22588C15.9273 2.49255 14.9622 2.22223 14.2289 2.64671L10.8701 4.57692C10.5227 4.77015 10.2523 5.11755 10.1367 5.50348C10.0211 5.88994 10.0982 6.31442 10.2909 6.66182L11.0247 7.89723C9.86641 8.86234 8.78568 9.90453 7.82057 11.1014L6.58516 10.3681C5.8513 9.94307 4.8862 10.2134 4.46172 10.9472L2.53151 14.267C2.33828 14.6144 2.2612 15.0394 2.37682 15.4254C2.49297 15.8113 2.72422 16.1587 3.11068 16.3519L4.34609 17.0467C3.80547 18.4363 3.41953 19.9035 3.18776 21.4092H1.79818C0.948698 21.4092 0.253906 22.104 0.253906 22.9535V26.8139C0.253906 27.6634 0.948698 28.3582 1.79818 28.3582H3.2263V28.4353ZM1.79818 23.0306H3.88255C4.26849 23.0306 4.61589 22.7603 4.65495 22.3743C4.8862 20.5597 5.34974 18.7837 6.08307 17.1238C6.23776 16.7764 6.08307 16.3519 5.77422 16.1587L3.95964 15.1165L5.89036 11.7962L7.70443 12.8389C8.05182 13.0316 8.47682 12.9545 8.70807 12.6457C9.82786 11.1785 11.1018 9.90453 12.569 8.78525C12.8779 8.55348 12.9549 8.129 12.7617 7.78161L11.7195 5.96703L15.0784 4.03682L16.1206 5.85088C16.3138 6.19828 16.7383 6.31442 17.0857 6.15973C18.7841 5.46494 20.5602 4.96338 22.3747 4.73161C22.7607 4.69307 23.0695 4.34567 23.0695 3.95921V1.87484H26.9299V3.95921C26.9299 4.34567 27.2388 4.69307 27.6247 4.73161C29.4393 4.96338 31.2154 5.4264 32.9138 6.15973C33.2612 6.31442 33.6862 6.15973 33.8789 5.85088L34.9216 4.03682L38.2799 5.96703L37.2378 7.78161C37.0445 8.129 37.1221 8.55348 37.431 8.78525C38.8977 9.90453 40.1716 11.1785 41.2914 12.6457C41.5232 12.9545 41.9477 13.0316 42.2951 12.8389L44.1096 11.7962L46.0398 15.1165L44.2253 16.1587C43.8779 16.3519 43.7622 16.7764 43.9164 17.1238C44.6112 18.8228 45.1133 20.5597 45.3451 22.3743C45.3836 22.7603 45.731 23.0306 46.1169 23.0306H48.2018V26.891H46.1169C45.731 26.891 45.3836 27.1613 45.3451 27.5472C45.1133 29.3618 44.6497 31.1379 43.9164 32.7978C43.7622 33.1452 43.9164 33.5696 44.2253 33.7629L46.0398 34.805L44.1096 38.1254L42.2951 37.0827C41.9477 36.8899 41.5232 36.967 41.2914 37.2759C40.1716 38.7431 38.8977 40.017 37.431 41.1363C37.1221 41.3681 37.0445 41.7925 37.2378 42.1399L38.2799 43.9545L34.9216 45.8847L33.8789 44.0707C33.6862 43.7233 33.2612 43.6071 32.9138 43.7618C31.2154 44.4566 29.4393 44.9582 27.6247 45.1899C27.2003 45.2285 26.8914 45.6149 26.9685 46.0394C26.9685 46.078 26.9685 46.078 26.9685 46.1165V48.2014H23.1081V46.1165C23.1081 46.078 23.1081 46.078 23.1081 46.0394C23.1466 45.6149 22.8763 45.2285 22.4518 45.1899C20.6372 44.9582 18.8617 44.4952 17.1628 43.7618C16.8154 43.6071 16.3909 43.7618 16.1977 44.0707L15.1555 45.8847L11.7966 43.9545L12.8393 42.1399C13.032 41.7925 12.9549 41.3681 12.6461 41.1363C11.1789 40.017 9.90495 38.7431 8.78568 37.2759C8.55391 36.967 8.12943 36.8899 7.78203 37.0827L5.8513 38.1639L3.92109 34.8436L5.73568 33.8014C6.08307 33.6082 6.1987 33.1837 6.04453 32.8363C5.34974 31.1379 4.84766 29.4004 4.61589 27.5858C4.57734 27.1998 4.22995 26.9295 3.84401 26.9295H1.75911V23.0306H1.79818Z" fill="#004AAD"/>
</g>
<path d="M20.9068 42.2562C20.9068 42.14 20.9454 41.9859 20.9454 41.8702C20.5209 41.5228 20.2506 41.0208 20.135 40.4801C13.5719 38.4343 8.74642 32.2958 8.74642 25.0379C8.74642 16.1202 16.0042 8.90096 24.9605 8.90096C33.9167 8.90096 41.1745 16.1588 41.1745 25.0379C41.1745 32.1416 36.5423 38.164 30.1334 40.326C30.0563 40.9437 29.7475 41.4838 29.323 41.8702C29.3615 41.9859 29.3615 42.0629 29.3615 42.1791C37.0438 40.2098 42.7188 33.2994 42.7188 25.0379C42.7188 15.2708 34.7662 7.35669 24.9605 7.35669C15.1548 7.35669 7.20215 15.2708 7.20215 25.0379C7.20215 33.4155 13.0699 40.4416 20.9068 42.2562Z" fill="#004AAD"/>
<path d="M30.5198 32.4506C32.836 30.7131 34.1485 28.0881 34.1485 25.2313C34.1485 22.7219 33.1448 20.4058 31.2917 18.6683C29.4001 16.9313 26.8521 16.0047 24.2271 16.1974C19.6329 16.5063 15.9266 20.1355 15.6178 24.6521C15.4251 27.7021 16.7761 30.5974 19.2084 32.4506C20.0573 33.0683 20.5209 33.9948 20.5209 34.9599V36.6969C20.5209 37.5849 21.2542 38.5501 22.2193 38.5501H27.5084C28.4735 38.5501 29.1297 37.5849 29.1297 36.6969V35.037C29.1683 34.0719 29.6704 33.0683 30.5198 32.4506ZM27.624 35.037V36.6969C27.624 36.8131 27.5469 36.9672 27.5084 37.0058H22.2969C22.2193 36.9672 22.1037 36.8131 22.1037 36.6969V34.9599C22.1037 33.4928 21.4089 32.1417 20.1735 31.2152C18.1271 29.6709 17.0079 27.2386 17.162 24.7292C17.3938 20.9844 20.4823 17.9735 24.3042 17.7032C24.4975 17.7032 24.6902 17.7032 24.8448 17.7032C26.8521 17.7032 28.7053 18.4365 30.1725 19.7881C31.7162 21.2162 32.5657 23.1464 32.5657 25.2313C32.5657 27.586 31.485 29.748 29.5547 31.2152C28.3579 32.1417 27.624 33.5698 27.624 35.037Z" fill="#004AAD"/>
<path d="M25.9261 13.9584V12.2985C25.9261 11.8735 25.5787 11.5261 25.1542 11.5261C24.7292 11.5261 24.3818 11.8735 24.3818 12.2985V13.9584C24.3818 14.3829 24.7292 14.7308 25.1542 14.7308C25.5787 14.7308 25.9261 14.3829 25.9261 13.9584Z" fill="#004AAD"/>
<path d="M19.5948 16.2744C19.7105 16.2744 19.8652 16.2359 19.9808 16.1588C20.3667 15.9656 20.4829 15.464 20.2896 15.1166L19.4792 13.6494C19.286 13.2635 18.7839 13.1478 18.4365 13.3406C18.0506 13.5338 17.935 14.0353 18.1277 14.3827L18.9386 15.8499C19.0542 16.1202 19.3245 16.2744 19.5948 16.2744Z" fill="#004AAD"/>
<path d="M30.7133 16.2744C30.9836 16.2744 31.2539 16.1203 31.3696 15.8885L32.1805 14.4218C32.3737 14.0354 32.2576 13.5724 31.8716 13.3791C31.4857 13.1864 31.0222 13.302 30.8295 13.688L30.0185 15.1552C29.8253 15.5411 29.9414 16.0046 30.3274 16.1974C30.443 16.2359 30.5591 16.2744 30.7133 16.2744Z" fill="#004AAD"/>
<path d="M27.8563 39.3225H22.4516C22.0271 39.3225 21.6797 39.6699 21.6797 40.0944C21.6797 40.5189 22.0271 40.8663 22.4516 40.8663H27.8563C28.2813 40.8663 28.6286 40.5189 28.6286 40.0944C28.6286 39.6699 28.2813 39.3225 27.8563 39.3225Z" fill="#004AAD"/>
<path d="M27.084 41.6384H23.2236C22.7986 41.6384 22.4512 41.9858 22.4512 42.4103C22.4512 42.8353 22.7986 43.1827 23.2236 43.1827H27.084C27.5085 43.1827 27.8559 42.8353 27.8559 42.4103C27.8559 41.9858 27.5085 41.6384 27.084 41.6384Z" fill="#004AAD"/>
<path d="M15.5022 20.4828C15.7725 20.4828 16.0043 20.3666 16.1585 20.0969C16.3902 19.7489 16.2741 19.2474 15.8882 19.0541L14.4986 18.2052C14.1512 17.9734 13.6491 18.089 13.4564 18.475C13.2632 18.8614 13.3402 19.3245 13.7262 19.5177L15.1163 20.3666C15.2319 20.4442 15.3866 20.4828 15.5022 20.4828Z" fill="#004AAD"/>
<path d="M12.4145 24.6521C11.99 24.6521 11.6426 24.9995 11.6426 25.424C11.6426 25.849 11.99 26.1964 12.4145 26.1964H14.0358C14.4608 26.1964 14.8082 25.849 14.8082 25.424C14.8082 24.9995 14.4608 24.6521 14.0358 24.6521H12.4145Z" fill="#004AAD"/>
<path d="M35.4234 18.2053L34.0338 19.0542C33.6864 19.286 33.5317 19.749 33.7635 20.0969C33.9177 20.3282 34.1494 20.4829 34.4197 20.4829C34.5354 20.4829 34.6901 20.4443 34.8057 20.3667L36.1958 19.5178C36.5432 19.286 36.6973 18.823 36.4661 18.4751C36.2343 18.1277 35.7708 17.9735 35.4234 18.2053Z" fill="#004AAD"/>
<path d="M35.1143 25.424C35.1143 25.849 35.4617 26.1964 35.8867 26.1964H37.508C37.9325 26.1964 38.2799 25.849 38.2799 25.424C38.2799 24.9995 37.9325 24.6521 37.508 24.6521H35.8867C35.4617 24.6521 35.1143 24.9995 35.1143 25.424Z" fill="#004AAD"/>
<path d="M27.8945 22.1813L23.8023 26.2735L22.0268 24.498C21.7179 24.1892 21.2544 24.1892 20.9455 24.498C20.6367 24.8069 20.6367 25.2699 20.9455 25.5787L23.2622 27.8949C23.4163 28.0496 23.6096 28.1267 23.8023 28.1267C23.9955 28.1267 24.1887 28.0496 24.3429 27.8949L28.9757 23.2626C29.2846 22.9537 29.2846 22.4902 28.9757 22.1813C28.6669 21.8725 28.2033 21.8725 27.8945 22.1813Z" fill="#004AAD"/>
</g>
<defs>
<clipPath id="clip0_433_191">
<rect width="50" height="50" fill="white"/>
</clipPath>
</defs>
</svg>
