<svg width="50" height="34" viewBox="0 0 50 34" fill="none" xmlns="http://www.w3.org/2000/svg">
<g clip-path="url(#clip0_428_137)">
<path fill-rule="evenodd" clip-rule="evenodd" d="M24.347 2.32452C23.9268 1.38443 24.347 0.218022 25.0998 0.218022H30.9474C31.7982 0.152302 31.9973 0.434686 32.0854 1.24516V9.68862V9.68959C32.0851 9.73549 32.0848 9.76723 31.987 9.87096L26.3253 15.5859C25.6132 16.6125 25.705 17.0533 26.5069 18.0798C27.5919 19.3533 28.4234 20.3199 29.2482 21.2789C30.0599 22.2226 30.8651 23.1589 31.8994 24.3729C32.033 24.5295 32.0854 24.6687 32.0854 24.852V32.9473C32.0964 33.7436 31.8567 33.9768 30.9474 33.9745H25.7826C23.9443 33.9745 23.9443 32.3289 23.9443 31.5893C23.9443 31.3798 23.217 31.545 22.0204 31.8168C18.9956 32.5039 12.9721 33.8722 8.11714 31.5893C0.554137 28.0333 -5.04881 11.4122 7.01415 2.93386C10.5157 0.472821 17.7114 -1.19214 24.347 2.32452ZM15.6105 25.6877C20.4452 25.6877 24.3645 21.7905 24.3645 16.983C24.3645 12.1757 20.4452 8.27849 15.6105 8.27849C10.7759 8.27849 6.85657 12.1757 6.85657 16.983C6.85657 21.7905 10.7759 25.6877 15.6105 25.6877Z" fill="white"/>
<path d="M45.9131 0.463555C45.1234 -0.119169 44.6641 -0.188885 43.7946 0.463555C43.7946 0.463555 29.9633 14.8958 29.1054 15.9577C28.2476 17.0197 28.5802 17.3679 29.0354 18.2732L43.7946 33.4191C44.9503 34.2283 45.5096 34.1582 46.4032 33.4191L49.8173 29.415C49.9651 28.879 49.9337 28.5607 49.3972 27.9178L39.9779 17.716C39.4287 17.1003 39.4117 16.7856 39.9779 16.2885L49.3972 6.03449C50.002 5.10309 49.9661 4.63156 49.3972 3.85834L45.9131 0.463555Z" fill="white"/>
</g>
<defs>
<clipPath id="clip0_428_137">
<rect width="50" height="34" fill="white"/>
</clipPath>
</defs>
</svg>
