<svg width="300" height="300" viewBox="0 0 300 300" fill="none" xmlns="http://www.w3.org/2000/svg">
<mask id="mask0_329_9899" style="mask-type:luminance" maskUnits="userSpaceOnUse" x="250" y="82" width="48" height="218">
<path d="M250.363 82.4947H297.029V300H250.363V82.4947Z" fill="white"/>
</mask>
<g mask="url(#mask0_329_9899)">
<path d="M253.645 82.786H294.217V299.973H253.645V82.786Z" fill="#5096E6"/>
</g>
<mask id="mask1_329_9899" style="mask-type:luminance" maskUnits="userSpaceOnUse" x="190" y="116" width="48" height="184">
<path d="M190.364 116.393H237.03V300H190.364V116.393Z" fill="white"/>
</mask>
<g mask="url(#mask1_329_9899)">
<path d="M192.762 118.988H233.36V299.974H192.762V118.988Z" fill="#7DBD59"/>
</g>
<mask id="mask2_329_9899" style="mask-type:luminance" maskUnits="userSpaceOnUse" x="130" y="143" width="48" height="157">
<path d="M130.364 143.512H177.03V300H130.364V143.512Z" fill="white"/>
</mask>
<g mask="url(#mask2_329_9899)">
<path d="M131.902 150H172.475V299.973H131.902V150Z" fill="#F2B755"/>
</g>
<mask id="mask3_329_9899" style="mask-type:luminance" maskUnits="userSpaceOnUse" x="70" y="170" width="48" height="130">
<path d="M70.3652 170.63H117.031V300H70.3652V170.63Z" fill="white"/>
</mask>
<g mask="url(#mask3_329_9899)">
<path d="M71.0146 175.847H111.613V299.973H71.0146V175.847Z" fill="#E06963"/>
</g>
<mask id="mask4_329_9899" style="mask-type:luminance" maskUnits="userSpaceOnUse" x="23" y="21" width="277" height="130">
<path d="M23.7002 21.4778H299.999V150.291H23.7002V21.4778Z" fill="white"/>
</mask>
<g mask="url(#mask4_329_9899)">
<path d="M33.1812 144.836C31.4625 144.836 29.7959 143.962 28.8323 142.346C27.374 139.91 28.1292 136.732 30.525 135.249L77.686 105.826C80.0037 104.396 83.0245 105.058 84.5349 107.362L97.6597 127.172L167.841 75.3178C168.961 74.4968 170.341 74.1526 171.695 74.4174C173.05 74.6557 174.247 75.4502 175.029 76.6155L188.258 96.6102L291.434 26.7479C293.751 25.1854 296.902 25.821 298.465 28.2045C300.001 30.588 299.376 33.7924 297.033 35.3814L189.69 108.051C187.372 109.613 184.221 109.004 182.659 106.647L169.56 86.8379L99.3524 138.665C98.2587 139.486 96.8524 139.831 95.4983 139.592C94.1441 139.327 92.9462 138.533 92.191 137.394L78.8318 117.24L35.8114 144.068C34.9781 144.597 34.0667 144.836 33.1812 144.836Z" fill="#36659C"/>
</g>
<mask id="mask5_329_9899" style="mask-type:luminance" maskUnits="userSpaceOnUse" x="263" y="14" width="37" height="49">
<path d="M263.698 14.6981H300V62.1557H263.698V14.6981Z" fill="white"/>
</mask>
<g mask="url(#mask5_329_9899)">
<path d="M289.4 61.6261C289.087 61.6261 288.749 61.5996 288.436 61.5201C285.676 60.9905 283.879 58.2627 284.426 55.4555L288.28 35.1695L268.358 31.2235C265.598 30.6674 263.801 27.9661 264.348 25.1589C264.869 22.3517 267.551 20.5244 270.285 21.054L295.181 25.9799C297.941 26.536 299.738 29.2373 299.217 32.0445L294.374 57.4417C293.905 59.9047 291.77 61.6261 289.4 61.6261Z" fill="#36659C"/>
</g>
<mask id="mask6_329_9899" style="mask-type:luminance" maskUnits="userSpaceOnUse" x="43" y="0" width="95" height="97">
<path d="M43.7002 0H137.033V96.054H43.7002V0Z" fill="white"/>
</mask>
<g mask="url(#mask6_329_9899)">
<path d="M136.981 46.5837C136.981 49.6293 136.669 52.6748 136.096 55.6674C135.497 58.66 134.638 61.5731 133.492 64.3803C132.346 67.214 130.94 69.8888 129.273 72.4312C127.607 74.9736 125.706 77.3305 123.596 79.4757C121.487 81.6473 119.169 83.5805 116.669 85.2755C114.195 86.9704 111.565 88.4005 108.779 89.5657C106.018 90.7575 103.154 91.6314 100.211 92.214C97.2683 92.8231 94.2996 93.1144 91.3048 93.1144C88.3101 93.1144 85.3414 92.8231 82.3987 92.214C79.456 91.6314 76.6175 90.7575 73.8311 89.5657C71.0707 88.4005 68.4405 86.9704 65.9405 85.2755C63.4666 83.5805 61.1489 81.6473 59.0396 79.4757C56.9042 77.3305 55.0292 74.9736 53.3625 72.4312C51.6959 69.8888 50.2897 67.214 49.1438 64.3803C47.998 61.5731 47.1126 58.66 46.5397 55.6674C45.9408 52.6748 45.6543 49.6293 45.6543 46.5837C45.6543 43.5117 45.9408 40.4926 46.5397 37.5001C47.1126 34.5075 47.998 31.5943 49.1438 28.7607C50.2897 25.9534 51.6959 23.2522 53.3625 20.7098C55.0292 18.1939 56.9042 15.8369 59.0396 13.6653C61.1489 11.5202 63.4666 9.58693 65.9405 7.89201C68.4405 6.1971 71.0707 4.74053 73.8311 3.57528C76.6175 2.41002 79.456 1.53609 82.3987 0.926974C85.3414 0.344343 88.3101 0.0265503 91.3048 0.0265503C94.2996 0.0265503 97.2683 0.344343 100.211 0.926974C103.154 1.53609 106.018 2.41002 108.779 3.57528C111.565 4.74053 114.195 6.1971 116.669 7.89201C119.169 9.58693 121.487 11.5202 123.596 13.6653C125.706 15.8369 127.607 18.1939 129.273 20.7098C130.94 23.2522 132.346 25.9534 133.492 28.7607C134.638 31.5943 135.497 34.5075 136.096 37.5001C136.669 40.4926 136.981 43.5117 136.981 46.5837Z" fill="#7DBD59"/>
</g>
<path d="M71.0146 72.4311C69.7125 72.4311 68.4105 71.9279 67.4209 70.9216C65.4417 68.9089 65.4417 65.625 67.4209 63.6123L108.019 22.2458C109.999 20.2066 113.202 20.2066 115.181 22.2458C117.16 24.2585 117.16 27.5424 115.181 29.5551L74.6083 70.9216C73.6187 71.9279 72.3167 72.4311 71.0146 72.4311Z" fill="#42642F"/>
<path d="M76.0959 46.5837C67.7105 46.5837 60.8877 39.6186 60.8877 31.0646C60.8877 22.5106 67.7105 15.5456 76.0959 15.5456C84.4812 15.5456 91.304 22.5106 91.304 31.0646C91.304 39.6186 84.4812 46.5837 76.0959 46.5837ZM76.0959 25.9004C73.2834 25.9004 71.0178 28.2045 71.0178 31.0646C71.0178 33.9248 73.2834 36.2288 76.0959 36.2288C78.8823 36.2288 81.1739 33.9248 81.1739 31.0646C81.1739 28.2045 78.8823 25.9004 76.0959 25.9004Z" fill="#42642F"/>
<path d="M106.537 77.5953C98.1256 77.5953 91.3027 70.6568 91.3027 62.1028C91.3027 53.5487 98.1256 46.5837 106.537 46.5837C114.922 46.5837 121.745 53.5487 121.745 62.1028C121.745 70.6568 114.922 77.5953 106.537 77.5953ZM106.537 56.9121C103.724 56.9121 101.459 59.2426 101.459 62.1028C101.459 64.9365 103.724 67.267 106.537 67.267C109.323 67.267 111.615 64.9365 111.615 62.1028C111.615 59.2426 109.323 56.9121 106.537 56.9121Z" fill="#42642F"/>
<mask id="mask7_329_9899" style="mask-type:luminance" maskUnits="userSpaceOnUse" x="0" y="272" width="98" height="28">
<path d="M0 272.325H97.0302V300H0V272.325Z" fill="white"/>
</mask>
<g mask="url(#mask7_329_9899)">
<path d="M91.3011 277.33V296.742C91.3011 298.517 89.8949 299.973 88.1501 299.973H3.17705C1.40623 299.973 0 298.517 0 296.742V277.33C0 275.556 1.40623 274.099 3.17705 274.099H88.1501C89.8949 274.099 91.3011 275.556 91.3011 277.33Z" fill="#D19E4A"/>
</g>
<path d="M20.2863 274.099V279.29C20.2863 282.15 18.0208 284.454 15.2083 284.454C12.4219 284.454 10.1562 282.15 10.1562 279.29V274.099H20.2863Z" fill="#957135"/>
<path d="M35.5224 274.099V279.29C35.5224 282.15 33.2307 284.454 30.4443 284.454C27.6318 284.454 25.3662 282.15 25.3662 279.29V274.099H35.5224Z" fill="#957135"/>
<path d="M50.7323 274.099V279.29C50.7323 282.15 48.4667 284.454 45.6542 284.454C42.8418 284.454 40.5762 282.15 40.5762 279.29V274.099H50.7323Z" fill="#957135"/>
<path d="M65.9397 274.099V279.29C65.9397 282.15 63.6741 284.454 60.8876 284.454C58.0752 284.454 55.8096 282.15 55.8096 279.29V274.099H65.9397Z" fill="#957135"/>
<path d="M81.1708 274.099V279.29C81.1708 282.15 78.9052 284.454 76.0927 284.454C73.2802 284.454 71.0146 282.15 71.0146 279.29V274.099H81.1708Z" fill="#957135"/>
<path d="M96.3792 251.483V270.869C96.3792 272.67 94.973 274.1 93.2022 274.1H8.22913C6.48436 274.1 5.07812 272.67 5.07812 270.869V251.483C5.07812 249.709 6.48436 248.252 8.22913 248.252H93.2022C94.973 248.252 96.3792 249.709 96.3792 251.483Z" fill="#F2B755"/>
<path d="M25.3661 248.252V253.416C25.3661 256.276 23.1005 258.607 20.288 258.607C17.4756 258.607 15.21 256.276 15.21 253.416V248.252H25.3661Z" fill="#957135"/>
<path d="M40.5744 248.252V253.416C40.5744 256.276 38.3088 258.607 35.5224 258.607C32.7099 258.607 30.4443 256.276 30.4443 253.416V248.252H40.5744Z" fill="#957135"/>
<path d="M55.8095 248.252V253.416C55.8095 256.276 53.5439 258.607 50.7314 258.607C47.9189 258.607 45.6533 256.276 45.6533 253.416V248.252H55.8095Z" fill="#957135"/>
<path d="M71.0178 248.252V253.416C71.0178 256.276 68.7522 258.607 65.9397 258.607C63.1533 258.607 60.8877 256.276 60.8877 253.416V248.252H71.0178Z" fill="#957135"/>
<path d="M86.2489 248.252V253.416C86.2489 256.276 83.9573 258.607 81.1708 258.607C78.3584 258.607 76.0928 256.276 76.0928 253.416V248.252H86.2489Z" fill="#957135"/>
<mask id="mask8_329_9899" style="mask-type:luminance" maskUnits="userSpaceOnUse" x="0" y="218" width="98" height="34">
<path d="M0 218.088H97.0302V251.986H0V218.088Z" fill="white"/>
</mask>
<g mask="url(#mask8_329_9899)">
<path d="M91.3011 225.636V245.021C91.3011 246.795 89.8949 248.252 88.1501 248.252H3.17705C1.40623 248.252 0 246.795 0 245.021V225.636C0 223.835 1.40623 222.405 3.17705 222.405H88.1501C89.8949 222.405 91.3011 223.835 91.3011 225.636Z" fill="#D19E4A"/>
</g>
<path d="M20.2863 222.405V227.569C20.2863 230.429 18.0208 232.733 15.2083 232.733C12.4219 232.733 10.1562 230.429 10.1562 227.569V222.405H20.2863Z" fill="#957135"/>
<path d="M35.5224 222.405V227.569C35.5224 230.429 33.2307 232.733 30.4443 232.733C27.6318 232.733 25.3662 230.429 25.3662 227.569V222.405H35.5224Z" fill="#957135"/>
<path d="M50.7323 222.405V227.569C50.7323 230.429 48.4667 232.733 45.6542 232.733C42.8418 232.733 40.5762 230.429 40.5762 227.569V222.405H50.7323Z" fill="#957135"/>
<path d="M65.9397 222.405V227.569C65.9397 230.429 63.6741 232.733 60.8876 232.733C58.0752 232.733 55.8096 230.429 55.8096 227.569V222.405H65.9397Z" fill="#957135"/>
<path d="M81.1708 222.405V227.569C81.1708 230.429 78.9052 232.733 76.0927 232.733C73.2802 232.733 71.0146 230.429 71.0146 227.569V222.405H81.1708Z" fill="#957135"/>
<mask id="mask9_329_9899" style="mask-type:luminance" maskUnits="userSpaceOnUse" x="0" y="123" width="98" height="102">
<path d="M0 123.173H97.0302V224.868H0V123.173Z" fill="white"/>
</mask>
<g mask="url(#mask9_329_9899)">
<path d="M91.3011 175.847C91.3011 178.92 91.0146 181.939 90.4417 184.931C89.8428 187.924 88.9834 190.837 87.8376 193.671C86.6918 196.504 85.2855 199.179 83.6189 201.721C81.9522 204.264 80.0512 206.594 77.9419 208.766C75.8065 210.938 73.5148 212.844 71.0149 214.566C68.5149 216.261 65.8847 217.691 63.1243 218.856C60.3639 220.021 57.4994 220.895 54.5567 221.504C51.614 222.113 48.6453 222.405 45.6505 222.405C42.6558 222.405 39.6871 222.113 36.7444 221.504C33.8017 220.895 30.9632 220.021 28.1768 218.856C25.4164 217.691 22.7862 216.261 20.2862 214.566C17.7863 212.844 15.4946 210.938 13.3592 208.766C11.2499 206.594 9.34886 204.264 7.68221 201.721C6.01556 199.179 4.60933 196.504 3.4635 193.671C2.31768 190.837 1.45831 187.924 0.885407 184.931C0.286454 181.939 0 178.92 0 175.847C0 172.802 0.286454 169.783 0.885407 166.79C1.45831 163.771 2.31768 160.858 3.4635 158.051C4.60933 155.217 6.01556 152.542 7.68221 150C9.34886 147.458 11.2499 145.101 13.3592 142.956C15.4946 140.784 17.7863 138.851 20.2862 137.156C22.7862 135.461 25.4164 134.031 28.1768 132.866C30.9632 131.7 33.8017 130.8 36.7444 130.217C39.6871 129.608 42.6558 129.317 45.6505 129.317C48.6453 129.317 51.614 129.608 54.5567 130.217C57.4994 130.8 60.3639 131.7 63.1243 132.866C65.8847 134.031 68.5149 135.461 71.0149 137.156C73.5148 138.851 75.8065 140.784 77.9419 142.956C80.0512 145.101 81.9522 147.458 83.6189 150C85.2855 152.542 86.6918 155.217 87.8376 158.051C88.9834 160.858 89.8428 163.771 90.4417 166.79C91.0146 169.783 91.3011 172.802 91.3011 175.847Z" fill="#F2B755"/>
</g>
<path d="M55.8085 206.886H35.5223C27.1109 206.886 20.2881 199.92 20.2881 191.366C20.2881 188.506 22.5537 186.202 25.3662 186.202C28.1526 186.202 30.4442 188.506 30.4442 191.366C30.4442 194.227 32.7098 196.531 35.5223 196.531H55.8085C58.595 196.531 60.8866 194.227 60.8866 191.366V186.202C60.8866 183.342 58.595 181.038 55.8085 181.038H35.5223C27.1109 181.038 20.2881 174.073 20.2881 165.519V160.355C20.2881 151.801 27.1109 144.836 35.5223 144.836H55.8085C64.1939 144.836 71.0167 151.801 71.0167 160.355C71.0167 163.189 68.7511 165.519 65.9386 165.519C63.1522 165.519 60.8866 163.189 60.8866 160.355C60.8866 157.495 58.595 155.164 55.8085 155.164H35.5223C32.7098 155.164 30.4442 157.495 30.4442 160.355V165.519C30.4442 168.379 32.7098 170.683 35.5223 170.683H55.8085C64.1939 170.683 71.0167 177.648 71.0167 186.202V191.366C71.0167 199.92 64.1939 206.886 55.8085 206.886Z" fill="#957135"/>
<path d="M45.6542 212.05C42.8678 212.05 40.5762 209.746 40.5762 206.886V144.836C40.5762 141.976 42.8678 139.672 45.6542 139.672C48.4667 139.672 50.7323 141.976 50.7323 144.836V206.886C50.7323 209.746 48.4667 212.05 45.6542 212.05Z" fill="#957135"/>
</svg>
