<svg width="526" height="124" viewBox="0 0 526 124" fill="none" xmlns="http://www.w3.org/2000/svg">
<path d="M176.439 93.0026C173.887 93.0026 171.274 92.7899 168.601 92.3646C165.988 92 163.466 91.4531 161.036 90.724C158.666 89.9949 156.54 89.0834 154.656 87.9897C153.319 87.2606 152.377 86.3188 151.831 85.1643C151.284 83.949 151.071 82.7338 151.193 81.5186C151.375 80.3033 151.831 79.24 152.56 78.3286C153.35 77.3564 154.322 76.7488 155.476 76.5057C156.692 76.2019 158.028 76.4146 159.487 77.1437C161.978 78.5412 164.682 79.5742 167.598 80.2426C170.576 80.911 173.523 81.2451 176.439 81.2451C180.875 81.2451 184.034 80.5768 185.918 79.24C187.802 77.8425 188.743 76.1108 188.743 74.0449C188.743 72.2828 188.075 70.8852 186.738 69.8523C185.402 68.8193 183.062 67.9383 179.72 67.2091L169.421 65.0217C163.588 63.8065 159.244 61.7406 156.388 58.824C153.593 55.8467 152.195 51.9579 152.195 47.1577C152.195 44.1196 152.833 41.355 154.109 38.8637C155.385 36.3725 157.178 34.2154 159.487 32.3926C161.796 30.5697 164.53 29.1722 167.689 28.2C170.91 27.2278 174.434 26.7417 178.262 26.7417C181.665 26.7417 185.007 27.167 188.288 28.0177C191.569 28.8076 194.455 29.9925 196.946 31.5723C198.162 32.3014 198.982 33.2432 199.407 34.3977C199.893 35.4914 200.045 36.6155 199.863 37.77C199.741 38.8637 199.286 39.8359 198.496 40.6866C197.767 41.5372 196.825 42.0841 195.67 42.3271C194.516 42.5702 193.118 42.2968 191.478 41.5069C189.473 40.4739 187.346 39.7144 185.098 39.2283C182.85 38.7422 180.541 38.4991 178.171 38.4991C175.619 38.4991 173.431 38.8333 171.609 39.5017C169.846 40.1701 168.479 41.1119 167.507 42.3271C166.596 43.5424 166.14 44.9399 166.14 46.5197C166.14 48.2818 166.778 49.7097 168.054 50.8034C169.33 51.8971 171.548 52.7782 174.707 53.4466L185.007 55.634C190.961 56.91 195.397 58.9759 198.313 61.8317C201.23 64.6268 202.688 68.3332 202.688 72.9511C202.688 75.9892 202.081 78.7539 200.865 81.2451C199.65 83.6756 197.888 85.7719 195.579 87.534C193.27 89.2961 190.506 90.6632 187.285 91.6354C184.065 92.5469 180.449 93.0026 176.439 93.0026ZM232.184 93.0026C227.384 93.0026 223.192 92.0608 219.607 90.1771C216.082 88.2935 213.348 85.5896 211.404 82.0654C209.459 78.5412 208.487 74.379 208.487 69.5789C208.487 65.9939 209.034 62.7735 210.128 59.9177C211.222 57.0619 212.801 54.6314 214.867 52.6263C216.994 50.5604 219.516 49.011 222.432 47.978C225.349 46.8843 228.599 46.3374 232.184 46.3374C236.985 46.3374 241.147 47.2792 244.671 49.1629C248.256 51.0465 251.021 53.72 252.965 57.1834C254.97 60.6469 255.973 64.7787 255.973 69.5789C255.973 73.2246 255.395 76.4753 254.241 79.3311C253.147 82.187 251.567 84.6478 249.502 86.7137C247.436 88.7796 244.914 90.3594 241.937 91.4531C239.02 92.4861 235.769 93.0026 232.184 93.0026ZM232.184 82.7034C234.19 82.7034 235.921 82.2173 237.38 81.2451C238.838 80.273 239.992 78.845 240.843 76.9614C241.694 75.017 242.119 72.5562 242.119 69.5789C242.119 65.1432 241.208 61.8925 239.385 59.8266C237.562 57.6999 235.162 56.6366 232.184 56.6366C230.24 56.6366 228.508 57.0923 226.989 58.0037C225.531 58.9151 224.376 60.343 223.526 62.2874C222.736 64.171 222.341 66.6015 222.341 69.5789C222.341 74.0145 223.252 77.326 225.075 79.5134C226.898 81.6401 229.268 82.7034 232.184 82.7034ZM274.291 92.8203C272.043 92.8203 270.311 92.2127 269.096 90.9974C267.941 89.7822 267.364 88.0505 267.364 85.8023V57.548H264.083C262.382 57.548 261.045 57.0923 260.073 56.1809C259.161 55.2694 258.706 54.0238 258.706 52.444C258.706 50.7427 259.161 49.4667 260.073 48.616C261.045 47.7046 262.382 47.2489 264.083 47.2489H271.374L267.364 50.8946V48.0691C267.364 41.5676 268.974 36.7067 272.195 33.4863C275.476 30.2659 280.276 28.3215 286.595 27.6531L289.512 27.3797C291.092 27.2582 292.337 27.5012 293.249 28.1089C294.221 28.7165 294.859 29.5064 295.163 30.4786C295.466 31.4508 295.527 32.4533 295.345 33.4863C295.163 34.4585 294.737 35.3395 294.069 36.1294C293.461 36.8586 292.611 37.2535 291.517 37.3143L290.241 37.4054C286.96 37.6485 284.62 38.4384 283.223 39.7751C281.825 41.0511 281.127 43.0259 281.127 45.6994V48.7983L279.395 47.2489H287.598C289.36 47.2489 290.697 47.7046 291.608 48.616C292.52 49.4667 292.975 50.7427 292.975 52.444C292.975 54.0238 292.52 55.2694 291.608 56.1809C290.697 57.0923 289.36 57.548 287.598 57.548H281.127V85.8023C281.127 90.481 278.848 92.8203 274.291 92.8203ZM317.998 93.0026C313.805 93.0026 310.281 92.3038 307.425 90.9063C304.63 89.5088 302.534 87.4732 301.136 84.7997C299.799 82.1262 299.131 78.7539 299.131 74.6829V57.548H295.303C293.602 57.548 292.265 57.0923 291.293 56.1809C290.381 55.2694 289.926 54.0238 289.926 52.444C289.926 50.7427 290.381 49.4667 291.293 48.616C292.265 47.7046 293.602 47.2489 295.303 47.2489H299.131V40.322C299.131 38.013 299.739 36.2813 300.954 35.1269C302.169 33.9116 303.87 33.304 306.058 33.304C308.306 33.304 310.007 33.9116 311.162 35.1269C312.316 36.2813 312.894 38.013 312.894 40.322V47.2489H321.552C323.253 47.2489 324.56 47.7046 325.471 48.616C326.383 49.4667 326.838 50.7427 326.838 52.444C326.838 54.0238 326.383 55.2694 325.471 56.1809C324.56 57.0923 323.253 57.548 321.552 57.548H312.894V74.136C312.894 76.688 313.471 78.602 314.625 79.878C315.84 81.154 317.754 81.792 320.367 81.792C321.279 81.792 322.129 81.7009 322.919 81.5186C323.709 81.3363 324.438 81.2148 325.107 81.154C325.957 81.0932 326.656 81.3667 327.203 81.9743C327.75 82.5211 328.023 83.7668 328.023 85.7111C328.023 87.1694 327.78 88.4454 327.294 89.5391C326.808 90.6329 325.957 91.4228 324.742 91.9089C323.952 92.2127 322.858 92.4557 321.461 92.638C320.124 92.881 318.97 93.0026 317.998 93.0026Z" fill="white"/>
<path d="M356.487 92.8203C354.178 92.8203 352.416 92.1823 351.201 90.9063C349.985 89.6303 349.378 87.8378 349.378 85.5289V39.4106H333.245C331.362 39.4106 329.904 38.8941 328.871 37.8611C327.838 36.8282 327.321 35.4003 327.321 33.5774C327.321 31.6938 327.838 30.2659 328.871 29.2937C329.904 28.2608 331.362 27.7443 333.245 27.7443H379.637C381.521 27.7443 382.979 28.2608 384.012 29.2937C385.045 30.2659 385.561 31.6938 385.561 33.5774C385.561 35.4003 385.045 36.8282 384.012 37.8611C382.979 38.8941 381.521 39.4106 379.637 39.4106H363.505V85.5289C363.505 87.8378 362.897 89.6303 361.682 90.9063C360.528 92.1823 358.796 92.8203 356.487 92.8203ZM406.5 93.0026C401.214 93.0026 396.657 92.0608 392.829 90.1771C389.061 88.2328 386.145 85.5289 384.079 82.0654C382.074 78.5412 381.071 74.4094 381.071 69.67C381.071 65.0521 382.043 61.0114 383.988 57.548C385.932 54.0238 388.636 51.2895 392.1 49.3451C395.624 47.34 399.604 46.3374 404.039 46.3374C407.26 46.3374 410.176 46.8843 412.789 47.978C415.402 49.011 417.65 50.53 419.534 52.5351C421.417 54.4795 422.845 56.8796 423.817 59.7354C424.789 62.5305 425.276 65.6597 425.276 69.1231C425.276 70.2776 424.911 71.1587 424.182 71.7663C423.453 72.3131 422.389 72.5866 420.992 72.5866H392.373V65.4774H415.341L413.883 66.7534C413.883 64.2622 413.518 62.1963 412.789 60.5557C412.06 58.8544 410.996 57.5784 409.599 56.7277C408.262 55.877 406.591 55.4517 404.586 55.4517C402.338 55.4517 400.424 55.9682 398.844 57.0011C397.264 58.0341 396.049 59.5228 395.198 61.4671C394.348 63.4115 393.922 65.7509 393.922 68.4851V69.2143C393.922 73.8322 394.986 77.2349 397.112 79.4223C399.3 81.6097 402.52 82.7034 406.774 82.7034C408.232 82.7034 409.903 82.5211 411.786 82.1566C413.67 81.792 415.432 81.2148 417.073 80.4249C418.47 79.7565 419.716 79.5438 420.81 79.7869C421.903 79.9691 422.754 80.4552 423.362 81.2451C423.969 82.035 424.303 82.9465 424.364 83.9794C424.486 85.0124 424.273 86.0453 423.726 87.0783C423.179 88.0505 422.268 88.8708 420.992 89.5391C418.926 90.6936 416.587 91.5443 413.974 92.0911C411.422 92.6988 408.931 93.0026 406.5 93.0026ZM455.064 93.0026C450.203 93.0026 445.949 92.0608 442.304 90.1771C438.719 88.2328 435.954 85.4985 434.01 81.9743C432.065 78.4501 431.093 74.2879 431.093 69.4877C431.093 65.9028 431.64 62.6824 432.734 59.8266C433.827 56.9708 435.407 54.5403 437.473 52.5351C439.6 50.53 442.152 49.011 445.129 47.978C448.106 46.8843 451.418 46.3374 455.064 46.3374C456.947 46.3374 458.952 46.5805 461.079 47.0666C463.206 47.4919 465.302 48.2514 467.368 49.3451C468.583 49.892 469.403 50.6819 469.829 51.7149C470.315 52.687 470.497 53.72 470.376 54.8137C470.254 55.8467 469.859 56.7885 469.191 57.6391C468.583 58.429 467.793 58.9759 466.821 59.2797C465.849 59.5228 464.755 59.3405 463.54 58.7329C462.385 58.0645 461.17 57.5784 459.894 57.2746C458.679 56.9708 457.524 56.8189 456.431 56.8189C454.608 56.8189 452.998 57.1227 451.6 57.7303C450.203 58.2771 449.018 59.0974 448.046 60.1911C447.134 61.2241 446.405 62.5305 445.858 64.1103C445.372 65.6901 445.129 67.513 445.129 69.5789C445.129 73.5891 446.101 76.7488 448.046 79.0577C450.051 81.3059 452.846 82.43 456.431 82.43C457.524 82.43 458.679 82.3085 459.894 82.0654C461.109 81.7616 462.325 81.2755 463.54 80.6071C464.755 79.9995 465.849 79.8476 466.821 80.1514C467.793 80.4552 468.553 81.0325 469.1 81.8831C469.707 82.673 470.041 83.6149 470.102 84.7086C470.224 85.7415 470.041 86.7745 469.555 87.8074C469.13 88.7796 468.34 89.5391 467.186 90.086C465.12 91.119 463.054 91.8481 460.988 92.2734C458.922 92.7595 456.947 93.0026 455.064 93.0026ZM483.732 92.8203C481.483 92.8203 479.752 92.2127 478.536 90.9974C477.382 89.7822 476.805 88.0505 476.805 85.8023V33.942C476.805 31.633 477.382 29.9013 478.536 28.7469C479.752 27.5316 481.483 26.924 483.732 26.924C485.919 26.924 487.59 27.5316 488.744 28.7469C489.96 29.9013 490.567 31.633 490.567 33.942V55.634H489.291C490.689 52.6567 492.755 50.3781 495.489 48.7983C498.284 47.1577 501.444 46.3374 504.968 46.3374C508.553 46.3374 511.5 47.0362 513.809 48.4337C516.118 49.7705 517.849 51.8364 519.004 54.6314C520.158 57.3657 520.736 60.8595 520.736 65.1129V85.8023C520.736 88.0505 520.128 89.7822 518.913 90.9974C517.758 92.2127 516.057 92.8203 513.809 92.8203C511.621 92.8203 509.92 92.2127 508.705 90.9974C507.55 89.7822 506.973 88.0505 506.973 85.8023V65.7509C506.973 62.652 506.396 60.4342 505.241 59.0974C504.148 57.6999 502.446 57.0011 500.137 57.0011C497.221 57.0011 494.881 57.9126 493.119 59.7354C491.418 61.5583 490.567 63.9888 490.567 67.0269V85.8023C490.567 90.481 488.289 92.8203 483.732 92.8203Z" fill="#0A53BF"/>
<rect y="10" width="136" height="103" rx="10" fill="#0A53BF"/>
<path fill-rule="evenodd" clip-rule="evenodd" d="M61.9026 27.7578C63.6162 28.3612 66.7701 25.4682 68.5869 25.4682V25.4682H81.0713C82.8877 25.327 83.3127 25.9333 83.5009 27.6735V45.8021L83.5009 45.8042C83.5 45.9027 83.4994 45.9709 83.2906 46.1936L72.1217 57.5318C71.5106 58.1521 70.9102 58.8013 70.5295 59.5844C69.8092 61.0657 70.199 62.0263 71.5911 63.8186C73.9075 66.5529 75.6825 68.6282 77.4434 70.6871C79.1764 72.7133 80.8957 74.7235 83.1037 77.3299C83.3887 77.6663 83.5009 77.9653 83.5009 78.3588V95.7398C83.5244 97.4496 83.0126 97.9502 81.0713 97.9452H70.0446C66.1199 97.9452 66.1199 94.4119 66.1199 92.8243C66.1199 92.3743 64.5672 92.729 62.0126 93.3126C55.5548 94.7878 42.6948 97.7256 32.3297 92.8243C16.1831 85.1891 4.22104 49.5025 29.9749 31.2992C36.5637 26.6421 49.2792 23.3127 61.9026 27.7578ZM48.3277 80.1531C58.6495 80.1531 67.017 71.7857 67.017 61.4639C67.017 51.1421 58.6495 42.7746 48.3277 42.7746C38.0059 42.7746 29.6384 51.1421 29.6384 61.4639C29.6384 71.7857 38.0059 80.1531 48.3277 80.1531Z" fill="white"/>
<path d="M113.021 25.9953C111.676 24.9967 110.78 24.6998 109.529 25.3328C108.801 25.7011 108.227 26.28 107.665 26.8706C102.852 31.9238 78.7859 57.2109 77.1381 59.2622C76.1142 60.5368 75.8846 61.3325 76.051 62.1259C76.3657 63.6263 77.5314 64.7937 78.5981 65.8947L107.516 95.7389C108.17 96.4134 108.865 97.0646 109.697 97.499C111.001 98.1789 111.942 98.1485 113.01 97.519C113.759 97.0774 114.351 96.4193 114.913 95.7559L119.21 90.6885C120.624 89.0202 121.955 86.8065 120.588 85.0989C120.547 85.0474 120.504 84.9948 120.46 84.9412L100.35 63.0374C99.1776 61.7155 99.1415 61.0398 100.35 59.9724L119.614 38.8823C120.177 38.2661 120.729 37.6231 121.072 36.8624C121.505 35.9038 121.502 35.1628 121.107 34.3303C120.756 33.5897 120.166 32.9958 119.58 32.4222L113.021 25.9953Z" fill="white"/>
</svg>
