<svg width="446" height="305" viewBox="0 0 446 305" fill="none" xmlns="http://www.w3.org/2000/svg">
<path fill-rule="evenodd" clip-rule="evenodd" d="M217.175 20.8525C213.427 12.4193 217.175 1.95595 223.89 1.95595H276.051C283.64 1.3664 285.416 3.89955 286.202 11.17V86.9128L286.202 86.9215C286.199 87.3332 286.196 87.618 285.324 88.5485L234.822 139.815C228.47 149.024 229.289 152.978 236.442 162.187C246.12 173.611 253.537 182.282 260.894 190.884C268.134 199.35 275.317 207.749 284.543 218.639C285.734 220.044 286.202 221.293 286.202 222.937V295.557C286.3 302.7 284.162 304.792 276.051 304.771H229.981C213.583 304.771 213.583 290.009 213.583 283.375C213.583 281.495 207.096 282.977 196.422 285.416C169.441 291.579 115.711 303.854 72.4049 283.375C4.9429 251.475 -45.0354 102.374 62.5662 26.3186C93.8002 4.24165 157.986 -10.694 217.175 20.8525ZM139.246 230.434C182.371 230.434 217.331 195.474 217.331 152.348C217.331 109.223 182.371 74.2631 139.246 74.2631C96.1206 74.2631 61.1606 109.223 61.1606 152.348C61.1606 195.474 96.1206 230.434 139.246 230.434Z" fill="white"/>
<path d="M409.542 4.15836C402.498 -1.06902 398.401 -1.69441 390.645 4.15836C390.645 4.15836 267.27 133.624 259.618 143.15C251.966 152.677 254.933 155.8 258.993 163.921L390.645 299.789C400.954 307.048 405.943 306.419 413.914 299.789L444.368 263.87C445.686 259.062 445.406 256.206 440.62 250.439L356.6 158.923C351.701 153.4 351.55 150.577 356.6 146.117L440.62 54.1329C446.015 45.7777 445.695 41.5478 440.62 34.6116L409.542 4.15836Z" fill="white"/>
</svg>
