<svg width="61" height="48" viewBox="0 0 61 48" fill="none" xmlns="http://www.w3.org/2000/svg">
<path fill-rule="evenodd" clip-rule="evenodd" d="M12.8214 37.2489C4.79136 28.6402 -2.98535 16.7654 3.19988 6.81245C9.19622 -2.83638 22.7549 0.880216 33.8686 3.38135C45.2015 5.93184 59.2843 8.26643 60.8366 19.7833C62.4966 32.1004 51.2337 41.5877 39.5889 45.8237C29.8844 49.3533 19.897 44.8341 12.8214 37.2489Z" fill="url(#paint0_linear_292_137)"/>
<path fill-rule="evenodd" clip-rule="evenodd" d="M30.4528 12.6107C30.1118 11.8434 30.4528 10.8913 31.0637 10.8913H35.8091C36.4995 10.8376 36.6611 11.0682 36.7325 11.7298V18.6218V18.6225C36.7323 18.6601 36.732 18.686 36.6527 18.7706L32.0583 23.4356C31.4804 24.2735 31.5548 24.6332 32.2056 25.4713C33.0861 26.5108 33.7608 27.2998 34.43 28.0825C35.0889 28.8528 35.7423 29.617 36.5816 30.608C36.6899 30.7359 36.7325 30.8495 36.7325 30.9991V37.607C36.7415 38.2571 36.547 38.4474 35.8091 38.4454H31.6179C30.126 38.4454 30.126 37.1021 30.126 36.4986C30.126 36.3204 29.479 36.4195 28.4254 36.5808C25.9095 36.9658 21.0754 37.7058 17.1998 35.8728C11.0624 32.9701 6.59792 20.0286 16.3871 13.1081C19.2287 11.0992 25.068 9.74026 30.4528 12.6107ZM23.3632 31.6813C27.2865 31.6813 30.4669 28.5001 30.4669 24.576C30.4669 20.6519 27.2865 17.4708 23.3632 17.4708C19.4397 17.4708 16.2592 20.6519 16.2592 24.576C16.2592 28.5001 19.4397 31.6813 23.3632 31.6813Z" fill="white"/>
<path d="M47.9532 11.0918C47.3126 10.6161 46.9397 10.5592 46.2343 11.0918C46.2343 11.0918 35.0102 22.8723 34.314 23.739C33.6178 24.6059 33.8878 24.8901 34.2571 25.6291L46.2343 37.9923C47.172 38.6526 47.6259 38.5954 48.3515 37.9923L51.1217 34.7237C51.2415 34.2863 51.2162 34.0263 50.7808 33.5017L43.137 25.1743C42.6913 24.6718 42.6776 24.4149 43.137 24.0091L50.7808 15.6391C51.2719 14.8789 51.2426 14.4939 50.7808 13.8628L47.9532 11.0918Z" fill="white"/>
<defs>
<linearGradient id="paint0_linear_292_137" x1="11.8856" y1="36.2418" x2="74.8545" y2="37.4942" gradientUnits="userSpaceOnUse">
<stop stop-color="#00305C"/>
<stop offset="1" stop-color="#003AFF"/>
</linearGradient>
</defs>
</svg>
