<svg width="202" height="38" viewBox="0 0 202 38" fill="none" xmlns="http://www.w3.org/2000/svg">
<path d="M0 4.67625C0 2.09363 2.09363 0 4.67625 0H42.0862C44.6688 0 46.7625 2.09363 46.7625 4.67625V32.7337C46.7625 35.3164 44.6688 37.41 42.0862 37.41H4.67625C2.09363 37.41 0 35.3164 0 32.7337V4.67625Z" fill="#0A53BF"/>
<g filter="url(#filter0_d_424_214)">
<path fill-rule="evenodd" clip-rule="evenodd" d="M22.9758 7.28111C22.6461 6.53925 22.9758 5.6188 23.5666 5.6188H28.1551C28.8227 5.56694 28.9789 5.78978 29.0481 6.42935V13.0924L29.0481 13.0931C29.0478 13.1294 29.0476 13.1544 28.9708 13.2363L24.5282 17.7461C23.9694 18.5563 24.0415 18.904 24.6708 19.7142C25.5221 20.7191 26.1745 21.4819 26.8217 22.2386C27.4586 22.9833 28.0905 23.7222 28.9021 24.6802C29.0068 24.8038 29.0481 24.9137 29.0481 25.0583V31.4466C29.0567 32.075 28.8686 32.259 28.1551 32.2571H24.1024C22.6598 32.2571 22.6598 30.9585 22.6598 30.375C22.6598 30.2126 22.1019 30.3024 21.1656 30.453C18.7366 30.8438 13.7615 31.6442 9.37503 29.5158C1.23949 25.5683 1.23949 12.41 9.37504 7.76195C12.2965 6.09282 17.7691 4.506 22.9758 7.28111ZM16.1205 25.718C19.9142 25.718 22.9896 22.6426 22.9896 18.8489C22.9896 15.0552 19.9142 11.9798 16.1205 11.9798C12.3268 11.9798 9.25138 15.0552 9.25138 18.8489C9.25138 22.6426 12.3268 25.718 16.1205 25.718Z" fill="white"/>
<path d="M39.8981 5.97738C39.2786 5.51753 38.9181 5.46252 38.2358 5.97738C38.2358 5.97738 27.3827 17.3663 26.7095 18.2044C26.0363 19.0424 26.2974 19.3171 26.6545 20.0315L38.2358 31.9837C39.1427 32.6223 39.5816 32.5669 40.2828 31.9837L42.9618 28.824C43.0777 28.401 43.0531 28.1498 42.632 27.6425L35.2409 19.5919C34.81 19.1061 34.7967 18.8577 35.2409 18.4654L42.632 10.3736C43.1066 9.63859 43.0785 9.26649 42.632 8.65632L39.8981 5.97738Z" fill="white"/>
</g>
<g filter="url(#filter1_d_424_214)">
<path d="M188.172 8.94277V15.7859C188.758 15.11 189.327 14.575 189.879 14.1807C190.442 13.7865 191.062 13.4936 191.738 13.3021C192.413 13.0993 193.14 12.998 193.917 12.998C195.089 12.998 196.125 13.2458 197.026 13.7414C197.939 14.237 198.654 14.958 199.172 15.9042C199.499 16.4561 199.718 17.0757 199.831 17.7628C199.944 18.4387 200 19.2215 200 20.1114V28.9483C200 29.872 199.786 30.5704 199.358 31.0435C198.941 31.5166 198.384 31.7532 197.685 31.7532C196.164 31.7532 195.404 30.8182 195.404 28.9483V21.159C195.404 19.6834 195.184 18.5513 194.745 17.7628C194.306 16.963 193.472 16.5631 192.244 16.5631C191.422 16.5631 190.679 16.7997 190.014 17.2728C189.361 17.7346 188.871 18.3711 188.544 19.1821C188.296 19.8692 188.172 21.0914 188.172 22.8487V28.9483C188.172 29.8608 187.964 30.5592 187.547 31.0435C187.142 31.5166 186.573 31.7532 185.841 31.7532C184.32 31.7532 183.56 30.8182 183.56 28.9483V8.94277C183.56 8.00783 183.757 7.30944 184.151 6.8476C184.557 6.37449 185.12 6.13794 185.841 6.13794C186.573 6.13794 187.142 6.37449 187.547 6.8476C187.964 7.3207 188.172 8.01909 188.172 8.94277Z" fill="#0A53BF"/>
</g>
<g filter="url(#filter2_d_424_214)">
<path d="M180.501 26.0423C180.501 26.6168 180.327 27.2307 179.978 27.8841C179.64 28.5374 179.116 29.1626 178.406 29.7596C177.708 30.3453 176.823 30.8184 175.753 31.1789C174.683 31.5393 173.478 31.7196 172.137 31.7196C169.288 31.7196 167.063 30.8916 165.463 29.2358C163.864 27.5686 163.064 25.3383 163.064 22.5447C163.064 20.6523 163.43 18.9795 164.162 17.5264C164.894 16.0733 165.953 14.9525 167.339 14.164C168.724 13.3642 170.38 12.9644 172.306 12.9644C173.5 12.9644 174.593 13.139 175.584 13.4881C176.587 13.8373 177.432 14.2879 178.119 14.8399C178.817 15.3918 179.347 15.9832 179.707 16.614C180.079 17.2336 180.265 17.8137 180.265 18.3544C180.265 18.9063 180.056 19.3738 179.64 19.7568C179.234 20.1398 178.738 20.3313 178.153 20.3313C177.77 20.3313 177.449 20.2355 177.19 20.044C176.942 19.8413 176.66 19.5202 176.345 19.0809C175.782 18.2248 175.19 17.5828 174.571 17.1547C173.962 16.7267 173.185 16.5126 172.239 16.5126C170.876 16.5126 169.778 17.0477 168.944 18.1178C168.11 19.1767 167.694 20.6298 167.694 22.4771C167.694 23.3445 167.801 24.1443 168.015 24.8765C168.229 25.5974 168.539 26.2169 168.944 26.7351C169.35 27.242 169.84 27.6306 170.414 27.9009C170.989 28.16 171.619 28.2896 172.306 28.2896C173.23 28.2896 174.019 28.0755 174.672 27.6475C175.337 27.2195 175.922 26.5661 176.429 25.6875C176.711 25.1693 177.015 24.7638 177.342 24.4709C177.668 24.1781 178.068 24.0316 178.541 24.0316C179.105 24.0316 179.572 24.2456 179.944 24.6737C180.315 25.1017 180.501 25.558 180.501 26.0423Z" fill="#0A53BF"/>
</g>
<g filter="url(#filter3_d_424_214)">
<path d="M156.255 23.5078H147.232C147.243 24.5554 147.452 25.4791 147.857 26.2789C148.274 27.0786 148.82 27.6813 149.496 28.0868C150.183 28.4923 150.938 28.6951 151.76 28.6951C152.312 28.6951 152.813 28.6331 153.264 28.5092C153.726 28.3741 154.171 28.1713 154.599 27.9009C155.027 27.6193 155.421 27.3208 155.782 27.0054C156.142 26.69 156.61 26.262 157.184 25.7213C157.421 25.5185 157.758 25.4171 158.198 25.4171C158.671 25.4171 159.054 25.5467 159.347 25.8058C159.64 26.0649 159.786 26.4309 159.786 26.904C159.786 27.3208 159.623 27.8108 159.296 28.3741C158.969 28.926 158.474 29.4611 157.809 29.9792C157.156 30.4861 156.328 30.9085 155.325 31.2465C154.334 31.5844 153.191 31.7534 151.895 31.7534C148.933 31.7534 146.629 30.9085 144.985 29.2189C143.34 27.5292 142.518 25.2369 142.518 22.342C142.518 20.979 142.721 19.7174 143.126 18.5571C143.532 17.3856 144.123 16.3831 144.9 15.5495C145.677 14.716 146.635 14.0795 147.773 13.6402C148.91 13.1896 150.172 12.9644 151.557 12.9644C153.36 12.9644 154.903 13.3473 156.187 14.1133C157.483 14.868 158.451 15.848 159.093 17.0533C159.735 18.2586 160.056 19.4864 160.056 20.7368C160.056 21.897 159.724 22.6517 159.06 23.0009C158.395 23.3389 157.46 23.5078 156.255 23.5078ZM147.232 20.8889H155.596C155.483 19.3118 155.055 18.1347 154.312 17.3575C153.579 16.569 152.611 16.1747 151.405 16.1747C150.256 16.1747 149.31 16.5746 148.567 17.3744C147.835 18.1629 147.39 19.3344 147.232 20.8889Z" fill="#0A53BF"/>
</g>
<g filter="url(#filter4_d_424_214)">
<path d="M140.355 10.7002H134.88V28.6951C134.88 29.7314 134.65 30.503 134.188 31.0099C133.726 31.5056 133.129 31.7534 132.397 31.7534C131.653 31.7534 131.045 31.4999 130.572 30.993C130.11 30.4861 129.879 29.7201 129.879 28.6951V10.7002H124.405C123.549 10.7002 122.912 10.5144 122.495 10.1426C122.079 9.75964 121.87 9.25837 121.87 8.63883C121.87 7.99676 122.084 7.48986 122.512 7.11813C122.951 6.74641 123.582 6.56055 124.405 6.56055H140.355C141.222 6.56055 141.864 6.75204 142.281 7.13503C142.709 7.51802 142.923 8.01929 142.923 8.63883C142.923 9.25837 142.709 9.75964 142.281 10.1426C141.853 10.5144 141.211 10.7002 140.355 10.7002Z" fill="#0A53BF"/>
</g>
<g filter="url(#filter5_d_424_214)">
<path d="M111.935 13.4036H112.442V10.6326C112.442 9.88916 112.459 9.30904 112.493 8.89226C112.538 8.46421 112.65 8.09812 112.83 7.79398C113.011 7.47857 113.27 7.22513 113.608 7.03363C113.946 6.83087 114.323 6.72949 114.74 6.72949C115.326 6.72949 115.855 6.94915 116.328 7.38846C116.643 7.68133 116.841 8.04179 116.919 8.46984C117.01 8.88662 117.055 9.48364 117.055 10.2609V13.4036H118.744C119.398 13.4036 119.893 13.5613 120.231 13.8768C120.58 14.1809 120.755 14.5751 120.755 15.0595C120.755 15.6791 120.507 16.1127 120.012 16.3606C119.527 16.6084 118.829 16.7323 117.916 16.7323H117.055V25.2144C117.055 25.9353 117.077 26.4929 117.122 26.8871C117.179 27.2701 117.314 27.5855 117.528 27.8333C117.753 28.0699 118.113 28.1882 118.609 28.1882C118.879 28.1882 119.246 28.1431 119.707 28.053C120.169 27.9516 120.53 27.9009 120.789 27.9009C121.16 27.9009 121.493 28.053 121.786 28.3571C122.09 28.65 122.242 29.0161 122.242 29.4554C122.242 30.1989 121.836 30.7677 121.025 31.162C120.214 31.5562 119.048 31.7534 117.528 31.7534C116.086 31.7534 114.993 31.5112 114.25 31.0268C113.506 30.5424 113.016 29.8722 112.78 29.0161C112.554 28.16 112.442 27.0167 112.442 25.5861V16.7323H111.834C111.169 16.7323 110.662 16.5746 110.313 16.2592C109.964 15.9438 109.789 15.5439 109.789 15.0595C109.789 14.5751 109.969 14.1809 110.33 13.8768C110.701 13.5613 111.237 13.4036 111.935 13.4036Z" fill="white"/>
</g>
<g filter="url(#filter6_d_424_214)">
<path d="M99.7863 13.4035H100.885V12.018C100.885 10.5761 101.065 9.43278 101.425 8.58795C101.797 7.73185 102.417 7.11231 103.284 6.72932C104.162 6.33507 105.362 6.13794 106.883 6.13794C109.575 6.13794 110.921 6.79691 110.921 8.11484C110.921 8.54289 110.78 8.90898 110.499 9.21312C110.217 9.51726 109.885 9.66933 109.502 9.66933C109.322 9.66933 109.012 9.63554 108.573 9.56795C108.133 9.50036 107.761 9.46657 107.457 9.46657C106.624 9.46657 106.089 9.71439 105.852 10.21C105.616 10.6944 105.497 11.3928 105.497 12.3052V13.4035H106.629C108.387 13.4035 109.265 13.9329 109.265 14.9918C109.265 15.7465 109.029 16.2252 108.556 16.428C108.094 16.6307 107.452 16.7321 106.629 16.7321H105.497V28.9483C105.497 29.8608 105.278 30.5592 104.838 31.0435C104.41 31.5166 103.853 31.7532 103.166 31.7532C102.512 31.7532 101.966 31.5166 101.527 31.0435C101.099 30.5592 100.885 29.8608 100.885 28.9483V16.7321H99.6173C98.9302 16.7321 98.4007 16.58 98.029 16.2759C97.6573 15.9605 97.4714 15.555 97.4714 15.0593C97.4714 13.9554 98.243 13.4035 99.7863 13.4035Z" fill="white"/>
</g>
<g filter="url(#filter7_d_424_214)">
<path d="M96.5083 22.3757C96.5083 23.7499 96.2943 25.0172 95.8663 26.1774C95.4382 27.3376 94.8187 28.3345 94.0076 29.1681C93.1966 30.0017 92.2279 30.6437 91.1014 31.0943C89.975 31.5336 88.7077 31.7533 87.2997 31.7533C85.9029 31.7533 84.6469 31.528 83.5317 31.0774C82.4166 30.6268 81.4478 29.9848 80.6255 29.1512C79.8145 28.3064 79.1949 27.3151 78.7669 26.1774C78.3501 25.0284 78.1417 23.7612 78.1417 22.3757C78.1417 20.9789 78.3557 19.7004 78.7838 18.5401C79.2118 17.3799 79.8258 16.3886 80.6255 15.5663C81.4253 14.744 82.394 14.1132 83.5317 13.6739C84.6694 13.2233 85.9254 12.998 87.2997 12.998C88.6965 12.998 89.9637 13.2233 91.1014 13.6739C92.2391 14.1245 93.2135 14.7666 94.0245 15.6001C94.8356 16.4337 95.4495 17.425 95.8663 18.5739C96.2943 19.7229 96.5083 20.9901 96.5083 22.3757ZM91.8787 22.3757C91.8787 20.4945 91.4619 19.0301 90.6283 17.9825C89.806 16.935 88.6965 16.4112 87.2997 16.4112C86.3985 16.4112 85.6044 16.6477 84.9173 17.1208C84.2301 17.5827 83.7007 18.2698 83.329 19.1822C82.9573 20.0946 82.7714 21.1591 82.7714 22.3757C82.7714 23.5809 82.9516 24.6342 83.3121 25.5353C83.6838 26.4365 84.2076 27.1292 84.8835 27.6136C85.5706 28.0867 86.376 28.3233 87.2997 28.3233C88.6965 28.3233 89.806 27.7995 90.6283 26.7519C91.4619 25.693 91.8787 24.2343 91.8787 22.3757Z" fill="white"/>
</g>
<g filter="url(#filter8_d_424_214)">
<path d="M75.3031 23.8963C75.3031 25.3944 74.9145 26.7405 74.1373 27.9346C73.3713 29.1286 72.2448 30.0635 70.7579 30.7394C69.271 31.4152 67.5082 31.7532 65.4693 31.7532C63.0249 31.7532 61.0086 31.2913 59.4203 30.3677C58.2939 29.7031 57.3758 28.8188 56.6662 27.7149C55.9678 26.5997 55.6186 25.5183 55.6186 24.4707C55.6186 23.8625 55.827 23.3443 56.2438 22.9163C56.6718 22.4769 57.2125 22.2573 57.8658 22.2573C58.3953 22.2573 58.8402 22.4263 59.2007 22.7642C59.5724 23.1021 59.8878 23.6034 60.1469 24.268C60.4623 25.0565 60.8002 25.7155 61.1607 26.2449C61.5324 26.7743 62.0506 27.2136 62.7152 27.5628C63.3798 27.9008 64.2528 28.0697 65.3341 28.0697C66.821 28.0697 68.0263 27.7262 68.95 27.039C69.885 26.3406 70.3524 25.4733 70.3524 24.437C70.3524 23.6147 70.099 22.9501 69.5921 22.4432C69.0964 21.925 68.4487 21.5307 67.649 21.2604C66.8605 20.99 65.8016 20.7028 64.4724 20.3987C62.6926 19.9819 61.2001 19.4975 59.9948 18.9456C58.8008 18.3823 57.8489 17.622 57.1393 16.6645C56.4409 15.6958 56.0917 14.4961 56.0917 13.0655C56.0917 11.7026 56.4634 10.4916 57.2069 9.43278C57.9503 8.37392 59.0261 7.56289 60.4341 6.99967C61.8422 6.42518 63.498 6.13794 65.4017 6.13794C66.9224 6.13794 68.2347 6.32943 69.3386 6.71242C70.4538 7.08415 71.3775 7.58541 72.1097 8.21622C72.8419 8.83576 73.3769 9.4891 73.7148 10.1762C74.0528 10.8634 74.2217 11.5336 74.2217 12.1869C74.2217 12.7839 74.0077 13.3246 73.5797 13.809C73.1629 14.2821 72.6391 14.5187 72.0083 14.5187C71.4338 14.5187 70.9945 14.3778 70.6904 14.0962C70.3975 13.8034 70.0764 13.3303 69.7273 12.6769C69.2767 11.742 68.736 11.0154 68.1052 10.4973C67.4744 9.96783 66.4606 9.70312 65.0638 9.70312C63.7684 9.70312 62.7208 9.99036 61.921 10.5648C61.1325 11.1281 60.7383 11.8096 60.7383 12.6093C60.7383 13.105 60.8734 13.533 61.1438 13.8935C61.4141 14.2539 61.7858 14.5637 62.259 14.8228C62.7321 15.0819 63.2108 15.2846 63.6952 15.4311C64.1795 15.5775 64.9793 15.7915 66.0945 16.0731C67.4913 16.3998 68.7529 16.7603 69.8793 17.1545C71.017 17.5488 71.9801 18.0275 72.7686 18.5907C73.5684 19.154 74.188 19.8692 74.6273 20.7366C75.0778 21.5927 75.3031 22.6459 75.3031 23.8963Z" fill="white"/>
</g>
<g filter="url(#filter9_d_424_214)">
<path d="M188.172 8.47525V15.3184C188.758 14.6425 189.327 14.1074 189.879 13.7132C190.442 13.3189 191.062 13.0261 191.738 12.8346C192.413 12.6318 193.14 12.5304 193.917 12.5304C195.089 12.5304 196.125 12.7782 197.026 13.2739C197.939 13.7695 198.654 14.4904 199.172 15.4366C199.499 15.9886 199.718 16.6081 199.831 17.2953C199.944 17.9711 200 18.754 200 19.6439V28.4808C200 29.4045 199.786 30.1029 199.358 30.576C198.941 31.0491 198.384 31.2857 197.685 31.2857C196.164 31.2857 195.404 30.3507 195.404 28.4808V20.6915C195.404 19.2158 195.184 18.0838 194.745 17.2953C194.306 16.4955 193.472 16.0956 192.244 16.0956C191.422 16.0956 190.679 16.3322 190.014 16.8053C189.361 17.2671 188.871 17.9035 188.544 18.7146C188.296 19.4017 188.172 20.6239 188.172 22.3811V28.4808C188.172 29.3932 187.964 30.0916 187.547 30.576C187.142 31.0491 186.573 31.2857 185.841 31.2857C184.32 31.2857 183.56 30.3507 183.56 28.4808V8.47525C183.56 7.5403 183.757 6.84191 184.151 6.38007C184.557 5.90696 185.12 5.67041 185.841 5.67041C186.573 5.67041 187.142 5.90696 187.547 6.38007C187.964 6.85317 188.172 7.55156 188.172 8.47525Z" fill="#0A53BF"/>
</g>
<g filter="url(#filter10_d_424_214)">
<path d="M180.501 25.5745C180.501 26.149 180.327 26.7629 179.978 27.4163C179.64 28.0696 179.116 28.6948 178.406 29.2918C177.708 29.8775 176.823 30.3507 175.753 30.7111C174.683 31.0716 173.478 31.2518 172.137 31.2518C169.288 31.2518 167.063 30.4239 165.463 28.768C163.864 27.1009 163.064 24.8705 163.064 22.077C163.064 20.1845 163.43 18.5118 164.162 17.0587C164.894 15.6056 165.953 14.4847 167.339 13.6962C168.724 12.8965 170.38 12.4966 172.306 12.4966C173.5 12.4966 174.593 12.6712 175.584 13.0204C176.587 13.3696 177.432 13.8201 178.119 14.3721C178.817 14.9241 179.347 15.5154 179.707 16.1462C180.079 16.7658 180.265 17.3459 180.265 17.8866C180.265 18.4386 180.056 18.906 179.64 19.289C179.234 19.672 178.738 19.8635 178.153 19.8635C177.77 19.8635 177.449 19.7678 177.19 19.5763C176.942 19.3735 176.66 19.0525 176.345 18.6131C175.782 17.7571 175.19 17.115 174.571 16.6869C173.962 16.2589 173.185 16.0449 172.239 16.0449C170.876 16.0449 169.778 16.5799 168.944 17.65C168.11 18.7089 167.694 20.162 167.694 22.0094C167.694 22.8767 167.801 23.6765 168.015 24.4087C168.229 25.1296 168.539 25.7491 168.944 26.2673C169.35 26.7742 169.84 27.1628 170.414 27.4332C170.989 27.6923 171.619 27.8218 172.306 27.8218C173.23 27.8218 174.019 27.6078 174.672 27.1797C175.337 26.7517 175.922 26.0983 176.429 25.2197C176.711 24.7016 177.015 24.296 177.342 24.0032C177.668 23.7103 178.068 23.5639 178.541 23.5639C179.105 23.5639 179.572 23.7779 179.944 24.2059C180.315 24.634 180.501 25.0902 180.501 25.5745Z" fill="#0A53BF"/>
</g>
<g filter="url(#filter11_d_424_214)">
<path d="M156.255 23.0401H147.232C147.243 24.0876 147.452 25.0113 147.857 25.8111C148.274 26.6109 148.82 27.2135 149.496 27.619C150.183 28.0246 150.938 28.2273 151.76 28.2273C152.312 28.2273 152.813 28.1654 153.264 28.0415C153.726 27.9063 154.171 27.7035 154.599 27.4332C155.027 27.1516 155.421 26.8531 155.782 26.5377C156.142 26.2223 156.61 25.7942 157.184 25.2535C157.421 25.0508 157.758 24.9494 158.198 24.9494C158.671 24.9494 159.054 25.0789 159.347 25.338C159.64 25.5971 159.786 25.9632 159.786 26.4363C159.786 26.8531 159.623 27.3431 159.296 27.9063C158.969 28.4582 158.474 28.9933 157.809 29.5115C157.156 30.0184 156.328 30.4408 155.325 30.7787C154.334 31.1166 153.191 31.2856 151.895 31.2856C148.933 31.2856 146.629 30.4408 144.985 28.7511C143.34 27.0614 142.518 24.7691 142.518 21.8742C142.518 20.5112 142.721 19.2496 143.126 18.0894C143.532 16.9179 144.123 15.9153 144.9 15.0818C145.677 14.2482 146.635 13.6118 147.773 13.1724C148.91 12.7219 150.172 12.4966 151.557 12.4966C153.36 12.4966 154.903 12.8796 156.187 13.6456C157.483 14.4003 158.451 15.3803 159.093 16.5856C159.735 17.7908 160.056 19.0187 160.056 20.269C160.056 21.4292 159.724 22.184 159.06 22.5332C158.395 22.8711 157.46 23.0401 156.255 23.0401ZM147.232 20.4211H155.596C155.483 18.8441 155.055 17.6669 154.312 16.8897C153.579 16.1012 152.611 15.7069 151.405 15.7069C150.256 15.7069 149.31 16.1068 148.567 16.9066C147.835 17.6951 147.39 18.8666 147.232 20.4211Z" fill="#0A53BF"/>
</g>
<g filter="url(#filter12_d_424_214)">
<path d="M140.355 10.2324H134.88V28.2273C134.88 29.2636 134.65 30.0353 134.188 30.5422C133.726 31.0378 133.129 31.2856 132.397 31.2856C131.653 31.2856 131.045 31.0322 130.572 30.5253C130.11 30.0184 129.879 29.2524 129.879 28.2273V10.2324H124.405C123.549 10.2324 122.912 10.0466 122.495 9.67485C122.079 9.29186 121.87 8.7906 121.87 8.17105C121.87 7.52898 122.084 7.02209 122.512 6.65036C122.951 6.27864 123.582 6.09277 124.405 6.09277H140.355C141.222 6.09277 141.864 6.28427 142.281 6.66726C142.709 7.05025 142.923 7.55151 142.923 8.17105C142.923 8.7906 142.709 9.29186 142.281 9.67485C141.853 10.0466 141.211 10.2324 140.355 10.2324Z" fill="#0A53BF"/>
</g>
<g filter="url(#filter13_d_424_214)">
<path d="M111.935 12.9359H112.442V10.1648C112.442 9.42138 112.459 8.84127 112.493 8.42448C112.538 7.99644 112.65 7.63034 112.83 7.3262C113.011 7.0108 113.27 6.75735 113.608 6.56586C113.946 6.3631 114.323 6.26172 114.74 6.26172C115.326 6.26172 115.855 6.48137 116.328 6.92069C116.643 7.21356 116.841 7.57402 116.919 8.00207C117.01 8.41885 117.055 9.01586 117.055 9.79311V12.9359H118.744C119.398 12.9359 119.893 13.0936 120.231 13.409C120.58 13.7131 120.755 14.1074 120.755 14.5917C120.755 15.2113 120.507 15.645 120.012 15.8928C119.527 16.1406 118.829 16.2645 117.916 16.2645H117.055V24.7466C117.055 25.4675 117.077 26.0251 117.122 26.4194C117.179 26.8023 117.314 27.1178 117.528 27.3656C117.753 27.6021 118.113 27.7204 118.609 27.7204C118.879 27.7204 119.246 27.6753 119.707 27.5852C120.169 27.4838 120.53 27.4332 120.789 27.4332C121.16 27.4332 121.493 27.5852 121.786 27.8894C122.09 28.1822 122.242 28.5483 122.242 28.9876C122.242 29.7311 121.836 30.2999 121.025 30.6942C120.214 31.0885 119.048 31.2856 117.528 31.2856C116.086 31.2856 114.993 31.0434 114.25 30.559C113.506 30.0747 113.016 29.4044 112.78 28.5483C112.554 27.6922 112.442 26.5489 112.442 25.1183V16.2645H111.834C111.169 16.2645 110.662 16.1068 110.313 15.7914C109.964 15.476 109.789 15.0761 109.789 14.5917C109.789 14.1074 109.969 13.7131 110.33 13.409C110.701 13.0936 111.237 12.9359 111.935 12.9359Z" fill="white"/>
</g>
<g filter="url(#filter14_d_424_214)">
<path d="M99.7863 12.9359H100.885V11.5504C100.885 10.1086 101.065 8.96525 101.425 8.12042C101.797 7.26432 102.417 6.64478 103.284 6.26179C104.162 5.86754 105.362 5.67041 106.883 5.67041C109.575 5.67041 110.921 6.32938 110.921 7.64731C110.921 8.07536 110.78 8.44145 110.499 8.74559C110.217 9.04973 109.885 9.2018 109.502 9.2018C109.322 9.2018 109.012 9.16801 108.573 9.10042C108.133 9.03283 107.761 8.99904 107.457 8.99904C106.624 8.99904 106.089 9.24686 105.852 9.74249C105.616 10.2269 105.497 10.9253 105.497 11.8377V12.9359H106.629C108.387 12.9359 109.265 13.4654 109.265 14.5242C109.265 15.2789 109.029 15.7577 108.556 15.9604C108.094 16.1632 107.452 16.2646 106.629 16.2646H105.497V28.4808C105.497 29.3932 105.278 30.0916 104.838 30.576C104.41 31.0491 103.853 31.2857 103.166 31.2857C102.512 31.2857 101.966 31.0491 101.527 30.576C101.099 30.0916 100.885 29.3932 100.885 28.4808V16.2646H99.6173C98.9302 16.2646 98.4007 16.1125 98.029 15.8084C97.6573 15.493 97.4714 15.0874 97.4714 14.5918C97.4714 13.4879 98.243 12.9359 99.7863 12.9359Z" fill="white"/>
</g>
<g filter="url(#filter15_d_424_214)">
<path d="M96.5083 21.9081C96.5083 23.2824 96.2943 24.5496 95.8663 25.7099C95.4382 26.8701 94.8187 27.867 94.0076 28.7006C93.1966 29.5341 92.2279 30.1762 91.1014 30.6268C89.975 31.0661 88.7077 31.2857 87.2997 31.2857C85.9029 31.2857 84.6469 31.0605 83.5317 30.6099C82.4166 30.1593 81.4478 29.5172 80.6255 28.6837C79.8145 27.8388 79.1949 26.8476 78.7669 25.7099C78.3501 24.5609 78.1417 23.2936 78.1417 21.9081C78.1417 20.5113 78.3557 19.2328 78.7838 18.0726C79.2118 16.9124 79.8258 15.9211 80.6255 15.0988C81.4253 14.2765 82.394 13.6457 83.5317 13.2064C84.6694 12.7558 85.9254 12.5305 87.2997 12.5305C88.6965 12.5305 89.9637 12.7558 91.1014 13.2064C92.2391 13.657 93.2135 14.299 94.0245 15.1326C94.8356 15.9662 95.4495 16.9574 95.8663 18.1064C96.2943 19.2554 96.5083 20.5226 96.5083 21.9081ZM91.8787 21.9081C91.8787 20.027 91.4619 18.5626 90.6283 17.515C89.806 16.4674 88.6965 15.9436 87.2997 15.9436C86.3985 15.9436 85.6044 16.1802 84.9173 16.6533C84.2301 17.1151 83.7007 17.8023 83.329 18.7147C82.9573 19.6271 82.7714 20.6916 82.7714 21.9081C82.7714 23.1134 82.9516 24.1666 83.3121 25.0678C83.6838 25.9689 84.2076 26.6617 84.8835 27.1461C85.5706 27.6192 86.376 27.8557 87.2997 27.8557C88.6965 27.8557 89.806 27.3319 90.6283 26.2843C91.4619 25.2255 91.8787 23.7668 91.8787 21.9081Z" fill="white"/>
</g>
<g filter="url(#filter16_d_424_214)">
<path d="M75.3031 23.4287C75.3031 24.9269 74.9145 26.273 74.1373 27.467C73.3713 28.661 72.2448 29.596 70.7579 30.2719C69.271 30.9477 67.5082 31.2857 65.4693 31.2857C63.0249 31.2857 61.0086 30.8238 59.4203 29.9001C58.2939 29.2355 57.3758 28.3513 56.6662 27.2474C55.9678 26.1322 55.6186 25.0508 55.6186 24.0032C55.6186 23.3949 55.827 22.8768 56.2438 22.4487C56.6718 22.0094 57.2125 21.7898 57.8658 21.7898C58.3953 21.7898 58.8402 21.9587 59.2007 22.2967C59.5724 22.6346 59.8878 23.1359 60.1469 23.8005C60.4623 24.589 60.8002 25.2479 61.1607 25.7774C61.5324 26.3068 62.0506 26.7461 62.7152 27.0953C63.3798 27.4332 64.2528 27.6022 65.3341 27.6022C66.821 27.6022 68.0263 27.2586 68.95 26.5715C69.885 25.8731 70.3524 25.0057 70.3524 23.9694C70.3524 23.1471 70.099 22.4825 69.5921 21.9756C69.0964 21.4575 68.4487 21.0632 67.649 20.7929C66.8605 20.5225 65.8016 20.2353 64.4724 19.9311C62.6926 19.5144 61.2001 19.03 59.9948 18.478C58.8008 17.9148 57.8489 17.1545 57.1393 16.197C56.4409 15.2283 56.0917 14.0286 56.0917 12.598C56.0917 11.235 56.4634 10.0241 57.2069 8.96525C57.9503 7.90639 59.0261 7.09536 60.4341 6.53214C61.8422 5.95765 63.498 5.67041 65.4017 5.67041C66.9224 5.67041 68.2347 5.8619 69.3386 6.24489C70.4538 6.61662 71.3775 7.11789 72.1097 7.74869C72.8419 8.36823 73.3769 9.02157 73.7148 9.7087C74.0528 10.3958 74.2217 11.0661 74.2217 11.7194C74.2217 12.3164 74.0077 12.8571 73.5797 13.3415C73.1629 13.8146 72.6391 14.0511 72.0083 14.0511C71.4338 14.0511 70.9945 13.9103 70.6904 13.6287C70.3975 13.3358 70.0764 12.8627 69.7273 12.2094C69.2767 11.2744 68.736 10.5479 68.1052 10.0297C67.4744 9.50031 66.4606 9.23559 65.0638 9.23559C63.7684 9.23559 62.7208 9.52283 61.921 10.0973C61.1325 10.6605 60.7383 11.342 60.7383 12.1418C60.7383 12.6374 60.8734 13.0655 61.1438 13.4259C61.4141 13.7864 61.7858 14.0962 62.259 14.3553C62.7321 14.6143 63.2108 14.8171 63.6952 14.9635C64.1795 15.11 64.9793 15.324 66.0945 15.6056C67.4913 15.9323 68.7529 16.2927 69.8793 16.687C71.017 17.0812 71.9801 17.56 72.7686 18.1232C73.5684 18.6864 74.188 19.4017 74.6273 20.2691C75.0778 21.1252 75.3031 22.1784 75.3031 23.4287Z" fill="white"/>
</g>
<defs>
<filter id="filter0_d_424_214" x="2.27338" y="3.61157" width="43.7481" height="30.8306" filterUnits="userSpaceOnUse" color-interpolation-filters="sRGB">
<feFlood flood-opacity="0" result="BackgroundImageFix"/>
<feColorMatrix in="SourceAlpha" type="matrix" values="0 0 0 0 0 0 0 0 0 0 0 0 0 0 0 0 0 0 127 0" result="hardAlpha"/>
<feOffset dx="1"/>
<feGaussianBlur stdDeviation="1"/>
<feComposite in2="hardAlpha" operator="out"/>
<feColorMatrix type="matrix" values="0 0 0 0 0 0 0 0 0 0 0 0 0 0 0 0 0 0 1 0"/>
<feBlend mode="normal" in2="BackgroundImageFix" result="effect1_dropShadow_424_214"/>
<feBlend mode="normal" in="SourceGraphic" in2="effect1_dropShadow_424_214" result="shape"/>
</filter>
<filter id="filter1_d_424_214" x="181.56" y="6.13794" width="20.4404" height="29.6152" filterUnits="userSpaceOnUse" color-interpolation-filters="sRGB">
<feFlood flood-opacity="0" result="BackgroundImageFix"/>
<feColorMatrix in="SourceAlpha" type="matrix" values="0 0 0 0 0 0 0 0 0 0 0 0 0 0 0 0 0 0 127 0" result="hardAlpha"/>
<feOffset dy="2"/>
<feGaussianBlur stdDeviation="1"/>
<feComposite in2="hardAlpha" operator="out"/>
<feColorMatrix type="matrix" values="0 0 0 0 0 0 0 0 0 0 0 0 0 0 0 0 0 0 0.8 0"/>
<feBlend mode="normal" in2="BackgroundImageFix" result="effect1_dropShadow_424_214"/>
<feBlend mode="normal" in="SourceGraphic" in2="effect1_dropShadow_424_214" result="shape"/>
</filter>
<filter id="filter2_d_424_214" x="161.064" y="12.9644" width="21.4373" height="22.7551" filterUnits="userSpaceOnUse" color-interpolation-filters="sRGB">
<feFlood flood-opacity="0" result="BackgroundImageFix"/>
<feColorMatrix in="SourceAlpha" type="matrix" values="0 0 0 0 0 0 0 0 0 0 0 0 0 0 0 0 0 0 127 0" result="hardAlpha"/>
<feOffset dy="2"/>
<feGaussianBlur stdDeviation="1"/>
<feComposite in2="hardAlpha" operator="out"/>
<feColorMatrix type="matrix" values="0 0 0 0 0 0 0 0 0 0 0 0 0 0 0 0 0 0 0.8 0"/>
<feBlend mode="normal" in2="BackgroundImageFix" result="effect1_dropShadow_424_214"/>
<feBlend mode="normal" in="SourceGraphic" in2="effect1_dropShadow_424_214" result="shape"/>
</filter>
<filter id="filter3_d_424_214" x="140.518" y="12.9644" width="21.5387" height="22.7891" filterUnits="userSpaceOnUse" color-interpolation-filters="sRGB">
<feFlood flood-opacity="0" result="BackgroundImageFix"/>
<feColorMatrix in="SourceAlpha" type="matrix" values="0 0 0 0 0 0 0 0 0 0 0 0 0 0 0 0 0 0 127 0" result="hardAlpha"/>
<feOffset dy="2"/>
<feGaussianBlur stdDeviation="1"/>
<feComposite in2="hardAlpha" operator="out"/>
<feColorMatrix type="matrix" values="0 0 0 0 0 0 0 0 0 0 0 0 0 0 0 0 0 0 0.8 0"/>
<feBlend mode="normal" in2="BackgroundImageFix" result="effect1_dropShadow_424_214"/>
<feBlend mode="normal" in="SourceGraphic" in2="effect1_dropShadow_424_214" result="shape"/>
</filter>
<filter id="filter4_d_424_214" x="119.87" y="6.56055" width="25.0532" height="29.1929" filterUnits="userSpaceOnUse" color-interpolation-filters="sRGB">
<feFlood flood-opacity="0" result="BackgroundImageFix"/>
<feColorMatrix in="SourceAlpha" type="matrix" values="0 0 0 0 0 0 0 0 0 0 0 0 0 0 0 0 0 0 127 0" result="hardAlpha"/>
<feOffset dy="2"/>
<feGaussianBlur stdDeviation="1"/>
<feComposite in2="hardAlpha" operator="out"/>
<feColorMatrix type="matrix" values="0 0 0 0 0 0 0 0 0 0 0 0 0 0 0 0 0 0 0.8 0"/>
<feBlend mode="normal" in2="BackgroundImageFix" result="effect1_dropShadow_424_214"/>
<feBlend mode="normal" in="SourceGraphic" in2="effect1_dropShadow_424_214" result="shape"/>
</filter>
<filter id="filter5_d_424_214" x="107.789" y="6.72949" width="16.4528" height="29.0239" filterUnits="userSpaceOnUse" color-interpolation-filters="sRGB">
<feFlood flood-opacity="0" result="BackgroundImageFix"/>
<feColorMatrix in="SourceAlpha" type="matrix" values="0 0 0 0 0 0 0 0 0 0 0 0 0 0 0 0 0 0 127 0" result="hardAlpha"/>
<feOffset dy="2"/>
<feGaussianBlur stdDeviation="1"/>
<feComposite in2="hardAlpha" operator="out"/>
<feColorMatrix type="matrix" values="0 0 0 0 0 0 0 0 0 0 0 0 0 0 0 0 0 0 0.8 0"/>
<feBlend mode="normal" in2="BackgroundImageFix" result="effect1_dropShadow_424_214"/>
<feBlend mode="normal" in="SourceGraphic" in2="effect1_dropShadow_424_214" result="shape"/>
</filter>
<filter id="filter6_d_424_214" x="95.4714" y="6.13794" width="17.4497" height="29.6152" filterUnits="userSpaceOnUse" color-interpolation-filters="sRGB">
<feFlood flood-opacity="0" result="BackgroundImageFix"/>
<feColorMatrix in="SourceAlpha" type="matrix" values="0 0 0 0 0 0 0 0 0 0 0 0 0 0 0 0 0 0 127 0" result="hardAlpha"/>
<feOffset dy="2"/>
<feGaussianBlur stdDeviation="1"/>
<feComposite in2="hardAlpha" operator="out"/>
<feColorMatrix type="matrix" values="0 0 0 0 0 0 0 0 0 0 0 0 0 0 0 0 0 0 0.8 0"/>
<feBlend mode="normal" in2="BackgroundImageFix" result="effect1_dropShadow_424_214"/>
<feBlend mode="normal" in="SourceGraphic" in2="effect1_dropShadow_424_214" result="shape"/>
</filter>
<filter id="filter7_d_424_214" x="76.1417" y="12.998" width="22.3666" height="22.7551" filterUnits="userSpaceOnUse" color-interpolation-filters="sRGB">
<feFlood flood-opacity="0" result="BackgroundImageFix"/>
<feColorMatrix in="SourceAlpha" type="matrix" values="0 0 0 0 0 0 0 0 0 0 0 0 0 0 0 0 0 0 127 0" result="hardAlpha"/>
<feOffset dy="2"/>
<feGaussianBlur stdDeviation="1"/>
<feComposite in2="hardAlpha" operator="out"/>
<feColorMatrix type="matrix" values="0 0 0 0 0 0 0 0 0 0 0 0 0 0 0 0 0 0 0.8 0"/>
<feBlend mode="normal" in2="BackgroundImageFix" result="effect1_dropShadow_424_214"/>
<feBlend mode="normal" in="SourceGraphic" in2="effect1_dropShadow_424_214" result="shape"/>
</filter>
<filter id="filter8_d_424_214" x="53.6186" y="6.13794" width="23.6845" height="29.6152" filterUnits="userSpaceOnUse" color-interpolation-filters="sRGB">
<feFlood flood-opacity="0" result="BackgroundImageFix"/>
<feColorMatrix in="SourceAlpha" type="matrix" values="0 0 0 0 0 0 0 0 0 0 0 0 0 0 0 0 0 0 127 0" result="hardAlpha"/>
<feOffset dy="2"/>
<feGaussianBlur stdDeviation="1"/>
<feComposite in2="hardAlpha" operator="out"/>
<feColorMatrix type="matrix" values="0 0 0 0 0 0 0 0 0 0 0 0 0 0 0 0 0 0 0.8 0"/>
<feBlend mode="normal" in2="BackgroundImageFix" result="effect1_dropShadow_424_214"/>
<feBlend mode="normal" in="SourceGraphic" in2="effect1_dropShadow_424_214" result="shape"/>
</filter>
<filter id="filter9_d_424_214" x="181.56" y="5.67041" width="20.4404" height="29.6152" filterUnits="userSpaceOnUse" color-interpolation-filters="sRGB">
<feFlood flood-opacity="0" result="BackgroundImageFix"/>
<feColorMatrix in="SourceAlpha" type="matrix" values="0 0 0 0 0 0 0 0 0 0 0 0 0 0 0 0 0 0 127 0" result="hardAlpha"/>
<feOffset dy="2"/>
<feGaussianBlur stdDeviation="1"/>
<feComposite in2="hardAlpha" operator="out"/>
<feColorMatrix type="matrix" values="0 0 0 0 0 0 0 0 0 0 0 0 0 0 0 0 0 0 0.8 0"/>
<feBlend mode="normal" in2="BackgroundImageFix" result="effect1_dropShadow_424_214"/>
<feBlend mode="normal" in="SourceGraphic" in2="effect1_dropShadow_424_214" result="shape"/>
</filter>
<filter id="filter10_d_424_214" x="161.064" y="12.4966" width="21.4373" height="22.7551" filterUnits="userSpaceOnUse" color-interpolation-filters="sRGB">
<feFlood flood-opacity="0" result="BackgroundImageFix"/>
<feColorMatrix in="SourceAlpha" type="matrix" values="0 0 0 0 0 0 0 0 0 0 0 0 0 0 0 0 0 0 127 0" result="hardAlpha"/>
<feOffset dy="2"/>
<feGaussianBlur stdDeviation="1"/>
<feComposite in2="hardAlpha" operator="out"/>
<feColorMatrix type="matrix" values="0 0 0 0 0 0 0 0 0 0 0 0 0 0 0 0 0 0 0.8 0"/>
<feBlend mode="normal" in2="BackgroundImageFix" result="effect1_dropShadow_424_214"/>
<feBlend mode="normal" in="SourceGraphic" in2="effect1_dropShadow_424_214" result="shape"/>
</filter>
<filter id="filter11_d_424_214" x="140.518" y="12.4966" width="21.5387" height="22.7891" filterUnits="userSpaceOnUse" color-interpolation-filters="sRGB">
<feFlood flood-opacity="0" result="BackgroundImageFix"/>
<feColorMatrix in="SourceAlpha" type="matrix" values="0 0 0 0 0 0 0 0 0 0 0 0 0 0 0 0 0 0 127 0" result="hardAlpha"/>
<feOffset dy="2"/>
<feGaussianBlur stdDeviation="1"/>
<feComposite in2="hardAlpha" operator="out"/>
<feColorMatrix type="matrix" values="0 0 0 0 0 0 0 0 0 0 0 0 0 0 0 0 0 0 0.8 0"/>
<feBlend mode="normal" in2="BackgroundImageFix" result="effect1_dropShadow_424_214"/>
<feBlend mode="normal" in="SourceGraphic" in2="effect1_dropShadow_424_214" result="shape"/>
</filter>
<filter id="filter12_d_424_214" x="119.87" y="6.09277" width="25.0532" height="29.1929" filterUnits="userSpaceOnUse" color-interpolation-filters="sRGB">
<feFlood flood-opacity="0" result="BackgroundImageFix"/>
<feColorMatrix in="SourceAlpha" type="matrix" values="0 0 0 0 0 0 0 0 0 0 0 0 0 0 0 0 0 0 127 0" result="hardAlpha"/>
<feOffset dy="2"/>
<feGaussianBlur stdDeviation="1"/>
<feComposite in2="hardAlpha" operator="out"/>
<feColorMatrix type="matrix" values="0 0 0 0 0 0 0 0 0 0 0 0 0 0 0 0 0 0 0.8 0"/>
<feBlend mode="normal" in2="BackgroundImageFix" result="effect1_dropShadow_424_214"/>
<feBlend mode="normal" in="SourceGraphic" in2="effect1_dropShadow_424_214" result="shape"/>
</filter>
<filter id="filter13_d_424_214" x="107.789" y="6.26172" width="16.4528" height="29.0239" filterUnits="userSpaceOnUse" color-interpolation-filters="sRGB">
<feFlood flood-opacity="0" result="BackgroundImageFix"/>
<feColorMatrix in="SourceAlpha" type="matrix" values="0 0 0 0 0 0 0 0 0 0 0 0 0 0 0 0 0 0 127 0" result="hardAlpha"/>
<feOffset dy="2"/>
<feGaussianBlur stdDeviation="1"/>
<feComposite in2="hardAlpha" operator="out"/>
<feColorMatrix type="matrix" values="0 0 0 0 0 0 0 0 0 0 0 0 0 0 0 0 0 0 0.8 0"/>
<feBlend mode="normal" in2="BackgroundImageFix" result="effect1_dropShadow_424_214"/>
<feBlend mode="normal" in="SourceGraphic" in2="effect1_dropShadow_424_214" result="shape"/>
</filter>
<filter id="filter14_d_424_214" x="95.4714" y="5.67041" width="17.4497" height="29.6152" filterUnits="userSpaceOnUse" color-interpolation-filters="sRGB">
<feFlood flood-opacity="0" result="BackgroundImageFix"/>
<feColorMatrix in="SourceAlpha" type="matrix" values="0 0 0 0 0 0 0 0 0 0 0 0 0 0 0 0 0 0 127 0" result="hardAlpha"/>
<feOffset dy="2"/>
<feGaussianBlur stdDeviation="1"/>
<feComposite in2="hardAlpha" operator="out"/>
<feColorMatrix type="matrix" values="0 0 0 0 0 0 0 0 0 0 0 0 0 0 0 0 0 0 0.8 0"/>
<feBlend mode="normal" in2="BackgroundImageFix" result="effect1_dropShadow_424_214"/>
<feBlend mode="normal" in="SourceGraphic" in2="effect1_dropShadow_424_214" result="shape"/>
</filter>
<filter id="filter15_d_424_214" x="76.1417" y="12.5305" width="22.3666" height="22.7551" filterUnits="userSpaceOnUse" color-interpolation-filters="sRGB">
<feFlood flood-opacity="0" result="BackgroundImageFix"/>
<feColorMatrix in="SourceAlpha" type="matrix" values="0 0 0 0 0 0 0 0 0 0 0 0 0 0 0 0 0 0 127 0" result="hardAlpha"/>
<feOffset dy="2"/>
<feGaussianBlur stdDeviation="1"/>
<feComposite in2="hardAlpha" operator="out"/>
<feColorMatrix type="matrix" values="0 0 0 0 0 0 0 0 0 0 0 0 0 0 0 0 0 0 0.8 0"/>
<feBlend mode="normal" in2="BackgroundImageFix" result="effect1_dropShadow_424_214"/>
<feBlend mode="normal" in="SourceGraphic" in2="effect1_dropShadow_424_214" result="shape"/>
</filter>
<filter id="filter16_d_424_214" x="53.6186" y="5.67041" width="23.6845" height="29.6152" filterUnits="userSpaceOnUse" color-interpolation-filters="sRGB">
<feFlood flood-opacity="0" result="BackgroundImageFix"/>
<feColorMatrix in="SourceAlpha" type="matrix" values="0 0 0 0 0 0 0 0 0 0 0 0 0 0 0 0 0 0 127 0" result="hardAlpha"/>
<feOffset dy="2"/>
<feGaussianBlur stdDeviation="1"/>
<feComposite in2="hardAlpha" operator="out"/>
<feColorMatrix type="matrix" values="0 0 0 0 0 0 0 0 0 0 0 0 0 0 0 0 0 0 0.8 0"/>
<feBlend mode="normal" in2="BackgroundImageFix" result="effect1_dropShadow_424_214"/>
<feBlend mode="normal" in="SourceGraphic" in2="effect1_dropShadow_424_214" result="shape"/>
</filter>
</defs>
</svg>
