<svg width="842" height="652" viewBox="0 0 842 652" fill="none" xmlns="http://www.w3.org/2000/svg">
<path fill-rule="evenodd" clip-rule="evenodd" d="M166.997 514.571C54.5535 394.024 -54.343 227.742 32.2681 88.372C116.234 -46.7396 306.095 5.3035 461.719 40.3266C620.413 76.0409 817.613 108.732 839.349 270.001C862.595 442.477 704.881 575.326 541.82 634.643C405.929 684.068 266.076 620.785 166.997 514.571Z" fill="url(#paint0_linear_292_136)"/>
<path fill-rule="evenodd" clip-rule="evenodd" d="M413.888 169.563C409.113 158.817 413.888 145.485 422.443 145.485H488.892C498.559 144.734 500.822 147.962 501.823 157.226V253.735V253.745C501.819 254.271 501.815 254.634 500.705 255.819L436.37 321.142C428.277 332.876 429.32 337.913 438.433 349.648C450.762 364.203 460.21 375.252 469.581 386.212C478.807 396.999 487.957 407.7 499.71 421.576C501.226 423.367 501.823 424.958 501.823 427.053V519.582C501.949 528.686 499.225 531.351 488.892 531.323H430.203C409.312 531.323 409.312 512.513 409.312 504.062C409.312 501.567 400.252 502.954 385.498 505.213C350.269 510.605 282.577 520.966 228.308 495.299C142.366 454.653 79.8508 273.434 216.928 176.528C256.718 148.397 338.486 129.368 413.888 169.563ZM314.613 436.605C369.551 436.605 414.086 392.06 414.086 337.111C414.086 282.162 369.551 237.617 314.613 237.617C259.673 237.617 215.137 282.162 215.137 337.111C215.137 392.06 259.673 436.605 314.613 436.605Z" fill="white"/>
<path d="M658.946 148.292C649.975 141.631 644.753 140.834 634.876 148.292C634.876 148.292 477.706 313.253 467.958 325.39C458.208 337.529 461.989 341.508 467.161 351.856L634.876 524.977C648.006 534.224 654.362 533.423 664.522 524.977L703.313 479.207C704.991 473.082 704.637 469.442 698.541 462.096L591.505 345.488C585.264 338.451 585.072 334.854 591.505 329.172L698.541 211.967C705.416 201.322 705.007 195.932 698.541 187.094L658.946 148.292Z" fill="white"/>
<defs>
<linearGradient id="paint0_linear_292_136" x1="153.893" y1="500.468" x2="1035.64" y2="518.005" gradientUnits="userSpaceOnUse">
<stop stop-color="#00305C"/>
<stop offset="1" stop-color="#003AFF"/>
</linearGradient>
</defs>
</svg>
