<svg width="202" height="40" viewBox="0 0 202 40" fill="none" xmlns="http://www.w3.org/2000/svg">
<path d="M0 5C0 2.23858 2.28335 0 5.1 0H45.9C48.7166 0 51 2.23858 51 5V35C51 37.7614 48.7166 40 45.9 40H5.1C2.28335 40 0 37.7614 0 35V5Z" fill="#0A53BF"/>
<g filter="url(#filter0_d_425_153)">
<path fill-rule="evenodd" clip-rule="evenodd" d="M25.2219 8.62882C24.9002 7.90505 25.2219 7.00705 25.7982 7.00705H30.2749C30.9262 6.95645 31.0786 7.17386 31.1461 7.79783V14.2983L31.1461 14.2991C31.1458 14.3344 31.1455 14.3589 31.0707 14.4387L26.7365 18.8386C26.1913 19.629 26.2616 19.9683 26.8755 20.7586C27.7061 21.7391 28.3426 22.4833 28.974 23.2215C29.5954 23.9481 30.2119 24.6689 31.0036 25.6035C31.1058 25.7241 31.1461 25.8314 31.1461 25.9724V32.2049C31.1545 32.818 30.971 32.9975 30.2749 32.9957H26.321C24.9136 32.9957 24.9136 31.7287 24.9136 31.1594C24.9136 31.001 24.3693 31.0886 23.4558 31.2356C21.0861 31.6168 16.2323 32.3977 11.9528 30.3212C4.01572 26.47 4.01572 13.6326 11.9528 9.09793C14.8031 7.46951 20.1421 5.92139 25.2219 8.62882ZM18.5337 26.616C22.2349 26.616 25.2353 23.6156 25.2353 19.9144C25.2353 16.2133 22.2349 13.2129 18.5337 13.2129C14.8326 13.2129 11.8322 16.2133 11.8322 19.9144C11.8322 23.6156 14.8326 26.616 18.5337 26.616Z" fill="white"/>
<path d="M41.7315 7.35688C41.127 6.90825 40.7754 6.85458 40.1097 7.35688C40.1097 7.35688 29.5213 18.4681 28.8645 19.2856C28.2078 20.1032 28.4624 20.3713 28.8109 21.0683L40.1097 32.7289C40.9945 33.3519 41.4226 33.2979 42.1068 32.7289L44.7204 29.6462C44.8335 29.2335 44.8095 28.9885 44.3987 28.4936L37.1879 20.6394C36.7674 20.1653 36.7545 19.9231 37.1879 19.5403L44.3987 11.6459C44.8617 10.9288 44.8343 10.5658 44.3987 9.97049L41.7315 7.35688Z" fill="white"/>
</g>
<g filter="url(#filter1_d_425_153)">
<path d="M188.461 10.1925V16.8687C189.032 16.2093 189.587 15.6873 190.126 15.3027C190.675 14.918 191.28 14.6323 191.939 14.4455C192.598 14.2477 193.307 14.1488 194.066 14.1488C195.208 14.1488 196.22 14.3905 197.099 14.8741C197.989 15.3576 198.687 16.061 199.192 16.9841C199.511 17.5226 199.725 18.127 199.835 18.7974C199.945 19.4568 200 20.2205 200 21.0887V29.7101C200 30.6113 199.791 31.2926 199.374 31.7542C198.967 32.2158 198.423 32.4465 197.742 32.4465C196.258 32.4465 195.516 31.5344 195.516 29.7101V22.1108C195.516 20.6711 195.302 19.5667 194.873 18.7974C194.445 18.0171 193.631 17.627 192.434 17.627C191.631 17.627 190.906 17.8578 190.258 18.3193C189.62 18.7699 189.142 19.3908 188.823 20.1821C188.582 20.8524 188.461 22.0448 188.461 23.7592V29.7101C188.461 30.6003 188.258 31.2816 187.851 31.7542C187.455 32.2158 186.9 32.4465 186.186 32.4465C184.702 32.4465 183.961 31.5344 183.961 29.7101V10.1925C183.961 9.28034 184.153 8.59898 184.538 8.1484C184.933 7.68684 185.483 7.45605 186.186 7.45605C186.9 7.45605 187.455 7.68684 187.851 8.1484C188.258 8.60997 188.461 9.29133 188.461 10.1925Z" fill="#0A53BF"/>
</g>
<g filter="url(#filter2_d_425_153)">
<path d="M180.977 26.875C180.977 27.4354 180.807 28.0344 180.466 28.6718C180.136 29.3092 179.625 29.9191 178.933 30.5015C178.251 31.073 177.389 31.5346 176.345 31.8862C175.301 32.2379 174.125 32.4137 172.817 32.4137C170.037 32.4137 167.866 31.606 166.306 29.9905C164.745 28.3641 163.965 26.1881 163.965 23.4627C163.965 21.6164 164.322 19.9844 165.036 18.5668C165.751 17.1491 166.784 16.0556 168.135 15.2864C169.487 14.5061 171.103 14.116 172.982 14.116C174.147 14.116 175.213 14.2863 176.18 14.627C177.158 14.9677 177.982 15.4073 178.653 15.9457C179.334 16.4842 179.85 17.0612 180.202 17.6766C180.565 18.281 180.746 18.847 180.746 19.3745C180.746 19.913 180.543 20.3691 180.136 20.7427C179.741 21.1164 179.257 21.3032 178.686 21.3032C178.312 21.3032 177.999 21.2098 177.746 21.023C177.504 20.8252 177.229 20.5119 176.922 20.0834C176.372 19.2481 175.795 18.6217 175.191 18.2041C174.597 17.7865 173.839 17.5777 172.916 17.5777C171.586 17.5777 170.515 18.0997 169.702 19.1437C168.888 20.1768 168.482 21.5944 168.482 23.3967C168.482 24.2429 168.586 25.0232 168.795 25.7375C169.004 26.4409 169.306 27.0453 169.702 27.5508C170.097 28.0454 170.575 28.4245 171.136 28.6883C171.696 28.941 172.312 29.0674 172.982 29.0674C173.883 29.0674 174.652 28.8586 175.29 28.441C175.938 28.0234 176.51 27.386 177.004 26.5288C177.279 26.0233 177.576 25.6276 177.894 25.3419C178.213 25.0562 178.603 24.9133 179.065 24.9133C179.614 24.9133 180.07 25.1221 180.433 25.5397C180.796 25.9573 180.977 26.4024 180.977 26.875Z" fill="#0A53BF"/>
</g>
<g filter="url(#filter3_d_425_153)">
<path d="M157.322 24.4023H148.519C148.53 25.4243 148.733 26.3255 149.129 27.1057C149.535 27.886 150.068 28.474 150.728 28.8696C151.398 29.2652 152.135 29.463 152.937 29.463C153.475 29.463 153.964 29.4026 154.404 29.2817C154.854 29.1498 155.289 28.952 155.706 28.6883C156.124 28.4135 156.508 28.1223 156.86 27.8146C157.212 27.5069 157.668 27.0893 158.228 26.5618C158.459 26.3639 158.789 26.265 159.217 26.265C159.679 26.265 160.053 26.3914 160.338 26.6442C160.624 26.8969 160.767 27.2541 160.767 27.7157C160.767 28.1223 160.608 28.6003 160.289 29.1498C159.97 29.6883 159.487 30.2103 158.838 30.7158C158.201 31.2104 157.393 31.6225 156.415 31.9522C155.448 32.2819 154.332 32.4467 153.069 32.4467C150.178 32.4467 147.931 31.6225 146.326 29.974C144.722 28.3256 143.92 26.0892 143.92 23.2649C143.92 21.9351 144.118 20.7043 144.513 19.5723C144.909 18.4294 145.486 17.4513 146.244 16.6381C147.002 15.8249 147.936 15.2039 149.046 14.7753C150.156 14.3358 151.387 14.116 152.739 14.116C154.497 14.116 156.003 14.4896 157.256 15.2369C158.519 15.9732 159.465 16.9293 160.091 18.1052C160.717 19.2811 161.031 20.479 161.031 21.6988C161.031 22.8308 160.706 23.5671 160.058 23.9078C159.41 24.2374 158.498 24.4023 157.322 24.4023ZM148.519 21.8472H156.679C156.569 20.3086 156.151 19.1602 155.426 18.4019C154.712 17.6327 153.766 17.248 152.591 17.248C151.47 17.248 150.547 17.6382 149.821 18.4184C149.107 19.1877 148.673 20.3306 148.519 21.8472Z" fill="#0A53BF"/>
</g>
<g filter="url(#filter4_d_425_153)">
<path d="M141.81 11.9071H136.469V29.4631C136.469 30.4741 136.243 31.2269 135.793 31.7215C135.342 32.205 134.76 32.4468 134.046 32.4468C133.32 32.4468 132.727 32.1995 132.265 31.705C131.815 31.2104 131.589 30.4631 131.589 29.4631V11.9071H126.248C125.413 11.9071 124.792 11.7258 124.386 11.3631C123.979 10.9895 123.776 10.5004 123.776 9.896C123.776 9.26959 123.984 8.77505 124.402 8.4124C124.831 8.04974 125.446 7.86841 126.248 7.86841H141.81C142.656 7.86841 143.282 8.05523 143.689 8.42888C144.107 8.80253 144.315 9.29157 144.315 9.896C144.315 10.5004 144.107 10.9895 143.689 11.3631C143.271 11.7258 142.645 11.9071 141.81 11.9071Z" fill="#0A53BF"/>
</g>
<g filter="url(#filter5_d_425_153)">
<path d="M114.083 14.5446H114.577V11.8411C114.577 11.1158 114.594 10.5498 114.627 10.1432C114.671 9.72561 114.781 9.36845 114.957 9.07173C115.132 8.76402 115.385 8.51675 115.715 8.32992C116.045 8.13211 116.413 8.0332 116.819 8.0332C117.391 8.0332 117.907 8.2475 118.369 8.6761C118.677 8.96183 118.869 9.3135 118.946 9.7311C119.034 10.1377 119.078 10.7202 119.078 11.4785V14.5446H120.726C121.363 14.5446 121.847 14.6984 122.177 15.0061C122.517 15.3029 122.688 15.6875 122.688 16.1601C122.688 16.7645 122.446 17.1876 121.962 17.4294C121.49 17.6711 120.809 17.792 119.918 17.792H119.078V26.0672C119.078 26.7706 119.1 27.3146 119.144 27.6992C119.199 28.0728 119.33 28.3806 119.539 28.6223C119.759 28.8531 120.111 28.9685 120.594 28.9685C120.858 28.9685 121.215 28.9245 121.666 28.8366C122.116 28.7377 122.468 28.6883 122.721 28.6883C123.083 28.6883 123.408 28.8366 123.693 29.1333C123.99 29.4191 124.138 29.7762 124.138 30.2048C124.138 30.9302 123.743 31.4851 122.952 31.8698C122.16 32.2544 121.023 32.4467 119.539 32.4467C118.133 32.4467 117.067 32.2104 116.341 31.7379C115.616 31.2653 115.138 30.6115 114.907 29.7762C114.687 28.941 114.577 27.8256 114.577 26.4299V17.792H113.984C113.336 17.792 112.841 17.6382 112.5 17.3305C112.16 17.0227 111.989 16.6326 111.989 16.1601C111.989 15.6875 112.165 15.3029 112.517 15.0061C112.879 14.6984 113.401 14.5446 114.083 14.5446Z" fill="white"/>
</g>
<g filter="url(#filter6_d_425_153)">
<path d="M102.23 14.5444H103.302V13.1927C103.302 11.786 103.478 10.6705 103.829 9.84631C104.192 9.01109 104.797 8.40666 105.643 8.03301C106.5 7.64837 107.67 7.45605 109.154 7.45605C111.78 7.45605 113.094 8.09895 113.094 9.38474C113.094 9.80235 112.956 10.1595 112.682 10.4562C112.407 10.753 112.083 10.9013 111.709 10.9013C111.533 10.9013 111.231 10.8683 110.802 10.8024C110.374 10.7365 110.011 10.7035 109.714 10.7035C108.901 10.7035 108.379 10.9453 108.148 11.4288C107.918 11.9014 107.802 12.5827 107.802 13.4729V14.5444H108.907C110.621 14.5444 111.478 15.0609 111.478 16.0939C111.478 16.8302 111.247 17.2973 110.786 17.4951C110.335 17.6929 109.709 17.7918 108.907 17.7918H107.802V29.7101C107.802 30.6003 107.588 31.2816 107.159 31.7542C106.742 32.2158 106.198 32.4465 105.527 32.4465C104.89 32.4465 104.357 32.2158 103.928 31.7542C103.511 31.2816 103.302 30.6003 103.302 29.7101V17.7918H102.066C101.395 17.7918 100.879 17.6435 100.516 17.3467C100.153 17.039 99.9721 16.6434 99.9721 16.1599C99.9721 15.0829 100.725 14.5444 102.23 14.5444Z" fill="white"/>
</g>
<g filter="url(#filter7_d_425_153)">
<path d="M99.0325 23.2978C99.0325 24.6386 98.8237 25.8749 98.4061 27.0068C97.9885 28.1388 97.3841 29.1113 96.5928 29.9246C95.8016 30.7378 94.8565 31.3642 93.7575 31.8038C92.6585 32.2324 91.4222 32.4467 90.0485 32.4467C88.6858 32.4467 87.4604 32.2269 86.3724 31.7873C85.2845 31.3477 84.3394 30.7213 83.5371 29.9081C82.7459 29.0839 82.1414 28.1168 81.7238 27.0068C81.3172 25.8859 81.1139 24.6495 81.1139 23.2978C81.1139 21.9351 81.3227 20.6878 81.7403 19.5558C82.1579 18.4239 82.7568 17.4568 83.5371 16.6546C84.3174 15.8523 85.2625 15.2369 86.3724 14.8083C87.4824 14.3687 88.7077 14.1489 90.0485 14.1489C91.4112 14.1489 92.6475 14.3687 93.7575 14.8083C94.8674 15.2479 95.8181 15.8743 96.6093 16.6875C97.4006 17.5008 97.9995 18.4679 98.4061 19.5888C98.8237 20.7098 99.0325 21.9461 99.0325 23.2978ZM94.5158 23.2978C94.5158 21.4625 94.1092 20.0339 93.2959 19.0118C92.4937 17.9898 91.4112 17.4788 90.0485 17.4788C89.1693 17.4788 88.3945 17.7096 87.7242 18.1711C87.0538 18.6217 86.5373 19.2921 86.1746 20.1822C85.812 21.0724 85.6306 22.1109 85.6306 23.2978C85.6306 24.4737 85.8065 25.5012 86.1581 26.3804C86.5208 27.2596 87.0318 27.9354 87.6912 28.408C88.3616 28.8696 89.1473 29.1004 90.0485 29.1004C91.4112 29.1004 92.4937 28.5893 93.2959 27.5673C94.1092 26.5343 94.5158 25.1111 94.5158 23.2978Z" fill="white"/>
</g>
<g filter="url(#filter8_d_425_153)">
<path d="M78.3445 24.7812C78.3445 26.2429 77.9654 27.5561 77.2071 28.721C76.4598 29.8859 75.3608 30.7981 73.9102 31.4575C72.4595 32.1168 70.7397 32.4465 68.7505 32.4465C66.3658 32.4465 64.3986 31.996 62.8491 31.0948C61.7501 30.4464 60.8545 29.5837 60.1621 28.5067C59.4808 27.4188 59.1401 26.3638 59.1401 25.3417C59.1401 24.7483 59.3434 24.2428 59.75 23.8251C60.1676 23.3966 60.6951 23.1823 61.3325 23.1823C61.849 23.1823 62.2831 23.3471 62.6348 23.6768C62.9974 24.0065 63.3052 24.4955 63.5579 25.1439C63.8656 25.9132 64.1953 26.5561 64.547 27.0726C64.9096 27.5891 65.4152 28.0177 66.0636 28.3584C66.7119 28.6881 67.5636 28.8529 68.6187 28.8529C70.0693 28.8529 71.2452 28.5177 72.1463 27.8474C73.0585 27.166 73.5145 26.3198 73.5145 25.3088C73.5145 24.5065 73.2673 23.8581 72.7727 23.3636C72.2892 22.8581 71.6573 22.4734 70.877 22.2097C70.1078 21.9459 69.0747 21.6657 67.7779 21.369C66.0416 20.9623 64.5855 20.4898 63.4096 19.9513C62.2447 19.4018 61.316 18.66 60.6237 17.7259C59.9423 16.7808 59.6016 15.6104 59.6016 14.2147C59.6016 12.8849 59.9643 11.7036 60.6896 10.6705C61.4149 9.6375 62.4644 8.84625 63.8382 8.29676C65.2119 7.73629 66.8273 7.45605 68.6846 7.45605C70.1682 7.45605 71.4485 7.64288 72.5255 8.01653C73.6135 8.37919 74.5146 8.86823 75.2289 9.48365C75.9433 10.0881 76.4653 10.7255 76.795 11.3958C77.1246 12.0662 77.2895 12.7201 77.2895 13.3575C77.2895 13.94 77.0807 14.4675 76.6631 14.94C76.2565 15.4016 75.7454 15.6324 75.13 15.6324C74.5696 15.6324 74.141 15.495 73.8442 15.2202C73.5585 14.9345 73.2453 14.473 72.9046 13.8356C72.465 12.9234 71.9375 12.2146 71.3221 11.7091C70.7067 11.1925 69.7176 10.9343 68.3549 10.9343C67.0911 10.9343 66.0691 11.2145 65.2888 11.775C64.5195 12.3245 64.1349 12.9893 64.1349 13.7696C64.1349 14.2532 64.2667 14.6708 64.5305 15.0224C64.7943 15.3741 65.1569 15.6763 65.6185 15.9291C66.08 16.1818 66.5471 16.3797 67.0197 16.5225C67.4922 16.6654 68.2725 16.8742 69.3605 17.1489C70.7232 17.4676 71.954 17.8193 73.053 18.2039C74.1629 18.5886 75.1026 19.0556 75.8718 19.6051C76.6521 20.1546 77.2565 20.8524 77.6851 21.6986C78.1247 22.5339 78.3445 23.5614 78.3445 24.7812Z" fill="white"/>
</g>
<g filter="url(#filter9_d_425_153)">
<path d="M188.461 9.73642V16.4126C189.032 15.7533 189.587 15.2313 190.126 14.8466C190.675 14.462 191.28 14.1762 191.939 13.9894C192.598 13.7916 193.307 13.6927 194.066 13.6927C195.208 13.6927 196.22 13.9345 197.099 14.418C197.989 14.9016 198.687 15.6049 199.192 16.528C199.511 17.0665 199.725 17.671 199.835 18.3413C199.945 19.0007 200 19.7645 200 20.6327V29.2541C200 30.1552 199.791 30.8366 199.374 31.2981C198.967 31.7597 198.423 31.9905 197.742 31.9905C196.258 31.9905 195.516 31.0783 195.516 29.2541V21.6547C195.516 20.2151 195.302 19.1106 194.873 18.3413C194.445 17.5611 193.631 17.1709 192.434 17.1709C191.631 17.1709 190.906 17.4017 190.258 17.8633C189.62 18.3139 189.142 18.9348 188.823 19.726C188.582 20.3964 188.461 21.5888 188.461 23.3032V29.2541C188.461 30.1442 188.258 30.8256 187.851 31.2981C187.455 31.7597 186.9 31.9905 186.186 31.9905C184.702 31.9905 183.961 31.0783 183.961 29.2541V9.73642C183.961 8.82428 184.153 8.14292 184.538 7.69235C184.933 7.23078 185.483 7 186.186 7C186.9 7 187.455 7.23078 187.851 7.69235C188.258 8.15391 188.461 8.83527 188.461 9.73642Z" fill="#0A53BF"/>
</g>
<g filter="url(#filter10_d_425_153)">
<path d="M180.977 26.4187C180.977 26.9791 180.807 27.5781 180.466 28.2155C180.136 28.8529 179.625 29.4628 178.933 30.0452C178.251 30.6167 177.389 31.0783 176.345 31.4299C175.301 31.7816 174.125 31.9574 172.817 31.9574C170.037 31.9574 167.866 31.1497 166.306 29.5342C164.745 27.9078 163.965 25.7318 163.965 23.0064C163.965 21.1601 164.322 19.5281 165.036 18.1105C165.751 16.6928 166.784 15.5993 168.135 14.8301C169.487 14.0498 171.103 13.6597 172.982 13.6597C174.147 13.6597 175.213 13.83 176.18 14.1707C177.158 14.5114 177.982 14.951 178.653 15.4894C179.334 16.0279 179.85 16.6049 180.202 17.2203C180.565 17.8247 180.746 18.3907 180.746 18.9182C180.746 19.4567 180.543 19.9128 180.136 20.2864C179.741 20.6601 179.257 20.8469 178.686 20.8469C178.312 20.8469 177.999 20.7535 177.746 20.5667C177.504 20.3689 177.229 20.0556 176.922 19.6271C176.372 18.7918 175.795 18.1654 175.191 17.7478C174.597 17.3302 173.839 17.1214 172.916 17.1214C171.586 17.1214 170.515 17.6434 169.702 18.6874C168.888 19.7205 168.482 21.1381 168.482 22.9404C168.482 23.7866 168.586 24.5669 168.795 25.2812C169.004 25.9846 169.306 26.589 169.702 27.0945C170.097 27.5891 170.575 27.9682 171.136 28.232C171.696 28.4847 172.312 28.6111 172.982 28.6111C173.883 28.6111 174.652 28.4023 175.29 27.9847C175.938 27.5671 176.51 26.9297 177.004 26.0725C177.279 25.567 177.576 25.1713 177.894 24.8856C178.213 24.5999 178.603 24.457 179.065 24.457C179.614 24.457 180.07 24.6658 180.433 25.0834C180.796 25.501 180.977 25.9461 180.977 26.4187Z" fill="#0A53BF"/>
</g>
<g filter="url(#filter11_d_425_153)">
<path d="M157.322 23.946H148.519C148.53 24.968 148.733 25.8692 149.129 26.6494C149.535 27.4297 150.068 28.0177 150.728 28.4133C151.398 28.8089 152.135 29.0067 152.937 29.0067C153.475 29.0067 153.964 28.9463 154.404 28.8254C154.854 28.6935 155.289 28.4957 155.706 28.232C156.124 27.9572 156.508 27.666 156.86 27.3583C157.212 27.0506 157.668 26.633 158.228 26.1055C158.459 25.9076 158.789 25.8087 159.217 25.8087C159.679 25.8087 160.053 25.9351 160.338 26.1879C160.624 26.4406 160.767 26.7978 160.767 27.2594C160.767 27.666 160.608 28.144 160.289 28.6935C159.97 29.232 159.487 29.754 158.838 30.2595C158.201 30.7541 157.393 31.1662 156.415 31.4959C155.448 31.8256 154.332 31.9904 153.069 31.9904C150.178 31.9904 147.931 31.1662 146.326 29.5177C144.722 27.8693 143.92 25.6329 143.92 22.8086C143.92 21.4788 144.118 20.248 144.513 19.116C144.909 17.9731 145.486 16.995 146.244 16.1818C147.002 15.3686 147.936 14.7476 149.046 14.319C150.156 13.8795 151.387 13.6597 152.739 13.6597C154.497 13.6597 156.003 14.0333 157.256 14.7806C158.519 15.5169 159.465 16.473 160.091 17.6489C160.717 18.8248 161.031 20.0227 161.031 21.2425C161.031 22.3745 160.706 23.1108 160.058 23.4515C159.41 23.7811 158.498 23.946 157.322 23.946ZM148.519 21.3909H156.679C156.569 19.8523 156.151 18.7039 155.426 17.9456C154.712 17.1764 153.766 16.7917 152.591 16.7917C151.47 16.7917 150.547 17.1819 149.821 17.9621C149.107 18.7314 148.673 19.8743 148.519 21.3909Z" fill="#0A53BF"/>
</g>
<g filter="url(#filter12_d_425_153)">
<path d="M141.81 11.4506H136.469V29.0065C136.469 30.0176 136.243 30.7704 135.793 31.2649C135.342 31.7485 134.76 31.9902 134.046 31.9902C133.32 31.9902 132.727 31.743 132.265 31.2484C131.815 30.7539 131.589 30.0066 131.589 29.0065V11.4506H126.248C125.413 11.4506 124.792 11.2692 124.386 10.9066C123.979 10.5329 123.776 10.0439 123.776 9.43946C123.776 8.81305 123.984 8.31851 124.402 7.95585C124.831 7.59319 125.446 7.41187 126.248 7.41187H141.81C142.656 7.41187 143.282 7.59869 143.689 7.97234C144.107 8.34599 144.315 8.83503 144.315 9.43946C144.315 10.0439 144.107 10.5329 143.689 10.9066C143.271 11.2692 142.645 11.4506 141.81 11.4506Z" fill="#0A53BF"/>
</g>
<g filter="url(#filter13_d_425_153)">
<path d="M114.083 14.0883H114.577V11.3848C114.577 10.6595 114.594 10.0935 114.627 9.68692C114.671 9.26931 114.781 8.91215 114.957 8.61543C115.132 8.30772 115.385 8.06045 115.715 7.87363C116.045 7.67581 116.413 7.5769 116.819 7.5769C117.391 7.5769 117.907 7.7912 118.369 8.2198C118.677 8.50553 118.869 8.8572 118.946 9.27481C119.034 9.68142 119.078 10.2639 119.078 11.0222V14.0883H120.726C121.363 14.0883 121.847 14.2421 122.177 14.5498C122.517 14.8466 122.688 15.2312 122.688 15.7038C122.688 16.3082 122.446 16.7313 121.962 16.9731C121.49 17.2148 120.809 17.3357 119.918 17.3357H119.078V25.6109C119.078 26.3143 119.1 26.8583 119.144 27.2429C119.199 27.6165 119.33 27.9243 119.539 28.166C119.759 28.3968 120.111 28.5122 120.594 28.5122C120.858 28.5122 121.215 28.4682 121.666 28.3803C122.116 28.2814 122.468 28.232 122.721 28.232C123.083 28.232 123.408 28.3803 123.693 28.677C123.99 28.9628 124.138 29.3199 124.138 29.7485C124.138 30.4739 123.743 31.0288 122.952 31.4135C122.16 31.7981 121.023 31.9904 119.539 31.9904C118.133 31.9904 117.067 31.7541 116.341 31.2816C115.616 30.809 115.138 30.1552 114.907 29.3199C114.687 28.4847 114.577 27.3693 114.577 25.9736V17.3357H113.984C113.336 17.3357 112.841 17.1819 112.5 16.8742C112.16 16.5664 111.989 16.1763 111.989 15.7038C111.989 15.2312 112.165 14.8466 112.517 14.5498C112.879 14.2421 113.401 14.0883 114.083 14.0883Z" fill="white"/>
</g>
<g filter="url(#filter14_d_425_153)">
<path d="M102.23 14.0883H103.302V12.7366C103.302 11.3299 103.478 10.2145 103.829 9.39025C104.192 8.55504 104.797 7.95061 105.643 7.57696C106.5 7.19232 107.67 7 109.154 7C111.78 7 113.094 7.64289 113.094 8.92868C113.094 9.34629 112.956 9.70346 112.682 10.0002C112.407 10.2969 112.083 10.4453 111.709 10.4453C111.533 10.4453 111.231 10.4123 110.802 10.3464C110.374 10.2804 110.011 10.2474 109.714 10.2474C108.901 10.2474 108.379 10.4892 108.148 10.9728C107.918 11.4453 107.802 12.1267 107.802 13.0168V14.0883H108.907C110.621 14.0883 111.478 14.6048 111.478 15.6379C111.478 16.3742 111.247 16.8412 110.786 17.0391C110.335 17.2369 109.709 17.3358 108.907 17.3358H107.802V29.2541C107.802 30.1442 107.588 30.8256 107.159 31.2981C106.742 31.7597 106.198 31.9905 105.527 31.9905C104.89 31.9905 104.357 31.7597 103.928 31.2981C103.511 30.8256 103.302 30.1442 103.302 29.2541V17.3358H102.066C101.395 17.3358 100.879 17.1874 100.516 16.8907C100.153 16.583 99.9721 16.1874 99.9721 15.7038C99.9721 14.6268 100.725 14.0883 102.23 14.0883Z" fill="white"/>
</g>
<g filter="url(#filter15_d_425_153)">
<path d="M99.0325 22.8415C99.0325 24.1823 98.8237 25.4186 98.4061 26.5505C97.9885 27.6825 97.3841 28.655 96.5928 29.4683C95.8016 30.2815 94.8565 30.9079 93.7575 31.3475C92.6585 31.7761 91.4222 31.9904 90.0485 31.9904C88.6858 31.9904 87.4604 31.7706 86.3724 31.331C85.2845 30.8914 84.3394 30.265 83.5371 29.4518C82.7459 28.6276 82.1414 27.6605 81.7238 26.5505C81.3172 25.4296 81.1139 24.1932 81.1139 22.8415C81.1139 21.4788 81.3227 20.2315 81.7403 19.0995C82.1579 17.9676 82.7568 17.0005 83.5371 16.1983C84.3174 15.396 85.2625 14.7806 86.3724 14.352C87.4824 13.9124 88.7077 13.6926 90.0485 13.6926C91.4112 13.6926 92.6475 13.9124 93.7575 14.352C94.8674 14.7916 95.8181 15.418 96.6093 16.2312C97.4006 17.0445 97.9995 18.0116 98.4061 19.1325C98.8237 20.2535 99.0325 21.4898 99.0325 22.8415ZM94.5158 22.8415C94.5158 21.0062 94.1092 19.5776 93.2959 18.5555C92.4937 17.5335 91.4112 17.0225 90.0485 17.0225C89.1693 17.0225 88.3945 17.2533 87.7242 17.7148C87.0538 18.1654 86.5373 18.8358 86.1746 19.7259C85.812 20.6161 85.6306 21.6546 85.6306 22.8415C85.6306 24.0174 85.8065 25.0449 86.1581 25.9241C86.5208 26.8033 87.0318 27.4791 87.6912 27.9517C88.3616 28.4133 89.1473 28.6441 90.0485 28.6441C91.4112 28.6441 92.4937 28.133 93.2959 27.111C94.1092 26.078 94.5158 24.6548 94.5158 22.8415Z" fill="white"/>
</g>
<g filter="url(#filter16_d_425_153)">
<path d="M78.3445 24.3252C78.3445 25.7868 77.9654 27.1001 77.2071 28.265C76.4598 29.4299 75.3608 30.342 73.9102 31.0014C72.4595 31.6608 70.7397 31.9905 68.7505 31.9905C66.3658 31.9905 64.3986 31.5399 62.8491 30.6388C61.7501 29.9904 60.8545 29.1277 60.1621 28.0507C59.4808 26.9627 59.1401 25.9077 59.1401 24.8857C59.1401 24.2922 59.3434 23.7867 59.75 23.3691C60.1676 22.9405 60.6951 22.7262 61.3325 22.7262C61.849 22.7262 62.2831 22.891 62.6348 23.2207C62.9974 23.5504 63.3052 24.0395 63.5579 24.6879C63.8656 25.4571 64.1953 26.1 64.547 26.6165C64.9096 27.1331 65.4152 27.5616 66.0636 27.9023C66.7119 28.232 67.5636 28.3969 68.6187 28.3969C70.0693 28.3969 71.2452 28.0617 72.1463 27.3913C73.0585 26.7099 73.5145 25.8637 73.5145 24.8527C73.5145 24.0505 73.2673 23.4021 72.7727 22.9075C72.2892 22.402 71.6573 22.0174 70.877 21.7536C70.1078 21.4899 69.0747 21.2096 67.7779 20.9129C66.0416 20.5063 64.5855 20.0337 63.4096 19.4952C62.2447 18.9458 61.316 18.204 60.6237 17.2698C59.9423 16.3247 59.6016 15.1543 59.6016 13.7586C59.6016 12.4289 59.9643 11.2475 60.6896 10.2145C61.4149 9.18145 62.4644 8.39019 63.8382 7.84071C65.2119 7.28024 66.8273 7 68.6846 7C70.1682 7 71.4485 7.18682 72.5255 7.56047C73.6135 7.92313 74.5146 8.41217 75.2289 9.02759C75.9433 9.63202 76.4653 10.2694 76.795 10.9398C77.1246 11.6102 77.2895 12.264 77.2895 12.9014C77.2895 13.4839 77.0807 14.0114 76.6631 14.484C76.2565 14.9455 75.7454 15.1763 75.13 15.1763C74.5696 15.1763 74.141 15.0389 73.8442 14.7642C73.5585 14.4785 73.2453 14.0169 72.9046 13.3795C72.465 12.4674 71.9375 11.7585 71.3221 11.253C70.7067 10.7365 69.7176 10.4782 68.3549 10.4782C67.0911 10.4782 66.0691 10.7585 65.2888 11.3189C64.5195 11.8684 64.1349 12.5333 64.1349 13.3136C64.1349 13.7971 64.2667 14.2147 64.5305 14.5664C64.7943 14.918 65.1569 15.2203 65.6185 15.473C66.08 15.7258 66.5471 15.9236 67.0197 16.0665C67.4922 16.2093 68.2725 16.4181 69.3605 16.6929C70.7232 17.0116 71.954 17.3632 73.053 17.7479C74.1629 18.1325 75.1026 18.5996 75.8718 19.1491C76.6521 19.6985 77.2565 20.3964 77.6851 21.2426C78.1247 22.0778 78.3445 23.1053 78.3445 24.3252Z" fill="white"/>
</g>
<defs>
<filter id="filter0_d_425_153" x="5" y="5" width="42.7787" height="30.176" filterUnits="userSpaceOnUse" color-interpolation-filters="sRGB">
<feFlood flood-opacity="0" result="BackgroundImageFix"/>
<feColorMatrix in="SourceAlpha" type="matrix" values="0 0 0 0 0 0 0 0 0 0 0 0 0 0 0 0 0 0 127 0" result="hardAlpha"/>
<feOffset dx="1"/>
<feGaussianBlur stdDeviation="1"/>
<feComposite in2="hardAlpha" operator="out"/>
<feColorMatrix type="matrix" values="0 0 0 0 0 0 0 0 0 0 0 0 0 0 0 0 0 0 1 0"/>
<feBlend mode="normal" in2="BackgroundImageFix" result="effect1_dropShadow_425_153"/>
<feBlend mode="normal" in="SourceGraphic" in2="effect1_dropShadow_425_153" result="shape"/>
</filter>
<filter id="filter1_d_425_153" x="181.961" y="7.45605" width="20.0394" height="28.9905" filterUnits="userSpaceOnUse" color-interpolation-filters="sRGB">
<feFlood flood-opacity="0" result="BackgroundImageFix"/>
<feColorMatrix in="SourceAlpha" type="matrix" values="0 0 0 0 0 0 0 0 0 0 0 0 0 0 0 0 0 0 127 0" result="hardAlpha"/>
<feOffset dy="2"/>
<feGaussianBlur stdDeviation="1"/>
<feComposite in2="hardAlpha" operator="out"/>
<feColorMatrix type="matrix" values="0 0 0 0 0 0 0 0 0 0 0 0 0 0 0 0 0 0 0.8 0"/>
<feBlend mode="normal" in2="BackgroundImageFix" result="effect1_dropShadow_425_153"/>
<feBlend mode="normal" in="SourceGraphic" in2="effect1_dropShadow_425_153" result="shape"/>
</filter>
<filter id="filter2_d_425_153" x="161.965" y="14.116" width="21.012" height="22.2979" filterUnits="userSpaceOnUse" color-interpolation-filters="sRGB">
<feFlood flood-opacity="0" result="BackgroundImageFix"/>
<feColorMatrix in="SourceAlpha" type="matrix" values="0 0 0 0 0 0 0 0 0 0 0 0 0 0 0 0 0 0 127 0" result="hardAlpha"/>
<feOffset dy="2"/>
<feGaussianBlur stdDeviation="1"/>
<feComposite in2="hardAlpha" operator="out"/>
<feColorMatrix type="matrix" values="0 0 0 0 0 0 0 0 0 0 0 0 0 0 0 0 0 0 0.8 0"/>
<feBlend mode="normal" in2="BackgroundImageFix" result="effect1_dropShadow_425_153"/>
<feBlend mode="normal" in="SourceGraphic" in2="effect1_dropShadow_425_153" result="shape"/>
</filter>
<filter id="filter3_d_425_153" x="141.92" y="14.116" width="21.1109" height="22.3308" filterUnits="userSpaceOnUse" color-interpolation-filters="sRGB">
<feFlood flood-opacity="0" result="BackgroundImageFix"/>
<feColorMatrix in="SourceAlpha" type="matrix" values="0 0 0 0 0 0 0 0 0 0 0 0 0 0 0 0 0 0 127 0" result="hardAlpha"/>
<feOffset dy="2"/>
<feGaussianBlur stdDeviation="1"/>
<feComposite in2="hardAlpha" operator="out"/>
<feColorMatrix type="matrix" values="0 0 0 0 0 0 0 0 0 0 0 0 0 0 0 0 0 0 0.8 0"/>
<feBlend mode="normal" in2="BackgroundImageFix" result="effect1_dropShadow_425_153"/>
<feBlend mode="normal" in="SourceGraphic" in2="effect1_dropShadow_425_153" result="shape"/>
</filter>
<filter id="filter4_d_425_153" x="121.776" y="7.86841" width="24.5397" height="28.5784" filterUnits="userSpaceOnUse" color-interpolation-filters="sRGB">
<feFlood flood-opacity="0" result="BackgroundImageFix"/>
<feColorMatrix in="SourceAlpha" type="matrix" values="0 0 0 0 0 0 0 0 0 0 0 0 0 0 0 0 0 0 127 0" result="hardAlpha"/>
<feOffset dy="2"/>
<feGaussianBlur stdDeviation="1"/>
<feComposite in2="hardAlpha" operator="out"/>
<feColorMatrix type="matrix" values="0 0 0 0 0 0 0 0 0 0 0 0 0 0 0 0 0 0 0.8 0"/>
<feBlend mode="normal" in2="BackgroundImageFix" result="effect1_dropShadow_425_153"/>
<feBlend mode="normal" in="SourceGraphic" in2="effect1_dropShadow_425_153" result="shape"/>
</filter>
<filter id="filter5_d_425_153" x="109.989" y="8.0332" width="16.149" height="28.4136" filterUnits="userSpaceOnUse" color-interpolation-filters="sRGB">
<feFlood flood-opacity="0" result="BackgroundImageFix"/>
<feColorMatrix in="SourceAlpha" type="matrix" values="0 0 0 0 0 0 0 0 0 0 0 0 0 0 0 0 0 0 127 0" result="hardAlpha"/>
<feOffset dy="2"/>
<feGaussianBlur stdDeviation="1"/>
<feComposite in2="hardAlpha" operator="out"/>
<feColorMatrix type="matrix" values="0 0 0 0 0 0 0 0 0 0 0 0 0 0 0 0 0 0 0.8 0"/>
<feBlend mode="normal" in2="BackgroundImageFix" result="effect1_dropShadow_425_153"/>
<feBlend mode="normal" in="SourceGraphic" in2="effect1_dropShadow_425_153" result="shape"/>
</filter>
<filter id="filter6_d_425_153" x="97.9721" y="7.45605" width="17.1216" height="28.9905" filterUnits="userSpaceOnUse" color-interpolation-filters="sRGB">
<feFlood flood-opacity="0" result="BackgroundImageFix"/>
<feColorMatrix in="SourceAlpha" type="matrix" values="0 0 0 0 0 0 0 0 0 0 0 0 0 0 0 0 0 0 127 0" result="hardAlpha"/>
<feOffset dy="2"/>
<feGaussianBlur stdDeviation="1"/>
<feComposite in2="hardAlpha" operator="out"/>
<feColorMatrix type="matrix" values="0 0 0 0 0 0 0 0 0 0 0 0 0 0 0 0 0 0 0.8 0"/>
<feBlend mode="normal" in2="BackgroundImageFix" result="effect1_dropShadow_425_153"/>
<feBlend mode="normal" in="SourceGraphic" in2="effect1_dropShadow_425_153" result="shape"/>
</filter>
<filter id="filter7_d_425_153" x="79.1139" y="14.1489" width="21.9186" height="22.2979" filterUnits="userSpaceOnUse" color-interpolation-filters="sRGB">
<feFlood flood-opacity="0" result="BackgroundImageFix"/>
<feColorMatrix in="SourceAlpha" type="matrix" values="0 0 0 0 0 0 0 0 0 0 0 0 0 0 0 0 0 0 127 0" result="hardAlpha"/>
<feOffset dy="2"/>
<feGaussianBlur stdDeviation="1"/>
<feComposite in2="hardAlpha" operator="out"/>
<feColorMatrix type="matrix" values="0 0 0 0 0 0 0 0 0 0 0 0 0 0 0 0 0 0 0.8 0"/>
<feBlend mode="normal" in2="BackgroundImageFix" result="effect1_dropShadow_425_153"/>
<feBlend mode="normal" in="SourceGraphic" in2="effect1_dropShadow_425_153" result="shape"/>
</filter>
<filter id="filter8_d_425_153" x="57.1401" y="7.45605" width="23.2044" height="28.9905" filterUnits="userSpaceOnUse" color-interpolation-filters="sRGB">
<feFlood flood-opacity="0" result="BackgroundImageFix"/>
<feColorMatrix in="SourceAlpha" type="matrix" values="0 0 0 0 0 0 0 0 0 0 0 0 0 0 0 0 0 0 127 0" result="hardAlpha"/>
<feOffset dy="2"/>
<feGaussianBlur stdDeviation="1"/>
<feComposite in2="hardAlpha" operator="out"/>
<feColorMatrix type="matrix" values="0 0 0 0 0 0 0 0 0 0 0 0 0 0 0 0 0 0 0.8 0"/>
<feBlend mode="normal" in2="BackgroundImageFix" result="effect1_dropShadow_425_153"/>
<feBlend mode="normal" in="SourceGraphic" in2="effect1_dropShadow_425_153" result="shape"/>
</filter>
<filter id="filter9_d_425_153" x="181.961" y="7" width="20.0394" height="28.9905" filterUnits="userSpaceOnUse" color-interpolation-filters="sRGB">
<feFlood flood-opacity="0" result="BackgroundImageFix"/>
<feColorMatrix in="SourceAlpha" type="matrix" values="0 0 0 0 0 0 0 0 0 0 0 0 0 0 0 0 0 0 127 0" result="hardAlpha"/>
<feOffset dy="2"/>
<feGaussianBlur stdDeviation="1"/>
<feComposite in2="hardAlpha" operator="out"/>
<feColorMatrix type="matrix" values="0 0 0 0 0 0 0 0 0 0 0 0 0 0 0 0 0 0 0.8 0"/>
<feBlend mode="normal" in2="BackgroundImageFix" result="effect1_dropShadow_425_153"/>
<feBlend mode="normal" in="SourceGraphic" in2="effect1_dropShadow_425_153" result="shape"/>
</filter>
<filter id="filter10_d_425_153" x="161.965" y="13.6597" width="21.012" height="22.2979" filterUnits="userSpaceOnUse" color-interpolation-filters="sRGB">
<feFlood flood-opacity="0" result="BackgroundImageFix"/>
<feColorMatrix in="SourceAlpha" type="matrix" values="0 0 0 0 0 0 0 0 0 0 0 0 0 0 0 0 0 0 127 0" result="hardAlpha"/>
<feOffset dy="2"/>
<feGaussianBlur stdDeviation="1"/>
<feComposite in2="hardAlpha" operator="out"/>
<feColorMatrix type="matrix" values="0 0 0 0 0 0 0 0 0 0 0 0 0 0 0 0 0 0 0.8 0"/>
<feBlend mode="normal" in2="BackgroundImageFix" result="effect1_dropShadow_425_153"/>
<feBlend mode="normal" in="SourceGraphic" in2="effect1_dropShadow_425_153" result="shape"/>
</filter>
<filter id="filter11_d_425_153" x="141.92" y="13.6597" width="21.1109" height="22.3308" filterUnits="userSpaceOnUse" color-interpolation-filters="sRGB">
<feFlood flood-opacity="0" result="BackgroundImageFix"/>
<feColorMatrix in="SourceAlpha" type="matrix" values="0 0 0 0 0 0 0 0 0 0 0 0 0 0 0 0 0 0 127 0" result="hardAlpha"/>
<feOffset dy="2"/>
<feGaussianBlur stdDeviation="1"/>
<feComposite in2="hardAlpha" operator="out"/>
<feColorMatrix type="matrix" values="0 0 0 0 0 0 0 0 0 0 0 0 0 0 0 0 0 0 0.8 0"/>
<feBlend mode="normal" in2="BackgroundImageFix" result="effect1_dropShadow_425_153"/>
<feBlend mode="normal" in="SourceGraphic" in2="effect1_dropShadow_425_153" result="shape"/>
</filter>
<filter id="filter12_d_425_153" x="121.776" y="7.41187" width="24.5397" height="28.5784" filterUnits="userSpaceOnUse" color-interpolation-filters="sRGB">
<feFlood flood-opacity="0" result="BackgroundImageFix"/>
<feColorMatrix in="SourceAlpha" type="matrix" values="0 0 0 0 0 0 0 0 0 0 0 0 0 0 0 0 0 0 127 0" result="hardAlpha"/>
<feOffset dy="2"/>
<feGaussianBlur stdDeviation="1"/>
<feComposite in2="hardAlpha" operator="out"/>
<feColorMatrix type="matrix" values="0 0 0 0 0 0 0 0 0 0 0 0 0 0 0 0 0 0 0.8 0"/>
<feBlend mode="normal" in2="BackgroundImageFix" result="effect1_dropShadow_425_153"/>
<feBlend mode="normal" in="SourceGraphic" in2="effect1_dropShadow_425_153" result="shape"/>
</filter>
<filter id="filter13_d_425_153" x="109.989" y="7.5769" width="16.149" height="28.4136" filterUnits="userSpaceOnUse" color-interpolation-filters="sRGB">
<feFlood flood-opacity="0" result="BackgroundImageFix"/>
<feColorMatrix in="SourceAlpha" type="matrix" values="0 0 0 0 0 0 0 0 0 0 0 0 0 0 0 0 0 0 127 0" result="hardAlpha"/>
<feOffset dy="2"/>
<feGaussianBlur stdDeviation="1"/>
<feComposite in2="hardAlpha" operator="out"/>
<feColorMatrix type="matrix" values="0 0 0 0 0 0 0 0 0 0 0 0 0 0 0 0 0 0 0.8 0"/>
<feBlend mode="normal" in2="BackgroundImageFix" result="effect1_dropShadow_425_153"/>
<feBlend mode="normal" in="SourceGraphic" in2="effect1_dropShadow_425_153" result="shape"/>
</filter>
<filter id="filter14_d_425_153" x="97.9721" y="7" width="17.1216" height="28.9905" filterUnits="userSpaceOnUse" color-interpolation-filters="sRGB">
<feFlood flood-opacity="0" result="BackgroundImageFix"/>
<feColorMatrix in="SourceAlpha" type="matrix" values="0 0 0 0 0 0 0 0 0 0 0 0 0 0 0 0 0 0 127 0" result="hardAlpha"/>
<feOffset dy="2"/>
<feGaussianBlur stdDeviation="1"/>
<feComposite in2="hardAlpha" operator="out"/>
<feColorMatrix type="matrix" values="0 0 0 0 0 0 0 0 0 0 0 0 0 0 0 0 0 0 0.8 0"/>
<feBlend mode="normal" in2="BackgroundImageFix" result="effect1_dropShadow_425_153"/>
<feBlend mode="normal" in="SourceGraphic" in2="effect1_dropShadow_425_153" result="shape"/>
</filter>
<filter id="filter15_d_425_153" x="79.1139" y="13.6926" width="21.9186" height="22.2979" filterUnits="userSpaceOnUse" color-interpolation-filters="sRGB">
<feFlood flood-opacity="0" result="BackgroundImageFix"/>
<feColorMatrix in="SourceAlpha" type="matrix" values="0 0 0 0 0 0 0 0 0 0 0 0 0 0 0 0 0 0 127 0" result="hardAlpha"/>
<feOffset dy="2"/>
<feGaussianBlur stdDeviation="1"/>
<feComposite in2="hardAlpha" operator="out"/>
<feColorMatrix type="matrix" values="0 0 0 0 0 0 0 0 0 0 0 0 0 0 0 0 0 0 0.8 0"/>
<feBlend mode="normal" in2="BackgroundImageFix" result="effect1_dropShadow_425_153"/>
<feBlend mode="normal" in="SourceGraphic" in2="effect1_dropShadow_425_153" result="shape"/>
</filter>
<filter id="filter16_d_425_153" x="57.1401" y="7" width="23.2044" height="28.9905" filterUnits="userSpaceOnUse" color-interpolation-filters="sRGB">
<feFlood flood-opacity="0" result="BackgroundImageFix"/>
<feColorMatrix in="SourceAlpha" type="matrix" values="0 0 0 0 0 0 0 0 0 0 0 0 0 0 0 0 0 0 127 0" result="hardAlpha"/>
<feOffset dy="2"/>
<feGaussianBlur stdDeviation="1"/>
<feComposite in2="hardAlpha" operator="out"/>
<feColorMatrix type="matrix" values="0 0 0 0 0 0 0 0 0 0 0 0 0 0 0 0 0 0 0.8 0"/>
<feBlend mode="normal" in2="BackgroundImageFix" result="effect1_dropShadow_425_153"/>
<feBlend mode="normal" in="SourceGraphic" in2="effect1_dropShadow_425_153" result="shape"/>
</filter>
</defs>
</svg>
