<svg width="220" height="43" viewBox="0 0 220 43" fill="none" xmlns="http://www.w3.org/2000/svg">
<path d="M75.504 33.9285C74.5105 33.9285 73.4674 33.854 72.3745 33.705C71.3065 33.5808 70.2882 33.3821 69.3195 33.1089C68.3509 32.8357 67.4816 32.5128 66.7116 32.1403C66.041 31.8174 65.5691 31.3951 65.2959 30.8735C65.0227 30.3271 64.9233 29.7559 64.9978 29.1598C65.0723 28.5637 65.2835 28.0421 65.6312 27.595C65.9789 27.1231 66.4384 26.8126 67.0097 26.6636C67.5809 26.4898 68.2267 26.5643 68.947 26.8872C69.8908 27.3342 70.9588 27.682 72.151 27.9303C73.3432 28.1787 74.4609 28.3029 75.504 28.3029C77.1433 28.3029 78.2858 28.0918 78.9316 27.6695C79.6022 27.2225 79.9375 26.676 79.9375 26.0303C79.9375 25.459 79.7015 24.9995 79.2296 24.6518C78.7826 24.3041 77.9753 24.006 76.808 23.7577L72.449 22.8263C70.0647 22.3295 68.2888 21.4602 67.1214 20.2183C65.9541 18.9765 65.3704 17.3745 65.3704 15.4123C65.3704 14.1208 65.6312 12.9534 66.1528 11.9102C66.6992 10.8422 67.4567 9.93567 68.4254 9.19055C69.4189 8.44543 70.5862 7.87418 71.9275 7.47678C73.2935 7.05454 74.8086 6.84343 76.4727 6.84343C77.7642 6.84343 79.0682 6.99245 80.3846 7.2905C81.7258 7.56371 82.8807 7.98594 83.8494 8.5572C84.4206 8.85525 84.8304 9.26507 85.0788 9.78665C85.3272 10.3082 85.4265 10.8547 85.3769 11.4259C85.3272 11.9723 85.1285 12.4567 84.7808 12.8789C84.4579 13.3011 84.0108 13.5868 83.4396 13.7358C82.8931 13.86 82.2349 13.7606 81.465 13.4377C80.7447 13.1149 79.9251 12.8789 79.0061 12.7299C78.1119 12.556 77.2426 12.4691 76.3982 12.4691C75.4792 12.4691 74.6968 12.5809 74.051 12.8044C73.4053 13.0031 72.9085 13.3011 72.5608 13.6985C72.2379 14.0959 72.0765 14.5554 72.0765 15.077C72.0765 15.5986 72.2876 16.0457 72.7098 16.4182C73.1569 16.7659 73.9641 17.064 75.1315 17.3124L79.4532 18.2438C81.8624 18.7653 83.6631 19.6222 84.8553 20.8144C86.0475 22.0066 86.6436 23.559 86.6436 25.4714C86.6436 26.763 86.3828 27.9303 85.8612 28.9735C85.3396 30.0167 84.5945 30.9108 83.6258 31.6559C82.6572 32.3762 81.4898 32.9351 80.1238 33.3324C78.7577 33.7298 77.2178 33.9285 75.504 33.9285Z" fill="white"/>
<path d="M98.84 33.9285C96.8033 33.9285 95.0274 33.5436 93.5124 32.7736C91.9973 32.0036 90.8175 30.8984 89.973 29.4578C89.1286 28.0173 88.7063 26.3159 88.7063 24.3537C88.7063 22.8635 88.9423 21.5347 89.4142 20.3674C89.8861 19.1752 90.5691 18.1693 91.4633 17.3496C92.3574 16.5052 93.4254 15.8718 94.6673 15.4496C95.9092 15.0025 97.3001 14.779 98.84 14.779C100.877 14.779 102.652 15.1639 104.168 15.9339C105.683 16.7038 106.85 17.8091 107.67 19.2497C108.514 20.6654 108.936 22.3668 108.936 24.3537C108.936 25.8192 108.7 27.1479 108.228 28.3401C107.757 29.5323 107.074 30.5507 106.179 31.3951C105.31 32.2148 104.242 32.8481 102.975 33.2952C101.734 33.7174 100.355 33.9285 98.84 33.9285ZM98.84 29.048C99.5106 29.048 100.107 28.8866 100.628 28.5637C101.15 28.216 101.547 27.7068 101.82 27.0362C102.118 26.3407 102.268 25.4466 102.268 24.3537C102.268 22.6896 101.945 21.4975 101.299 20.7772C100.653 20.0321 99.8335 19.6595 98.84 19.6595C98.1694 19.6595 97.5733 19.8209 97.0517 20.1438C96.5301 20.4667 96.1203 20.9759 95.8222 21.6713C95.5242 22.3419 95.3752 23.2361 95.3752 24.3537C95.3752 25.993 95.698 27.1852 96.3438 27.9303C96.9896 28.6754 97.8216 29.048 98.84 29.048Z" fill="white"/>
<path d="M116.674 33.854C115.606 33.854 114.786 33.5684 114.215 32.9971C113.644 32.4259 113.358 31.5938 113.358 30.501V20.0693H112.389C111.594 20.0693 110.973 19.8582 110.526 19.436C110.104 19.0137 109.893 18.4052 109.893 17.6104C109.893 16.8156 110.104 16.2195 110.526 15.8221C110.973 15.3999 111.594 15.1888 112.389 15.1888H115.258L113.358 16.9398V15.8966C113.358 13.1397 114.041 11.0782 115.407 9.71214C116.798 8.32125 118.859 7.4892 121.591 7.21599L122.672 7.10422C123.467 7.00487 124.1 7.10422 124.572 7.40227C125.044 7.67548 125.367 8.04804 125.541 8.51995C125.714 8.96702 125.752 9.43893 125.652 9.93567C125.578 10.4324 125.392 10.8547 125.094 11.2024C124.795 11.5501 124.398 11.7488 123.901 11.7985L123.38 11.8357C122.113 11.9351 121.231 12.2083 120.735 12.6554C120.238 13.1024 119.989 13.7606 119.989 14.6299V15.8594L119.17 15.1888H122.113C122.933 15.1888 123.554 15.3999 123.976 15.8221C124.398 16.2195 124.609 16.8156 124.609 17.6104C124.609 18.4052 124.398 19.0137 123.976 19.436C123.554 19.8582 122.933 20.0693 122.113 20.0693H119.989V30.501C119.989 32.7364 118.884 33.854 116.674 33.854Z" fill="white"/>
<path d="M135.194 33.9285C133.331 33.9285 131.792 33.6429 130.575 33.0717C129.382 32.5004 128.488 31.6435 127.892 30.501C127.296 29.3336 126.998 27.8807 126.998 26.142V20.0693H125.731C124.936 20.0693 124.316 19.8582 123.868 19.436C123.446 19.0137 123.235 18.4052 123.235 17.6104C123.235 16.8156 123.446 16.2195 123.868 15.8221C124.316 15.3999 124.936 15.1888 125.731 15.1888H126.998V12.8789C126.998 11.7861 127.284 10.954 127.855 10.3827C128.426 9.81149 129.246 9.52586 130.314 9.52586C131.382 9.52586 132.201 9.81149 132.773 10.3827C133.344 10.954 133.63 11.7861 133.63 12.8789V15.1888H136.685C137.504 15.1888 138.125 15.3999 138.547 15.8221C138.994 16.2195 139.218 16.8156 139.218 17.6104C139.218 18.4052 138.994 19.0137 138.547 19.436C138.125 19.8582 137.504 20.0693 136.685 20.0693H133.63V25.9185C133.63 26.8375 133.841 27.5205 134.263 27.9676C134.71 28.3898 135.405 28.6009 136.349 28.6009C136.697 28.6009 137.032 28.5637 137.355 28.4892C137.678 28.4147 137.976 28.3774 138.249 28.3774C138.647 28.3526 138.97 28.4767 139.218 28.75C139.466 28.9983 139.59 29.582 139.59 30.501C139.59 31.2461 139.479 31.8795 139.255 32.401C139.032 32.8978 138.634 33.2579 138.063 33.4815C137.715 33.6057 137.243 33.705 136.647 33.7795C136.051 33.8789 135.567 33.9285 135.194 33.9285Z" fill="white"/>
<path d="M151.504 33.854C150.411 33.854 149.567 33.556 148.971 32.9599C148.375 32.339 148.077 31.4821 148.077 30.3892V12.8416H142.227C141.309 12.8416 140.601 12.6057 140.104 12.1338C139.632 11.637 139.396 10.9416 139.396 10.0474C139.396 9.12846 139.632 8.43301 140.104 7.96111C140.601 7.4892 141.309 7.25324 142.227 7.25324H160.781C161.7 7.25324 162.395 7.4892 162.867 7.96111C163.364 8.43301 163.612 9.12846 163.612 10.0474C163.612 10.9416 163.364 11.637 162.867 12.1338C162.395 12.6057 161.7 12.8416 160.781 12.8416H154.932V30.3892C154.932 31.4821 154.646 32.339 154.075 32.9599C153.504 33.556 152.647 33.854 151.504 33.854Z" fill="#0A53BF"/>
<path d="M172.459 33.9285C170.224 33.9285 168.286 33.5436 166.647 32.7736C165.033 31.9788 163.791 30.8611 162.921 29.4206C162.052 27.98 161.618 26.2786 161.618 24.3165C161.618 22.4289 162.027 20.7772 162.847 19.3614C163.691 17.9209 164.834 16.8032 166.275 16.0084C167.74 15.1888 169.404 14.779 171.267 14.779C172.633 14.779 173.875 15.0025 174.992 15.4496C176.11 15.8718 177.066 16.5052 177.861 17.3496C178.656 18.1693 179.252 19.1627 179.649 20.3301C180.072 21.4975 180.283 22.8014 180.283 24.242C180.283 24.7387 180.146 25.1113 179.873 25.3597C179.6 25.5832 179.165 25.695 178.569 25.695H167.169V22.5655H175.439L174.843 23.0498C174.843 22.1308 174.719 21.3857 174.471 20.8144C174.222 20.2432 173.85 19.8085 173.353 19.5105C172.881 19.2124 172.285 19.0634 171.565 19.0634C170.795 19.0634 170.124 19.2497 169.553 19.6222C169.007 19.97 168.584 20.4915 168.286 21.187C167.988 21.8824 167.839 22.7517 167.839 23.7949V24.1302C167.839 25.8937 168.224 27.1604 168.994 27.9303C169.789 28.6754 171.006 29.048 172.645 29.048C173.192 29.048 173.813 28.9859 174.508 28.8617C175.228 28.7127 175.911 28.514 176.557 28.2656C177.203 28.0173 177.762 27.98 178.234 28.1539C178.706 28.3029 179.066 28.5761 179.314 28.9735C179.587 29.3461 179.736 29.7807 179.761 30.2775C179.786 30.7494 179.674 31.2213 179.426 31.6932C179.178 32.1403 178.768 32.488 178.196 32.7363C177.327 33.1337 176.396 33.4318 175.402 33.6305C174.434 33.8292 173.452 33.9285 172.459 33.9285Z" fill="#0A53BF"/>
<path d="M192.491 33.9285C190.43 33.9285 188.629 33.5436 187.089 32.7736C185.574 32.0036 184.394 30.8984 183.55 29.4578C182.705 27.9924 182.283 26.2786 182.283 24.3165C182.283 22.8263 182.519 21.4975 182.991 20.3301C183.463 19.1379 184.146 18.132 185.04 17.3124C185.959 16.4927 187.039 15.8718 188.281 15.4496C189.548 15.0025 190.951 14.779 192.491 14.779C193.211 14.779 193.969 14.8535 194.764 15.0025C195.558 15.1267 196.378 15.3751 197.223 15.7476C197.819 15.9711 198.229 16.3189 198.452 16.7908C198.7 17.2379 198.8 17.7222 198.75 18.2438C198.725 18.7653 198.576 19.2373 198.303 19.6595C198.055 20.0817 197.695 20.3674 197.223 20.5164C196.776 20.6654 196.266 20.6033 195.695 20.3301C195.298 20.1314 194.875 19.9948 194.428 19.9203C194.006 19.8209 193.596 19.7713 193.199 19.7713C192.528 19.7713 191.932 19.8706 191.411 20.0693C190.914 20.268 190.492 20.5661 190.144 20.9635C189.796 21.336 189.523 21.8079 189.324 22.3792C189.15 22.9504 189.064 23.5962 189.064 24.3165C189.064 25.7571 189.424 26.8872 190.144 27.7068C190.864 28.5264 191.883 28.9362 193.199 28.9362C193.596 28.9362 194.006 28.899 194.428 28.8245C194.851 28.7251 195.273 28.5761 195.695 28.3774C196.266 28.1042 196.776 28.0545 197.223 28.2284C197.67 28.3774 198.03 28.663 198.303 29.0853C198.576 29.5075 198.725 29.9794 198.75 30.501C198.775 30.9977 198.663 31.4821 198.415 31.954C198.166 32.401 197.744 32.7364 197.148 32.9599C196.328 33.3324 195.521 33.5808 194.726 33.705C193.956 33.854 193.211 33.9285 192.491 33.9285Z" fill="#0A53BF"/>
<path d="M204.464 33.854C203.421 33.854 202.614 33.5684 202.043 32.9971C201.471 32.4259 201.186 31.5938 201.186 30.501V10.271C201.186 9.17814 201.471 8.34608 202.043 7.77483C202.614 7.20357 203.421 6.91794 204.464 6.91794C205.532 6.91794 206.352 7.20357 206.923 7.77483C207.519 8.34608 207.817 9.17814 207.817 10.271V18.3928H207.221C207.817 17.2254 208.662 16.3313 209.755 15.7104C210.872 15.0894 212.139 14.779 213.555 14.779C215.02 14.779 216.225 15.0646 217.169 15.6358C218.112 16.1823 218.82 17.0516 219.292 18.2438C219.764 19.4111 220 20.8889 220 22.6772V30.501C220 31.5938 219.714 32.4259 219.143 32.9971C218.572 33.5684 217.752 33.854 216.684 33.854C215.616 33.854 214.797 33.5684 214.225 32.9971C213.654 32.4259 213.368 31.5938 213.368 30.501V22.938C213.368 21.8203 213.17 21.0255 212.772 20.5536C212.4 20.0817 211.841 19.8458 211.096 19.8458C210.102 19.8458 209.308 20.1687 208.711 20.8144C208.115 21.4354 207.817 22.2798 207.817 23.3478V30.501C207.817 32.7364 206.7 33.854 204.464 33.854Z" fill="#0A53BF"/>
<path d="M0 4.08765C0 1.8301 1.8301 0 4.08765 0H51.5044C53.7619 0 55.592 1.8301 55.592 4.08765V38.0151C55.592 40.2727 53.7619 42.1028 51.5044 42.1028H4.08765C1.8301 42.1028 0 40.2727 0 38.0151V4.08765Z" fill="#0A53BF"/>
<path fill-rule="evenodd" clip-rule="evenodd" d="M25.3629 8.3924C26.0058 8.61879 27.189 7.5334 27.8706 7.5334H32.5544C33.2358 7.48047 33.3953 7.70793 33.4659 8.36078V15.162L33.4659 15.1628C33.4655 15.1998 33.4653 15.2254 33.387 15.3089L29.2276 19.5313C28.9778 19.7849 28.7286 20.0491 28.5805 20.3728C28.3365 20.9061 28.4881 21.2651 28.9977 21.9212C29.8667 22.947 30.5326 23.7257 31.1933 24.4981C31.8434 25.2582 32.4885 26.0124 33.3169 26.9903C33.4238 27.1165 33.4659 27.2287 33.4659 27.3763V33.8971C33.4747 34.5385 33.2827 34.7264 32.5544 34.7244H28.4175C26.9451 34.7244 26.9451 33.3989 26.9451 32.8033C26.9451 32.6344 26.3625 32.7675 25.4041 32.9865C22.9814 33.5399 18.1567 34.6421 14.2681 32.8033C8.21038 29.9388 3.72261 16.5503 13.3846 9.72103C15.8565 7.97382 20.627 6.72473 25.3629 8.3924ZM20.27 28.0495C24.1424 28.0495 27.2816 24.9103 27.2816 21.0379C27.2816 17.1655 24.1424 14.0263 20.27 14.0263C16.3976 14.0263 13.2584 17.1655 13.2584 21.0379C13.2584 24.9103 16.3976 28.0495 20.27 28.0495Z" fill="white"/>
<path d="M44.541 7.73117C44.0496 7.3664 43.7178 7.25118 43.2675 7.46458C42.9662 7.60736 42.7345 7.84631 42.5046 8.08775C40.6384 10.0473 31.6939 19.446 31.0787 20.2118C30.7275 20.6491 30.6254 20.9361 30.6582 21.2096C30.7329 21.8317 31.2445 22.3059 31.6806 22.7559L42.4426 33.8627C42.7098 34.1384 42.9925 34.4074 43.3361 34.5785C43.7882 34.8037 44.1251 34.7947 44.4988 34.5863C44.8093 34.4132 45.0493 34.1408 45.2792 33.8696L46.8134 32.06C47.3765 31.3959 47.8877 30.5158 47.3317 29.8458L39.7872 21.6282C39.3473 21.1322 39.3337 20.8788 39.7872 20.4783L46.9859 12.5971C47.216 12.3452 47.4446 12.0837 47.5782 11.7698C47.7173 11.4428 47.7175 11.1819 47.5916 10.8957C47.4566 10.589 47.2114 10.3479 46.9721 10.1134L44.541 7.73117Z" fill="white"/>
</svg>
