<svg width="1129" height="1034" viewBox="0 0 1129 1034" fill="none" xmlns="http://www.w3.org/2000/svg">
<path fill-rule="evenodd" clip-rule="evenodd" d="M431.711 1032.48C222.479 1017.08 48.6304 743.458 9.72911 533.702C-47.1389 227.077 162.81 224.199 338.825 119.72C518.315 13.181 725.454 -62.3699 884.763 72.2749C1066.52 225.894 1008.17 572.322 906.454 773.415C821.691 941.012 616.071 1046.05 431.711 1032.48Z" fill="url(#paint0_linear_286_152)"/>
<path fill-rule="evenodd" clip-rule="evenodd" d="M247.985 744.912C101.223 587.532 -40.909 370.441 72.1361 188.486C181.729 12.0903 429.535 80.0354 632.657 125.76C839.784 172.387 1097.17 215.067 1125.54 425.613C1155.88 650.79 950.032 824.232 737.205 901.673C559.839 966.2 377.303 883.581 247.985 744.912Z" fill="url(#paint1_linear_286_152)"/>
<path fill-rule="evenodd" clip-rule="evenodd" d="M570.227 294.485C563.995 280.456 570.227 263.05 581.393 263.05H668.122C680.74 262.07 683.694 266.284 685 278.379V404.376V404.39C684.995 405.076 684.99 405.55 683.541 407.097L599.57 492.38C589.008 507.699 590.369 514.275 602.263 529.596C618.355 548.599 630.686 563.024 642.918 577.333C654.959 591.415 666.902 605.386 682.242 623.502C684.221 625.841 685 627.918 685 630.653V751.455C685.164 763.34 681.609 766.819 668.122 766.783H591.521C564.254 766.783 564.254 742.226 564.254 731.192C564.254 727.935 552.429 729.746 533.173 732.695C487.191 739.734 398.84 753.261 328.007 719.752C215.836 666.686 134.241 430.095 313.154 303.578C365.088 266.852 471.812 242.008 570.227 294.485ZM440.653 643.124C512.358 643.124 570.486 584.967 570.486 513.228C570.486 441.49 512.358 383.334 440.653 383.334C368.945 383.334 310.817 441.49 310.817 513.228C310.817 584.967 368.945 643.124 440.653 643.124Z" fill="white"/>
<path d="M890.078 266.714C878.369 258.018 871.553 256.978 858.662 266.714C858.662 266.714 653.523 482.08 640.799 497.926C628.074 513.774 633.009 518.969 639.759 532.479L858.662 758.497C875.799 770.57 884.095 769.524 897.356 758.497L947.986 698.743C950.176 690.746 949.714 685.994 941.757 676.403L802.054 524.165C793.908 514.978 793.657 510.282 802.054 502.863L941.757 349.846C950.731 335.948 950.197 328.911 941.757 317.373L890.078 266.714Z" fill="white"/>
<defs>
<linearGradient id="paint0_linear_286_152" x1="503.317" y1="161.235" x2="-167.943" y2="1166.32" gradientUnits="userSpaceOnUse">
<stop stop-color="#0167C6"/>
<stop offset="0.886014" stop-color="#001F87"/>
</linearGradient>
<linearGradient id="paint1_linear_286_152" x1="230.881" y1="726.5" x2="1381.74" y2="749.384" gradientUnits="userSpaceOnUse">
<stop stop-color="#00305C"/>
<stop offset="1" stop-color="#003AFF"/>
</linearGradient>
</defs>
</svg>
