<svg xmlns="http://www.w3.org/2000/svg" xmlns:xlink="http://www.w3.org/1999/xlink" width="500" zoomAndPan="magnify" viewBox="0 0 375 374.999991" height="500" preserveAspectRatio="xMidYMid meet" version="1.0"><path fill="#004aad" d="M 201.214844 71.902344 C 193.664062 79.46875 181.335938 79.46875 173.785156 71.902344 C 171.261719 69.378906 167.167969 69.378906 164.644531 71.902344 C 162.117188 74.429688 162.117188 78.519531 164.644531 81.046875 C 170.945312 87.347656 179.214844 90.5 187.5 90.5 C 195.785156 90.5 204.054688 87.347656 210.355469 81.046875 C 212.882812 78.519531 212.882812 74.429688 210.355469 71.902344 C 207.832031 69.378906 203.738281 69.378906 201.214844 71.902344 Z M 201.214844 71.902344 " fill-opacity="1" fill-rule="nonzero"/><path fill="#004aad" d="M 0.832031 345.859375 C 1.984375 347.886719 4.140625 349.136719 6.464844 349.136719 L 125.433594 349.136719 L 122.289062 367.441406 C 121.871094 369.867188 122.871094 372.316406 124.867188 373.761719 C 126.847656 375.195312 129.488281 375.390625 131.660156 374.261719 L 167.738281 355.382812 C 170.90625 353.726562 172.132812 349.820312 170.476562 346.65625 C 168.8125 343.5 164.871094 342.253906 161.75 343.929688 L 137.253906 356.746094 L 146.296875 304.070312 C 146.648438 301.972656 145.953125 299.824219 144.425781 298.34375 L 106.238281 261.191406 L 159.085938 253.507812 C 161.195312 253.203125 163.015625 251.878906 163.949219 249.964844 L 187.5 202.136719 L 211.050781 249.964844 C 211.984375 251.878906 213.804688 253.203125 215.914062 253.507812 L 268.761719 261.191406 L 230.574219 298.34375 C 229.046875 299.824219 228.351562 301.972656 228.703125 304.070312 L 237.746094 356.746094 L 213.25 343.929688 C 210.140625 342.261719 206.1875 343.5 204.523438 346.65625 C 202.867188 349.820312 204.09375 353.726562 207.261719 355.382812 L 243.339844 374.261719 C 244.273438 374.753906 245.3125 375 246.332031 375 C 247.671875 375 249.011719 374.582031 250.132812 373.761719 C 252.128906 372.316406 253.128906 369.867188 252.710938 367.441406 L 249.566406 349.136719 L 368.535156 349.136719 C 370.859375 349.136719 373.015625 347.886719 374.167969 345.859375 C 375.304688 343.835938 375.277344 341.347656 374.078125 339.34375 L 337.28125 278.015625 L 374.078125 216.691406 C 375.277344 214.6875 375.304688 212.199219 374.167969 210.171875 C 373.015625 208.148438 370.859375 206.898438 368.535156 206.898438 L 362.070312 206.898438 L 362.070312 187.5 C 362.070312 163.230469 346.691406 142.632812 325.226562 134.527344 C 329.328125 129.847656 331.902344 123.796875 331.902344 117.097656 C 331.902344 102.445312 319.980469 90.515625 305.320312 90.515625 C 290.65625 90.515625 278.738281 102.445312 278.738281 117.097656 C 278.738281 123.753906 281.277344 129.769531 285.335938 134.4375 C 280.253906 136.339844 275.585938 139.0625 271.277344 142.382812 C 257.378906 126.003906 238.789062 113.792969 217.597656 107.742188 C 234.363281 97.519531 245.691406 79.226562 245.691406 58.191406 C 245.691406 26.101562 219.585938 0 187.5 0 C 155.414062 0 129.308594 26.101562 129.308594 58.191406 C 129.308594 79.226562 140.636719 97.519531 157.402344 107.742188 C 136.210938 113.792969 117.621094 126.003906 103.722656 142.378906 C 99.414062 139.0625 94.746094 136.339844 89.664062 134.4375 C 93.722656 129.769531 96.261719 123.753906 96.261719 117.097656 C 96.261719 102.445312 84.34375 90.515625 69.679688 90.515625 C 55.019531 90.515625 43.097656 102.445312 43.097656 117.097656 C 43.097656 123.796875 45.671875 129.847656 49.773438 134.527344 C 28.308594 142.632812 12.929688 163.230469 12.929688 187.5 L 12.929688 206.898438 L 6.464844 206.898438 C 4.140625 206.898438 1.984375 208.148438 0.832031 210.171875 C -0.304688 212.199219 -0.277344 214.6875 0.921875 216.691406 L 37.71875 278.015625 L 0.921875 339.34375 C -0.277344 341.347656 -0.304688 343.835938 0.832031 345.859375 Z M 324.199219 274.691406 C 322.972656 276.734375 322.972656 279.300781 324.199219 281.34375 L 357.117188 336.207031 L 247.347656 336.207031 L 242.027344 305.238281 L 287.183594 261.316406 C 288.953125 259.597656 289.585938 257.03125 288.828125 254.6875 C 288.070312 252.34375 286.046875 250.640625 283.613281 250.285156 L 221.140625 241.199219 L 210.617188 219.828125 L 357.117188 219.828125 Z M 291.667969 117.097656 C 291.667969 109.574219 297.792969 103.449219 305.320312 103.449219 C 312.84375 103.449219 318.96875 109.574219 318.96875 117.097656 C 318.96875 124.605469 312.875 130.703125 305.378906 130.738281 C 305.351562 130.738281 305.332031 130.730469 305.304688 130.730469 C 305.289062 130.730469 305.269531 130.738281 305.25 130.738281 C 297.757812 130.695312 291.667969 124.601562 291.667969 117.097656 Z M 305.214844 143.671875 C 305.25 143.671875 305.285156 143.679688 305.320312 143.679688 C 305.347656 143.679688 305.375 143.671875 305.40625 143.671875 C 329.53125 143.726562 349.136719 163.363281 349.136719 187.5 L 349.136719 206.898438 L 297.085938 206.898438 C 295.917969 186.933594 289.5 168.371094 279.042969 152.65625 C 286.421875 146.949219 295.46875 143.691406 305.214844 143.671875 Z M 142.242188 58.191406 C 142.242188 33.238281 162.546875 12.929688 187.5 12.929688 C 212.453125 12.929688 232.757812 33.238281 232.757812 58.191406 C 232.757812 83.140625 212.453125 103.449219 187.5 103.449219 C 162.546875 103.449219 142.242188 83.140625 142.242188 58.191406 Z M 187.5 116.378906 C 238.796875 116.378906 280.804688 156.433594 284.15625 206.898438 L 204.25 206.898438 L 193.296875 184.644531 C 191.125 180.226562 183.875 180.226562 181.703125 184.644531 L 170.75 206.898438 L 90.84375 206.898438 C 94.195312 156.433594 136.203125 116.378906 187.5 116.378906 Z M 56.03125 117.097656 C 56.03125 109.574219 62.15625 103.449219 69.679688 103.449219 C 77.207031 103.449219 83.332031 109.574219 83.332031 117.097656 C 83.332031 124.601562 77.242188 130.695312 69.75 130.738281 C 69.730469 130.738281 69.710938 130.730469 69.695312 130.730469 C 69.667969 130.730469 69.648438 130.738281 69.621094 130.738281 C 62.125 130.703125 56.03125 124.605469 56.03125 117.097656 Z M 25.863281 187.5 C 25.863281 163.363281 45.46875 143.726562 69.59375 143.671875 C 69.625 143.671875 69.652344 143.679688 69.679688 143.679688 C 69.714844 143.679688 69.75 143.671875 69.785156 143.671875 C 79.53125 143.691406 88.578125 146.949219 95.957031 152.65625 C 85.5 168.371094 79.082031 186.933594 77.914062 206.898438 L 25.863281 206.898438 Z M 50.800781 281.34375 C 52.027344 279.300781 52.027344 276.734375 50.800781 274.691406 L 17.882812 219.828125 L 164.382812 219.828125 L 153.859375 241.199219 L 91.386719 250.285156 C 88.953125 250.640625 86.929688 252.34375 86.171875 254.6875 C 85.414062 257.03125 86.046875 259.597656 87.816406 261.316406 L 132.972656 305.238281 L 127.652344 336.207031 L 17.882812 336.207031 Z M 50.800781 281.34375 " fill-opacity="1" fill-rule="nonzero"/><path fill="#004aad" d="M 192.070312 342.257812 C 194.597656 339.734375 194.597656 335.640625 192.070312 333.117188 C 189.546875 330.589844 185.453125 330.589844 182.929688 333.117188 C 180.402344 335.640625 180.402344 339.734375 182.929688 342.257812 C 185.453125 344.785156 189.546875 344.785156 192.070312 342.257812 Z M 192.070312 342.257812 " fill-opacity="1" fill-rule="nonzero"/></svg>