<svg xmlns="http://www.w3.org/2000/svg" xmlns:xlink="http://www.w3.org/1999/xlink" width="500" zoomAndPan="magnify" viewBox="0 0 375 374.999991" height="500" preserveAspectRatio="xMidYMid meet" version="1.0"><defs><clipPath id="a3c2008e69"><path d="M 5.609375 253 L 130 253 L 130 340 L 5.609375 340 Z M 5.609375 253 " clip-rule="nonzero"/></clipPath><clipPath id="e0fde45f0e"><path d="M 5.609375 253 L 58 253 L 58 340 L 5.609375 340 Z M 5.609375 253 " clip-rule="nonzero"/></clipPath><clipPath id="ab1116aa72"><path d="M 245 253 L 369.359375 253 L 369.359375 340 L 245 340 Z M 245 253 " clip-rule="nonzero"/></clipPath><clipPath id="31ffa6bef5"><path d="M 111 258 L 263 258 L 263 364.3125 L 111 364.3125 Z M 111 258 " clip-rule="nonzero"/></clipPath><clipPath id="e4cf57e688"><path d="M 111 258 L 175 258 L 175 364.3125 L 111 364.3125 Z M 111 258 " clip-rule="nonzero"/></clipPath><clipPath id="fb90d9a0d1"><path d="M 150 309 L 225 309 L 225 364.3125 L 150 364.3125 Z M 150 309 " clip-rule="nonzero"/></clipPath><clipPath id="7b29be250e"><path d="M 110 94.3125 L 265 94.3125 L 265 178 L 110 178 Z M 110 94.3125 " clip-rule="nonzero"/></clipPath></defs><path fill="#ffd23b" d="M 187.484375 131.351562 C 209.464844 131.351562 227.285156 149.179688 227.285156 171.136719 C 227.285156 187.898438 219.515625 193.941406 211.636719 203.136719 C 207.570312 207.886719 205.601562 213.28125 205.601562 219.515625 L 205.601562 226.621094 C 205.601562 235.078125 198.675781 241.976562 190.21875 241.976562 L 184.730469 241.976562 C 176.269531 241.976562 169.367188 235.078125 169.367188 226.621094 L 169.367188 219.515625 C 169.367188 213.273438 167.371094 207.886719 163.308594 203.136719 C 155.453125 193.941406 147.683594 187.898438 147.683594 171.136719 C 147.683594 149.179688 165.503906 131.351562 187.484375 131.351562 Z M 187.484375 131.351562 " fill-opacity="1" fill-rule="evenodd"/><path fill="#fea832" d="M 193.34375 184.742188 L 193.34375 215.070312 C 193.34375 218.308594 190.722656 220.929688 187.484375 220.929688 C 184.246094 220.929688 181.605469 218.308594 181.605469 215.070312 L 181.605469 184.742188 L 178.179688 181.320312 C 175.886719 179.027344 175.886719 175.296875 178.179688 173.027344 C 180.476562 170.734375 184.183594 170.734375 186.476562 173.027344 L 187.484375 174.011719 L 188.492188 173.027344 C 190.765625 170.734375 194.492188 170.734375 196.765625 173.027344 C 199.058594 175.296875 199.058594 179.027344 196.765625 181.320312 Z M 193.34375 184.742188 " fill-opacity="1" fill-rule="nonzero"/><path fill="#fbbd80" d="M 307.34375 241.332031 C 324.089844 241.332031 337.761719 227.664062 337.761719 210.925781 C 337.761719 194.183594 324.089844 180.515625 307.34375 180.515625 C 290.597656 180.515625 276.925781 194.183594 276.925781 210.925781 C 276.925781 227.664062 290.597656 241.332031 307.34375 241.332031 Z M 307.34375 241.332031 " fill-opacity="1" fill-rule="evenodd"/><path fill="#e2aa73" d="M 307.34375 180.515625 C 308.386719 180.515625 309.417969 180.558594 310.445312 180.660156 C 295.105469 182.226562 283.125 195.171875 283.125 210.925781 C 283.125 226.664062 295.105469 239.621094 310.445312 241.167969 C 309.417969 241.269531 308.394531 241.332031 307.34375 241.332031 C 290.554688 241.332031 276.925781 227.707031 276.925781 210.925781 C 276.925781 194.121094 290.554688 180.515625 307.34375 180.515625 Z M 307.34375 180.515625 " fill-opacity="1" fill-rule="evenodd"/><path fill="#fbbd80" d="M 67.605469 241.332031 C 84.371094 241.332031 98.023438 227.664062 98.023438 210.925781 C 98.023438 194.183594 84.371094 180.515625 67.605469 180.515625 C 50.859375 180.515625 37.1875 194.183594 37.1875 210.925781 C 37.1875 227.664062 50.851562 241.332031 67.605469 241.332031 Z M 67.605469 241.332031 " fill-opacity="1" fill-rule="evenodd"/><path fill="#e2aa73" d="M 67.605469 180.515625 C 68.648438 180.515625 69.699219 180.558594 70.707031 180.660156 C 55.367188 182.226562 43.386719 195.171875 43.386719 210.925781 C 43.386719 226.664062 55.367188 239.621094 70.707031 241.167969 C 69.699219 241.269531 68.65625 241.332031 67.605469 241.332031 C 50.816406 241.332031 37.1875 227.707031 37.1875 210.925781 C 37.1875 194.121094 50.816406 180.515625 67.605469 180.515625 Z M 67.605469 180.515625 " fill-opacity="1" fill-rule="evenodd"/><g clip-path="url(#a3c2008e69)"><path fill="#ff4155" d="M 12.257812 339.882812 L 122.941406 339.882812 C 126.585938 339.882812 129.546875 336.921875 129.546875 333.300781 L 129.546875 296.554688 C 129.546875 272.726562 110.039062 253.222656 86.203125 253.222656 L 49.019531 253.222656 C 25.164062 253.222656 5.675781 272.726562 5.675781 296.554688 L 5.675781 333.300781 C 5.675781 336.929688 8.636719 339.882812 12.257812 339.882812 Z M 12.257812 339.882812 " fill-opacity="1" fill-rule="evenodd"/></g><g clip-path="url(#e0fde45f0e)"><path fill="#e63b4d" d="M 12.257812 339.882812 L 20.53125 339.882812 C 16.910156 339.882812 13.949219 336.921875 13.949219 333.300781 L 13.949219 296.554688 C 13.949219 272.726562 33.4375 253.222656 57.269531 253.222656 L 49.019531 253.222656 C 25.164062 253.222656 5.675781 272.726562 5.675781 296.554688 L 5.675781 333.300781 C 5.675781 336.929688 8.636719 339.882812 12.257812 339.882812 Z M 12.257812 339.882812 " fill-opacity="1" fill-rule="evenodd"/></g><path fill="#cf3545" d="M 36.136719 339.882812 L 47.855469 339.882812 L 47.855469 299.535156 C 47.855469 296.296875 45.234375 293.679688 41.996094 293.679688 C 38.757812 293.679688 36.136719 296.296875 36.136719 299.535156 Z M 87.347656 339.882812 L 99.085938 339.882812 L 99.085938 299.535156 C 99.085938 296.296875 96.464844 293.679688 93.226562 293.679688 C 89.988281 293.679688 87.347656 296.296875 87.347656 299.535156 Z M 87.347656 339.882812 " fill-opacity="1" fill-rule="evenodd"/><g clip-path="url(#ab1116aa72)"><path fill="#ff4155" d="M 252.003906 339.882812 L 362.6875 339.882812 C 366.308594 339.882812 369.292969 336.921875 369.292969 333.300781 L 369.292969 296.554688 C 369.292969 272.726562 349.785156 253.222656 325.949219 253.222656 L 288.75 253.222656 C 264.917969 253.222656 245.40625 272.726562 245.40625 296.554688 L 245.40625 333.300781 C 245.398438 336.929688 248.382812 339.882812 252.003906 339.882812 Z M 252.003906 339.882812 " fill-opacity="1" fill-rule="evenodd"/></g><path fill="#e63b4d" d="M 252.003906 339.882812 L 260.277344 339.882812 C 256.65625 339.882812 253.675781 336.921875 253.675781 333.300781 L 253.675781 296.554688 C 253.675781 272.726562 273.183594 253.222656 297.015625 253.222656 L 288.742188 253.222656 C 264.910156 253.222656 245.398438 272.726562 245.398438 296.554688 L 245.398438 333.300781 C 245.398438 336.929688 248.382812 339.882812 252.003906 339.882812 Z M 252.003906 339.882812 " fill-opacity="1" fill-rule="evenodd"/><path fill="#cf3545" d="M 275.882812 339.882812 L 287.601562 339.882812 L 287.601562 299.535156 C 287.601562 296.296875 284.980469 293.679688 281.742188 293.679688 C 278.503906 293.679688 275.882812 296.296875 275.882812 299.535156 Z M 327.09375 339.882812 L 338.832031 339.882812 L 338.832031 299.535156 C 338.832031 296.296875 336.199219 293.679688 332.953125 293.679688 C 329.726562 293.679688 327.09375 296.296875 327.09375 299.535156 Z M 327.09375 339.882812 " fill-opacity="1" fill-rule="evenodd"/><g clip-path="url(#31ffa6bef5)"><path fill="#0593fc" d="M 120.023438 364.355469 L 254.945312 364.355469 C 259.355469 364.355469 262.976562 360.753906 262.976562 356.324219 L 262.976562 311.546875 C 262.976562 282.511719 239.199219 258.742188 210.152344 258.742188 L 164.816406 258.742188 C 135.746094 258.742188 111.96875 282.511719 111.96875 311.546875 L 111.96875 356.324219 C 111.96875 360.753906 115.589844 364.355469 120.023438 364.355469 Z M 120.023438 364.355469 " fill-opacity="1" fill-rule="evenodd"/></g><g clip-path="url(#e4cf57e688)"><path fill="#0584e3" d="M 120.023438 364.355469 L 130.109375 364.355469 C 125.675781 364.355469 122.054688 360.753906 122.054688 356.324219 L 122.054688 311.546875 C 122.054688 282.511719 145.832031 258.742188 174.898438 258.742188 L 164.816406 258.742188 C 135.746094 258.742188 111.96875 282.511719 111.96875 311.546875 L 111.96875 356.324219 C 111.96875 360.753906 115.589844 364.355469 120.023438 364.355469 Z M 120.023438 364.355469 " fill-opacity="1" fill-rule="evenodd"/></g><path fill="#d1dcff" d="M 187.484375 330.523438 L 199.722656 308.851562 L 195.035156 258.742188 L 179.914062 258.742188 L 175.246094 308.851562 Z M 187.484375 330.523438 " fill-opacity="1" fill-rule="evenodd"/><g clip-path="url(#fb90d9a0d1)"><path fill="#0577cc" d="M 150.320312 364.355469 L 162.058594 364.355469 L 162.058594 315.191406 C 162.058594 311.953125 159.4375 309.3125 156.199219 309.3125 C 152.960938 309.3125 150.320312 311.945312 150.320312 315.191406 Z M 212.910156 364.355469 L 224.628906 364.355469 L 224.628906 315.191406 C 224.628906 311.953125 222.007812 309.3125 218.769531 309.3125 C 215.53125 309.3125 212.910156 311.945312 212.910156 315.191406 Z M 212.910156 364.355469 " fill-opacity="1" fill-rule="evenodd"/></g><path fill="#e6e6e6" d="M 205.964844 215.070312 C 205.722656 216.496094 205.601562 217.988281 205.601562 219.515625 L 205.601562 226.621094 C 205.601562 235.078125 198.675781 241.976562 190.21875 241.976562 L 184.730469 241.976562 C 176.269531 241.976562 169.367188 235.078125 169.367188 226.621094 L 169.367188 219.515625 C 169.367188 217.988281 169.246094 216.496094 169.003906 215.070312 Z M 205.964844 215.070312 " fill-opacity="1" fill-rule="evenodd"/><g clip-path="url(#7b29be250e)"><path fill="#ffd23b" d="M 116.5 177.007812 C 113.277344 177.007812 110.640625 174.375 110.640625 171.128906 C 110.640625 167.886719 113.277344 165.273438 116.5 165.273438 L 130.03125 165.273438 C 133.253906 165.273438 135.890625 167.894531 135.890625 171.128906 C 135.890625 174.367188 133.253906 177.007812 130.03125 177.007812 Z M 181.605469 100.199219 C 181.605469 96.960938 184.238281 94.339844 187.484375 94.339844 C 190.730469 94.339844 193.34375 96.953125 193.34375 100.199219 L 193.34375 113.703125 C 193.34375 116.9375 190.722656 119.558594 187.484375 119.558594 C 184.246094 119.558594 181.605469 116.9375 181.605469 113.703125 Z M 233.527344 116.839844 C 235.796875 114.546875 239.527344 114.546875 241.800781 116.839844 C 244.09375 119.113281 244.09375 122.839844 241.800781 125.132812 L 232.253906 134.675781 C 229.960938 136.96875 226.253906 136.96875 223.960938 134.675781 C 221.664062 132.378906 221.664062 128.675781 223.960938 126.382812 Z M 258.445312 165.28125 C 261.683594 165.28125 264.304688 167.902344 264.304688 171.136719 C 264.304688 174.375 261.683594 177.015625 258.445312 177.015625 L 244.9375 177.015625 C 241.699219 177.015625 239.078125 174.382812 239.078125 171.136719 C 239.078125 167.894531 241.699219 165.28125 244.9375 165.28125 Z M 133.148438 125.132812 C 130.855469 122.839844 130.855469 119.113281 133.148438 116.839844 C 135.441406 114.546875 139.148438 114.546875 141.441406 116.839844 L 150.988281 126.382812 C 153.28125 128.675781 153.28125 132.378906 150.988281 134.675781 C 148.714844 136.96875 144.988281 136.96875 142.714844 134.675781 Z M 133.148438 125.132812 " fill-opacity="1" fill-rule="nonzero"/></g><path fill="#e6bd35" d="M 187.484375 131.351562 C 188.832031 131.351562 190.183594 131.429688 191.511719 131.550781 C 171.417969 133.582031 155.738281 150.527344 155.738281 171.136719 C 155.738281 187.898438 163.507812 193.941406 171.382812 203.136719 C 174.445312 206.722656 176.3125 210.660156 177.058594 215.070312 L 169.003906 215.070312 C 168.257812 210.660156 166.390625 206.722656 163.308594 203.136719 C 155.453125 193.941406 147.683594 187.898438 147.683594 171.136719 C 147.683594 149.179688 165.503906 131.351562 187.484375 131.351562 Z M 187.484375 131.351562 " fill-opacity="1" fill-rule="evenodd"/><path fill="#cfcfcf" d="M 177.058594 215.070312 C 177.300781 216.496094 177.421875 217.988281 177.421875 219.515625 L 177.421875 226.621094 C 177.421875 234.628906 183.664062 241.277344 191.511719 241.9375 C 191.085938 241.957031 190.664062 241.976562 190.226562 241.976562 L 184.730469 241.976562 C 176.269531 241.976562 169.367188 235.078125 169.367188 226.621094 L 169.367188 219.515625 C 169.367188 217.988281 169.246094 216.496094 169.003906 215.070312 Z M 177.058594 215.070312 " fill-opacity="1" fill-rule="evenodd"/></svg>