<svg xmlns="http://www.w3.org/2000/svg" xmlns:xlink="http://www.w3.org/1999/xlink" width="500" zoomAndPan="magnify" viewBox="0 0 375 374.999991" height="500" preserveAspectRatio="xMidYMid meet" version="1.0"><defs><clipPath id="cd9f215739"><path d="M 0 0.839844 L 375 0.839844 L 375 374.171875 L 0 374.171875 Z M 0 0.839844 " clip-rule="nonzero"/></clipPath></defs><g clip-path="url(#cd9f215739)"><path fill="#004aad" d="M 130.386719 88.539062 C 129.3125 91.839844 130.371094 95.378906 133.074219 97.554688 L 157.175781 116.925781 L 149.066406 146.757812 C 148.15625 150.109375 149.378906 153.59375 152.191406 155.632812 C 155.003906 157.675781 158.691406 157.765625 161.597656 155.863281 L 187.464844 138.929688 L 213.332031 155.867188 C 214.726562 156.777344 216.304688 157.230469 217.875 157.230469 C 219.578125 157.230469 221.28125 156.699219 222.738281 155.632812 C 225.550781 153.59375 226.777344 150.109375 225.867188 146.757812 L 217.757812 116.925781 L 241.851562 97.554688 C 244.558594 95.378906 245.613281 91.839844 244.539062 88.539062 C 243.46875 85.234375 240.535156 82.988281 237.066406 82.824219 L 206.183594 81.316406 L 195.210938 52.414062 C 193.980469 49.167969 190.9375 47.070312 187.464844 47.070312 C 183.992188 47.070312 180.949219 49.167969 179.71875 52.414062 L 168.742188 81.320312 L 137.863281 82.824219 C 134.398438 82.988281 131.460938 85.234375 130.386719 88.539062 Z M 171.527344 92.863281 C 174.820312 92.703125 177.699219 90.609375 178.867188 87.53125 L 187.464844 64.890625 L 196.0625 87.535156 C 197.230469 90.613281 200.113281 92.703125 203.402344 92.863281 L 227.589844 94.046875 L 208.710938 109.214844 C 206.144531 111.28125 205.042969 114.671875 205.90625 117.847656 L 212.261719 141.214844 L 192 127.953125 C 190.621094 127.046875 189.042969 126.597656 187.464844 126.597656 C 185.886719 126.597656 184.304688 127.046875 182.921875 127.953125 L 162.664062 141.214844 L 169.019531 117.847656 C 169.882812 114.667969 168.78125 111.28125 166.210938 109.214844 L 147.335938 94.046875 Z M 181.628906 28.089844 L 181.628906 6.675781 C 181.628906 3.453125 184.242188 0.839844 187.464844 0.839844 C 190.6875 0.839844 193.300781 3.453125 193.300781 6.675781 L 193.300781 28.089844 C 193.300781 31.316406 190.6875 33.929688 187.464844 33.929688 C 184.242188 33.929688 181.628906 31.316406 181.628906 28.089844 Z M 217.164062 62.667969 C 215.007812 60.273438 215.203125 56.582031 217.597656 54.425781 L 241.464844 32.9375 C 243.859375 30.78125 247.546875 30.972656 249.707031 33.367188 C 251.863281 35.765625 251.667969 39.453125 249.273438 41.613281 L 225.40625 63.097656 C 224.292969 64.101562 222.898438 64.597656 221.503906 64.597656 C 219.910156 64.597656 218.320312 63.945312 217.164062 62.667969 Z M 125.222656 33.367188 C 127.378906 30.972656 131.070312 30.78125 133.464844 32.9375 L 157.328125 54.425781 C 159.722656 56.582031 159.914062 60.273438 157.761719 62.667969 C 156.609375 63.945312 155.019531 64.597656 153.421875 64.597656 C 152.03125 64.597656 150.632812 64.101562 149.519531 63.097656 L 125.652344 41.613281 C 123.257812 39.453125 123.066406 35.765625 125.222656 33.367188 Z M 262.332031 97.554688 L 286.429688 116.925781 L 278.316406 146.757812 C 277.40625 150.109375 278.632812 153.59375 281.445312 155.632812 C 284.253906 157.675781 287.945312 157.765625 290.851562 155.863281 L 316.71875 138.929688 L 342.585938 155.867188 C 343.984375 156.777344 345.554688 157.230469 347.128906 157.230469 C 348.835938 157.230469 350.535156 156.699219 351.992188 155.632812 C 354.804688 153.59375 356.03125 150.109375 355.117188 146.757812 L 347.007812 116.925781 L 371.105469 97.554688 C 373.8125 95.382812 374.871094 91.84375 373.796875 88.539062 C 372.722656 85.234375 369.785156 82.988281 366.320312 82.824219 L 335.4375 81.316406 L 324.464844 52.414062 C 323.234375 49.167969 320.195312 47.070312 316.71875 47.070312 C 313.246094 47.070312 310.203125 49.167969 308.972656 52.414062 L 298 81.316406 L 267.121094 82.824219 C 263.648438 82.988281 260.714844 85.234375 259.644531 88.539062 C 258.570312 91.839844 259.625 95.378906 262.332031 97.554688 Z M 300.777344 92.863281 C 304.070312 92.703125 306.953125 90.609375 308.121094 87.53125 L 316.71875 64.890625 L 325.3125 87.53125 C 326.484375 90.609375 329.363281 92.703125 332.65625 92.863281 L 356.84375 94.046875 L 337.972656 109.210938 C 335.398438 111.277344 334.296875 114.667969 335.164062 117.84375 L 341.515625 141.214844 L 321.253906 127.949219 C 319.878906 127.046875 318.296875 126.597656 316.714844 126.597656 C 315.136719 126.597656 313.558594 127.046875 312.179688 127.953125 L 291.917969 141.214844 L 298.273438 117.847656 C 299.136719 114.671875 298.035156 111.28125 295.46875 109.214844 L 276.589844 94.046875 Z M 3.820312 97.554688 L 27.921875 116.925781 L 19.804688 146.757812 C 18.894531 150.109375 20.121094 153.59375 22.933594 155.632812 C 25.742188 157.675781 29.4375 157.765625 32.339844 155.863281 L 58.207031 138.929688 L 84.078125 155.867188 C 85.472656 156.777344 87.046875 157.230469 88.617188 157.230469 C 90.324219 157.230469 92.023438 156.699219 93.484375 155.632812 C 96.292969 153.59375 97.519531 150.109375 96.609375 146.757812 L 88.496094 116.925781 L 112.59375 97.554688 C 115.300781 95.382812 116.359375 91.84375 115.285156 88.535156 C 114.207031 85.230469 111.277344 82.988281 107.808594 82.824219 L 76.929688 81.316406 L 65.953125 52.414062 C 64.722656 49.167969 61.683594 47.070312 58.207031 47.070312 C 54.734375 47.070312 51.695312 49.167969 50.460938 52.414062 L 39.488281 81.316406 L 8.609375 82.824219 C 5.140625 82.988281 2.207031 85.234375 1.132812 88.535156 C 0.0546875 91.839844 1.113281 95.378906 3.820312 97.554688 Z M 42.269531 92.863281 C 45.558594 92.703125 48.445312 90.609375 49.613281 87.53125 L 58.207031 64.890625 L 66.800781 87.53125 C 67.972656 90.609375 70.855469 92.703125 74.144531 92.863281 L 98.332031 94.046875 L 79.460938 109.210938 C 76.890625 111.277344 75.785156 114.667969 76.652344 117.84375 L 83.007812 141.214844 L 62.742188 127.949219 C 61.367188 127.046875 59.785156 126.597656 58.207031 126.597656 C 56.625 126.597656 55.046875 127.046875 53.667969 127.953125 L 33.40625 141.214844 L 39.761719 117.847656 C 40.628906 114.671875 39.523438 111.28125 36.957031 109.214844 L 18.082031 94.046875 Z M 373.289062 310.8125 C 369.183594 297.554688 360.773438 285.644531 349.605469 277.289062 C 344.261719 273.285156 338.441406 270.167969 332.296875 267.957031 C 340.8125 261.277344 346.296875 250.90625 346.296875 239.265625 C 346.296875 219.15625 329.9375 202.800781 309.828125 202.800781 C 289.722656 202.800781 273.363281 219.15625 273.363281 239.265625 C 273.363281 250.890625 278.835938 261.253906 287.332031 267.933594 C 275.945312 272 265.855469 279.140625 258.128906 288.765625 C 254.515625 283.710938 250.355469 279.019531 245.667969 274.785156 C 236.238281 266.253906 225.164062 259.988281 213.238281 256.285156 C 225.882812 247.898438 234.246094 233.546875 234.246094 217.273438 C 234.246094 191.480469 213.257812 170.496094 187.464844 170.496094 C 161.671875 170.496094 140.683594 191.480469 140.683594 217.273438 C 140.683594 233.546875 149.042969 247.898438 161.6875 256.285156 C 149.761719 259.988281 138.691406 266.253906 129.253906 274.785156 C 124.574219 279.019531 120.40625 283.710938 116.800781 288.765625 C 109.074219 279.140625 98.984375 272 87.597656 267.933594 C 96.09375 261.25 101.566406 250.886719 101.566406 239.265625 C 101.566406 219.15625 85.207031 202.796875 65.097656 202.796875 C 44.988281 202.796875 28.632812 219.15625 28.632812 239.265625 C 28.632812 250.902344 34.117188 261.277344 42.628906 267.957031 C 36.488281 270.164062 30.667969 273.28125 25.320312 277.285156 C 14.15625 285.644531 5.746094 297.550781 1.636719 310.808594 C -0.257812 316.9375 0.792969 323.152344 4.597656 328.316406 C 8.402344 333.476562 14.027344 336.320312 20.441406 336.320312 L 101.117188 336.320312 L 101.117188 346.851562 C 101.117188 362 113.441406 374.328125 128.59375 374.328125 L 246.335938 374.328125 C 261.484375 374.328125 273.8125 362 273.8125 346.851562 L 273.8125 336.320312 L 354.484375 336.320312 C 360.898438 336.320312 366.523438 333.476562 370.328125 328.316406 C 374.136719 323.15625 375.1875 316.9375 373.289062 310.8125 Z M 309.828125 214.46875 C 323.503906 214.46875 334.628906 225.59375 334.628906 239.265625 C 334.628906 252.941406 323.503906 264.0625 309.828125 264.0625 C 296.15625 264.0625 285.035156 252.941406 285.035156 239.265625 C 285.035156 225.59375 296.15625 214.46875 309.828125 214.46875 Z M 152.355469 217.273438 C 152.355469 197.914062 168.105469 182.164062 187.464844 182.164062 C 206.824219 182.164062 222.570312 197.914062 222.570312 217.273438 C 222.570312 236.625 206.832031 252.371094 187.484375 252.378906 C 187.476562 252.378906 187.46875 252.378906 187.464844 252.378906 C 187.457031 252.378906 187.449219 252.378906 187.445312 252.378906 C 168.09375 252.371094 152.355469 236.625 152.355469 217.273438 Z M 65.097656 214.46875 C 78.769531 214.46875 89.894531 225.589844 89.894531 239.265625 C 89.894531 252.9375 78.769531 264.0625 65.097656 264.0625 C 51.425781 264.0625 40.300781 252.9375 40.300781 239.265625 C 40.300781 225.589844 51.425781 214.46875 65.097656 214.46875 Z M 101.875 324.644531 L 20.441406 324.644531 C 17.757812 324.644531 15.589844 323.550781 13.992188 321.390625 C 12.398438 319.226562 11.992188 316.828125 12.789062 314.265625 C 19.925781 291.214844 40.945312 275.730469 65.097656 275.730469 C 83.367188 275.730469 100.007812 284.558594 110.242188 299.5 C 106.195312 307.363281 103.359375 315.832031 101.875 324.644531 Z M 262.140625 346.851562 C 262.140625 355.5625 255.050781 362.652344 246.335938 362.652344 L 128.59375 362.652344 C 119.875 362.652344 112.785156 355.5625 112.785156 346.851562 L 112.785156 330.800781 C 117.011719 292.730469 149.050781 264.0625 187.445312 264.050781 C 187.449219 264.050781 187.457031 264.050781 187.464844 264.050781 C 187.46875 264.050781 187.476562 264.050781 187.484375 264.050781 C 225.871094 264.0625 257.914062 292.730469 262.140625 330.800781 Z M 360.933594 321.394531 C 359.339844 323.554688 357.171875 324.648438 354.484375 324.648438 L 273.054688 324.648438 C 271.566406 315.835938 268.730469 307.363281 264.6875 299.503906 C 274.921875 284.558594 291.5625 275.734375 309.828125 275.734375 C 333.980469 275.734375 355 291.21875 362.140625 314.269531 C 362.933594 316.832031 362.527344 319.226562 360.933594 321.394531 Z M 360.933594 321.394531 " fill-opacity="1" fill-rule="nonzero"/></g></svg>