<svg xmlns="http://www.w3.org/2000/svg" xmlns:xlink="http://www.w3.org/1999/xlink" width="500" zoomAndPan="magnify" viewBox="0 0 375 374.999991" height="500" preserveAspectRatio="xMidYMid meet" version="1.0"><defs><clipPath id="e850f7e45e"><path d="M 0 172 L 374.25 172 L 374.25 352.425781 L 0 352.425781 Z M 0 172 " clip-rule="nonzero"/></clipPath><clipPath id="b48ec7d79c"><path d="M 96 170.660156 L 280 170.660156 L 280 189 L 96 189 Z M 96 170.660156 " clip-rule="nonzero"/></clipPath><clipPath id="dbe4eab24a"><path d="M 262.316406 98.4375 L 306.277344 98.4375 L 306.277344 166 L 262.316406 166 Z M 262.316406 98.4375 " clip-rule="nonzero"/></clipPath><clipPath id="94c74c54bb"><path d="M 68.527344 98.4375 L 112.679688 98.4375 L 112.679688 166 L 68.527344 166 Z M 68.527344 98.4375 " clip-rule="nonzero"/></clipPath><clipPath id="63de413b7a"><path d="M 124 98.4375 L 251 98.4375 L 251 197.527344 L 124 197.527344 Z M 124 98.4375 " clip-rule="nonzero"/></clipPath><clipPath id="c9a800cec3"><path d="M 147.578125 23.039062 L 227.417969 23.039062 L 227.417969 102.667969 L 147.578125 102.667969 Z M 147.578125 23.039062 " clip-rule="nonzero"/></clipPath></defs><g clip-path="url(#e850f7e45e)"><path fill="#344b9f" d="M 346.929688 172.945312 C 362.476562 172.945312 375.082031 185.546875 375.082031 201.089844 L 375.082031 282.339844 C 375.082031 297.886719 362.476562 310.484375 346.929688 310.484375 L 217.863281 310.484375 L 187.5625 352.324219 L 157.261719 310.484375 L 28.195312 310.484375 C 12.648438 310.484375 0.0429688 297.886719 0.0429688 282.339844 L 0.0429688 201.089844 C 0.0429688 185.546875 12.648438 172.945312 28.195312 172.945312 Z M 346.929688 172.945312 " fill-opacity="1" fill-rule="evenodd"/></g><g clip-path="url(#b48ec7d79c)"><path fill="#fce340" d="M 278.839844 91.152344 C 278.933594 92.644531 278.988281 94.140625 279.007812 95.636719 C 279.027344 97.132812 279.011719 98.625 278.957031 100.121094 C 278.902344 101.617188 278.8125 103.109375 278.6875 104.601562 C 278.558594 106.089844 278.394531 107.578125 278.195312 109.0625 C 277.996094 110.542969 277.757812 112.019531 277.484375 113.492188 C 277.210938 114.960938 276.902344 116.425781 276.558594 117.882812 C 276.214844 119.339844 275.832031 120.785156 275.417969 122.222656 C 275.003906 123.660156 274.550781 125.085938 274.066406 126.5 C 273.578125 127.917969 273.058594 129.320312 272.503906 130.707031 C 271.949219 132.097656 271.363281 133.472656 270.738281 134.832031 C 270.117188 136.195312 269.460938 137.539062 268.773438 138.867188 C 268.085938 140.195312 267.363281 141.507812 266.613281 142.800781 C 265.859375 144.09375 265.074219 145.367188 264.257812 146.621094 C 263.445312 147.878906 262.597656 149.109375 261.722656 150.324219 C 260.847656 151.539062 259.941406 152.730469 259.007812 153.898438 C 258.074219 155.066406 257.109375 156.210938 256.121094 157.332031 C 255.128906 158.453125 254.113281 159.550781 253.066406 160.625 C 252.023438 161.695312 250.953125 162.742188 249.855469 163.757812 C 248.761719 164.777344 247.640625 165.769531 246.496094 166.734375 C 245.351562 167.699219 244.183594 168.632812 242.992188 169.542969 C 241.804688 170.449219 240.589844 171.324219 239.355469 172.171875 C 238.125 173.019531 236.871094 173.835938 235.597656 174.621094 C 234.324219 175.410156 233.03125 176.164062 231.71875 176.886719 C 230.410156 177.605469 229.082031 178.296875 227.734375 178.953125 C 226.390625 179.613281 225.03125 180.234375 223.65625 180.828125 C 222.28125 181.417969 220.890625 181.972656 219.488281 182.496094 C 218.085938 183.019531 216.671875 183.503906 215.246094 183.957031 C 213.820312 184.410156 212.382812 184.828125 210.933594 185.210938 C 209.488281 185.59375 208.03125 185.941406 206.566406 186.253906 C 205.105469 186.5625 203.632812 186.839844 202.15625 187.078125 C 200.679688 187.316406 199.195312 187.519531 197.707031 187.683594 C 196.21875 187.851562 194.730469 187.980469 193.234375 188.074219 C 191.742188 188.164062 190.246094 188.222656 188.75 188.242188 C 187.253906 188.261719 185.757812 188.242188 184.261719 188.191406 C 182.765625 188.136719 181.269531 188.046875 179.78125 187.917969 C 178.289062 187.789062 176.800781 187.628906 175.316406 187.425781 C 173.835938 187.226562 172.355469 186.988281 170.886719 186.71875 C 169.414062 186.445312 167.949219 186.136719 166.492188 185.792969 C 165.035156 185.445312 163.589844 185.066406 162.152344 184.652344 C 160.710938 184.234375 159.285156 183.785156 157.871094 183.300781 C 156.453125 182.8125 155.050781 182.292969 153.660156 181.738281 C 152.269531 181.183594 150.894531 180.597656 149.535156 179.972656 C 148.171875 179.351562 146.828125 178.699219 145.496094 178.007812 C 144.167969 177.320312 142.855469 176.601562 141.5625 175.847656 C 140.269531 175.097656 138.996094 174.3125 137.738281 173.496094 C 136.484375 172.683594 135.25 171.835938 134.035156 170.960938 C 132.824219 170.085938 131.628906 169.183594 130.460938 168.246094 C 129.292969 167.3125 128.144531 166.351562 127.023438 165.363281 C 125.902344 164.371094 124.804688 163.355469 123.734375 162.308594 C 122.660156 161.265625 121.613281 160.195312 120.59375 159.101562 C 119.574219 158.003906 118.582031 156.886719 117.617188 155.742188 C 116.65625 154.597656 115.71875 153.429688 114.8125 152.242188 C 113.902344 151.050781 113.027344 149.839844 112.179688 148.605469 C 111.332031 147.371094 110.515625 146.121094 109.726562 144.847656 C 108.941406 143.574219 108.1875 142.28125 107.464844 140.972656 C 106.742188 139.660156 106.050781 138.335938 105.394531 136.988281 C 104.734375 135.644531 104.113281 134.285156 103.519531 132.910156 C 102.929688 131.539062 102.375 130.148438 101.851562 128.746094 C 101.328125 127.34375 100.839844 125.929688 100.386719 124.503906 C 99.933594 123.078125 99.515625 121.644531 99.132812 120.195312 C 98.75 118.75 98.40625 117.292969 98.09375 115.832031 C 97.78125 114.367188 97.507812 112.898438 97.269531 111.421875 C 97.027344 109.945312 96.828125 108.460938 96.660156 106.972656 C 96.496094 105.488281 96.363281 103.996094 96.273438 102.503906 C 96.179688 101.011719 96.121094 99.515625 96.101562 98.019531 C 96.082031 96.523438 96.101562 95.027344 96.15625 93.535156 C 96.207031 92.039062 96.300781 90.546875 96.425781 89.054688 C 96.554688 87.5625 96.71875 86.078125 96.917969 84.59375 C 97.117188 83.113281 97.355469 81.632812 97.628906 80.164062 C 97.902344 78.691406 98.210938 77.230469 98.554688 75.773438 C 98.898438 74.316406 99.277344 72.871094 99.695312 71.433594 C 100.109375 69.996094 100.5625 68.570312 101.046875 67.152344 C 101.53125 65.738281 102.054688 64.335938 102.609375 62.945312 C 103.164062 61.558594 103.75 60.183594 104.375 58.820312 C 104.996094 57.460938 105.652344 56.117188 106.339844 54.789062 C 107.027344 53.457031 107.75 52.148438 108.5 50.855469 C 109.253906 49.5625 110.039062 48.289062 110.851562 47.03125 C 111.667969 45.777344 112.515625 44.542969 113.390625 43.332031 C 114.265625 42.117188 115.171875 40.925781 116.105469 39.757812 C 117.039062 38.589844 118.003906 37.441406 118.992188 36.320312 C 119.984375 35.199219 121 34.101562 122.046875 33.03125 C 123.089844 31.960938 124.160156 30.914062 125.257812 29.894531 C 126.351562 28.875 127.472656 27.882812 128.617188 26.921875 C 129.761719 25.957031 130.929688 25.019531 132.121094 24.113281 C 133.308594 23.207031 134.523438 22.328125 135.753906 21.484375 C 136.988281 20.636719 138.242188 19.820312 139.515625 19.03125 C 140.789062 18.246094 142.082031 17.492188 143.394531 16.769531 C 144.703125 16.046875 146.03125 15.359375 147.375 14.699219 C 148.722656 14.042969 150.082031 13.417969 151.457031 12.828125 C 152.832031 12.238281 154.21875 11.683594 155.625 11.160156 C 157.027344 10.636719 158.441406 10.148438 159.867188 9.695312 C 161.292969 9.242188 162.730469 8.824219 164.175781 8.441406 C 165.625 8.0625 167.082031 7.714844 168.542969 7.402344 C 170.007812 7.09375 171.480469 6.816406 172.957031 6.578125 C 174.433594 6.339844 175.917969 6.136719 177.40625 5.972656 C 178.890625 5.804688 180.382812 5.675781 181.878906 5.582031 C 183.371094 5.488281 184.867188 5.433594 186.363281 5.414062 C 187.859375 5.394531 189.355469 5.410156 190.851562 5.464844 C 192.347656 5.519531 193.839844 5.609375 195.332031 5.738281 C 196.824219 5.863281 198.3125 6.027344 199.796875 6.226562 C 201.277344 6.429688 202.757812 6.664062 204.226562 6.9375 C 205.699219 7.210938 207.164062 7.519531 208.621094 7.863281 C 210.078125 8.207031 211.523438 8.589844 212.960938 9.003906 C 214.398438 9.417969 215.828125 9.871094 217.242188 10.355469 C 218.660156 10.839844 220.0625 11.363281 221.453125 11.914062 C 222.84375 12.46875 224.21875 13.058594 225.578125 13.679688 C 226.941406 14.300781 228.285156 14.957031 229.613281 15.644531 C 230.945312 16.332031 232.253906 17.054688 233.550781 17.804688 C 234.84375 18.558594 236.117188 19.34375 237.371094 20.15625 C 238.628906 20.972656 239.863281 21.816406 241.078125 22.691406 C 242.289062 23.570312 243.480469 24.472656 244.652344 25.40625 C 245.820312 26.339844 246.964844 27.304688 248.089844 28.292969 C 249.210938 29.285156 250.308594 30.300781 251.378906 31.34375 C 252.453125 32.390625 253.496094 33.457031 254.515625 34.554688 C 255.535156 35.648438 256.527344 36.769531 257.492188 37.914062 C 258.457031 39.058594 259.394531 40.222656 260.300781 41.414062 C 261.207031 42.605469 262.085938 43.816406 262.933594 45.050781 C 263.78125 46.28125 264.597656 47.535156 265.386719 48.808594 C 266.171875 50.082031 266.925781 51.375 267.648438 52.683594 C 268.371094 53.992188 269.0625 55.320312 269.71875 56.664062 C 270.375 58.007812 271 59.367188 271.589844 60.742188 C 272.183594 62.117188 272.738281 63.507812 273.261719 64.910156 C 273.785156 66.308594 274.273438 67.722656 274.726562 69.148438 C 275.179688 70.574219 275.597656 72.011719 275.980469 73.457031 C 276.363281 74.90625 276.707031 76.359375 277.019531 77.824219 C 277.332031 79.289062 277.605469 80.757812 277.84375 82.234375 C 278.082031 83.710938 278.285156 85.195312 278.453125 86.679688 C 278.617188 88.167969 278.746094 89.65625 278.839844 91.152344 Z M 278.839844 91.152344 " fill-opacity="1" fill-rule="nonzero"/></g><path fill="#fce340" d="M 87.4375 210.105469 L 95.269531 225.96875 C 95.875 227.1875 97.039062 228.035156 98.386719 228.230469 L 115.898438 230.773438 C 119.296875 231.265625 120.648438 235.4375 118.191406 237.832031 L 105.519531 250.179688 C 104.546875 251.128906 104.101562 252.5 104.332031 253.84375 L 107.320312 271.277344 C 107.902344 274.65625 104.351562 277.234375 101.316406 275.640625 L 85.652344 267.410156 C 84.445312 266.773438 83.003906 266.773438 81.800781 267.410156 L 66.136719 275.640625 C 63.097656 277.234375 59.546875 274.660156 60.128906 271.277344 L 63.121094 253.84375 C 63.351562 252.5 62.90625 251.128906 61.929688 250.179688 L 49.257812 237.832031 C 46.800781 235.4375 48.15625 231.265625 51.550781 230.773438 L 69.0625 228.230469 C 70.414062 228.035156 71.578125 227.1875 72.179688 225.96875 L 80.011719 210.105469 C 81.53125 207.027344 85.921875 207.027344 87.4375 210.105469 Z M 87.4375 210.105469 " fill-opacity="1" fill-rule="evenodd"/><path fill="#fce340" d="M 191.273438 210.105469 L 199.105469 225.96875 C 199.710938 227.1875 200.875 228.035156 202.222656 228.230469 L 219.734375 230.773438 C 223.132812 231.265625 224.488281 235.4375 222.03125 237.832031 L 209.359375 250.179688 C 208.382812 251.128906 207.9375 252.5 208.167969 253.84375 L 211.160156 271.277344 C 211.738281 274.65625 208.1875 277.234375 205.152344 275.640625 L 189.488281 267.410156 C 188.285156 266.773438 186.839844 266.773438 185.636719 267.410156 L 169.972656 275.640625 C 166.9375 277.234375 163.386719 274.660156 163.964844 271.277344 L 166.957031 253.84375 C 167.1875 252.5 166.742188 251.128906 165.765625 250.179688 L 153.09375 237.832031 C 150.636719 235.4375 151.992188 231.265625 155.390625 230.773438 L 172.902344 228.230469 C 174.25 228.035156 175.414062 227.1875 176.019531 225.96875 L 183.851562 210.105469 C 185.367188 207.027344 189.753906 207.027344 191.273438 210.105469 Z M 191.273438 210.105469 " fill-opacity="1" fill-rule="evenodd"/><path fill="#fce340" d="M 295.109375 210.105469 L 302.941406 225.96875 C 303.542969 227.1875 304.710938 228.035156 306.058594 228.230469 L 323.570312 230.773438 C 326.96875 231.265625 328.324219 235.4375 325.867188 237.832031 L 313.191406 250.179688 C 312.21875 251.128906 311.773438 252.5 312.003906 253.84375 L 314.992188 271.277344 C 315.574219 274.65625 312.023438 277.234375 308.988281 275.640625 L 293.324219 267.410156 C 292.117188 266.773438 290.675781 266.773438 289.472656 267.410156 L 273.808594 275.640625 C 270.769531 277.234375 267.21875 274.660156 267.800781 271.277344 L 270.792969 253.84375 C 271.023438 252.5 270.578125 251.128906 269.601562 250.179688 L 256.929688 237.832031 C 254.472656 235.4375 255.828125 231.265625 259.222656 230.773438 L 276.738281 228.230469 C 278.085938 228.035156 279.25 227.1875 279.855469 225.96875 L 287.6875 210.105469 C 289.203125 207.027344 293.589844 207.027344 295.109375 210.105469 Z M 295.109375 210.105469 " fill-opacity="1" fill-rule="evenodd"/><path fill="#ffc45c" d="M 286.636719 74.644531 C 286.636719 75.550781 286.59375 76.457031 286.503906 77.363281 C 286.414062 78.269531 286.28125 79.167969 286.105469 80.058594 C 285.925781 80.949219 285.707031 81.832031 285.441406 82.699219 C 285.175781 83.570312 284.871094 84.425781 284.523438 85.265625 C 284.175781 86.105469 283.789062 86.925781 283.359375 87.730469 C 282.929688 88.53125 282.464844 89.308594 281.960938 90.066406 C 281.453125 90.820312 280.914062 91.550781 280.335938 92.253906 C 279.761719 92.953125 279.152344 93.628906 278.507812 94.269531 C 277.863281 94.914062 277.191406 95.523438 276.488281 96.101562 C 275.785156 96.675781 275.058594 97.21875 274.300781 97.722656 C 273.546875 98.226562 272.765625 98.695312 271.964844 99.125 C 271.160156 99.550781 270.339844 99.941406 269.5 100.289062 C 268.664062 100.636719 267.808594 100.941406 266.9375 101.207031 C 266.066406 101.472656 265.1875 101.691406 264.292969 101.871094 C 263.402344 102.046875 262.503906 102.179688 261.597656 102.269531 C 260.695312 102.355469 259.789062 102.402344 258.878906 102.402344 C 257.96875 102.402344 257.0625 102.355469 256.160156 102.269531 C 255.253906 102.179688 254.355469 102.046875 253.464844 101.871094 C 252.570312 101.691406 251.691406 101.472656 250.820312 101.207031 C 249.949219 100.941406 249.09375 100.636719 248.257812 100.289062 C 247.414062 99.941406 246.59375 99.550781 245.792969 99.125 C 244.992188 98.695312 244.210938 98.226562 243.457031 97.722656 C 242.699219 97.21875 241.972656 96.675781 241.269531 96.101562 C 240.5625 95.523438 239.894531 94.914062 239.25 94.269531 C 238.605469 93.628906 237.996094 92.953125 237.421875 92.253906 C 236.84375 91.550781 236.304688 90.820312 235.796875 90.066406 C 235.292969 89.308594 234.824219 88.53125 234.398438 87.730469 C 233.96875 86.925781 233.578125 86.105469 233.230469 85.265625 C 232.886719 84.425781 232.578125 83.570312 232.316406 82.699219 C 232.050781 81.832031 231.828125 80.949219 231.652344 80.058594 C 231.472656 79.167969 231.34375 78.269531 231.253906 77.363281 C 231.164062 76.457031 231.117188 75.550781 231.117188 74.644531 C 231.117188 73.734375 231.164062 72.828125 231.253906 71.921875 C 231.34375 71.019531 231.472656 70.121094 231.652344 69.226562 C 231.828125 68.335938 232.050781 67.457031 232.316406 66.585938 C 232.578125 65.714844 232.886719 64.859375 233.230469 64.019531 C 233.578125 63.179688 233.96875 62.359375 234.398438 61.554688 C 234.824219 60.753906 235.292969 59.976562 235.796875 59.21875 C 236.304688 58.464844 236.84375 57.734375 237.421875 57.03125 C 237.996094 56.328125 238.605469 55.65625 239.25 55.011719 C 239.894531 54.371094 240.5625 53.761719 241.269531 53.183594 C 241.972656 52.605469 242.699219 52.066406 243.457031 51.5625 C 244.210938 51.054688 244.992188 50.589844 245.792969 50.160156 C 246.59375 49.730469 247.414062 49.34375 248.257812 48.996094 C 249.09375 48.648438 249.949219 48.339844 250.820312 48.078125 C 251.691406 47.816406 252.570312 47.59375 253.464844 47.417969 C 254.355469 47.238281 255.253906 47.105469 256.160156 47.019531 C 257.0625 46.929688 257.96875 46.882812 258.878906 46.882812 C 259.789062 46.882812 260.695312 46.929688 261.597656 47.019531 C 262.503906 47.105469 263.402344 47.238281 264.292969 47.417969 C 265.1875 47.59375 266.066406 47.816406 266.9375 48.078125 C 267.808594 48.339844 268.664062 48.648438 269.5 48.996094 C 270.339844 49.34375 271.160156 49.730469 271.964844 50.160156 C 272.765625 50.589844 273.546875 51.054688 274.300781 51.5625 C 275.058594 52.066406 275.785156 52.605469 276.488281 53.183594 C 277.191406 53.761719 277.863281 54.371094 278.507812 55.011719 C 279.152344 55.65625 279.761719 56.328125 280.335938 57.03125 C 280.914062 57.734375 281.453125 58.464844 281.960938 59.21875 C 282.464844 59.976562 282.929688 60.753906 283.359375 61.554688 C 283.789062 62.359375 284.175781 63.179688 284.523438 64.019531 C 284.871094 64.859375 285.175781 65.714844 285.441406 66.585938 C 285.707031 67.457031 285.925781 68.335938 286.105469 69.226562 C 286.28125 70.121094 286.414062 71.019531 286.503906 71.921875 C 286.59375 72.828125 286.636719 73.734375 286.636719 74.644531 Z M 286.636719 74.644531 " fill-opacity="1" fill-rule="nonzero"/><g clip-path="url(#dbe4eab24a)"><path fill="#ffc45c" d="M 295.285156 98.675781 C 294.378906 100.046875 293.398438 101.367188 292.347656 102.628906 C 291.296875 103.890625 290.179688 105.089844 288.992188 106.230469 C 287.804688 107.367188 286.558594 108.433594 285.253906 109.429688 C 283.945312 110.429688 282.585938 111.351562 281.179688 112.195312 C 279.769531 113.042969 278.316406 113.804688 276.820312 114.488281 C 275.324219 115.167969 273.796875 115.765625 272.234375 116.277344 C 270.671875 116.785156 269.085938 117.207031 267.476562 117.539062 C 265.867188 117.871094 264.242188 118.113281 262.605469 118.265625 C 265.390625 125.953125 266.789062 133.882812 266.808594 142.058594 L 266.808594 165.851562 L 282.671875 165.851562 C 283.449219 165.851562 284.230469 165.8125 285.003906 165.738281 C 285.78125 165.664062 286.550781 165.546875 287.3125 165.394531 C 288.078125 165.242188 288.832031 165.054688 289.578125 164.828125 C 290.324219 164.601562 291.058594 164.339844 291.777344 164.039062 C 292.496094 163.742188 293.203125 163.410156 293.886719 163.042969 C 294.574219 162.675781 295.242188 162.273438 295.890625 161.84375 C 296.539062 161.410156 297.164062 160.945312 297.765625 160.453125 C 298.371094 159.957031 298.945312 159.433594 299.496094 158.882812 C 300.046875 158.332031 300.570312 157.753906 301.066406 157.152344 C 301.558594 156.550781 302.023438 155.925781 302.457031 155.277344 C 302.890625 154.628906 303.289062 153.960938 303.65625 153.273438 C 304.023438 152.589844 304.355469 151.882812 304.65625 151.164062 C 304.953125 150.445312 305.214844 149.710938 305.441406 148.964844 C 305.667969 148.21875 305.855469 147.464844 306.007812 146.699219 C 306.160156 145.933594 306.277344 145.167969 306.351562 144.390625 C 306.429688 143.617188 306.464844 142.835938 306.464844 142.058594 L 306.464844 126.195312 C 306.460938 123.652344 306.210938 121.128906 305.722656 118.632812 C 305.230469 116.136719 304.507812 113.707031 303.550781 111.347656 C 302.589844 108.992188 301.417969 106.746094 300.027344 104.613281 C 298.636719 102.480469 297.054688 100.503906 295.285156 98.675781 Z M 295.285156 98.675781 " fill-opacity="1" fill-rule="nonzero"/></g><path fill="#ffc45c" d="M 143.875 74.644531 C 143.875 75.550781 143.828125 76.457031 143.742188 77.363281 C 143.652344 78.269531 143.519531 79.167969 143.34375 80.058594 C 143.164062 80.949219 142.945312 81.832031 142.679688 82.699219 C 142.414062 83.570312 142.109375 84.425781 141.761719 85.265625 C 141.414062 86.105469 141.027344 86.925781 140.597656 87.730469 C 140.171875 88.53125 139.699219 89.308594 139.195312 90.066406 C 138.691406 90.820312 138.152344 91.550781 137.574219 92.253906 C 136.996094 92.953125 136.386719 93.628906 135.746094 94.269531 C 135.101562 94.914062 134.429688 95.523438 133.726562 96.101562 C 133.023438 96.675781 132.292969 97.21875 131.539062 97.722656 C 130.78125 98.226562 130.003906 98.695312 129.203125 99.125 C 128.398438 99.550781 127.578125 99.941406 126.738281 100.289062 C 125.898438 100.636719 125.042969 100.941406 124.171875 101.207031 C 123.304688 101.472656 122.425781 101.691406 121.53125 101.871094 C 120.640625 102.046875 119.742188 102.179688 118.835938 102.269531 C 117.929688 102.355469 117.023438 102.402344 116.117188 102.402344 C 115.207031 102.402344 114.300781 102.355469 113.394531 102.269531 C 112.492188 102.179688 111.59375 102.046875 110.699219 101.871094 C 109.808594 101.691406 108.929688 101.472656 108.058594 101.207031 C 107.1875 100.941406 106.332031 100.636719 105.492188 100.289062 C 104.652344 99.941406 103.832031 99.550781 103.03125 99.125 C 102.226562 98.695312 101.449219 98.226562 100.695312 97.722656 C 99.9375 97.21875 99.207031 96.675781 98.507812 96.101562 C 97.800781 95.523438 97.128906 94.914062 96.484375 94.269531 C 95.84375 93.628906 95.234375 92.953125 94.660156 92.253906 C 94.078125 91.550781 93.539062 90.820312 93.035156 90.066406 C 92.527344 89.308594 92.0625 88.53125 91.632812 87.730469 C 91.203125 86.925781 90.820312 86.105469 90.46875 85.265625 C 90.121094 84.425781 89.816406 83.570312 89.550781 82.699219 C 89.289062 81.832031 89.066406 80.949219 88.890625 80.058594 C 88.710938 79.167969 88.578125 78.269531 88.492188 77.363281 C 88.402344 76.457031 88.355469 75.550781 88.355469 74.644531 C 88.355469 73.734375 88.402344 72.828125 88.492188 71.921875 C 88.578125 71.019531 88.710938 70.121094 88.890625 69.226562 C 89.066406 68.335938 89.289062 67.457031 89.550781 66.585938 C 89.816406 65.714844 90.121094 64.859375 90.46875 64.019531 C 90.820312 63.179688 91.203125 62.359375 91.632812 61.554688 C 92.0625 60.753906 92.527344 59.976562 93.035156 59.21875 C 93.539062 58.464844 94.078125 57.734375 94.660156 57.03125 C 95.234375 56.328125 95.84375 55.65625 96.484375 55.011719 C 97.128906 54.371094 97.800781 53.761719 98.507812 53.183594 C 99.207031 52.605469 99.9375 52.066406 100.695312 51.5625 C 101.449219 51.054688 102.226562 50.589844 103.03125 50.160156 C 103.832031 49.730469 104.652344 49.34375 105.492188 48.996094 C 106.332031 48.648438 107.1875 48.339844 108.058594 48.078125 C 108.929688 47.816406 109.808594 47.59375 110.699219 47.417969 C 111.59375 47.238281 112.492188 47.105469 113.394531 47.019531 C 114.300781 46.929688 115.207031 46.882812 116.117188 46.882812 C 117.023438 46.882812 117.929688 46.929688 118.835938 47.019531 C 119.742188 47.105469 120.640625 47.238281 121.53125 47.417969 C 122.425781 47.59375 123.304688 47.816406 124.171875 48.078125 C 125.042969 48.339844 125.898438 48.648438 126.738281 48.996094 C 127.578125 49.34375 128.398438 49.730469 129.203125 50.160156 C 130.003906 50.589844 130.78125 51.054688 131.539062 51.5625 C 132.292969 52.066406 133.023438 52.605469 133.726562 53.183594 C 134.429688 53.761719 135.101562 54.371094 135.746094 55.011719 C 136.386719 55.65625 136.996094 56.328125 137.574219 57.03125 C 138.152344 57.734375 138.691406 58.464844 139.195312 59.21875 C 139.699219 59.976562 140.171875 60.753906 140.597656 61.554688 C 141.027344 62.359375 141.414062 63.179688 141.761719 64.019531 C 142.109375 64.859375 142.414062 65.714844 142.679688 66.585938 C 142.945312 67.457031 143.164062 68.335938 143.34375 69.226562 C 143.519531 70.121094 143.652344 71.019531 143.742188 71.921875 C 143.828125 72.828125 143.875 73.734375 143.875 74.644531 Z M 143.875 74.644531 " fill-opacity="1" fill-rule="nonzero"/><g clip-path="url(#94c74c54bb)"><path fill="#ffc45c" d="M 79.710938 98.675781 C 77.941406 100.503906 76.359375 102.480469 74.96875 104.613281 C 73.578125 106.746094 72.402344 108.992188 71.445312 111.347656 C 70.488281 113.707031 69.761719 116.136719 69.273438 118.632812 C 68.78125 121.128906 68.535156 123.652344 68.527344 126.195312 L 68.527344 142.058594 C 68.527344 142.835938 68.566406 143.617188 68.640625 144.390625 C 68.71875 145.167969 68.835938 145.933594 68.984375 146.699219 C 69.136719 147.464844 69.328125 148.21875 69.554688 148.964844 C 69.78125 149.710938 70.042969 150.445312 70.339844 151.164062 C 70.636719 151.882812 70.96875 152.589844 71.335938 153.273438 C 71.707031 153.960938 72.105469 154.628906 72.539062 155.277344 C 72.972656 155.925781 73.4375 156.550781 73.929688 157.152344 C 74.421875 157.753906 74.945312 158.332031 75.496094 158.882812 C 76.046875 159.433594 76.625 159.957031 77.226562 160.453125 C 77.828125 160.945312 78.453125 161.410156 79.101562 161.84375 C 79.753906 162.273438 80.417969 162.675781 81.105469 163.042969 C 81.792969 163.410156 82.496094 163.742188 83.214844 164.039062 C 83.9375 164.339844 84.667969 164.601562 85.414062 164.828125 C 86.160156 165.054688 86.917969 165.242188 87.679688 165.394531 C 88.445312 165.546875 89.214844 165.664062 89.992188 165.738281 C 90.765625 165.8125 91.542969 165.851562 92.320312 165.851562 L 108.183594 165.851562 L 108.183594 142.058594 C 108.207031 133.882812 109.605469 125.953125 112.386719 118.265625 C 110.753906 118.113281 109.128906 117.871094 107.519531 117.539062 C 105.910156 117.207031 104.324219 116.785156 102.761719 116.277344 C 101.199219 115.765625 99.667969 115.167969 98.171875 114.488281 C 96.679688 113.804688 95.226562 113.042969 93.816406 112.195312 C 92.40625 111.351562 91.046875 110.429688 89.742188 109.429688 C 88.433594 108.433594 87.191406 107.367188 86.003906 106.230469 C 84.816406 105.089844 83.695312 103.890625 82.644531 102.628906 C 81.59375 101.367188 80.617188 100.046875 79.710938 98.675781 Z M 79.710938 98.675781 " fill-opacity="1" fill-rule="nonzero"/></g><g clip-path="url(#63de413b7a)"><path fill="#ffc45c" d="M 229.851562 98.59375 C 229.199219 99.363281 228.53125 100.109375 227.839844 100.839844 C 227.152344 101.566406 226.441406 102.277344 225.714844 102.96875 C 224.988281 103.660156 224.242188 104.332031 223.476562 104.980469 C 222.710938 105.632812 221.929688 106.261719 221.128906 106.871094 C 220.332031 107.476562 219.519531 108.0625 218.6875 108.628906 C 217.855469 109.191406 217.011719 109.734375 216.152344 110.25 C 215.292969 110.769531 214.417969 111.261719 213.53125 111.734375 C 212.644531 112.203125 211.746094 112.652344 210.835938 113.074219 C 209.925781 113.496094 209.003906 113.890625 208.070312 114.265625 C 207.140625 114.636719 206.199219 114.984375 205.246094 115.304688 C 204.296875 115.625 203.335938 115.921875 202.367188 116.1875 C 201.402344 116.457031 200.425781 116.699219 199.445312 116.917969 C 198.464844 117.132812 197.480469 117.320312 196.488281 117.484375 C 195.5 117.648438 194.503906 117.785156 193.507812 117.890625 C 192.511719 118 191.507812 118.082031 190.507812 118.136719 C 189.503906 118.191406 188.5 118.21875 187.496094 118.21875 C 186.492188 118.21875 185.488281 118.191406 184.488281 118.136719 C 183.484375 118.082031 182.484375 118 181.488281 117.890625 C 180.488281 117.785156 179.496094 117.648438 178.503906 117.484375 C 177.511719 117.320312 176.527344 117.132812 175.546875 116.917969 C 174.566406 116.699219 173.59375 116.457031 172.625 116.1875 C 171.660156 115.921875 170.699219 115.625 169.75 115.304688 C 168.796875 114.984375 167.855469 114.636719 166.921875 114.265625 C 165.992188 113.890625 165.070312 113.496094 164.15625 113.074219 C 163.246094 112.652344 162.347656 112.203125 161.460938 111.734375 C 160.578125 111.261719 159.703125 110.769531 158.839844 110.25 C 157.980469 109.734375 157.136719 109.191406 156.308594 108.628906 C 155.476562 108.0625 154.660156 107.476562 153.863281 106.871094 C 153.066406 106.261719 152.285156 105.632812 151.515625 104.980469 C 150.753906 104.332031 150.007812 103.660156 149.277344 102.96875 C 148.550781 102.277344 147.84375 101.566406 147.152344 100.839844 C 146.464844 100.109375 145.792969 99.363281 145.144531 98.59375 C 143.507812 99.886719 141.949219 101.269531 140.46875 102.738281 C 138.992188 104.207031 137.597656 105.75 136.292969 107.375 C 134.984375 109 133.773438 110.695312 132.65625 112.457031 C 131.542969 114.21875 130.53125 116.035156 129.621094 117.910156 C 128.707031 119.785156 127.90625 121.707031 127.214844 123.675781 C 126.519531 125.640625 125.9375 127.636719 125.46875 129.671875 C 125 131.703125 124.644531 133.753906 124.410156 135.824219 C 124.171875 137.894531 124.050781 139.972656 124.046875 142.058594 L 124.046875 173.785156 C 124.046875 174.5625 124.085938 175.339844 124.160156 176.117188 C 124.238281 176.890625 124.351562 177.660156 124.503906 178.425781 C 124.65625 179.1875 124.847656 179.945312 125.070312 180.691406 C 125.300781 181.4375 125.5625 182.167969 125.859375 182.886719 C 126.15625 183.609375 126.488281 184.3125 126.855469 185 C 127.222656 185.6875 127.625 186.355469 128.054688 187.003906 C 128.488281 187.652344 128.953125 188.277344 129.449219 188.878906 C 129.941406 189.480469 130.464844 190.058594 131.015625 190.609375 C 131.566406 191.160156 132.144531 191.683594 132.746094 192.175781 C 133.347656 192.667969 133.972656 193.132812 134.621094 193.566406 C 135.269531 194 135.9375 194.402344 136.625 194.769531 C 137.3125 195.136719 138.015625 195.46875 138.734375 195.765625 C 139.457031 196.0625 140.1875 196.324219 140.933594 196.554688 C 141.679688 196.777344 142.4375 196.96875 143.199219 197.121094 C 143.964844 197.273438 144.734375 197.386719 145.507812 197.464844 C 146.285156 197.539062 147.0625 197.578125 147.839844 197.578125 L 227.152344 197.578125 C 227.933594 197.578125 228.710938 197.539062 229.484375 197.464844 C 230.261719 197.386719 231.03125 197.273438 231.792969 197.121094 C 232.558594 196.96875 233.316406 196.777344 234.058594 196.554688 C 234.804688 196.324219 235.539062 196.0625 236.257812 195.765625 C 236.980469 195.46875 237.683594 195.136719 238.367188 194.769531 C 239.054688 194.402344 239.722656 194 240.371094 193.566406 C 241.019531 193.132812 241.648438 192.667969 242.246094 192.175781 C 242.851562 191.683594 243.425781 191.160156 243.976562 190.609375 C 244.53125 190.058594 245.050781 189.480469 245.546875 188.878906 C 246.039062 188.277344 246.503906 187.652344 246.9375 187.003906 C 247.371094 186.355469 247.769531 185.6875 248.136719 185 C 248.507812 184.3125 248.839844 183.609375 249.136719 182.886719 C 249.433594 182.167969 249.695312 181.4375 249.921875 180.691406 C 250.148438 179.945312 250.339844 179.1875 250.492188 178.425781 C 250.640625 177.660156 250.757812 176.890625 250.832031 176.117188 C 250.90625 175.339844 250.945312 174.5625 250.945312 173.785156 L 250.945312 142.058594 C 250.941406 139.972656 250.824219 137.894531 250.585938 135.824219 C 250.347656 133.753906 249.996094 131.703125 249.527344 129.671875 C 249.058594 127.636719 248.476562 125.640625 247.78125 123.675781 C 247.085938 121.707031 246.285156 119.785156 245.375 117.910156 C 244.464844 116.035156 243.453125 114.21875 242.335938 112.457031 C 241.222656 110.695312 240.011719 109 238.703125 107.375 C 237.398438 105.75 236.003906 104.207031 234.523438 102.738281 C 233.042969 101.269531 231.488281 99.886719 229.851562 98.59375 Z M 229.851562 98.59375 " fill-opacity="1" fill-rule="nonzero"/></g><g clip-path="url(#c9a800cec3)"><path fill="#ffc45c" d="M 227.152344 62.746094 C 227.152344 63.394531 227.136719 64.042969 227.105469 64.691406 C 227.074219 65.339844 227.027344 65.988281 226.964844 66.632812 C 226.898438 67.28125 226.820312 67.921875 226.722656 68.5625 C 226.628906 69.207031 226.515625 69.847656 226.390625 70.484375 C 226.265625 71.121094 226.121094 71.75 225.964844 72.382812 C 225.808594 73.011719 225.632812 73.636719 225.445312 74.257812 C 225.257812 74.878906 225.054688 75.492188 224.835938 76.105469 C 224.617188 76.714844 224.382812 77.320312 224.132812 77.921875 C 223.886719 78.523438 223.625 79.113281 223.347656 79.699219 C 223.066406 80.289062 222.777344 80.867188 222.472656 81.441406 C 222.164062 82.011719 221.84375 82.578125 221.511719 83.132812 C 221.179688 83.691406 220.832031 84.238281 220.46875 84.777344 C 220.109375 85.316406 219.738281 85.847656 219.351562 86.367188 C 218.960938 86.890625 218.5625 87.402344 218.152344 87.902344 C 217.738281 88.40625 217.316406 88.894531 216.878906 89.378906 C 216.445312 89.859375 216 90.328125 215.539062 90.785156 C 215.078125 91.246094 214.609375 91.691406 214.128906 92.128906 C 213.648438 92.566406 213.15625 92.988281 212.652344 93.402344 C 212.152344 93.8125 211.640625 94.210938 211.121094 94.597656 C 210.597656 94.984375 210.066406 95.359375 209.527344 95.71875 C 208.988281 96.078125 208.441406 96.425781 207.886719 96.757812 C 207.328125 97.09375 206.761719 97.414062 206.191406 97.71875 C 205.621094 98.027344 205.039062 98.316406 204.453125 98.59375 C 203.867188 98.871094 203.273438 99.136719 202.675781 99.382812 C 202.074219 99.632812 201.46875 99.867188 200.855469 100.085938 C 200.246094 100.300781 199.628906 100.507812 199.007812 100.695312 C 198.386719 100.882812 197.761719 101.054688 197.132812 101.214844 C 196.503906 101.371094 195.871094 101.515625 195.234375 101.640625 C 194.597656 101.765625 193.957031 101.878906 193.316406 101.972656 C 192.671875 102.066406 192.03125 102.148438 191.382812 102.210938 C 190.738281 102.273438 190.089844 102.320312 189.441406 102.355469 C 188.792969 102.386719 188.144531 102.402344 187.496094 102.402344 C 186.847656 102.402344 186.199219 102.386719 185.550781 102.355469 C 184.902344 102.320312 184.257812 102.273438 183.609375 102.210938 C 182.964844 102.148438 182.320312 102.066406 181.679688 101.972656 C 181.035156 101.878906 180.394531 101.765625 179.761719 101.640625 C 179.125 101.515625 178.492188 101.371094 177.863281 101.214844 C 177.230469 101.054688 176.605469 100.882812 175.988281 100.695312 C 175.363281 100.507812 174.75 100.300781 174.136719 100.085938 C 173.527344 99.867188 172.921875 99.632812 172.320312 99.382812 C 171.722656 99.136719 171.128906 98.871094 170.542969 98.59375 C 169.957031 98.316406 169.375 98.027344 168.804688 97.71875 C 168.230469 97.414062 167.667969 97.09375 167.109375 96.757812 C 166.554688 96.425781 166.003906 96.078125 165.464844 95.71875 C 164.925781 95.359375 164.394531 94.984375 163.875 94.597656 C 163.351562 94.210938 162.84375 93.8125 162.339844 93.402344 C 161.839844 92.988281 161.347656 92.566406 160.867188 92.128906 C 160.382812 91.691406 159.914062 91.246094 159.457031 90.785156 C 158.996094 90.328125 158.550781 89.859375 158.113281 89.378906 C 157.679688 88.894531 157.253906 88.40625 156.84375 87.902344 C 156.429688 87.402344 156.03125 86.890625 155.644531 86.367188 C 155.257812 85.847656 154.882812 85.316406 154.523438 84.777344 C 154.164062 84.238281 153.816406 83.691406 153.484375 83.132812 C 153.148438 82.578125 152.828125 82.011719 152.523438 81.441406 C 152.21875 80.867188 151.925781 80.289062 151.648438 79.699219 C 151.371094 79.113281 151.109375 78.523438 150.859375 77.921875 C 150.609375 77.320312 150.378906 76.714844 150.160156 76.105469 C 149.941406 75.492188 149.738281 74.878906 149.550781 74.257812 C 149.359375 73.636719 149.1875 73.011719 149.027344 72.382812 C 148.871094 71.75 148.730469 71.121094 148.601562 70.484375 C 148.476562 69.847656 148.367188 69.207031 148.269531 68.5625 C 148.175781 67.921875 148.09375 67.28125 148.03125 66.632812 C 147.96875 65.988281 147.921875 65.339844 147.886719 64.691406 C 147.859375 64.042969 147.839844 63.394531 147.839844 62.746094 C 147.839844 62.097656 147.859375 61.449219 147.886719 60.800781 C 147.921875 60.152344 147.96875 59.503906 148.03125 58.859375 C 148.09375 58.210938 148.175781 57.570312 148.269531 56.925781 C 148.367188 56.285156 148.476562 55.644531 148.601562 55.007812 C 148.730469 54.371094 148.871094 53.742188 149.027344 53.109375 C 149.1875 52.480469 149.359375 51.855469 149.550781 51.234375 C 149.738281 50.613281 149.941406 50 150.160156 49.386719 C 150.378906 48.777344 150.609375 48.171875 150.859375 47.570312 C 151.109375 46.96875 151.371094 46.378906 151.648438 45.789062 C 151.925781 45.203125 152.21875 44.625 152.523438 44.050781 C 152.828125 43.480469 153.148438 42.914062 153.484375 42.359375 C 153.816406 41.800781 154.164062 41.253906 154.523438 40.714844 C 154.882812 40.175781 155.257812 39.644531 155.644531 39.125 C 156.03125 38.601562 156.429688 38.089844 156.84375 37.589844 C 157.253906 37.085938 157.679688 36.59375 158.113281 36.113281 C 158.550781 35.632812 158.996094 35.164062 159.457031 34.707031 C 159.914062 34.246094 160.382812 33.800781 160.867188 33.363281 C 161.347656 32.925781 161.839844 32.503906 162.339844 32.089844 C 162.84375 31.679688 163.351562 31.28125 163.875 30.894531 C 164.394531 30.507812 164.925781 30.132812 165.464844 29.773438 C 166.003906 29.410156 166.554688 29.066406 167.109375 28.734375 C 167.667969 28.398438 168.230469 28.078125 168.804688 27.773438 C 169.375 27.464844 169.957031 27.175781 170.542969 26.894531 C 171.128906 26.621094 171.722656 26.355469 172.320312 26.105469 C 172.921875 25.859375 173.527344 25.625 174.136719 25.40625 C 174.75 25.1875 175.363281 24.984375 175.988281 24.796875 C 176.605469 24.609375 177.230469 24.4375 177.863281 24.277344 C 178.492188 24.121094 179.125 23.976562 179.761719 23.851562 C 180.394531 23.726562 181.035156 23.613281 181.679688 23.519531 C 182.320312 23.425781 182.964844 23.34375 183.609375 23.28125 C 184.257812 23.21875 184.902344 23.171875 185.550781 23.136719 C 186.199219 23.105469 186.847656 23.089844 187.496094 23.089844 C 188.144531 23.089844 188.792969 23.105469 189.441406 23.136719 C 190.089844 23.171875 190.738281 23.21875 191.382812 23.28125 C 192.03125 23.34375 192.671875 23.425781 193.316406 23.519531 C 193.957031 23.613281 194.597656 23.726562 195.234375 23.851562 C 195.871094 23.976562 196.503906 24.121094 197.132812 24.277344 C 197.761719 24.4375 198.386719 24.609375 199.007812 24.796875 C 199.628906 24.984375 200.246094 25.1875 200.855469 25.40625 C 201.46875 25.625 202.074219 25.859375 202.675781 26.105469 C 203.273438 26.355469 203.867188 26.621094 204.453125 26.894531 C 205.039062 27.175781 205.621094 27.464844 206.191406 27.773438 C 206.761719 28.078125 207.328125 28.398438 207.886719 28.734375 C 208.441406 29.066406 208.988281 29.410156 209.527344 29.773438 C 210.066406 30.132812 210.597656 30.507812 211.121094 30.894531 C 211.640625 31.28125 212.152344 31.679688 212.652344 32.089844 C 213.15625 32.503906 213.648438 32.925781 214.128906 33.363281 C 214.609375 33.800781 215.078125 34.246094 215.539062 34.707031 C 216 35.164062 216.445312 35.632812 216.878906 36.113281 C 217.316406 36.59375 217.738281 37.085938 218.152344 37.589844 C 218.5625 38.089844 218.960938 38.601562 219.351562 39.125 C 219.738281 39.644531 220.109375 40.175781 220.46875 40.714844 C 220.832031 41.253906 221.179688 41.800781 221.511719 42.359375 C 221.84375 42.914062 222.164062 43.480469 222.472656 44.050781 C 222.777344 44.625 223.066406 45.203125 223.347656 45.789062 C 223.625 46.378906 223.886719 46.96875 224.132812 47.570312 C 224.382812 48.171875 224.617188 48.777344 224.835938 49.386719 C 225.054688 50 225.257812 50.613281 225.445312 51.234375 C 225.632812 51.855469 225.808594 52.480469 225.964844 53.109375 C 226.121094 53.742188 226.265625 54.371094 226.390625 55.007812 C 226.515625 55.644531 226.628906 56.285156 226.722656 56.925781 C 226.820312 57.570312 226.898438 58.210938 226.964844 58.859375 C 227.027344 59.503906 227.074219 60.152344 227.105469 60.800781 C 227.136719 61.449219 227.152344 62.097656 227.152344 62.746094 Z M 227.152344 62.746094 " fill-opacity="1" fill-rule="nonzero"/></g></svg>