<svg xmlns="http://www.w3.org/2000/svg" xmlns:xlink="http://www.w3.org/1999/xlink" width="500" zoomAndPan="magnify" viewBox="0 0 375 374.999991" height="500" preserveAspectRatio="xMidYMid meet" version="1.0"><defs><clipPath id="eb68dc8f31"><path d="M 138 82.5 L 238 82.5 L 238 179 L 138 179 Z M 138 82.5 " clip-rule="nonzero"/></clipPath><clipPath id="220719baa2"><path d="M 118.304688 43.128906 L 119.726562 43.128906 L 119.726562 44.347656 L 118.304688 44.347656 Z M 118.304688 43.128906 " clip-rule="nonzero"/></clipPath><clipPath id="63c18cfb02"><path d="M 119.699219 43.574219 C 119.101562 44.550781 118.5 44.398438 118.351562 44.175781 C 118.273438 43.949219 118.351562 43.351562 118.574219 43.199219 C 118.726562 43.050781 119.550781 43.273438 119.550781 43.273438 " clip-rule="nonzero"/></clipPath></defs><g clip-path="url(#eb68dc8f31)"><path fill="#004aad" d="M 204.554688 135.789062 C 202.375 137.371094 201.464844 140.171875 202.296875 142.730469 L 209.019531 163.417969 L 191.421875 150.632812 C 190.335938 149.84375 189.050781 149.445312 187.773438 149.445312 C 186.492188 149.445312 185.207031 149.84375 184.121094 150.632812 L 166.523438 163.417969 L 173.246094 142.730469 C 174.078125 140.171875 173.167969 137.371094 170.988281 135.789062 L 153.398438 123.003906 L 175.140625 123.003906 C 177.835938 123.003906 180.21875 121.273438 181.050781 118.710938 L 187.773438 98.03125 L 194.492188 118.710938 C 195.324219 121.273438 197.707031 123.003906 200.402344 123.003906 L 222.144531 123.003906 Z M 236.917969 118.207031 C 235.433594 113.644531 231.21875 110.582031 226.421875 110.582031 L 204.910156 110.582031 L 198.265625 90.125 C 196.785156 85.5625 192.566406 82.5 187.773438 82.5 C 182.976562 82.5 178.757812 85.5625 177.277344 90.125 L 170.632812 110.582031 L 149.121094 110.582031 C 144.324219 110.582031 140.109375 113.644531 138.625 118.207031 C 137.144531 122.769531 138.757812 127.722656 142.636719 130.542969 L 160.035156 143.1875 L 153.386719 163.640625 C 151.90625 168.203125 153.519531 173.164062 157.398438 175.980469 C 159.339844 177.386719 161.609375 178.09375 163.882812 178.09375 C 166.15625 178.09375 168.433594 177.386719 170.371094 175.980469 L 187.773438 163.335938 L 205.171875 175.980469 C 209.050781 178.796875 214.265625 178.796875 218.144531 175.980469 C 222.023438 173.164062 223.636719 168.203125 222.15625 163.640625 L 215.507812 143.1875 L 232.90625 130.542969 C 236.785156 127.722656 238.398438 122.769531 236.917969 118.207031 " fill-opacity="1" fill-rule="nonzero"/></g><path fill="#004aad" d="M 88.117188 182.636719 L 77.394531 190.425781 L 81.492188 177.820312 C 82.320312 175.261719 81.414062 172.457031 79.234375 170.875 L 68.507812 163.085938 L 81.765625 163.085938 C 84.457031 163.085938 86.839844 161.351562 87.671875 158.792969 L 91.769531 146.1875 L 95.863281 158.792969 C 96.695312 161.351562 99.082031 163.085938 101.773438 163.085938 L 115.027344 163.085938 L 104.304688 170.875 C 102.128906 172.457031 101.214844 175.261719 102.050781 177.820312 L 106.144531 190.425781 L 95.417969 182.636719 C 93.246094 181.054688 90.296875 181.054688 88.117188 182.636719 Z M 89.496094 139.1875 Z M 110.695312 206.726562 C 112.757812 206.726562 114.824219 206.085938 116.589844 204.804688 C 120.117188 202.242188 121.582031 197.730469 120.234375 193.585938 L 115.257812 178.273438 L 128.285156 168.8125 C 131.8125 166.246094 133.277344 161.742188 131.929688 157.59375 C 130.582031 153.445312 126.75 150.660156 122.386719 150.660156 L 106.285156 150.660156 L 101.3125 135.347656 C 99.960938 131.199219 96.128906 128.414062 91.769531 128.414062 C 87.410156 128.414062 83.574219 131.199219 82.226562 135.347656 L 77.25 150.660156 L 61.152344 150.660156 C 56.792969 150.660156 52.957031 153.445312 51.609375 157.59375 C 50.261719 161.742188 51.726562 166.246094 55.253906 168.8125 L 68.277344 178.273438 L 63.304688 193.585938 C 61.957031 197.730469 63.421875 202.242188 66.949219 204.804688 C 70.476562 207.367188 75.214844 207.363281 78.742188 204.804688 L 91.769531 195.339844 L 104.792969 204.804688 C 106.558594 206.085938 108.625 206.726562 110.695312 206.726562 " fill-opacity="1" fill-rule="nonzero"/><path fill="#004aad" d="M 54.046875 251.628906 C 51.871094 253.210938 50.960938 256.015625 51.789062 258.574219 L 55.886719 271.179688 L 45.164062 263.390625 C 42.984375 261.808594 40.039062 261.808594 37.859375 263.390625 L 27.136719 271.179688 L 31.230469 258.574219 C 32.066406 256.015625 31.152344 253.210938 28.976562 251.628906 L 18.253906 243.839844 L 31.507812 243.839844 C 34.199219 243.839844 36.585938 242.105469 37.417969 239.546875 L 41.511719 226.941406 L 45.609375 239.546875 C 46.441406 242.105469 48.824219 243.839844 51.519531 243.839844 L 64.773438 243.839844 Z M 39.238281 219.941406 Z M 72.128906 231.414062 L 56.03125 231.414062 L 51.054688 216.101562 C 49.707031 211.953125 45.875 209.167969 41.511719 209.167969 C 37.152344 209.167969 33.320312 211.953125 31.96875 216.101562 L 26.996094 231.414062 L 10.894531 231.414062 C 6.535156 231.414062 2.699219 234.199219 1.351562 238.347656 C 0.0078125 242.496094 1.472656 247 4.996094 249.566406 L 18.023438 259.027344 L 13.046875 274.339844 C 11.699219 278.484375 13.164062 282.996094 16.691406 285.558594 C 20.21875 288.121094 24.960938 288.117188 28.488281 285.558594 L 41.511719 276.09375 L 54.539062 285.558594 C 56.300781 286.839844 58.371094 287.480469 60.433594 287.480469 C 62.5 287.480469 64.570312 286.839844 66.332031 285.558594 C 69.859375 282.996094 71.324219 278.484375 69.976562 274.339844 L 65.003906 259.027344 L 78.027344 249.566406 C 81.554688 247 83.019531 242.496094 81.671875 238.347656 C 80.324219 234.199219 76.488281 231.414062 72.128906 231.414062 " fill-opacity="1" fill-rule="nonzero"/><path fill="#004aad" d="M 346.003906 251.628906 C 343.824219 253.210938 342.917969 256.015625 343.746094 258.574219 L 347.84375 271.179688 L 337.121094 263.390625 C 334.941406 261.808594 331.992188 261.808594 329.820312 263.390625 L 319.09375 271.179688 L 323.1875 258.574219 C 324.023438 256.015625 323.109375 253.210938 320.933594 251.628906 L 310.210938 243.839844 L 323.464844 243.839844 C 326.15625 243.839844 328.542969 242.105469 329.375 239.546875 L 333.46875 226.941406 L 337.566406 239.546875 C 338.398438 242.105469 340.78125 243.839844 343.472656 243.839844 L 356.730469 243.839844 Z M 331.195312 219.941406 C 331.195312 219.941406 331.195312 219.941406 331.191406 219.941406 C 331.195312 219.941406 331.195312 219.941406 331.195312 219.941406 Z M 364.085938 231.414062 L 347.988281 231.414062 L 343.011719 216.101562 C 341.664062 211.953125 337.828125 209.167969 333.46875 209.167969 C 329.109375 209.167969 325.277344 211.953125 323.929688 216.101562 L 318.953125 231.414062 L 302.851562 231.414062 C 298.488281 231.414062 294.65625 234.199219 293.308594 238.347656 C 291.960938 242.496094 293.425781 247 296.953125 249.566406 L 309.980469 259.027344 L 305.003906 274.339844 C 303.65625 278.484375 305.121094 282.996094 308.648438 285.558594 C 312.175781 288.121094 316.917969 288.117188 320.445312 285.558594 L 333.46875 276.09375 L 346.496094 285.558594 C 348.257812 286.839844 350.324219 287.480469 352.390625 287.480469 C 354.460938 287.480469 356.527344 286.839844 358.289062 285.558594 C 361.816406 282.996094 363.28125 278.484375 361.933594 274.339844 L 356.960938 259.027344 L 369.984375 249.566406 C 373.511719 247 374.976562 242.496094 373.628906 238.347656 C 372.28125 234.199219 368.445312 231.414062 364.085938 231.414062 " fill-opacity="1" fill-rule="nonzero"/><path fill="#004aad" d="M 280.125 182.636719 L 269.398438 190.425781 L 273.492188 177.820312 C 274.328125 175.261719 273.414062 172.457031 271.238281 170.875 L 260.515625 163.085938 L 273.769531 163.085938 C 276.460938 163.085938 278.847656 161.351562 279.679688 158.792969 L 283.773438 146.1875 L 287.871094 158.792969 C 288.703125 161.351562 291.085938 163.085938 293.777344 163.085938 L 307.035156 163.085938 L 296.308594 170.875 C 294.132812 172.457031 293.222656 175.261719 294.050781 177.820312 L 298.148438 190.425781 L 287.425781 182.636719 C 285.246094 181.054688 282.300781 181.054688 280.125 182.636719 Z M 281.5 139.1875 Z M 302.695312 206.726562 C 304.765625 206.726562 306.832031 206.085938 308.59375 204.804688 C 312.121094 202.242188 313.585938 197.730469 312.238281 193.585938 L 307.265625 178.273438 L 320.289062 168.8125 C 323.816406 166.246094 325.28125 161.742188 323.933594 157.59375 C 322.585938 153.445312 318.75 150.660156 314.390625 150.660156 L 298.292969 150.660156 L 293.316406 135.347656 C 291.96875 131.199219 288.136719 128.414062 283.773438 128.414062 C 279.414062 128.414062 275.582031 131.199219 274.234375 135.347656 L 269.257812 150.660156 L 253.15625 150.660156 C 248.796875 150.660156 244.960938 153.445312 243.613281 157.59375 C 242.269531 161.742188 243.734375 166.246094 247.257812 168.8125 L 260.285156 178.273438 L 255.308594 193.585938 C 253.960938 197.730469 255.425781 202.242188 258.953125 204.804688 C 262.480469 207.367188 267.222656 207.363281 270.75 204.804688 L 283.773438 195.339844 L 296.800781 204.804688 C 298.5625 206.085938 300.632812 206.726562 302.695312 206.726562 " fill-opacity="1" fill-rule="nonzero"/><path fill="#004aad" d="M 262.3125 288.03125 L 256.101562 288.03125 C 252.671875 288.03125 249.890625 290.8125 249.890625 294.242188 C 249.890625 297.671875 252.671875 300.453125 256.101562 300.453125 C 259.527344 300.453125 262.3125 303.242188 262.3125 306.667969 C 262.3125 310.089844 259.527344 312.878906 256.101562 312.878906 C 252.671875 312.878906 249.890625 315.660156 249.890625 319.089844 C 249.890625 322.519531 252.671875 325.300781 256.101562 325.300781 C 259.527344 325.300781 262.3125 328.089844 262.3125 331.511719 C 262.3125 334.9375 259.527344 337.726562 256.101562 337.726562 C 252.671875 337.726562 249.890625 340.507812 249.890625 343.9375 C 249.890625 347.367188 252.671875 350.148438 256.101562 350.148438 C 259.527344 350.148438 262.3125 352.9375 262.3125 356.359375 C 262.3125 359.785156 259.527344 362.574219 256.101562 362.574219 L 184.765625 362.574219 C 175.773438 362.574219 167.0625 359.933594 159.578125 354.949219 L 156.710938 353.035156 L 156.710938 273.089844 C 172.234375 264.003906 182.863281 248.292969 185.425781 230.351562 L 186.945312 219.699219 L 193.984375 219.699219 C 200.832031 219.699219 206.40625 225.273438 206.40625 232.125 L 206.40625 269.394531 C 206.40625 272.824219 209.1875 275.605469 212.617188 275.605469 L 262.3125 275.605469 C 265.738281 275.605469 268.527344 278.394531 268.527344 281.820312 C 268.527344 285.242188 265.738281 288.03125 262.3125 288.03125 Z M 107.019531 275.605469 L 144.289062 275.605469 L 144.289062 350.148438 L 107.019531 350.148438 Z M 262.3125 263.183594 L 218.832031 263.183594 L 218.832031 232.125 C 218.832031 218.421875 207.683594 207.277344 193.984375 207.277344 L 181.558594 207.277344 C 178.46875 207.277344 175.847656 209.546875 175.410156 212.609375 L 173.128906 228.59375 C 171.023438 243.335938 162.011719 256.15625 148.9375 263.183594 L 100.804688 263.183594 C 97.375 263.183594 94.59375 265.964844 94.59375 269.394531 L 94.59375 356.359375 C 94.59375 359.792969 97.375 362.574219 100.804688 362.574219 L 148.621094 362.574219 L 152.6875 365.285156 C 162.21875 371.636719 173.308594 374.996094 184.765625 374.996094 L 256.101562 374.996094 C 266.378906 374.996094 274.738281 366.636719 274.738281 356.359375 C 274.738281 351.59375 272.9375 347.238281 269.980469 343.9375 C 272.9375 340.636719 274.738281 336.28125 274.738281 331.511719 C 274.738281 326.746094 272.9375 322.390625 269.980469 319.089844 C 272.9375 315.789062 274.738281 311.433594 274.738281 306.667969 C 274.738281 303.34375 273.863281 300.226562 272.335938 297.523438 C 277.511719 294.210938 280.949219 288.410156 280.949219 281.820312 C 280.949219 271.542969 272.589844 263.183594 262.3125 263.183594 " fill-opacity="1" fill-rule="nonzero"/><g clip-path="url(#220719baa2)"><g clip-path="url(#63c18cfb02)"><path fill="#0571d3" d="M 115.351562 40.199219 L 122.765625 40.199219 L 122.765625 47.476562 L 115.351562 47.476562 Z M 115.351562 40.199219 " fill-opacity="1" fill-rule="nonzero"/></g></g></svg>