<svg xmlns="http://www.w3.org/2000/svg" xmlns:xlink="http://www.w3.org/1999/xlink" width="500" zoomAndPan="magnify" viewBox="0 0 375 374.999991" height="500" preserveAspectRatio="xMidYMid meet" version="1.0"><defs><clipPath id="726ab1cabd"><path d="M 5.839844 0 L 374.839844 0 L 374.839844 369 L 5.839844 369 Z M 5.839844 0 " clip-rule="nonzero"/></clipPath></defs><g clip-path="url(#726ab1cabd)"><path fill="#004aad" d="M 276.550781 356.847656 C 229.058594 356.847656 190.414062 318.203125 190.414062 270.710938 C 190.414062 223.222656 229.058594 184.574219 276.550781 184.574219 C 324.039062 184.574219 362.6875 223.222656 362.6875 270.710938 C 362.6875 318.203125 324.039062 356.847656 276.550781 356.847656 Z M 30.449219 301.472656 C 23.671875 301.472656 18.144531 295.945312 18.144531 289.167969 L 18.144531 24.609375 C 18.144531 17.832031 23.671875 12.304688 30.449219 12.304688 L 208.871094 12.304688 L 208.871094 30.761719 C 208.871094 44.339844 219.902344 55.371094 233.480469 55.371094 L 251.941406 55.371094 L 251.941406 175.515625 C 209.546875 186.476562 178.109375 224.929688 178.109375 270.710938 C 178.109375 281.453125 179.910156 291.789062 183.109375 301.472656 Z M 243.238281 43.066406 L 233.480469 43.066406 C 226.703125 43.066406 221.175781 37.539062 221.175781 30.761719 L 221.175781 21.003906 Z M 276.550781 172.269531 C 272.367188 172.269531 268.28125 172.609375 264.246094 173.136719 L 264.246094 54.339844 C 264.246094 51.742188 263.691406 49.246094 262.683594 46.9375 C 262.609375 46.792969 262.539062 46.671875 262.464844 46.527344 C 261.554688 44.605469 260.375 42.804688 258.8125 41.242188 L 223.003906 5.429688 C 221.441406 3.871094 219.640625 2.691406 217.714844 1.777344 C 217.570312 1.707031 217.453125 1.632812 217.308594 1.5625 C 215 0.554688 212.5 0 209.90625 0 L 30.449219 0 C 16.871094 0 5.839844 11.03125 5.839844 24.609375 L 5.839844 289.167969 C 5.839844 302.75 16.871094 313.78125 30.449219 313.78125 L 188.179688 313.78125 C 204.1875 346.511719 237.734375 369.152344 276.550781 369.152344 C 330.839844 369.152344 374.992188 325.003906 374.992188 270.710938 C 374.992188 216.421875 330.839844 172.269531 276.550781 172.269531 " fill-opacity="1" fill-rule="nonzero"/></g><path fill="#004aad" d="M 98.125 92.289062 C 98.125 95.675781 95.363281 98.441406 91.972656 98.441406 L 55.058594 98.441406 C 51.671875 98.441406 48.90625 95.675781 48.90625 92.289062 L 48.90625 55.371094 C 48.90625 51.984375 51.671875 49.21875 55.058594 49.21875 L 91.972656 49.21875 C 94.617188 49.21875 96.828125 50.902344 97.695312 53.257812 L 79.667969 71.28125 L 71.714844 63.328125 C 69.308594 60.925781 65.417969 60.925781 63.015625 63.328125 C 60.609375 65.730469 60.609375 69.625 63.015625 72.027344 L 75.320312 84.332031 C 76.519531 85.535156 78.082031 86.136719 79.667969 86.136719 C 81.253906 86.136719 82.816406 85.535156 84.019531 84.332031 L 98.125 70.226562 Z M 118.386719 32.566406 L 106.660156 44.292969 C 103.269531 39.847656 97.980469 36.914062 91.972656 36.914062 L 55.058594 36.914062 C 44.867188 36.914062 36.601562 45.183594 36.601562 55.371094 L 36.601562 92.289062 C 36.601562 102.476562 44.867188 110.746094 55.058594 110.746094 L 91.972656 110.746094 C 102.164062 110.746094 110.429688 102.476562 110.429688 92.289062 L 110.429688 57.921875 L 127.085938 41.265625 C 129.488281 38.863281 129.488281 34.96875 127.085938 32.566406 C 124.683594 30.160156 120.789062 30.160156 118.386719 32.566406 " fill-opacity="1" fill-rule="nonzero"/><path fill="#004aad" d="M 98.125 178.421875 C 98.125 181.8125 95.363281 184.574219 91.972656 184.574219 L 55.058594 184.574219 C 51.671875 184.574219 48.90625 181.8125 48.90625 178.421875 L 48.90625 141.507812 C 48.90625 138.121094 51.671875 135.355469 55.058594 135.355469 L 91.972656 135.355469 C 94.617188 135.355469 96.828125 137.039062 97.695312 139.394531 L 79.667969 157.417969 L 71.714844 149.464844 C 69.308594 147.058594 65.417969 147.058594 63.015625 149.464844 C 60.609375 151.867188 60.609375 155.761719 63.015625 158.164062 L 75.320312 170.46875 C 76.519531 171.671875 78.082031 172.269531 79.667969 172.269531 C 81.253906 172.269531 82.816406 171.671875 84.019531 170.46875 L 98.125 156.359375 Z M 118.386719 118.699219 L 106.660156 130.429688 C 103.269531 125.984375 97.980469 123.050781 91.972656 123.050781 L 55.058594 123.050781 C 44.867188 123.050781 36.601562 131.316406 36.601562 141.507812 L 36.601562 178.421875 C 36.601562 188.613281 44.867188 196.882812 55.058594 196.882812 L 91.972656 196.882812 C 102.164062 196.882812 110.429688 188.613281 110.429688 178.421875 L 110.429688 144.054688 L 127.085938 127.402344 C 129.488281 124.996094 129.488281 121.105469 127.085938 118.699219 C 124.683594 116.296875 120.789062 116.296875 118.386719 118.699219 " fill-opacity="1" fill-rule="nonzero"/><path fill="#004aad" d="M 98.125 264.558594 C 98.125 267.949219 95.363281 270.710938 91.972656 270.710938 L 55.058594 270.710938 C 51.671875 270.710938 48.90625 267.949219 48.90625 264.558594 L 48.90625 227.644531 C 48.90625 224.253906 51.671875 221.492188 55.058594 221.492188 L 91.972656 221.492188 C 94.617188 221.492188 96.828125 223.171875 97.695312 225.527344 L 79.667969 243.554688 L 71.714844 235.597656 C 69.308594 233.195312 65.417969 233.195312 63.015625 235.597656 C 60.609375 238.003906 60.609375 241.894531 63.015625 244.300781 L 75.320312 256.605469 C 76.519531 257.804688 78.082031 258.40625 79.667969 258.40625 C 81.253906 258.40625 82.816406 257.804688 84.019531 256.605469 L 98.125 242.496094 Z M 118.386719 204.835938 L 106.660156 216.566406 C 103.269531 212.117188 97.980469 209.1875 91.972656 209.1875 L 55.058594 209.1875 C 44.867188 209.1875 36.601562 217.453125 36.601562 227.644531 L 36.601562 264.558594 C 36.601562 274.75 44.867188 283.015625 55.058594 283.015625 L 91.972656 283.015625 C 102.164062 283.015625 110.429688 274.75 110.429688 264.558594 L 110.429688 230.191406 L 127.085938 213.535156 C 129.488281 211.132812 129.488281 207.238281 127.085938 204.835938 C 124.683594 202.433594 120.789062 202.433594 118.386719 204.835938 " fill-opacity="1" fill-rule="nonzero"/><path fill="#004aad" d="M 316.78125 222.476562 C 313.921875 220.625 310.125 221.46875 308.296875 224.328125 L 257.058594 304.023438 L 243.984375 290.972656 C 241.582031 288.570312 237.6875 288.570312 235.285156 290.972656 C 232.882812 293.375 232.882812 297.269531 235.285156 299.671875 L 253.742188 318.128906 C 254.894531 319.28125 256.457031 319.933594 258.09375 319.933594 C 258.308594 319.933594 258.523438 319.933594 258.742188 319.882812 C 260.59375 319.691406 262.25 318.660156 263.257812 317.121094 L 318.632812 230.960938 C 320.484375 228.125 319.640625 224.304688 316.78125 222.476562 " fill-opacity="1" fill-rule="nonzero"/><path fill="#004aad" d="M 147.347656 61.523438 L 190.414062 61.523438 C 193.804688 61.523438 196.566406 58.761719 196.566406 55.371094 C 196.566406 51.984375 193.804688 49.21875 190.414062 49.21875 L 147.347656 49.21875 C 143.957031 49.21875 141.195312 51.984375 141.195312 55.371094 C 141.195312 58.761719 143.957031 61.523438 147.347656 61.523438 " fill-opacity="1" fill-rule="nonzero"/><path fill="#004aad" d="M 147.347656 92.289062 L 184.261719 92.289062 C 187.652344 92.289062 190.414062 89.523438 190.414062 86.136719 C 190.414062 82.746094 187.652344 79.984375 184.261719 79.984375 L 147.347656 79.984375 C 143.957031 79.984375 141.195312 82.746094 141.195312 86.136719 C 141.195312 89.523438 143.957031 92.289062 147.347656 92.289062 " fill-opacity="1" fill-rule="nonzero"/><path fill="#004aad" d="M 147.347656 147.660156 L 227.328125 147.660156 C 230.71875 147.660156 233.480469 144.898438 233.480469 141.507812 C 233.480469 138.121094 230.71875 135.355469 227.328125 135.355469 L 147.347656 135.355469 C 143.957031 135.355469 141.195312 138.121094 141.195312 141.507812 C 141.195312 144.898438 143.957031 147.660156 147.347656 147.660156 " fill-opacity="1" fill-rule="nonzero"/><path fill="#004aad" d="M 147.347656 178.421875 L 184.261719 178.421875 C 187.652344 178.421875 190.414062 175.660156 190.414062 172.269531 C 190.414062 168.882812 187.652344 166.117188 184.261719 166.117188 L 147.347656 166.117188 C 143.957031 166.117188 141.195312 168.882812 141.195312 172.269531 C 141.195312 175.660156 143.957031 178.421875 147.347656 178.421875 " fill-opacity="1" fill-rule="nonzero"/><path fill="#004aad" d="M 165.804688 221.492188 L 147.347656 221.492188 C 143.957031 221.492188 141.195312 224.253906 141.195312 227.644531 C 141.195312 231.03125 143.957031 233.796875 147.347656 233.796875 L 165.804688 233.796875 C 169.191406 233.796875 171.957031 231.03125 171.957031 227.644531 C 171.957031 224.253906 169.191406 221.492188 165.804688 221.492188 " fill-opacity="1" fill-rule="nonzero"/><path fill="#004aad" d="M 159.652344 252.253906 L 147.347656 252.253906 C 143.957031 252.253906 141.195312 255.019531 141.195312 258.40625 C 141.195312 261.796875 143.957031 264.558594 147.347656 264.558594 L 159.652344 264.558594 C 163.039062 264.558594 165.804688 261.796875 165.804688 258.40625 C 165.804688 255.019531 163.039062 252.253906 159.652344 252.253906 " fill-opacity="1" fill-rule="nonzero"/></svg>