<svg width="300" height="347" viewBox="0 0 300 347" fill="none" xmlns="http://www.w3.org/2000/svg">
<mask id="mask0_353_21206" style="mask-type:luminance" maskUnits="userSpaceOnUse" x="0" y="67" width="134" height="108">
<path d="M0 67.6339H133.036V174.777H0V67.6339Z" fill="white"/>
</mask>
<g mask="url(#mask0_353_21206)">
<path fill-rule="evenodd" clip-rule="evenodd" d="M91.4342 169.866C88.6161 154.939 79.5759 141.295 65.4018 133.119C56.6127 128.041 46.9866 125.725 37.5 125.893V146.345L18.75 126.73L0 107.087L18.75 87.4442L37.5 67.8292V87.7232C53.4598 87.5558 69.6708 91.5178 84.4866 100.056C110.91 115.318 126.897 141.685 129.967 169.866H91.4342Z" fill="#F76C82"/>
</g>
<mask id="mask1_353_21206" style="mask-type:luminance" maskUnits="userSpaceOnUse" x="168" y="67" width="132" height="108">
<path d="M168.75 67.6339H300V174.777H168.75V67.6339Z" fill="white"/>
</mask>
<g mask="url(#mask1_353_21206)">
<path fill-rule="evenodd" clip-rule="evenodd" d="M208.538 169.866C211.356 154.939 220.396 141.295 234.598 133.119C243.387 128.041 253.013 125.725 262.472 125.893V146.345L281.222 126.73L300 107.087L281.222 87.4442L262.472 67.8292V87.7232C246.512 87.5558 230.329 91.5178 215.513 100.056C189.09 115.318 173.075 141.685 170.005 169.866H208.538Z" fill="#C6EA94"/>
</g>
<mask id="mask2_353_21206" style="mask-type:luminance" maskUnits="userSpaceOnUse" x="104" y="0" width="87" height="168">
<path d="M104.464 0H190.179V167.634H104.464V0Z" fill="white"/>
</mask>
<g mask="url(#mask2_353_21206)">
<path fill-rule="evenodd" clip-rule="evenodd" d="M169.056 37.3605V160.714H130.914V37.3605H110.881L149.999 0L189.09 37.3605H169.056Z" fill="#66D4F1"/>
</g>
<mask id="mask3_353_21206" style="mask-type:luminance" maskUnits="userSpaceOnUse" x="58" y="80" width="180" height="176">
<path d="M58.9287 80.1342H237.5V255.357H58.9287V80.1342Z" fill="white"/>
</mask>
<g mask="url(#mask3_353_21206)">
<path fill-rule="evenodd" clip-rule="evenodd" d="M226.675 184.487C209.934 184.487 201.535 204.744 213.366 216.574C215.542 218.75 215.542 222.294 213.366 224.47L201.368 236.468C199.192 238.644 195.648 238.644 193.472 236.468C181.641 224.665 161.385 233.036 161.385 249.777C161.385 252.846 158.874 255.357 155.804 255.357H138.812C135.743 255.357 133.232 252.846 133.232 249.777C133.232 233.036 113.003 224.638 101.145 236.468C98.9684 238.644 95.4249 238.644 93.2485 236.468L81.2508 224.47C79.0744 222.294 79.0744 218.75 81.2508 216.574C93.0811 204.744 84.6827 184.487 67.9416 184.487C64.8724 184.487 62.3892 181.976 62.3892 178.907V161.914C62.3892 158.845 64.8724 156.334 67.9416 156.334C84.6827 156.334 93.0811 136.077 81.2508 124.247C79.0744 122.071 79.0744 118.527 81.2508 116.351L93.2485 104.353C95.4249 102.177 98.9684 102.177 101.145 104.353C112.975 116.183 133.232 107.785 133.232 91.0717C133.232 87.9746 135.743 85.4913 138.812 85.4913H155.804C158.874 85.4913 161.385 87.9746 161.385 91.0717C161.385 107.785 181.641 116.183 193.472 104.353C195.648 102.177 199.192 102.177 201.368 104.353L213.366 116.351C215.542 118.527 215.542 122.071 213.366 124.247C201.535 136.077 209.934 156.334 226.675 156.334C229.744 156.334 232.255 158.845 232.255 161.914V178.907C232.255 181.976 229.744 184.487 226.675 184.487ZM147.322 128.907C124.387 128.907 105.804 147.489 105.804 170.424C105.804 193.332 124.387 211.914 147.322 211.914C170.23 211.914 188.812 193.332 188.812 170.424C188.812 147.489 170.23 128.907 147.322 128.907Z" fill="#0D9EE2"/>
</g>
<mask id="mask4_353_21206" style="mask-type:luminance" maskUnits="userSpaceOnUse" x="0" y="123" width="112" height="208">
<path d="M0 123.214H111.356V330.357H0V123.214Z" fill="white"/>
</mask>
<g mask="url(#mask4_353_21206)">
<path fill-rule="evenodd" clip-rule="evenodd" d="M83.6764 249.303L42.7445 210.938L21.4276 138.811C15.5961 119.029 0.0268904 127.455 1.42198 140.904L10.9086 232.589C12.4153 246.875 18.2189 258.705 28.7099 268.666L52.7892 291.49C56.5001 295.061 58.3974 299.414 58.4811 304.492L58.816 327.4H107.672V285.547L83.6764 249.303Z" fill="#FBBD80"/>
</g>
<mask id="mask5_353_21206" style="mask-type:luminance" maskUnits="userSpaceOnUse" x="47" y="316" width="79" height="31">
<path d="M47.0713 316.071H125.643V346.68H47.0713V316.071Z" fill="white"/>
</mask>
<g mask="url(#mask5_353_21206)">
<path fill-rule="evenodd" clip-rule="evenodd" d="M119.113 343.471V319.252C119.113 317.522 117.662 316.099 115.904 316.099H50.5861C48.8283 316.099 47.3774 317.522 47.3774 319.252V343.471C47.3774 345.201 48.8283 346.652 50.5861 346.652H115.904C117.662 346.652 119.113 345.229 119.113 343.471Z" fill="#0593FC"/>
</g>
<mask id="mask6_353_21206" style="mask-type:luminance" maskUnits="userSpaceOnUse" x="182" y="123" width="113" height="208">
<path d="M182.784 123.214H294.642V330.357H182.784V123.214Z" fill="white"/>
</mask>
<g mask="url(#mask6_353_21206)">
<path fill-rule="evenodd" clip-rule="evenodd" d="M211.049 249.303L251.981 210.938L273.298 138.811C279.13 119.029 294.699 127.455 293.304 140.904L283.789 232.589C282.31 246.875 276.479 258.705 266.016 268.666L241.936 291.49C238.226 295.061 236.3 299.414 236.244 304.492L235.91 327.4H187.082V285.547L211.049 249.303Z" fill="#FBBD80"/>
</g>
<path fill-rule="evenodd" clip-rule="evenodd" d="M261.355 179.241C263.197 179.855 265.01 180.747 266.74 182.003C277.678 189.983 276.701 204.771 268.08 214.146L235.518 249.665L227.482 242.438L260.044 206.891C266.573 199.748 263.922 191.685 258.286 189.62L261.355 179.241Z" fill="#E2AA73"/>
<path fill-rule="evenodd" clip-rule="evenodd" d="M260.045 206.892C270.173 195.842 258.259 182.589 247.294 192.69C216.936 220.759 187.807 239.62 187.082 285.547V300L226.981 242.941L260.045 206.892Z" fill="#FBBD80"/>
<path fill-rule="evenodd" clip-rule="evenodd" d="M34.6815 206.892C24.5531 195.842 36.4672 182.589 47.4326 192.69C77.7898 220.759 106.919 239.62 107.673 285.547V300L67.7451 242.941L34.6815 206.892Z" fill="#FBBD80"/>
<mask id="mask7_353_21206" style="mask-type:luminance" maskUnits="userSpaceOnUse" x="168" y="316" width="87" height="31">
<path d="M168.499 316.071H254.213V346.68H168.499V316.071Z" fill="white"/>
</mask>
<g mask="url(#mask7_353_21206)">
<path fill-rule="evenodd" clip-rule="evenodd" d="M175.614 343.471V319.252C175.614 317.522 177.065 316.099 178.822 316.099H244.141C245.898 316.099 247.349 317.522 247.349 319.252V343.471C247.349 345.201 245.898 346.652 244.141 346.652H178.822C177.065 346.652 175.614 345.229 175.614 343.471Z" fill="#0593FC"/>
</g>
<mask id="mask8_353_21206" style="mask-type:luminance" maskUnits="userSpaceOnUse" x="47" y="316" width="15" height="31">
<path d="M47.0713 316.071H61.357V346.68H47.0713V316.071Z" fill="white"/>
</mask>
<g mask="url(#mask8_353_21206)">
<path fill-rule="evenodd" clip-rule="evenodd" d="M57.5337 316.099H50.5861C48.8283 316.099 47.3774 317.522 47.3774 319.252V343.471C47.3774 345.201 48.8283 346.652 50.5861 346.652H57.5337C55.748 346.652 54.2971 345.201 54.2971 343.471V319.252C54.2971 317.522 55.7201 316.099 57.5337 316.099Z" fill="#0584E3"/>
</g>
<path fill-rule="evenodd" clip-rule="evenodd" d="M33.3991 179.241C31.5296 179.855 29.716 180.747 28.014 182.003C17.0486 189.983 18.0531 204.771 26.6468 214.146L59.2082 249.637L67.2439 242.41L34.6825 206.891C28.1535 199.748 30.8042 191.685 36.4404 189.62L33.3991 179.241Z" fill="#E2AA73"/>
<mask id="mask9_353_21206" style="mask-type:luminance" maskUnits="userSpaceOnUse" x="168" y="316" width="22" height="31">
<path d="M168.499 316.071H189.928V346.68H168.499V316.071Z" fill="white"/>
</mask>
<g mask="url(#mask9_353_21206)">
<path fill-rule="evenodd" clip-rule="evenodd" d="M185.77 316.099H178.822C177.065 316.099 175.614 317.522 175.614 319.252V343.471C175.614 345.201 177.065 346.652 178.822 346.652H185.77C184.012 346.652 182.533 345.201 182.533 343.471V319.252C182.533 317.522 184.012 316.099 185.77 316.099Z" fill="#0584E3"/>
</g>
<path fill-rule="evenodd" clip-rule="evenodd" d="M147.341 219.643C172.413 219.643 192.857 199.184 192.857 174.088C192.857 148.991 172.413 128.571 147.341 128.571C122.268 128.571 101.786 149.03 101.786 174.088C101.786 199.145 122.268 219.643 147.341 219.643Z" fill="#F99E15"/>
<path fill-rule="evenodd" clip-rule="evenodd" d="M147.334 203.571C163.557 203.571 176.786 190.333 176.786 174.095C176.786 157.856 163.557 144.643 147.334 144.643C131.11 144.643 117.857 157.881 117.857 174.095C117.857 190.308 131.11 203.571 147.334 203.571Z" fill="white"/>
</svg>
