<svg xmlns="http://www.w3.org/2000/svg" xmlns:xlink="http://www.w3.org/1999/xlink" width="300" zoomAndPan="magnify" viewBox="0 0 224.87999 225" height="300" preserveAspectRatio="xMidYMid meet" version="1.0"><defs><clipPath id="f98cb043ef"><path d="M 181 96 L 224.761719 96 L 224.761719 140 L 181 140 Z M 181 96 " clip-rule="nonzero"/></clipPath><clipPath id="c2376fd16d"><path d="M 8.175781 128 L 88 128 L 88 224.9375 L 8.175781 224.9375 Z M 8.175781 128 " clip-rule="nonzero"/></clipPath><clipPath id="d9a2f56825"><path d="M 71 0.0585938 L 80 0.0585938 L 80 17 L 71 17 Z M 71 0.0585938 " clip-rule="nonzero"/></clipPath></defs><path fill="#004aad" d="M 136.203125 173.347656 L 186.902344 122.648438 L 198.167969 133.914062 L 147.46875 184.613281 Z M 136.203125 173.347656 " fill-opacity="1" fill-rule="nonzero"/><path fill="#004aad" d="M 127.917969 176.234375 L 120.984375 169.300781 L 113.019531 192.882812 C 116.527344 194.046875 119.582031 195.945312 122.179688 198.578125 C 124.730469 201.25 126.5625 204.34375 127.675781 207.859375 L 151.257812 199.894531 L 144.527344 193.164062 Z M 127.917969 176.234375 " fill-opacity="1" fill-rule="nonzero"/><path fill="#004aad" d="M 110.390625 200.53125 L 105.289062 215.507812 L 120.269531 210.410156 C 119.875 209.265625 119.355469 208.179688 118.714844 207.152344 C 118.074219 206.128906 117.324219 205.1875 116.46875 204.332031 C 115.613281 203.472656 114.671875 202.726562 113.644531 202.085938 C 112.621094 201.441406 111.535156 200.925781 110.390625 200.53125 Z M 110.390625 200.53125 " fill-opacity="1" fill-rule="nonzero"/><g clip-path="url(#f98cb043ef)"><path fill="#004aad" d="M 223.515625 125.445312 L 195.394531 97.285156 C 195.019531 96.914062 194.589844 96.628906 194.105469 96.425781 C 193.617188 96.226562 193.113281 96.125 192.585938 96.125 C 192.058594 96.125 191.554688 96.226562 191.066406 96.425781 C 190.582031 96.628906 190.152344 96.914062 189.777344 97.285156 L 181.253906 105.726562 L 189.699219 114.210938 L 215.03125 139.546875 L 223.515625 131.101562 C 223.703125 130.917969 223.871094 130.714844 224.015625 130.496094 C 224.164062 130.277344 224.285156 130.046875 224.386719 129.804688 C 224.488281 129.5625 224.566406 129.3125 224.617188 129.054688 C 224.667969 128.796875 224.695312 128.535156 224.695312 128.273438 C 224.695312 128.011719 224.667969 127.75 224.617188 127.492188 C 224.566406 127.234375 224.488281 126.984375 224.386719 126.742188 C 224.285156 126.5 224.164062 126.269531 224.015625 126.050781 C 223.871094 125.832031 223.703125 125.632812 223.515625 125.445312 Z M 223.515625 125.445312 " fill-opacity="1" fill-rule="nonzero"/></g><path fill="#004aad" d="M 153.085938 190.226562 L 203.785156 139.527344 L 209.390625 145.132812 L 158.691406 195.832031 Z M 153.085938 190.226562 " fill-opacity="1" fill-rule="nonzero"/><path fill="#004aad" d="M 124.929688 162.0625 L 175.628906 111.363281 L 181.265625 116.996094 L 130.5625 167.695312 Z M 124.929688 162.0625 " fill-opacity="1" fill-rule="nonzero"/><g clip-path="url(#c2376fd16d)"><path fill="#004aad" d="M 83.859375 216.066406 L 16.144531 216.066406 L 16.144531 200.132812 L 51.992188 200.132812 C 52.253906 200.132812 52.515625 200.109375 52.769531 200.054688 C 53.027344 200.003906 53.277344 199.929688 53.519531 199.828125 C 53.761719 199.730469 53.988281 199.605469 54.207031 199.460938 C 54.425781 199.316406 54.625 199.152344 54.8125 198.964844 C 54.996094 198.78125 55.160156 198.582031 55.304688 198.363281 C 55.453125 198.144531 55.574219 197.914062 55.675781 197.675781 C 55.773438 197.433594 55.851562 197.183594 55.902344 196.925781 C 55.953125 196.671875 55.976562 196.410156 55.976562 196.148438 L 55.976562 172.25 C 55.976562 171.988281 55.953125 171.730469 55.902344 171.472656 C 55.851562 171.214844 55.773438 170.96875 55.675781 170.726562 C 55.574219 170.484375 55.453125 170.253906 55.304688 170.035156 C 55.160156 169.820312 54.996094 169.617188 54.8125 169.433594 C 54.625 169.25 54.425781 169.082031 54.207031 168.9375 C 53.988281 168.792969 53.761719 168.667969 53.519531 168.570312 C 53.277344 168.46875 53.027344 168.394531 52.769531 168.34375 C 52.515625 168.292969 52.253906 168.265625 51.992188 168.265625 L 16.144531 168.265625 L 16.144531 152.332031 L 75.894531 152.332031 C 76.15625 152.332031 76.414062 152.308594 76.671875 152.257812 C 76.925781 152.207031 77.175781 152.128906 77.417969 152.03125 C 77.660156 151.929688 77.890625 151.808594 78.105469 151.660156 C 78.324219 151.515625 78.527344 151.351562 78.710938 151.167969 C 78.894531 150.980469 79.0625 150.78125 79.207031 150.5625 C 79.351562 150.34375 79.472656 150.117188 79.574219 149.875 C 79.675781 149.632812 79.75 149.382812 79.800781 149.128906 C 79.851562 148.871094 79.878906 148.613281 79.878906 148.351562 L 79.878906 132.417969 C 79.878906 132.15625 79.851562 131.894531 79.800781 131.640625 C 79.75 131.382812 79.675781 131.132812 79.574219 130.890625 C 79.472656 130.652344 79.351562 130.421875 79.207031 130.203125 C 79.0625 129.984375 78.894531 129.785156 78.710938 129.601562 C 78.527344 129.414062 78.324219 129.25 78.105469 129.105469 C 77.890625 128.960938 77.660156 128.835938 77.417969 128.738281 C 77.175781 128.636719 76.925781 128.5625 76.671875 128.511719 C 76.414062 128.457031 76.15625 128.433594 75.894531 128.433594 C 75.632812 128.433594 75.375 128.457031 75.117188 128.511719 C 74.859375 128.5625 74.609375 128.636719 74.371094 128.738281 C 74.128906 128.835938 73.898438 128.960938 73.679688 129.105469 C 73.464844 129.25 73.261719 129.414062 73.078125 129.601562 C 72.890625 129.785156 72.726562 129.984375 72.582031 130.203125 C 72.4375 130.421875 72.3125 130.652344 72.214844 130.890625 C 72.113281 131.132812 72.039062 131.382812 71.988281 131.640625 C 71.9375 131.894531 71.910156 132.15625 71.910156 132.417969 L 71.910156 144.367188 L 12.160156 144.367188 C 11.898438 144.367188 11.640625 144.390625 11.382812 144.441406 C 11.128906 144.496094 10.878906 144.570312 10.636719 144.667969 C 10.394531 144.769531 10.164062 144.894531 9.949219 145.039062 C 9.730469 145.183594 9.527344 145.347656 9.34375 145.535156 C 9.160156 145.71875 8.992188 145.917969 8.847656 146.136719 C 8.703125 146.355469 8.582031 146.582031 8.480469 146.824219 C 8.378906 147.066406 8.304688 147.316406 8.253906 147.574219 C 8.203125 147.828125 8.175781 148.089844 8.175781 148.351562 L 8.175781 172.25 C 8.175781 172.511719 8.203125 172.769531 8.253906 173.027344 C 8.304688 173.285156 8.378906 173.53125 8.480469 173.773438 C 8.582031 174.015625 8.703125 174.246094 8.847656 174.460938 C 8.992188 174.679688 9.160156 174.882812 9.34375 175.066406 C 9.527344 175.25 9.730469 175.417969 9.949219 175.5625 C 10.164062 175.707031 10.394531 175.828125 10.636719 175.929688 C 10.878906 176.03125 11.128906 176.105469 11.382812 176.15625 C 11.640625 176.207031 11.898438 176.234375 12.160156 176.234375 L 48.011719 176.234375 L 48.011719 192.167969 L 12.160156 192.167969 C 11.898438 192.167969 11.640625 192.191406 11.382812 192.242188 C 11.128906 192.292969 10.878906 192.371094 10.636719 192.46875 C 10.394531 192.570312 10.164062 192.691406 9.949219 192.835938 C 9.730469 192.984375 9.527344 193.148438 9.34375 193.332031 C 9.160156 193.519531 8.992188 193.71875 8.847656 193.9375 C 8.703125 194.152344 8.582031 194.382812 8.480469 194.625 C 8.378906 194.867188 8.304688 195.117188 8.253906 195.371094 C 8.203125 195.628906 8.175781 195.886719 8.175781 196.148438 L 8.175781 220.050781 C 8.175781 220.3125 8.203125 220.570312 8.253906 220.828125 C 8.304688 221.082031 8.378906 221.332031 8.480469 221.574219 C 8.582031 221.816406 8.703125 222.046875 8.847656 222.261719 C 8.992188 222.480469 9.160156 222.679688 9.34375 222.867188 C 9.527344 223.050781 9.730469 223.214844 9.949219 223.363281 C 10.164062 223.507812 10.394531 223.628906 10.636719 223.730469 C 10.878906 223.828125 11.128906 223.90625 11.382812 223.957031 C 11.640625 224.007812 11.898438 224.03125 12.160156 224.03125 L 83.859375 224.03125 C 84.121094 224.03125 84.382812 224.007812 84.636719 223.957031 C 84.894531 223.90625 85.144531 223.828125 85.386719 223.730469 C 85.625 223.628906 85.855469 223.507812 86.074219 223.363281 C 86.292969 223.214844 86.492188 223.050781 86.675781 222.867188 C 86.863281 222.679688 87.027344 222.480469 87.171875 222.261719 C 87.316406 222.046875 87.441406 221.816406 87.539062 221.574219 C 87.640625 221.332031 87.714844 221.082031 87.765625 220.828125 C 87.820312 220.570312 87.84375 220.3125 87.84375 220.050781 C 87.84375 219.789062 87.820312 219.527344 87.765625 219.273438 C 87.714844 219.015625 87.640625 218.765625 87.539062 218.527344 C 87.441406 218.285156 87.316406 218.054688 87.171875 217.835938 C 87.027344 217.621094 86.863281 217.417969 86.675781 217.234375 C 86.492188 217.046875 86.292969 216.882812 86.074219 216.738281 C 85.855469 216.59375 85.625 216.46875 85.386719 216.371094 C 85.144531 216.269531 84.894531 216.195312 84.636719 216.144531 C 84.382812 216.09375 84.121094 216.066406 83.859375 216.066406 Z M 83.859375 216.066406 " fill-opacity="1" fill-rule="nonzero"/></g><path fill="#004aad" d="M 91.230469 37.453125 C 89.488281 36.300781 87.640625 35.355469 85.6875 34.617188 C 83.734375 33.878906 81.722656 33.367188 79.65625 33.082031 C 77.585938 32.796875 75.511719 32.742188 73.433594 32.921875 C 71.351562 33.101562 69.320312 33.511719 67.328125 34.148438 C 66.03125 34.550781 64.769531 35.050781 63.542969 35.640625 C 62.316406 36.230469 61.144531 36.90625 60.015625 37.671875 C 58.890625 38.433594 57.828125 39.277344 56.828125 40.199219 C 55.828125 41.117188 54.898438 42.109375 54.042969 43.167969 C 53.1875 44.222656 52.414062 45.339844 51.726562 46.511719 C 51.035156 47.683594 50.433594 48.898438 49.921875 50.160156 C 49.410156 51.417969 48.996094 52.710938 48.675781 54.03125 C 48.355469 55.355469 48.132812 56.691406 48.011719 58.046875 C 47.90625 59.226562 47.878906 60.410156 47.925781 61.59375 C 47.972656 62.777344 48.09375 63.953125 48.289062 65.121094 C 48.484375 66.289062 48.75 67.4375 49.09375 68.574219 C 49.433594 69.707031 49.84375 70.816406 50.324219 71.898438 C 50.804688 72.980469 51.351562 74.027344 51.964844 75.042969 C 52.578125 76.054688 53.25 77.027344 53.984375 77.953125 C 54.722656 78.882812 55.511719 79.761719 56.359375 80.589844 C 57.207031 81.417969 58.101562 82.1875 59.042969 82.902344 C 59.804688 83.460938 60.492188 84.097656 61.101562 84.816406 C 61.710938 85.535156 62.230469 86.3125 62.65625 87.15625 C 63.082031 87.996094 63.402344 88.875 63.621094 89.792969 C 63.839844 90.710938 63.945312 91.640625 63.945312 92.582031 L 63.945312 96.566406 L 87.84375 96.566406 L 87.84375 92.582031 C 87.847656 91.660156 87.957031 90.746094 88.171875 89.847656 C 88.386719 88.949219 88.699219 88.085938 89.113281 87.261719 C 89.527344 86.433594 90.03125 85.667969 90.625 84.957031 C 91.21875 84.25 91.882812 83.617188 92.625 83.0625 C 93.070312 82.730469 93.503906 82.382812 93.925781 82.023438 C 94.351562 81.664062 94.761719 81.289062 95.164062 80.90625 C 95.566406 80.519531 95.957031 80.125 96.335938 79.714844 C 96.710938 79.308594 97.078125 78.890625 97.429688 78.457031 C 97.785156 78.027344 98.121094 77.589844 98.449219 77.140625 C 98.777344 76.6875 99.089844 76.230469 99.386719 75.761719 C 99.6875 75.292969 99.972656 74.8125 100.242188 74.328125 C 100.511719 73.839844 100.769531 73.347656 101.007812 72.847656 C 101.25 72.34375 101.476562 71.835938 101.6875 71.324219 C 101.894531 70.808594 102.089844 70.289062 102.269531 69.761719 C 102.449219 69.234375 102.613281 68.703125 102.761719 68.167969 C 102.910156 67.628906 103.039062 67.089844 103.15625 66.546875 C 103.269531 66.003906 103.367188 65.457031 103.453125 64.90625 C 103.535156 64.355469 103.601562 63.804688 103.648438 63.25 C 103.699219 62.695312 103.730469 62.140625 103.746094 61.585938 C 103.765625 61.027344 103.765625 60.472656 103.746094 59.917969 C 103.730469 59.359375 103.695312 58.804688 103.644531 58.253906 C 103.597656 57.699219 103.527344 57.148438 103.445312 56.597656 C 103.363281 56.046875 103.261719 55.5 103.148438 54.957031 C 103.03125 54.410156 102.898438 53.871094 102.75 53.335938 C 102.601562 52.800781 102.4375 52.269531 102.257812 51.742188 C 102.078125 51.214844 101.882812 50.695312 101.671875 50.183594 C 101.460938 49.667969 101.234375 49.160156 100.992188 48.660156 C 100.75 48.15625 100.496094 47.664062 100.222656 47.179688 C 99.953125 46.691406 99.667969 46.214844 99.367188 45.746094 C 99.066406 45.277344 98.753906 44.820312 98.425781 44.371094 C 98.101562 43.921875 97.761719 43.480469 97.40625 43.050781 C 97.054688 42.621094 96.6875 42.203125 96.308594 41.796875 C 95.929688 41.386719 95.539062 40.992188 95.136719 40.609375 C 94.734375 40.222656 94.324219 39.851562 93.898438 39.492188 C 93.472656 39.132812 93.039062 38.785156 92.59375 38.453125 C 92.148438 38.121094 91.695312 37.800781 91.230469 37.492188 Z M 91.828125 64.699219 C 91.566406 64.699219 91.308594 64.675781 91.050781 64.625 C 90.792969 64.574219 90.542969 64.496094 90.304688 64.398438 C 90.0625 64.296875 89.832031 64.175781 89.613281 64.027344 C 89.398438 63.882812 89.195312 63.71875 89.011719 63.535156 C 88.824219 63.347656 88.660156 63.148438 88.515625 62.929688 C 88.371094 62.710938 88.246094 62.484375 88.148438 62.242188 C 88.046875 62 87.972656 61.75 87.921875 61.492188 C 87.871094 61.238281 87.84375 60.976562 87.84375 60.714844 C 87.84375 59.933594 87.765625 59.15625 87.613281 58.386719 C 87.460938 57.617188 87.234375 56.867188 86.933594 56.144531 C 86.632812 55.417969 86.265625 54.730469 85.828125 54.078125 C 85.394531 53.425781 84.898438 52.820312 84.34375 52.265625 C 83.789062 51.710938 83.183594 51.214844 82.53125 50.78125 C 81.878906 50.34375 81.191406 49.976562 80.46875 49.675781 C 79.742188 49.375 78.996094 49.148438 78.226562 48.996094 C 77.457031 48.84375 76.679688 48.765625 75.894531 48.765625 C 75.632812 48.765625 75.375 48.742188 75.117188 48.691406 C 74.859375 48.640625 74.609375 48.5625 74.371094 48.464844 C 74.128906 48.363281 73.898438 48.242188 73.679688 48.09375 C 73.464844 47.949219 73.261719 47.785156 73.078125 47.601562 C 72.890625 47.414062 72.726562 47.214844 72.582031 46.996094 C 72.4375 46.777344 72.3125 46.550781 72.214844 46.308594 C 72.113281 46.066406 72.039062 45.816406 71.988281 45.5625 C 71.9375 45.304688 71.910156 45.046875 71.910156 44.785156 C 71.910156 44.523438 71.9375 44.261719 71.988281 44.007812 C 72.039062 43.75 72.113281 43.5 72.214844 43.257812 C 72.3125 43.015625 72.4375 42.789062 72.582031 42.570312 C 72.726562 42.351562 72.890625 42.152344 73.078125 41.96875 C 73.261719 41.78125 73.464844 41.617188 73.679688 41.472656 C 73.898438 41.324219 74.128906 41.203125 74.371094 41.101562 C 74.609375 41.003906 74.859375 40.925781 75.117188 40.875 C 75.375 40.824219 75.632812 40.800781 75.894531 40.800781 C 76.546875 40.800781 77.195312 40.832031 77.847656 40.894531 C 78.496094 40.960938 79.140625 41.054688 79.78125 41.183594 C 80.417969 41.308594 81.050781 41.46875 81.675781 41.65625 C 82.300781 41.847656 82.914062 42.066406 83.515625 42.316406 C 84.117188 42.566406 84.707031 42.84375 85.28125 43.152344 C 85.859375 43.460938 86.417969 43.792969 86.960938 44.15625 C 87.5 44.519531 88.023438 44.90625 88.527344 45.320312 C 89.03125 45.734375 89.515625 46.171875 89.976562 46.632812 C 90.4375 47.09375 90.875 47.578125 91.289062 48.082031 C 91.703125 48.585938 92.089844 49.109375 92.453125 49.652344 C 92.816406 50.195312 93.152344 50.753906 93.457031 51.328125 C 93.765625 51.902344 94.042969 52.492188 94.292969 53.09375 C 94.542969 53.699219 94.761719 54.3125 94.953125 54.933594 C 95.140625 55.558594 95.300781 56.191406 95.429688 56.832031 C 95.554688 57.472656 95.652344 58.117188 95.714844 58.765625 C 95.777344 59.414062 95.8125 60.066406 95.8125 60.714844 C 95.8125 60.976562 95.785156 61.238281 95.734375 61.492188 C 95.683594 61.75 95.609375 62 95.507812 62.242188 C 95.40625 62.484375 95.285156 62.710938 95.140625 62.929688 C 94.992188 63.148438 94.828125 63.347656 94.644531 63.535156 C 94.457031 63.71875 94.257812 63.882812 94.039062 64.027344 C 93.824219 64.175781 93.59375 64.296875 93.351562 64.398438 C 93.109375 64.496094 92.859375 64.574219 92.605469 64.625 C 92.347656 64.675781 92.089844 64.699219 91.828125 64.699219 Z M 91.828125 64.699219 " fill-opacity="1" fill-rule="nonzero"/><path fill="#004aad" d="M 63.945312 108.515625 C 63.945312 108.777344 63.96875 109.039062 64.019531 109.292969 C 64.070312 109.550781 64.148438 109.800781 64.246094 110.039062 C 64.347656 110.28125 64.46875 110.511719 64.617188 110.730469 C 64.761719 110.945312 64.925781 111.148438 65.109375 111.332031 C 65.296875 111.519531 65.496094 111.683594 65.714844 111.828125 C 65.933594 111.972656 66.160156 112.097656 66.402344 112.195312 C 66.644531 112.296875 66.894531 112.371094 67.148438 112.421875 C 67.40625 112.472656 67.664062 112.5 67.925781 112.5 L 83.859375 112.5 C 84.121094 112.5 84.382812 112.472656 84.636719 112.421875 C 84.894531 112.371094 85.144531 112.296875 85.386719 112.195312 C 85.625 112.097656 85.855469 111.972656 86.074219 111.828125 C 86.292969 111.683594 86.492188 111.519531 86.675781 111.332031 C 86.863281 111.148438 87.027344 110.945312 87.171875 110.730469 C 87.316406 110.511719 87.441406 110.28125 87.539062 110.039062 C 87.640625 109.800781 87.714844 109.550781 87.765625 109.292969 C 87.820312 109.039062 87.84375 108.777344 87.84375 108.515625 L 87.84375 104.535156 L 63.945312 104.535156 Z M 63.945312 108.515625 " fill-opacity="1" fill-rule="nonzero"/><g clip-path="url(#d9a2f56825)"><path fill="#004aad" d="M 75.894531 16.898438 C 76.15625 16.898438 76.414062 16.875 76.671875 16.824219 C 76.925781 16.773438 77.175781 16.695312 77.417969 16.597656 C 77.660156 16.496094 77.890625 16.375 78.105469 16.230469 C 78.324219 16.082031 78.527344 15.917969 78.710938 15.734375 C 78.894531 15.546875 79.0625 15.347656 79.207031 15.128906 C 79.351562 14.914062 79.472656 14.683594 79.574219 14.441406 C 79.675781 14.199219 79.75 13.949219 79.800781 13.695312 C 79.851562 13.4375 79.878906 13.179688 79.878906 12.917969 L 79.878906 4.949219 C 79.878906 4.6875 79.851562 4.429688 79.800781 4.171875 C 79.75 3.917969 79.675781 3.667969 79.574219 3.425781 C 79.472656 3.183594 79.351562 2.953125 79.207031 2.738281 C 79.0625 2.519531 78.894531 2.320312 78.710938 2.132812 C 78.527344 1.949219 78.324219 1.785156 78.105469 1.636719 C 77.890625 1.492188 77.660156 1.371094 77.417969 1.269531 C 77.175781 1.171875 76.925781 1.09375 76.671875 1.042969 C 76.414062 0.992188 76.15625 0.96875 75.894531 0.96875 C 75.632812 0.96875 75.375 0.992188 75.117188 1.042969 C 74.859375 1.09375 74.609375 1.171875 74.371094 1.269531 C 74.128906 1.371094 73.898438 1.492188 73.679688 1.636719 C 73.464844 1.785156 73.261719 1.949219 73.078125 2.132812 C 72.890625 2.320312 72.726562 2.519531 72.582031 2.738281 C 72.4375 2.953125 72.3125 3.183594 72.214844 3.425781 C 72.113281 3.667969 72.039062 3.917969 71.988281 4.171875 C 71.9375 4.429688 71.910156 4.6875 71.910156 4.949219 L 71.910156 12.917969 C 71.910156 13.179688 71.9375 13.4375 71.988281 13.695312 C 72.039062 13.949219 72.113281 14.199219 72.214844 14.441406 C 72.3125 14.683594 72.4375 14.914062 72.582031 15.128906 C 72.726562 15.347656 72.890625 15.546875 73.078125 15.734375 C 73.261719 15.917969 73.464844 16.082031 73.679688 16.230469 C 73.898438 16.375 74.128906 16.496094 74.371094 16.597656 C 74.609375 16.695312 74.859375 16.773438 75.117188 16.824219 C 75.375 16.875 75.632812 16.898438 75.894531 16.898438 Z M 75.894531 16.898438 " fill-opacity="1" fill-rule="nonzero"/></g><path fill="#004aad" d="M 39.289062 29.726562 C 39.660156 30.097656 40.089844 30.382812 40.578125 30.582031 C 41.0625 30.785156 41.570312 30.886719 42.09375 30.886719 C 42.621094 30.886719 43.128906 30.785156 43.613281 30.582031 C 44.101562 30.382812 44.53125 30.097656 44.902344 29.726562 C 45.273438 29.351562 45.558594 28.921875 45.761719 28.4375 C 45.960938 27.949219 46.0625 27.445312 46.0625 26.917969 C 46.0625 26.390625 45.960938 25.886719 45.761719 25.398438 C 45.558594 24.914062 45.273438 24.484375 44.902344 24.109375 L 39.289062 18.453125 C 39.101562 18.269531 38.898438 18.101562 38.679688 17.957031 C 38.460938 17.8125 38.230469 17.6875 37.988281 17.589844 C 37.746094 17.488281 37.496094 17.410156 37.238281 17.359375 C 36.980469 17.308594 36.722656 17.285156 36.460938 17.285156 C 36.195312 17.285156 35.9375 17.308594 35.679688 17.363281 C 35.421875 17.414062 35.171875 17.488281 34.929688 17.589844 C 34.6875 17.691406 34.457031 17.8125 34.238281 17.957031 C 34.019531 18.105469 33.820312 18.269531 33.632812 18.457031 C 33.449219 18.640625 33.28125 18.84375 33.136719 19.0625 C 32.988281 19.28125 32.867188 19.511719 32.765625 19.753906 C 32.664062 19.996094 32.589844 20.246094 32.539062 20.503906 C 32.488281 20.761719 32.460938 21.019531 32.460938 21.28125 C 32.460938 21.546875 32.488281 21.804688 32.539062 22.0625 C 32.589844 22.320312 32.664062 22.570312 32.765625 22.8125 C 32.867188 23.054688 32.988281 23.285156 33.132812 23.503906 C 33.28125 23.722656 33.445312 23.925781 33.632812 24.109375 Z M 39.289062 29.726562 " fill-opacity="1" fill-rule="nonzero"/><path fill="#004aad" d="M 20.128906 64.699219 L 28.09375 64.699219 C 28.355469 64.699219 28.613281 64.675781 28.871094 64.625 C 29.128906 64.574219 29.375 64.496094 29.617188 64.398438 C 29.859375 64.296875 30.089844 64.175781 30.308594 64.027344 C 30.523438 63.882812 30.726562 63.71875 30.910156 63.535156 C 31.09375 63.347656 31.261719 63.148438 31.40625 62.929688 C 31.550781 62.710938 31.675781 62.484375 31.773438 62.242188 C 31.875 62 31.949219 61.75 32 61.492188 C 32.050781 61.238281 32.078125 60.976562 32.078125 60.714844 C 32.078125 60.457031 32.050781 60.195312 32 59.941406 C 31.949219 59.683594 31.875 59.433594 31.773438 59.191406 C 31.675781 58.949219 31.550781 58.722656 31.40625 58.503906 C 31.261719 58.285156 31.09375 58.085938 30.910156 57.898438 C 30.726562 57.714844 30.523438 57.550781 30.308594 57.40625 C 30.089844 57.257812 29.859375 57.136719 29.617188 57.035156 C 29.375 56.9375 29.128906 56.859375 28.871094 56.808594 C 28.613281 56.757812 28.355469 56.734375 28.09375 56.734375 L 20.128906 56.734375 C 19.867188 56.734375 19.605469 56.757812 19.351562 56.808594 C 19.09375 56.859375 18.84375 56.9375 18.601562 57.035156 C 18.363281 57.136719 18.132812 57.257812 17.914062 57.40625 C 17.695312 57.550781 17.496094 57.714844 17.3125 57.898438 C 17.125 58.085938 16.960938 58.285156 16.816406 58.503906 C 16.671875 58.722656 16.546875 58.949219 16.449219 59.191406 C 16.347656 59.433594 16.273438 59.683594 16.21875 59.941406 C 16.167969 60.195312 16.144531 60.457031 16.144531 60.714844 C 16.144531 60.976562 16.167969 61.238281 16.21875 61.492188 C 16.273438 61.75 16.347656 62 16.449219 62.242188 C 16.546875 62.484375 16.671875 62.710938 16.816406 62.929688 C 16.960938 63.148438 17.125 63.347656 17.3125 63.535156 C 17.496094 63.71875 17.695312 63.882812 17.914062 64.027344 C 18.132812 64.175781 18.363281 64.296875 18.601562 64.398438 C 18.84375 64.496094 19.09375 64.574219 19.351562 64.625 C 19.605469 64.675781 19.867188 64.699219 20.128906 64.699219 Z M 20.128906 64.699219 " fill-opacity="1" fill-rule="nonzero"/><path fill="#004aad" d="M 36.460938 104.136719 C 37.5625 104.140625 38.503906 103.757812 39.289062 102.980469 L 44.902344 97.324219 C 45.113281 97.144531 45.300781 96.945312 45.46875 96.730469 C 45.636719 96.511719 45.777344 96.28125 45.898438 96.03125 C 46.019531 95.785156 46.109375 95.527344 46.175781 95.261719 C 46.242188 94.996094 46.28125 94.726562 46.292969 94.453125 C 46.304688 94.175781 46.285156 93.90625 46.242188 93.632812 C 46.195312 93.363281 46.121094 93.101562 46.023438 92.84375 C 45.921875 92.589844 45.796875 92.347656 45.644531 92.117188 C 45.496094 91.886719 45.324219 91.675781 45.128906 91.480469 C 44.933594 91.289062 44.722656 91.113281 44.492188 90.964844 C 44.265625 90.816406 44.019531 90.6875 43.765625 90.589844 C 43.511719 90.488281 43.246094 90.417969 42.976562 90.371094 C 42.707031 90.324219 42.433594 90.308594 42.160156 90.316406 C 41.882812 90.328125 41.613281 90.367188 41.347656 90.433594 C 41.082031 90.5 40.824219 90.59375 40.578125 90.710938 C 40.332031 90.832031 40.097656 90.976562 39.882812 91.144531 C 39.664062 91.308594 39.464844 91.5 39.289062 91.707031 L 33.632812 97.324219 C 33.445312 97.507812 33.277344 97.710938 33.128906 97.929688 C 32.984375 98.148438 32.859375 98.378906 32.757812 98.621094 C 32.65625 98.863281 32.582031 99.113281 32.53125 99.371094 C 32.476562 99.628906 32.453125 99.890625 32.453125 100.152344 C 32.453125 100.414062 32.476562 100.675781 32.53125 100.933594 C 32.582031 101.191406 32.65625 101.441406 32.757812 101.683594 C 32.859375 101.925781 32.984375 102.15625 33.128906 102.375 C 33.277344 102.59375 33.445312 102.792969 33.632812 102.980469 C 34.414062 103.757812 35.355469 104.140625 36.460938 104.136719 Z M 36.460938 104.136719 " fill-opacity="1" fill-rule="nonzero"/><path fill="#004aad" d="M 112.5 102.980469 C 112.6875 103.167969 112.886719 103.332031 113.105469 103.480469 C 113.324219 103.625 113.554688 103.75 113.796875 103.851562 C 114.039062 103.953125 114.289062 104.027344 114.546875 104.082031 C 114.804688 104.132812 115.066406 104.15625 115.328125 104.15625 C 115.59375 104.15625 115.851562 104.132812 116.109375 104.082031 C 116.367188 104.027344 116.617188 103.953125 116.859375 103.851562 C 117.105469 103.75 117.332031 103.625 117.550781 103.480469 C 117.769531 103.332031 117.972656 103.167969 118.15625 102.980469 C 118.34375 102.792969 118.511719 102.59375 118.65625 102.375 C 118.804688 102.15625 118.929688 101.925781 119.027344 101.683594 C 119.128906 101.441406 119.207031 101.191406 119.257812 100.933594 C 119.308594 100.675781 119.335938 100.414062 119.335938 100.152344 C 119.335938 99.890625 119.308594 99.628906 119.257812 99.371094 C 119.207031 99.113281 119.128906 98.863281 119.027344 98.621094 C 118.929688 98.378906 118.804688 98.148438 118.65625 97.929688 C 118.511719 97.710938 118.34375 97.507812 118.15625 97.324219 L 112.5 91.707031 C 112.320312 91.5 112.125 91.308594 111.90625 91.144531 C 111.6875 90.976562 111.457031 90.832031 111.210938 90.710938 C 110.964844 90.59375 110.707031 90.5 110.441406 90.433594 C 110.171875 90.367188 109.902344 90.328125 109.628906 90.316406 C 109.355469 90.308594 109.082031 90.324219 108.8125 90.371094 C 108.539062 90.417969 108.277344 90.488281 108.023438 90.589844 C 107.765625 90.6875 107.523438 90.816406 107.292969 90.964844 C 107.066406 91.113281 106.851562 91.289062 106.660156 91.480469 C 106.464844 91.675781 106.292969 91.886719 106.140625 92.117188 C 105.992188 92.347656 105.867188 92.589844 105.765625 92.84375 C 105.667969 93.101562 105.59375 93.363281 105.546875 93.632812 C 105.5 93.90625 105.484375 94.175781 105.496094 94.453125 C 105.503906 94.726562 105.542969 94.996094 105.609375 95.261719 C 105.675781 95.527344 105.769531 95.785156 105.890625 96.03125 C 106.007812 96.28125 106.152344 96.511719 106.320312 96.730469 C 106.488281 96.945312 106.675781 97.144531 106.882812 97.324219 Z M 112.5 102.980469 " fill-opacity="1" fill-rule="nonzero"/><path fill="#004aad" d="M 123.695312 64.699219 L 131.660156 64.699219 C 131.921875 64.699219 132.179688 64.675781 132.4375 64.625 C 132.695312 64.574219 132.941406 64.496094 133.183594 64.398438 C 133.425781 64.296875 133.65625 64.175781 133.875 64.027344 C 134.089844 63.882812 134.292969 63.71875 134.476562 63.535156 C 134.664062 63.347656 134.828125 63.148438 134.972656 62.929688 C 135.117188 62.710938 135.242188 62.484375 135.339844 62.242188 C 135.441406 62 135.515625 61.75 135.566406 61.492188 C 135.617188 61.238281 135.644531 60.976562 135.644531 60.714844 C 135.644531 60.457031 135.617188 60.195312 135.566406 59.941406 C 135.515625 59.683594 135.441406 59.433594 135.339844 59.191406 C 135.242188 58.949219 135.117188 58.722656 134.972656 58.503906 C 134.828125 58.285156 134.664062 58.085938 134.476562 57.898438 C 134.292969 57.714844 134.089844 57.550781 133.875 57.40625 C 133.65625 57.257812 133.425781 57.136719 133.183594 57.035156 C 132.941406 56.9375 132.695312 56.859375 132.4375 56.808594 C 132.179688 56.757812 131.921875 56.734375 131.660156 56.734375 L 123.695312 56.734375 C 123.433594 56.734375 123.171875 56.757812 122.917969 56.808594 C 122.660156 56.859375 122.410156 56.9375 122.167969 57.035156 C 121.929688 57.136719 121.699219 57.257812 121.480469 57.40625 C 121.261719 57.550781 121.0625 57.714844 120.878906 57.898438 C 120.691406 58.085938 120.527344 58.285156 120.382812 58.503906 C 120.238281 58.722656 120.113281 58.949219 120.015625 59.191406 C 119.914062 59.433594 119.839844 59.683594 119.789062 59.941406 C 119.734375 60.195312 119.710938 60.457031 119.710938 60.714844 C 119.710938 60.976562 119.734375 61.238281 119.785156 61.492188 C 119.839844 61.75 119.914062 62 120.015625 62.242188 C 120.113281 62.484375 120.238281 62.710938 120.382812 62.929688 C 120.527344 63.148438 120.691406 63.347656 120.878906 63.535156 C 121.0625 63.71875 121.261719 63.882812 121.480469 64.027344 C 121.699219 64.175781 121.929688 64.296875 122.167969 64.398438 C 122.410156 64.496094 122.660156 64.574219 122.917969 64.625 C 123.171875 64.675781 123.433594 64.699219 123.695312 64.699219 Z M 123.695312 64.699219 " fill-opacity="1" fill-rule="nonzero"/><path fill="#004aad" d="M 109.710938 30.882812 C 110.800781 30.878906 111.730469 30.492188 112.5 29.726562 L 118.15625 24.109375 C 118.34375 23.925781 118.507812 23.722656 118.652344 23.503906 C 118.800781 23.285156 118.921875 23.054688 119.023438 22.8125 C 119.125 22.570312 119.199219 22.320312 119.25 22.0625 C 119.300781 21.804688 119.328125 21.546875 119.328125 21.28125 C 119.328125 21.019531 119.300781 20.761719 119.25 20.503906 C 119.199219 20.246094 119.121094 19.996094 119.023438 19.753906 C 118.921875 19.511719 118.796875 19.28125 118.652344 19.0625 C 118.507812 18.84375 118.339844 18.640625 118.15625 18.457031 C 117.96875 18.269531 117.765625 18.105469 117.550781 17.957031 C 117.332031 17.8125 117.101562 17.691406 116.859375 17.589844 C 116.617188 17.488281 116.367188 17.414062 116.109375 17.363281 C 115.851562 17.308594 115.589844 17.285156 115.328125 17.285156 C 115.066406 17.285156 114.804688 17.308594 114.546875 17.359375 C 114.289062 17.410156 114.039062 17.488281 113.796875 17.589844 C 113.554688 17.6875 113.324219 17.8125 113.105469 17.957031 C 112.886719 18.101562 112.6875 18.269531 112.5 18.453125 L 106.882812 24.109375 C 106.511719 24.484375 106.226562 24.914062 106.027344 25.398438 C 105.828125 25.886719 105.726562 26.390625 105.726562 26.917969 C 105.726562 27.445312 105.828125 27.949219 106.027344 28.4375 C 106.226562 28.921875 106.511719 29.351562 106.882812 29.726562 C 107.667969 30.503906 108.609375 30.886719 109.710938 30.882812 Z M 109.710938 30.882812 " fill-opacity="1" fill-rule="nonzero"/></svg>