<svg width="300" height="300" viewBox="0 0 300 300" fill="none" xmlns="http://www.w3.org/2000/svg">
<mask id="mask0_353_21207" style="mask-type:luminance" maskUnits="userSpaceOnUse" x="0" y="147" width="300" height="153">
<path d="M0 147.614H300V300H0V147.614Z" fill="white"/>
</mask>
<g mask="url(#mask0_353_21207)">
<path fill-rule="evenodd" clip-rule="evenodd" d="M290.142 174.858C260.597 174.858 245.767 210.653 266.676 231.534C270.511 235.398 270.511 241.619 266.676 245.483L245.455 266.676C241.619 270.54 235.369 270.54 231.506 266.676C210.625 245.795 174.858 260.625 174.858 290.17C174.858 295.597 170.426 300 165 300H135C129.545 300 125.142 295.597 125.142 290.17C125.142 260.597 89.375 245.767 68.4659 266.676C64.6307 270.54 58.3807 270.54 54.5455 266.676L33.3239 245.483C29.4602 241.619 29.4602 235.398 33.3239 231.534C54.2045 210.653 39.375 174.858 9.85795 174.858C4.40341 174.858 0 170.455 0 165V150H76.7045C76.7045 190.483 109.517 223.324 150 223.324C190.483 223.324 223.295 190.483 223.295 150H300V165C300 170.455 295.597 174.858 290.142 174.858Z" fill="#FDCD56"/>
</g>
<path fill-rule="evenodd" clip-rule="evenodd" d="M97.3296 150H202.671C202.671 179.091 179.091 202.699 150 202.699C120.909 202.699 97.3296 179.091 97.3296 150Z" fill="#F5B945"/>
<mask id="mask1_353_21207" style="mask-type:luminance" maskUnits="userSpaceOnUse" x="74" y="0" width="44" height="39">
<path d="M74.3184 0H117.955V38.5227H74.3184V0Z" fill="white"/>
</mask>
<g mask="url(#mask1_353_21207)">
<path fill-rule="evenodd" clip-rule="evenodd" d="M76.5049 18.3523C76.5049 28.4943 84.7151 36.7045 94.8287 36.7045C104.971 36.7045 113.181 28.4943 113.181 18.3523C113.181 8.23864 104.971 0 94.8287 0C84.7151 0 76.5049 8.23864 76.5049 18.3523Z" fill="#EFC7A4"/>
</g>
<path fill-rule="evenodd" clip-rule="evenodd" d="M134.517 86.9607C134.517 108.864 55.1421 108.864 55.1421 86.9607C55.1421 65.0289 72.9262 47.2732 94.8296 47.2732C116.761 47.2732 134.517 65.0289 134.517 86.9607Z" fill="#66D4F1"/>
<mask id="mask2_353_21207" style="mask-type:luminance" maskUnits="userSpaceOnUse" x="0" y="67" width="82" height="67">
<path d="M0 67.6139H81.5909V133.068H0V67.6139Z" fill="white"/>
</mask>
<g mask="url(#mask2_353_21207)">
<path fill-rule="evenodd" clip-rule="evenodd" d="M79.375 110.597C79.375 132.5 0 132.5 0 110.597C0 88.6649 17.7557 70.9093 39.6875 70.9093C61.5909 70.9093 79.375 88.6649 79.375 110.597Z" fill="#B3A4EE"/>
</g>
<path fill-rule="evenodd" clip-rule="evenodd" d="M21.3335 41.9889C21.3335 52.1025 29.5437 60.3127 39.6858 60.3127C49.8278 60.3127 58.038 52.1025 58.038 41.9889C58.038 31.8468 49.8278 23.6366 39.6858 23.6366C29.5437 23.6366 21.3335 31.8468 21.3335 41.9889Z" fill="#EFC7A4"/>
<mask id="mask3_353_21207" style="mask-type:luminance" maskUnits="userSpaceOnUse" x="183" y="0" width="45" height="39">
<path d="M183.409 0H227.046V38.5227H183.409V0Z" fill="white"/>
</mask>
<g mask="url(#mask3_353_21207)">
<path fill-rule="evenodd" clip-rule="evenodd" d="M186.818 18.3523C186.818 28.4943 195.029 36.7045 205.142 36.7045C215.284 36.7045 223.494 28.4943 223.494 18.3523C223.494 8.23864 215.284 0 205.142 0C195.029 0 186.818 8.23864 186.818 18.3523Z" fill="#EFC7A4"/>
</g>
<path fill-rule="evenodd" clip-rule="evenodd" d="M244.828 86.9607C244.828 108.864 165.453 108.864 165.453 86.9607C165.453 65.0289 183.237 47.2732 205.14 47.2732C227.072 47.2732 244.828 65.0289 244.828 86.9607Z" fill="#F76C82"/>
<path fill-rule="evenodd" clip-rule="evenodd" d="M131.647 41.9889C131.647 52.1025 139.857 60.3127 149.999 60.3127C160.113 60.3127 168.352 52.1025 168.352 41.9889C168.352 31.8468 160.113 23.6366 149.999 23.6366C139.857 23.6366 131.647 31.8468 131.647 41.9889Z" fill="#EFC7A4"/>
<path fill-rule="evenodd" clip-rule="evenodd" d="M189.686 110.597C189.686 132.5 110.311 132.5 110.311 110.597C110.311 88.6648 128.066 70.9091 149.998 70.9091C171.901 70.9091 189.686 88.6648 189.686 110.597Z" fill="#636C77"/>
<mask id="mask4_353_21207" style="mask-type:luminance" maskUnits="userSpaceOnUse" x="219" y="67" width="81" height="67">
<path d="M219.772 67.6139H299.999V133.068H219.772V67.6139Z" fill="white"/>
</mask>
<g mask="url(#mask4_353_21207)">
<path fill-rule="evenodd" clip-rule="evenodd" d="M299.999 110.597C299.999 132.5 220.624 132.5 220.624 110.597C220.624 88.6649 238.38 70.9093 260.312 70.9093C282.215 70.9093 299.999 88.6649 299.999 110.597Z" fill="#C6EA94"/>
</g>
<path fill-rule="evenodd" clip-rule="evenodd" d="M241.96 41.9889C241.96 52.1025 250.171 60.3127 260.313 60.3127C270.426 60.3127 278.637 52.1025 278.637 41.9889C278.637 31.8468 270.426 23.6366 260.313 23.6366C250.171 23.6366 241.96 31.8468 241.96 41.9889Z" fill="#EFC7A4"/>
<mask id="mask5_353_21207" style="mask-type:luminance" maskUnits="userSpaceOnUse" x="0" y="147" width="300" height="153">
<path d="M0 147.273H300V299.659H0V147.273Z" fill="white"/>
</mask>
<g mask="url(#mask5_353_21207)">
<path fill-rule="evenodd" clip-rule="evenodd" d="M290.142 174.517C260.597 174.517 245.767 210.313 266.676 231.193C270.511 235.057 270.511 241.278 266.676 245.142L245.455 266.335C241.619 270.199 235.369 270.199 231.506 266.335C210.625 245.455 174.858 260.284 174.858 289.83C174.858 295.256 170.426 299.659 165 299.659H135C129.545 299.659 125.142 295.256 125.142 289.83C125.142 260.256 89.375 245.426 68.4659 266.335C64.6307 270.199 58.3807 270.199 54.5455 266.335L33.3239 245.142C29.4602 241.278 29.4602 235.057 33.3239 231.193C54.2045 210.313 39.375 174.517 9.85795 174.517C4.40341 174.517 0 170.114 0 164.659V149.659H76.7045C76.7045 190.142 109.517 222.983 150 222.983C190.483 222.983 223.295 190.142 223.295 149.659H300V164.659C300 170.114 295.597 174.517 290.142 174.517Z" fill="#0D9EE2"/>
<path fill-rule="evenodd" clip-rule="evenodd" d="M97.3296 149.659H202.671C202.671 178.75 179.091 202.358 150 202.358C120.909 202.358 97.3296 178.75 97.3296 149.659Z" fill="#F5B945"/>
</g>
</svg>
