<svg width="300" height="304" viewBox="0 0 300 304" fill="none" xmlns="http://www.w3.org/2000/svg">
<path d="M171.324 87.2506C171.464 85.2442 171.575 83.2099 171.575 81.1478C171.575 60.7773 163.327 42.3016 150.006 28.9535C136.658 15.6054 118.266 7.35681 97.9234 7.35681C77.5808 7.35681 59.1887 15.6054 45.8685 28.9535C32.5482 42.3016 24.2996 60.7773 24.2996 81.1478C24.2996 83.2099 24.3832 85.2442 24.5504 87.2506H17.2215C17.0543 85.2442 16.9707 83.1821 16.9707 81.1478C16.9707 58.743 26.0552 38.456 40.6853 23.7703C55.3431 9.08454 75.5744 0 97.9234 0C120.273 0 140.532 9.08454 155.162 23.7703C169.82 38.456 178.876 58.743 178.876 81.1478C178.876 83.1821 178.793 85.2442 178.653 87.2506H171.324Z" fill="#676873"/>
<mask id="mask0_353_21210" style="mask-type:luminance" maskUnits="userSpaceOnUse" x="0" y="120" width="197" height="122">
<path d="M0 120.077H196.683V241.353H0V120.077Z" fill="white"/>
</mask>
<g mask="url(#mask0_353_21210)">
<path fill-rule="evenodd" clip-rule="evenodd" d="M195.82 189.8C192.727 104.611 3.12201 104.611 0.0288086 189.8V235.696H195.82V189.8Z" fill="#1B6FAB"/>
</g>
<path fill-rule="evenodd" clip-rule="evenodd" d="M195.819 189.8C194.454 151.706 155.747 130.639 113.139 126.626C70.503 130.639 31.7961 151.706 30.4307 189.8V235.696H195.819V189.8Z" fill="#3589C9"/>
<path fill-rule="evenodd" clip-rule="evenodd" d="M97.9242 29.26C69.333 29.26 46.1758 52.5008 46.1758 81.1478C46.1758 109.795 69.333 133.036 97.9242 133.036C126.515 133.036 149.701 109.795 149.701 81.1478C149.701 52.5008 126.515 29.26 97.9242 29.26Z" fill="#E2B698"/>
<path fill-rule="evenodd" clip-rule="evenodd" d="M109.906 131.642C132.729 126.208 149.7 105.67 149.7 81.1476C149.7 56.6249 132.729 36.0871 109.906 30.6531C87.1114 36.0871 70.1406 56.6249 70.1406 81.1476C70.1406 105.67 87.1114 126.208 109.906 131.642Z" fill="#EFC9AE"/>
<path fill-rule="evenodd" clip-rule="evenodd" d="M15.4103 103.385H27.6716C30.5419 103.385 32.8827 101.044 32.8827 98.1463V75.0169C32.8827 72.1466 30.5419 69.778 27.6716 69.778H15.4103C12.54 69.778 10.1992 72.1466 10.1992 75.0169V98.1463C10.1992 101.044 12.54 103.385 15.4103 103.385Z" fill="#3589C9"/>
<path d="M174.307 96.0565C176.341 96.0565 177.985 97.7006 177.985 99.707C177.985 101.741 176.341 103.385 174.307 103.385H127.574C125.568 103.385 123.924 101.741 123.924 99.707C123.924 97.7006 125.568 96.0565 127.574 96.0565H174.307Z" fill="#676873"/>
<mask id="mask1_353_21210" style="mask-type:luminance" maskUnits="userSpaceOnUse" x="25" y="162" width="144" height="142">
<path d="M25.4717 162.88H168.149V303.384H25.4717V162.88Z" fill="white"/>
</mask>
<g mask="url(#mask1_353_21210)">
<path fill-rule="evenodd" clip-rule="evenodd" d="M153.966 221.986H160.654C163.301 221.986 165.447 224.131 165.447 226.807V244.613C165.447 247.233 163.301 249.379 160.654 249.379H153.966C152.545 255.231 150.26 260.72 147.222 265.709L151.96 270.474C153.827 272.341 153.827 275.378 151.96 277.273L139.392 289.841C137.525 291.708 134.487 291.708 132.62 289.841L127.883 285.104C122.923 288.141 117.433 290.454 111.609 291.875V298.563C111.609 301.211 109.463 303.356 106.816 303.356H89.0368C86.4173 303.356 84.2715 301.211 84.2715 298.563V291.875C78.4474 290.454 72.9577 288.141 67.9695 285.104L63.2322 289.841C61.3651 291.708 58.3277 291.708 56.4606 289.841L43.8927 277.273C42.0535 275.378 42.0535 272.341 43.8927 270.474L48.6301 265.709C45.6205 260.72 43.3075 255.231 41.8863 249.379H35.1983C32.5788 249.379 30.4331 247.233 30.4331 244.613V226.807C30.4331 224.131 32.5788 221.986 35.1983 221.986H41.8863C43.3075 216.134 45.6205 210.644 48.6301 205.656L43.8927 200.918C42.0535 199.051 42.0535 195.986 43.8927 194.147L56.4606 181.551C58.3277 179.684 61.3651 179.684 63.2322 181.551L67.9695 186.288C72.9577 183.251 78.4474 180.938 84.2715 179.517V172.801C84.2715 170.154 86.4173 168.008 89.0368 168.008H106.816C109.463 168.008 111.609 170.154 111.609 172.801V179.517C117.433 180.938 122.923 183.251 127.883 186.261L132.62 181.551C134.487 179.684 137.525 179.684 139.392 181.551L151.96 194.147C153.827 195.986 153.827 199.051 151.96 200.918L147.222 205.656C150.26 210.644 152.545 216.162 153.966 221.986Z" fill="#F7B84E"/>
</g>
<path fill-rule="evenodd" clip-rule="evenodd" d="M137.021 235.696C137.021 257.349 119.52 274.877 97.9236 274.877C76.3269 274.877 58.8545 257.349 58.8545 235.696C58.8545 214.072 76.3269 196.516 97.9236 196.516C119.52 196.516 137.021 214.044 137.021 235.696Z" fill="#CAD1D8"/>
<path fill-rule="evenodd" clip-rule="evenodd" d="M137.021 235.696C137.021 254.618 123.618 270.418 105.811 274.069C88.004 270.418 74.6001 254.618 74.6001 235.696C74.6001 216.775 88.004 200.975 105.811 197.296C123.618 200.975 137.021 216.775 137.021 235.696Z" fill="#E2E5E7"/>
<path fill-rule="evenodd" clip-rule="evenodd" d="M78.5841 269.749L89.6472 258.658C91.9044 256.401 94.7189 255.286 97.8957 255.398C103.358 255.593 108.903 253.614 113.055 249.434C118.322 244.14 120.105 236.699 118.406 229.956L106.367 241.994L100.571 240.434L94.7468 238.901L93.1863 233.049L91.6257 227.225L103.664 215.158C96.9204 213.459 89.48 215.242 84.2132 220.537C80.0611 224.689 78.0825 230.234 78.2497 235.724C78.389 238.929 77.2744 241.715 75.0172 244L63.9541 255.091C67.4374 261.194 72.5092 266.266 78.5841 269.749Z" fill="#1B6FAB"/>
<path fill-rule="evenodd" clip-rule="evenodd" d="M85.495 262.81L89.6471 258.658C91.9043 256.401 94.7188 255.286 97.8956 255.398C103.358 255.593 108.903 253.614 113.055 249.434C118.322 244.14 120.105 236.699 118.406 229.956L106.367 241.994L100.571 240.434L94.7467 238.873L91.6256 227.225L103.664 215.158C96.9203 213.459 89.4799 215.242 84.2131 220.537C80.061 224.689 78.0546 230.234 78.2496 235.724C78.389 238.734 77.4136 241.381 75.4072 243.582C76.912 250.967 80.479 257.572 85.495 262.81Z" fill="#3589C9"/>
<path fill-rule="evenodd" clip-rule="evenodd" d="M285.077 18.3358C304.974 38.2884 304.974 70.6138 285.077 90.5663C267.884 107.788 241.494 110.101 221.792 97.5887L217.835 98.6755L200.223 103.385L204.961 85.7454L206.02 81.7604C193.535 62.0308 195.876 35.5575 213.042 18.3358C232.939 -1.58884 265.181 -1.58884 285.077 18.3358Z" fill="#CAD1D8"/>
<path fill-rule="evenodd" clip-rule="evenodd" d="M285.077 18.3361C304.974 38.2886 304.974 70.614 285.077 90.5665C267.883 107.788 241.494 110.101 221.792 97.5889L217.835 98.6757L215.745 99.2052L219.34 85.7456L220.426 81.7606C207.914 62.031 210.283 35.5577 227.449 18.3361C235.558 10.2269 245.729 5.40591 256.263 3.90112C266.797 5.40591 276.968 10.2269 285.077 18.3361Z" fill="#E2E5E7"/>
<path d="M275.239 68.4961C277.246 68.4961 278.89 70.1402 278.89 72.1466C278.89 74.1809 277.246 75.825 275.239 75.825H222.878C220.843 75.825 219.199 74.1809 219.199 72.1466C219.199 70.1402 220.843 68.4961 222.878 68.4961H275.239ZM275.239 33.0775C277.246 33.0775 278.89 34.7217 278.89 36.7559C278.89 38.7623 277.246 40.4065 275.239 40.4065H222.878C220.843 40.4065 219.199 38.7623 219.199 36.7559C219.199 34.7217 220.843 33.0775 222.878 33.0775H275.239ZM275.239 50.7729C277.246 50.7729 278.89 52.417 278.89 54.4513C278.89 56.4856 277.246 58.1018 275.239 58.1018H222.878C220.843 58.1018 219.199 56.4856 219.199 54.4513C219.199 52.417 220.843 50.7729 222.878 50.7729H275.239Z" fill="#676873"/>
<path fill-rule="evenodd" clip-rule="evenodd" d="M168.204 103.385H180.438C183.308 103.385 185.677 101.044 185.677 98.1463V75.0169C185.677 72.1466 183.308 69.778 180.438 69.778H168.204C165.334 69.778 162.965 72.1466 162.965 75.0169V98.1463C162.965 101.044 165.334 103.385 168.204 103.385Z" fill="#3589C9"/>
</svg>
